<svg class="main-svg" xmlns="http://www.w3.org/2000/svg" xmlns:xlink="http://www.w3.org/1999/xlink" width="700" height="300" style="" viewBox="0 0 700 300"><rect x="0" y="0" width="700" height="300" style="fill: rgb(255, 255, 255); fill-opacity: 1;"/><defs id="defs-ad31a2"><g class="clips"><clipPath id="clipad31a2xyplot" class="plotclip"><rect width="465.29999999999995" height="227"/></clipPath><clipPath id="clipad31a2xy2plot" class="plotclip"><rect width="465.29999999999995" height="227"/></clipPath><clipPath class="axesclip" id="clipad31a2x"><rect x="60" y="0" width="465.29999999999995" height="300"/></clipPath><clipPath class="axesclip" id="clipad31a2y"><rect x="0" y="20" width="700" height="227"/></clipPath><clipPath class="axesclip" id="clipad31a2xy"><rect x="60" y="20" width="465.29999999999995" height="227"/></clipPath><clipPath class="axesclip" id="clipad31a2y2"><rect x="0" y="20" width="700" height="227"/></clipPath><clipPath class="axesclip" id="clipad31a2xy2"><rect x="60" y="20" width="465.29999999999995" height="227"/></clipPath></g><g class="gradients"/><g class="patterns"/></defs><g class="bglayer"><rect class="bg" x="60" y="20" width="465.29999999999995" height="227" style="fill: rgb(229, 236, 246); fill-opacity: 1; stroke-width: 0;"/></g><g class="layer-below"><g class="imagelayer"/><g class="shapelayer"/></g><g class="cartesianlayer"><g class="subplot xy"><g class="layer-subplot"><g class="shapelayer"/><g class="imagelayer"/></g><g class="gridlayer"><g class="x"><path class="xgrid crisp" transform="translate(163.07,0)" d="M0,20v227" style="stroke: rgb(255, 255, 255); stroke-opacity: 1; stroke-width: 1px;"/><path class="xgrid crisp" transform="translate(266.14,0)" d="M0,20v227" style="stroke: rgb(255, 255, 255); stroke-opacity: 1; stroke-width: 1px;"/><path class="xgrid crisp" transform="translate(369.2,0)" d="M0,20v227" style="stroke: rgb(255, 255, 255); stroke-opacity: 1; stroke-width: 1px;"/><path class="xgrid crisp" transform="translate(472.27,0)" d="M0,20v227" style="stroke: rgb(255, 255, 255); stroke-opacity: 1; stroke-width: 1px;"/></g><g class="y"><path class="ygrid crisp" transform="translate(0,176.36)" d="M60,0h465.29999999999995" style="stroke: rgb(255, 255, 255); stroke-opacity: 1; stroke-width: 1px;"/><path class="ygrid crisp" transform="translate(0,112.05)" d="M60,0h465.29999999999995" style="stroke: rgb(255, 255, 255); stroke-opacity: 1; stroke-width: 1px;"/><path class="ygrid crisp" transform="translate(0,47.739999999999995)" d="M60,0h465.29999999999995" style="stroke: rgb(255, 255, 255); stroke-opacity: 1; stroke-width: 1px;"/></g><g class="y2"><path class="y2grid crisp" transform="translate(0,184.59)" d="M60,0h465.29999999999995" style="stroke: rgb(255, 255, 255); stroke-opacity: 1; stroke-width: 1px;"/><path class="y2grid crisp" transform="translate(0,133.51)" d="M60,0h465.29999999999995" style="stroke: rgb(255, 255, 255); stroke-opacity: 1; stroke-width: 1px;"/><path class="y2grid crisp" transform="translate(0,82.43)" d="M60,0h465.29999999999995" style="stroke: rgb(255, 255, 255); stroke-opacity: 1; stroke-width: 1px;"/><path class="y2grid crisp" transform="translate(0,31.35)" d="M60,0h465.29999999999995" style="stroke: rgb(255, 255, 255); stroke-opacity: 1; stroke-width: 1px;"/></g></g><g class="zerolinelayer"><path class="xzl zl crisp" transform="translate(60,0)" d="M0,20v227" style="stroke: rgb(255, 255, 255); stroke-opacity: 1; stroke-width: 2px;"/><path class="yzl zl crisp" transform="translate(0,240.68)" d="M60,0h465.29999999999995" style="stroke: rgb(255, 255, 255); stroke-opacity: 1; stroke-width: 2px;"/><path class="y2zl zl crisp" transform="translate(0,235.67)" d="M60,0h465.29999999999995" style="stroke: rgb(255, 255, 255); stroke-opacity: 1; stroke-width: 2px;"/></g><path class="xlines-below"/><path class="ylines-below"/><g class="overlines-below"><path class="xy2-x"/><path class="xy2-y"/></g><g class="xaxislayer-below"/><g class="yaxislayer-below"/><g class="overaxes-below"><g class="xy2-x"/><g class="xy2-y"/></g><g class="plot" transform="translate(60,20)" clip-path="url(#clipad31a2xyplot)"><g class="scatterlayer mlayer"><g class="trace scatter trace84b4bf" style="stroke-miterlimit: 2; opacity: 1;"><g class="fills"/><g class="errorbars"/><g class="lines"><path class="js-line" d="M0,19.12L0.05,19.9L0.46,17.29L0.62,18.96L0.67,15.76L0.93,13.54L1.03,18.03L1.34,14.51L1.39,16.92L2.27,21.11L2.32,20.93L2.58,19.25L2.94,23.69L3.04,21.95L3.09,20.72L3.4,22.23L3.66,17L3.71,17.68L3.76,17.2L4.17,14.4L4.33,20.3L4.48,17.94L4.53,17.32L5.26,21.53L5.31,19.33L5.36,18.97L5.82,27.07L5.98,23.99L6.03,18.73L6.24,14.21L6.7,17.1L6.75,19.16L6.85,18.97L7.01,25.66L7.52,21.63L7.58,21.83L8.09,22.34L8.25,13.62L8.45,14.6L8.5,14.54L8.97,20.97L9.22,13.7L9.28,14.9L9.48,14.08L10.2,19.49L10.26,18.13L10.41,23.95L10.98,16.33L11.03,15.58L11.39,14.18L11.75,19.03L11.9,18.75L11.96,18.1L12.06,21.05L12.52,15.22L12.63,15.58L12.68,15.68L12.78,15.04L13.24,27.4L13.71,25.6L13.76,24.99L14.17,20.5L14.48,24.57L14.53,25.14L14.79,15.67L15.31,20.21L15.36,21.89L15.61,18.32L15.72,20.64L15.77,24.47L15.98,24.68L16.59,20.24L16.65,21.96L16.9,21.07L17.42,25.32L17.47,25.14L17.52,23.57L18.35,16.25L18.4,17.98L18.45,19.02L18.5,20.18L18.86,11.86L18.96,14.62L19.02,13.54L19.53,11.35L19.94,19.83L20,18.39L20.05,16.95L20.36,19.36L20.56,15.64L20.61,14.04L21.49,22.71L21.54,21.59L21.59,21L21.85,17.54L21.95,19.04L22,20.32L22.11,22.16L22.31,17.65L22.47,20.65L22.52,18.53L22.73,19.63L22.98,15.54L23.04,17.04L23.09,15.88L23.55,24.98L23.91,22.19L23.96,20.48L24.53,15.49L24.89,16.06L24.94,17.11L25.05,15.12L25.3,23.87L25.41,23.04L25.46,23.14L25.61,25.77L26.08,20.08L26.23,21.94L26.28,22.24L26.44,23.36L27.26,15.2L27.31,17.3L27.73,19.45L27.78,21.5L28.09,15.09L28.55,18.6L28.6,19.23L28.76,21.17L29.12,17.97L29.37,20.55L29.43,19.54L29.74,25.61L30.1,24.15L30.15,22.75L30.2,23.09L30.3,20.42L30.35,18.91L30.61,22.03L31.07,18.32L31.13,19.82L31.18,17.36L31.49,24.63L31.8,21.59L31.85,22.31L32.41,25.16L32.62,22.93L32.67,20.44L32.72,22.06L33.29,16.98L33.34,16.41L33.5,17.73L33.75,15.21L33.81,17.28L33.86,15.61L34.68,22.55L34.73,20.85L34.79,21.95L34.84,19.2L35.15,23.67L35.51,22.87L35.56,23.77L35.97,20.3L36.33,21.96L36.38,22.33L37.16,18.01L37.21,15.3L37.36,13.61L37.77,18.18L37.88,16.66L37.93,17.79L38.19,13.77L38.6,18.92L38.65,19.22L38.81,18.9L39.11,26.24L39.42,23.13L39.48,21.9L39.78,25.02L40.09,19.2L40.3,19.91L40.35,20.68L40.45,18.28L40.97,23.87L41.02,21.73L41.07,22.6L42.1,30.59L42.15,28.62L42.98,22.84L43.03,24.4L43.08,24.54L43.39,26.74L43.65,22.86L43.7,23.52L43.75,23L44.01,25.5L44.11,23.6L44.16,23.02L44.58,21.53L44.78,27.43L44.94,24.23L44.99,25.14L45.04,25.64L45.3,21.96L45.35,21.96L45.4,21.08L45.71,12.97L46.23,15.14L46.28,16.9L46.79,22.01L46.9,17.31L46.95,15.43L47,14.37L47.36,22.23L47.41,22.81L47.72,19.88L48.08,24.15L48.13,24.68L48.29,25.61L48.34,24.05L48.39,22.87L48.6,23.56L48.75,21.9L48.8,20.74L49.16,20.45L49.58,25.71L49.63,22.79L49.68,21.52L49.73,20.42L50.3,24.28L50.35,26.15L50.4,26.93L50.71,23.43L50.86,24.7L50.92,23.08L51.07,26.21L51.53,20.43L51.69,23.87L51.74,23.49L51.84,24.33L51.95,23.18L52.05,23.75L52.1,20.67L52.26,20.51L53.03,29.99L53.29,27.4L53.34,25.79L54.21,31.99L54.27,31.49L54.52,27.14L55.04,29.26L55.09,29.78L55.19,28.12L55.66,31.4L55.86,29.33L55.91,29.51L56.33,34.33L56.69,32.38L56.74,31.31L56.79,31.74L57.1,28.33L57.15,28.14L57.2,27.43L57.51,32.23L57.61,32.03L57.67,31.88L57.87,32.48L58.28,26.69L58.49,28.76L58.54,30.06L58.59,29.43L59.11,31.63L59.16,31.25L59.21,31.83L59.52,27.62L59.73,29.48L59.78,31.02L60.04,32.15L60.5,26.53L60.6,27.43L60.66,29L60.71,28.74L61.02,30.79L61.07,31.08L61.27,33.41L61.63,29.05L61.74,31.39L61.79,29.94L62.05,33.41L62.61,32.55L62.67,31.32L62.82,33.55L62.97,31.24L63.39,31.4L63.44,30.06L63.64,29.21L64.11,31.12L64.26,30.82L64.31,30.45L64.42,29L64.88,31.26L64.98,30.09L65.04,30.14L65.35,31.35L65.45,28.74L65.6,30.08L65.65,28.71L65.86,25.61L66.53,33L66.58,31.24L66.63,31.38L67.3,37.36L67.35,36.4L67.41,34.2L67.72,36.21L68.02,32.55L68.08,32.89L68.13,33.45L68.49,27.93L68.75,31.63L68.8,33.05L69.26,31.07L69.73,35.85L69.78,36.35L70.34,38.37L70.55,37.59L70.6,36.68L70.81,35.34L70.91,36.86L70.96,36.21L71.01,33.72L71.53,34.91L71.68,31.87L71.79,33.31L71.84,33.53L71.89,34.08L72.1,31.35L72.15,31.41L72.2,29.18L72.25,29.81L72.35,26.06L72.71,27L72.77,25.54L73.18,29.38L73.44,26.35L73.49,26.04L73.8,30.36L74.26,27.49L74.31,28.04L74.42,28.69L74.62,26.65L74.88,28.68L74.93,30L75.6,33.9L75.86,33.18L75.91,33.34L75.96,32.91L76.22,34.95L76.48,34.79L76.53,34.93L76.84,36.48L76.89,34.74L76.94,34.78L76.99,32.99L77.25,31.92L77.61,33.89L77.71,33.11L77.76,32.73L78.38,38.93L78.59,34.71L78.64,34.94L78.69,34.14L79.16,38.46L79.21,38.74L79.47,40.48L79.98,37.38L80.03,37.94L80.08,38.26L80.6,37.41L80.81,39.64L80.86,38.73L80.91,38.61L81.22,39.67L81.42,37.24L81.48,36.15L81.99,41.11L82.4,38.88L82.45,39.08L82.76,41.17L83.07,40.31L83.12,39.08L83.43,43.05L83.74,39.61L83.79,39.54L83.85,40.11L84.1,37L84.26,37.15L84.31,36.76L84.98,42.1L85.39,41.27L85.44,40.04L85.49,39.89L85.7,40.86L85.75,41.78L85.86,43.27L86.06,39.53L86.53,42.57L86.58,41.44L86.63,40.63L87.14,43.73L87.3,41.09L87.35,41.55L88.43,38.08L88.48,38.77L88.64,37.24L89.05,38.74L89.1,38.82L89.57,41.86L89.82,39.31L89.88,37.89L90.39,38.78L90.44,36.7L91.78,43.46L91.83,42.3L92.66,44.68L92.71,44.14L92.76,43.66L92.86,44.59L93.22,41.09L93.28,41.63L93.33,40.66L94,43.84L94.31,43.02L94.36,41.54L94.51,38.79L94.98,43.03L95.03,43.34L96.06,48.07L96.16,47.83L96.21,46.27L96.63,48.41L96.88,47L96.94,47.06L97.04,47.58L97.19,45.62L97.5,46.34L97.55,45.36L97.61,43.48L97.76,45.81L98.28,45.41L98.33,45.25L98.89,48.64L98.95,49.91L99.25,52.77L99.67,50.44L99.72,50.07L99.87,50.83L99.92,49.08L100.18,50.68L100.75,50.17L100.8,49.1L101.16,49.49L101.52,44.99L101.68,45.58L101.73,45.77L101.83,44.38L102.19,46.8L102.24,46.85L102.29,46.5L102.55,48.3L102.76,47.99L102.81,48.28L102.91,46.68L103.38,48.89L103.43,49.34L103.48,49.77L103.79,46.48L103.84,44.81L103.89,44.33L104.25,46.54L104.36,46.55L104.41,47.34L104.67,48.3L104.72,45.92L104.87,45.13L105.8,49.18L105.85,49.31L106.42,52.02L106.52,50.88L106.57,49.04L106.68,48.74L106.93,49.92L106.98,50.2L107.35,49.58L107.6,51.65L107.81,51.16L107.86,51.19L107.91,50.86L108.38,52.75L108.43,52.9L109.05,50.54L109.25,51.2L109.3,51.37L109.56,51.27L110.39,53.96L110.44,53.53L110.54,54.43L110.95,51.89L111.06,52.71L111.11,52.25L111.88,54.44L112.03,54.03L112.09,52.98L112.45,55.56L112.5,54.1L112.55,52.28L112.7,50.77L113.22,54.02L113.32,53.55L113.37,53.12L113.94,55.95L114.2,55.83L114.25,54.46L114.56,54.23L115.08,56.56L115.13,56.25L115.18,56.84L115.23,56.21L115.64,58.17L115.85,57.51L115.9,57.76L116.47,60.25L116.57,58.93L116.62,57.26L117.34,61.06L117.5,59.41L117.55,59.61L118.94,63.24L118.99,61.98L119.2,63.26L119.25,62.62L119.3,61.55L119.35,62.11L119.82,59.3L119.87,59.74L119.92,59.8L120.54,61.16L120.59,60.39L120.64,59.4L122.14,65.18L122.19,64.28L122.75,67.46L123.17,66.95L123.22,67.15L123.63,68.16L123.68,69.09L123.78,69.32L123.89,67.89L123.94,68L123.99,67.05L124.2,68.19L124.45,66.18L124.66,66.64L124.71,65.15L125.69,68.26L125.74,67.49L125.79,67.17L125.85,67.55L126.16,65.25L126.26,65.36L126.31,65.56L126.83,68.03L126.93,66.39L126.98,65.12L127.03,64.39L127.6,66.09L127.7,64.85L127.75,64.94L128.06,66.98L128.42,66.03L128.47,64.59L129.2,61.21L129.45,61.92L129.5,61.96L129.76,61.24L131.77,68.5L132.08,68.12L132.13,67.18L132.6,66.74L133.22,69.8L133.42,68.72L133.47,67.54L133.52,67.89L133.78,65.6L134.19,67.31L134.25,67.45L134.35,67.26L134.92,68.72L134.97,67.74L135.02,66.8L135.53,68.79L136,68.22L136.05,67.64L136.62,68.88L136.72,68.44L136.77,67.36L136.98,65.85L137.75,68.52L137.8,67.24L137.9,66.41L138.83,70.83L138.99,68.84L139.04,68.18L139.09,67.61L139.5,69.19L139.71,69.09L139.76,68.71L139.91,68.23L140.38,69.8L140.43,69.19L140.48,68.32L142.08,73.5L142.29,71.93L142.34,70.75L142.49,70.84L142.54,70.07L142.59,69.56L142.65,69.12L143.16,70.7L143.21,71.05L143.42,70.64L144.14,73.49L144.19,74.31L144.4,73.55L144.66,75.3L144.76,74.65L144.81,73.53L145.02,74.03L145.07,72.95L145.17,72.29L145.53,74.15L145.58,74.87L146.25,77.77L146.56,77.71L146.61,76.81L147.08,73.89L147.39,75.31L147.44,75.71L147.64,75.96L147.7,75.07L147.85,75.1L147.9,74.96L148.88,77.43L149.04,76.85L149.09,75.76L149.86,77.2L149.91,76.5L149.96,76.69L150.53,78.49L150.58,78.59L150.63,78.32L150.89,79.19L151.3,78.72L151.36,78.83L152.18,81.32L152.23,80.63L152.28,80.94L152.49,81.65L152.54,80.64L152.59,80.78L152.64,80.29L153.11,80.65L153.42,79.13L153.62,79.62L153.67,79.77L154.03,78.64L154.91,81.22L154.96,80.32L155.01,79.86L155.58,81.01L155.63,81.12L156.92,85.18L156.97,85.34L157.13,85.73L157.18,84.78L157.44,85.33L157.49,84.52L159.14,87.77L159.19,87.06L159.5,87.93L159.55,86.93L159.91,87.71L159.96,85.96L160.01,86.24L160.37,84.59L160.68,85.87L160.73,85.91L162.07,89.48L162.13,88.27L162.33,88.1L163.16,89.73L163.21,90.33L163.41,90.85L163.57,90.56L163.62,89.62L165.17,93.02L165.27,91.73L165.32,91.57L166.35,93.52L166.4,92.67L166.66,91.77L167.12,92.4L167.18,92.79L167.33,92.11L167.69,94.09L167.74,94.16L167.85,93.5L168.41,94.74L168.46,94.94L171.5,99.94L171.56,100.4L172.02,101.26L172.23,100.66L172.28,99.73L172.43,99.04L172.74,100L172.79,100.1L173.31,101.18L173.36,101.41L173.41,100.02L174.13,100.81L174.18,101.31L174.34,100.82L174.55,102.13L174.75,101.87L174.8,101.98L175.42,100.29L175.68,100.85L175.73,101.11L176.61,103.26L176.66,102.46L177.59,104.55L177.74,103.88L177.79,103.36L178.46,101.84L178.67,102.38L178.72,102.38L178.98,102.84L179.03,102.03L179.24,102.36L179.29,101.95L179.49,102.24L179.54,101.44L179.6,100.87L180.16,98.97L180.37,99.42L180.42,99.46L182.07,104.35L182.12,103.67L182.48,101.5L183,102.21L183.05,102.47L184.59,104.76L184.65,104.87L185.73,106.74L185.78,106.76L186.71,107.54L186.76,107.1L186.81,107.01L187.22,107.6L187.53,106.84L187.58,106.07L187.94,105.64L188.97,107.75L189.03,107.29L189.8,107.97L189.85,107.34L190.01,106.17L190.62,106.77L190.68,106.83L191.81,109.36L191.91,108.69L191.96,108.74L194.64,114.84L194.7,114.04L195.42,115.86L195.62,115.06L195.67,114.6L196.14,115.39L196.19,114.26L196.71,115.27L196.76,115.68L197.27,116.19L197.58,115.96L197.63,115.37L197.99,115.5L198.35,114.09L198.46,114.35L198.51,114.44L202.37,118.75L202.43,119L202.94,116.04L203.25,116.96L203.3,117.01L203.97,119.08L204.02,118.42L204.07,117.42L204.49,118.28L204.69,118.07L204.74,116.78L204.9,116.2L205.57,117.37L205.62,116.87L205.67,116.88L207.11,119.16L207.17,119.27L207.68,118.93L207.73,118.56L208.2,119.55L208.25,119.21L208.3,118.59L209.43,120.56L209.49,120.12L210.77,122.17L210.83,122.29L211.08,122.83L211.6,122.53L211.65,122.55L213.04,124.64L213.09,124.74L216.85,131.11L216.91,130.7L217.27,130.75L217.32,131.25L217.37,131.35L220.36,134.1L220.41,133.39L220.51,133.59L220.93,132.79L221.08,133.15L221.13,133.16L221.29,132.87L221.65,133.56L221.7,133.83L223.25,135.14L223.3,135.14L224.12,137.27L224.33,137.08L224.38,136.23L224.53,136.44L224.74,135.26L224.79,135.26L225.72,136.13L225.77,136.17L226.65,136.94L226.7,136.39L226.75,135.49L229.33,137.9L229.38,137.38L229.94,137.2L230.1,137.47L230.15,137.49L231.28,139.12L231.34,139.12L232.32,140.12L232.47,139.61L232.52,138.69L236.03,142.72L236.08,141.95L236.13,141.64L239.27,144.15L239.32,144.46L242,146.51L242.05,146.6L243.29,148.1L243.34,148.27L244.48,149.47L244.53,149.52L244.89,149.76L244.94,149.23L245.3,149.56L245.35,149.62L247.05,150.92L247.11,150.93L248.86,153.79L249.12,153.36L249.17,153.36L252.93,157.07L252.98,157.07L254.06,157.79L254.11,157.97L255.81,158.79L255.87,159.04L258.29,160.68L258.34,160.68L261.95,163.33L262,163.49L269.88,168.46L269.93,168.46L291.53,180.15L291.58,180.17L296.94,182.43L296.99,182.43L304.1,184.11L304.15,184.28L315.49,187.98L315.54,187.98L317.55,188.63L317.6,188.77L320.13,189.64L320.18,189.68L326.52,191.57L326.57,191.69L327.91,192.3L327.96,192.3L330.59,193.01L330.64,193.15L340.69,196.05L340.74,196.1L344.09,196.83L344.14,196.89L346.77,197.51L346.82,197.51L349.81,198.26L349.86,198.27L350.89,198.61L350.95,198.61L354.76,199.79L354.81,199.95L360.74,201.06L360.79,201.1L362.9,201.84L362.95,201.86L365.27,202.07L365.32,202.07L369.7,202.8L369.76,202.83L375.63,203.54L375.68,203.64L380.53,204.39L380.58,204.43L384.13,205.05L384.19,205.25L390.73,205.98L390.78,206.06L396.81,206.79L396.86,206.82L403.25,207.55L403.3,207.59L410.57,208.78L410.62,208.83L421.44,210.11L421.5,210.11L425.77,210.85L425.82,210.87L431.34,211.91L431.39,212.03L439.02,212.68L439.07,212.83L458.86,215.06L458.91,215.06L465.3,215.65" style="vector-effect: non-scaling-stroke; fill: none; stroke: rgb(99, 110, 250); stroke-opacity: 1; stroke-width: 2px; opacity: 1;"/></g><g class="points"/><g class="text"/></g></g></g><g class="overplot"><g class="xy2" transform="translate(60,20)" clip-path="url(#clipad31a2xy2plot)"><g class="scatterlayer mlayer"><g class="trace scatter tracef22008" style="stroke-miterlimit: 2; opacity: 1;"><g class="fills"/><g class="errorbars"/><g class="lines"><path class="js-line" d="M0,11.35L8.76,43.31L8.81,43.48L17.21,69.39L17.26,69.54L22.47,83.58L22.52,83.72L31.13,104.02L31.18,104.13L39.84,121.39L39.89,121.48L47.77,134.85L47.82,134.93L61.63,153.92L61.69,153.99L71.94,165.12L71.99,165.17L85.24,176.62L85.29,176.66L94.36,182.96L94.41,182.99L104.46,188.79L104.51,188.81L120.38,195.94L120.43,195.96L137.03,201.39L137.08,201.4L157.33,206.04L157.38,206.05L178.98,209.35L179.03,209.35L201.39,211.58L201.45,211.58L213.56,212.44L213.61,212.44L248.75,214.04L248.81,214.04L267.56,214.54L267.62,214.54L283.39,214.84L283.44,214.84L404.49,215.59L404.54,215.6L465.3,215.65" style="vector-effect: non-scaling-stroke; fill: none; stroke: rgb(239, 85, 59); stroke-opacity: 1; stroke-width: 2px; opacity: 1;"/></g><g class="points"/><g class="text"/></g></g></g></g><path class="xlines-above crisp" d="M0,0" style="fill: none;"/><path class="ylines-above crisp" d="M0,0" style="fill: none;"/><g class="overlines-above"><path class="xy2-x crisp" d="M0,0" style="fill: none;"/><path class="xy2-y crisp" d="M0,0" style="fill: none;"/></g><g class="xaxislayer-above"><g class="xtick"><text text-anchor="middle" x="0" y="260" transform="translate(60,0)" style="font-family: 'Open Sans', verdana, arial, sans-serif; font-size: 12px; fill: rgb(42, 63, 95); fill-opacity: 1; white-space: pre; opacity: 1;">0</text></g><g class="xtick"><text text-anchor="middle" x="0" y="260" style="font-family: 'Open Sans', verdana, arial, sans-serif; font-size: 12px; fill: rgb(42, 63, 95); fill-opacity: 1; white-space: pre; opacity: 1;" transform="translate(163.07,0)">2000</text></g><g class="xtick"><text text-anchor="middle" x="0" y="260" style="font-family: 'Open Sans', verdana, arial, sans-serif; font-size: 12px; fill: rgb(42, 63, 95); fill-opacity: 1; white-space: pre; opacity: 1;" transform="translate(266.14,0)">4000</text></g><g class="xtick"><text text-anchor="middle" x="0" y="260" style="font-family: 'Open Sans', verdana, arial, sans-serif; font-size: 12px; fill: rgb(42, 63, 95); fill-opacity: 1; white-space: pre; opacity: 1;" transform="translate(369.2,0)">6000</text></g><g class="xtick"><text text-anchor="middle" x="0" y="260" style="font-family: 'Open Sans', verdana, arial, sans-serif; font-size: 12px; fill: rgb(42, 63, 95); fill-opacity: 1; white-space: pre; opacity: 1;" transform="translate(472.27,0)">8000</text></g></g><g class="yaxislayer-above"><g class="ytick"><text text-anchor="end" x="59" y="4.199999999999999" transform="translate(0,240.68)" style="font-family: 'Open Sans', verdana, arial, sans-serif; font-size: 12px; fill: rgb(42, 63, 95); fill-opacity: 1; white-space: pre; opacity: 1;">0</text></g><g class="ytick"><text text-anchor="end" x="59" y="4.199999999999999" style="font-family: 'Open Sans', verdana, arial, sans-serif; font-size: 12px; fill: rgb(42, 63, 95); fill-opacity: 1; white-space: pre; opacity: 1;" transform="translate(0,176.36)">20k</text></g><g class="ytick"><text text-anchor="end" x="59" y="4.199999999999999" style="font-family: 'Open Sans', verdana, arial, sans-serif; font-size: 12px; fill: rgb(42, 63, 95); fill-opacity: 1; white-space: pre; opacity: 1;" transform="translate(0,112.05)">40k</text></g><g class="ytick"><text text-anchor="end" x="59" y="4.199999999999999" style="font-family: 'Open Sans', verdana, arial, sans-serif; font-size: 12px; fill: rgb(42, 63, 95); fill-opacity: 1; white-space: pre; opacity: 1;" transform="translate(0,47.739999999999995)">60k</text></g></g><g class="overaxes-above"><g class="xy2-x"/><g class="xy2-y"><g class="y2tick"><text text-anchor="start" x="526.3" y="4.199999999999999" transform="translate(0,235.67)" style="font-family: 'Open Sans', verdana, arial, sans-serif; font-size: 12px; fill: rgb(42, 63, 95); fill-opacity: 1; white-space: pre; opacity: 1;">0</text></g><g class="y2tick"><text text-anchor="start" x="526.3" y="4.199999999999999" style="font-family: 'Open Sans', verdana, arial, sans-serif; font-size: 12px; fill: rgb(42, 63, 95); fill-opacity: 1; white-space: pre; opacity: 1;" transform="translate(0,184.59)">500</text></g><g class="y2tick"><text text-anchor="start" x="526.3" y="4.199999999999999" style="font-family: 'Open Sans', verdana, arial, sans-serif; font-size: 12px; fill: rgb(42, 63, 95); fill-opacity: 1; white-space: pre; opacity: 1;" transform="translate(0,133.51)">1000</text></g><g class="y2tick"><text text-anchor="start" x="526.3" y="4.199999999999999" style="font-family: 'Open Sans', verdana, arial, sans-serif; font-size: 12px; fill: rgb(42, 63, 95); fill-opacity: 1; white-space: pre; opacity: 1;" transform="translate(0,82.43)">1500</text></g><g class="y2tick"><text text-anchor="start" x="526.3" y="4.199999999999999" style="font-family: 'Open Sans', verdana, arial, sans-serif; font-size: 12px; fill: rgb(42, 63, 95); fill-opacity: 1; white-space: pre; opacity: 1;" transform="translate(0,31.35)">2000</text></g></g></g></g><g class="subplot xy2"/></g><g class="polarlayer"/><g class="smithlayer"/><g class="ternarylayer"/><g class="geolayer"/><g class="funnelarealayer"/><g class="pielayer"/><g class="iciclelayer"/><g class="treemaplayer"/><g class="sunburstlayer"/><g class="glimages"/><defs id="topdefs-ad31a2"><g class="clips"/><clipPath id="legendad31a2"><rect width="123" height="48" x="0" y="0"/></clipPath></defs><g class="layer-above"><g class="imagelayer"/><g class="shapelayer"/></g><g class="infolayer"><g class="legend" pointer-events="all" transform="translate(564.9000000000001,20)"><rect class="bg" shape-rendering="crispEdges" width="123" height="48" x="0" y="0" style="stroke: rgb(68, 68, 68); stroke-opacity: 1; fill: rgb(255, 255, 255); fill-opacity: 1; stroke-width: 0px;"/><g class="scrollbox" transform="" clip-path="url(#legendad31a2)"><g class="groups"><g class="traces" transform="translate(0,14.5)" style="opacity: 1;"><text class="legendtext" text-anchor="start" x="40" y="4.680000000000001" style="font-family: 'Open Sans', verdana, arial, sans-serif; font-size: 12px; fill: rgb(42, 63, 95); fill-opacity: 1; white-space: pre;">Cost</text><g class="layers" style="opacity: 1;"><g class="legendfill"/><g class="legendlines"><path class="js-line" d="M5,0h30" style="fill: none; stroke: rgb(99, 110, 250); stroke-opacity: 1; stroke-width: 2px;"/></g><g class="legendsymbols"><g class="legendpoints"/></g></g><rect class="legendtoggle" x="0" y="-9.5" width="117.265625" height="19" style="fill: rgb(0, 0, 0); fill-opacity: 0;"/></g><g class="traces" transform="translate(0,33.5)" style="opacity: 1;"><text class="legendtext" text-anchor="start" x="40" y="4.680000000000001" style="font-family: 'Open Sans', verdana, arial, sans-serif; font-size: 12px; fill: rgb(42, 63, 95); fill-opacity: 1; white-space: pre;">Temperature</text><g class="layers" style="opacity: 1;"><g class="legendfill"/><g class="legendlines"><path class="js-line" d="M5,0h30" style="fill: none; stroke: rgb(239, 85, 59); stroke-opacity: 1; stroke-width: 2px;"/></g><g class="legendsymbols"><g class="legendpoints"/></g></g><rect class="legendtoggle" x="0" y="-9.5" width="117.265625" height="19" style="fill: rgb(0, 0, 0); fill-opacity: 0;"/></g></g></g><rect class="scrollbar" rx="20" ry="3" width="0" height="0" x="0" y="0" style="fill: rgb(128, 139, 164); fill-opacity: 1;"/></g><g class="g-gtitle"/><g class="g-xtitle"><text class="xtitle" x="292.65" y="287.8" text-anchor="middle" style="font-family: 'Open Sans', verdana, arial, sans-serif; font-size: 14px; fill: rgb(42, 63, 95); opacity: 1; font-weight: normal; white-space: pre;">Iterations</text></g><g class="g-ytitle" transform="translate(2.1591796875,0)"><text class="ytitle" transform="rotate(-90,11.840625000000003,133.5)" x="11.840625000000003" y="133.5" text-anchor="middle" style="font-family: 'Open Sans', verdana, arial, sans-serif; font-size: 14px; fill: rgb(42, 63, 95); opacity: 1; font-weight: normal; white-space: pre;">Cost</text></g><g class="g-y2title"><text class="y2title" transform="rotate(-90,581.9875,133.5)" x="581.9875" y="133.5" text-anchor="middle" style="font-family: 'Open Sans', verdana, arial, sans-serif; font-size: 14px; fill: rgb(42, 63, 95); opacity: 1; font-weight: normal; white-space: pre;">Temperature</text></g></g></svg>