<svg class="main-svg" xmlns="http://www.w3.org/2000/svg" xmlns:xlink="http://www.w3.org/1999/xlink" width="700" height="300" style="" viewBox="0 0 700 300"><rect x="0" y="0" width="700" height="300" style="fill: rgb(255, 255, 255); fill-opacity: 1;"/><defs id="defs-4923af"><g class="clips"><clipPath id="clip4923afxyplot" class="plotclip"><rect width="451.2" height="227"/></clipPath><clipPath id="clip4923afxy2plot" class="plotclip"><rect width="451.2" height="227"/></clipPath><clipPath class="axesclip" id="clip4923afx"><rect x="75" y="0" width="451.2" height="300"/></clipPath><clipPath class="axesclip" id="clip4923afy"><rect x="0" y="20" width="700" height="227"/></clipPath><clipPath class="axesclip" id="clip4923afxy"><rect x="75" y="20" width="451.2" height="227"/></clipPath><clipPath class="axesclip" id="clip4923afy2"><rect x="0" y="20" width="700" height="227"/></clipPath><clipPath class="axesclip" id="clip4923afxy2"><rect x="75" y="20" width="451.2" height="227"/></clipPath></g><g class="gradients"/><g class="patterns"/></defs><g class="bglayer"><rect class="bg" x="75" y="20" width="451.2" height="227" style="fill: rgb(229, 236, 246); fill-opacity: 1; stroke-width: 0;"/></g><g class="layer-below"><g class="imagelayer"/><g class="shapelayer"/></g><g class="cartesianlayer"><g class="subplot xy"><g class="layer-subplot"><g class="shapelayer"/><g class="imagelayer"/></g><g class="gridlayer"><g class="x"><path class="xgrid crisp" transform="translate(174.94,0)" d="M0,20v227" style="stroke: rgb(255, 255, 255); stroke-opacity: 1; stroke-width: 1px;"/><path class="xgrid crisp" transform="translate(274.89,0)" d="M0,20v227" style="stroke: rgb(255, 255, 255); stroke-opacity: 1; stroke-width: 1px;"/><path class="xgrid crisp" transform="translate(374.83,0)" d="M0,20v227" style="stroke: rgb(255, 255, 255); stroke-opacity: 1; stroke-width: 1px;"/><path class="xgrid crisp" transform="translate(474.78,0)" d="M0,20v227" style="stroke: rgb(255, 255, 255); stroke-opacity: 1; stroke-width: 1px;"/></g><g class="y"><path class="ygrid crisp" transform="translate(0,195.66)" d="M75,0h451.2" style="stroke: rgb(255, 255, 255); stroke-opacity: 1; stroke-width: 1px;"/><path class="ygrid crisp" transform="translate(0,141.41)" d="M75,0h451.2" style="stroke: rgb(255, 255, 255); stroke-opacity: 1; stroke-width: 1px;"/><path class="ygrid crisp" transform="translate(0,87.15)" d="M75,0h451.2" style="stroke: rgb(255, 255, 255); stroke-opacity: 1; stroke-width: 1px;"/><path class="ygrid crisp" transform="translate(0,32.89)" d="M75,0h451.2" style="stroke: rgb(255, 255, 255); stroke-opacity: 1; stroke-width: 1px;"/></g><g class="y2"><path class="y2grid crisp" transform="translate(0,184.59)" d="M75,0h451.2" style="stroke: rgb(255, 255, 255); stroke-opacity: 1; stroke-width: 1px;"/><path class="y2grid crisp" transform="translate(0,133.51)" d="M75,0h451.2" style="stroke: rgb(255, 255, 255); stroke-opacity: 1; stroke-width: 1px;"/><path class="y2grid crisp" transform="translate(0,82.43)" d="M75,0h451.2" style="stroke: rgb(255, 255, 255); stroke-opacity: 1; stroke-width: 1px;"/><path class="y2grid crisp" transform="translate(0,31.35)" d="M75,0h451.2" style="stroke: rgb(255, 255, 255); stroke-opacity: 1; stroke-width: 1px;"/></g></g><g class="zerolinelayer"><path class="xzl zl crisp" transform="translate(75,0)" d="M0,20v227" style="stroke: rgb(255, 255, 255); stroke-opacity: 1; stroke-width: 2px;"/><path class="y2zl zl crisp" transform="translate(0,235.67)" d="M75,0h451.2" style="stroke: rgb(255, 255, 255); stroke-opacity: 1; stroke-width: 2px;"/></g><path class="xlines-below"/><path class="ylines-below"/><g class="overlines-below"><path class="xy2-x"/><path class="xy2-y"/></g><g class="xaxislayer-below"/><g class="yaxislayer-below"/><g class="overaxes-below"><g class="xy2-x"/><g class="xy2-y"/></g><g class="plot" transform="translate(75,20)" clip-path="url(#clip4923afxyplot)"><g class="scatterlayer mlayer"><g class="trace scatter traceca1305" style="stroke-miterlimit: 2; opacity: 1;"><g class="fills"/><g class="errorbars"/><g class="lines"><path class="js-line" d="M0,22.16L0.45,25.61L0.8,17.41L0.85,18.51L1.3,23.19L1.55,20.52L1.6,18.73L1.95,15.69L2.6,23.05L2.65,21.36L2.7,19.54L2.8,16.25L3.3,24.28L3.35,24.15L3.4,24.97L4.15,17.9L4.3,19.85L4.35,22.71L4.6,24.01L4.7,20.15L4.75,18.15L4.85,13.55L5.3,22.04L5.45,17.91L5.5,18.44L5.65,19.19L5.9,14.9L6.1,15.69L6.15,18.31L6.25,16.19L6.45,22.7L6.8,20.25L6.85,21.49L7,23.14L7.5,19.35L7.55,20.28L7.6,19.53L7.65,18.46L8,25.64L8.05,26.94L8.1,27.12L8.15,25.97L8.2,26.13L8.25,24.35L8.35,26.28L8.7,21.67L8.75,18.83L9.69,23.6L9.74,22.04L10.49,26.02L10.54,23.64L10.79,21.45L11.44,29.23L11.54,27.21L11.59,25.69L11.64,26.83L12.19,22.83L12.24,23.33L12.69,13.21L13.19,17.11L13.24,17.27L13.49,21.36L13.99,19.6L14.04,17.55L14.44,16.65L14.69,20L14.79,18.61L14.84,16.32L15.09,20.07L15.54,17.83L15.59,16.4L15.84,18.91L15.89,21.03L15.99,18.89L16.64,25.85L16.69,24.59L16.74,22.74L17.19,18.54L17.54,20.22L17.59,18.76L18.09,16.78L18.39,20.39L18.44,20.29L18.49,19.63L18.89,24.6L19.09,20.15L19.14,19.46L19.29,23.24L19.74,17.09L19.79,17.45L19.84,17.32L19.99,11.35L20.54,18.25L20.59,18.09L21.04,25.16L21.64,23.31L21.69,20.42L22.04,16.84L22.44,22.57L22.49,19.62L22.59,20.89L22.79,17.67L22.89,18L22.94,17.16L23.34,19.94L23.59,15.96L23.64,16.54L23.69,18.4L24.24,23.89L24.49,20.76L24.54,20.57L24.64,19.55L24.94,22.28L24.99,23.19L25.34,20.35L25.89,26.86L25.94,24.28L26.29,27.06L26.64,22.57L26.69,23.63L26.74,23.7L26.79,24.38L27.18,22.16L27.23,22.36L27.28,20.24L27.58,19.78L27.78,24.18L27.98,23.44L28.03,20.1L28.53,18.51L28.93,23.04L28.98,23.47L29.58,29.4L29.73,26.58L29.78,24.31L29.83,23.04L30.18,28.98L30.33,27.96L30.38,28.39L30.88,28.73L31.38,24L31.43,23.66L31.58,21.19L31.98,25.52L32.13,22.61L32.18,24.07L32.38,20.08L32.83,22.42L32.88,22.94L32.93,19.91L33.23,23.46L33.63,21.85L33.68,22.16L33.98,24.08L34.13,21.58L34.38,21.63L34.43,22.04L34.78,21.55L35.13,25.04L35.18,24.71L35.23,23.73L35.43,20.04L35.83,23.83L35.98,23.08L36.03,22.1L36.38,27.9L36.68,24.28L36.73,22.58L37.23,26.34L37.33,21.62L37.48,23.01L37.53,21.84L38.23,27.53L38.33,25.11L38.38,23.61L38.43,23.01L38.78,27.35L38.83,27.2L38.88,27.31L39.38,28.08L39.48,24.65L39.73,26.43L39.78,27.22L40.38,27.44L40.78,21.72L40.88,21.75L40.93,22.03L41.23,23.99L41.58,20.53L41.63,20.01L41.98,18.15L42.58,24.65L42.68,24.43L42.73,23.21L43.18,23.65L43.33,21.81L43.43,23.6L43.48,24.96L43.73,28.19L44.23,25.68L44.28,26.14L44.63,22.84L45.03,25.95L45.08,26.25L45.17,28.45L45.67,23.78L45.72,24.13L45.77,22.3L45.87,21.91L46.02,24.19L46.12,23.92L46.17,23.97L46.37,25.94L47.02,22.1L47.07,23.21L47.82,26.39L47.92,25.66L47.97,26.28L48.02,25.54L48.42,30L48.62,27.39L48.67,27.44L49.52,21.88L49.72,23.3L49.77,25.62L49.97,23.85L50.22,26.77L50.27,27.82L50.47,29.28L50.57,29.08L50.62,27.43L50.67,26.77L51.07,30.55L51.12,30.88L51.52,31.55L51.62,29.79L51.82,30.61L51.87,31.35L52.22,29.33L52.72,33.08L52.77,31.8L53.07,33.35L53.67,29.66L53.72,29.97L53.77,30.21L54.02,29.52L54.32,31.84L54.37,30.13L54.42,27.09L55.02,30.58L55.22,28.48L55.27,27.76L56.12,33.04L56.32,31.95L56.37,31.02L56.62,29.03L56.92,31.25L56.97,30L57.17,27.61L57.37,29.24L57.42,30.21L58.27,32.97L58.32,32.73L58.67,33.3L58.82,31.44L58.87,31.74L58.92,31.83L59.07,34.04L59.32,29.42L59.37,29.8L59.42,28.57L59.72,30.27L59.82,28.52L59.87,27.04L59.97,26.46L60.17,29.25L60.62,28.95L60.67,27.61L61.67,30.6L61.72,30.09L61.77,29.13L62.27,32.71L62.32,33.04L62.77,36.15L63.07,35.31L63.12,34.01L63.41,34.35L63.96,30.43L64.01,30.49L64.06,30.31L64.26,31.21L64.41,28.87L64.61,29.59L64.66,29.16L64.81,29.55L65.26,26.72L65.51,28.13L65.56,28.5L65.61,28.26L65.71,30.82L65.76,30.83L65.81,31.17L65.91,31.4L66.31,28.18L66.51,29.38L66.56,29.94L67.36,36.81L67.51,33.67L67.56,33.47L67.76,32.36L67.96,34.26L68.16,33.42L68.21,32.2L68.36,30.44L68.81,33.56L69.01,30.79L69.06,31.37L69.56,32.21L69.61,32.7L69.91,32.53L70.36,35.85L70.56,34.63L70.61,34.08L70.86,34.47L71.16,31.31L71.36,33.21L71.41,33.39L71.46,32.51L72.01,35.15L72.06,35.38L72.21,37L72.81,35.45L72.86,35.78L73.06,36.47L73.16,35.44L73.21,36.09L73.26,34.02L73.46,33.62L73.91,35.34L74.01,34.68L74.06,33.77L74.26,35.2L74.41,32.81L74.46,33.94L74.51,32.46L75.41,36L75.46,36.02L75.81,37.07L76.06,35.28L76.11,35.47L76.26,38.29L76.61,33.65L76.71,34.62L76.76,34.44L77.06,31.49L77.56,33.46L77.61,33.55L78.21,32.85L78.56,36.15L78.61,34.7L78.66,34.83L78.81,36.71L79.01,34.45L79.06,34.5L79.11,33.68L79.41,35.86L79.51,34.71L79.56,34.06L80.56,40.6L80.61,40.23L80.86,41.34L81.06,39.7L81.25,40.5L81.3,39.76L81.35,39.51L81.55,41.16L81.8,40.4L81.85,41.09L81.95,41.27L82.75,36.6L82.8,35.06L82.95,34.76L83.05,36.03L83.1,36.82L83.65,37.23L83.75,36.28L83.8,35.78L84.45,38.55L84.6,37.46L84.65,37.48L84.85,39.81L85.2,35.93L85.3,36.59L85.35,36.96L85.8,38.21L85.85,36.91L86.1,38.93L86.3,38.35L86.35,37.31L86.5,35.92L87,37.7L87.05,38.39L87.3,36.43L87.7,39.02L87.8,37.88L87.85,38.62L89.35,48.84L89.4,48.89L89.5,48.57L89.85,50.17L90.05,49.63L90.1,48.91L90.2,49.09L90.25,47.69L90.35,48.31L90.4,47.25L90.5,46.39L90.8,49.27L90.85,49.97L91.2,51.09L91.4,49.4L91.55,49.74L91.6,49.89L91.95,45.94L92.35,48.4L92.4,49.3L92.75,48.07L93.1,49.33L93.15,50.3L93.25,49.41L93.6,51.44L93.65,49.88L93.7,48.87L93.95,47.26L94.35,50.13L94.4,49.12L94.45,49.69L94.95,51.22L95.15,50.61L95.2,50L95.35,52.14L95.45,50.35L95.5,50.02L95.55,51.03L96.05,48.08L96.15,48.69L96.2,48.03L96.8,50.15L96.85,50.6L97.25,50.32L97.85,52.89L97.9,53.16L98.4,50.69L98.7,52.33L98.75,52.36L99.15,53L99.59,50.43L99.69,51.1L99.74,51.61L100.14,54.16L100.24,52.27L100.29,51.64L100.64,52.9L100.69,50.78L100.79,51.05L100.84,50.79L100.89,51.03L101.04,49.4L101.19,49.58L101.24,48.49L101.54,49.44L101.89,46.82L102.09,47.57L102.14,47.6L102.69,48.98L102.99,47.99L103.04,46.5L103.94,48.92L103.99,47.83L104.09,46.36L104.69,48.23L104.74,48.7L104.84,49.35L105.09,48.52L105.14,47.29L106.39,53.07L106.49,52.84L106.54,51.32L106.84,50.24L107.14,52.71L107.19,53.1L107.24,52.2L107.89,53.66L107.94,53.71L108.69,56.79L109.04,56.32L109.09,56.33L109.84,59.61L110.09,58.55L110.14,57.55L110.39,56.71L110.74,58.34L110.79,57.09L111.04,56.69L111.59,60.33L111.79,58.65L111.84,58.75L112.04,57.71L112.39,58.92L112.44,58.23L112.49,57.48L112.64,56.98L112.89,57.95L112.94,56.38L113.24,58.04L113.44,54.37L113.49,54.4L113.54,54.55L113.59,53.51L114.19,55.6L114.24,55.68L114.44,57.77L114.94,55.43L114.99,56L115.04,56.2L115.09,56.52L115.14,55.51L115.79,56.26L115.84,55.03L115.99,55.33L116.24,54.23L116.39,54.38L116.44,53.06L116.59,53.01L117.19,55.56L117.53,54.93L117.58,53.9L118.03,53.11L118.78,56.92L118.83,56.16L118.98,55.34L119.33,57.05L119.38,57.39L119.48,56.84L119.83,58.82L119.88,58.86L119.98,57.68L120.38,59.68L120.43,59.68L120.48,60.48L120.63,60.1L121.68,62.53L121.73,63.11L121.78,63.31L122.13,61.77L122.28,62.27L122.33,62.33L122.78,63.47L122.83,62.46L122.88,61.36L123.08,60.83L123.13,62.11L123.63,63.25L123.68,63.44L123.78,63.59L123.83,63.11L123.93,63.45L123.98,62.24L124.48,64.08L124.73,62.35L124.78,62.66L125.58,60.74L125.68,60.92L125.73,61.04L126.33,62.42L126.48,61.24L126.53,61.35L126.78,60.67L128.53,67.25L128.58,66.69L128.63,66.3L128.98,66.14L129.43,67.84L129.58,67.27L129.63,66.63L129.83,64.86L130.33,66.47L130.38,66.88L130.98,63.66L131.28,63.95L131.33,63.98L131.58,65.65L131.78,63.59L131.83,63.62L131.88,63.47L132.13,64.68L132.18,65.31L132.88,66.66L133.08,66.46L133.13,66.2L133.43,66.53L133.58,64.82L133.88,66.17L133.93,66.18L133.98,65.23L134.38,68.04L134.63,66.67L134.68,67.04L135.67,68.72L135.72,68.36L135.87,69.26L136.27,67.79L136.47,68.54L136.52,68.57L136.82,65.82L137.47,66.15L137.52,66.36L138.32,68.88L138.57,68.69L138.62,67.56L138.82,68.35L138.92,66.72L139.32,67.94L139.37,67.29L140.17,69.33L140.37,69.1L140.42,69.24L140.57,69.01L141.47,70.81L141.52,69.8L141.67,69.7L141.77,70.4L141.82,70.47L141.87,70.55L142.47,72.63L142.77,72.11L142.82,71.36L142.87,71.56L143.22,70.46L143.37,71.1L143.42,70.61L143.67,70.92L143.77,70.25L144.07,70.82L144.12,71L144.37,71.08L144.47,69.54L144.97,70.46L145.02,70.56L146.77,74.82L146.82,74.06L146.97,73.4L147.32,74.49L147.42,74.43L147.47,73.56L147.72,73.44L148.32,73.87L148.37,73.82L148.42,73.85L148.52,72.55L149.07,74.87L149.12,74.94L149.22,74.72L150.12,78.22L150.17,78.35L150.27,78.5L150.32,77.7L150.57,78.22L150.62,77.22L150.72,76.86L151.17,78.24L151.22,78.4L151.52,77.31L151.57,76.75L151.82,77.75L151.87,77.09L151.92,76.03L152.82,77.79L152.87,78.06L153.32,79.58L153.81,79.22L153.86,79.33L154.26,78.54L154.61,79.34L154.66,79.28L154.86,78.85L155.66,81.13L155.71,81.46L156.56,78.89L156.61,78.9L157.11,81.1L157.66,80.55L157.71,80.56L158.66,82.33L158.81,82.27L158.86,82.34L160.31,85.99L160.36,86.22L160.76,88.15L161.21,87.08L161.26,86.35L161.56,87.14L161.61,87.25L162.36,86.1L162.41,86.13L162.46,86.27L162.76,86.42L162.81,85.37L163.21,86.26L163.26,86.84L164.46,89.55L164.56,88.98L164.61,88.49L164.91,86.78L165.36,87.66L165.41,87.72L166.01,86.91L166.16,87.12L166.21,87.21L166.31,86.77L166.76,87.96L166.81,88.07L166.96,88.43L167.06,86.91L167.31,87.64L167.36,86.95L170.21,93.7L170.26,93.78L171.55,96.57L171.6,96.65L173.6,101.33L173.65,101.46L173.8,101.32L174.5,102.53L174.55,101.61L174.6,100.88L174.9,98.8L175.35,100.01L175.4,100.07L175.65,100.24L175.85,99.93L175.9,99.06L176.85,100.67L176.9,99.84L179.05,104.13L179.15,103.88L179.2,102.76L179.45,102.5L179.8,103.15L179.9,102.65L179.95,102.51L180.1,102.11L181.45,104.82L181.5,104.53L182.55,106.83L182.6,106.28L182.65,106.5L183.4,108.25L183.45,108.48L183.5,107.78L184.1,109.27L184.15,109.32L184.75,110.56L184.8,109.52L184.85,108.63L185.75,109.51L185.9,109.38L185.95,108.81L186.55,109.72L186.7,109.41L186.75,108.51L187,107.74L187.4,108.91L187.45,108.93L187.75,109.23L187.8,108.42L188,108.91L188.05,108.23L188.45,109.16L188.6,107.95L188.8,108.18L188.85,108.31L189,108.71L189.05,108.07L189.15,108.23L189.2,107.63L190.24,108.85L190.29,108.28L191.69,110.79L191.99,110.41L192.04,110.1L192.54,110.63L192.59,109.75L192.69,109.84L192.74,109.84L192.94,109.56L193.94,112.26L193.99,111.37L194.04,111.39L194.44,110.88L194.74,111.71L194.79,111.75L194.99,111.52L195.49,112.27L195.54,111.82L195.59,111.62L196.94,113.24L196.99,113.3L198.19,115.35L198.24,115.39L200.89,119.11L200.99,118.51L201.04,118.19L202.14,119.42L202.19,119.5L203.94,121.51L204.09,121.23L204.14,120.11L205.34,121.62L205.39,121.63L205.54,121.74L205.59,120.96L205.64,120.39L206.19,120.47L206.34,120.76L206.39,120.82L207.49,121.83L207.54,121.91L207.73,120.87L208.13,121.6L208.18,121.64L211.43,126.36L211.73,125.72L211.78,125.72L213.63,127.18L213.68,127.54L215.33,129.17L215.38,129.17L217.33,130.99L217.38,131.12L218.43,132.95L218.48,132.32L218.53,131.84L218.88,132.31L218.93,131.46L219.13,131.55L219.18,131.56L220.23,132.54L220.28,132.54L221.23,134.33L221.28,134.52L221.63,134.9L221.68,134.31L221.73,133.73L222.48,134.51L222.58,134.04L222.63,134.04L227.07,139.6L227.12,139.21L229.92,141.16L229.97,141.25L230.22,141.53L230.32,141.18L230.37,140.22L231.82,141.91L231.87,142.07L233.62,144.71L233.67,144.78L235.82,145.92L235.87,145.92L236.57,146.64L236.62,146.68L236.77,146.24L237.97,147.28L238.02,147.3L238.72,147.92L238.77,148.18L240.52,149.2L240.57,149.29L240.77,148.87L244.76,152.06L244.81,152.24L245.66,153.09L245.71,153.13L247.31,154.35L247.36,154.56L248.91,155.77L248.96,155.8L249.86,156.66L249.91,156.84L251.76,158.31L251.81,158.49L252.71,159.35L252.76,159.4L254.71,161.17L254.76,161.17L255.46,161.76L255.51,162.04L258.21,163.5L258.26,163.75L260.36,164.44L260.41,164.51L266.9,168.01L266.95,168.02L272.7,169.9L272.75,169.94L274.3,170.78L274.35,170.78L277.4,171.84L277.45,171.84L281.04,173.14L281.09,173.14L297.93,181.65L297.98,181.65L299.13,182.18L299.18,182.18L301.18,183.3L301.23,183.36L308.18,185.66L308.23,185.73L310.58,186.38L310.63,186.51L313.88,187.91L313.93,187.91L321.12,189.55L321.17,189.6L323.67,190.23L323.72,190.23L326.22,191.58L326.27,191.58L328.22,192.28L328.27,192.39L331.82,193.46L331.87,193.61L334.91,194.32L334.96,194.58L338.61,195.69L338.66,195.69L349.26,197.94L349.31,198.01L353.7,198.68L353.75,198.86L355,199.26L355.05,199.26L356.85,199.77L356.9,199.77L362.15,200.47L362.2,200.6L363.55,201.34L363.6,201.38L391.93,206.48L391.98,206.48L397.23,207.16L397.28,207.27L403.83,208.02L403.88,208.03L405.13,208.6L405.18,208.6L406.57,209.35L406.62,209.45L417.47,211.17L417.52,211.33L420.52,211.55L420.57,211.55L424.86,212.29L424.91,212.35L431.71,213.02L431.76,213.13L437.96,213.88L438.01,213.89L442.4,214.53L442.45,214.68L450.05,215.43L450.1,215.44L451.2,215.65" style="vector-effect: non-scaling-stroke; fill: none; stroke: rgb(99, 110, 250); stroke-opacity: 1; stroke-width: 2px; opacity: 1;"/></g><g class="points"/><g class="text"/></g></g></g><g class="overplot"><g class="xy2" transform="translate(75,20)" clip-path="url(#clip4923afxy2plot)"><g class="scatterlayer mlayer"><g class="trace scatter trace843bd1" style="stroke-miterlimit: 2; opacity: 1;"><g class="fills"/><g class="errorbars"/><g class="lines"><path class="js-line" d="M0,11.35L10.19,49.07L10.24,49.24L18.34,74.14L18.39,74.28L25.09,92.02L25.14,92.15L35.88,116.06L35.93,116.16L47.77,137.16L47.82,137.24L56.62,149.91L56.67,149.97L67.26,162.53L67.31,162.58L77.56,172.43L77.61,172.47L88.6,181.01L88.65,181.04L102.69,189.53L102.74,189.55L114.89,195.19L114.94,195.21L131.03,200.85L131.08,200.86L142.62,203.92L142.67,203.93L155.66,206.62L155.71,206.63L172.3,209.19L172.35,209.19L196.79,211.7L196.84,211.7L208.93,212.56L208.98,212.56L243.42,214.11L243.47,214.11L262.05,214.6L262.1,214.6L322.67,215.35L322.72,215.36L451.2,215.65" style="vector-effect: non-scaling-stroke; fill: none; stroke: rgb(239, 85, 59); stroke-opacity: 1; stroke-width: 2px; opacity: 1;"/></g><g class="points"/><g class="text"/></g></g></g></g><path class="xlines-above crisp" d="M0,0" style="fill: none;"/><path class="ylines-above crisp" d="M0,0" style="fill: none;"/><g class="overlines-above"><path class="xy2-x crisp" d="M0,0" style="fill: none;"/><path class="xy2-y crisp" d="M0,0" style="fill: none;"/></g><g class="xaxislayer-above"><g class="xtick"><text text-anchor="middle" x="0" y="260" transform="translate(75,0)" style="font-family: 'Open Sans', verdana, arial, sans-serif; font-size: 12px; fill: rgb(42, 63, 95); fill-opacity: 1; white-space: pre; opacity: 1;">0</text></g><g class="xtick"><text text-anchor="middle" x="0" y="260" style="font-family: 'Open Sans', verdana, arial, sans-serif; font-size: 12px; fill: rgb(42, 63, 95); fill-opacity: 1; white-space: pre; opacity: 1;" transform="translate(174.94,0)">2000</text></g><g class="xtick"><text text-anchor="middle" x="0" y="260" style="font-family: 'Open Sans', verdana, arial, sans-serif; font-size: 12px; fill: rgb(42, 63, 95); fill-opacity: 1; white-space: pre; opacity: 1;" transform="translate(274.89,0)">4000</text></g><g class="xtick"><text text-anchor="middle" x="0" y="260" style="font-family: 'Open Sans', verdana, arial, sans-serif; font-size: 12px; fill: rgb(42, 63, 95); fill-opacity: 1; white-space: pre; opacity: 1;" transform="translate(374.83,0)">6000</text></g><g class="xtick"><text text-anchor="middle" x="0" y="260" style="font-family: 'Open Sans', verdana, arial, sans-serif; font-size: 12px; fill: rgb(42, 63, 95); fill-opacity: 1; white-space: pre; opacity: 1;" transform="translate(474.78,0)">8000</text></g></g><g class="yaxislayer-above"><g class="ytick"><text text-anchor="end" x="74" y="4.199999999999999" transform="translate(0,195.66)" style="font-family: 'Open Sans', verdana, arial, sans-serif; font-size: 12px; fill: rgb(42, 63, 95); fill-opacity: 1; white-space: pre; opacity: 1;">1.1M</text></g><g class="ytick"><text text-anchor="end" x="74" y="4.199999999999999" style="font-family: 'Open Sans', verdana, arial, sans-serif; font-size: 12px; fill: rgb(42, 63, 95); fill-opacity: 1; white-space: pre; opacity: 1;" transform="translate(0,141.41)">1.15M</text></g><g class="ytick"><text text-anchor="end" x="74" y="4.199999999999999" style="font-family: 'Open Sans', verdana, arial, sans-serif; font-size: 12px; fill: rgb(42, 63, 95); fill-opacity: 1; white-space: pre; opacity: 1;" transform="translate(0,87.15)">1.2M</text></g><g class="ytick"><text text-anchor="end" x="74" y="4.199999999999999" style="font-family: 'Open Sans', verdana, arial, sans-serif; font-size: 12px; fill: rgb(42, 63, 95); fill-opacity: 1; white-space: pre; opacity: 1;" transform="translate(0,32.89)">1.25M</text></g></g><g class="overaxes-above"><g class="xy2-x"/><g class="xy2-y"><g class="y2tick"><text text-anchor="start" x="527.2" y="4.199999999999999" transform="translate(0,235.67)" style="font-family: 'Open Sans', verdana, arial, sans-serif; font-size: 12px; fill: rgb(42, 63, 95); fill-opacity: 1; white-space: pre; opacity: 1;">0</text></g><g class="y2tick"><text text-anchor="start" x="527.2" y="4.199999999999999" style="font-family: 'Open Sans', verdana, arial, sans-serif; font-size: 12px; fill: rgb(42, 63, 95); fill-opacity: 1; white-space: pre; opacity: 1;" transform="translate(0,184.59)">500</text></g><g class="y2tick"><text text-anchor="start" x="527.2" y="4.199999999999999" style="font-family: 'Open Sans', verdana, arial, sans-serif; font-size: 12px; fill: rgb(42, 63, 95); fill-opacity: 1; white-space: pre; opacity: 1;" transform="translate(0,133.51)">1000</text></g><g class="y2tick"><text text-anchor="start" x="527.2" y="4.199999999999999" style="font-family: 'Open Sans', verdana, arial, sans-serif; font-size: 12px; fill: rgb(42, 63, 95); fill-opacity: 1; white-space: pre; opacity: 1;" transform="translate(0,82.43)">1500</text></g><g class="y2tick"><text text-anchor="start" x="527.2" y="4.199999999999999" style="font-family: 'Open Sans', verdana, arial, sans-serif; font-size: 12px; fill: rgb(42, 63, 95); fill-opacity: 1; white-space: pre; opacity: 1;" transform="translate(0,31.35)">2000</text></g></g></g></g><g class="subplot xy2"/></g><g class="polarlayer"/><g class="smithlayer"/><g class="ternarylayer"/><g class="geolayer"/><g class="funnelarealayer"/><g class="pielayer"/><g class="iciclelayer"/><g class="treemaplayer"/><g class="sunburstlayer"/><g class="glimages"/><defs id="topdefs-4923af"><g class="clips"/><clipPath id="legend4923af"><rect width="123" height="48" x="0" y="0"/></clipPath></defs><g class="layer-above"><g class="imagelayer"/><g class="shapelayer"/></g><g class="infolayer"><g class="legend" pointer-events="all" transform="translate(564.6,20)"><rect class="bg" shape-rendering="crispEdges" width="123" height="48" x="0" y="0" style="stroke: rgb(68, 68, 68); stroke-opacity: 1; fill: rgb(255, 255, 255); fill-opacity: 1; stroke-width: 0px;"/><g class="scrollbox" transform="" clip-path="url(#legend4923af)"><g class="groups"><g class="traces" transform="translate(0,14.5)" style="opacity: 1;"><text class="legendtext" text-anchor="start" x="40" y="4.680000000000001" style="font-family: 'Open Sans', verdana, arial, sans-serif; font-size: 12px; fill: rgb(42, 63, 95); fill-opacity: 1; white-space: pre;">Cost</text><g class="layers" style="opacity: 1;"><g class="legendfill"/><g class="legendlines"><path class="js-line" d="M5,0h30" style="fill: none; stroke: rgb(99, 110, 250); stroke-opacity: 1; stroke-width: 2px;"/></g><g class="legendsymbols"><g class="legendpoints"/></g></g><rect class="legendtoggle" x="0" y="-9.5" width="117.265625" height="19" style="fill: rgb(0, 0, 0); fill-opacity: 0;"/></g><g class="traces" transform="translate(0,33.5)" style="opacity: 1;"><text class="legendtext" text-anchor="start" x="40" y="4.680000000000001" style="font-family: 'Open Sans', verdana, arial, sans-serif; font-size: 12px; fill: rgb(42, 63, 95); fill-opacity: 1; white-space: pre;">Temperature</text><g class="layers" style="opacity: 1;"><g class="legendfill"/><g class="legendlines"><path class="js-line" d="M5,0h30" style="fill: none; stroke: rgb(239, 85, 59); stroke-opacity: 1; stroke-width: 2px;"/></g><g class="legendsymbols"><g class="legendpoints"/></g></g><rect class="legendtoggle" x="0" y="-9.5" width="117.265625" height="19" style="fill: rgb(0, 0, 0); fill-opacity: 0;"/></g></g></g><rect class="scrollbar" rx="20" ry="3" width="0" height="0" x="0" y="0" style="fill: rgb(128, 139, 164); fill-opacity: 1;"/></g><g class="g-gtitle"/><g class="g-xtitle"><text class="xtitle" x="300.6" y="287.8" text-anchor="middle" style="font-family: 'Open Sans', verdana, arial, sans-serif; font-size: 14px; fill: rgb(42, 63, 95); opacity: 1; font-weight: normal; white-space: pre;">Iterations</text></g><g class="g-ytitle" transform="translate(2.1748046875,0)"><text class="ytitle" transform="rotate(-90,11.825000000000003,133.5)" x="11.825000000000003" y="133.5" text-anchor="middle" style="font-family: 'Open Sans', verdana, arial, sans-serif; font-size: 14px; fill: rgb(42, 63, 95); opacity: 1; font-weight: normal; white-space: pre;">Cost</text></g><g class="g-y2title"><text class="y2title" transform="rotate(-90,582.89375,133.5)" x="582.89375" y="133.5" text-anchor="middle" style="font-family: 'Open Sans', verdana, arial, sans-serif; font-size: 14px; fill: rgb(42, 63, 95); opacity: 1; font-weight: normal; white-space: pre;">Temperature</text></g></g></svg>