<svg class="main-svg" xmlns="http://www.w3.org/2000/svg" xmlns:xlink="http://www.w3.org/1999/xlink" width="700" height="300" style="" viewBox="0 0 700 300"><rect x="0" y="0" width="700" height="300" style="fill: rgb(255, 255, 255); fill-opacity: 1;"/><defs id="defs-5e7a44"><g class="clips"><clipPath id="clip5e7a44xyplot" class="plotclip"><rect width="448.38" height="227"/></clipPath><clipPath id="clip5e7a44xy2plot" class="plotclip"><rect width="448.38" height="227"/></clipPath><clipPath class="axesclip" id="clip5e7a44x"><rect x="78" y="0" width="448.38" height="300"/></clipPath><clipPath class="axesclip" id="clip5e7a44y"><rect x="0" y="20" width="700" height="227"/></clipPath><clipPath class="axesclip" id="clip5e7a44xy"><rect x="78" y="20" width="448.38" height="227"/></clipPath><clipPath class="axesclip" id="clip5e7a44y2"><rect x="0" y="20" width="700" height="227"/></clipPath><clipPath class="axesclip" id="clip5e7a44xy2"><rect x="78" y="20" width="448.38" height="227"/></clipPath></g><g class="gradients"/><g class="patterns"/></defs><g class="bglayer"><rect class="bg" x="78" y="20" width="448.38" height="227" style="fill: rgb(229, 236, 246); fill-opacity: 1; stroke-width: 0;"/></g><g class="layer-below"><g class="imagelayer"/><g class="shapelayer"/></g><g class="cartesianlayer"><g class="subplot xy"><g class="layer-subplot"><g class="shapelayer"/><g class="imagelayer"/></g><g class="gridlayer"><g class="x"><path class="xgrid crisp" transform="translate(186.57999999999998,0)" d="M0,20v227" style="stroke: rgb(255, 255, 255); stroke-opacity: 1; stroke-width: 1px;"/><path class="xgrid crisp" transform="translate(295.15999999999997,0)" d="M0,20v227" style="stroke: rgb(255, 255, 255); stroke-opacity: 1; stroke-width: 1px;"/><path class="xgrid crisp" transform="translate(403.74,0)" d="M0,20v227" style="stroke: rgb(255, 255, 255); stroke-opacity: 1; stroke-width: 1px;"/><path class="xgrid crisp" transform="translate(512.3199999999999,0)" d="M0,20v227" style="stroke: rgb(255, 255, 255); stroke-opacity: 1; stroke-width: 1px;"/></g><g class="y"><path class="ygrid crisp" transform="translate(0,218.25)" d="M78,0h448.38" style="stroke: rgb(255, 255, 255); stroke-opacity: 1; stroke-width: 1px;"/><path class="ygrid crisp" transform="translate(0,182.73)" d="M78,0h448.38" style="stroke: rgb(255, 255, 255); stroke-opacity: 1; stroke-width: 1px;"/><path class="ygrid crisp" transform="translate(0,147.20999999999998)" d="M78,0h448.38" style="stroke: rgb(255, 255, 255); stroke-opacity: 1; stroke-width: 1px;"/><path class="ygrid crisp" transform="translate(0,111.69)" d="M78,0h448.38" style="stroke: rgb(255, 255, 255); stroke-opacity: 1; stroke-width: 1px;"/><path class="ygrid crisp" transform="translate(0,76.17)" d="M78,0h448.38" style="stroke: rgb(255, 255, 255); stroke-opacity: 1; stroke-width: 1px;"/></g><g class="y2"><path class="y2grid crisp" transform="translate(0,184.61)" d="M78,0h448.38" style="stroke: rgb(255, 255, 255); stroke-opacity: 1; stroke-width: 1px;"/><path class="y2grid crisp" transform="translate(0,133.53)" d="M78,0h448.38" style="stroke: rgb(255, 255, 255); stroke-opacity: 1; stroke-width: 1px;"/><path class="y2grid crisp" transform="translate(0,82.44)" d="M78,0h448.38" style="stroke: rgb(255, 255, 255); stroke-opacity: 1; stroke-width: 1px;"/><path class="y2grid crisp" transform="translate(0,31.35)" d="M78,0h448.38" style="stroke: rgb(255, 255, 255); stroke-opacity: 1; stroke-width: 1px;"/></g></g><g class="zerolinelayer"><path class="xzl zl crisp" transform="translate(78,0)" d="M0,20v227" style="stroke: rgb(255, 255, 255); stroke-opacity: 1; stroke-width: 2px;"/><path class="yzl zl crisp" transform="translate(0,40.66)" d="M78,0h448.38" style="stroke: rgb(255, 255, 255); stroke-opacity: 1; stroke-width: 2px;"/><path class="y2zl zl crisp" transform="translate(0,235.7)" d="M78,0h448.38" style="stroke: rgb(255, 255, 255); stroke-opacity: 1; stroke-width: 2px;"/></g><path class="xlines-below"/><path class="ylines-below"/><g class="overlines-below"><path class="xy2-x"/><path class="xy2-y"/></g><g class="xaxislayer-below"/><g class="yaxislayer-below"/><g class="overaxes-below"><g class="xy2-x"/><g class="xy2-y"/></g><g class="plot" transform="translate(78,20)" clip-path="url(#clip5e7a44xyplot)"><g class="scatterlayer mlayer"><g class="trace scatter trace90433e" style="stroke-miterlimit: 2; opacity: 1;"><g class="fills"/><g class="errorbars"/><g class="lines"><path class="js-line" d="M0,23.57L0.11,23.14L0.16,19.09L0.22,17.17L0.65,24.85L0.71,23.99L0.76,28.19L1.41,15.61L1.63,16.68L1.68,19.73L1.79,25.56L2.28,16.32L2.33,15.04L2.39,13.05L2.77,20.3L2.93,17.39L2.99,18.52L3.15,14.55L3.69,22.93L3.75,19.09L4.02,16.96L4.61,27.05L4.67,28.26L5.21,15.33L5.27,16.75L5.32,22.93L5.54,20.58L5.92,29.54L6.03,21.93L6.08,22.36L6.3,30.53L6.57,21.72L6.62,24.63L6.68,18.1L6.84,17.46L7.44,30.74L7.65,25.34L7.71,22.57L8.09,15.61L8.2,24.7L8.41,21.3L8.47,22.36L8.52,25.56L8.96,15.75L9.17,22.01L9.23,19.45L9.45,23.99L9.66,12.13L10.04,23.92L10.1,22.86L10.21,14.33L10.42,25.34L10.86,15.4L10.91,14.26L11.13,28.47L11.62,21.65L11.67,16.89L11.89,13.34L12.11,18.52L12.27,16.46L12.32,19.31L12.76,12.63L13.03,24.63L13.08,23.28L13.14,21.93L13.3,18.95L13.41,23.99L13.52,20.37L13.57,16.04L13.63,15.75L13.68,18.52L13.74,20.73L13.9,17.32L14.44,23.36L14.5,21.15L14.66,20.51L14.71,24.49L14.77,29.32L15.64,11.42L15.85,17.17L15.91,19.66L16.07,25.34L16.56,18.17L16.67,22.5L16.72,23.21L16.78,23.64L16.83,20.73L17.05,21.08L17.1,17.03L17.32,16.75L17.97,26.62L18.02,24.21L18.08,22.08L18.19,28.75L18.57,19.31L18.78,24.92L18.84,21.65L19,16.11L19.49,23.43L19.54,22.93L19.6,21.86L20.03,18.6L20.14,24.85L20.2,23.99L20.25,26.69L21.12,13.34L21.17,18.17L21.34,24.78L21.77,17.17L21.88,17.81L21.93,18.81L22.04,16.11L22.15,18.38L22.2,21.08L22.48,22.93L22.53,16.54L22.64,20.66L22.69,21.72L22.8,18.88L23.07,25.98L23.13,28.04L23.89,15.75L24,16.68L24.05,16.89L24.59,19.38L24.7,11.35L24.81,15.4L24.86,17.96L25.24,17.67L25.3,23.07L25.68,22.72L25.73,20.16L25.79,19.09L25.95,25.98L26.11,25.42L26.17,27.4L26.82,13.48L26.93,20.8L26.98,22.72L27.25,15.4L27.74,25.2L27.8,23.07L28.18,15.4L28.39,23.99L28.5,23.57L28.56,25.06L28.83,17.03L29.15,25.49L29.37,17.74L29.43,20.87L29.7,28.9L29.97,20.09L30.19,23L30.24,21.58L30.29,20.02L30.73,29.39L30.78,27.76L30.84,27.4L31.65,17.6L31.71,19.87L31.87,30.81L32.3,19.02L32.47,21.79L32.52,21.22L32.95,16.82L33.23,23.28L33.28,20.09L33.39,22.72L33.77,14.48L33.88,14.97L33.93,13.2L34.37,12.2L34.85,25.49L34.91,21.22L34.96,20.51L35.02,20.02L35.07,23.78L35.18,23.14L35.23,24.85L35.4,29.11L35.83,22.01L35.89,19.59L36.16,29.54L36.48,25.56L36.54,21.58L36.7,26.91L37.08,17.03L37.24,19.31L37.3,19.16L37.46,21.65L37.68,15.47L37.84,15.47L37.89,13.41L38.76,23.21L38.82,18.67L38.87,18.31L38.93,22.79L38.98,24.14L39.2,26.2L39.25,21.65L39.47,22.08L39.52,21.15L39.63,18.88L39.9,25.34L40.23,20.58L40.28,20.66L40.34,16.96L40.55,26.27L40.88,25.63L40.93,27.12L40.99,31.67L41.21,20.37L41.59,22.5L41.64,23.43L41.86,20.51L42.29,29.32L42.56,28.47L42.62,27.4L43.59,17.32L43.65,19.02L43.92,16.46L44.68,31.17L44.9,27.05L44.95,25.2L45.28,26.84L45.87,16.11L46.15,19.09L46.2,21.15L46.42,19.95L46.8,27.33L47.02,23.99L47.07,21.65L47.29,27.97L47.67,19.73L47.72,20.44L47.78,23.92L47.99,27.12L48.21,21.3L48.26,21.93L48.32,18.31L48.54,16.25L49.13,27.69L49.3,26.84L49.35,22.22L49.57,24.21L50,16.96L50.11,19.73L50.16,20.58L50.33,19.59L50.76,27.55L50.92,24.21L50.98,21.44L51.2,20.44L51.68,25.7L51.74,23L51.79,22.43L51.9,20.09L52.34,24.42L52.5,20.58L52.55,23.5L52.66,26.41L52.77,21.01L52.99,21.86L53.04,19.73L53.64,24.07L53.8,22.64L53.86,23.5L54.07,20.66L54.34,27.97L54.51,21.3L54.56,25.06L54.72,19.31L55.21,27.83L55.27,31.52L56.14,25.06L56.19,26.2L56.24,25.06L56.68,30.6L56.73,31.74L57.11,18.81L57.66,20.16L57.71,21.22L57.76,21.01L57.82,21.58L57.87,17.67L58.47,27.97L58.9,25.63L58.96,25.63L59.23,26.69L59.77,21.72L59.88,23.78L59.94,25.63L60.04,24.07L60.26,25.63L60.32,27.05L60.8,29.25L61.18,22.29L61.24,23.28L61.67,27.62L61.89,21.93L61.94,20.8L62.49,20.37L62.81,27.69L62.87,25.98L62.92,24.07L63.03,21.58L63.41,27.12L63.46,29.82L63.95,21.79L64.33,24.7L64.39,24.78L64.44,26.27L64.77,18.45L64.93,18.74L64.98,18.03L66.13,30.53L66.18,30.67L66.67,21.3L66.89,26.98L66.94,30.25L67.27,31.6L67.54,24.92L67.75,26.13L67.81,26.91L67.97,28.47L68.24,23.36L68.3,23.85L68.41,17.6L69.06,21.37L69.11,21.86L69.65,30.32L69.93,29.11L69.98,26.34L70.09,25.7L70.31,31.31L70.63,27.26L70.69,23.14L70.9,20.66L71.93,30.03L71.99,28.26L72.42,30.53L72.53,24.99L72.59,23.92L72.64,21.93L73.18,27.55L73.29,25.49L73.35,25.84L74.43,34.65L74.49,31.95L74.54,32.09L74.65,32.73L75.41,27.55L75.52,28.75L75.57,28.97L76.28,19.59L76.49,23.64L76.55,24.63L77.2,32.16L77.42,28.4L77.47,26.84L78.01,33.3L78.12,31.88L78.18,26.27L78.45,22.5L78.77,28.61L78.83,28.33L78.88,29.25L78.94,29.89L79.1,25.77L79.59,29.46L79.64,27.26L80.13,33.37L80.35,28.26L80.4,25.7L81.43,36.57L81.49,35.29L81.54,32.16L81.71,31.52L82.09,34.79L82.25,32.94L82.3,29.32L82.63,34.15L82.79,31.1L82.85,29.96L82.9,31.45L83.33,26.48L83.55,30.1L83.61,28.33L84.04,34.44L84.2,32.94L84.26,28.4L84.42,27.97L84.53,31.31L84.69,28.75L84.75,28.61L85.13,31.17L85.4,25.2L85.51,26.27L85.56,27.62L85.72,27.19L85.89,28.97L85.94,28.54L86,29.18L86.54,35.36L86.65,28.9L86.76,30.53L86.81,27.83L86.92,22.22L87.46,30.32L87.52,30.81L87.73,27.19L88.22,34.79L88.44,33.37L88.49,31.67L88.55,31.81L88.66,30.17L88.71,31.45L88.76,33.51L89.2,32.73L89.47,37.07L89.52,34.22L89.58,34.58L89.63,31.03L89.69,31.38L89.74,29.11L89.85,26.05L90.34,32.38L90.39,34.01L90.88,38.7L90.99,36.85L91.04,33.3L91.1,33.58L91.15,31.67L91.37,33.09L91.42,30.74L91.64,30.03L92.08,35.79L92.35,34.37L92.4,32.31L93.49,37.92L93.54,36.43L93.6,35.72L93.65,33.37L93.87,36.07L94.25,35.5L94.3,38.49L94.41,39.98L94.63,33.44L94.84,34.72L94.9,34.44L95.55,38.84L95.71,37.63L95.77,35.5L95.88,34.93L96.04,36.07L96.09,32.38L96.15,28.75L96.8,34.37L96.85,35.36L97.29,38.13L97.34,34.44L98.21,39.91L98.32,39.48L98.37,35.64L98.54,37.78L98.75,33.44L99.08,35.5L99.13,35.72L99.35,36.71L99.84,30.03L100,33.02L100.06,34.44L100.16,34.15L100.82,40.19L100.98,39.05L101.03,38.49L101.14,39.55L101.25,38.27L101.3,37.14L101.52,36.92L101.9,41.75L102.28,41.4L102.34,38.41L102.5,36L103.1,42.04L103.15,40.33L103.21,36.28L103.26,36.5L103.31,32.31L103.42,34.44L103.48,33.94L103.53,36.21L103.97,28.19L104.4,31.17L104.45,31.38L104.78,33.94L104.83,35.36L104.94,36.28L105.05,32.31L105.38,34.44L105.43,33.58L105.87,31.6L106.63,40.05L106.68,38.63L107.49,35.08L107.55,35.86L108.53,44.59L108.85,42.82L108.91,39.76L109.01,41.19L109.12,39.13L109.34,40.19L109.39,38.13L109.5,38.49L109.56,36.64L109.61,37.07L109.67,34.65L109.88,31.6L110.26,36.57L110.32,37.56L110.64,32.94L111.02,38.91L111.08,37.28L111.95,46.65L112.05,46.09L112.11,43.46L112.16,44.45L112.27,39.34L112.49,39.69L112.54,36.28L112.65,36.21L113.09,40.4L113.14,41.11L113.25,41.9L113.47,37.21L113.52,37.28L113.57,34.65L113.79,29.32L114.17,31.31L114.23,31.52L115.15,39.76L115.31,36.92L115.37,36.99L115.75,40.9L115.91,39.34L115.96,37.56L116.07,36.21L117.05,46.44L117.21,44.74L117.27,41.61L118.13,48.72L118.35,46.23L118.41,45.59L118.73,47.86L118.84,44.38L119.06,45.38L119.11,43.03L119.6,37.07L120.03,39.27L120.09,39.69L120.36,41.82L120.41,39.13L120.52,39.55L120.58,37.49L120.96,41.97L121.45,40.62L121.5,38.56L121.94,42.61L121.99,43.03L122.1,42.68L122.64,47.22L122.7,44.17L122.75,43.17L122.8,41.97L123.24,46.94L123.46,43.74L123.51,43.81L124.38,48.08L124.49,46.73L124.54,44.95L124.65,45.16L124.7,42.82L124.81,43.6L125.03,40.97L125.08,40.62L125.19,38.63L125.9,42.82L125.95,41.33L126.06,39.98L126.6,44.88L126.71,43.17L126.77,40.76L126.88,40.4L127.64,43.6L127.69,40.12L128.72,48L128.88,45.73L128.94,44.95L129.21,41.47L129.64,46.58L129.7,48.22L129.86,46.94L129.92,43.81L130.3,47.01L130.62,46.23L130.68,43.67L130.84,44.1L130.95,42.32L131,41.4L131.06,40.9L131.33,43.39L131.49,41.68L131.54,43.46L131.6,42.61L131.87,45.87L132.09,44.45L132.14,45.73L132.47,44.45L132.85,48.08L132.9,46.23L132.96,46.37L133.06,45.31L133.28,47.79L133.55,46.3L133.61,45.8L134.04,42.25L134.42,43.6L134.48,44.24L134.69,42.04L135.07,45.52L135.18,43.88L135.24,42.39L135.29,39.2L135.94,44.31L136,44.59L136.48,50.14L136.92,48.79L136.97,48L137.35,52.69L137.62,48.29L137.68,46.94L137.84,44.59L138.44,49.07L138.49,47.01L138.87,50.28L138.93,48.08L138.98,46.8L139.09,48.5L139.14,47.44L139.2,44.81L139.96,49L140.18,48L140.23,46.02L141.15,52.34L141.21,50.21L141.43,51.27L141.59,48.93L141.81,50.42L141.86,50.7L142.35,51.27L142.57,48L142.62,48.57L142.67,48.93L142.73,47.22L143.33,51.13L143.38,51.2L144.52,55.61L144.57,55.04L144.63,52.84L145.33,56.96L145.44,54.68L145.5,54.82L146.37,47.51L146.42,47.79L146.47,48L146.53,46.51L147.13,49.92L147.18,50.21L148.16,55.32L148.21,55.53L148.32,53.9L148.75,56.67L148.81,57.31L149.13,56.46L149.62,60.08L149.68,58.66L150.44,61L150.49,60.36L150.55,58.38L150.93,55.68L151.25,59.09L151.31,59.37L151.41,60.36L151.79,54.18L151.85,54.26L152.01,55.39L152.12,52.48L152.17,52.76L152.23,51.63L152.28,51.2L152.66,53.69L152.72,54.4L153.91,60.65L153.97,58.38L154.29,56.53L154.89,62.64L154.94,60.79L155,60.15L155.49,62.57L155.54,62.85L155.7,63.63L155.76,60.29L155.81,59.09L156.3,62.5L156.41,61.15L156.46,61.79L156.68,63.85L156.73,64.49L156.79,65.12L157.01,59.58L157.11,60.58L157.17,60.65L157.93,54.61L158.04,55.11L158.09,56.03L158.42,57.95L158.47,57.03L158.53,55.32L161.13,66.69L161.19,64.2L161.78,61.29L161.95,62.5L162,63.63L162.27,64.34L162.33,62.21L162.71,64.06L162.76,62.78L162.92,60.86L163.36,64.13L163.41,63.28L163.47,61.15L163.52,61.43L163.58,59.16L164.01,60.22L164.06,59.58L164.82,63.28L164.93,62.78L164.99,61.57L165.31,63.21L165.58,59.65L165.69,61.08L165.75,58.94L165.96,60.01L166.02,60.79L166.72,63.42L166.94,62.85L167,62.92L167.21,62.07L168.41,69.1L168.46,66.97L169,68.82L169.06,67.18L169.11,65.27L169.22,66.55L169.33,63.35L169.76,64.13L169.82,64.49L170.2,64.27L170.36,65.62L170.42,63.21L170.52,62.42L171.07,64.77L171.12,63.21L171.18,63.28L171.28,61.64L171.61,64.27L171.88,63.14L171.94,63.42L172.21,65.34L172.37,62.78L172.64,64.13L172.7,62.99L172.97,63.99L173.02,65.41L173.08,65.69L173.29,63.56L173.4,64.49L173.46,63.21L174.16,68.61L174.43,66.55L174.49,65.2L174.54,66.33L175.03,63.63L175.08,63.99L175.14,62.92L175.57,65.69L175.74,62.5L175.79,60.44L176.33,59.94L176.93,63.42L176.98,62.35L177.04,61.43L178.29,66.55L178.45,66.4L178.51,64.77L178.61,63.92L179.1,65.34L179.16,63.85L179.43,63.06L180.13,65.48L180.19,64.41L180.51,68.53L180.95,67.54L181,66.19L182.03,69.39L182.14,68.82L182.2,68.46L182.74,70.38L182.85,69.17L182.9,67.11L184.48,74.79L184.53,73.93L184.64,74.93L184.69,73.36L184.75,71.38L185.18,73.51L185.51,71.73L185.56,71.94L185.89,72.94L185.94,71.8L186,69.74L187.35,74.5L187.41,72.87L187.73,74.86L187.79,73.86L187.84,72.3L188.66,75.35L188.93,74.93L188.98,73.86L190.61,83.59L190.67,81.6L190.83,82.17L190.88,80.68L190.94,79.26L191.7,81.32L191.81,80.68L191.86,80.75L191.97,78.76L192.78,82.53L192.84,80.82L193.43,83.66L193.6,82.24L193.65,80.11L193.76,80.4L193.81,78.41L193.87,77.77L194.25,81.39L194.3,81.46L194.63,82.1L194.68,80.04L194.9,80.97L194.95,79.33L195.17,79.83L195.23,78.12L195.39,78.48L195.44,76.77L195.5,76.99L195.55,76.06L195.61,76.28L195.66,74.36L196.58,79.9L196.91,78.69L196.96,77.34L198.21,80.97L198.27,80.61L198.59,78.55L198.97,80.61L199.03,80.75L199.08,81.11L199.14,79.19L199.57,79.4L199.62,79.47L199.79,78.48L200.28,80.18L200.33,79.19L200.38,78.55L200.87,80.61L200.93,81.39L202.01,84.87L202.12,83.59L202.18,83.66L204.18,89.77L204.24,87.93L204.51,86.01L204.78,87.78L204.84,87.78L205.76,82.95L205.92,83.59L205.98,83.95L206.41,83.45L208.69,94.53L208.85,92.83L208.91,92.9L209.12,93.82L209.4,90.27L209.72,91.69L209.78,91.69L210.81,95.74L211.02,94.82L211.08,95.03L212.06,98.87L212.11,97.16L212.76,98.37L212.82,97.02L212.87,97.09L212.98,96.03L214.01,99.93L214.06,98.37L214.39,96.1L214.82,96.45L214.88,96.74L214.93,96.95L214.99,95.39L215.1,95.46L215.15,94.18L215.48,94.82L215.53,93.33L215.86,92.33L216.18,93.68L216.24,94.18L217.43,98.3L217.49,97.09L218.3,99.01L218.35,96.88L218.46,95.95L218.84,97.87L218.9,97.09L218.95,95.31L219.66,97.3L219.71,94.96L220.31,96.31L220.47,95.31L220.53,94.75L221.77,97.66L221.83,96.95L223.02,100.36L223.08,100.36L223.29,100.57L223.35,99.51L223.51,98.94L224.65,102.35L224.71,101L225.03,101.42L225.09,99.79L225.41,100.86L225.47,99.29L225.9,100.64L225.95,100.43L227.26,103.27L227.31,103.34L227.47,102.42L228.94,105.76L228.99,104.98L229.27,106.4L229.43,104.19L229.59,104.98L229.65,103.91L230.62,106.11L230.68,106.18L231.17,106.89L231.22,107.32L231.44,107.68L231.49,108.31L231.6,107.89L231.93,108.6L231.98,106.96L233.5,111.94L233.56,109.81L233.88,107.96L234.32,109.1L234.37,109.1L235.13,110.87L235.18,109.24L235.35,109.38L235.4,108.24L238.06,113.64L238.12,112.22L238.44,113.22L238.71,112.58L238.77,111.16L240.07,112.93L240.34,112.65L240.4,112.65L240.45,112.08L240.94,113.86L240.99,113.86L241.05,114.07L241.37,114.78L241.43,114.85L243.11,116.91L243.16,116.91L243.6,117.34L243.65,117.76L245.77,121.24L245.82,121.24L246.15,120.53L246.53,121.24L246.58,121.31L247.45,123.3L247.51,121.74L251.74,127.07L251.8,124.72L252.88,125.86L252.94,126.22L253.32,126.5L253.37,125.08L253.97,126.22L254.24,125.65L254.29,125.65L256.03,128.84L256.09,128.84L257.01,129.77L257.06,130.05L257.33,129.2L258.15,131.19L258.2,131.19L259.56,132.75L259.61,132.47L259.67,131.12L262.82,135.45L262.87,134.46L264.88,135.17L264.93,135.38L266.02,137.51L266.07,137.58L267.21,138.79L267.27,138.86L268.35,140.35L268.41,140.35L270.58,142.2L270.63,142.2L271.83,142.91L271.88,142.98L273.19,144.12L273.24,144.4L274.16,145.04L274.22,145.04L274.92,145.68L274.98,145.82L277.1,147.31L277.15,147.31L278.18,148.09L278.24,148.09L279.32,149.09L279.38,149.09L281.38,149.8L281.44,150.08L282.52,150.94L282.58,150.94L283.72,151.58L283.77,151.72L289.2,154.56L289.26,154.77L291.16,156.55L291.21,156.55L292.13,157.12L292.19,157.33L294.36,158.89L294.41,158.89L295.66,159.6L295.72,159.74L297.73,161.38L297.78,161.38L298.54,161.95L298.59,162.16L299.73,162.87L299.79,163.3L301.42,164.01L301.47,164.15L303.37,164.86L303.43,165L312.6,169.41L312.66,169.9L315.1,171.04L315.15,171.04L323.62,174.88L323.68,175.09L324.38,175.8L324.44,175.94L325.3,176.65L325.36,176.65L326.23,177.5L326.28,177.5L327.8,178.36L327.86,178.36L329.05,179L329.11,179.14L329.97,179.63L330.03,180.06L332.96,180.77L333.01,181.06L334.86,181.77L334.91,181.84L337.68,182.41L337.74,182.62L340.34,183.12L340.4,183.61L341.81,184.32L341.86,184.39L348.05,186.6L348.11,186.6L349.74,187.87L349.79,188.23L351.31,188.66L351.36,189.15L353.1,189.79L353.16,189.93L356.85,190.65L356.9,190.79L359.13,191.5L359.18,191.57L360.65,192.21L360.7,192.49L362.22,193.13L362.28,193.27L365.26,193.98L365.32,194.48L369.28,195.12L369.33,195.33L371.29,196.04L371.34,196.26L376.07,196.83L376.12,197.11L378.45,198.25L378.51,198.25L382.53,198.96L382.58,199.03L384.64,199.74L384.7,199.88L386.38,200.87L386.44,200.87L390.4,201.58L390.45,201.8L392.62,202.37L392.68,202.65L398.11,203.36L398.16,203.64L398.98,203.79L399.03,203.79L402.02,204.5L402.07,204.64L403.97,205.28L404.03,205.63L407.66,206.42L407.72,206.42L410.54,207.13L410.59,207.2L414.23,207.76L414.29,207.98L420.86,208.69L420.91,208.76L426.01,210.18L426.07,210.18L427.1,210.89L427.15,210.96L430.84,211.67L430.9,211.67L432.36,212.31L432.42,212.67L437.3,213.38L437.36,213.45L441.87,214.02L441.92,214.23L444.91,215.01L444.96,215.01L448.38,215.65" style="vector-effect: non-scaling-stroke; fill: none; stroke: rgb(99, 110, 250); stroke-opacity: 1; stroke-width: 2px; opacity: 1;"/></g><g class="points"/><g class="text"/></g></g></g><g class="overplot"><g class="xy2" transform="translate(78,20)" clip-path="url(#clip5e7a44xy2plot)"><g class="scatterlayer mlayer"><g class="trace scatter trace9175a1" style="stroke-miterlimit: 2; opacity: 1;"><g class="fills"/><g class="errorbars"/><g class="lines"><path class="js-line" d="M0,11.35L6.73,35.19L6.79,35.37L12.92,54.65L12.98,54.81L19.27,72.44L19.33,72.58L24.27,85.04L24.32,85.17L34.91,108.31L34.96,108.41L44.14,125.1L44.19,125.19L52.44,137.96L52.5,138.04L61.89,150.38L61.94,150.45L73.45,162.92L73.51,162.97L83.17,171.58L83.23,171.62L94.95,180.19L95.01,180.22L105.05,186.22L105.11,186.25L116.67,191.9L116.72,191.92L127.85,196.33L127.91,196.35L141.37,200.6L141.43,200.62L153.69,203.67L153.75,203.68L167.92,206.45L167.97,206.46L216.62,211.93L216.67,211.93L262.76,214.09L262.82,214.09L282.8,214.59L282.85,214.59L344.41,215.34L344.47,215.35L448.38,215.65" style="vector-effect: non-scaling-stroke; fill: none; stroke: rgb(239, 85, 59); stroke-opacity: 1; stroke-width: 2px; opacity: 1;"/></g><g class="points"/><g class="text"/></g></g></g></g><path class="xlines-above crisp" d="M0,0" style="fill: none;"/><path class="ylines-above crisp" d="M0,0" style="fill: none;"/><g class="overlines-above"><path class="xy2-x crisp" d="M0,0" style="fill: none;"/><path class="xy2-y crisp" d="M0,0" style="fill: none;"/></g><g class="xaxislayer-above"><g class="xtick"><text text-anchor="middle" x="0" y="260" transform="translate(78,0)" style="font-family: 'Open Sans', verdana, arial, sans-serif; font-size: 12px; fill: rgb(42, 63, 95); fill-opacity: 1; white-space: pre; opacity: 1;">0</text></g><g class="xtick"><text text-anchor="middle" x="0" y="260" style="font-family: 'Open Sans', verdana, arial, sans-serif; font-size: 12px; fill: rgb(42, 63, 95); fill-opacity: 1; white-space: pre; opacity: 1;" transform="translate(186.57999999999998,0)">2000</text></g><g class="xtick"><text text-anchor="middle" x="0" y="260" style="font-family: 'Open Sans', verdana, arial, sans-serif; font-size: 12px; fill: rgb(42, 63, 95); fill-opacity: 1; white-space: pre; opacity: 1;" transform="translate(295.15999999999997,0)">4000</text></g><g class="xtick"><text text-anchor="middle" x="0" y="260" style="font-family: 'Open Sans', verdana, arial, sans-serif; font-size: 12px; fill: rgb(42, 63, 95); fill-opacity: 1; white-space: pre; opacity: 1;" transform="translate(403.74,0)">6000</text></g><g class="xtick"><text text-anchor="middle" x="0" y="260" style="font-family: 'Open Sans', verdana, arial, sans-serif; font-size: 12px; fill: rgb(42, 63, 95); fill-opacity: 1; white-space: pre; opacity: 1;" transform="translate(512.3199999999999,0)">8000</text></g></g><g class="yaxislayer-above"><g class="ytick"><text text-anchor="end" x="77" y="4.199999999999999" transform="translate(0,218.25)" style="font-family: 'Open Sans', verdana, arial, sans-serif; font-size: 12px; fill: rgb(42, 63, 95); fill-opacity: 1; white-space: pre; opacity: 1;">−5000</text></g><g class="ytick"><text text-anchor="end" x="77" y="4.199999999999999" style="font-family: 'Open Sans', verdana, arial, sans-serif; font-size: 12px; fill: rgb(42, 63, 95); fill-opacity: 1; white-space: pre; opacity: 1;" transform="translate(0,182.73)">−4000</text></g><g class="ytick"><text text-anchor="end" x="77" y="4.199999999999999" style="font-family: 'Open Sans', verdana, arial, sans-serif; font-size: 12px; fill: rgb(42, 63, 95); fill-opacity: 1; white-space: pre; opacity: 1;" transform="translate(0,147.20999999999998)">−3000</text></g><g class="ytick"><text text-anchor="end" x="77" y="4.199999999999999" style="font-family: 'Open Sans', verdana, arial, sans-serif; font-size: 12px; fill: rgb(42, 63, 95); fill-opacity: 1; white-space: pre; opacity: 1;" transform="translate(0,111.69)">−2000</text></g><g class="ytick"><text text-anchor="end" x="77" y="4.199999999999999" style="font-family: 'Open Sans', verdana, arial, sans-serif; font-size: 12px; fill: rgb(42, 63, 95); fill-opacity: 1; white-space: pre; opacity: 1;" transform="translate(0,76.17)">−1000</text></g><g class="ytick"><text text-anchor="end" x="77" y="4.199999999999999" style="font-family: 'Open Sans', verdana, arial, sans-serif; font-size: 12px; fill: rgb(42, 63, 95); fill-opacity: 1; white-space: pre; opacity: 1;" transform="translate(0,40.66)">0</text></g></g><g class="overaxes-above"><g class="xy2-x"/><g class="xy2-y"><g class="y2tick"><text text-anchor="start" x="527.38" y="4.199999999999999" transform="translate(0,235.7)" style="font-family: 'Open Sans', verdana, arial, sans-serif; font-size: 12px; fill: rgb(42, 63, 95); fill-opacity: 1; white-space: pre; opacity: 1;">0</text></g><g class="y2tick"><text text-anchor="start" x="527.38" y="4.199999999999999" style="font-family: 'Open Sans', verdana, arial, sans-serif; font-size: 12px; fill: rgb(42, 63, 95); fill-opacity: 1; white-space: pre; opacity: 1;" transform="translate(0,184.61)">500</text></g><g class="y2tick"><text text-anchor="start" x="527.38" y="4.199999999999999" style="font-family: 'Open Sans', verdana, arial, sans-serif; font-size: 12px; fill: rgb(42, 63, 95); fill-opacity: 1; white-space: pre; opacity: 1;" transform="translate(0,133.53)">1000</text></g><g class="y2tick"><text text-anchor="start" x="527.38" y="4.199999999999999" style="font-family: 'Open Sans', verdana, arial, sans-serif; font-size: 12px; fill: rgb(42, 63, 95); fill-opacity: 1; white-space: pre; opacity: 1;" transform="translate(0,82.44)">1500</text></g><g class="y2tick"><text text-anchor="start" x="527.38" y="4.199999999999999" style="font-family: 'Open Sans', verdana, arial, sans-serif; font-size: 12px; fill: rgb(42, 63, 95); fill-opacity: 1; white-space: pre; opacity: 1;" transform="translate(0,31.35)">2000</text></g></g></g></g><g class="subplot xy2"/></g><g class="polarlayer"/><g class="smithlayer"/><g class="ternarylayer"/><g class="geolayer"/><g class="funnelarealayer"/><g class="pielayer"/><g class="iciclelayer"/><g class="treemaplayer"/><g class="sunburstlayer"/><g class="glimages"/><defs id="topdefs-5e7a44"><g class="clips"/><clipPath id="legend5e7a44"><rect width="123" height="48" x="0" y="0"/></clipPath></defs><g class="layer-above"><g class="imagelayer"/><g class="shapelayer"/></g><g class="infolayer"><g class="legend" pointer-events="all" transform="translate(564.54,20)"><rect class="bg" shape-rendering="crispEdges" width="123" height="48" x="0" y="0" style="stroke: rgb(68, 68, 68); stroke-opacity: 1; fill: rgb(255, 255, 255); fill-opacity: 1; stroke-width: 0px;"/><g class="scrollbox" transform="" clip-path="url(#legend5e7a44)"><g class="groups"><g class="traces" transform="translate(0,14.5)" style="opacity: 1;"><text class="legendtext" text-anchor="start" x="40" y="4.680000000000001" style="font-family: 'Open Sans', verdana, arial, sans-serif; font-size: 12px; fill: rgb(42, 63, 95); fill-opacity: 1; white-space: pre;">Cost</text><g class="layers" style="opacity: 1;"><g class="legendfill"/><g class="legendlines"><path class="js-line" d="M5,0h30" style="fill: none; stroke: rgb(99, 110, 250); stroke-opacity: 1; stroke-width: 2px;"/></g><g class="legendsymbols"><g class="legendpoints"/></g></g><rect class="legendtoggle" x="0" y="-9.5" width="117.265625" height="19" style="fill: rgb(0, 0, 0); fill-opacity: 0;"/></g><g class="traces" transform="translate(0,33.5)" style="opacity: 1;"><text class="legendtext" text-anchor="start" x="40" y="4.680000000000001" style="font-family: 'Open Sans', verdana, arial, sans-serif; font-size: 12px; fill: rgb(42, 63, 95); fill-opacity: 1; white-space: pre;">Temperature</text><g class="layers" style="opacity: 1;"><g class="legendfill"/><g class="legendlines"><path class="js-line" d="M5,0h30" style="fill: none; stroke: rgb(239, 85, 59); stroke-opacity: 1; stroke-width: 2px;"/></g><g class="legendsymbols"><g class="legendpoints"/></g></g><rect class="legendtoggle" x="0" y="-9.5" width="117.265625" height="19" style="fill: rgb(0, 0, 0); fill-opacity: 0;"/></g></g></g><rect class="scrollbar" rx="20" ry="3" width="0" height="0" x="0" y="0" style="fill: rgb(128, 139, 164); fill-opacity: 1;"/></g><g class="g-gtitle"/><g class="g-xtitle"><text class="xtitle" x="302.19" y="287.8" text-anchor="middle" style="font-family: 'Open Sans', verdana, arial, sans-serif; font-size: 14px; fill: rgb(42, 63, 95); opacity: 1; font-weight: normal; white-space: pre;">Iterations</text></g><g class="g-ytitle" transform="translate(2.1435546875,0)"><text class="ytitle" transform="rotate(-90,11.856250000000003,133.5)" x="11.856250000000003" y="133.5" text-anchor="middle" style="font-family: 'Open Sans', verdana, arial, sans-serif; font-size: 14px; fill: rgb(42, 63, 95); opacity: 1; font-weight: normal; white-space: pre;">Cost</text></g><g class="g-y2title"><text class="y2title" transform="rotate(-90,583.08125,133.5)" x="583.08125" y="133.5" text-anchor="middle" style="font-family: 'Open Sans', verdana, arial, sans-serif; font-size: 14px; fill: rgb(42, 63, 95); opacity: 1; font-weight: normal; white-space: pre;">Temperature</text></g></g></svg>