<svg class="main-svg" xmlns="http://www.w3.org/2000/svg" xmlns:xlink="http://www.w3.org/1999/xlink" width="700" height="300" style="" viewBox="0 0 700 300"><rect x="0" y="0" width="700" height="300" style="fill: rgb(255, 255, 255); fill-opacity: 1;"/><defs id="defs-60d888"><g class="clips"><clipPath id="clip60d888xyplot" class="plotclip"><rect width="465.29999999999995" height="227"/></clipPath><clipPath id="clip60d888xy2plot" class="plotclip"><rect width="465.29999999999995" height="227"/></clipPath><clipPath class="axesclip" id="clip60d888x"><rect x="60" y="0" width="465.29999999999995" height="300"/></clipPath><clipPath class="axesclip" id="clip60d888y"><rect x="0" y="20" width="700" height="227"/></clipPath><clipPath class="axesclip" id="clip60d888xy"><rect x="60" y="20" width="465.29999999999995" height="227"/></clipPath><clipPath class="axesclip" id="clip60d888y2"><rect x="0" y="20" width="700" height="227"/></clipPath><clipPath class="axesclip" id="clip60d888xy2"><rect x="60" y="20" width="465.29999999999995" height="227"/></clipPath></g><g class="gradients"/><g class="patterns"/></defs><g class="bglayer"><rect class="bg" x="60" y="20" width="465.29999999999995" height="227" style="fill: rgb(229, 236, 246); fill-opacity: 1; stroke-width: 0;"/></g><g class="layer-below"><g class="imagelayer"/><g class="shapelayer"/></g><g class="cartesianlayer"><g class="subplot xy"><g class="layer-subplot"><g class="shapelayer"/><g class="imagelayer"/></g><g class="gridlayer"><g class="x"><path class="xgrid crisp" transform="translate(144.45999999999998,0)" d="M0,20v227" style="stroke: rgb(255, 255, 255); stroke-opacity: 1; stroke-width: 1px;"/><path class="xgrid crisp" transform="translate(228.92,0)" d="M0,20v227" style="stroke: rgb(255, 255, 255); stroke-opacity: 1; stroke-width: 1px;"/><path class="xgrid crisp" transform="translate(313.39,0)" d="M0,20v227" style="stroke: rgb(255, 255, 255); stroke-opacity: 1; stroke-width: 1px;"/><path class="xgrid crisp" transform="translate(397.85,0)" d="M0,20v227" style="stroke: rgb(255, 255, 255); stroke-opacity: 1; stroke-width: 1px;"/><path class="xgrid crisp" transform="translate(482.31,0)" d="M0,20v227" style="stroke: rgb(255, 255, 255); stroke-opacity: 1; stroke-width: 1px;"/></g><g class="y"><path class="ygrid crisp" transform="translate(0,221.87)" d="M60,0h465.29999999999995" style="stroke: rgb(255, 255, 255); stroke-opacity: 1; stroke-width: 1px;"/><path class="ygrid crisp" transform="translate(0,183.79)" d="M60,0h465.29999999999995" style="stroke: rgb(255, 255, 255); stroke-opacity: 1; stroke-width: 1px;"/><path class="ygrid crisp" transform="translate(0,145.72)" d="M60,0h465.29999999999995" style="stroke: rgb(255, 255, 255); stroke-opacity: 1; stroke-width: 1px;"/><path class="ygrid crisp" transform="translate(0,107.65)" d="M60,0h465.29999999999995" style="stroke: rgb(255, 255, 255); stroke-opacity: 1; stroke-width: 1px;"/><path class="ygrid crisp" transform="translate(0,69.58)" d="M60,0h465.29999999999995" style="stroke: rgb(255, 255, 255); stroke-opacity: 1; stroke-width: 1px;"/><path class="ygrid crisp" transform="translate(0,31.5)" d="M60,0h465.29999999999995" style="stroke: rgb(255, 255, 255); stroke-opacity: 1; stroke-width: 1px;"/></g><g class="y2"><path class="y2grid crisp" transform="translate(0,184.58)" d="M60,0h465.29999999999995" style="stroke: rgb(255, 255, 255); stroke-opacity: 1; stroke-width: 1px;"/><path class="y2grid crisp" transform="translate(0,133.5)" d="M60,0h465.29999999999995" style="stroke: rgb(255, 255, 255); stroke-opacity: 1; stroke-width: 1px;"/><path class="y2grid crisp" transform="translate(0,82.43)" d="M60,0h465.29999999999995" style="stroke: rgb(255, 255, 255); stroke-opacity: 1; stroke-width: 1px;"/><path class="y2grid crisp" transform="translate(0,31.35)" d="M60,0h465.29999999999995" style="stroke: rgb(255, 255, 255); stroke-opacity: 1; stroke-width: 1px;"/></g></g><g class="zerolinelayer"><path class="xzl zl crisp" transform="translate(60,0)" d="M0,20v227" style="stroke: rgb(255, 255, 255); stroke-opacity: 1; stroke-width: 2px;"/><path class="y2zl zl crisp" transform="translate(0,235.65)" d="M60,0h465.29999999999995" style="stroke: rgb(255, 255, 255); stroke-opacity: 1; stroke-width: 2px;"/></g><path class="xlines-below"/><path class="ylines-below"/><g class="overlines-below"><path class="xy2-x"/><path class="xy2-y"/></g><g class="xaxislayer-below"/><g class="yaxislayer-below"/><g class="overaxes-below"><g class="xy2-x"/><g class="xy2-y"/></g><g class="plot" transform="translate(60,20)" clip-path="url(#clip60d888xyplot)"><g class="scatterlayer mlayer"><g class="trace scatter trace78af7a" style="stroke-miterlimit: 2; opacity: 1;"><g class="fills"/><g class="errorbars"/><g class="lines"><path class="js-line" d="M0,16.3L0.08,14.62L0.51,20.18L0.59,21.4L1.52,11.43L1.69,14.17L1.77,13.86L1.86,13.1L1.94,14.24L2.03,21.63L2.87,11.35L2.96,13.33L3.04,15.99L3.21,16.98L3.29,13.41L3.38,12.34L3.72,16.98L3.8,18.58L4.39,15.39L4.56,16.6L4.65,19.73L4.73,21.48L4.98,13.86L5.24,17.21L5.32,16.3L5.49,16.68L6.17,13.71L6.25,14.02L6.33,13.25L6.59,16.83L6.67,14.85L6.76,16.83L7.18,14.78L7.26,16.83L7.35,19.65L7.52,17.44L7.6,17.67L7.69,15.39L7.94,12.11L8.11,15.61L8.36,13.94L8.45,15.39L8.53,16.22L8.78,13.25L8.87,11.58L9.12,14.02L9.21,16.68L9.29,14.32L9.8,18.36L9.97,15.46L10.05,16.45L10.9,21.33L10.98,17.59L11.74,11.58L11.82,11.81L11.91,14.4L12.84,18.28L12.92,18.81L13.09,19.57L13.18,17.44L13.26,19.27L13.34,20.03L13.51,20.41L13.6,22.24L14.36,15.99L14.44,17.06L14.53,18.2L14.78,20.03L14.95,19.35L15.03,18.13L15.46,16.98L16.05,23.91L16.13,22.09L16.72,25.28L16.89,23.69L16.98,23.46L17.31,24.83L17.48,20.34L17.74,22.62L17.82,22.92L17.99,19.95L18.58,22.47L18.67,23.08L18.92,22.54L19,25.59L19.43,24.45L19.51,21.86L19.76,21.78L20.52,25.28L20.61,23.84L21.28,26.88L21.54,25.36L21.62,24.6L21.71,24.29L21.88,25.89L21.96,26.12L22.89,31.07L22.97,31.22L23.06,29.47L23.48,33.51L23.56,32.82L23.65,32.9L23.82,31.99L24.66,34.57L24.75,35.11L25.34,34.88L25.42,35.95L25.51,34.57L25.93,33.74L26.94,38.61L27.11,38.46L27.2,38.53L27.7,41.05L27.79,41.73L28.13,43.03L28.21,40.36L28.55,42.04L28.63,42.42L28.72,40.89L29.31,43.18L29.39,43.26L29.56,44.78L29.73,43.79L29.82,41.81L30.24,41.05L30.49,42.27L30.58,43.03L30.83,43.94L30.91,42.34L31.25,43.41L31.34,44.4L32.94,50.03L33.02,50.41L33.53,47.37L33.78,48.81L33.87,49.27L33.95,49.42L34.04,48.59L34.12,47.82L34.46,45.69L34.88,47.06L34.97,47.14L35.9,50.64L35.98,49.19L36.23,51.02L36.32,51.78L37.5,54.98L37.92,54.3L38.01,53.99L38.09,54.14L38.18,52.85L38.35,53.08L38.43,52.62L39.19,54.6L39.44,54.07L39.53,54.14L42.06,64.5L42.15,64.65L44.26,69.68L44.34,69.75L44.6,71.43L44.93,69.3L45.02,69.37L46.71,73.33L46.79,73.87L49.66,80.26L49.75,80.64L50.76,83.16L50.85,84.07L54.14,91.68L54.22,91.84L57.35,98.38L57.43,98.69L58.79,100.67L58.87,100.82L60.22,103.18L60.31,103.33L64.28,109.65L64.36,109.73L65.63,111.94L65.71,111.94L70.78,119.48L70.86,119.55L75.42,126.41L75.51,126.41L78.8,131.13L78.89,131.2L80.24,133.49L80.32,133.64L81.34,134.78L81.42,135.16L84.46,138.06L84.55,138.13L86.32,139.28L86.4,139.28L87.76,139.96L87.84,140.19L89.61,141.71L89.7,141.94L92.82,145.37L92.91,145.52L94.77,147.12L94.85,147.27L95.61,147.96L95.7,148.11L97.89,149.17L97.98,149.17L100.59,152.83L100.68,152.83L103.13,153.51L103.21,153.67L103.97,154.35L104.06,154.43L104.99,154.89L105.07,154.89L106.68,156.1L106.76,156.41L107.6,157.09L107.69,157.17L109.38,157.7L109.46,157.7L110.98,158.39L111.07,158.46L112.17,158.92L112.25,159.3L113.52,159.99L113.6,160.06L119.85,163.57L119.94,163.79L122.13,164.48L122.22,164.56L123.65,165.24L123.74,165.47L125.17,166.61L125.26,166.61L127.79,167.22L127.88,167.45L128.8,167.68L128.89,167.68L129.82,168.36L129.9,168.36L131.59,169.05L131.68,169.28L133.2,169.73L133.28,170.27L134.55,170.8L134.63,171.1L135.73,171.79L135.81,171.79L138.43,172.25L138.52,172.55L142.32,173.24L142.4,173.39L146.2,174.07L146.29,174.15L150.17,174.84L150.26,174.91L154.82,175.6L154.9,175.67L156.17,176.21L156.25,176.51L162.42,178.72L162.5,178.72L164.87,179.4L164.95,179.48L168.67,180.01L168.75,180.24L172.81,180.93L172.89,181L178.05,181.69L178.13,181.76L180.49,182.3L180.58,182.6L181.51,183.21L181.59,183.36L182.69,183.59L182.78,183.59L187.34,184.28L187.42,184.35L188.43,184.66L188.52,184.73L195.7,185.34L195.78,185.65L203.22,188.24L203.3,188.24L207.02,188.92L207.1,189.08L209.72,189.68L209.8,189.84L213.01,190.45L213.1,190.75L222.47,191.44L222.56,191.51L225.09,192.04L225.18,192.04L230.41,192.65L230.5,192.81L238.44,193.49L238.52,193.72L242.49,194.94L242.57,194.94L245.78,195.62L245.87,195.85L247.05,196.54L247.14,196.61L254.31,197.3L254.4,197.45L260.48,198.14L260.56,198.36L265.04,198.97L265.13,199.13L276.27,199.81L276.36,199.89L278.22,200.42L278.3,200.65L286.58,201.33L286.66,201.41L299.25,202.02L299.33,202.17L300.6,202.86L300.68,202.93L313.18,203.62L313.27,203.7L318.25,204.38L318.34,204.46L326.87,204.99L326.95,205.22L330.75,205.75L330.84,206.06L332.19,206.28L332.27,206.28L341.48,206.97L341.56,207.05L353.13,207.65L353.22,207.96L361.16,208.57L361.24,208.8L362.17,208.95L362.26,208.95L366.48,209.63L366.56,209.94L376.11,210.62L376.19,210.7L381.77,211.39L381.85,211.54L394.52,212.22L394.61,212.3L399.42,212.83L399.5,213.06L423.58,213.75L423.66,213.82L439.96,214.51L440.05,214.58L461.33,215.04L461.41,215.35L465.3,215.65" style="vector-effect: non-scaling-stroke; fill: none; stroke: rgb(99, 110, 250); stroke-opacity: 1; stroke-width: 2px; opacity: 1;"/></g><g class="points"/><g class="text"/></g></g></g><g class="overplot"><g class="xy2" transform="translate(60,20)" clip-path="url(#clip60d888xy2plot)"><g class="scatterlayer mlayer"><g class="trace scatter trace937124" style="stroke-miterlimit: 2; opacity: 1;"><g class="fills"/><g class="errorbars"/><g class="lines"><path class="js-line" d="M0,11.35L3.72,72.17L3.8,73.32L8.7,126.33L8.78,127.04L13.68,160.04L13.77,160.48L17.31,176.28L17.4,176.6L21.28,188.66L21.37,188.88L25.42,197.44L25.51,197.59L29.82,203.66L29.9,203.75L34.88,208.24L34.97,208.3L40.54,211.33L40.63,211.36L47.64,213.45L47.72,213.47L60.56,215.01L60.64,215.01L82.77,215.57L82.86,215.57L465.3,215.65" style="vector-effect: non-scaling-stroke; fill: none; stroke: rgb(239, 85, 59); stroke-opacity: 1; stroke-width: 2px; opacity: 1;"/></g><g class="points"/><g class="text"/></g></g></g></g><path class="xlines-above crisp" d="M0,0" style="fill: none;"/><path class="ylines-above crisp" d="M0,0" style="fill: none;"/><g class="overlines-above"><path class="xy2-x crisp" d="M0,0" style="fill: none;"/><path class="xy2-y crisp" d="M0,0" style="fill: none;"/></g><g class="xaxislayer-above"><g class="xtick"><text text-anchor="middle" x="0" y="260" transform="translate(60,0)" style="font-family: 'Open Sans', verdana, arial, sans-serif; font-size: 12px; fill: rgb(42, 63, 95); fill-opacity: 1; white-space: pre; opacity: 1;">0</text></g><g class="xtick"><text text-anchor="middle" x="0" y="260" style="font-family: 'Open Sans', verdana, arial, sans-serif; font-size: 12px; fill: rgb(42, 63, 95); fill-opacity: 1; white-space: pre; opacity: 1;" transform="translate(144.45999999999998,0)">1000</text></g><g class="xtick"><text text-anchor="middle" x="0" y="260" style="font-family: 'Open Sans', verdana, arial, sans-serif; font-size: 12px; fill: rgb(42, 63, 95); fill-opacity: 1; white-space: pre; opacity: 1;" transform="translate(228.92,0)">2000</text></g><g class="xtick"><text text-anchor="middle" x="0" y="260" style="font-family: 'Open Sans', verdana, arial, sans-serif; font-size: 12px; fill: rgb(42, 63, 95); fill-opacity: 1; white-space: pre; opacity: 1;" transform="translate(313.39,0)">3000</text></g><g class="xtick"><text text-anchor="middle" x="0" y="260" style="font-family: 'Open Sans', verdana, arial, sans-serif; font-size: 12px; fill: rgb(42, 63, 95); fill-opacity: 1; white-space: pre; opacity: 1;" transform="translate(397.85,0)">4000</text></g><g class="xtick"><text text-anchor="middle" x="0" y="260" style="font-family: 'Open Sans', verdana, arial, sans-serif; font-size: 12px; fill: rgb(42, 63, 95); fill-opacity: 1; white-space: pre; opacity: 1;" transform="translate(482.31,0)">5000</text></g></g><g class="yaxislayer-above"><g class="ytick"><text text-anchor="end" x="59" y="4.199999999999999" transform="translate(0,221.87)" style="font-family: 'Open Sans', verdana, arial, sans-serif; font-size: 12px; fill: rgb(42, 63, 95); fill-opacity: 1; white-space: pre; opacity: 1;">9k</text></g><g class="ytick"><text text-anchor="end" x="59" y="4.199999999999999" style="font-family: 'Open Sans', verdana, arial, sans-serif; font-size: 12px; fill: rgb(42, 63, 95); fill-opacity: 1; white-space: pre; opacity: 1;" transform="translate(0,183.79)">10k</text></g><g class="ytick"><text text-anchor="end" x="59" y="4.199999999999999" style="font-family: 'Open Sans', verdana, arial, sans-serif; font-size: 12px; fill: rgb(42, 63, 95); fill-opacity: 1; white-space: pre; opacity: 1;" transform="translate(0,145.72)">11k</text></g><g class="ytick"><text text-anchor="end" x="59" y="4.199999999999999" style="font-family: 'Open Sans', verdana, arial, sans-serif; font-size: 12px; fill: rgb(42, 63, 95); fill-opacity: 1; white-space: pre; opacity: 1;" transform="translate(0,107.65)">12k</text></g><g class="ytick"><text text-anchor="end" x="59" y="4.199999999999999" style="font-family: 'Open Sans', verdana, arial, sans-serif; font-size: 12px; fill: rgb(42, 63, 95); fill-opacity: 1; white-space: pre; opacity: 1;" transform="translate(0,69.58)">13k</text></g><g class="ytick"><text text-anchor="end" x="59" y="4.199999999999999" style="font-family: 'Open Sans', verdana, arial, sans-serif; font-size: 12px; fill: rgb(42, 63, 95); fill-opacity: 1; white-space: pre; opacity: 1;" transform="translate(0,31.5)">14k</text></g></g><g class="overaxes-above"><g class="xy2-x"/><g class="xy2-y"><g class="y2tick"><text text-anchor="start" x="526.3" y="4.199999999999999" transform="translate(0,235.65)" style="font-family: 'Open Sans', verdana, arial, sans-serif; font-size: 12px; fill: rgb(42, 63, 95); fill-opacity: 1; white-space: pre; opacity: 1;">0</text></g><g class="y2tick"><text text-anchor="start" x="526.3" y="4.199999999999999" style="font-family: 'Open Sans', verdana, arial, sans-serif; font-size: 12px; fill: rgb(42, 63, 95); fill-opacity: 1; white-space: pre; opacity: 1;" transform="translate(0,184.58)">500</text></g><g class="y2tick"><text text-anchor="start" x="526.3" y="4.199999999999999" style="font-family: 'Open Sans', verdana, arial, sans-serif; font-size: 12px; fill: rgb(42, 63, 95); fill-opacity: 1; white-space: pre; opacity: 1;" transform="translate(0,133.5)">1000</text></g><g class="y2tick"><text text-anchor="start" x="526.3" y="4.199999999999999" style="font-family: 'Open Sans', verdana, arial, sans-serif; font-size: 12px; fill: rgb(42, 63, 95); fill-opacity: 1; white-space: pre; opacity: 1;" transform="translate(0,82.43)">1500</text></g><g class="y2tick"><text text-anchor="start" x="526.3" y="4.199999999999999" style="font-family: 'Open Sans', verdana, arial, sans-serif; font-size: 12px; fill: rgb(42, 63, 95); fill-opacity: 1; white-space: pre; opacity: 1;" transform="translate(0,31.35)">2000</text></g></g></g></g><g class="subplot xy2"/></g><g class="polarlayer"/><g class="smithlayer"/><g class="ternarylayer"/><g class="geolayer"/><g class="funnelarealayer"/><g class="pielayer"/><g class="iciclelayer"/><g class="treemaplayer"/><g class="sunburstlayer"/><g class="glimages"/><defs id="topdefs-60d888"><g class="clips"/><clipPath id="legend60d888"><rect width="123" height="48" x="0" y="0"/></clipPath></defs><g class="layer-above"><g class="imagelayer"/><g class="shapelayer"/></g><g class="infolayer"><g class="legend" pointer-events="all" transform="translate(564.9000000000001,20)"><rect class="bg" shape-rendering="crispEdges" width="123" height="48" x="0" y="0" style="stroke: rgb(68, 68, 68); stroke-opacity: 1; fill: rgb(255, 255, 255); fill-opacity: 1; stroke-width: 0px;"/><g class="scrollbox" transform="" clip-path="url(#legend60d888)"><g class="groups"><g class="traces" transform="translate(0,14.5)" style="opacity: 1;"><text class="legendtext" text-anchor="start" x="40" y="4.680000000000001" style="font-family: 'Open Sans', verdana, arial, sans-serif; font-size: 12px; fill: rgb(42, 63, 95); fill-opacity: 1; white-space: pre;">Cost</text><g class="layers" style="opacity: 1;"><g class="legendfill"/><g class="legendlines"><path class="js-line" d="M5,0h30" style="fill: none; stroke: rgb(99, 110, 250); stroke-opacity: 1; stroke-width: 2px;"/></g><g class="legendsymbols"><g class="legendpoints"/></g></g><rect class="legendtoggle" x="0" y="-9.5" width="117.265625" height="19" style="fill: rgb(0, 0, 0); fill-opacity: 0;"/></g><g class="traces" transform="translate(0,33.5)" style="opacity: 1;"><text class="legendtext" text-anchor="start" x="40" y="4.680000000000001" style="font-family: 'Open Sans', verdana, arial, sans-serif; font-size: 12px; fill: rgb(42, 63, 95); fill-opacity: 1; white-space: pre;">Temperature</text><g class="layers" style="opacity: 1;"><g class="legendfill"/><g class="legendlines"><path class="js-line" d="M5,0h30" style="fill: none; stroke: rgb(239, 85, 59); stroke-opacity: 1; stroke-width: 2px;"/></g><g class="legendsymbols"><g class="legendpoints"/></g></g><rect class="legendtoggle" x="0" y="-9.5" width="117.265625" height="19" style="fill: rgb(0, 0, 0); fill-opacity: 0;"/></g></g></g><rect class="scrollbar" rx="20" ry="3" width="0" height="0" x="0" y="0" style="fill: rgb(128, 139, 164); fill-opacity: 1;"/></g><g class="g-gtitle"/><g class="g-xtitle"><text class="xtitle" x="292.65" y="287.8" text-anchor="middle" style="font-family: 'Open Sans', verdana, arial, sans-serif; font-size: 14px; fill: rgb(42, 63, 95); opacity: 1; font-weight: normal; white-space: pre;">Iterations</text></g><g class="g-ytitle" transform="translate(2.1591796875,0)"><text class="ytitle" transform="rotate(-90,11.840625000000003,133.5)" x="11.840625000000003" y="133.5" text-anchor="middle" style="font-family: 'Open Sans', verdana, arial, sans-serif; font-size: 14px; fill: rgb(42, 63, 95); opacity: 1; font-weight: normal; white-space: pre;">Cost</text></g><g class="g-y2title"><text class="y2title" transform="rotate(-90,581.9875,133.5)" x="581.9875" y="133.5" text-anchor="middle" style="font-family: 'Open Sans', verdana, arial, sans-serif; font-size: 14px; fill: rgb(42, 63, 95); opacity: 1; font-weight: normal; white-space: pre;">Temperature</text></g></g></svg>