<svg class="main-svg" xmlns="http://www.w3.org/2000/svg" xmlns:xlink="http://www.w3.org/1999/xlink" width="700" height="300" style="" viewBox="0 0 700 300"><rect x="0" y="0" width="700" height="300" style="fill: rgb(255, 255, 255); fill-opacity: 1;"/><defs id="defs-87c92c"><g class="clips"><clipPath id="clip87c92cxyplot" class="plotclip"><rect width="448.38" height="227"/></clipPath><clipPath id="clip87c92cxy2plot" class="plotclip"><rect width="448.38" height="227"/></clipPath><clipPath class="axesclip" id="clip87c92cx"><rect x="78" y="0" width="448.38" height="300"/></clipPath><clipPath class="axesclip" id="clip87c92cy"><rect x="0" y="20" width="700" height="227"/></clipPath><clipPath class="axesclip" id="clip87c92cxy"><rect x="78" y="20" width="448.38" height="227"/></clipPath><clipPath class="axesclip" id="clip87c92cy2"><rect x="0" y="20" width="700" height="227"/></clipPath><clipPath class="axesclip" id="clip87c92cxy2"><rect x="78" y="20" width="448.38" height="227"/></clipPath></g><g class="gradients"/><g class="patterns"/></defs><g class="bglayer"><rect class="bg" x="78" y="20" width="448.38" height="227" style="fill: rgb(229, 236, 246); fill-opacity: 1; stroke-width: 0;"/></g><g class="layer-below"><g class="imagelayer"/><g class="shapelayer"/></g><g class="cartesianlayer"><g class="subplot xy"><g class="layer-subplot"><g class="shapelayer"/><g class="imagelayer"/></g><g class="gridlayer"><g class="x"><path class="xgrid crisp" transform="translate(177.32,0)" d="M0,20v227" style="stroke: rgb(255, 255, 255); stroke-opacity: 1; stroke-width: 1px;"/><path class="xgrid crisp" transform="translate(276.64,0)" d="M0,20v227" style="stroke: rgb(255, 255, 255); stroke-opacity: 1; stroke-width: 1px;"/><path class="xgrid crisp" transform="translate(375.96,0)" d="M0,20v227" style="stroke: rgb(255, 255, 255); stroke-opacity: 1; stroke-width: 1px;"/><path class="xgrid crisp" transform="translate(475.28,0)" d="M0,20v227" style="stroke: rgb(255, 255, 255); stroke-opacity: 1; stroke-width: 1px;"/></g><g class="y"><path class="ygrid crisp" transform="translate(0,209.33)" d="M78,0h448.38" style="stroke: rgb(255, 255, 255); stroke-opacity: 1; stroke-width: 1px;"/><path class="ygrid crisp" transform="translate(0,166.24)" d="M78,0h448.38" style="stroke: rgb(255, 255, 255); stroke-opacity: 1; stroke-width: 1px;"/><path class="ygrid crisp" transform="translate(0,123.16)" d="M78,0h448.38" style="stroke: rgb(255, 255, 255); stroke-opacity: 1; stroke-width: 1px;"/><path class="ygrid crisp" transform="translate(0,80.08)" d="M78,0h448.38" style="stroke: rgb(255, 255, 255); stroke-opacity: 1; stroke-width: 1px;"/></g><g class="y2"><path class="y2grid crisp" transform="translate(0,184.59)" d="M78,0h448.38" style="stroke: rgb(255, 255, 255); stroke-opacity: 1; stroke-width: 1px;"/><path class="y2grid crisp" transform="translate(0,133.51)" d="M78,0h448.38" style="stroke: rgb(255, 255, 255); stroke-opacity: 1; stroke-width: 1px;"/><path class="y2grid crisp" transform="translate(0,82.43)" d="M78,0h448.38" style="stroke: rgb(255, 255, 255); stroke-opacity: 1; stroke-width: 1px;"/><path class="y2grid crisp" transform="translate(0,31.35)" d="M78,0h448.38" style="stroke: rgb(255, 255, 255); stroke-opacity: 1; stroke-width: 1px;"/></g></g><g class="zerolinelayer"><path class="xzl zl crisp" transform="translate(78,0)" d="M0,20v227" style="stroke: rgb(255, 255, 255); stroke-opacity: 1; stroke-width: 2px;"/><path class="yzl zl crisp" transform="translate(0,36.989999999999995)" d="M78,0h448.38" style="stroke: rgb(255, 255, 255); stroke-opacity: 1; stroke-width: 2px;"/><path class="y2zl zl crisp" transform="translate(0,235.67)" d="M78,0h448.38" style="stroke: rgb(255, 255, 255); stroke-opacity: 1; stroke-width: 2px;"/></g><path class="xlines-below"/><path class="ylines-below"/><g class="overlines-below"><path class="xy2-x"/><path class="xy2-y"/></g><g class="xaxislayer-below"/><g class="yaxislayer-below"/><g class="overaxes-below"><g class="xy2-x"/><g class="xy2-y"/></g><g class="plot" transform="translate(78,20)" clip-path="url(#clip87c92cxyplot)"><g class="scatterlayer mlayer"><g class="trace scatter trace709eba" style="stroke-miterlimit: 2; opacity: 1;"><g class="fills"/><g class="errorbars"/><g class="lines"><path class="js-line" d="M0,20.18L0.55,14.71L0.89,16.35L0.94,17.55L1.29,18.2L1.44,15.14L1.74,15.74L1.79,18.16L2.04,21L2.43,14.19L2.68,16.91L2.73,17.34L3.23,21.13L3.38,14.54L3.43,12.69L3.58,11.35L4.12,17.94L4.32,15.92L4.37,15.27L4.97,15.23L5.07,19.92L5.21,17.86L5.26,16.91L5.31,18.11L5.56,13.25L5.96,16.35L6.01,15.62L6.8,21.35L6.85,20.31L6.9,16.86L7.35,22.38L7.7,19.06L7.75,19.02L8.59,13.25L8.69,13.89L8.74,15.36L8.99,18.59L9.39,15.23L9.44,15.62L9.49,15.27L9.63,15.79L9.68,14.88L9.73,15.01L9.78,13.42L9.83,12.25L10.38,15.74L10.43,14.8L10.48,15.36L10.73,14.58L11.12,17.04L11.17,15.53L11.22,14.62L11.82,16.78L11.87,15.92L11.92,14.15L12.37,13.07L12.66,18.63L12.71,17.17L12.76,15.49L13.01,17.12L13.46,11.91L13.51,13.81L13.56,15.83L13.81,14.88L14,21.04L14.3,16.78L14.35,16.52L14.6,19.58L14.95,14.15L15,14.54L15.05,14.84L15.1,13.85L15.49,17.68L15.74,15.79L15.79,17.3L15.84,17.9L16.24,15.4L16.29,13.55L16.34,11.82L16.79,16.82L16.93,16L16.98,16.3L17.33,18.76L17.48,15.49L17.53,15.18L17.68,13.98L18.13,19.41L18.23,16.78L18.27,14.45L18.37,13.55L18.72,16.69L18.77,17.55L18.92,16.22L19.17,19.23L19.47,17.73L19.52,18.63L19.57,20.61L20.06,13.46L20.11,12.13L20.96,18.29L21.06,15.74L21.11,13.5L21.2,12.08L21.45,18.03L21.5,17.12L21.55,17.3L21.6,16.3L21.7,20.31L22.15,18.93L22.2,20.05L22.3,21.6L22.55,17.86L22.79,18.85L22.84,18.07L23.29,21.6L23.54,18.89L23.59,18.72L23.79,21.13L24.28,17.6L24.33,19.84L24.38,18.85L24.48,16.86L24.78,21.47L25.08,19.62L25.13,21.09L25.28,22.21L25.67,17.6L25.72,16.86L25.97,20.7L26.32,19.15L26.37,18.72L26.52,20.79L27.02,15.06L27.06,16.35L27.11,16.52L27.31,15.06L27.66,16.82L27.71,16.56L27.76,17.21L28.06,18.85L28.31,17.34L28.36,16.99L28.41,16.52L28.65,20.4L28.7,21.04L28.95,24.36L29.5,23.03L29.55,22.03L30.09,19.28L30.34,21.04L30.39,21.39L30.59,21.35L30.84,23.54L31.19,22.59L31.24,21.82L31.63,20.14L31.83,22.94L31.93,22.47L31.98,21.39L32.28,23.67L32.73,19.23L32.78,19.41L32.83,20.18L32.97,21.26L33.27,18.8L33.52,20.79L33.57,19.71L33.87,17.42L34.22,20.35L34.27,19.92L34.32,20.18L34.66,21.91L34.96,18.63L35.06,20.31L35.11,20.44L35.26,20.05L35.31,20.57L35.36,18.16L35.66,19.49L36.35,15.14L36.5,16.3L36.55,16.69L36.65,14.88L36.95,18.5L37.2,16.35L37.24,17.55L37.49,21.82L38.04,19.79L38.09,19.97L38.49,15.4L38.88,18.07L38.93,18.54L39.13,18.8L39.78,14.97L39.83,15.14L39.93,13.37L40.42,19.02L40.47,19.58L40.57,19.28L40.77,20.83L40.92,20.1L40.97,22.08L41.42,24.96L41.66,23.8L41.71,23.03L43.01,13.76L43.06,14.62L43.95,19.97L44,19.71L44.05,19.92L44.64,23.46L44.84,22.81L44.89,21.56L45.24,23.15L45.59,22.21L45.64,20.7L46.38,24.53L46.48,24.1L46.53,24.02L46.83,21.86L47.23,26.26L47.43,25.78L47.47,25.83L47.97,20.48L48.32,22.38L48.37,22.94L48.67,24.62L48.87,21.3L48.92,20.44L49.16,19.84L49.41,22.55L49.46,21.82L49.51,23.03L49.76,24.32L50.75,17.77L50.9,19.58L50.95,20.27L51,18.93L51.55,22.85L51.6,22.81L51.65,23.76L51.85,24.96L52.09,21.82L52.29,23.5L52.34,24.71L52.59,26.17L52.69,24.1L52.99,25.52L53.04,24.45L53.29,27.03L53.48,21.73L53.83,23.63L53.88,24.49L54.13,24.92L54.28,22.12L54.33,21L54.73,25.14L55.22,23.89L55.27,23.93L55.77,19.41L56.12,22.16L56.17,22.16L56.66,27.85L57.06,26.9L57.11,26.21L57.41,28.76L57.56,26.73L57.61,26.64L57.7,25.35L57.9,28.5L57.95,28.97L58.25,27.2L58.55,29.32L58.6,27.42L59.29,25.14L59.44,25.4L59.49,26.13L59.59,25.7L60.54,31.17L60.59,30.13L60.63,29.88L60.93,31.21L61.03,28.07L61.23,28.97L61.28,29.01L61.33,29.44L61.53,26.21L61.58,24.88L62.37,31.77L62.77,29.92L62.82,28.58L63.37,30.87L63.47,28.54L63.52,27.55L63.81,25.91L64.01,28.11L64.11,27.42L64.16,26.64L64.66,26.39L64.96,27.64L65,26.64L65.2,25.91L65.5,28.32L65.6,27.38L65.65,26.04L66,28.07L66.54,27.46L66.59,26.73L66.64,26.95L66.99,25.22L67.04,24.62L67.14,23.67L67.34,26.86L67.54,26.86L67.59,27.38L67.64,25.87L68.28,29.14L68.33,29.44L69.03,32.12L69.23,31.38L69.28,30.78L69.92,33.75L70.02,32.59L70.07,31.56L70.27,32.2L70.37,30.74L70.42,30.95L70.47,30L71.36,32.76L71.41,32.12L71.46,32.2L71.76,32.16L72.3,33.41L72.35,32.72L72.55,34.05L72.7,30.91L72.95,32.42L73,31.73L73.15,32.07L73.3,31.21L73.35,31.47L73.4,30.22L73.5,29.49L73.99,32.03L74.19,30.65L74.24,29.92L74.74,31.9L74.79,32.81L74.99,33.32L75.33,28.28L75.93,29.14L75.98,29.19L76.53,32.89L76.87,31L76.92,31.25L77.02,29.62L77.47,31.77L77.57,31.08L77.62,31.56L78.07,30.82L78.36,32.93L78.41,31.69L78.46,31.77L78.96,33.06L79.16,31.34L79.21,30.22L79.6,31.69L80.1,28.54L80.15,29.36L80.35,30.48L80.6,29.57L80.65,28.54L80.8,29.96L81.29,27.08L81.34,27.25L81.39,26.52L81.74,28.58L81.94,27.94L81.99,29.23L82.88,33.75L82.98,33.58L83.03,33.67L83.48,34.57L83.63,32.89L83.68,32.93L83.88,34.36L84.02,33.97L84.07,32.93L84.22,32.03L85.22,36.51L85.37,35.35L85.42,34.92L85.51,34.1L86.26,37.33L86.31,36.9L86.36,35.91L87.15,32.46L87.3,32.72L87.35,33.11L87.65,32.42L88.2,34.23L88.25,34.4L88.59,33.15L88.79,35.78L88.94,35.17L88.99,35.3L90.18,39.87L90.23,40.17L90.28,40.34L90.38,38.79L90.43,39.14L90.48,37.42L90.93,39.27L91.03,38.45L91.08,37.5L91.87,40.86L91.97,40.3L92.02,39.66L92.27,40.39L92.37,39.1L92.42,38.79L93.31,37.03L93.36,37.37L93.91,39.57L94.06,37.8L94.11,36.86L94.8,40.73L95.05,39.7L95.1,38.62L95.15,38.19L95.6,40.43L95.65,40.99L96.09,39.4L96.44,39.87L96.49,40.43L97.13,42.15L97.33,41.81L97.38,41.38L97.78,40.13L98.03,41.85L98.08,41.94L98.48,40L98.82,40.95L98.87,42.28L98.92,41.21L99.12,42.63L99.62,41.94L99.67,42.07L100.36,43.45L100.51,42.24L100.56,42.33L100.91,43.02L101.06,41.85L101.21,42.76L101.26,43.32L101.51,44.65L101.9,42.8L101.95,42.84L102,42.84L102.5,45.04L102.65,43.96L102.7,43.49L103.04,42.28L103.64,44.48L103.69,43.83L104.93,47.15L104.98,45.77L105.48,47.67L105.63,45.39L105.83,46.81L105.88,45.39L105.97,44.61L106.47,46.81L106.52,46.46L106.87,46.55L107.32,44.7L107.36,44.74L108.36,46.42L108.46,46.2L108.51,44.91L108.95,46.81L109.35,46.38L109.4,46.46L109.9,49.13L110.2,47.5L110.25,47.28L110.69,49.52L110.89,47.02L110.94,47.24L110.99,46.29L111.29,47.02L111.44,44.74L111.49,44.91L112.03,43.62L112.23,44.52L112.28,44.35L113.52,50.25L114.02,49.61L114.07,48.75L114.62,47.93L115.36,52.62L115.41,52.41L115.46,51.81L116.11,50.47L116.2,51.07L116.25,51.29L116.6,51.85L116.7,50.9L116.75,50.21L117.89,51.93L117.94,51.59L118.29,53.14L118.59,51.59L118.64,50.94L118.79,51.37L118.99,50.38L119.18,50.77L119.23,49.74L119.33,49.22L119.68,51.03L119.73,51.29L120.33,53.4L120.67,52.84L120.72,52.88L120.92,52.58L121.22,53.4L121.32,52.71L121.37,50.94L121.42,51.55L121.96,49.18L122.01,49.56L122.96,53.01L123.01,52.88L123.06,51.5L123.36,51.03L124.1,54.39L124.4,53.18L124.45,53.01L124.5,53.31L124.75,51.55L124.94,52.49L124.99,51.33L125.19,52.54L125.64,50.81L125.74,51.37L125.79,51.37L127.18,54.69L127.23,54.73L127.53,52.45L127.92,54.69L127.97,55.08L128.22,54.99L128.92,56.03L128.97,55.25L129.07,54.48L129.56,55.9L129.61,56.16L130.51,58.83L130.61,58.01L130.66,57.36L130.85,55.98L131.25,57.49L131.4,57.41L131.45,57.45L131.95,59.65L132.29,58.44L132.34,58.57L133.14,61.76L133.19,62.1L133.34,60.98L133.78,62.75L133.98,62.62L134.03,61.33L135.22,66.97L135.57,65.94L135.62,64.64L136.12,64.3L137.26,68.31L137.31,67.7L138.25,69.81L138.3,69.08L138.55,66.75L139.05,68.44L139.1,68.52L139.4,68.82L139.54,67.14L139.89,67.75L139.94,67.96L139.99,68.26L140.49,66.93L140.54,67.01L140.59,67.1L141.63,70.24L141.78,70.12L141.83,69.38L142.42,71.36L142.67,70.16L142.72,69.68L143.17,67.88L143.52,68.13L143.57,68.18L144.01,67.57L144.51,69.08L144.56,68.18L144.86,67.7L145.75,70.03L145.8,69.38L145.85,68.44L146.55,69.99L146.65,68.65L146.7,68.69L147.69,71.06L147.89,70.5L147.94,69.68L148.14,69.47L149.53,73.56L149.58,73.35L149.72,74.34L149.87,72.96L150.22,73.73L150.27,72.74L150.57,71.45L151.12,71.88L151.16,72.44L151.31,73.22L151.51,71.28L151.91,72.44L151.96,72.57L152.41,72.87L152.56,71.71L152.7,72.05L152.75,72.31L154.09,73.43L154.14,72.92L154.34,72.23L154.74,73.04L154.79,72.18L154.99,71.24L155.58,72.7L155.63,71.71L155.68,71.49L156.13,72.79L156.18,72.92L157.12,74.51L157.17,74.08L157.22,73.86L157.62,73.52L158.81,75.63L158.91,75.37L158.96,74.64L160.35,78.17L160.45,77.05L160.5,76.75L160.9,76.32L161.54,78.34L161.59,77.96L162.04,77.87L162.14,78.56L162.19,78.6L162.93,75.89L163.03,76.02L163.08,76.06L163.78,73.52L163.93,74.12L163.98,74.29L164.08,73.99L164.47,74.77L164.52,75.07L164.67,74.94L166.81,78.78L166.86,78.52L167.45,80.93L167.5,81.19L168.89,83.95L168.94,82.95L170.38,85.28L170.43,85.41L171.03,86.96L171.33,86.75L171.38,85.88L171.62,85.45L171.97,86.31L172.02,86.4L172.17,86.01L172.62,86.92L172.67,86.92L173.41,84.98L173.46,85.07L173.51,85.19L173.76,84.85L174.55,86.87L174.6,86.4L176.94,89.93L176.99,88.47L177.09,87.74L177.68,88.86L177.73,88.9L177.78,88.47L178.33,89.63L178.38,89.93L178.73,89.63L178.97,90.71L179.02,91.31L179.17,90.75L179.62,92.22L179.67,92.3L179.97,92.69L180.02,92L180.07,92.22L180.12,91.48L182,95.36L182.05,94.63L182.1,94.28L182.65,95.41L182.7,95.15L182.75,95.19L183.54,96.96L183.69,96.91L183.74,96.44L185.13,98.55L185.18,98.64L185.58,98.98L185.63,98.29L185.73,98.64L185.78,98.08L186.03,98.33L186.08,97.34L186.32,97.56L186.37,97.26L188.21,99.89L188.26,99.76L188.76,100.7L189.01,100.23L189.06,99.28L190.1,101.18L190.15,101.18L191.14,103.33L191.49,102.9L191.54,102.26L191.69,102.38L191.74,102L191.79,101.35L193.72,103.89L193.82,103.12L193.87,102.86L194.92,101.82L195.11,102.13L195.16,102.3L199.53,107.43L199.58,106.78L199.63,106.22L200.23,107.34L200.28,107.55L202.96,111.04L203.01,110.4L203.41,109.79L204.3,111.3L204.35,110.87L204.8,111.17L204.95,109.41L205.2,109.79L205.24,110.01L206.34,112.38L206.39,111.82L206.44,111.86L206.78,111.3L207.08,111.82L207.13,111.86L208.57,113.76L208.67,113.03L208.72,113.07L210.26,114.92L210.31,114.36L210.46,114.58L210.76,113.76L210.91,113.93L210.96,113.97L211.25,113.59L211.65,114.28L211.7,114.32L211.9,114.06L212.69,115.09L212.74,115.09L214.23,116.26L214.28,115.83L215.52,117.64L215.57,117.72L216.12,118.37L216.17,117.59L216.22,116.9L221.04,124.1L221.09,124.1L221.33,123.02L221.83,123.97L221.88,124.06L223.57,125.35L223.62,125.69L224.71,125.18L224.76,124.83L228.58,130.43L228.68,130.35L228.73,130.35L228.78,129.66L229.43,130.65L229.48,130.65L230.42,131.9L230.47,131.98L232.06,133.71L232.11,133.75L232.91,134.57L232.95,133.84L234.59,134.65L234.64,133.92L235.93,135.73L235.98,135.73L237.52,137.67L237.57,137.76L239.31,138.66L239.36,138.83L245.97,145.68L246.02,145.68L249.04,149.22L249.09,149.22L249.79,149.91L249.84,150.08L250.98,151.2L251.03,151.2L252.42,151.84L252.47,152.02L253.12,152.62L253.17,152.92L254.56,153.91L254.61,153.91L256.79,155.55L256.84,155.55L257.78,156.15L257.83,156.32L261.46,159.08L261.51,159.25L263.1,160.16L263.15,160.16L264.59,161.28L264.64,161.32L265.53,161.93L265.58,162.1L271.59,166.02L271.64,166.15L273.23,166.88L273.28,166.97L277.1,169.29L277.15,169.29L278.59,170.28L278.64,170.28L286.24,174.12L286.29,174.12L287.98,174.63L288.03,174.63L288.92,175.07L288.97,175.07L292.4,176.66L292.45,176.75L293.89,177.87L293.94,178.08L296.42,178.81L296.47,178.86L300.05,179.59L300.1,179.63L301.34,180.41L301.39,180.41L303.42,181.14L303.47,181.23L304.71,182.22L304.76,182.3L307.15,182.91L307.2,183.12L310.42,184.2L310.47,184.2L313.01,184.85L313.06,185.02L314.6,186.18L314.65,186.31L316.53,187L316.58,187.17L319.31,187.95L319.36,187.95L322.04,188.81L322.09,188.81L327.06,190.96L327.11,190.96L331.83,191.78L331.88,191.78L333.52,192.34L333.57,192.34L336.55,193.07L336.6,193.2L337.89,193.42L337.94,193.42L340.52,194.11L340.57,194.24L342.55,194.88L342.6,195.06L344.49,195.79L344.54,195.83L348.22,196.56L348.27,196.69L350.3,197.43L350.35,197.47L354.27,198.85L354.32,199.02L358.99,199.71L359.04,199.88L376.52,204.23L376.57,204.23L379.1,204.88L379.15,205.05L385.11,205.87L385.16,205.87L391.77,206.86L391.82,206.86L396.29,207.55L396.34,207.68L399.91,208.37L399.96,208.46L404.88,209.19L404.93,209.23L411.93,209.88L411.98,210.01L417.39,210.7L417.44,210.78L425.19,212.16L425.24,212.16L427.18,212.46L427.22,212.46L430.5,213.07L430.55,213.28L436.91,214.01L436.96,214.1L442.27,214.83L442.32,214.92L447.78,215.61L447.83,215.61L448.38,215.65" style="vector-effect: non-scaling-stroke; fill: none; stroke: rgb(99, 110, 250); stroke-opacity: 1; stroke-width: 2px; opacity: 1;"/></g><g class="points"/><g class="text"/></g></g></g><g class="overplot"><g class="xy2" transform="translate(78,20)" clip-path="url(#clip87c92cxy2plot)"><g class="scatterlayer mlayer"><g class="trace scatter trace174c1d" style="stroke-miterlimit: 2; opacity: 1;"><g class="fills"/><g class="errorbars"/><g class="lines"><path class="js-line" d="M0,11.35L10.43,50.07L10.48,50.24L21.55,83.32L21.6,83.45L30.14,104.35L30.19,104.47L40.42,125.18L40.47,125.27L50.6,141.96L50.65,142.03L59.89,154.54L59.94,154.6L71.31,167.11L71.36,167.15L80.9,175.63L80.95,175.67L89.44,181.96L89.49,182L102.35,189.69L102.4,189.71L114.66,195.4L114.71,195.42L130.51,200.94L130.56,200.95L142.08,204L142.13,204.01L155.09,206.69L155.14,206.7L171.62,209.24L171.67,209.24L196.01,211.74L196.06,211.74L242.14,214.12L242.19,214.12L260.62,214.6L260.67,214.6L282.12,214.98L282.17,214.98L448.38,215.65" style="vector-effect: non-scaling-stroke; fill: none; stroke: rgb(239, 85, 59); stroke-opacity: 1; stroke-width: 2px; opacity: 1;"/></g><g class="points"/><g class="text"/></g></g></g></g><path class="xlines-above crisp" d="M0,0" style="fill: none;"/><path class="ylines-above crisp" d="M0,0" style="fill: none;"/><g class="overlines-above"><path class="xy2-x crisp" d="M0,0" style="fill: none;"/><path class="xy2-y crisp" d="M0,0" style="fill: none;"/></g><g class="xaxislayer-above"><g class="xtick"><text text-anchor="middle" x="0" y="260" transform="translate(78,0)" style="font-family: 'Open Sans', verdana, arial, sans-serif; font-size: 12px; fill: rgb(42, 63, 95); fill-opacity: 1; white-space: pre; opacity: 1;">0</text></g><g class="xtick"><text text-anchor="middle" x="0" y="260" style="font-family: 'Open Sans', verdana, arial, sans-serif; font-size: 12px; fill: rgb(42, 63, 95); fill-opacity: 1; white-space: pre; opacity: 1;" transform="translate(177.32,0)">2000</text></g><g class="xtick"><text text-anchor="middle" x="0" y="260" style="font-family: 'Open Sans', verdana, arial, sans-serif; font-size: 12px; fill: rgb(42, 63, 95); fill-opacity: 1; white-space: pre; opacity: 1;" transform="translate(276.64,0)">4000</text></g><g class="xtick"><text text-anchor="middle" x="0" y="260" style="font-family: 'Open Sans', verdana, arial, sans-serif; font-size: 12px; fill: rgb(42, 63, 95); fill-opacity: 1; white-space: pre; opacity: 1;" transform="translate(375.96,0)">6000</text></g><g class="xtick"><text text-anchor="middle" x="0" y="260" style="font-family: 'Open Sans', verdana, arial, sans-serif; font-size: 12px; fill: rgb(42, 63, 95); fill-opacity: 1; white-space: pre; opacity: 1;" transform="translate(475.28,0)">8000</text></g></g><g class="yaxislayer-above"><g class="ytick"><text text-anchor="end" x="77" y="4.199999999999999" transform="translate(0,209.33)" style="font-family: 'Open Sans', verdana, arial, sans-serif; font-size: 12px; fill: rgb(42, 63, 95); fill-opacity: 1; white-space: pre; opacity: 1;">−8000</text></g><g class="ytick"><text text-anchor="end" x="77" y="4.199999999999999" style="font-family: 'Open Sans', verdana, arial, sans-serif; font-size: 12px; fill: rgb(42, 63, 95); fill-opacity: 1; white-space: pre; opacity: 1;" transform="translate(0,166.24)">−6000</text></g><g class="ytick"><text text-anchor="end" x="77" y="4.199999999999999" style="font-family: 'Open Sans', verdana, arial, sans-serif; font-size: 12px; fill: rgb(42, 63, 95); fill-opacity: 1; white-space: pre; opacity: 1;" transform="translate(0,123.16)">−4000</text></g><g class="ytick"><text text-anchor="end" x="77" y="4.199999999999999" style="font-family: 'Open Sans', verdana, arial, sans-serif; font-size: 12px; fill: rgb(42, 63, 95); fill-opacity: 1; white-space: pre; opacity: 1;" transform="translate(0,80.08)">−2000</text></g><g class="ytick"><text text-anchor="end" x="77" y="4.199999999999999" style="font-family: 'Open Sans', verdana, arial, sans-serif; font-size: 12px; fill: rgb(42, 63, 95); fill-opacity: 1; white-space: pre; opacity: 1;" transform="translate(0,36.989999999999995)">0</text></g></g><g class="overaxes-above"><g class="xy2-x"/><g class="xy2-y"><g class="y2tick"><text text-anchor="start" x="527.38" y="4.199999999999999" transform="translate(0,235.67)" style="font-family: 'Open Sans', verdana, arial, sans-serif; font-size: 12px; fill: rgb(42, 63, 95); fill-opacity: 1; white-space: pre; opacity: 1;">0</text></g><g class="y2tick"><text text-anchor="start" x="527.38" y="4.199999999999999" style="font-family: 'Open Sans', verdana, arial, sans-serif; font-size: 12px; fill: rgb(42, 63, 95); fill-opacity: 1; white-space: pre; opacity: 1;" transform="translate(0,184.59)">500</text></g><g class="y2tick"><text text-anchor="start" x="527.38" y="4.199999999999999" style="font-family: 'Open Sans', verdana, arial, sans-serif; font-size: 12px; fill: rgb(42, 63, 95); fill-opacity: 1; white-space: pre; opacity: 1;" transform="translate(0,133.51)">1000</text></g><g class="y2tick"><text text-anchor="start" x="527.38" y="4.199999999999999" style="font-family: 'Open Sans', verdana, arial, sans-serif; font-size: 12px; fill: rgb(42, 63, 95); fill-opacity: 1; white-space: pre; opacity: 1;" transform="translate(0,82.43)">1500</text></g><g class="y2tick"><text text-anchor="start" x="527.38" y="4.199999999999999" style="font-family: 'Open Sans', verdana, arial, sans-serif; font-size: 12px; fill: rgb(42, 63, 95); fill-opacity: 1; white-space: pre; opacity: 1;" transform="translate(0,31.35)">2000</text></g></g></g></g><g class="subplot xy2"/></g><g class="polarlayer"/><g class="smithlayer"/><g class="ternarylayer"/><g class="geolayer"/><g class="funnelarealayer"/><g class="pielayer"/><g class="iciclelayer"/><g class="treemaplayer"/><g class="sunburstlayer"/><g class="glimages"/><defs id="topdefs-87c92c"><g class="clips"/><clipPath id="legend87c92c"><rect width="123" height="48" x="0" y="0"/></clipPath></defs><g class="layer-above"><g class="imagelayer"/><g class="shapelayer"/></g><g class="infolayer"><g class="legend" pointer-events="all" transform="translate(564.54,20)"><rect class="bg" shape-rendering="crispEdges" width="123" height="48" x="0" y="0" style="stroke: rgb(68, 68, 68); stroke-opacity: 1; fill: rgb(255, 255, 255); fill-opacity: 1; stroke-width: 0px;"/><g class="scrollbox" transform="" clip-path="url(#legend87c92c)"><g class="groups"><g class="traces" transform="translate(0,14.5)" style="opacity: 1;"><text class="legendtext" text-anchor="start" x="40" y="4.680000000000001" style="font-family: 'Open Sans', verdana, arial, sans-serif; font-size: 12px; fill: rgb(42, 63, 95); fill-opacity: 1; white-space: pre;">Cost</text><g class="layers" style="opacity: 1;"><g class="legendfill"/><g class="legendlines"><path class="js-line" d="M5,0h30" style="fill: none; stroke: rgb(99, 110, 250); stroke-opacity: 1; stroke-width: 2px;"/></g><g class="legendsymbols"><g class="legendpoints"/></g></g><rect class="legendtoggle" x="0" y="-9.5" width="117.265625" height="19" style="fill: rgb(0, 0, 0); fill-opacity: 0;"/></g><g class="traces" transform="translate(0,33.5)" style="opacity: 1;"><text class="legendtext" text-anchor="start" x="40" y="4.680000000000001" style="font-family: 'Open Sans', verdana, arial, sans-serif; font-size: 12px; fill: rgb(42, 63, 95); fill-opacity: 1; white-space: pre;">Temperature</text><g class="layers" style="opacity: 1;"><g class="legendfill"/><g class="legendlines"><path class="js-line" d="M5,0h30" style="fill: none; stroke: rgb(239, 85, 59); stroke-opacity: 1; stroke-width: 2px;"/></g><g class="legendsymbols"><g class="legendpoints"/></g></g><rect class="legendtoggle" x="0" y="-9.5" width="117.265625" height="19" style="fill: rgb(0, 0, 0); fill-opacity: 0;"/></g></g></g><rect class="scrollbar" rx="20" ry="3" width="0" height="0" x="0" y="0" style="fill: rgb(128, 139, 164); fill-opacity: 1;"/></g><g class="g-gtitle"/><g class="g-xtitle"><text class="xtitle" x="302.19" y="287.8" text-anchor="middle" style="font-family: 'Open Sans', verdana, arial, sans-serif; font-size: 14px; fill: rgb(42, 63, 95); opacity: 1; font-weight: normal; white-space: pre;">Iterations</text></g><g class="g-ytitle" transform="translate(2.1435546875,0)"><text class="ytitle" transform="rotate(-90,11.856250000000003,133.5)" x="11.856250000000003" y="133.5" text-anchor="middle" style="font-family: 'Open Sans', verdana, arial, sans-serif; font-size: 14px; fill: rgb(42, 63, 95); opacity: 1; font-weight: normal; white-space: pre;">Cost</text></g><g class="g-y2title"><text class="y2title" transform="rotate(-90,583.08125,133.5)" x="583.08125" y="133.5" text-anchor="middle" style="font-family: 'Open Sans', verdana, arial, sans-serif; font-size: 14px; fill: rgb(42, 63, 95); opacity: 1; font-weight: normal; white-space: pre;">Temperature</text></g></g></svg>