<svg class="main-svg" xmlns="http://www.w3.org/2000/svg" xmlns:xlink="http://www.w3.org/1999/xlink" width="700" height="300" style="" viewBox="0 0 700 300"><rect x="0" y="0" width="700" height="300" style="fill: rgb(255, 255, 255); fill-opacity: 1;"/><defs id="defs-053b38"><g class="clips"><clipPath id="clip053b38xyplot" class="plotclip"><rect width="455.9" height="227"/></clipPath><clipPath id="clip053b38xy2plot" class="plotclip"><rect width="455.9" height="227"/></clipPath><clipPath class="axesclip" id="clip053b38x"><rect x="70" y="0" width="455.9" height="300"/></clipPath><clipPath class="axesclip" id="clip053b38y"><rect x="0" y="20" width="700" height="227"/></clipPath><clipPath class="axesclip" id="clip053b38xy"><rect x="70" y="20" width="455.9" height="227"/></clipPath><clipPath class="axesclip" id="clip053b38y2"><rect x="0" y="20" width="700" height="227"/></clipPath><clipPath class="axesclip" id="clip053b38xy2"><rect x="70" y="20" width="455.9" height="227"/></clipPath></g><g class="gradients"/><g class="patterns"/></defs><g class="bglayer"><rect class="bg" x="70" y="20" width="455.9" height="227" style="fill: rgb(229, 236, 246); fill-opacity: 1; stroke-width: 0;"/></g><g class="layer-below"><g class="imagelayer"/><g class="shapelayer"/></g><g class="cartesianlayer"><g class="subplot xy"><g class="layer-subplot"><g class="shapelayer"/><g class="imagelayer"/></g><g class="gridlayer"><g class="x"><path class="xgrid crisp" transform="translate(180.4,0)" d="M0,20v227" style="stroke: rgb(255, 255, 255); stroke-opacity: 1; stroke-width: 1px;"/><path class="xgrid crisp" transform="translate(290.8,0)" d="M0,20v227" style="stroke: rgb(255, 255, 255); stroke-opacity: 1; stroke-width: 1px;"/><path class="xgrid crisp" transform="translate(401.2,0)" d="M0,20v227" style="stroke: rgb(255, 255, 255); stroke-opacity: 1; stroke-width: 1px;"/><path class="xgrid crisp" transform="translate(511.6,0)" d="M0,20v227" style="stroke: rgb(255, 255, 255); stroke-opacity: 1; stroke-width: 1px;"/></g><g class="y"><path class="ygrid crisp" transform="translate(0,207.28)" d="M70,0h455.9" style="stroke: rgb(255, 255, 255); stroke-opacity: 1; stroke-width: 1px;"/><path class="ygrid crisp" transform="translate(0,164.88)" d="M70,0h455.9" style="stroke: rgb(255, 255, 255); stroke-opacity: 1; stroke-width: 1px;"/><path class="ygrid crisp" transform="translate(0,122.47)" d="M70,0h455.9" style="stroke: rgb(255, 255, 255); stroke-opacity: 1; stroke-width: 1px;"/><path class="ygrid crisp" transform="translate(0,80.07)" d="M70,0h455.9" style="stroke: rgb(255, 255, 255); stroke-opacity: 1; stroke-width: 1px;"/></g><g class="y2"><path class="y2grid crisp" transform="translate(0,184.61)" d="M70,0h455.9" style="stroke: rgb(255, 255, 255); stroke-opacity: 1; stroke-width: 1px;"/><path class="y2grid crisp" transform="translate(0,133.53)" d="M70,0h455.9" style="stroke: rgb(255, 255, 255); stroke-opacity: 1; stroke-width: 1px;"/><path class="y2grid crisp" transform="translate(0,82.44)" d="M70,0h455.9" style="stroke: rgb(255, 255, 255); stroke-opacity: 1; stroke-width: 1px;"/><path class="y2grid crisp" transform="translate(0,31.35)" d="M70,0h455.9" style="stroke: rgb(255, 255, 255); stroke-opacity: 1; stroke-width: 1px;"/></g></g><g class="zerolinelayer"><path class="xzl zl crisp" transform="translate(70,0)" d="M0,20v227" style="stroke: rgb(255, 255, 255); stroke-opacity: 1; stroke-width: 2px;"/><path class="yzl zl crisp" transform="translate(0,37.66)" d="M70,0h455.9" style="stroke: rgb(255, 255, 255); stroke-opacity: 1; stroke-width: 2px;"/><path class="y2zl zl crisp" transform="translate(0,235.7)" d="M70,0h455.9" style="stroke: rgb(255, 255, 255); stroke-opacity: 1; stroke-width: 2px;"/></g><path class="xlines-below"/><path class="ylines-below"/><g class="overlines-below"><path class="xy2-x"/><path class="xy2-y"/></g><g class="xaxislayer-below"/><g class="yaxislayer-below"/><g class="overaxes-below"><g class="xy2-x"/><g class="xy2-y"/></g><g class="plot" transform="translate(70,20)" clip-path="url(#clip053b38xyplot)"><g class="scatterlayer mlayer"><g class="trace scatter trace4983b9" style="stroke-miterlimit: 2; opacity: 1;"><g class="fills"/><g class="errorbars"/><g class="lines"><path class="js-line" d="M0,18.75L0.11,17.96L0.22,21.04L0.55,19.6L0.61,16.84L0.66,16.2L0.88,20.43L1.1,19.94L1.16,21.24L1.49,13.44L1.99,13.87L2.04,14.29L2.65,20.21L2.87,19.45L2.93,16.87L3.15,19.94L3.37,15.02L3.7,16.41L3.75,16.98L3.81,16.68L3.86,17.7L3.92,17.41L3.97,20.32L4.36,14.29L4.42,18.99L4.75,17.66L4.91,20.93L5.02,19.98L5.08,20.88L5.63,13.2L5.85,16.62L5.91,18.64L6.4,19.41L6.51,16.58L6.57,19.09L6.62,19.69L6.68,21.24L7.07,15.52L7.18,16.17L7.23,14.17L7.34,13.86L8.11,20.88L8.22,19.16L8.28,18.75L8.39,20.93L8.56,18.19L8.61,14.21L8.67,12.9L9.05,19.25L9.16,17.26L9.22,19.75L9.44,23.11L9.83,16.73L9.88,17.74L9.94,17.47L10.27,14.69L10.49,17.85L10.54,16.33L10.6,19.29L10.98,15.47L11.21,17.83L11.26,20.3L11.32,20.68L11.43,17.88L11.48,19.15L11.54,16.99L11.65,14.65L12.2,19.08L12.25,19.32L12.36,20.14L12.53,14.75L12.64,19.64L12.7,22.38L13.25,13.6L13.41,19.41L13.47,21.71L13.86,12.4L14.24,15.09L14.3,16.22L14.52,15.28L14.79,19.13L14.85,17.2L14.9,18.71L15.01,20.15L15.18,16.26L15.35,18.08L15.4,16.93L15.79,19.25L16.23,11.55L16.28,12.66L16.34,14.73L16.45,13.39L16.73,16.31L17,14.46L17.06,16.41L17.11,15.97L17.28,20.59L17.33,20.25L17.39,21.57L18.27,16.67L18.33,17.05L18.55,16.26L18.71,21.2L18.93,17.27L18.99,16.12L19.15,20.96L19.43,14.26L19.49,16.91L19.54,18.69L19.6,18.89L19.65,15.57L20.26,20.48L20.37,17.02L20.42,15.45L20.7,19.92L20.98,18.02L21.03,17.47L21.09,15.21L21.53,21.72L21.75,16.73L21.8,16.9L21.91,20.15L22.02,15.92L22.14,20.07L22.19,20.63L22.52,13.19L22.96,17.51L23.02,18.56L23.07,22.59L23.57,16.15L23.74,20.08L23.79,18.58L24.18,15.85L24.45,18.92L24.73,16.24L24.78,17.3L25.01,20.37L25.23,14.92L25.45,15.81L25.5,14.69L25.61,15.34L25.67,18.18L25.89,13.28L26.44,15.18L26.5,16.18L26.66,14.86L27.05,20.38L27.21,19.44L27.27,14.47L27.38,14.17L27.99,20.65L28.15,17.37L28.21,17.71L28.26,17.89L28.32,15.2L29.04,20.06L29.09,19.74L29.15,17.91L29.7,22.15L30.03,21.3L30.08,20.73L30.91,13.67L30.97,13.91L31.13,12.85L31.24,16.29L31.46,15.36L31.52,16.31L31.69,21.07L32.02,15.6L32.29,17.75L32.35,16.22L32.84,16.15L33.07,21.45L33.12,19.92L33.18,18.75L33.29,22.1L33.45,15.63L33.89,18.73L33.95,19.54L34.06,20.54L34.94,12.08L35,14.53L35.05,16.29L35.22,16.04L35.27,18.14L35.33,17.79L35.38,18.38L35.49,18.45L35.66,16.49L35.77,17.66L35.83,18.75L35.99,19.61L36.54,11.35L36.65,16.51L36.71,18.19L36.93,20.71L37.48,13.97L37.54,16.22L37.59,18.69L37.7,19.43L37.76,17.35L37.81,18.54L37.87,16.96L37.98,16.91L38.2,22.64L38.59,18.4L38.64,16.81L38.86,20.58L39.08,17.56L39.14,15.45L39.19,13.88L39.41,20.24L39.74,18.69L39.8,18.78L40.08,19.33L40.19,16.58L40.24,16.05L40.35,15.33L40.57,19.74L40.85,17.1L40.9,14.9L41.51,18.13L41.57,15.45L42.17,21.51L42.39,19.04L42.45,16.12L43.33,21.09L43.39,19.91L43.44,17.52L43.61,20.9L43.94,16.45L44.22,19.41L44.27,18.78L44.49,15.51L44.93,20.85L44.99,19.92L45.04,20.2L45.15,20.94L45.26,19.05L45.32,19.08L45.37,15.79L45.87,18.87L46.15,17.18L46.2,15.98L46.59,15.62L47.03,24.33L47.31,23.63L47.36,21.9L47.47,22.7L47.75,19.87L47.8,20.21L47.86,16.91L48.08,19.52L48.19,15.79L48.52,19.27L48.58,16.01L48.8,21.26L49.35,18.77L49.4,18.36L49.46,18.69L49.63,15.44L49.74,17.81L49.79,16.21L49.85,14.23L50.29,22.38L50.34,22.08L50.4,22.54L50.45,22.96L50.78,19.75L51.01,22.27L51.06,19.11L51.78,18.74L51.94,22.52L52,22.19L52.11,22.27L52.72,17.69L52.83,21.17L52.88,21.31L52.94,22L53.16,18.33L53.49,20.26L53.54,19.56L53.88,17.17L54.15,22.09L54.26,19.75L54.32,19.94L54.37,20.26L54.48,16.64L54.59,17.99L54.65,15.51L55.03,21.71L55.53,21.19L55.59,20.81L55.81,19.71L56.36,24.5L56.41,22.48L56.47,22.06L56.58,22.65L56.75,18.52L56.8,18.74L56.86,18.59L57.19,18.19L57.91,25.69L57.96,22.49L58.18,20.55L58.57,23.38L58.62,22.63L58.68,23.79L58.73,24.79L59.17,20.15L59.29,23.05L59.34,21.7L59.67,22.44L59.78,21.35L59.84,20.48L59.89,21.47L60.28,16.08L60.39,16.76L60.44,17.46L60.89,22.38L61.22,19.45L61.27,17.76L61.38,15.97L62.16,21.95L62.21,21.19L62.27,19.48L62.87,24.86L63.04,22.88L63.09,20.72L63.26,23.5L63.59,20.38L63.87,21.65L63.92,21.68L64.31,19.49L64.69,23.99L64.75,22.82L64.81,22.39L65.03,25.41L65.08,26.14L65.52,19.06L65.91,20.5L65.96,20.88L66.07,19.86L66.35,22.06L66.63,21.65L66.68,21.64L67.01,21.19L67.29,24.91L67.4,23.37L67.45,21.63L67.62,23.09L68.34,18.06L68.39,19.98L68.45,21.52L68.95,18.41L69.22,19.66L69.28,21.94L69.61,17.94L70.05,21.26L70.1,21.2L70.55,19.28L70.88,24.81L70.99,24.49L71.04,22.17L71.1,22.34L71.15,20.88L71.21,20L71.71,25.36L72.04,23.08L72.09,22.38L72.15,22.63L72.2,21.04L72.26,19.72L73.09,23.34L73.2,22.76L73.25,21.06L73.53,22.29L73.8,20.26L73.86,20.91L73.91,20.12L73.97,19.54L74.3,22.93L74.35,22.77L74.41,23.07L75.18,18.64L75.24,19.26L75.29,20.16L75.4,18.47L75.96,20.48L76.01,19.98L76.07,20.48L76.67,22.55L76.89,21.58L76.95,21.5L77.5,21.18L77.61,23.87L77.72,23.1L77.78,20.83L77.89,21.02L77.94,22.83L78.49,26.4L78.61,22.68L78.66,22.75L78.72,22.77L78.94,23.42L79.49,20.34L79.54,21.48L79.6,22.54L79.93,25.67L80.21,24.78L80.26,22.43L80.54,20.08L80.87,23.02L81.09,20.67L81.14,21.65L81.31,22.23L81.42,19.91L81.81,21.57L81.86,23.41L82.03,25.05L82.19,22.26L82.52,24.31L82.58,21.78L82.63,21.31L82.97,25.14L83.02,23.63L83.08,24.5L83.35,26.45L83.79,24.18L83.85,24.27L83.96,21.11L84.46,25.78L84.51,25.2L84.57,25.32L84.62,25.54L84.73,23.61L84.79,23.67L84.84,23.03L85.28,24.95L85.89,16.38L85.95,17.69L86,18.29L86.22,21.29L86.61,16.9L86.83,20.29L86.89,20.52L87,22.22L87.33,19.46L87.55,20.64L87.6,19.46L87.71,18.56L88.54,22.91L88.6,22.18L88.82,20.75L89.15,22.46L89.37,21.2L89.42,21.98L89.65,24.74L89.81,20.74L90.09,23.45L90.14,21.26L90.2,19.22L90.69,25.09L90.8,23.77L90.86,24.14L91.03,26.23L91.41,22.83L91.47,22.91L91.52,23.03L91.96,20.48L92.3,21.95L92.35,22.4L93.07,28.35L93.4,27.74L93.45,26.64L93.95,22.04L94.28,24.6L94.34,24.86L94.72,23.16L95.39,28.3L95.44,26.68L95.66,29.54L96.05,28.52L96.1,27.84L96.16,26.23L96.71,29.36L96.82,28.28L96.88,28.63L96.93,29.49L97.26,25.53L97.37,26.68L97.43,25.03L97.76,26.54L97.98,24.52L98.31,26.34L98.37,25.55L98.64,24.73L98.7,26.82L99.03,26.38L99.08,27.01L99.36,24.9L99.64,27.59L99.8,26.15L99.86,26.82L100.19,27.86L100.41,25.62L100.58,26.49L100.63,25.24L100.91,24.79L101.29,27.61L101.51,27.18L101.57,26.64L101.9,31.51L102.45,30.36L102.51,29.8L102.62,31.93L102.95,27.3L103,27.36L103.11,27.49L103.17,25.32L103.39,27.15L103.45,25.4L103.5,24.09L103.67,25.5L104,23.45L104.27,24.88L104.33,23.13L105.21,28.83L105.27,28.19L105.32,26.6L105.76,25.04L105.93,27.45L105.98,27.79L106.32,26.68L106.59,28.3L106.65,26.21L106.7,25.72L107.2,27.85L107.36,26.5L107.42,26.85L107.86,28.88L108.25,27.82L108.3,27.86L108.36,25.99L108.97,27.55L109.02,28.96L109.24,29.31L109.52,27.44L109.68,29.23L109.74,29.54L110.62,25.14L110.73,26.06L110.79,26.63L111.39,28.41L111.5,27.81L111.56,26.36L111.95,28.84L112.11,25.72L112.17,25.87L113.27,29.5L113.33,28.75L113.55,27.72L114.15,32.23L114.21,31.42L114.26,28.71L114.38,26.19L114.82,29.07L115.09,26.53L115.15,27.01L115.26,25.06L115.81,27.74L115.87,27.79L115.98,28.86L116.2,26.49L116.47,26.82L116.53,27.12L117.3,29.58L117.52,28.76L117.58,28.28L118.29,31.87L118.57,29.87L118.63,29.97L118.85,31.34L119.18,28.52L119.23,29.22L119.29,28.97L119.56,28.92L120.45,33.8L120.5,31.87L121,34.99L121.44,34.3L121.5,32.99L122.27,27.75L122.43,29.21L122.49,29.46L122.6,25.68L123.21,27.71L123.26,29.01L123.48,27.9L124.2,31.73L124.31,30.47L124.37,30.56L124.48,30.3L125.64,35.09L125.69,33.38L125.75,33.41L125.86,31.09L126.57,31.26L126.63,31.87L126.74,32.1L126.8,30.44L127.07,30.03L127.57,31.65L127.62,30.51L127.95,31.45L128.34,27.71L128.45,28.66L128.51,28.74L128.78,27.91L129.72,31.21L129.78,30.73L129.83,30.03L129.94,29.62L130.22,31.19L130.27,31.33L131.38,34.67L131.54,33.93L131.6,33.09L131.87,33.41L131.93,31.05L132.26,33.17L132.32,33.49L132.98,36.41L133.2,35.85L133.25,34.5L133.64,31.21L133.97,32.36L134.03,32.37L134.36,34.16L134.8,33.48L134.85,32.93L135.57,34.8L135.63,32.88L135.96,35.01L136.4,34.24L136.46,32.95L138,36.08L138.06,34.84L138.22,36.06L138.55,33.5L138.77,34.39L138.83,34.49L139.49,36.5L139.66,35.28L139.71,35.44L140.15,38.6L140.48,37.95L140.54,36.89L140.6,37.5L140.82,35.21L140.93,35.33L140.98,33.68L141.64,31.38L141.81,31.75L141.86,31.89L142.47,35.79L142.53,34.42L142.58,33.27L142.75,31.91L143.13,33.59L143.19,33.99L143.3,31.91L143.69,34.13L143.91,33.71L143.96,34.23L144.02,33.49L144.51,36.65L144.57,37.01L144.85,36L145.34,38.06L145.4,36.73L145.56,35.79L146.06,37.45L146.23,37.23L146.28,37.31L146.61,36.72L147.05,38.01L147.11,36.38L148.05,39.63L148.21,38.84L148.27,37.96L148.32,37L148.71,39.52L148.93,39.11L148.99,39.41L149.21,40.58L149.48,38.9L149.65,39.22L149.7,38.18L150.2,39.25L150.37,37.3L150.48,37.56L150.53,37.99L150.97,37.83L152.08,42.7L152.13,41.36L152.3,41.79L152.41,40.54L152.57,40.56L152.63,39.88L153.24,37.58L153.4,38.27L153.46,38.33L154.01,40.08L154.12,38.14L154.23,38.69L154.29,37.51L154.51,36.71L154.78,38.35L155,38.23L155.06,36.28L156.71,41.09L156.77,39.91L157.1,41.26L157.43,39.96L157.49,39.26L157.71,40.43L158.15,38.6L158.2,38.73L158.76,41.72L158.81,42.3L159.2,43.33L159.42,41.75L159.47,40.72L159.58,40.69L160.58,44.62L160.63,43.42L160.8,42L161.24,44.04L161.3,44.85L161.63,46.33L161.9,44.91L161.96,44.07L162.34,44.58L162.4,43.01L162.57,43.41L162.62,41.84L162.84,41.36L163.56,42.2L163.61,41.93L163.83,43.36L164.28,42.5L164.33,41.73L164.55,43.05L164.61,44.19L164.99,45.72L165.16,44.71L165.21,43.82L165.44,44.32L165.49,42.59L165.77,42.88L165.82,42.14L166.1,42.71L166.15,41.25L166.48,40.68L168.58,46.14L168.64,45.71L169.08,46.24L169.13,44.91L169.19,44.91L169.24,44.03L169.85,46.44L169.91,46.89L170.13,47.27L170.18,48.06L170.24,47.19L170.79,48.48L170.9,47.75L170.96,47.78L171.01,48.15L171.29,45.57L171.4,45.82L171.45,43.86L171.62,44.26L171.67,43.47L171.73,41.84L171.78,40.97L172.39,42.25L172.45,42.41L172.78,42.01L173.44,43.88L173.49,44.31L173.99,42.43L174.32,43.33L174.38,43.37L175.76,47.39L175.81,46.19L176.09,45.5L176.37,46.44L176.42,46.85L176.92,46.32L177.36,47.83L177.41,47.26L177.91,47.87L177.97,46.74L178.13,44.47L178.63,45.64L178.68,47.04L179.07,48.22L179.13,47.1L179.18,47.14L179.35,45.5L179.84,47.92L179.9,48.06L180.06,48.12L180.12,47.35L180.17,47.45L180.23,46.79L180.56,47.79L180.62,46.23L181.33,48.79L181.39,46L182.11,48.61L182.22,47.7L182.27,46.76L182.49,46.18L182.55,44.81L184.2,50.02L184.26,48.21L184.31,48.26L185.69,50.61L185.75,50.47L185.8,49.69L186.19,50.87L186.41,50.4L186.47,48.73L187.18,44.49L187.41,45.26L187.46,45.27L187.68,45.11L188.34,46.27L188.4,46.4L188.62,45.15L189.01,47.1L189.06,47.36L191.1,54.16L191.16,52.79L191.38,53.14L191.77,51.67L191.99,52L192.04,52.11L192.37,53.2L192.48,50.92L192.65,51.55L192.7,51.58L192.93,52.14L192.98,51.21L193.04,49.85L193.31,47.52L193.86,49.07L193.92,49.45L194.75,51.42L194.91,51.17L194.97,49.96L195.52,52.03L195.63,51.04L195.69,50.24L197.73,55.8L197.89,55.02L197.95,54.06L198.33,54.83L198.39,53.62L198.72,54.39L198.78,53.87L199.22,53.3L199.66,55.23L199.72,55.42L201.26,58.38L201.32,57.03L201.81,58.17L201.98,57.6L202.03,56.42L202.09,54.9L202.75,56.79L202.81,56.93L205.29,62.18L205.35,61.02L206.34,64.04L206.39,64.05L206.67,63.81L207.61,65.26L207.66,65.84L208.11,63.45L208.49,64.11L208.55,64.18L208.93,65.01L209.15,64.83L209.21,63.7L209.6,64.88L209.65,65.35L210.26,66.15L210.31,66.38L210.37,66.67L210.42,65.82L210.98,66.33L211.03,65.04L211.31,63.11L211.86,63.95L211.91,64.14L212.19,64.91L212.36,64.18L212.41,63.85L213.29,65.59L213.35,64.45L213.46,63.18L214.07,64.68L214.12,64.45L214.51,64.91L214.9,61.92L215.06,62.29L215.12,62.36L215.5,61.75L217.38,65.4L217.49,65.14L217.54,65.2L218.54,67.8L218.87,67.55L218.92,66.72L219.97,69.02L220.14,68.39L220.19,67.74L221.91,71.79L221.96,70.51L222.4,71.6L222.73,69.65L222.79,69.93L222.84,70.02L222.95,68.12L223.56,69.63L223.62,69.64L224.28,70.54L224.33,70.91L224.5,70.61L224.89,71.41L224.94,71.6L225.82,73.13L225.88,73.58L226.21,73.95L226.27,74.45L227.15,75.63L227.2,75.76L227.54,74L228.03,74.97L228.09,75.48L228.64,76.34L228.81,75.59L228.86,74.72L230.52,78.27L230.57,77.18L231.73,79.57L231.79,77.85L233.11,80.22L233.17,80.68L233.77,81.79L233.99,81.16L234.05,80.9L234.66,81.76L234.82,81.13L234.88,81.13L235.04,81.13L235.1,80.1L236.04,81.43L236.09,80.95L236.2,81.12L236.26,79.79L236.59,80.17L236.64,79.47L236.81,79.49L236.86,78.84L237.8,81.31L237.86,81.34L238.69,79.1L238.74,79.13L238.8,79.15L238.85,78.35L239.46,79.89L239.51,80.45L240.29,81.38L240.34,81.56L240.84,82.64L240.95,82.43L241,80.33L241.28,79.92L241.83,80.56L241.89,80.57L242.99,83.1L243.05,82.21L243.1,82.21L244.21,83.85L244.26,82.87L244.87,84.33L244.92,84.69L245.7,85.36L245.75,83.57L245.97,83.84L246.03,82.77L247.3,84.26L247.35,83.48L248.18,86.02L248.35,84.66L248.4,84.73L250.5,87.95L250.55,88.22L251.38,89.58L251.44,88.29L251.93,87.99L252.27,88.82L252.32,88.82L252.98,89.95L253.04,90.12L255.3,93.11L255.36,93.69L256.57,95.18L256.63,95.25L258.56,97.26L258.61,95.61L258.89,96.01L258.95,94.96L259.11,94.98L259.17,94.98L260.16,96.9L260.21,95.85L260.27,95.85L260.49,94.04L261.04,94.83L261.1,94.83L262.26,95.89L262.31,95.89L263.58,97.65L263.64,97.79L266.51,102.23L266.56,100.99L267.83,102.61L267.89,102.61L268.99,104.47L269.05,104.47L269.82,105.14L269.87,104.17L271.7,106.97L271.75,106.97L274.73,110.64L274.79,110.64L275.34,111.38L275.39,111.5L276.33,112.43L276.39,112.43L277.77,114.24L277.82,114.24L278.71,114.9L278.76,115.05L281.69,117.75L281.74,117.86L282.9,119.13L282.96,119.13L285,120.58L285.05,120.77L287.43,122.55L287.48,122.55L291.95,126.45L292.01,126.67L293.06,127.42L293.11,127.79L294.16,128.62L294.22,128.72L299.3,132.62L299.35,132.79L301.12,134.25L301.17,134.29L303.66,135.91L303.71,136.11L306.58,139.97L306.64,140.18L309.56,142.37L309.62,142.37L310.5,143.28L310.56,143.34L311.83,144.03L311.88,144.16L313.15,144.86L313.21,145.1L314.31,146.32L314.37,146.32L314.75,146.95L314.81,147.38L317.62,149.47L317.68,149.47L320.11,151.91L320.16,152.03L324.8,155.15L324.85,155.34L326.01,156.49L326.07,156.49L326.9,157.1L326.95,157.1L328.5,158.34L328.55,158.34L334.13,160.41L334.18,160.87L335.12,162.36L335.18,162.37L341.36,164.91L341.41,165.21L342.19,166.04L342.24,166.21L343.57,166.95L343.62,167.02L346,167.77L346.05,167.8L347.38,169.04L347.43,169.08L349.14,169.83L349.2,169.84L350.25,170.95L350.3,170.97L352.07,171.67L352.12,171.76L359.96,175.27L360.02,175.35L361.45,176.04L361.51,176.12L366.7,177.62L366.75,177.97L369.35,178.71L369.4,178.85L370.89,179.53L370.95,179.53L372.93,180.25L372.99,180.57L373.98,181.36L374.04,181.36L374.92,181.79L374.98,181.79L376.25,182.25L376.3,182.25L386.07,187.16L386.13,187.16L387.62,188.11L387.67,188.11L389.16,188.86L389.22,188.88L391.32,189.68L391.37,189.93L393.41,190.64L393.47,190.89L396.73,192.17L396.78,192.24L397.77,193L397.83,193L399.93,194.46L399.98,194.65L401.58,195.37L401.64,195.69L403.02,196.45L403.07,196.56L409.53,198.78L409.59,199.09L412.24,199.88L412.29,200.02L414.5,200.76L414.55,200.82L415.99,201.37L416.05,201.37L417.59,201.93L417.65,201.93L419.19,202.51L419.25,202.69L421.4,203.71L421.45,203.84L422.95,204.24L423,204.24L424.33,205.21L424.38,205.28L427.14,205.83L427.2,206.11L428.02,206.44L428.08,206.44L429.51,206.83L429.57,206.83L430.67,207.21L430.73,207.21L432.99,207.89L433.05,207.89L436.03,208.64L436.08,209.09L440.94,211.1L441,211.1L442.65,211.75L442.71,211.93L444.31,212.63L444.36,212.7L445.69,213.28L445.74,213.28L450.27,214.01L450.32,214.05L455.9,215.65" style="vector-effect: non-scaling-stroke; fill: none; stroke: rgb(99, 110, 250); stroke-opacity: 1; stroke-width: 2px; opacity: 1;"/></g><g class="points"/><g class="text"/></g></g></g><g class="overplot"><g class="xy2" transform="translate(70,20)" clip-path="url(#clip053b38xy2plot)"><g class="scatterlayer mlayer"><g class="trace scatter trace1d8e84" style="stroke-miterlimit: 2; opacity: 1;"><g class="fills"/><g class="errorbars"/><g class="lines"><path class="js-line" d="M0,11.35L15.29,60.81L15.35,60.97L22.02,78.61L22.08,78.75L35.22,107.77L35.27,107.88L46.42,127.61L46.48,127.69L55.31,140.71L55.37,140.79L65.58,153.45L65.63,153.51L78.33,166.29L78.38,166.34L90.64,176.17L90.69,176.21L103.83,184.58L103.89,184.61L112.44,189.08L112.5,189.1L124.75,194.4L124.81,194.42L134.63,197.9L134.69,197.91L144.68,200.86L144.74,200.87L156.11,203.64L156.16,203.65L191.21,209.32L191.27,209.32L215.34,211.58L215.39,211.58L270.7,214.19L270.76,214.19L289.8,214.63L289.86,214.63L306.36,214.91L306.42,214.91L455.9,215.65" style="vector-effect: non-scaling-stroke; fill: none; stroke: rgb(239, 85, 59); stroke-opacity: 1; stroke-width: 2px; opacity: 1;"/></g><g class="points"/><g class="text"/></g></g></g></g><path class="xlines-above crisp" d="M0,0" style="fill: none;"/><path class="ylines-above crisp" d="M0,0" style="fill: none;"/><g class="overlines-above"><path class="xy2-x crisp" d="M0,0" style="fill: none;"/><path class="xy2-y crisp" d="M0,0" style="fill: none;"/></g><g class="xaxislayer-above"><g class="xtick"><text text-anchor="middle" x="0" y="260" transform="translate(70,0)" style="font-family: 'Open Sans', verdana, arial, sans-serif; font-size: 12px; fill: rgb(42, 63, 95); fill-opacity: 1; white-space: pre; opacity: 1;">0</text></g><g class="xtick"><text text-anchor="middle" x="0" y="260" style="font-family: 'Open Sans', verdana, arial, sans-serif; font-size: 12px; fill: rgb(42, 63, 95); fill-opacity: 1; white-space: pre; opacity: 1;" transform="translate(180.4,0)">2000</text></g><g class="xtick"><text text-anchor="middle" x="0" y="260" style="font-family: 'Open Sans', verdana, arial, sans-serif; font-size: 12px; fill: rgb(42, 63, 95); fill-opacity: 1; white-space: pre; opacity: 1;" transform="translate(290.8,0)">4000</text></g><g class="xtick"><text text-anchor="middle" x="0" y="260" style="font-family: 'Open Sans', verdana, arial, sans-serif; font-size: 12px; fill: rgb(42, 63, 95); fill-opacity: 1; white-space: pre; opacity: 1;" transform="translate(401.2,0)">6000</text></g><g class="xtick"><text text-anchor="middle" x="0" y="260" style="font-family: 'Open Sans', verdana, arial, sans-serif; font-size: 12px; fill: rgb(42, 63, 95); fill-opacity: 1; white-space: pre; opacity: 1;" transform="translate(511.6,0)">8000</text></g></g><g class="yaxislayer-above"><g class="ytick"><text text-anchor="end" x="69" y="4.199999999999999" transform="translate(0,207.28)" style="font-family: 'Open Sans', verdana, arial, sans-serif; font-size: 12px; fill: rgb(42, 63, 95); fill-opacity: 1; white-space: pre; opacity: 1;">−40k</text></g><g class="ytick"><text text-anchor="end" x="69" y="4.199999999999999" style="font-family: 'Open Sans', verdana, arial, sans-serif; font-size: 12px; fill: rgb(42, 63, 95); fill-opacity: 1; white-space: pre; opacity: 1;" transform="translate(0,164.88)">−30k</text></g><g class="ytick"><text text-anchor="end" x="69" y="4.199999999999999" style="font-family: 'Open Sans', verdana, arial, sans-serif; font-size: 12px; fill: rgb(42, 63, 95); fill-opacity: 1; white-space: pre; opacity: 1;" transform="translate(0,122.47)">−20k</text></g><g class="ytick"><text text-anchor="end" x="69" y="4.199999999999999" style="font-family: 'Open Sans', verdana, arial, sans-serif; font-size: 12px; fill: rgb(42, 63, 95); fill-opacity: 1; white-space: pre; opacity: 1;" transform="translate(0,80.07)">−10k</text></g><g class="ytick"><text text-anchor="end" x="69" y="4.199999999999999" style="font-family: 'Open Sans', verdana, arial, sans-serif; font-size: 12px; fill: rgb(42, 63, 95); fill-opacity: 1; white-space: pre; opacity: 1;" transform="translate(0,37.66)">0</text></g></g><g class="overaxes-above"><g class="xy2-x"/><g class="xy2-y"><g class="y2tick"><text text-anchor="start" x="526.9" y="4.199999999999999" transform="translate(0,235.7)" style="font-family: 'Open Sans', verdana, arial, sans-serif; font-size: 12px; fill: rgb(42, 63, 95); fill-opacity: 1; white-space: pre; opacity: 1;">0</text></g><g class="y2tick"><text text-anchor="start" x="526.9" y="4.199999999999999" style="font-family: 'Open Sans', verdana, arial, sans-serif; font-size: 12px; fill: rgb(42, 63, 95); fill-opacity: 1; white-space: pre; opacity: 1;" transform="translate(0,184.61)">500</text></g><g class="y2tick"><text text-anchor="start" x="526.9" y="4.199999999999999" style="font-family: 'Open Sans', verdana, arial, sans-serif; font-size: 12px; fill: rgb(42, 63, 95); fill-opacity: 1; white-space: pre; opacity: 1;" transform="translate(0,133.53)">1000</text></g><g class="y2tick"><text text-anchor="start" x="526.9" y="4.199999999999999" style="font-family: 'Open Sans', verdana, arial, sans-serif; font-size: 12px; fill: rgb(42, 63, 95); fill-opacity: 1; white-space: pre; opacity: 1;" transform="translate(0,82.44)">1500</text></g><g class="y2tick"><text text-anchor="start" x="526.9" y="4.199999999999999" style="font-family: 'Open Sans', verdana, arial, sans-serif; font-size: 12px; fill: rgb(42, 63, 95); fill-opacity: 1; white-space: pre; opacity: 1;" transform="translate(0,31.35)">2000</text></g></g></g></g><g class="subplot xy2"/></g><g class="polarlayer"/><g class="smithlayer"/><g class="ternarylayer"/><g class="geolayer"/><g class="funnelarealayer"/><g class="pielayer"/><g class="iciclelayer"/><g class="treemaplayer"/><g class="sunburstlayer"/><g class="glimages"/><defs id="topdefs-053b38"><g class="clips"/><clipPath id="legend053b38"><rect width="123" height="48" x="0" y="0"/></clipPath></defs><g class="layer-above"><g class="imagelayer"/><g class="shapelayer"/></g><g class="infolayer"><g class="legend" pointer-events="all" transform="translate(564.7,20)"><rect class="bg" shape-rendering="crispEdges" width="123" height="48" x="0" y="0" style="stroke: rgb(68, 68, 68); stroke-opacity: 1; fill: rgb(255, 255, 255); fill-opacity: 1; stroke-width: 0px;"/><g class="scrollbox" transform="" clip-path="url(#legend053b38)"><g class="groups"><g class="traces" transform="translate(0,14.5)" style="opacity: 1;"><text class="legendtext" text-anchor="start" x="40" y="4.680000000000001" style="font-family: 'Open Sans', verdana, arial, sans-serif; font-size: 12px; fill: rgb(42, 63, 95); fill-opacity: 1; white-space: pre;">Cost</text><g class="layers" style="opacity: 1;"><g class="legendfill"/><g class="legendlines"><path class="js-line" d="M5,0h30" style="fill: none; stroke: rgb(99, 110, 250); stroke-opacity: 1; stroke-width: 2px;"/></g><g class="legendsymbols"><g class="legendpoints"/></g></g><rect class="legendtoggle" x="0" y="-9.5" width="117.265625" height="19" style="fill: rgb(0, 0, 0); fill-opacity: 0;"/></g><g class="traces" transform="translate(0,33.5)" style="opacity: 1;"><text class="legendtext" text-anchor="start" x="40" y="4.680000000000001" style="font-family: 'Open Sans', verdana, arial, sans-serif; font-size: 12px; fill: rgb(42, 63, 95); fill-opacity: 1; white-space: pre;">Temperature</text><g class="layers" style="opacity: 1;"><g class="legendfill"/><g class="legendlines"><path class="js-line" d="M5,0h30" style="fill: none; stroke: rgb(239, 85, 59); stroke-opacity: 1; stroke-width: 2px;"/></g><g class="legendsymbols"><g class="legendpoints"/></g></g><rect class="legendtoggle" x="0" y="-9.5" width="117.265625" height="19" style="fill: rgb(0, 0, 0); fill-opacity: 0;"/></g></g></g><rect class="scrollbar" rx="20" ry="3" width="0" height="0" x="0" y="0" style="fill: rgb(128, 139, 164); fill-opacity: 1;"/></g><g class="g-gtitle"/><g class="g-xtitle"><text class="xtitle" x="297.95" y="287.8" text-anchor="middle" style="font-family: 'Open Sans', verdana, arial, sans-serif; font-size: 14px; fill: rgb(42, 63, 95); opacity: 1; font-weight: normal; white-space: pre;">Iterations</text></g><g class="g-ytitle" transform="translate(1.9873046875,0)"><text class="ytitle" transform="rotate(-90,12.012500000000003,133.5)" x="12.012500000000003" y="133.5" text-anchor="middle" style="font-family: 'Open Sans', verdana, arial, sans-serif; font-size: 14px; fill: rgb(42, 63, 95); opacity: 1; font-weight: normal; white-space: pre;">Cost</text></g><g class="g-y2title"><text class="y2title" transform="rotate(-90,582.596875,133.5)" x="582.596875" y="133.5" text-anchor="middle" style="font-family: 'Open Sans', verdana, arial, sans-serif; font-size: 14px; fill: rgb(42, 63, 95); opacity: 1; font-weight: normal; white-space: pre;">Temperature</text></g></g></svg>