<svg class="main-svg" xmlns="http://www.w3.org/2000/svg" xmlns:xlink="http://www.w3.org/1999/xlink" width="700" height="300" style="" viewBox="0 0 700 300"><rect x="0" y="0" width="700" height="300" style="fill: rgb(255, 255, 255); fill-opacity: 1;"/><defs id="defs-6cb4a7"><g class="clips"><clipPath id="clip6cb4a7xyplot" class="plotclip"><rect width="465.29999999999995" height="227"/></clipPath><clipPath id="clip6cb4a7xy2plot" class="plotclip"><rect width="465.29999999999995" height="227"/></clipPath><clipPath class="axesclip" id="clip6cb4a7x"><rect x="60" y="0" width="465.29999999999995" height="300"/></clipPath><clipPath class="axesclip" id="clip6cb4a7y"><rect x="0" y="20" width="700" height="227"/></clipPath><clipPath class="axesclip" id="clip6cb4a7xy"><rect x="60" y="20" width="465.29999999999995" height="227"/></clipPath><clipPath class="axesclip" id="clip6cb4a7y2"><rect x="0" y="20" width="700" height="227"/></clipPath><clipPath class="axesclip" id="clip6cb4a7xy2"><rect x="60" y="20" width="465.29999999999995" height="227"/></clipPath></g><g class="gradients"/><g class="patterns"/></defs><g class="bglayer"><rect class="bg" x="60" y="20" width="465.29999999999995" height="227" style="fill: rgb(229, 236, 246); fill-opacity: 1; stroke-width: 0;"/></g><g class="layer-below"><g class="imagelayer"/><g class="shapelayer"/></g><g class="cartesianlayer"><g class="subplot xy"><g class="layer-subplot"><g class="shapelayer"/><g class="imagelayer"/></g><g class="gridlayer"><g class="x"><path class="xgrid crisp" transform="translate(172.68,0)" d="M0,20v227" style="stroke: rgb(255, 255, 255); stroke-opacity: 1; stroke-width: 1px;"/><path class="xgrid crisp" transform="translate(285.35,0)" d="M0,20v227" style="stroke: rgb(255, 255, 255); stroke-opacity: 1; stroke-width: 1px;"/><path class="xgrid crisp" transform="translate(398.03,0)" d="M0,20v227" style="stroke: rgb(255, 255, 255); stroke-opacity: 1; stroke-width: 1px;"/><path class="xgrid crisp" transform="translate(510.71,0)" d="M0,20v227" style="stroke: rgb(255, 255, 255); stroke-opacity: 1; stroke-width: 1px;"/></g><g class="y"><path class="ygrid crisp" transform="translate(0,211.84)" d="M60,0h465.29999999999995" style="stroke: rgb(255, 255, 255); stroke-opacity: 1; stroke-width: 1px;"/><path class="ygrid crisp" transform="translate(0,162.23)" d="M60,0h465.29999999999995" style="stroke: rgb(255, 255, 255); stroke-opacity: 1; stroke-width: 1px;"/><path class="ygrid crisp" transform="translate(0,112.61)" d="M60,0h465.29999999999995" style="stroke: rgb(255, 255, 255); stroke-opacity: 1; stroke-width: 1px;"/><path class="ygrid crisp" transform="translate(0,63)" d="M60,0h465.29999999999995" style="stroke: rgb(255, 255, 255); stroke-opacity: 1; stroke-width: 1px;"/></g><g class="y2"><path class="y2grid crisp" transform="translate(0,184.61)" d="M60,0h465.29999999999995" style="stroke: rgb(255, 255, 255); stroke-opacity: 1; stroke-width: 1px;"/><path class="y2grid crisp" transform="translate(0,133.53)" d="M60,0h465.29999999999995" style="stroke: rgb(255, 255, 255); stroke-opacity: 1; stroke-width: 1px;"/><path class="y2grid crisp" transform="translate(0,82.44)" d="M60,0h465.29999999999995" style="stroke: rgb(255, 255, 255); stroke-opacity: 1; stroke-width: 1px;"/><path class="y2grid crisp" transform="translate(0,31.35)" d="M60,0h465.29999999999995" style="stroke: rgb(255, 255, 255); stroke-opacity: 1; stroke-width: 1px;"/></g></g><g class="zerolinelayer"><path class="xzl zl crisp" transform="translate(60,0)" d="M0,20v227" style="stroke: rgb(255, 255, 255); stroke-opacity: 1; stroke-width: 2px;"/><path class="y2zl zl crisp" transform="translate(0,235.7)" d="M60,0h465.29999999999995" style="stroke: rgb(255, 255, 255); stroke-opacity: 1; stroke-width: 2px;"/></g><path class="xlines-below"/><path class="ylines-below"/><g class="overlines-below"><path class="xy2-x"/><path class="xy2-y"/></g><g class="xaxislayer-below"/><g class="yaxislayer-below"/><g class="overaxes-below"><g class="xy2-x"/><g class="xy2-y"/></g><g class="plot" transform="translate(60,20)" clip-path="url(#clip6cb4a7xyplot)"><g class="scatterlayer mlayer"><g class="trace scatter trace92bfa1" style="stroke-miterlimit: 2; opacity: 1;"><g class="fills"/><g class="errorbars"/><g class="lines"><path class="js-line" d="M0,19.68L0.11,23.55L0.28,18.99L0.39,19.29L0.45,18.59L0.73,14.13L1.18,22.56L1.24,19.68L1.41,22.96L1.86,14.33L2.03,17.2L2.08,18.69L2.25,16.21L2.31,20.48L2.7,19.68L2.76,22.46L2.87,23.65L2.93,19.98L2.99,18.79L3.27,15.72L3.61,22.66L3.66,16.71L4.28,27.32L4.51,22.36L4.56,18.99L4.62,18.3L5.01,22.46L5.13,19.59L5.18,24.55L5.35,26.63L5.63,17.7L5.75,20.08L5.8,18.49L5.86,11.95L6.14,21.87L6.48,17.7L6.54,20.08L6.59,20.48L6.7,16.31L6.76,14.62L6.99,12.74L7.61,20.88L7.66,19.49L7.94,17.3L8,24.05L8.39,18.89L8.45,22.46L8.51,22.17L8.68,23.95L8.73,18.49L9.01,13.14L9.18,20.78L9.3,19.68L9.35,24.55L9.69,15.62L10.08,22.07L10.14,22.66L10.25,17.9L10.76,18.99L10.82,24.84L11.44,12.14L11.66,15.02L11.72,16.81L11.77,15.02L12.17,22.46L12.34,18.79L12.39,24.35L12.62,15.91L12.79,22.36L12.85,22.56L12.96,18.79L13.07,23.36L13.13,20.08L13.18,18.69L13.35,13.93L13.52,20.08L13.8,19.59L13.86,22.36L13.92,23.16L14.25,18.2L14.37,20.97L14.42,19.78L14.76,22.86L14.93,18L14.99,22.26L15.04,24.94L15.44,15.52L15.94,18.39L16,18.2L16.23,13.14L16.45,20.18L16.62,14.53L16.68,16.01L16.9,12.24L17.13,25.14L17.46,17.4L17.52,17.5L17.69,14.03L17.86,20.38L18.03,18.69L18.08,20.78L18.42,14.13L18.76,24.94L18.82,24.25L19.44,13.53L19.61,18.69L19.66,23.55L19.77,21.27L19.94,24.25L20.11,23.55L20.17,20.28L20.34,18L20.68,24.45L20.85,20.97L20.9,14.33L21.63,17.7L21.69,16.51L21.75,13.24L21.86,11.35L22.14,18.39L22.54,15.52L22.59,16.11L22.65,12.04L23.21,18.99L23.32,16.81L23.38,13.43L23.55,23.16L24.06,20.08L24.11,16.11L24.34,13.04L24.51,18.39L24.79,14.62L24.85,16.31L24.9,15.02L25.35,20.78L25.41,22.96L25.75,17.8L26.2,20.58L26.25,25.64L26.7,16.41L27.1,19.68L27.16,19.39L27.72,23.65L27.83,14.13L27.94,16.01L28,16.81L28.23,21.47L28.45,17.8L28.51,14.82L28.68,13.83L28.96,18.1L29.18,13.93L29.24,12.64L30.03,27.72L30.14,21.77L30.2,17.7L30.31,16.51L30.48,21.97L30.99,19.29L31.04,18.89L31.16,20.78L31.44,12.34L31.77,17.8L31.83,21.07L32.06,25.14L32.56,19.59L32.62,22.36L32.79,23.95L33.41,17.1L33.47,19.29L33.52,20.28L33.63,24.15L33.97,13.63L34.25,20.78L34.31,22.17L34.37,23.36L34.65,18.59L34.7,18.69L34.76,14.03L35.27,25.74L35.49,18.1L35.55,15.91L36.34,25.04L36.62,21.97L36.68,20.97L37.35,15.12L37.47,17.3L37.52,19.88L37.75,19.78L37.86,24.65L37.97,21.37L38.03,17.3L38.54,24.94L38.82,23.06L38.87,19.49L38.93,20.08L39.16,15.12L39.21,18.39L39.27,14.72L39.44,19.78L40.06,17.6L40.11,18L40.39,27.13L40.79,18.49L40.85,18.1L40.9,15.72L41.24,21.57L41.58,16.01L41.63,18.49L41.8,15.12L42.31,19.29L42.37,22.46L42.65,17.5L43.04,25.54L43.1,22.86L43.16,20.58L43.44,14.03L43.89,16.81L43.94,18.49L44.23,23.55L44.28,24.05L44.62,18.69L45.13,21.27L45.18,21.47L45.3,22.07L45.35,18.3L45.69,25.64L46.03,22.26L46.08,18.49L46.2,18L46.48,25.14L46.59,19.39L46.65,16.01L46.87,13.93L47.38,23.36L47.44,21.27L47.49,20.78L47.89,23.36L48.17,19.68L48.23,20.88L48.28,19.29L48.45,20.08L48.56,17.7L48.62,17.9L48.68,16.61L49.8,28.02L49.86,24.15L49.92,24.35L49.97,21.67L50.2,23.16L50.37,18L50.42,17.01L50.65,16.61L51.16,22.46L51.21,21.77L51.27,19.59L51.66,17.01L51.94,21.17L52,22.26L52.68,25.84L52.73,23.95L52.79,20.88L53.01,21.57L53.35,18.2L53.52,20.28L53.58,20.88L53.8,27.32L54.25,24.35L54.31,23.65L54.42,24.25L55.27,15.22L55.38,15.82L55.44,16.91L55.66,19.29L56.11,14.03L56.28,15.52L56.34,18.3L56.45,18L57.24,27.62L57.41,25.84L57.47,23.46L57.69,28.22L57.97,20.08L58.03,21.47L58.09,20.28L58.14,19.09L58.7,23.16L58.76,24.05L59.04,26.83L59.16,22.26L59.21,22.76L59.27,20.48L59.38,20.88L59.44,17.6L59.94,29.11L60.28,25.64L60.34,22.46L60.73,19.98L60.85,24.45L61.01,22.46L61.07,20.28L61.24,23.75L61.52,19.49L61.58,17.8L61.86,18.39L62.09,15.22L62.25,17.3L62.31,19.29L62.48,16.51L62.82,24.45L62.93,20.48L62.99,22.07L63.49,29.41L63.66,23.75L63.72,20.58L64.28,26.83L64.51,23.26L64.56,20.58L64.79,22.96L64.85,22.26L64.9,20.18L65.07,20.97L65.52,16.91L65.63,18.79L65.69,21.47L66.03,24.75L66.14,19.88L66.2,21.37L66.25,20.08L66.65,18.2L67.1,22.36L67.16,20.97L67.32,23.85L67.38,21.57L67.44,20.78L68.06,29.11L68.23,25.24L68.28,22.17L69.18,27.32L69.24,27.23L69.35,27.82L69.47,22.96L69.52,21.77L69.75,26.83L70.31,25.24L70.37,24.15L70.48,27.82L70.65,24.05L70.7,21.07L70.76,18.59L71.27,28.32L71.32,30.3L71.44,28.52L71.49,30.8L71.55,27.62L72.17,19.78L72.4,21.57L72.45,22.46L72.51,21.07L72.9,26.63L73.01,25.14L73.07,26.43L73.13,26.73L73.18,23.46L73.24,22.36L73.75,19.88L74.09,27.72L74.14,26.53L74.2,28.52L74.54,24.25L74.76,24.45L74.82,23.46L74.87,20.48L75.27,26.03L75.55,23.06L75.61,21.87L75.83,26.03L76.11,22.56L76.17,20.48L76.4,22.96L76.68,19.09L76.85,21.07L76.9,21.77L77.07,23.75L77.3,20.38L77.63,23.06L77.69,21.17L77.86,20.97L78.59,34.07L78.87,29.81L78.93,28.81L79.78,20.58L79.83,21.97L79.89,22.86L79.94,21.67L80.4,26.33L80.51,25.64L80.56,26.03L80.85,31.39L81.41,29.9L81.47,29.71L82.2,22.66L82.42,25.14L82.48,25.74L82.65,26.73L82.76,24.05L82.82,21.87L83.16,20.48L83.61,23.85L83.66,22.86L83.89,20.28L84.45,29.11L84.56,28.91L84.62,26.93L84.9,30.1L85.07,28.52L85.13,27.13L85.52,28.71L85.63,23.65L85.86,26.93L85.92,27.32L86.76,32.88L86.82,31.19L86.87,28.32L87.04,28.61L87.1,26.23L87.16,25.14L87.32,21.17L87.89,27.72L87.94,27.52L88,26.33L89.01,30.7L89.07,28.52L89.13,28.81L89.3,28.02L89.35,25.24L89.41,25.74L89.63,22.36L89.69,20.48L90.25,26.93L90.59,24.05L90.65,21.87L91.1,27.92L91.16,29.01L91.27,28.32L91.44,31.89L91.66,30.2L91.72,26.43L91.78,27.03L91.89,24.45L91.94,20.68L92.17,18.69L92.45,22.46L92.51,24.05L92.56,22.17L93.13,27.23L93.18,29.11L93.52,26.23L93.92,28.02L93.97,28.81L94.42,31.69L94.76,30.3L94.82,28.91L94.93,28.12L95.1,30.5L95.49,29.51L95.55,30.6L96.34,34.37L96.4,33.38L96.45,33.38L96.56,33.77L96.62,31.29L97.35,35.46L97.58,34.87L97.63,33.58L97.75,34.67L97.92,32.88L97.97,30.4L98.99,38.74L99.04,35.76L99.1,34.07L99.27,36.25L99.55,30.7L99.89,35.26L99.94,34.77L100,35.06L100.06,33.28L100.11,30.9L100.51,32.09L100.56,29.9L100.73,31.79L100.79,28.81L100.9,26.13L101.58,33.68L101.69,30.5L101.75,30.2L102.14,35.96L102.59,34.37L102.65,35.16L102.76,35.66L102.82,34.67L102.99,35.06L103.04,32.58L103.38,34.17L103.61,32.29L103.72,32.98L103.78,33.18L104.62,38.14L104.68,38.64L105.18,38.74L105.58,33.58L105.63,32.48L105.8,31.59L106.14,33.87L106.2,32.48L106.25,31.59L106.37,31L106.99,36.85L107.1,35.76L107.16,34.17L107.27,29.9L107.83,34.27L107.89,33.48L107.94,33.18L108,33.77L108.06,29.61L108.4,31.19L108.45,28.91L108.96,26.03L109.18,29.61L109.24,30L109.8,34.07L110.09,32.09L110.14,32.29L110.31,31.69L110.93,34.37L110.99,33.58L111.16,36.06L111.49,33.18L111.55,31.1L112.28,36.45L112.4,34.57L112.45,32.68L112.56,35.76L113.18,35.36L113.24,33.38L113.3,32.39L113.8,35.46L113.92,34.47L113.97,34.57L114.31,31.89L114.65,35.16L114.71,34.77L114.99,31.39L115.44,34.67L115.49,34.17L115.55,32.48L116.06,37.45L116.17,35.66L116.23,35.16L116.45,35.56L116.51,33.18L116.62,34.17L116.68,32.58L116.79,29.61L117.41,29.9L117.47,31.29L117.52,29.61L117.97,35.26L118.14,33.48L118.2,33.77L118.87,41.61L119.27,40.82L119.33,41.12L119.72,44.29L119.78,43L119.83,39.93L119.94,40.32L120,37.64L120.62,31.59L120.85,33.77L120.9,33.77L121.07,31.69L121.47,33.48L121.52,35.76L121.92,32.88L122.25,34.97L122.31,35.96L122.76,37.35L122.82,35.56L122.87,36.16L122.93,32.58L123.16,31.39L123.72,35.46L123.78,32.98L124.23,33.38L124.4,29.9L124.56,32.78L124.62,33.08L124.85,34.37L125.07,31.39L125.18,32.88L125.24,30.5L125.47,27.52L126.09,32.98L126.14,31L126.42,33.87L126.48,31.39L126.54,30.3L126.93,29.21L127.38,33.97L127.44,34.77L128.34,41.61L128.45,40.62L128.51,40.72L129.47,47.47L129.58,45.19L129.63,43.7L129.75,45.09L130.25,41.71L130.31,42.11L130.54,41.22L130.82,43.2L130.87,39.33L131.1,40.32L131.16,37.35L131.21,35.66L131.27,35.16L131.78,37.05L131.83,38.14L132,34.37L132.4,39.13L132.51,39.13L132.56,39.33L132.73,36.65L133.3,39.43L133.35,39.23L133.69,41.91L134.14,40.72L134.2,39.73L134.82,41.61L134.87,39.63L134.99,40.42L135.04,39.43L135.49,43.2L135.55,40.72L135.61,38.64L136.4,44.29L136.45,40.62L137.02,40.82L137.24,37.25L137.3,38.24L137.64,38.04L137.97,43.3L138.2,43.2L138.25,40.72L138.37,38.54L138.76,42.7L138.87,42.11L138.93,42.9L139.49,44.19L139.61,41.32L139.72,42.21L139.78,43L140.06,45.28L140.23,42.8L140.28,41.81L140.62,44.89L141.02,41.81L141.07,42.41L141.3,39.53L141.92,44.49L141.97,44.19L142.03,43.8L142.14,43.1L142.82,47.27L142.87,47.96L143.04,46.97L143.49,49.55L143.55,48.16L143.61,45.38L144.11,49.65L144.34,47.96L144.4,44.39L145.02,48.76L145.18,45.38L145.24,45.88L145.64,47.47L145.75,45.38L145.97,45.78L146.03,46.08L146.25,44.19L146.87,48.36L146.99,47.67L147.04,46.18L147.38,47.96L147.44,45.09L147.55,46.18L147.61,43.8L147.78,44.29L147.89,42.11L148.28,43L148.34,43.1L149.13,46.67L149.18,45.19L149.24,43.99L149.47,45.48L149.52,44.39L149.58,42.31L149.69,40.32L150.99,48.56L151.16,47.67L151.21,47.17L151.38,46.77L151.72,50.44L151.78,50.74L152.51,47.27L152.62,48.26L152.68,47.96L153.07,48.76L153.24,44.29L153.47,46.18L153.52,46.67L153.69,46.38L154.37,50.84L154.42,49.25L154.48,48.06L155.27,41.61L155.33,42.61L155.38,43.4L155.44,41.71L156,45.98L156.06,46.57L156.11,45.78L156.62,49.45L156.68,49.55L157.24,54.31L157.52,53.42L157.58,50.84L158.14,46.47L158.42,47.57L158.48,47.76L159.21,50.34L159.27,48.56L159.44,46.28L160.06,49.55L160.11,49.65L161.47,55.8L161.52,54.51L161.92,56.6L162.2,54.31L162.25,54.51L162.31,54.61L162.99,58.48L163.16,56.5L163.21,56.69L163.78,49.65L164.28,50.44L164.34,51.63L164.56,50.64L164.9,53.92L164.96,52.53L165.02,51.04L165.3,47.96L165.75,51.04L165.8,51.73L166.03,52.63L166.31,51.44L166.42,51.93L166.48,51.04L167.72,55.5L167.78,54.02L167.83,54.51L168.06,51.63L168.4,52.83L168.45,50.64L168.56,49.75L168.9,52.03L169.02,51.44L169.07,51.83L169.24,51.44L170.59,56.6L170.65,57.09L171.38,52.13L171.66,53.52L171.72,53.82L172.23,56.69L172.34,54.41L172.4,52.43L172.85,55.21L173.07,54.02L173.13,52.83L173.92,56.89L173.97,54.31L174.03,54.51L174.26,55.6L174.42,53.52L174.71,54.81L174.76,53.92L174.93,54.12L174.99,52.92L175.16,52.43L175.66,55.6L175.83,53.82L175.89,53.92L177.58,62.15L177.86,61.95L177.92,60.96L178.03,62.15L178.37,59.67L178.48,60.47L178.54,59.47L179.33,62.35L179.38,60.37L179.44,58.78L179.66,57.19L180.11,59.18L180.17,59.67L180.28,59.87L180.34,58.98L180.4,56.99L180.68,57.98L180.85,55.7L180.96,56.5L181.02,55.9L181.35,54.71L181.64,56.6L181.69,56.6L181.75,56.79L181.97,56L182.65,58.88L182.71,57.39L182.76,56.89L182.99,58.48L183.33,58.38L183.38,58.58L183.83,57.69L184.73,61.85L184.79,58.48L184.96,57.59L186.31,62.35L186.37,62.45L186.71,61.36L187.38,66.32L187.78,65.33L187.83,63.94L188.06,63.74L188.57,65.82L188.73,64.93L188.79,63.44L189.69,67.01L189.8,66.22L189.86,65.13L190.2,64.43L190.71,66.22L190.76,65.13L192.17,71.38L192.23,69.99L192.57,70.88L192.62,68.5L192.68,68.8L192.73,67.11L193.02,69.2L193.35,66.82L193.41,66.91L193.47,65.62L194.26,68.2L194.31,66.52L194.42,67.01L194.54,64.34L194.65,64.63L194.71,63.84L194.99,63.05L195.44,65.23L195.49,63.24L196.28,65.82L196.4,65.13L196.45,63.34L196.51,63.14L196.79,64.73L196.85,65.23L197.07,63.34L197.3,64.63L197.35,64.93L197.58,65.82L197.75,63.64L197.8,62.85L199.66,70.09L199.72,70.88L200,69.3L200.73,74.16L200.79,74.75L200.96,74.65L201.3,76.34L201.47,75.25L201.52,74.26L201.75,75.45L201.8,73.76L202.03,74.56L202.09,73.66L203.33,70.69L203.38,71.28L203.44,71.78L203.72,72.57L203.78,70.78L203.83,70.88L203.89,70.98L204.11,70.88L204.4,72.37L204.51,71.28L204.57,70.59L204.68,69.69L205.18,72.67L205.24,72.77L206.37,75.55L206.42,74.06L206.59,73.07L207.66,76.54L207.72,76.54L209.07,80.01L209.13,79.12L209.24,79.81L209.3,78.23L209.69,79.42L209.75,78.23L210.71,82.69L210.93,82.2L210.99,82.59L211.16,82.29L211.21,82.89L211.27,81.1L211.38,81.7L211.49,79.32L211.83,79.81L211.89,80.01L213.13,84.28L213.24,83.19L213.3,83.19L213.58,84.58L213.69,81.9L214.14,84.08L214.2,84.18L214.54,85.67L214.71,83.78L214.82,84.08L214.88,84.08L215.38,80.21L215.78,81.5L215.83,82.1L216.06,80.51L216.45,82.69L216.51,83.09L216.57,83.29L216.62,82L216.73,82.59L216.79,81.3L218.54,86.66L218.59,85.27L221.19,91.03L221.24,89.24L222.65,92.81L222.71,92.81L222.93,93.11L222.99,92.32L223.04,90.93L223.66,91.82L223.72,90.53L224.57,87.35L224.73,87.65L224.79,87.65L225.41,89.24L225.47,89.64L225.58,89.14L226.03,90.13L226.09,90.13L226.14,90.43L227.27,83.98L227.33,84.08L227.38,84.18L227.83,84.97L227.89,85.87L230.26,92.51L230.42,91.52L230.48,91.52L231.66,95.29L231.83,93.8L231.89,92.42L232.23,91.82L232.96,94L233.02,93.01L234.59,97.38L234.65,97.77L235.5,99.76L235.55,98.37L235.61,98.37L236.45,101.25L236.57,100.85L236.62,99.16L238.31,103.13L238.37,103.13L238.65,101.64L239.1,102.64L239.16,102.73L239.38,103.43L239.44,102.14L239.83,102.44L239.89,102.44L241.58,105.21L241.64,105.71L242.2,106.8L242.26,107.2L243.1,108.89L243.16,109.18L243.78,106.9L243.95,107.1L244,107.1L245.47,110.18L245.52,108.99L246.76,111.27L246.82,109.48L247.61,110.67L247.66,110.87L249.35,114.14L249.41,112.95L249.75,113.15L249.81,111.66L250.37,108.89L250.59,109.48L250.65,109.48L252.06,111.47L252.11,111.57L252.23,110.77L252.85,111.66L252.9,111.66L253.58,112.66L253.64,111.37L254.59,113.15L254.65,111.86L255.16,112.76L255.21,113.25L255.78,113.75L255.83,112.76L256,111.96L256.23,112.95L256.51,112.95L256.57,112.95L257.97,113.95L258.03,114.05L258.99,115.04L259.04,115.04L259.78,115.73L259.83,114.34L262.48,118.21L262.54,119.01L263.66,120.5L263.72,120.5L265.24,123.27L265.3,123.37L266.09,123.97L266.14,124.17L267.44,126.15L267.5,126.25L268.34,127.24L268.4,126.35L270.76,131.01L270.82,131.01L271.61,131.71L271.66,131.91L273.19,132.9L273.24,131.21L273.97,132.01L274.03,130.81L274.93,131.51L274.99,131.91L276.79,133.59L276.85,133.59L277.86,134.98L277.92,135.28L278.37,135.97L278.43,136.17L279.66,137.46L279.72,137.46L284.45,140.84L284.51,141.03L285.47,142.42L285.52,142.62L286.76,143.32L286.82,143.81L288.28,145L288.34,145.6L290.71,147.78L290.76,147.98L294.71,150.46L294.76,150.46L296.12,151.16L296.17,151.35L297.41,152.05L297.47,152.15L298.2,152.84L298.26,152.94L305.81,157.6L305.86,158.4L307.33,159.59L307.38,159.59L310.14,160.28L310.2,160.58L311.78,161.18L311.83,161.67L313.07,161.77L313.13,161.77L315.72,162.47L315.78,162.57L316.17,163.26L316.23,163.36L318.82,164.05L318.88,164.05L319.66,164.75L319.72,164.85L320.79,165.24L320.85,165.24L332.79,171.6L332.85,171.6L340.34,175.56L340.4,175.56L342.37,176.06L342.43,176.46L343.5,177.15L343.55,177.25L354.59,182.91L354.65,182.91L357.3,183.6L357.36,183.7L357.98,184.3L358.03,184.49L359.83,185.19L359.89,185.29L363.21,186.58L363.27,186.58L366.2,187.27L366.26,187.37L367.95,187.97L368,188.26L368.85,188.86L368.9,188.86L371.72,189.55L371.78,189.65L374.09,190.15L374.14,190.45L377.86,191.94L377.92,191.94L380.45,192.63L380.51,192.73L383.16,193.42L383.21,193.42L386.03,194.12L386.09,194.52L390.09,195.11L390.14,195.71L393.07,196.3L393.13,196.5L395.61,197.19L395.67,197.29L398.2,197.99L398.26,197.99L399.61,198.68L399.67,198.78L404,199.48L404.06,199.68L407.1,200.47L407.16,200.47L408.96,200.67L409.02,200.67L411.44,201.36L411.5,201.36L414.88,202.65L414.93,202.65L417.41,203.25L417.47,203.45L418.37,204.14L418.43,204.14L422.65,204.83L422.71,204.93L426.31,206.42L426.37,206.42L429.24,207.12L429.3,207.22L432.17,207.71L432.23,208.01L434.48,208.51L434.54,208.8L440.68,209.5L440.74,209.8L446.26,210.39L446.31,210.79L449.53,211.48L449.58,211.58L453.36,212.28L453.41,212.38L456.29,213.07L456.34,213.27L459.44,214.26L459.5,214.26L460.85,214.76L460.91,214.76L464.85,215.35L464.91,215.65L465.3,215.65" style="vector-effect: non-scaling-stroke; fill: none; stroke: rgb(99, 110, 250); stroke-opacity: 1; stroke-width: 2px; opacity: 1;"/></g><g class="points"/><g class="text"/></g></g></g><g class="overplot"><g class="xy2" transform="translate(60,20)" clip-path="url(#clip6cb4a7xy2plot)"><g class="scatterlayer mlayer"><g class="trace scatter tracec75bc5" style="stroke-miterlimit: 2; opacity: 1;"><g class="fills"/><g class="errorbars"/><g class="lines"><path class="js-line" d="M0,11.35L14.42,57.52L14.48,57.68L27.04,89.28L27.1,89.41L36.23,108.31L36.28,108.41L43.94,122.06L44,122.16L55.04,138.81L55.1,138.89L65.63,152L65.69,152.06L74.31,161.09L74.37,161.15L84,169.73L84.06,169.77L95.44,178.18L95.49,178.22L109.97,186.72L110.03,186.74L122.48,192.49L122.54,192.51L138.14,198.13L138.2,198.14L149.52,201.34L149.58,201.36L174.31,206.46L174.37,206.46L194.2,209.21L194.26,209.21L218.31,211.47L218.37,211.47L233.07,212.45L233.13,212.45L274.54,214.14L274.59,214.14L295.66,214.63L295.72,214.63L313.41,214.92L313.47,214.92L465.3,215.65" style="vector-effect: non-scaling-stroke; fill: none; stroke: rgb(239, 85, 59); stroke-opacity: 1; stroke-width: 2px; opacity: 1;"/></g><g class="points"/><g class="text"/></g></g></g></g><path class="xlines-above crisp" d="M0,0" style="fill: none;"/><path class="ylines-above crisp" d="M0,0" style="fill: none;"/><g class="overlines-above"><path class="xy2-x crisp" d="M0,0" style="fill: none;"/><path class="xy2-y crisp" d="M0,0" style="fill: none;"/></g><g class="xaxislayer-above"><g class="xtick"><text text-anchor="middle" x="0" y="260" transform="translate(60,0)" style="font-family: 'Open Sans', verdana, arial, sans-serif; font-size: 12px; fill: rgb(42, 63, 95); fill-opacity: 1; white-space: pre; opacity: 1;">0</text></g><g class="xtick"><text text-anchor="middle" x="0" y="260" style="font-family: 'Open Sans', verdana, arial, sans-serif; font-size: 12px; fill: rgb(42, 63, 95); fill-opacity: 1; white-space: pre; opacity: 1;" transform="translate(172.68,0)">2000</text></g><g class="xtick"><text text-anchor="middle" x="0" y="260" style="font-family: 'Open Sans', verdana, arial, sans-serif; font-size: 12px; fill: rgb(42, 63, 95); fill-opacity: 1; white-space: pre; opacity: 1;" transform="translate(285.35,0)">4000</text></g><g class="xtick"><text text-anchor="middle" x="0" y="260" style="font-family: 'Open Sans', verdana, arial, sans-serif; font-size: 12px; fill: rgb(42, 63, 95); fill-opacity: 1; white-space: pre; opacity: 1;" transform="translate(398.03,0)">6000</text></g><g class="xtick"><text text-anchor="middle" x="0" y="260" style="font-family: 'Open Sans', verdana, arial, sans-serif; font-size: 12px; fill: rgb(42, 63, 95); fill-opacity: 1; white-space: pre; opacity: 1;" transform="translate(510.71,0)">8000</text></g></g><g class="yaxislayer-above"><g class="ytick"><text text-anchor="end" x="59" y="4.199999999999999" transform="translate(0,211.84)" style="font-family: 'Open Sans', verdana, arial, sans-serif; font-size: 12px; fill: rgb(42, 63, 95); fill-opacity: 1; white-space: pre; opacity: 1;">7k</text></g><g class="ytick"><text text-anchor="end" x="59" y="4.199999999999999" style="font-family: 'Open Sans', verdana, arial, sans-serif; font-size: 12px; fill: rgb(42, 63, 95); fill-opacity: 1; white-space: pre; opacity: 1;" transform="translate(0,162.23)">8k</text></g><g class="ytick"><text text-anchor="end" x="59" y="4.199999999999999" style="font-family: 'Open Sans', verdana, arial, sans-serif; font-size: 12px; fill: rgb(42, 63, 95); fill-opacity: 1; white-space: pre; opacity: 1;" transform="translate(0,112.61)">9k</text></g><g class="ytick"><text text-anchor="end" x="59" y="4.199999999999999" style="font-family: 'Open Sans', verdana, arial, sans-serif; font-size: 12px; fill: rgb(42, 63, 95); fill-opacity: 1; white-space: pre; opacity: 1;" transform="translate(0,63)">10k</text></g></g><g class="overaxes-above"><g class="xy2-x"/><g class="xy2-y"><g class="y2tick"><text text-anchor="start" x="526.3" y="4.199999999999999" transform="translate(0,235.7)" style="font-family: 'Open Sans', verdana, arial, sans-serif; font-size: 12px; fill: rgb(42, 63, 95); fill-opacity: 1; white-space: pre; opacity: 1;">0</text></g><g class="y2tick"><text text-anchor="start" x="526.3" y="4.199999999999999" style="font-family: 'Open Sans', verdana, arial, sans-serif; font-size: 12px; fill: rgb(42, 63, 95); fill-opacity: 1; white-space: pre; opacity: 1;" transform="translate(0,184.61)">500</text></g><g class="y2tick"><text text-anchor="start" x="526.3" y="4.199999999999999" style="font-family: 'Open Sans', verdana, arial, sans-serif; font-size: 12px; fill: rgb(42, 63, 95); fill-opacity: 1; white-space: pre; opacity: 1;" transform="translate(0,133.53)">1000</text></g><g class="y2tick"><text text-anchor="start" x="526.3" y="4.199999999999999" style="font-family: 'Open Sans', verdana, arial, sans-serif; font-size: 12px; fill: rgb(42, 63, 95); fill-opacity: 1; white-space: pre; opacity: 1;" transform="translate(0,82.44)">1500</text></g><g class="y2tick"><text text-anchor="start" x="526.3" y="4.199999999999999" style="font-family: 'Open Sans', verdana, arial, sans-serif; font-size: 12px; fill: rgb(42, 63, 95); fill-opacity: 1; white-space: pre; opacity: 1;" transform="translate(0,31.35)">2000</text></g></g></g></g><g class="subplot xy2"/></g><g class="polarlayer"/><g class="smithlayer"/><g class="ternarylayer"/><g class="geolayer"/><g class="funnelarealayer"/><g class="pielayer"/><g class="iciclelayer"/><g class="treemaplayer"/><g class="sunburstlayer"/><g class="glimages"/><defs id="topdefs-6cb4a7"><g class="clips"/><clipPath id="legend6cb4a7"><rect width="123" height="48" x="0" y="0"/></clipPath></defs><g class="layer-above"><g class="imagelayer"/><g class="shapelayer"/></g><g class="infolayer"><g class="legend" pointer-events="all" transform="translate(564.9000000000001,20)"><rect class="bg" shape-rendering="crispEdges" width="123" height="48" x="0" y="0" style="stroke: rgb(68, 68, 68); stroke-opacity: 1; fill: rgb(255, 255, 255); fill-opacity: 1; stroke-width: 0px;"/><g class="scrollbox" transform="" clip-path="url(#legend6cb4a7)"><g class="groups"><g class="traces" transform="translate(0,14.5)" style="opacity: 1;"><text class="legendtext" text-anchor="start" x="40" y="4.680000000000001" style="font-family: 'Open Sans', verdana, arial, sans-serif; font-size: 12px; fill: rgb(42, 63, 95); fill-opacity: 1; white-space: pre;">Cost</text><g class="layers" style="opacity: 1;"><g class="legendfill"/><g class="legendlines"><path class="js-line" d="M5,0h30" style="fill: none; stroke: rgb(99, 110, 250); stroke-opacity: 1; stroke-width: 2px;"/></g><g class="legendsymbols"><g class="legendpoints"/></g></g><rect class="legendtoggle" x="0" y="-9.5" width="117.265625" height="19" style="fill: rgb(0, 0, 0); fill-opacity: 0;"/></g><g class="traces" transform="translate(0,33.5)" style="opacity: 1;"><text class="legendtext" text-anchor="start" x="40" y="4.680000000000001" style="font-family: 'Open Sans', verdana, arial, sans-serif; font-size: 12px; fill: rgb(42, 63, 95); fill-opacity: 1; white-space: pre;">Temperature</text><g class="layers" style="opacity: 1;"><g class="legendfill"/><g class="legendlines"><path class="js-line" d="M5,0h30" style="fill: none; stroke: rgb(239, 85, 59); stroke-opacity: 1; stroke-width: 2px;"/></g><g class="legendsymbols"><g class="legendpoints"/></g></g><rect class="legendtoggle" x="0" y="-9.5" width="117.265625" height="19" style="fill: rgb(0, 0, 0); fill-opacity: 0;"/></g></g></g><rect class="scrollbar" rx="20" ry="3" width="0" height="0" x="0" y="0" style="fill: rgb(128, 139, 164); fill-opacity: 1;"/></g><g class="g-gtitle"/><g class="g-xtitle"><text class="xtitle" x="292.65" y="287.8" text-anchor="middle" style="font-family: 'Open Sans', verdana, arial, sans-serif; font-size: 14px; fill: rgb(42, 63, 95); opacity: 1; font-weight: normal; white-space: pre;">Iterations</text></g><g class="g-ytitle" transform="translate(2.1591796875,0)"><text class="ytitle" transform="rotate(-90,11.840625000000003,133.5)" x="11.840625000000003" y="133.5" text-anchor="middle" style="font-family: 'Open Sans', verdana, arial, sans-serif; font-size: 14px; fill: rgb(42, 63, 95); opacity: 1; font-weight: normal; white-space: pre;">Cost</text></g><g class="g-y2title"><text class="y2title" transform="rotate(-90,581.9875,133.5)" x="581.9875" y="133.5" text-anchor="middle" style="font-family: 'Open Sans', verdana, arial, sans-serif; font-size: 14px; fill: rgb(42, 63, 95); opacity: 1; font-weight: normal; white-space: pre;">Temperature</text></g></g></svg>