<svg class="main-svg" xmlns="http://www.w3.org/2000/svg" xmlns:xlink="http://www.w3.org/1999/xlink" width="700" height="300" style="" viewBox="0 0 700 300"><rect x="0" y="0" width="700" height="300" style="fill: rgb(255, 255, 255); fill-opacity: 1;"/><defs id="defs-d832af"><g class="clips"><clipPath id="clipd832afxyplot" class="plotclip"><rect width="448.38" height="227"/></clipPath><clipPath id="clipd832afxy2plot" class="plotclip"><rect width="448.38" height="227"/></clipPath><clipPath class="axesclip" id="clipd832afx"><rect x="78" y="0" width="448.38" height="300"/></clipPath><clipPath class="axesclip" id="clipd832afy"><rect x="0" y="20" width="700" height="227"/></clipPath><clipPath class="axesclip" id="clipd832afxy"><rect x="78" y="20" width="448.38" height="227"/></clipPath><clipPath class="axesclip" id="clipd832afy2"><rect x="0" y="20" width="700" height="227"/></clipPath><clipPath class="axesclip" id="clipd832afxy2"><rect x="78" y="20" width="448.38" height="227"/></clipPath></g><g class="gradients"/><g class="patterns"/></defs><g class="bglayer"><rect class="bg" x="78" y="20" width="448.38" height="227" style="fill: rgb(229, 236, 246); fill-opacity: 1; stroke-width: 0;"/></g><g class="layer-below"><g class="imagelayer"/><g class="shapelayer"/></g><g class="cartesianlayer"><g class="subplot xy"><g class="layer-subplot"><g class="shapelayer"/><g class="imagelayer"/></g><g class="gridlayer"><g class="x"><path class="xgrid crisp" transform="translate(159.39,0)" d="M0,20v227" style="stroke: rgb(255, 255, 255); stroke-opacity: 1; stroke-width: 1px;"/><path class="xgrid crisp" transform="translate(240.78,0)" d="M0,20v227" style="stroke: rgb(255, 255, 255); stroke-opacity: 1; stroke-width: 1px;"/><path class="xgrid crisp" transform="translate(322.16999999999996,0)" d="M0,20v227" style="stroke: rgb(255, 255, 255); stroke-opacity: 1; stroke-width: 1px;"/><path class="xgrid crisp" transform="translate(403.56,0)" d="M0,20v227" style="stroke: rgb(255, 255, 255); stroke-opacity: 1; stroke-width: 1px;"/><path class="xgrid crisp" transform="translate(484.95,0)" d="M0,20v227" style="stroke: rgb(255, 255, 255); stroke-opacity: 1; stroke-width: 1px;"/></g><g class="y"><path class="ygrid crisp" transform="translate(0,238.44)" d="M78,0h448.38" style="stroke: rgb(255, 255, 255); stroke-opacity: 1; stroke-width: 1px;"/><path class="ygrid crisp" transform="translate(0,198.57)" d="M78,0h448.38" style="stroke: rgb(255, 255, 255); stroke-opacity: 1; stroke-width: 1px;"/><path class="ygrid crisp" transform="translate(0,158.7)" d="M78,0h448.38" style="stroke: rgb(255, 255, 255); stroke-opacity: 1; stroke-width: 1px;"/><path class="ygrid crisp" transform="translate(0,118.83)" d="M78,0h448.38" style="stroke: rgb(255, 255, 255); stroke-opacity: 1; stroke-width: 1px;"/><path class="ygrid crisp" transform="translate(0,78.96000000000001)" d="M78,0h448.38" style="stroke: rgb(255, 255, 255); stroke-opacity: 1; stroke-width: 1px;"/></g><g class="y2"><path class="y2grid crisp" transform="translate(0,184.58)" d="M78,0h448.38" style="stroke: rgb(255, 255, 255); stroke-opacity: 1; stroke-width: 1px;"/><path class="y2grid crisp" transform="translate(0,133.5)" d="M78,0h448.38" style="stroke: rgb(255, 255, 255); stroke-opacity: 1; stroke-width: 1px;"/><path class="y2grid crisp" transform="translate(0,82.43)" d="M78,0h448.38" style="stroke: rgb(255, 255, 255); stroke-opacity: 1; stroke-width: 1px;"/><path class="y2grid crisp" transform="translate(0,31.35)" d="M78,0h448.38" style="stroke: rgb(255, 255, 255); stroke-opacity: 1; stroke-width: 1px;"/></g></g><g class="zerolinelayer"><path class="xzl zl crisp" transform="translate(78,0)" d="M0,20v227" style="stroke: rgb(255, 255, 255); stroke-opacity: 1; stroke-width: 2px;"/><path class="yzl zl crisp" transform="translate(0,39.09)" d="M78,0h448.38" style="stroke: rgb(255, 255, 255); stroke-opacity: 1; stroke-width: 2px;"/><path class="y2zl zl crisp" transform="translate(0,235.65)" d="M78,0h448.38" style="stroke: rgb(255, 255, 255); stroke-opacity: 1; stroke-width: 2px;"/></g><path class="xlines-below"/><path class="ylines-below"/><g class="overlines-below"><path class="xy2-x"/><path class="xy2-y"/></g><g class="xaxislayer-below"/><g class="yaxislayer-below"/><g class="overaxes-below"><g class="xy2-x"/><g class="xy2-y"/></g><g class="plot" transform="translate(78,20)" clip-path="url(#clipd832afxyplot)"><g class="scatterlayer mlayer"><g class="trace scatter traceb0dea2" style="stroke-miterlimit: 2; opacity: 1;"><g class="fills"/><g class="errorbars"/><g class="lines"><path class="js-line" d="M0,24.35L0.41,16.77L0.81,19.32L0.9,24.67L1.06,18.85L1.63,22.67L1.71,23.79L2.28,11.35L2.52,14.14L2.6,18.61L2.69,15.18L3.26,19.09L3.34,18.13L3.42,17.81L3.5,17.25L3.58,18.61L3.66,22.27L3.99,22.59L4.23,19.24L4.31,20.68L4.4,24.43L4.48,24.91L4.56,21.48L4.64,23.23L4.72,18.69L5.86,25.86L5.94,25.7L6.02,22.43L6.19,23.23L6.27,18.53L6.59,23.31L7.16,15.18L7.24,17.57L7.41,13.5L7.65,19.4L7.81,18.37L7.89,20.12L8.14,23.55L8.38,19.32L8.71,22.27L8.79,22.04L9.28,23.15L9.6,17.65L9.69,17.73L9.77,17.97L10.17,14.22L10.5,15.98L10.58,18.61L10.66,18.29L10.82,19.8L10.91,19.32L10.99,20.12L11.88,27.62L11.96,24.99L12.13,26.5L12.53,23.87L12.7,25.38L12.78,24.51L12.86,27.06L13.27,23.47L13.35,24.51L13.43,20.68L13.51,20.84L13.59,22.99L13.67,21.56L14.08,25.78L14.16,24.51L14.24,25.78L14.41,29.21L14.89,24.35L14.98,21.24L16.6,31.29L16.69,28.97L17.01,31.13L17.09,32.16L17.5,25.3L17.82,28.26L17.91,29.13L18.8,34.32L18.88,29.69L19.62,34.48L19.7,32L19.78,30.25L20.18,33.28L20.27,31.13L20.59,29.45L20.84,31.92L20.92,30.89L21,31.6L21.98,36.15L22.06,37.11L22.63,39.58L22.71,37.66L22.79,36.39L23.28,35.67L23.77,39.98L23.85,40.3L23.93,40.77L24.01,38.7L24.09,36.71L24.58,36.55L26.13,43.73L26.21,42.69L26.53,43.49L26.61,41.97L28.81,49.95L28.89,47.79L29.46,50.74L29.54,52.18L30.52,49.39L30.68,50.42L30.77,50.5L32.56,56.56L32.64,55.13L32.72,53.93L34.18,59.91L34.27,58.48L35.57,63.9L35.65,63.98L35.89,63.34L40.53,77.06L40.61,76.5L40.7,76.74L42.57,82.32L42.65,82.56L43.87,83.68L43.95,83.84L47.37,91.73L47.45,91.89L47.61,91.57L49.4,95.48L49.49,95.48L50.46,97.55L50.54,97.63L54.94,107.12L55.02,107.44L57.22,111.91L57.3,111.91L58.03,113.34L58.11,113.74L60.55,117.65L60.64,117.73L62.26,120.28L62.35,120.28L66.58,125.38L66.66,125.62L69.75,130.25L69.83,130.25L70.97,132.16L71.05,132.16L71.46,132.88L71.54,133.04L72.68,134.39L72.76,134.55L73.5,135.27L73.58,135.35L75.04,136.71L75.12,137.1L75.69,137.98L75.77,138.22L77.16,139.89L77.24,139.89L82.2,145.8L82.29,146.03L88.96,151.7L89.04,151.7L89.94,152.41L90.02,152.57L91.56,154.17L91.65,154.17L92.62,154.73L92.7,154.73L93.92,155.44L94.01,155.52L95.47,155.92L95.55,155.92L96.53,156.24L96.61,156.24L98.56,156.96L98.65,157.2L100.52,157.76L100.6,158L101.41,158.63L101.49,158.87L102.15,159.59L102.23,159.75L113.87,165.57L113.95,165.89L118.1,167.49L118.18,167.49L120.95,168.2L121.03,168.52L123.14,169.24L123.23,169.32L127.05,170.6L127.13,170.6L128.35,171.15L128.43,171.39L132.83,173.86L132.91,174.02L136.74,174.74L136.82,174.98L137.96,175.54L138.04,175.78L139.34,176.5L139.42,176.58L143.65,178.01L143.74,178.01L147.15,178.89L147.24,178.89L148.78,179.61L148.86,179.77L150.9,180.48L150.98,180.56L152.85,181.84L152.93,181.84L154.15,182.32L154.23,182.32L157.33,182.96L157.41,182.96L160.34,183.67L160.42,183.67L164.16,184.39L164.25,184.47L166.61,185.03L166.69,185.27L168.89,185.75L168.97,185.75L173.04,186.38L173.12,186.54L175.23,186.78L175.32,186.78L181.01,187.5L181.09,187.58L185.24,188.3L185.33,188.38L189.15,189.49L189.23,189.49L193.71,190.21L193.79,190.29L194.77,190.61L194.85,190.61L195.99,191.33L196.07,191.33L200.46,192.05L200.55,192.29L208.44,193L208.52,193.08L211.45,193.8L211.53,193.88L222.03,194.6L222.11,194.68L223.09,194.92L223.17,194.92L229.85,195.63L229.93,195.71L234.16,196.43L234.24,196.51L239.21,197.23L239.29,197.39L244.5,198.03L244.58,198.27L249.71,198.98L249.79,199.06L255.57,199.78L255.65,199.86L260.12,200.58L260.21,200.74L274.2,201.46L274.29,201.54L279.58,202.25L279.66,202.33L283.73,202.89L283.81,203.13L294.63,203.85L294.71,204.01L302.85,204.73L302.94,204.88L311.64,205.6L311.73,205.68L324.91,206.4L324.99,206.48L331.83,207.12L331.91,207.36L342,207.84L342.08,208.31L346.97,208.87L347.05,209.19L354.7,209.83L354.78,210.07L360.64,210.71L360.72,211.02L366.91,211.66L366.99,211.9L393.69,212.62L393.77,212.7L404.27,213.42L404.35,213.58L418.43,214.29L418.51,214.37L432.83,215.01L432.92,215.25L434.71,215.33L434.79,215.33L448.38,215.65" style="vector-effect: non-scaling-stroke; fill: none; stroke: rgb(99, 110, 250); stroke-opacity: 1; stroke-width: 2px; opacity: 1;"/></g><g class="points"/><g class="text"/></g></g></g><g class="overplot"><g class="xy2" transform="translate(78,20)" clip-path="url(#clipd832afxy2plot)"><g class="scatterlayer mlayer"><g class="trace scatter tracefa4015" style="stroke-miterlimit: 2; opacity: 1;"><g class="fills"/><g class="errorbars"/><g class="lines"><path class="js-line" d="M0,11.35L3.99,77.82L4.07,78.92L7.98,122.67L8.06,123.41L12.05,153.42L12.13,153.92L16.2,174.34L16.28,174.67L20.59,188.88L20.67,189.09L24.91,198.16L24.99,198.3L29.22,204.22L29.3,204.31L34.1,208.59L34.18,208.65L40.61,211.94L40.7,211.97L47.69,213.8L47.78,213.82L58.03,214.98L58.11,214.99L80.74,215.58L80.82,215.58L448.38,215.65" style="vector-effect: non-scaling-stroke; fill: none; stroke: rgb(239, 85, 59); stroke-opacity: 1; stroke-width: 2px; opacity: 1;"/></g><g class="points"/><g class="text"/></g></g></g></g><path class="xlines-above crisp" d="M0,0" style="fill: none;"/><path class="ylines-above crisp" d="M0,0" style="fill: none;"/><g class="overlines-above"><path class="xy2-x crisp" d="M0,0" style="fill: none;"/><path class="xy2-y crisp" d="M0,0" style="fill: none;"/></g><g class="xaxislayer-above"><g class="xtick"><text text-anchor="middle" x="0" y="260" transform="translate(78,0)" style="font-family: 'Open Sans', verdana, arial, sans-serif; font-size: 12px; fill: rgb(42, 63, 95); fill-opacity: 1; white-space: pre; opacity: 1;">0</text></g><g class="xtick"><text text-anchor="middle" x="0" y="260" style="font-family: 'Open Sans', verdana, arial, sans-serif; font-size: 12px; fill: rgb(42, 63, 95); fill-opacity: 1; white-space: pre; opacity: 1;" transform="translate(159.39,0)">1000</text></g><g class="xtick"><text text-anchor="middle" x="0" y="260" style="font-family: 'Open Sans', verdana, arial, sans-serif; font-size: 12px; fill: rgb(42, 63, 95); fill-opacity: 1; white-space: pre; opacity: 1;" transform="translate(240.78,0)">2000</text></g><g class="xtick"><text text-anchor="middle" x="0" y="260" style="font-family: 'Open Sans', verdana, arial, sans-serif; font-size: 12px; fill: rgb(42, 63, 95); fill-opacity: 1; white-space: pre; opacity: 1;" transform="translate(322.16999999999996,0)">3000</text></g><g class="xtick"><text text-anchor="middle" x="0" y="260" style="font-family: 'Open Sans', verdana, arial, sans-serif; font-size: 12px; fill: rgb(42, 63, 95); fill-opacity: 1; white-space: pre; opacity: 1;" transform="translate(403.56,0)">4000</text></g><g class="xtick"><text text-anchor="middle" x="0" y="260" style="font-family: 'Open Sans', verdana, arial, sans-serif; font-size: 12px; fill: rgb(42, 63, 95); fill-opacity: 1; white-space: pre; opacity: 1;" transform="translate(484.95,0)">5000</text></g></g><g class="yaxislayer-above"><g class="ytick"><text text-anchor="end" x="77" y="4.199999999999999" transform="translate(0,238.44)" style="font-family: 'Open Sans', verdana, arial, sans-serif; font-size: 12px; fill: rgb(42, 63, 95); fill-opacity: 1; white-space: pre; opacity: 1;">−5000</text></g><g class="ytick"><text text-anchor="end" x="77" y="4.199999999999999" style="font-family: 'Open Sans', verdana, arial, sans-serif; font-size: 12px; fill: rgb(42, 63, 95); fill-opacity: 1; white-space: pre; opacity: 1;" transform="translate(0,198.57)">−4000</text></g><g class="ytick"><text text-anchor="end" x="77" y="4.199999999999999" style="font-family: 'Open Sans', verdana, arial, sans-serif; font-size: 12px; fill: rgb(42, 63, 95); fill-opacity: 1; white-space: pre; opacity: 1;" transform="translate(0,158.7)">−3000</text></g><g class="ytick"><text text-anchor="end" x="77" y="4.199999999999999" style="font-family: 'Open Sans', verdana, arial, sans-serif; font-size: 12px; fill: rgb(42, 63, 95); fill-opacity: 1; white-space: pre; opacity: 1;" transform="translate(0,118.83)">−2000</text></g><g class="ytick"><text text-anchor="end" x="77" y="4.199999999999999" style="font-family: 'Open Sans', verdana, arial, sans-serif; font-size: 12px; fill: rgb(42, 63, 95); fill-opacity: 1; white-space: pre; opacity: 1;" transform="translate(0,78.96000000000001)">−1000</text></g><g class="ytick"><text text-anchor="end" x="77" y="4.199999999999999" style="font-family: 'Open Sans', verdana, arial, sans-serif; font-size: 12px; fill: rgb(42, 63, 95); fill-opacity: 1; white-space: pre; opacity: 1;" transform="translate(0,39.09)">0</text></g></g><g class="overaxes-above"><g class="xy2-x"/><g class="xy2-y"><g class="y2tick"><text text-anchor="start" x="527.38" y="4.199999999999999" transform="translate(0,235.65)" style="font-family: 'Open Sans', verdana, arial, sans-serif; font-size: 12px; fill: rgb(42, 63, 95); fill-opacity: 1; white-space: pre; opacity: 1;">0</text></g><g class="y2tick"><text text-anchor="start" x="527.38" y="4.199999999999999" style="font-family: 'Open Sans', verdana, arial, sans-serif; font-size: 12px; fill: rgb(42, 63, 95); fill-opacity: 1; white-space: pre; opacity: 1;" transform="translate(0,184.58)">500</text></g><g class="y2tick"><text text-anchor="start" x="527.38" y="4.199999999999999" style="font-family: 'Open Sans', verdana, arial, sans-serif; font-size: 12px; fill: rgb(42, 63, 95); fill-opacity: 1; white-space: pre; opacity: 1;" transform="translate(0,133.5)">1000</text></g><g class="y2tick"><text text-anchor="start" x="527.38" y="4.199999999999999" style="font-family: 'Open Sans', verdana, arial, sans-serif; font-size: 12px; fill: rgb(42, 63, 95); fill-opacity: 1; white-space: pre; opacity: 1;" transform="translate(0,82.43)">1500</text></g><g class="y2tick"><text text-anchor="start" x="527.38" y="4.199999999999999" style="font-family: 'Open Sans', verdana, arial, sans-serif; font-size: 12px; fill: rgb(42, 63, 95); fill-opacity: 1; white-space: pre; opacity: 1;" transform="translate(0,31.35)">2000</text></g></g></g></g><g class="subplot xy2"/></g><g class="polarlayer"/><g class="smithlayer"/><g class="ternarylayer"/><g class="geolayer"/><g class="funnelarealayer"/><g class="pielayer"/><g class="iciclelayer"/><g class="treemaplayer"/><g class="sunburstlayer"/><g class="glimages"/><defs id="topdefs-d832af"><g class="clips"/><clipPath id="legendd832af"><rect width="123" height="48" x="0" y="0"/></clipPath></defs><g class="layer-above"><g class="imagelayer"/><g class="shapelayer"/></g><g class="infolayer"><g class="legend" pointer-events="all" transform="translate(564.54,20)"><rect class="bg" shape-rendering="crispEdges" width="123" height="48" x="0" y="0" style="stroke: rgb(68, 68, 68); stroke-opacity: 1; fill: rgb(255, 255, 255); fill-opacity: 1; stroke-width: 0px;"/><g class="scrollbox" transform="" clip-path="url(#legendd832af)"><g class="groups"><g class="traces" transform="translate(0,14.5)" style="opacity: 1;"><text class="legendtext" text-anchor="start" x="40" y="4.680000000000001" style="font-family: 'Open Sans', verdana, arial, sans-serif; font-size: 12px; fill: rgb(42, 63, 95); fill-opacity: 1; white-space: pre;">Cost</text><g class="layers" style="opacity: 1;"><g class="legendfill"/><g class="legendlines"><path class="js-line" d="M5,0h30" style="fill: none; stroke: rgb(99, 110, 250); stroke-opacity: 1; stroke-width: 2px;"/></g><g class="legendsymbols"><g class="legendpoints"/></g></g><rect class="legendtoggle" x="0" y="-9.5" width="117.265625" height="19" style="fill: rgb(0, 0, 0); fill-opacity: 0;"/></g><g class="traces" transform="translate(0,33.5)" style="opacity: 1;"><text class="legendtext" text-anchor="start" x="40" y="4.680000000000001" style="font-family: 'Open Sans', verdana, arial, sans-serif; font-size: 12px; fill: rgb(42, 63, 95); fill-opacity: 1; white-space: pre;">Temperature</text><g class="layers" style="opacity: 1;"><g class="legendfill"/><g class="legendlines"><path class="js-line" d="M5,0h30" style="fill: none; stroke: rgb(239, 85, 59); stroke-opacity: 1; stroke-width: 2px;"/></g><g class="legendsymbols"><g class="legendpoints"/></g></g><rect class="legendtoggle" x="0" y="-9.5" width="117.265625" height="19" style="fill: rgb(0, 0, 0); fill-opacity: 0;"/></g></g></g><rect class="scrollbar" rx="20" ry="3" width="0" height="0" x="0" y="0" style="fill: rgb(128, 139, 164); fill-opacity: 1;"/></g><g class="g-gtitle"/><g class="g-xtitle"><text class="xtitle" x="302.19" y="287.8" text-anchor="middle" style="font-family: 'Open Sans', verdana, arial, sans-serif; font-size: 14px; fill: rgb(42, 63, 95); opacity: 1; font-weight: normal; white-space: pre;">Iterations</text></g><g class="g-ytitle" transform="translate(2.1435546875,0)"><text class="ytitle" transform="rotate(-90,11.856250000000003,133.5)" x="11.856250000000003" y="133.5" text-anchor="middle" style="font-family: 'Open Sans', verdana, arial, sans-serif; font-size: 14px; fill: rgb(42, 63, 95); opacity: 1; font-weight: normal; white-space: pre;">Cost</text></g><g class="g-y2title"><text class="y2title" transform="rotate(-90,583.08125,133.5)" x="583.08125" y="133.5" text-anchor="middle" style="font-family: 'Open Sans', verdana, arial, sans-serif; font-size: 14px; fill: rgb(42, 63, 95); opacity: 1; font-weight: normal; white-space: pre;">Temperature</text></g></g></svg>