<svg class="main-svg" xmlns="http://www.w3.org/2000/svg" xmlns:xlink="http://www.w3.org/1999/xlink" width="700" height="300" style="" viewBox="0 0 700 300"><rect x="0" y="0" width="700" height="300" style="fill: rgb(255, 255, 255); fill-opacity: 1;"/><defs id="defs-36f900"><g class="clips"><clipPath id="clip36f900xyplot" class="plotclip"><rect width="448.38" height="227"/></clipPath><clipPath id="clip36f900xy2plot" class="plotclip"><rect width="448.38" height="227"/></clipPath><clipPath class="axesclip" id="clip36f900x"><rect x="78" y="0" width="448.38" height="300"/></clipPath><clipPath class="axesclip" id="clip36f900y"><rect x="0" y="20" width="700" height="227"/></clipPath><clipPath class="axesclip" id="clip36f900xy"><rect x="78" y="20" width="448.38" height="227"/></clipPath><clipPath class="axesclip" id="clip36f900y2"><rect x="0" y="20" width="700" height="227"/></clipPath><clipPath class="axesclip" id="clip36f900xy2"><rect x="78" y="20" width="448.38" height="227"/></clipPath></g><g class="gradients"/><g class="patterns"/></defs><g class="bglayer"><rect class="bg" x="78" y="20" width="448.38" height="227" style="fill: rgb(229, 236, 246); fill-opacity: 1; stroke-width: 0;"/></g><g class="layer-below"><g class="imagelayer"/><g class="shapelayer"/></g><g class="cartesianlayer"><g class="subplot xy"><g class="layer-subplot"><g class="shapelayer"/><g class="imagelayer"/></g><g class="gridlayer"><g class="x"><path class="xgrid crisp" transform="translate(159.39,0)" d="M0,20v227" style="stroke: rgb(255, 255, 255); stroke-opacity: 1; stroke-width: 1px;"/><path class="xgrid crisp" transform="translate(240.78,0)" d="M0,20v227" style="stroke: rgb(255, 255, 255); stroke-opacity: 1; stroke-width: 1px;"/><path class="xgrid crisp" transform="translate(322.16999999999996,0)" d="M0,20v227" style="stroke: rgb(255, 255, 255); stroke-opacity: 1; stroke-width: 1px;"/><path class="xgrid crisp" transform="translate(403.56,0)" d="M0,20v227" style="stroke: rgb(255, 255, 255); stroke-opacity: 1; stroke-width: 1px;"/><path class="xgrid crisp" transform="translate(484.95,0)" d="M0,20v227" style="stroke: rgb(255, 255, 255); stroke-opacity: 1; stroke-width: 1px;"/></g><g class="y"><path class="ygrid crisp" transform="translate(0,191.53)" d="M78,0h448.38" style="stroke: rgb(255, 255, 255); stroke-opacity: 1; stroke-width: 1px;"/><path class="ygrid crisp" transform="translate(0,113.55)" d="M78,0h448.38" style="stroke: rgb(255, 255, 255); stroke-opacity: 1; stroke-width: 1px;"/></g><g class="y2"><path class="y2grid crisp" transform="translate(0,184.58)" d="M78,0h448.38" style="stroke: rgb(255, 255, 255); stroke-opacity: 1; stroke-width: 1px;"/><path class="y2grid crisp" transform="translate(0,133.5)" d="M78,0h448.38" style="stroke: rgb(255, 255, 255); stroke-opacity: 1; stroke-width: 1px;"/><path class="y2grid crisp" transform="translate(0,82.43)" d="M78,0h448.38" style="stroke: rgb(255, 255, 255); stroke-opacity: 1; stroke-width: 1px;"/><path class="y2grid crisp" transform="translate(0,31.35)" d="M78,0h448.38" style="stroke: rgb(255, 255, 255); stroke-opacity: 1; stroke-width: 1px;"/></g></g><g class="zerolinelayer"><path class="xzl zl crisp" transform="translate(78,0)" d="M0,20v227" style="stroke: rgb(255, 255, 255); stroke-opacity: 1; stroke-width: 2px;"/><path class="yzl zl crisp" transform="translate(0,35.57)" d="M78,0h448.38" style="stroke: rgb(255, 255, 255); stroke-opacity: 1; stroke-width: 2px;"/><path class="y2zl zl crisp" transform="translate(0,235.65)" d="M78,0h448.38" style="stroke: rgb(255, 255, 255); stroke-opacity: 1; stroke-width: 2px;"/></g><path class="xlines-below"/><path class="ylines-below"/><g class="overlines-below"><path class="xy2-x"/><path class="xy2-y"/></g><g class="xaxislayer-below"/><g class="yaxislayer-below"/><g class="overaxes-below"><g class="xy2-x"/><g class="xy2-y"/></g><g class="plot" transform="translate(78,20)" clip-path="url(#clip36f900xyplot)"><g class="scatterlayer mlayer"><g class="trace scatter tracedc08a5" style="stroke-miterlimit: 2; opacity: 1;"><g class="fills"/><g class="errorbars"/><g class="lines"><path class="js-line" d="M0,11.99L0.73,20.09L0.98,16.29L1.06,13.48L1.47,18.52L1.87,16.58L1.95,19.52L2.36,14.82L2.44,13.58L2.52,12.46L2.93,16.75L3.01,19.02L3.5,13.04L3.74,18.79L3.83,18.1L3.91,17.78L3.99,13.91L4.56,19.42L4.72,14.07L4.8,12.48L5.05,11.35L5.37,16.5L5.7,16.35L5.78,16.99L6.1,12.88L6.43,17.46L6.51,20.33L6.67,15.86L7.24,19.14L7.33,19.97L7.98,14.3L8.06,18.02L8.14,19.56L8.3,21.57L8.63,17.06L8.71,18.55L8.79,17.44L8.95,19.34L9.2,18.38L9.28,16.76L9.85,23.09L10.01,20.02L10.09,20.02L10.34,18.82L10.5,22.51L10.58,25.26L11.07,16.35L11.39,19.97L11.48,20.39L11.56,20.84L11.64,19.29L11.72,17.31L12.13,22.01L12.21,20.76L12.29,17.37L12.37,16.51L12.78,18.99L12.86,18.06L12.94,20.74L13.02,20.88L13.1,20.14L13.19,19.26L13.27,17.29L13.67,22.94L13.75,22.56L13.84,23.15L14.81,18.15L14.89,19.49L16.12,25.9L16.2,26.57L16.44,25.14L16.52,26.53L16.6,26.97L16.93,28.84L17.01,28.13L17.09,25.25L17.42,26.65L17.5,28.32L17.66,30.01L17.91,26.37L17.99,26.94L18.07,24.74L18.96,28.21L19.05,26.43L19.13,27.07L19.37,23.82L19.53,24.71L19.62,24.76L19.78,24.47L21.16,32.16L21.24,29.85L21.57,30.19L21.81,28.83L21.89,30.47L23.03,35.86L23.11,35.07L23.2,35.13L23.52,30.12L24.01,32.15L24.09,32.28L24.34,33.67L24.42,34.32L25.15,38.08L25.31,36.54L25.39,36.77L25.48,35.86L25.96,37.99L26.04,38.28L26.53,39.36L26.61,37.76L27.43,41.96L27.51,40.76L27.59,41.4L28.41,44.93L28.49,43.37L28.57,42.85L29.46,45.46L29.63,45.13L29.71,44.15L30.28,41.48L30.52,42.49L30.6,42.55L30.93,43.96L31.01,42.3L31.5,43.54L31.58,43.7L31.82,42.74L32.96,46.23L33.13,45.57L33.21,45.65L34.18,47.94L34.27,46.3L35,47.46L35.08,48.09L35.32,48.64L35.57,48.05L35.73,48.34L35.81,48.71L36.95,52.01L37.11,51.9L37.2,52.01L38.17,53.71L38.25,54.23L39.31,57.9L39.39,56.84L45.33,69.87L45.42,69.89L48.02,74.6L48.1,74.92L48.59,75.68L48.67,75.79L52.17,83.68L52.25,83.92L53.15,84.79L53.23,85.22L54.69,86.96L54.78,87.08L56.73,89.88L56.81,90.25L58.19,92.7L58.28,92.7L61.53,96.83L61.61,96.89L66.82,104.66L66.9,104.71L67.64,105.86L67.72,105.93L68.86,107.67L68.94,107.77L71.95,111.31L72.03,111.31L72.52,112.08L72.6,112.33L81.8,123.4L81.88,123.44L83.18,124.82L83.26,124.97L84.32,126L84.4,126L86.27,127.66L86.36,127.79L88.8,130.45L88.88,130.46L91.89,132.91L91.97,132.92L93.03,133.65L93.11,134.03L95.39,135.43L95.47,135.44L96.94,136.16L97.02,136.39L98.97,138.4L99.05,138.43L101.98,139.98L102.06,139.98L106.38,142.81L106.46,142.91L114.84,148.41L114.92,148.41L125.34,154.54L125.42,154.54L128.76,155.95L128.84,155.95L131.61,156.69L131.69,156.96L132.75,157.62L132.83,157.62L136.25,158.58L136.33,158.7L137.71,159.27L137.79,159.54L140.07,160.27L140.15,160.31L141.7,160.98L141.78,161.12L143.82,161.8L143.9,161.91L146.34,162.6L146.42,162.73L148.29,163.32L148.37,163.5L153.42,165.36L153.5,165.36L154.72,166.09L154.8,166.17L157.9,166.89L157.98,167.09L168.48,170.33L168.56,170.46L172.22,171.89L172.3,172.02L175.07,173.3L175.15,173.3L175.88,173.95L175.97,174.08L178.73,174.82L178.81,174.98L182.56,175.99L182.64,176.4L187.44,176.97L187.52,177.16L190.86,177.81L190.94,178.17L196.23,179.16L196.31,179.34L197.29,179.73L197.37,179.73L202.58,180.32L202.66,180.5L205.19,181.21L205.27,181.31L207.38,182.65L207.46,182.82L211.86,183.57L211.94,183.61L218.94,185.18L219.02,185.18L227.08,185.93L227.16,185.98L233.83,186.72L233.92,186.94L236.6,187.64L236.68,187.71L239.53,188.42L239.61,188.51L244.01,189.25L244.09,189.43L246.45,189.98L246.53,190.22L251.82,190.91L251.9,191.05L259.72,191.79L259.8,191.86L265.09,192.53L265.17,192.7L265.98,192.9L266.07,192.9L296.67,199.05L296.75,199.11L299.68,199.8L299.76,199.93L309.77,200.67L309.85,200.91L314.09,201.64L314.17,201.74L317.91,202.42L317.99,202.51L319.38,202.91L319.46,202.91L325.56,203.56L325.64,203.7L330.61,204.42L330.69,204.51L345.83,205.22L345.91,205.29L349.82,205.83L349.9,205.83L358.44,206.54L358.52,206.59L362.11,207.3L362.19,207.36L371.06,207.86L371.14,208.16L377.73,208.72L377.81,209.19L381.72,209.77L381.8,210.12L386.85,210.8L386.93,210.94L394.91,211.69L394.99,211.74L403.94,212.41L404.02,212.55L417.37,213.27L417.45,213.38L433.81,214L433.89,214.31L442.93,214.96L443.01,215.07L448.38,215.65" style="vector-effect: non-scaling-stroke; fill: none; stroke: rgb(99, 110, 250); stroke-opacity: 1; stroke-width: 2px; opacity: 1;"/></g><g class="points"/><g class="text"/></g></g></g><g class="overplot"><g class="xy2" transform="translate(78,20)" clip-path="url(#clip36f900xy2plot)"><g class="scatterlayer mlayer"><g class="trace scatter tracef6f50c" style="stroke-miterlimit: 2; opacity: 1;"><g class="fills"/><g class="errorbars"/><g class="lines"><path class="js-line" d="M0,11.35L3.99,77.82L4.07,78.92L7.98,122.67L8.06,123.41L12.05,153.42L12.13,153.92L16.2,174.34L16.28,174.67L20.59,188.88L20.67,189.09L24.91,198.16L24.99,198.3L29.22,204.22L29.3,204.31L34.1,208.59L34.18,208.65L40.61,211.94L40.7,211.97L47.69,213.8L47.78,213.82L58.03,214.98L58.11,214.99L80.74,215.58L80.82,215.58L448.38,215.65" style="vector-effect: non-scaling-stroke; fill: none; stroke: rgb(239, 85, 59); stroke-opacity: 1; stroke-width: 2px; opacity: 1;"/></g><g class="points"/><g class="text"/></g></g></g></g><path class="xlines-above crisp" d="M0,0" style="fill: none;"/><path class="ylines-above crisp" d="M0,0" style="fill: none;"/><g class="overlines-above"><path class="xy2-x crisp" d="M0,0" style="fill: none;"/><path class="xy2-y crisp" d="M0,0" style="fill: none;"/></g><g class="xaxislayer-above"><g class="xtick"><text text-anchor="middle" x="0" y="260" transform="translate(78,0)" style="font-family: 'Open Sans', verdana, arial, sans-serif; font-size: 12px; fill: rgb(42, 63, 95); fill-opacity: 1; white-space: pre; opacity: 1;">0</text></g><g class="xtick"><text text-anchor="middle" x="0" y="260" style="font-family: 'Open Sans', verdana, arial, sans-serif; font-size: 12px; fill: rgb(42, 63, 95); fill-opacity: 1; white-space: pre; opacity: 1;" transform="translate(159.39,0)">1000</text></g><g class="xtick"><text text-anchor="middle" x="0" y="260" style="font-family: 'Open Sans', verdana, arial, sans-serif; font-size: 12px; fill: rgb(42, 63, 95); fill-opacity: 1; white-space: pre; opacity: 1;" transform="translate(240.78,0)">2000</text></g><g class="xtick"><text text-anchor="middle" x="0" y="260" style="font-family: 'Open Sans', verdana, arial, sans-serif; font-size: 12px; fill: rgb(42, 63, 95); fill-opacity: 1; white-space: pre; opacity: 1;" transform="translate(322.16999999999996,0)">3000</text></g><g class="xtick"><text text-anchor="middle" x="0" y="260" style="font-family: 'Open Sans', verdana, arial, sans-serif; font-size: 12px; fill: rgb(42, 63, 95); fill-opacity: 1; white-space: pre; opacity: 1;" transform="translate(403.56,0)">4000</text></g><g class="xtick"><text text-anchor="middle" x="0" y="260" style="font-family: 'Open Sans', verdana, arial, sans-serif; font-size: 12px; fill: rgb(42, 63, 95); fill-opacity: 1; white-space: pre; opacity: 1;" transform="translate(484.95,0)">5000</text></g></g><g class="yaxislayer-above"><g class="ytick"><text text-anchor="end" x="77" y="4.199999999999999" transform="translate(0,191.53)" style="font-family: 'Open Sans', verdana, arial, sans-serif; font-size: 12px; fill: rgb(42, 63, 95); fill-opacity: 1; white-space: pre; opacity: 1;">−100k</text></g><g class="ytick"><text text-anchor="end" x="77" y="4.199999999999999" style="font-family: 'Open Sans', verdana, arial, sans-serif; font-size: 12px; fill: rgb(42, 63, 95); fill-opacity: 1; white-space: pre; opacity: 1;" transform="translate(0,113.55)">−50k</text></g><g class="ytick"><text text-anchor="end" x="77" y="4.199999999999999" style="font-family: 'Open Sans', verdana, arial, sans-serif; font-size: 12px; fill: rgb(42, 63, 95); fill-opacity: 1; white-space: pre; opacity: 1;" transform="translate(0,35.57)">0</text></g></g><g class="overaxes-above"><g class="xy2-x"/><g class="xy2-y"><g class="y2tick"><text text-anchor="start" x="527.38" y="4.199999999999999" transform="translate(0,235.65)" style="font-family: 'Open Sans', verdana, arial, sans-serif; font-size: 12px; fill: rgb(42, 63, 95); fill-opacity: 1; white-space: pre; opacity: 1;">0</text></g><g class="y2tick"><text text-anchor="start" x="527.38" y="4.199999999999999" style="font-family: 'Open Sans', verdana, arial, sans-serif; font-size: 12px; fill: rgb(42, 63, 95); fill-opacity: 1; white-space: pre; opacity: 1;" transform="translate(0,184.58)">500</text></g><g class="y2tick"><text text-anchor="start" x="527.38" y="4.199999999999999" style="font-family: 'Open Sans', verdana, arial, sans-serif; font-size: 12px; fill: rgb(42, 63, 95); fill-opacity: 1; white-space: pre; opacity: 1;" transform="translate(0,133.5)">1000</text></g><g class="y2tick"><text text-anchor="start" x="527.38" y="4.199999999999999" style="font-family: 'Open Sans', verdana, arial, sans-serif; font-size: 12px; fill: rgb(42, 63, 95); fill-opacity: 1; white-space: pre; opacity: 1;" transform="translate(0,82.43)">1500</text></g><g class="y2tick"><text text-anchor="start" x="527.38" y="4.199999999999999" style="font-family: 'Open Sans', verdana, arial, sans-serif; font-size: 12px; fill: rgb(42, 63, 95); fill-opacity: 1; white-space: pre; opacity: 1;" transform="translate(0,31.35)">2000</text></g></g></g></g><g class="subplot xy2"/></g><g class="polarlayer"/><g class="smithlayer"/><g class="ternarylayer"/><g class="geolayer"/><g class="funnelarealayer"/><g class="pielayer"/><g class="iciclelayer"/><g class="treemaplayer"/><g class="sunburstlayer"/><g class="glimages"/><defs id="topdefs-36f900"><g class="clips"/><clipPath id="legend36f900"><rect width="123" height="48" x="0" y="0"/></clipPath></defs><g class="layer-above"><g class="imagelayer"/><g class="shapelayer"/></g><g class="infolayer"><g class="legend" pointer-events="all" transform="translate(564.54,20)"><rect class="bg" shape-rendering="crispEdges" width="123" height="48" x="0" y="0" style="stroke: rgb(68, 68, 68); stroke-opacity: 1; fill: rgb(255, 255, 255); fill-opacity: 1; stroke-width: 0px;"/><g class="scrollbox" transform="" clip-path="url(#legend36f900)"><g class="groups"><g class="traces" transform="translate(0,14.5)" style="opacity: 1;"><text class="legendtext" text-anchor="start" x="40" y="4.680000000000001" style="font-family: 'Open Sans', verdana, arial, sans-serif; font-size: 12px; fill: rgb(42, 63, 95); fill-opacity: 1; white-space: pre;">Cost</text><g class="layers" style="opacity: 1;"><g class="legendfill"/><g class="legendlines"><path class="js-line" d="M5,0h30" style="fill: none; stroke: rgb(99, 110, 250); stroke-opacity: 1; stroke-width: 2px;"/></g><g class="legendsymbols"><g class="legendpoints"/></g></g><rect class="legendtoggle" x="0" y="-9.5" width="117.265625" height="19" style="fill: rgb(0, 0, 0); fill-opacity: 0;"/></g><g class="traces" transform="translate(0,33.5)" style="opacity: 1;"><text class="legendtext" text-anchor="start" x="40" y="4.680000000000001" style="font-family: 'Open Sans', verdana, arial, sans-serif; font-size: 12px; fill: rgb(42, 63, 95); fill-opacity: 1; white-space: pre;">Temperature</text><g class="layers" style="opacity: 1;"><g class="legendfill"/><g class="legendlines"><path class="js-line" d="M5,0h30" style="fill: none; stroke: rgb(239, 85, 59); stroke-opacity: 1; stroke-width: 2px;"/></g><g class="legendsymbols"><g class="legendpoints"/></g></g><rect class="legendtoggle" x="0" y="-9.5" width="117.265625" height="19" style="fill: rgb(0, 0, 0); fill-opacity: 0;"/></g></g></g><rect class="scrollbar" rx="20" ry="3" width="0" height="0" x="0" y="0" style="fill: rgb(128, 139, 164); fill-opacity: 1;"/></g><g class="g-gtitle"/><g class="g-xtitle"><text class="xtitle" x="302.19" y="287.8" text-anchor="middle" style="font-family: 'Open Sans', verdana, arial, sans-serif; font-size: 14px; fill: rgb(42, 63, 95); opacity: 1; font-weight: normal; white-space: pre;">Iterations</text></g><g class="g-ytitle" transform="translate(1.6123046875,0)"><text class="ytitle" transform="rotate(-90,12.387500000000003,133.5)" x="12.387500000000003" y="133.5" text-anchor="middle" style="font-family: 'Open Sans', verdana, arial, sans-serif; font-size: 14px; fill: rgb(42, 63, 95); opacity: 1; font-weight: normal; white-space: pre;">Cost</text></g><g class="g-y2title"><text class="y2title" transform="rotate(-90,583.08125,133.5)" x="583.08125" y="133.5" text-anchor="middle" style="font-family: 'Open Sans', verdana, arial, sans-serif; font-size: 14px; fill: rgb(42, 63, 95); opacity: 1; font-weight: normal; white-space: pre;">Temperature</text></g></g></svg>