<svg class="main-svg" xmlns="http://www.w3.org/2000/svg" xmlns:xlink="http://www.w3.org/1999/xlink" width="700" height="300" style="" viewBox="0 0 700 300"><rect x="0" y="0" width="700" height="300" style="fill: rgb(255, 255, 255); fill-opacity: 1;"/><defs id="defs-b82121"><g class="clips"><clipPath id="clipb82121xyplot" class="plotclip"><rect width="455.9" height="227"/></clipPath><clipPath id="clipb82121xy2plot" class="plotclip"><rect width="455.9" height="227"/></clipPath><clipPath class="axesclip" id="clipb82121x"><rect x="70" y="0" width="455.9" height="300"/></clipPath><clipPath class="axesclip" id="clipb82121y"><rect x="0" y="20" width="700" height="227"/></clipPath><clipPath class="axesclip" id="clipb82121xy"><rect x="70" y="20" width="455.9" height="227"/></clipPath><clipPath class="axesclip" id="clipb82121y2"><rect x="0" y="20" width="700" height="227"/></clipPath><clipPath class="axesclip" id="clipb82121xy2"><rect x="70" y="20" width="455.9" height="227"/></clipPath></g><g class="gradients"/><g class="patterns"/></defs><g class="bglayer"><rect class="bg" x="70" y="20" width="455.9" height="227" style="fill: rgb(229, 236, 246); fill-opacity: 1; stroke-width: 0;"/></g><g class="layer-below"><g class="imagelayer"/><g class="shapelayer"/></g><g class="cartesianlayer"><g class="subplot xy"><g class="layer-subplot"><g class="shapelayer"/><g class="imagelayer"/></g><g class="gridlayer"><g class="x"><path class="xgrid crisp" transform="translate(145.74,0)" d="M0,20v227" style="stroke: rgb(255, 255, 255); stroke-opacity: 1; stroke-width: 1px;"/><path class="xgrid crisp" transform="translate(221.49,0)" d="M0,20v227" style="stroke: rgb(255, 255, 255); stroke-opacity: 1; stroke-width: 1px;"/><path class="xgrid crisp" transform="translate(297.23,0)" d="M0,20v227" style="stroke: rgb(255, 255, 255); stroke-opacity: 1; stroke-width: 1px;"/><path class="xgrid crisp" transform="translate(372.97,0)" d="M0,20v227" style="stroke: rgb(255, 255, 255); stroke-opacity: 1; stroke-width: 1px;"/><path class="xgrid crisp" transform="translate(448.72,0)" d="M0,20v227" style="stroke: rgb(255, 255, 255); stroke-opacity: 1; stroke-width: 1px;"/><path class="xgrid crisp" transform="translate(524.46,0)" d="M0,20v227" style="stroke: rgb(255, 255, 255); stroke-opacity: 1; stroke-width: 1px;"/></g><g class="y"><path class="ygrid crisp" transform="translate(0,194.98)" d="M70,0h455.9" style="stroke: rgb(255, 255, 255); stroke-opacity: 1; stroke-width: 1px;"/><path class="ygrid crisp" transform="translate(0,115.03)" d="M70,0h455.9" style="stroke: rgb(255, 255, 255); stroke-opacity: 1; stroke-width: 1px;"/></g><g class="y2"><path class="y2grid crisp" transform="translate(0,184.58)" d="M70,0h455.9" style="stroke: rgb(255, 255, 255); stroke-opacity: 1; stroke-width: 1px;"/><path class="y2grid crisp" transform="translate(0,133.5)" d="M70,0h455.9" style="stroke: rgb(255, 255, 255); stroke-opacity: 1; stroke-width: 1px;"/><path class="y2grid crisp" transform="translate(0,82.43)" d="M70,0h455.9" style="stroke: rgb(255, 255, 255); stroke-opacity: 1; stroke-width: 1px;"/><path class="y2grid crisp" transform="translate(0,31.35)" d="M70,0h455.9" style="stroke: rgb(255, 255, 255); stroke-opacity: 1; stroke-width: 1px;"/></g></g><g class="zerolinelayer"><path class="xzl zl crisp" transform="translate(70,0)" d="M0,20v227" style="stroke: rgb(255, 255, 255); stroke-opacity: 1; stroke-width: 2px;"/><path class="yzl zl crisp" transform="translate(0,35.09)" d="M70,0h455.9" style="stroke: rgb(255, 255, 255); stroke-opacity: 1; stroke-width: 2px;"/><path class="y2zl zl crisp" transform="translate(0,235.65)" d="M70,0h455.9" style="stroke: rgb(255, 255, 255); stroke-opacity: 1; stroke-width: 2px;"/></g><path class="xlines-below"/><path class="ylines-below"/><g class="overlines-below"><path class="xy2-x"/><path class="xy2-y"/></g><g class="xaxislayer-below"/><g class="yaxislayer-below"/><g class="overaxes-below"><g class="xy2-x"/><g class="xy2-y"/></g><g class="plot" transform="translate(70,20)" clip-path="url(#clipb82121xyplot)"><g class="scatterlayer mlayer"><g class="trace scatter trace29d625" style="stroke-miterlimit: 2; opacity: 1;"><g class="fills"/><g class="errorbars"/><g class="lines"><path class="js-line" d="M0,14.48L0.15,13.78L0.91,19.34L1.14,18.77L1.21,17.14L1.74,12.44L1.89,14.58L1.97,15.06L2.12,15.41L2.27,13.62L2.35,12.12L2.42,11.35L2.8,15.35L2.88,14.2L2.95,16.5L3.11,16.91L3.56,13.56L3.79,14.9L3.86,14.96L4.32,14.68L4.54,15.83L4.62,13.88L4.7,13.52L4.85,15.86L4.92,16.4L5.15,17.87L5.23,19.54L5.38,19.92L5.68,18.35L5.76,18.26L5.91,17.78L6.51,19.15L6.59,18.48L6.74,18.35L7.12,19.44L7.27,19.41L7.35,18.03L8.1,20.4L8.18,20.24L8.26,20.69L8.56,20.46L8.86,22.89L9.32,22.57L9.39,21.29L9.54,21.71L9.7,21.13L9.92,21.77L10,22.38L10.38,24.78L10.83,22.93L10.91,22.61L11.06,23.21L11.13,21.9L11.44,22.13L11.51,21.39L12.5,25.71L12.57,25.64L12.88,28.17L13.33,26.41L13.41,25.93L13.79,25.32L14.39,26.99L14.47,26.16L15.38,27.53L15.45,27.02L16.13,27.88L16.21,29.19L17.95,33.03L18.03,32.81L18.1,32.97L18.41,32.01L18.48,31.85L19.77,34.44L19.84,34.5L21.59,39.36L21.66,38.98L21.74,38.63L22.34,38.59L22.42,38.85L22.5,39.01L22.65,38.56L24.24,42.62L24.31,42.82L25.68,45.44L25.75,45.34L25.83,45.47L26.06,45.09L26.74,46.81L26.81,47.13L30.3,54.65L30.45,54.49L30.52,53.69L30.68,53.98L30.83,53.02L31.05,53.5L31.13,52.63L32.87,55.54L32.95,55.77L34.24,59.06L34.31,59.12L43.63,76.65L43.7,76.68L46.73,81.95L46.81,82.08L50.52,86.69L50.6,86.75L51.73,88.29L51.81,88.48L68.93,109.39L69,109.39L69.61,110.45L69.68,110.77L70.67,112.14L70.74,112.33L73.32,115.34L73.4,115.56L74.68,116.94L74.76,116.97L83.77,127.11L83.85,127.49L91.95,135.04L92.03,135.1L93.54,136.41L93.62,136.57L100.51,142.23L100.59,142.26L103.01,143.83L103.09,143.83L104.07,144.76L104.15,144.82L106.34,146.48L106.42,146.48L109.53,148.05L109.6,148.08L111.72,149.75L111.8,150L115.13,151.98L115.21,151.98L117.71,153.71L117.78,153.93L118.84,154.99L118.92,154.99L120.2,155.79L120.28,155.79L122.55,156.91L122.63,157L124.37,157.74L124.45,157.8L126.49,159.37L126.57,159.37L136.49,163.91L136.57,164.01L138.84,164.93L138.91,165.16L139.75,165.54L139.82,165.54L142.7,166.28L142.78,166.34L145.05,167.08L145.12,167.14L149.74,169.35L149.82,169.35L153.53,170.79L153.61,170.88L155.8,171.84L155.88,171.84L162.47,174.3L162.55,174.3L163.45,174.66L163.53,174.66L167.09,175.36L167.17,175.62L175.57,178.01L175.65,178.08L177.92,178.78L178,178.84L181.03,179.55L181.1,179.61L182.09,179.9L182.16,179.9L186.18,180.64L186.25,180.67L188.9,181.4L188.98,181.53L193.07,182.36L193.15,182.36L196.71,183.07L196.78,183.19L204.96,184.73L205.04,184.73L211.25,185.46L211.32,185.5L216.17,186.58L216.25,186.58L217.23,187.13L217.31,187.13L219.5,187.93L219.58,187.93L223.67,188.53L223.75,188.69L229.12,189.43L229.2,189.49L233.14,190.55L233.21,190.55L235.26,191.25L235.33,191.35L238.74,192.02L238.82,192.12L245.18,192.63L245.26,192.63L250.1,193.3L250.18,193.55L251.62,194.23L251.7,194.32L255.18,195.15L255.26,195.15L267.22,196.85L267.3,196.85L271.46,197.58L271.54,197.68L274.72,198.41L274.8,198.45L280.33,199.12L280.4,199.21L284.34,199.95L284.42,200.05L295.02,200.72L295.1,200.81L305.93,202.22L306,202.22L320.32,204.17L320.39,204.17L329.33,204.87L329.41,204.97L353.8,207.4L353.87,207.4L367.66,209.32L367.73,209.32L378.49,209.99L378.57,210.18L379.93,210.37L380.01,210.37L387.66,211.11L387.73,211.14L398.18,211.84L398.26,211.91L411.74,212.61L411.82,212.68L426.74,213.32L426.81,213.57L437.65,214.15L437.72,214.43L448.63,215.07L448.7,215.2L455.9,215.65" style="vector-effect: non-scaling-stroke; fill: none; stroke: rgb(99, 110, 250); stroke-opacity: 1; stroke-width: 2px; opacity: 1;"/></g><g class="points"/><g class="text"/></g></g></g><g class="overplot"><g class="xy2" transform="translate(70,20)" clip-path="url(#clipb82121xy2plot)"><g class="scatterlayer mlayer"><g class="trace scatter tracedf9c08" style="stroke-miterlimit: 2; opacity: 1;"><g class="fills"/><g class="errorbars"/><g class="lines"><path class="js-line" d="M0,11.35L4.54,89.48L4.62,90.49L9.16,138.35L9.24,138.97L13.86,168.67L13.94,169.05L17.42,183.44L17.5,183.7L20.83,193.21L20.91,193.39L24.39,200.27L24.47,200.39L28.93,206.15L29.01,206.23L33.78,209.97L33.86,210.01L39.54,212.56L39.61,212.59L47.72,214.35L47.79,214.36L61.73,215.36L61.81,215.36L84,215.62L84.08,215.62L455.9,215.65" style="vector-effect: non-scaling-stroke; fill: none; stroke: rgb(239, 85, 59); stroke-opacity: 1; stroke-width: 2px; opacity: 1;"/></g><g class="points"/><g class="text"/></g></g></g></g><path class="xlines-above crisp" d="M0,0" style="fill: none;"/><path class="ylines-above crisp" d="M0,0" style="fill: none;"/><g class="overlines-above"><path class="xy2-x crisp" d="M0,0" style="fill: none;"/><path class="xy2-y crisp" d="M0,0" style="fill: none;"/></g><g class="xaxislayer-above"><g class="xtick"><text text-anchor="middle" x="0" y="260" transform="translate(70,0)" style="font-family: 'Open Sans', verdana, arial, sans-serif; font-size: 12px; fill: rgb(42, 63, 95); fill-opacity: 1; white-space: pre; opacity: 1;">0</text></g><g class="xtick"><text text-anchor="middle" x="0" y="260" style="font-family: 'Open Sans', verdana, arial, sans-serif; font-size: 12px; fill: rgb(42, 63, 95); fill-opacity: 1; white-space: pre; opacity: 1;" transform="translate(145.74,0)">1000</text></g><g class="xtick"><text text-anchor="middle" x="0" y="260" style="font-family: 'Open Sans', verdana, arial, sans-serif; font-size: 12px; fill: rgb(42, 63, 95); fill-opacity: 1; white-space: pre; opacity: 1;" transform="translate(221.49,0)">2000</text></g><g class="xtick"><text text-anchor="middle" x="0" y="260" style="font-family: 'Open Sans', verdana, arial, sans-serif; font-size: 12px; fill: rgb(42, 63, 95); fill-opacity: 1; white-space: pre; opacity: 1;" transform="translate(297.23,0)">3000</text></g><g class="xtick"><text text-anchor="middle" x="0" y="260" style="font-family: 'Open Sans', verdana, arial, sans-serif; font-size: 12px; fill: rgb(42, 63, 95); fill-opacity: 1; white-space: pre; opacity: 1;" transform="translate(372.97,0)">4000</text></g><g class="xtick"><text text-anchor="middle" x="0" y="260" style="font-family: 'Open Sans', verdana, arial, sans-serif; font-size: 12px; fill: rgb(42, 63, 95); fill-opacity: 1; white-space: pre; opacity: 1;" transform="translate(448.72,0)">5000</text></g><g class="xtick"><text text-anchor="middle" x="0" y="260" style="font-family: 'Open Sans', verdana, arial, sans-serif; font-size: 12px; fill: rgb(42, 63, 95); fill-opacity: 1; white-space: pre; opacity: 1;" transform="translate(524.46,0)">6000</text></g></g><g class="yaxislayer-above"><g class="ytick"><text text-anchor="end" x="69" y="4.199999999999999" transform="translate(0,194.98)" style="font-family: 'Open Sans', verdana, arial, sans-serif; font-size: 12px; fill: rgb(42, 63, 95); fill-opacity: 1; white-space: pre; opacity: 1;">−10k</text></g><g class="ytick"><text text-anchor="end" x="69" y="4.199999999999999" style="font-family: 'Open Sans', verdana, arial, sans-serif; font-size: 12px; fill: rgb(42, 63, 95); fill-opacity: 1; white-space: pre; opacity: 1;" transform="translate(0,115.03)">−5k</text></g><g class="ytick"><text text-anchor="end" x="69" y="4.199999999999999" style="font-family: 'Open Sans', verdana, arial, sans-serif; font-size: 12px; fill: rgb(42, 63, 95); fill-opacity: 1; white-space: pre; opacity: 1;" transform="translate(0,35.09)">0</text></g></g><g class="overaxes-above"><g class="xy2-x"/><g class="xy2-y"><g class="y2tick"><text text-anchor="start" x="526.9" y="4.199999999999999" transform="translate(0,235.65)" style="font-family: 'Open Sans', verdana, arial, sans-serif; font-size: 12px; fill: rgb(42, 63, 95); fill-opacity: 1; white-space: pre; opacity: 1;">0</text></g><g class="y2tick"><text text-anchor="start" x="526.9" y="4.199999999999999" style="font-family: 'Open Sans', verdana, arial, sans-serif; font-size: 12px; fill: rgb(42, 63, 95); fill-opacity: 1; white-space: pre; opacity: 1;" transform="translate(0,184.58)">500</text></g><g class="y2tick"><text text-anchor="start" x="526.9" y="4.199999999999999" style="font-family: 'Open Sans', verdana, arial, sans-serif; font-size: 12px; fill: rgb(42, 63, 95); fill-opacity: 1; white-space: pre; opacity: 1;" transform="translate(0,133.5)">1000</text></g><g class="y2tick"><text text-anchor="start" x="526.9" y="4.199999999999999" style="font-family: 'Open Sans', verdana, arial, sans-serif; font-size: 12px; fill: rgb(42, 63, 95); fill-opacity: 1; white-space: pre; opacity: 1;" transform="translate(0,82.43)">1500</text></g><g class="y2tick"><text text-anchor="start" x="526.9" y="4.199999999999999" style="font-family: 'Open Sans', verdana, arial, sans-serif; font-size: 12px; fill: rgb(42, 63, 95); fill-opacity: 1; white-space: pre; opacity: 1;" transform="translate(0,31.35)">2000</text></g></g></g></g><g class="subplot xy2"/></g><g class="polarlayer"/><g class="smithlayer"/><g class="ternarylayer"/><g class="geolayer"/><g class="funnelarealayer"/><g class="pielayer"/><g class="iciclelayer"/><g class="treemaplayer"/><g class="sunburstlayer"/><g class="glimages"/><defs id="topdefs-b82121"><g class="clips"/><clipPath id="legendb82121"><rect width="123" height="48" x="0" y="0"/></clipPath></defs><g class="layer-above"><g class="imagelayer"/><g class="shapelayer"/></g><g class="infolayer"><g class="legend" pointer-events="all" transform="translate(564.7,20)"><rect class="bg" shape-rendering="crispEdges" width="123" height="48" x="0" y="0" style="stroke: rgb(68, 68, 68); stroke-opacity: 1; fill: rgb(255, 255, 255); fill-opacity: 1; stroke-width: 0px;"/><g class="scrollbox" transform="" clip-path="url(#legendb82121)"><g class="groups"><g class="traces" transform="translate(0,14.5)" style="opacity: 1;"><text class="legendtext" text-anchor="start" x="40" y="4.680000000000001" style="font-family: 'Open Sans', verdana, arial, sans-serif; font-size: 12px; fill: rgb(42, 63, 95); fill-opacity: 1; white-space: pre;">Cost</text><g class="layers" style="opacity: 1;"><g class="legendfill"/><g class="legendlines"><path class="js-line" d="M5,0h30" style="fill: none; stroke: rgb(99, 110, 250); stroke-opacity: 1; stroke-width: 2px;"/></g><g class="legendsymbols"><g class="legendpoints"/></g></g><rect class="legendtoggle" x="0" y="-9.5" width="117.265625" height="19" style="fill: rgb(0, 0, 0); fill-opacity: 0;"/></g><g class="traces" transform="translate(0,33.5)" style="opacity: 1;"><text class="legendtext" text-anchor="start" x="40" y="4.680000000000001" style="font-family: 'Open Sans', verdana, arial, sans-serif; font-size: 12px; fill: rgb(42, 63, 95); fill-opacity: 1; white-space: pre;">Temperature</text><g class="layers" style="opacity: 1;"><g class="legendfill"/><g class="legendlines"><path class="js-line" d="M5,0h30" style="fill: none; stroke: rgb(239, 85, 59); stroke-opacity: 1; stroke-width: 2px;"/></g><g class="legendsymbols"><g class="legendpoints"/></g></g><rect class="legendtoggle" x="0" y="-9.5" width="117.265625" height="19" style="fill: rgb(0, 0, 0); fill-opacity: 0;"/></g></g></g><rect class="scrollbar" rx="20" ry="3" width="0" height="0" x="0" y="0" style="fill: rgb(128, 139, 164); fill-opacity: 1;"/></g><g class="g-gtitle"/><g class="g-xtitle"><text class="xtitle" x="297.95" y="287.8" text-anchor="middle" style="font-family: 'Open Sans', verdana, arial, sans-serif; font-size: 14px; fill: rgb(42, 63, 95); opacity: 1; font-weight: normal; white-space: pre;">Iterations</text></g><g class="g-ytitle" transform="translate(1.9873046875,0)"><text class="ytitle" transform="rotate(-90,12.012500000000003,133.5)" x="12.012500000000003" y="133.5" text-anchor="middle" style="font-family: 'Open Sans', verdana, arial, sans-serif; font-size: 14px; fill: rgb(42, 63, 95); opacity: 1; font-weight: normal; white-space: pre;">Cost</text></g><g class="g-y2title"><text class="y2title" transform="rotate(-90,582.596875,133.5)" x="582.596875" y="133.5" text-anchor="middle" style="font-family: 'Open Sans', verdana, arial, sans-serif; font-size: 14px; fill: rgb(42, 63, 95); opacity: 1; font-weight: normal; white-space: pre;">Temperature</text></g></g></svg>