<svg class="main-svg" xmlns="http://www.w3.org/2000/svg" xmlns:xlink="http://www.w3.org/1999/xlink" width="700" height="300" style="" viewBox="0 0 700 300"><rect x="0" y="0" width="700" height="300" style="fill: rgb(255, 255, 255); fill-opacity: 1;"/><defs id="defs-80900b"><g class="clips"><clipPath id="clip80900bxyplot" class="plotclip"><rect width="451.2" height="227"/></clipPath><clipPath id="clip80900bxy2plot" class="plotclip"><rect width="451.2" height="227"/></clipPath><clipPath class="axesclip" id="clip80900bx"><rect x="75" y="0" width="451.2" height="300"/></clipPath><clipPath class="axesclip" id="clip80900by"><rect x="0" y="20" width="700" height="227"/></clipPath><clipPath class="axesclip" id="clip80900bxy"><rect x="75" y="20" width="451.2" height="227"/></clipPath><clipPath class="axesclip" id="clip80900by2"><rect x="0" y="20" width="700" height="227"/></clipPath><clipPath class="axesclip" id="clip80900bxy2"><rect x="75" y="20" width="451.2" height="227"/></clipPath></g><g class="gradients"/><g class="patterns"/></defs><g class="bglayer"><rect class="bg" x="75" y="20" width="451.2" height="227" style="fill: rgb(229, 236, 246); fill-opacity: 1; stroke-width: 0;"/></g><g class="layer-below"><g class="imagelayer"/><g class="shapelayer"/></g><g class="cartesianlayer"><g class="subplot xy"><g class="layer-subplot"><g class="shapelayer"/><g class="imagelayer"/></g><g class="gridlayer"><g class="x"><path class="xgrid crisp" transform="translate(174.94,0)" d="M0,20v227" style="stroke: rgb(255, 255, 255); stroke-opacity: 1; stroke-width: 1px;"/><path class="xgrid crisp" transform="translate(274.89,0)" d="M0,20v227" style="stroke: rgb(255, 255, 255); stroke-opacity: 1; stroke-width: 1px;"/><path class="xgrid crisp" transform="translate(374.83,0)" d="M0,20v227" style="stroke: rgb(255, 255, 255); stroke-opacity: 1; stroke-width: 1px;"/><path class="xgrid crisp" transform="translate(474.78,0)" d="M0,20v227" style="stroke: rgb(255, 255, 255); stroke-opacity: 1; stroke-width: 1px;"/></g><g class="y"><path class="ygrid crisp" transform="translate(0,204.51)" d="M75,0h451.2" style="stroke: rgb(255, 255, 255); stroke-opacity: 1; stroke-width: 1px;"/><path class="ygrid crisp" transform="translate(0,149.96)" d="M75,0h451.2" style="stroke: rgb(255, 255, 255); stroke-opacity: 1; stroke-width: 1px;"/><path class="ygrid crisp" transform="translate(0,95.41)" d="M75,0h451.2" style="stroke: rgb(255, 255, 255); stroke-opacity: 1; stroke-width: 1px;"/><path class="ygrid crisp" transform="translate(0,40.86)" d="M75,0h451.2" style="stroke: rgb(255, 255, 255); stroke-opacity: 1; stroke-width: 1px;"/></g><g class="y2"><path class="y2grid crisp" transform="translate(0,184.59)" d="M75,0h451.2" style="stroke: rgb(255, 255, 255); stroke-opacity: 1; stroke-width: 1px;"/><path class="y2grid crisp" transform="translate(0,133.51)" d="M75,0h451.2" style="stroke: rgb(255, 255, 255); stroke-opacity: 1; stroke-width: 1px;"/><path class="y2grid crisp" transform="translate(0,82.43)" d="M75,0h451.2" style="stroke: rgb(255, 255, 255); stroke-opacity: 1; stroke-width: 1px;"/><path class="y2grid crisp" transform="translate(0,31.35)" d="M75,0h451.2" style="stroke: rgb(255, 255, 255); stroke-opacity: 1; stroke-width: 1px;"/></g></g><g class="zerolinelayer"><path class="xzl zl crisp" transform="translate(75,0)" d="M0,20v227" style="stroke: rgb(255, 255, 255); stroke-opacity: 1; stroke-width: 2px;"/><path class="y2zl zl crisp" transform="translate(0,235.67)" d="M75,0h451.2" style="stroke: rgb(255, 255, 255); stroke-opacity: 1; stroke-width: 2px;"/></g><path class="xlines-below"/><path class="ylines-below"/><g class="overlines-below"><path class="xy2-x"/><path class="xy2-y"/></g><g class="xaxislayer-below"/><g class="yaxislayer-below"/><g class="overaxes-below"><g class="xy2-x"/><g class="xy2-y"/></g><g class="plot" transform="translate(75,20)" clip-path="url(#clip80900bxyplot)"><g class="scatterlayer mlayer"><g class="trace scatter trace28668d" style="stroke-miterlimit: 2; opacity: 1;"><g class="fills"/><g class="errorbars"/><g class="lines"><path class="js-line" d="M0,21.12L0.2,19.33L0.95,25.47L1,22.7L1.15,23.38L1.2,19.69L1.25,20.03L1.3,17.2L1.5,23.94L1.55,28.18L1.6,28.5L1.8,25.54L1.85,22.29L2.35,18.58L2.6,18.87L2.65,19.88L3.1,14.46L3.35,22.83L3.4,21.79L3.45,20.95L3.55,24.8L3.7,16.84L3.75,14.69L3.95,12.15L4.45,23.61L4.65,17.17L4.7,16.95L4.75,15.75L5.1,24.03L5.15,24.3L5.8,32.19L5.95,28.73L6,28.46L6.7,16.34L6.95,17.77L7,19.21L7.3,19.43L7.65,14.67L7.85,16.42L7.9,18.09L8.2,22.6L8.55,14.11L8.6,15.43L8.75,13.06L9.09,18.99L9.24,16.19L9.29,19.69L9.59,19.86L9.89,13.77L10.14,16.37L10.19,19.66L10.49,21.68L10.64,16.76L10.79,20.72L10.84,21.92L11.14,23.08L11.34,16.14L11.49,20.08L11.54,24.2L11.64,22.2L11.74,25.05L11.79,23.41L11.84,19.75L11.89,18.44L12.14,25.92L12.34,24.51L12.39,25.3L12.74,26.93L13.24,21.28L13.29,24.9L13.79,18.19L14.09,20.08L14.14,21.01L14.34,24.75L14.59,17.69L14.84,21.69L14.89,24.37L15.79,18.77L15.84,20.45L15.94,17.41L16.04,20.96L16.19,20.98L16.24,22.63L16.29,22.94L16.34,21.2L16.39,18.69L16.44,17.89L16.54,24.57L16.74,22.97L16.79,24.48L16.89,24.63L16.94,21.97L17.34,28.69L17.74,27.08L17.79,26.7L18.09,22.21L18.34,24.54L18.39,26.05L18.54,22.59L18.59,23.81L18.64,19.71L18.74,15.52L19.09,25.48L19.29,20.95L19.34,21.86L19.44,20.25L19.74,28.16L19.94,25.27L19.99,26.72L20.49,28.91L20.64,22.14L20.74,22.97L20.79,24.45L21.04,25.84L21.79,17.19L21.84,18.36L22.69,28.39L22.74,27.6L22.79,28.16L22.94,29.29L22.99,26.9L23.04,25.41L23.84,19.31L23.89,20.11L23.94,20.62L24.29,20.06L25.04,28.4L25.09,26.49L25.29,22.38L25.34,22.69L25.39,25.94L26.69,15.35L26.74,15.89L26.79,18.27L27.13,17.93L27.43,24.98L27.68,23.07L27.73,22.78L28.03,15.97L28.53,20.35L28.58,24.55L28.93,21.58L29.18,26.03L29.33,25.23L29.38,23.14L29.48,20.45L29.88,25.82L29.93,28.1L30.03,26.65L30.18,30.75L30.23,30.62L30.28,31.45L31.13,24.95L31.23,25.38L31.28,26.52L31.33,27.7L31.78,20.72L31.83,20.95L32.13,22L32.23,19.1L32.53,21.05L32.58,21.36L32.83,11.35L33.28,17.09L33.33,17.29L33.43,16.55L34.13,24.56L34.38,22.76L34.43,23.08L34.68,20.26L35.13,25.32L35.18,23.43L35.38,20.44L35.48,21.04L35.53,23.61L36.28,17.44L36.48,19.92L36.53,22.05L36.68,21.1L37.08,24.11L37.28,22.77L37.33,22.5L37.38,23.49L37.73,18.05L37.98,22.16L38.03,20.15L38.83,27.09L38.93,25.23L38.98,25.29L39.28,28.67L39.38,27.05L39.43,25.92L40.28,34.71L40.73,32.51L40.78,31.65L41.43,35.94L41.58,33.39L41.63,33.44L41.68,35.72L42.03,30.92L42.33,31.82L42.38,28.7L43.28,20.84L43.33,22.65L43.38,23.15L43.48,21.98L43.88,27.27L43.93,26.06L43.98,27.27L44.23,22.82L44.68,26.59L44.73,27.13L45.47,19.21L45.72,20.39L45.77,22.41L45.97,20.87L46.62,27.09L46.67,24.13L47.02,25.28L47.12,22.54L47.37,24.8L47.42,24.2L47.57,22.53L48.02,27.92L48.07,28.79L48.27,30.64L48.42,29.27L48.47,28.46L48.77,26.13L49.07,30.6L49.17,29.81L49.22,27.12L49.72,34.63L49.97,30.5L50.02,29.14L50.62,23.87L50.97,25.32L51.02,25.98L51.07,26.83L51.42,24L51.62,25.93L51.67,22.44L51.82,26.81L52.37,25.19L52.42,24L52.52,23.83L52.57,24.57L52.62,26.43L52.92,21.18L53.37,23.78L53.42,23.88L53.72,23.61L54.42,32.65L54.47,31.67L54.52,32.86L55.07,28.49L55.12,28.44L55.17,28.01L55.42,31.51L55.47,32.3L55.92,24.82L56.27,28.67L56.32,29.44L56.57,33.21L57.17,31.91L57.22,31.09L57.42,34.75L57.87,28.11L57.92,26.58L57.97,27.28L58.32,22.22L58.42,24.14L58.47,22.89L58.72,25.95L58.77,27.57L58.87,25.16L59.52,29.07L59.57,28.77L59.62,29.83L59.67,30.53L60.12,26.73L60.17,23.9L60.72,29.88L60.97,27.21L61.02,26.16L61.27,25.47L62.57,37.32L62.62,37.96L63.07,41.89L63.46,33.88L63.56,34.71L63.61,34.77L63.91,37.18L64.01,33.3L64.11,35.41L64.16,33.62L64.21,35.76L64.66,31.87L64.86,33.57L64.91,32.81L65.66,40.42L65.81,38.72L65.86,36.2L66.26,40.89L66.56,35.7L66.61,35.59L66.81,36.18L66.96,33.85L67.11,35.07L67.16,33.82L67.41,37.73L68.06,37.07L68.11,37.1L68.46,37.26L68.66,33.52L68.91,36.06L68.96,37.42L69.11,35.16L69.51,39.53L69.61,37.92L69.66,38.17L70.41,41.41L70.46,40.91L70.51,39.35L71.41,31.23L71.66,33.32L71.71,34.16L72.86,41.54L72.96,41.18L73.01,41.27L73.11,40.92L73.41,44.66L73.71,41.62L73.76,39.92L73.86,39.51L74.16,40.8L74.21,42.63L74.61,43.73L74.71,42.3L74.76,40.58L74.96,35.86L75.36,36.86L75.41,37.96L76.06,42.55L76.11,41.75L76.16,43.35L76.76,39.01L77.01,41.04L77.06,42.39L77.26,43.43L77.31,45.15L77.61,45.77L78.21,38.77L78.46,40.8L78.51,42.35L78.61,40.32L79.11,45.84L79.16,45.22L79.21,44.8L79.46,43.92L79.96,49.1L80.11,47.41L80.16,45.47L80.31,46.15L80.81,42.09L81.01,42.84L81.06,43.36L82.2,48.75L82.3,46.82L82.35,45.94L82.45,45.37L82.6,46.64L82.8,46.1L82.85,47.7L82.9,47.91L83,46.38L83.05,44.61L83.15,44.09L83.5,46.12L83.55,47.34L83.7,47.58L83.8,46.18L84.25,47.31L84.3,47.77L84.35,48.46L84.75,44.11L84.8,44.23L85.1,43.49L85.25,45.97L85.4,44.23L85.45,42.51L85.75,39.9L86.15,42.72L86.2,42.99L86.25,42.53L86.5,45.47L86.8,44.01L86.85,44.65L87.85,49.71L87.9,46.97L88.95,40.95L89.2,41.87L89.25,42.45L89.5,41.57L89.75,43.23L89.8,41.54L90.75,45.76L90.8,44.85L91.1,44.75L91.45,48.32L91.6,46.05L91.65,44.99L91.75,44.4L92.7,48.05L92.75,46.24L93.4,47.91L93.45,47.02L93.5,46.61L93.6,44.5L94,48.99L94.05,49.57L94.8,56.84L95.1,54.68L95.15,53.08L95.4,51.83L95.8,54.74L95.95,54.03L96,53.25L96.65,55.92L96.85,55.31L96.9,55.35L97.4,57.38L97.55,55.87L97.6,55.2L97.7,54.15L98.55,58.77L98.6,59.46L98.75,58.42L99.59,63.36L99.64,62.13L100.69,56.72L100.99,57.46L101.04,57.8L102.09,62.72L102.14,61.09L102.19,60.31L102.59,61.66L102.79,59.41L102.84,60.34L102.89,59.51L103.09,58.52L103.39,60.74L103.49,58.83L103.54,58.86L103.59,57.37L104.24,59.67L104.29,59.95L104.54,60.53L104.59,59.33L104.64,59.72L104.69,58.5L104.79,58.3L105.09,60.11L105.39,59.48L105.44,58.18L105.49,58.64L105.64,55.64L106.04,56.86L106.09,56.93L107.04,62.25L107.09,60.53L107.14,59.76L107.69,59.04L108.29,64.36L108.44,63.22L108.49,61.97L108.64,59.74L109.09,62.22L109.24,60.97L109.29,61.27L109.54,62.12L109.64,60.85L109.84,61.83L109.89,62.61L109.99,62.79L110.04,60.94L110.09,59.54L111.89,67.3L111.94,66.65L111.99,65.65L112.29,66.43L112.39,63.73L112.74,65.65L112.79,66.16L113.69,69.29L113.74,69.91L114.29,71.49L114.49,69.88L114.54,68.95L114.64,68.71L114.79,70.13L114.84,70.14L114.89,70.14L115.04,68.79L115.54,69.6L115.59,70.33L115.74,71.15L115.89,69.05L116.09,70.01L116.14,69.59L116.64,73.12L117.04,71.68L117.09,71.06L117.38,69.93L117.63,71.52L117.68,72L117.98,71.36L118.28,73.39L118.33,73.66L118.38,72.24L119.08,73.62L119.13,73.95L119.23,73.01L119.48,75.19L119.83,73.63L119.88,74.06L120.18,72.67L120.53,74.17L120.58,73.69L120.63,74.22L120.93,73.56L121.58,76.03L121.63,74.99L122.83,79.81L122.88,78.6L123.13,79.42L123.33,77.78L123.58,78.59L123.63,79.06L123.78,79.66L123.93,77.38L123.98,76.49L124.28,76.45L124.88,77.87L124.93,78.03L125.58,79.74L125.68,79.3L125.73,78.18L125.78,78.77L126.18,76.78L126.48,78.23L126.53,77.42L126.83,78.38L127.38,75.28L127.43,75.36L127.68,75.81L127.73,75.22L127.78,73.98L127.93,72.86L128.33,74.97L128.38,74.82L128.43,75.06L129.38,77.79L129.63,76.87L129.68,76.28L131.63,83.63L131.78,83.15L131.83,83.18L132.33,84.06L132.38,84.73L132.58,84.1L132.78,85.11L132.93,84.96L132.98,83.94L133.78,82.19L133.83,82.44L133.88,82.76L134.13,83.32L134.48,80.86L134.73,81.9L134.78,82.26L134.83,82.43L134.93,81L135.08,81.65L135.13,80.5L135.33,81.71L135.42,79.67L135.57,80.26L135.62,78.8L135.77,79.98L136.12,77.23L136.17,76.03L136.22,75.77L136.62,77.53L136.67,77.67L136.92,77.31L137.37,79.46L137.57,79.14L137.62,78.14L137.72,77.46L139.27,83.93L139.42,81.92L139.47,81.34L140.27,82.72L140.32,81.84L140.52,82.01L140.57,80.4L141.02,81.42L141.12,79.9L141.32,80.84L141.37,80.63L141.42,79.8L142.02,81.49L142.07,81.1L142.12,81.12L142.27,80.41L142.92,84.03L143.42,83.62L143.47,83.65L143.92,85.18L143.97,83.34L144.37,82.86L144.67,83.81L144.72,84.09L144.77,84.33L144.97,81.86L145.02,81.88L145.07,81.9L145.57,83.43L145.82,82.93L145.87,81.51L147.47,86.78L147.52,86.82L148.17,89.55L148.22,89.78L148.47,90.58L148.57,89.67L148.62,88.48L149.42,91.31L149.67,90.18L149.72,89.25L149.87,89.32L149.97,87.48L150.47,89.04L150.52,89.2L151.52,92.39L151.57,92.25L151.97,94.01L152.02,94.25L152.47,92.35L152.92,92.98L152.97,93.32L153.32,94.4L153.37,95.09L153.51,94.24L153.81,95.32L153.86,95.32L153.91,95.73L155.56,101.35L155.61,101.5L155.86,101.78L155.91,101.06L156.06,101.6L156.11,100.75L156.21,99.85L156.56,101.23L156.86,100.8L156.91,100.9L157.01,100.23L157.46,102.09L157.56,101.18L157.61,101.36L157.86,102.23L158.16,100.7L158.21,100.79L158.26,100.89L159.11,103.09L159.16,101.87L159.46,101.51L160.61,103.82L160.66,104.25L161.71,107.06L161.81,106.71L161.86,105.89L162.36,107.62L162.66,106.35L162.71,106.4L162.86,105.86L163.46,107.41L163.51,106.4L163.56,105.8L164.11,107.49L164.16,107.91L164.31,108.2L164.61,107.17L164.66,107.18L164.91,106.02L165.61,108.34L165.66,107.8L165.71,107.91L166.06,105.78L166.46,107.05L166.51,107.37L166.96,108.99L167.06,107.74L167.11,106.79L167.31,107.94L167.51,106.58L167.66,106.68L167.71,105.56L168.41,108.02L168.56,106.32L168.61,106.54L168.91,106.32L171.41,111.57L171.46,111.43L171.5,111.44L171.85,111.93L171.9,111.47L171.95,110.48L172.75,112.69L173,111.89L173.05,111.46L173.75,113.26L173.95,112.02L174,111.33L174.05,110.54L174.6,112.76L174.65,112.76L174.7,112.92L174.85,113.46L175.15,112.14L175.5,113.15L175.55,113.17L175.75,112.65L176.4,114.12L176.5,113.29L176.55,112.74L178.1,117L178.15,116.16L178.3,116.47L178.4,115.16L178.45,114.35L179.15,115.07L179.2,114.29L180.3,116.53L180.35,116.96L181.45,119.58L181.7,118.63L181.75,118.32L182.2,119.65L182.6,119.21L182.65,118.62L182.75,118.57L183.3,119.71L183.5,119.45L183.55,118.75L186.1,122.95L186.15,122.7L186.7,124.16L187.1,124L187.15,124.15L187.55,122.85L187.95,123.55L188,123.63L188.2,123.74L188.35,122.58L188.7,123.56L188.75,123.87L189.64,125.09L189.69,125.13L189.84,124.78L190.79,126.54L190.84,125.42L192.24,128.26L192.29,128.27L192.64,129.22L193.04,129L193.09,128.44L193.19,129.19L193.54,127.86L193.84,128.69L193.89,128.73L194.64,127.39L194.69,127.48L194.74,127.55L195.59,128.86L195.64,128.26L195.69,127.86L195.84,128.06L196.04,127.21L196.19,127.55L196.24,126.58L197.64,128.13L197.69,127.67L197.89,127.48L199.44,130.39L199.49,130.65L199.64,130.05L200.79,132.58L200.94,132.11L200.99,132.11L201.79,133.2L201.94,132.54L201.99,132.55L204.14,135.52L204.19,134.84L204.49,135.09L204.54,134.61L204.59,134.13L206.54,137.2L206.59,137.24L207.29,135.56L207.54,135.87L207.58,136L208.43,136.39L208.48,136.1L208.53,136.1L209.63,136.67L209.68,136.9L209.93,136.81L209.98,135.85L210.08,135.68L210.98,137.01L211.03,136.48L213.23,140.42L213.28,140.45L213.58,140.08L214.28,140.84L214.33,140.84L217.88,146.01L217.93,145.62L217.98,145.65L220.08,148.88L220.33,148.65L220.38,148.65L220.93,149.54L220.98,149.83L221.48,150.25L221.58,149.5L221.63,149.5L228.87,156.06L228.92,155.36L229.07,154.62L229.47,155.67L229.57,155.67L229.62,155.87L231.52,158.33L231.67,157.91L231.72,157.19L231.97,157.41L232.02,156.64L233.82,157.93L233.87,158.1L236.77,160.96L236.82,161.23L237.82,161.89L237.87,161.89L242.87,165.07L242.92,164.45L243.91,165.19L243.96,165.23L247.01,168.73L247.06,168.77L249.16,170.14L249.21,170.14L250.31,171.2L250.36,171.2L252.36,171.92L252.41,171.96L253.86,173.27L253.91,173.27L256.51,174.5L256.56,174.68L257.86,175.41L257.91,175.55L259.16,176.09L259.21,176.39L260.31,177.23L260.36,177.23L262.75,178.35L262.8,178.35L276.2,185.05L276.25,185.05L291.19,189.94L291.24,189.94L293.39,190.59L293.44,190.85L295.49,191.58L295.54,191.68L298.58,192.24L298.63,192.24L315.73,196.68L315.78,196.68L317.87,197.38L317.92,197.38L321.47,198.44L321.52,198.53L324.12,199.09L324.17,199.09L329.37,199.82L329.42,199.89L332.77,200.62L332.82,200.69L336.81,201.4L336.86,201.46L341.36,202.31L341.41,202.31L347.11,203.06L347.16,203.08L350.31,203.79L350.36,203.93L354.15,204.82L354.2,205.02L355.55,205.33L355.6,205.33L360.85,206.07L360.9,206.11L367.95,206.85L368,206.89L374.64,207.6L374.69,207.66L385.59,209.2L385.64,209.2L390.23,209.92L390.28,210.01L394.68,210.6L394.73,210.78L397.38,210.88L397.43,210.88L401.78,211.8L401.83,211.93L408.17,212.68L408.22,212.71L417.52,213.39L417.57,213.56L426.51,214.23L426.56,214.34L451.2,215.65" style="vector-effect: non-scaling-stroke; fill: none; stroke: rgb(99, 110, 250); stroke-opacity: 1; stroke-width: 2px; opacity: 1;"/></g><g class="points"/><g class="text"/></g></g></g><g class="overplot"><g class="xy2" transform="translate(75,20)" clip-path="url(#clip80900bxy2plot)"><g class="scatterlayer mlayer"><g class="trace scatter trace6867ee" style="stroke-miterlimit: 2; opacity: 1;"><g class="fills"/><g class="errorbars"/><g class="lines"><path class="js-line" d="M0,11.35L10.19,49.07L10.24,49.24L18.34,74.14L18.39,74.28L25.09,92.02L25.14,92.15L35.88,116.06L35.93,116.16L47.77,137.16L47.82,137.24L56.62,149.91L56.67,149.97L67.26,162.53L67.31,162.58L77.56,172.43L77.61,172.47L88.6,181.01L88.65,181.04L102.69,189.53L102.74,189.55L114.89,195.19L114.94,195.21L131.03,200.85L131.08,200.86L142.62,203.92L142.67,203.93L155.66,206.62L155.71,206.63L172.3,209.19L172.35,209.19L196.79,211.7L196.84,211.7L208.93,212.56L208.98,212.56L243.42,214.11L243.47,214.11L262.05,214.6L262.1,214.6L322.67,215.35L322.72,215.36L451.2,215.65" style="vector-effect: non-scaling-stroke; fill: none; stroke: rgb(239, 85, 59); stroke-opacity: 1; stroke-width: 2px; opacity: 1;"/></g><g class="points"/><g class="text"/></g></g></g></g><path class="xlines-above crisp" d="M0,0" style="fill: none;"/><path class="ylines-above crisp" d="M0,0" style="fill: none;"/><g class="overlines-above"><path class="xy2-x crisp" d="M0,0" style="fill: none;"/><path class="xy2-y crisp" d="M0,0" style="fill: none;"/></g><g class="xaxislayer-above"><g class="xtick"><text text-anchor="middle" x="0" y="260" transform="translate(75,0)" style="font-family: 'Open Sans', verdana, arial, sans-serif; font-size: 12px; fill: rgb(42, 63, 95); fill-opacity: 1; white-space: pre; opacity: 1;">0</text></g><g class="xtick"><text text-anchor="middle" x="0" y="260" style="font-family: 'Open Sans', verdana, arial, sans-serif; font-size: 12px; fill: rgb(42, 63, 95); fill-opacity: 1; white-space: pre; opacity: 1;" transform="translate(174.94,0)">2000</text></g><g class="xtick"><text text-anchor="middle" x="0" y="260" style="font-family: 'Open Sans', verdana, arial, sans-serif; font-size: 12px; fill: rgb(42, 63, 95); fill-opacity: 1; white-space: pre; opacity: 1;" transform="translate(274.89,0)">4000</text></g><g class="xtick"><text text-anchor="middle" x="0" y="260" style="font-family: 'Open Sans', verdana, arial, sans-serif; font-size: 12px; fill: rgb(42, 63, 95); fill-opacity: 1; white-space: pre; opacity: 1;" transform="translate(374.83,0)">6000</text></g><g class="xtick"><text text-anchor="middle" x="0" y="260" style="font-family: 'Open Sans', verdana, arial, sans-serif; font-size: 12px; fill: rgb(42, 63, 95); fill-opacity: 1; white-space: pre; opacity: 1;" transform="translate(474.78,0)">8000</text></g></g><g class="yaxislayer-above"><g class="ytick"><text text-anchor="end" x="74" y="4.199999999999999" transform="translate(0,204.51)" style="font-family: 'Open Sans', verdana, arial, sans-serif; font-size: 12px; fill: rgb(42, 63, 95); fill-opacity: 1; white-space: pre; opacity: 1;">2.62M</text></g><g class="ytick"><text text-anchor="end" x="74" y="4.199999999999999" style="font-family: 'Open Sans', verdana, arial, sans-serif; font-size: 12px; fill: rgb(42, 63, 95); fill-opacity: 1; white-space: pre; opacity: 1;" transform="translate(0,149.96)">2.64M</text></g><g class="ytick"><text text-anchor="end" x="74" y="4.199999999999999" style="font-family: 'Open Sans', verdana, arial, sans-serif; font-size: 12px; fill: rgb(42, 63, 95); fill-opacity: 1; white-space: pre; opacity: 1;" transform="translate(0,95.41)">2.66M</text></g><g class="ytick"><text text-anchor="end" x="74" y="4.199999999999999" style="font-family: 'Open Sans', verdana, arial, sans-serif; font-size: 12px; fill: rgb(42, 63, 95); fill-opacity: 1; white-space: pre; opacity: 1;" transform="translate(0,40.86)">2.68M</text></g></g><g class="overaxes-above"><g class="xy2-x"/><g class="xy2-y"><g class="y2tick"><text text-anchor="start" x="527.2" y="4.199999999999999" transform="translate(0,235.67)" style="font-family: 'Open Sans', verdana, arial, sans-serif; font-size: 12px; fill: rgb(42, 63, 95); fill-opacity: 1; white-space: pre; opacity: 1;">0</text></g><g class="y2tick"><text text-anchor="start" x="527.2" y="4.199999999999999" style="font-family: 'Open Sans', verdana, arial, sans-serif; font-size: 12px; fill: rgb(42, 63, 95); fill-opacity: 1; white-space: pre; opacity: 1;" transform="translate(0,184.59)">500</text></g><g class="y2tick"><text text-anchor="start" x="527.2" y="4.199999999999999" style="font-family: 'Open Sans', verdana, arial, sans-serif; font-size: 12px; fill: rgb(42, 63, 95); fill-opacity: 1; white-space: pre; opacity: 1;" transform="translate(0,133.51)">1000</text></g><g class="y2tick"><text text-anchor="start" x="527.2" y="4.199999999999999" style="font-family: 'Open Sans', verdana, arial, sans-serif; font-size: 12px; fill: rgb(42, 63, 95); fill-opacity: 1; white-space: pre; opacity: 1;" transform="translate(0,82.43)">1500</text></g><g class="y2tick"><text text-anchor="start" x="527.2" y="4.199999999999999" style="font-family: 'Open Sans', verdana, arial, sans-serif; font-size: 12px; fill: rgb(42, 63, 95); fill-opacity: 1; white-space: pre; opacity: 1;" transform="translate(0,31.35)">2000</text></g></g></g></g><g class="subplot xy2"/></g><g class="polarlayer"/><g class="smithlayer"/><g class="ternarylayer"/><g class="geolayer"/><g class="funnelarealayer"/><g class="pielayer"/><g class="iciclelayer"/><g class="treemaplayer"/><g class="sunburstlayer"/><g class="glimages"/><defs id="topdefs-80900b"><g class="clips"/><clipPath id="legend80900b"><rect width="123" height="48" x="0" y="0"/></clipPath></defs><g class="layer-above"><g class="imagelayer"/><g class="shapelayer"/></g><g class="infolayer"><g class="legend" pointer-events="all" transform="translate(564.6,20)"><rect class="bg" shape-rendering="crispEdges" width="123" height="48" x="0" y="0" style="stroke: rgb(68, 68, 68); stroke-opacity: 1; fill: rgb(255, 255, 255); fill-opacity: 1; stroke-width: 0px;"/><g class="scrollbox" transform="" clip-path="url(#legend80900b)"><g class="groups"><g class="traces" transform="translate(0,14.5)" style="opacity: 1;"><text class="legendtext" text-anchor="start" x="40" y="4.680000000000001" style="font-family: 'Open Sans', verdana, arial, sans-serif; font-size: 12px; fill: rgb(42, 63, 95); fill-opacity: 1; white-space: pre;">Cost</text><g class="layers" style="opacity: 1;"><g class="legendfill"/><g class="legendlines"><path class="js-line" d="M5,0h30" style="fill: none; stroke: rgb(99, 110, 250); stroke-opacity: 1; stroke-width: 2px;"/></g><g class="legendsymbols"><g class="legendpoints"/></g></g><rect class="legendtoggle" x="0" y="-9.5" width="117.265625" height="19" style="fill: rgb(0, 0, 0); fill-opacity: 0;"/></g><g class="traces" transform="translate(0,33.5)" style="opacity: 1;"><text class="legendtext" text-anchor="start" x="40" y="4.680000000000001" style="font-family: 'Open Sans', verdana, arial, sans-serif; font-size: 12px; fill: rgb(42, 63, 95); fill-opacity: 1; white-space: pre;">Temperature</text><g class="layers" style="opacity: 1;"><g class="legendfill"/><g class="legendlines"><path class="js-line" d="M5,0h30" style="fill: none; stroke: rgb(239, 85, 59); stroke-opacity: 1; stroke-width: 2px;"/></g><g class="legendsymbols"><g class="legendpoints"/></g></g><rect class="legendtoggle" x="0" y="-9.5" width="117.265625" height="19" style="fill: rgb(0, 0, 0); fill-opacity: 0;"/></g></g></g><rect class="scrollbar" rx="20" ry="3" width="0" height="0" x="0" y="0" style="fill: rgb(128, 139, 164); fill-opacity: 1;"/></g><g class="g-gtitle"/><g class="g-xtitle"><text class="xtitle" x="300.6" y="287.8" text-anchor="middle" style="font-family: 'Open Sans', verdana, arial, sans-serif; font-size: 14px; fill: rgb(42, 63, 95); opacity: 1; font-weight: normal; white-space: pre;">Iterations</text></g><g class="g-ytitle" transform="translate(2.1748046875,0)"><text class="ytitle" transform="rotate(-90,11.825000000000003,133.5)" x="11.825000000000003" y="133.5" text-anchor="middle" style="font-family: 'Open Sans', verdana, arial, sans-serif; font-size: 14px; fill: rgb(42, 63, 95); opacity: 1; font-weight: normal; white-space: pre;">Cost</text></g><g class="g-y2title"><text class="y2title" transform="rotate(-90,582.89375,133.5)" x="582.89375" y="133.5" text-anchor="middle" style="font-family: 'Open Sans', verdana, arial, sans-serif; font-size: 14px; fill: rgb(42, 63, 95); opacity: 1; font-weight: normal; white-space: pre;">Temperature</text></g></g></svg>