<svg class="main-svg" xmlns="http://www.w3.org/2000/svg" xmlns:xlink="http://www.w3.org/1999/xlink" width="700" height="300" style="" viewBox="0 0 700 300"><rect x="0" y="0" width="700" height="300" style="fill: rgb(255, 255, 255); fill-opacity: 1;"/><defs id="defs-30b057"><g class="clips"><clipPath id="clip30b057xyplot" class="plotclip"><rect width="465.29999999999995" height="227"/></clipPath><clipPath id="clip30b057xy2plot" class="plotclip"><rect width="465.29999999999995" height="227"/></clipPath><clipPath class="axesclip" id="clip30b057x"><rect x="60" y="0" width="465.29999999999995" height="300"/></clipPath><clipPath class="axesclip" id="clip30b057y"><rect x="0" y="20" width="700" height="227"/></clipPath><clipPath class="axesclip" id="clip30b057xy"><rect x="60" y="20" width="465.29999999999995" height="227"/></clipPath><clipPath class="axesclip" id="clip30b057y2"><rect x="0" y="20" width="700" height="227"/></clipPath><clipPath class="axesclip" id="clip30b057xy2"><rect x="60" y="20" width="465.29999999999995" height="227"/></clipPath></g><g class="gradients"/><g class="patterns"/></defs><g class="bglayer"><rect class="bg" x="60" y="20" width="465.29999999999995" height="227" style="fill: rgb(229, 236, 246); fill-opacity: 1; stroke-width: 0;"/></g><g class="layer-below"><g class="imagelayer"/><g class="shapelayer"/></g><g class="cartesianlayer"><g class="subplot xy"><g class="layer-subplot"><g class="shapelayer"/><g class="imagelayer"/></g><g class="gridlayer"><g class="x"><path class="xgrid crisp" transform="translate(144.45999999999998,0)" d="M0,20v227" style="stroke: rgb(255, 255, 255); stroke-opacity: 1; stroke-width: 1px;"/><path class="xgrid crisp" transform="translate(228.92,0)" d="M0,20v227" style="stroke: rgb(255, 255, 255); stroke-opacity: 1; stroke-width: 1px;"/><path class="xgrid crisp" transform="translate(313.39,0)" d="M0,20v227" style="stroke: rgb(255, 255, 255); stroke-opacity: 1; stroke-width: 1px;"/><path class="xgrid crisp" transform="translate(397.85,0)" d="M0,20v227" style="stroke: rgb(255, 255, 255); stroke-opacity: 1; stroke-width: 1px;"/><path class="xgrid crisp" transform="translate(482.31,0)" d="M0,20v227" style="stroke: rgb(255, 255, 255); stroke-opacity: 1; stroke-width: 1px;"/></g><g class="y"><path class="ygrid crisp" transform="translate(0,232.98)" d="M60,0h465.29999999999995" style="stroke: rgb(255, 255, 255); stroke-opacity: 1; stroke-width: 1px;"/><path class="ygrid crisp" transform="translate(0,188.41)" d="M60,0h465.29999999999995" style="stroke: rgb(255, 255, 255); stroke-opacity: 1; stroke-width: 1px;"/><path class="ygrid crisp" transform="translate(0,143.84)" d="M60,0h465.29999999999995" style="stroke: rgb(255, 255, 255); stroke-opacity: 1; stroke-width: 1px;"/><path class="ygrid crisp" transform="translate(0,99.27)" d="M60,0h465.29999999999995" style="stroke: rgb(255, 255, 255); stroke-opacity: 1; stroke-width: 1px;"/><path class="ygrid crisp" transform="translate(0,54.7)" d="M60,0h465.29999999999995" style="stroke: rgb(255, 255, 255); stroke-opacity: 1; stroke-width: 1px;"/></g><g class="y2"><path class="y2grid crisp" transform="translate(0,184.58)" d="M60,0h465.29999999999995" style="stroke: rgb(255, 255, 255); stroke-opacity: 1; stroke-width: 1px;"/><path class="y2grid crisp" transform="translate(0,133.5)" d="M60,0h465.29999999999995" style="stroke: rgb(255, 255, 255); stroke-opacity: 1; stroke-width: 1px;"/><path class="y2grid crisp" transform="translate(0,82.43)" d="M60,0h465.29999999999995" style="stroke: rgb(255, 255, 255); stroke-opacity: 1; stroke-width: 1px;"/><path class="y2grid crisp" transform="translate(0,31.35)" d="M60,0h465.29999999999995" style="stroke: rgb(255, 255, 255); stroke-opacity: 1; stroke-width: 1px;"/></g></g><g class="zerolinelayer"><path class="xzl zl crisp" transform="translate(60,0)" d="M0,20v227" style="stroke: rgb(255, 255, 255); stroke-opacity: 1; stroke-width: 2px;"/><path class="y2zl zl crisp" transform="translate(0,235.65)" d="M60,0h465.29999999999995" style="stroke: rgb(255, 255, 255); stroke-opacity: 1; stroke-width: 2px;"/></g><path class="xlines-below"/><path class="ylines-below"/><g class="overlines-below"><path class="xy2-x"/><path class="xy2-y"/></g><g class="xaxislayer-below"/><g class="yaxislayer-below"/><g class="overaxes-below"><g class="xy2-x"/><g class="xy2-y"/></g><g class="plot" transform="translate(60,20)" clip-path="url(#clip30b057xyplot)"><g class="scatterlayer mlayer"><g class="trace scatter trace3e487d" style="stroke-miterlimit: 2; opacity: 1;"><g class="fills"/><g class="errorbars"/><g class="lines"><path class="js-line" d="M0,19.46L0.08,19.64L0.17,16.88L0.68,20.71L0.84,16.34L0.93,16.88L1.27,14.2L1.52,20.62L1.69,17.5L1.77,16.34L2.36,21.78L2.79,20.71L2.87,17.32L3.04,12.87L3.13,14.74L3.21,18.12L3.55,18.3L3.8,11.35L3.97,12.33L4.05,15.27L4.48,15.18L4.65,18.75L4.81,15.45L4.9,13.58L5.32,12.51L5.66,21.69L5.83,21.51L5.91,18.21L6.08,12.87L6.33,18.66L6.5,17.77L6.59,19.82L7.18,21.07L7.35,15.09L7.43,16.34L7.77,20.71L7.94,16.7L8.02,14.65L8.87,24.81L9.21,22.76L9.29,22.14L9.63,19.46L10.05,24.63L10.14,21.78L10.22,21.51L10.3,23.56L10.39,19.64L10.64,24.36L11.06,21.6L11.15,20L11.23,17.23L11.57,20.53L11.91,18.93L11.99,20.89L12.16,22.67L12.42,17.5L12.5,17.5L13.01,22.85L13.09,26.06L13.43,29.44L13.85,26.95L13.94,27.22L14.27,24.19L14.7,26.5L14.78,26.41L14.95,26.24L15.03,26.77L15.12,25.26L15.2,26.06L15.46,22.31L15.54,20.53L15.88,27.75L16.39,25.08L16.47,22.4L17.15,26.77L17.31,26.5L17.4,23.83L19,31.67L19.09,30.16L19.17,32.03L19.68,28.73L19.76,28.82L19.85,29.27L20.1,27.48L20.27,29.62L20.52,28.37L20.61,29.18L21.62,32.74L21.71,33.01L21.96,30.51L22.38,32.3L22.47,32.74L23.14,36.04L23.4,34.53L23.48,35.06L23.56,35.33L23.65,32.65L24.41,27.66L24.58,29.71L24.66,30.34L25,29.89L25.76,33.28L25.85,31.85L26.61,36.13L26.69,34.97L26.77,34.35L27.53,37.82L27.79,36.04L27.87,34.44L29.48,40.76L29.56,38.71L29.98,37.91L30.41,39.96L30.49,38.09L31.17,40.94L31.59,40.41L31.67,40.14L31.84,39.78L32.18,40.76L32.26,40.94L33.19,42.82L33.28,42.1L33.36,42.19L34.54,45.93L34.63,46.47L34.71,45.31L35.05,46.74L35.31,46.74L35.39,47.18L36.07,50.48L36.15,50.75L38.6,57.79L38.85,57.52L38.94,57.61L40.63,62.6L40.71,62.69L41.64,64.92L41.72,62.96L41.89,62.16L43.16,65.46L43.24,65.01L48.9,79.98L48.99,80.07L50.34,82.84L50.42,82.93L54.31,90.95L54.39,91.04L56,93.36L56.08,93.8L59.12,98.53L59.21,98.61L61.15,101.56L61.23,101.82L62.76,103.78L62.84,103.87L72.13,117.24L72.21,117.33L73.31,119.56L73.4,119.83L74.5,120.54L74.58,120.63L80.91,128.21L81,128.39L82.27,129.1L82.35,129.19L89.02,135.61L89.11,135.69L89.95,136.41L90.04,136.5L91.47,138.1L91.56,138.28L93.08,139.97L93.16,140.06L94.17,140.78L94.26,140.95L96.12,143.18L96.2,143.27L97.22,143.9L97.3,144.25L100.76,146.57L100.85,146.75L101.95,147.37L102.03,147.55L111.83,152.36L111.91,152.36L119.09,156.64L119.18,156.82L120.36,157.8L120.44,157.8L121.71,158.51L121.79,158.6L123.65,158.78L123.74,158.78L126.19,159.41L126.27,159.58L128.13,160.47L128.21,160.47L129.31,161.54L129.4,161.54L131.51,161.99L131.59,161.99L133.37,162.61L133.45,162.79L134.89,163.51L134.97,163.68L136.07,164.31L136.15,164.31L138.69,165.02L138.77,165.11L142.15,165.82L142.23,166.09L144.18,166.8L144.26,166.89L146.37,167.61L146.46,167.69L147.55,168.14L147.64,168.14L149.16,168.68L149.24,168.68L152.37,169.3L152.45,169.48L153.3,169.83L153.38,169.83L157.94,170.55L158.03,170.64L161.24,171.53L161.32,171.53L162.5,172.15L162.59,172.51L165.12,173.04L165.21,173.04L169.43,173.76L169.51,173.85L172.05,174.47L172.13,174.65L174.16,174.91L174.24,174.91L177.54,175.63L177.62,175.72L181.68,177.14L181.76,177.14L184.13,177.86L184.21,177.95L188.94,178.66L189.03,178.75L191.81,179.37L191.9,179.55L195.87,180L195.95,180.35L198.06,181.07L198.15,181.15L200.77,181.87L200.85,182.05L203.13,182.31L203.22,182.31L205.33,182.85L205.41,183.12L207.27,183.2L207.35,183.2L212.84,183.83L212.93,184.01L216.22,184.72L216.31,184.81L218.84,185.34L218.92,185.7L224.33,186.41L224.41,186.59L229.9,187.22L229.99,187.39L234.3,188.11L234.38,188.2L237.08,188.73L237.17,189.09L239.45,189.8L239.53,189.98L244.6,190.69L244.69,190.78L248.57,191.4L248.66,191.58L250.18,192.03L250.26,192.39L255.16,193.01L255.24,193.19L256.51,193.9L256.59,193.9L258.62,194.61L258.71,194.7L264.62,195.42L264.7,195.59L266.39,195.68L266.48,195.68L269.6,196.75L269.69,196.75L277.46,197.38L277.54,197.56L283.62,198.27L283.71,198.62L290.3,199.34L290.38,199.43L298.91,200.05L298.99,200.41L303.64,201.12L303.72,201.21L304.57,201.39L304.65,201.39L311.92,201.92L312,202.19L317.41,202.9L317.49,202.99L328.98,203.71L329.06,203.79L337.59,204.51L337.68,204.6L339.11,205.22L339.2,205.4L342.91,206.11L343,206.2L353.89,206.91L353.98,207.09L366.65,207.81L366.73,207.98L382.87,208.7L382.95,208.79L392.66,209.5L392.75,209.59L399.08,210.21L399.17,210.39L404.66,211.01L404.74,211.19L417.16,211.91L417.24,212L429.15,212.71L429.23,212.8L438.1,213.42L438.19,213.6L439.37,213.78L439.45,213.78L440.47,214.22L440.55,214.22L444.35,214.85L444.44,215.03L465.3,215.65" style="vector-effect: non-scaling-stroke; fill: none; stroke: rgb(99, 110, 250); stroke-opacity: 1; stroke-width: 2px; opacity: 1;"/></g><g class="points"/><g class="text"/></g></g></g><g class="overplot"><g class="xy2" transform="translate(60,20)" clip-path="url(#clip30b057xy2plot)"><g class="scatterlayer mlayer"><g class="trace scatter traceaf1561" style="stroke-miterlimit: 2; opacity: 1;"><g class="fills"/><g class="errorbars"/><g class="lines"><path class="js-line" d="M0,11.35L3.72,72.17L3.8,73.32L8.7,126.33L8.78,127.04L13.68,160.04L13.77,160.48L17.31,176.28L17.4,176.6L21.28,188.66L21.37,188.88L25.42,197.44L25.51,197.59L29.82,203.66L29.9,203.75L34.88,208.24L34.97,208.3L40.54,211.33L40.63,211.36L47.64,213.45L47.72,213.47L60.56,215.01L60.64,215.01L82.77,215.57L82.86,215.57L465.3,215.65" style="vector-effect: non-scaling-stroke; fill: none; stroke: rgb(239, 85, 59); stroke-opacity: 1; stroke-width: 2px; opacity: 1;"/></g><g class="points"/><g class="text"/></g></g></g></g><path class="xlines-above crisp" d="M0,0" style="fill: none;"/><path class="ylines-above crisp" d="M0,0" style="fill: none;"/><g class="overlines-above"><path class="xy2-x crisp" d="M0,0" style="fill: none;"/><path class="xy2-y crisp" d="M0,0" style="fill: none;"/></g><g class="xaxislayer-above"><g class="xtick"><text text-anchor="middle" x="0" y="260" transform="translate(60,0)" style="font-family: 'Open Sans', verdana, arial, sans-serif; font-size: 12px; fill: rgb(42, 63, 95); fill-opacity: 1; white-space: pre; opacity: 1;">0</text></g><g class="xtick"><text text-anchor="middle" x="0" y="260" style="font-family: 'Open Sans', verdana, arial, sans-serif; font-size: 12px; fill: rgb(42, 63, 95); fill-opacity: 1; white-space: pre; opacity: 1;" transform="translate(144.45999999999998,0)">1000</text></g><g class="xtick"><text text-anchor="middle" x="0" y="260" style="font-family: 'Open Sans', verdana, arial, sans-serif; font-size: 12px; fill: rgb(42, 63, 95); fill-opacity: 1; white-space: pre; opacity: 1;" transform="translate(228.92,0)">2000</text></g><g class="xtick"><text text-anchor="middle" x="0" y="260" style="font-family: 'Open Sans', verdana, arial, sans-serif; font-size: 12px; fill: rgb(42, 63, 95); fill-opacity: 1; white-space: pre; opacity: 1;" transform="translate(313.39,0)">3000</text></g><g class="xtick"><text text-anchor="middle" x="0" y="260" style="font-family: 'Open Sans', verdana, arial, sans-serif; font-size: 12px; fill: rgb(42, 63, 95); fill-opacity: 1; white-space: pre; opacity: 1;" transform="translate(397.85,0)">4000</text></g><g class="xtick"><text text-anchor="middle" x="0" y="260" style="font-family: 'Open Sans', verdana, arial, sans-serif; font-size: 12px; fill: rgb(42, 63, 95); fill-opacity: 1; white-space: pre; opacity: 1;" transform="translate(482.31,0)">5000</text></g></g><g class="yaxislayer-above"><g class="ytick"><text text-anchor="end" x="59" y="4.199999999999999" transform="translate(0,232.98)" style="font-family: 'Open Sans', verdana, arial, sans-serif; font-size: 12px; fill: rgb(42, 63, 95); fill-opacity: 1; white-space: pre; opacity: 1;">6k</text></g><g class="ytick"><text text-anchor="end" x="59" y="4.199999999999999" style="font-family: 'Open Sans', verdana, arial, sans-serif; font-size: 12px; fill: rgb(42, 63, 95); fill-opacity: 1; white-space: pre; opacity: 1;" transform="translate(0,188.41)">7k</text></g><g class="ytick"><text text-anchor="end" x="59" y="4.199999999999999" style="font-family: 'Open Sans', verdana, arial, sans-serif; font-size: 12px; fill: rgb(42, 63, 95); fill-opacity: 1; white-space: pre; opacity: 1;" transform="translate(0,143.84)">8k</text></g><g class="ytick"><text text-anchor="end" x="59" y="4.199999999999999" style="font-family: 'Open Sans', verdana, arial, sans-serif; font-size: 12px; fill: rgb(42, 63, 95); fill-opacity: 1; white-space: pre; opacity: 1;" transform="translate(0,99.27)">9k</text></g><g class="ytick"><text text-anchor="end" x="59" y="4.199999999999999" style="font-family: 'Open Sans', verdana, arial, sans-serif; font-size: 12px; fill: rgb(42, 63, 95); fill-opacity: 1; white-space: pre; opacity: 1;" transform="translate(0,54.7)">10k</text></g></g><g class="overaxes-above"><g class="xy2-x"/><g class="xy2-y"><g class="y2tick"><text text-anchor="start" x="526.3" y="4.199999999999999" transform="translate(0,235.65)" style="font-family: 'Open Sans', verdana, arial, sans-serif; font-size: 12px; fill: rgb(42, 63, 95); fill-opacity: 1; white-space: pre; opacity: 1;">0</text></g><g class="y2tick"><text text-anchor="start" x="526.3" y="4.199999999999999" style="font-family: 'Open Sans', verdana, arial, sans-serif; font-size: 12px; fill: rgb(42, 63, 95); fill-opacity: 1; white-space: pre; opacity: 1;" transform="translate(0,184.58)">500</text></g><g class="y2tick"><text text-anchor="start" x="526.3" y="4.199999999999999" style="font-family: 'Open Sans', verdana, arial, sans-serif; font-size: 12px; fill: rgb(42, 63, 95); fill-opacity: 1; white-space: pre; opacity: 1;" transform="translate(0,133.5)">1000</text></g><g class="y2tick"><text text-anchor="start" x="526.3" y="4.199999999999999" style="font-family: 'Open Sans', verdana, arial, sans-serif; font-size: 12px; fill: rgb(42, 63, 95); fill-opacity: 1; white-space: pre; opacity: 1;" transform="translate(0,82.43)">1500</text></g><g class="y2tick"><text text-anchor="start" x="526.3" y="4.199999999999999" style="font-family: 'Open Sans', verdana, arial, sans-serif; font-size: 12px; fill: rgb(42, 63, 95); fill-opacity: 1; white-space: pre; opacity: 1;" transform="translate(0,31.35)">2000</text></g></g></g></g><g class="subplot xy2"/></g><g class="polarlayer"/><g class="smithlayer"/><g class="ternarylayer"/><g class="geolayer"/><g class="funnelarealayer"/><g class="pielayer"/><g class="iciclelayer"/><g class="treemaplayer"/><g class="sunburstlayer"/><g class="glimages"/><defs id="topdefs-30b057"><g class="clips"/><clipPath id="legend30b057"><rect width="123" height="48" x="0" y="0"/></clipPath></defs><g class="layer-above"><g class="imagelayer"/><g class="shapelayer"/></g><g class="infolayer"><g class="legend" pointer-events="all" transform="translate(564.9000000000001,20)"><rect class="bg" shape-rendering="crispEdges" style="stroke: rgb(68, 68, 68); stroke-opacity: 1; fill: rgb(255, 255, 255); fill-opacity: 1; stroke-width: 0px;" width="123" height="48" x="0" y="0"/><g class="scrollbox" transform="" clip-path="url(#legend30b057)"><g class="groups"><g class="traces" transform="translate(0,14.5)" style="opacity: 1;"><text class="legendtext" text-anchor="start" x="40" y="4.680000000000001" style="font-family: 'Open Sans', verdana, arial, sans-serif; font-size: 12px; fill: rgb(42, 63, 95); fill-opacity: 1; white-space: pre;">Cost</text><g class="layers" style="opacity: 1;"><g class="legendfill"/><g class="legendlines"><path class="js-line" d="M5,0h30" style="fill: none; stroke: rgb(99, 110, 250); stroke-opacity: 1; stroke-width: 2px;"/></g><g class="legendsymbols"><g class="legendpoints"/></g></g><rect class="legendtoggle" x="0" y="-9.5" width="117.265625" height="19" style="fill: rgb(0, 0, 0); fill-opacity: 0;"/></g><g class="traces" transform="translate(0,33.5)" style="opacity: 1;"><text class="legendtext" text-anchor="start" x="40" y="4.680000000000001" style="font-family: 'Open Sans', verdana, arial, sans-serif; font-size: 12px; fill: rgb(42, 63, 95); fill-opacity: 1; white-space: pre;">Temperature</text><g class="layers" style="opacity: 1;"><g class="legendfill"/><g class="legendlines"><path class="js-line" d="M5,0h30" style="fill: none; stroke: rgb(239, 85, 59); stroke-opacity: 1; stroke-width: 2px;"/></g><g class="legendsymbols"><g class="legendpoints"/></g></g><rect class="legendtoggle" x="0" y="-9.5" width="117.265625" height="19" style="fill: rgb(0, 0, 0); fill-opacity: 0;"/></g></g></g><rect class="scrollbar" rx="20" ry="3" width="0" height="0" style="fill: rgb(128, 139, 164); fill-opacity: 1;" x="0" y="0"/></g><g class="g-gtitle"/><g class="g-xtitle"><text class="xtitle" x="292.65" y="287.8" text-anchor="middle" style="font-family: 'Open Sans', verdana, arial, sans-serif; font-size: 14px; fill: rgb(42, 63, 95); opacity: 1; font-weight: normal; white-space: pre;">Iterations</text></g><g class="g-ytitle" transform="translate(2.1591796875,0)"><text class="ytitle" transform="rotate(-90,11.840625000000003,133.5)" x="11.840625000000003" y="133.5" text-anchor="middle" style="font-family: 'Open Sans', verdana, arial, sans-serif; font-size: 14px; fill: rgb(42, 63, 95); opacity: 1; font-weight: normal; white-space: pre;">Cost</text></g><g class="g-y2title"><text class="y2title" transform="rotate(-90,581.9875,133.5)" x="581.9875" y="133.5" text-anchor="middle" style="font-family: 'Open Sans', verdana, arial, sans-serif; font-size: 14px; fill: rgb(42, 63, 95); opacity: 1; font-weight: normal; white-space: pre;">Temperature</text></g></g></svg>