<svg class="main-svg" xmlns="http://www.w3.org/2000/svg" xmlns:xlink="http://www.w3.org/1999/xlink" width="700" height="300" style="" viewBox="0 0 700 300"><rect x="0" y="0" width="700" height="300" style="fill: rgb(255, 255, 255); fill-opacity: 1;"/><defs id="defs-45207a"><g class="clips"><clipPath id="clip45207axyplot" class="plotclip"><rect width="457.78" height="227"/></clipPath><clipPath id="clip45207axy2plot" class="plotclip"><rect width="457.78" height="227"/></clipPath><clipPath class="axesclip" id="clip45207ax"><rect x="68" y="0" width="457.78" height="300"/></clipPath><clipPath class="axesclip" id="clip45207ay"><rect x="0" y="20" width="700" height="227"/></clipPath><clipPath class="axesclip" id="clip45207axy"><rect x="68" y="20" width="457.78" height="227"/></clipPath><clipPath class="axesclip" id="clip45207ay2"><rect x="0" y="20" width="700" height="227"/></clipPath><clipPath class="axesclip" id="clip45207axy2"><rect x="68" y="20" width="457.78" height="227"/></clipPath></g><g class="gradients"/><g class="patterns"/></defs><g class="bglayer"><rect class="bg" x="68" y="20" width="457.78" height="227" style="fill: rgb(229, 236, 246); fill-opacity: 1; stroke-width: 0;"/></g><g class="layer-below"><g class="imagelayer"/><g class="shapelayer"/></g><g class="cartesianlayer"><g class="subplot xy"><g class="layer-subplot"><g class="shapelayer"/><g class="imagelayer"/></g><g class="gridlayer"><g class="x"><path class="xgrid crisp" transform="translate(169.4,0)" d="M0,20v227" style="stroke: rgb(255, 255, 255); stroke-opacity: 1; stroke-width: 1px;"/><path class="xgrid crisp" transform="translate(270.8,0)" d="M0,20v227" style="stroke: rgb(255, 255, 255); stroke-opacity: 1; stroke-width: 1px;"/><path class="xgrid crisp" transform="translate(372.21,0)" d="M0,20v227" style="stroke: rgb(255, 255, 255); stroke-opacity: 1; stroke-width: 1px;"/><path class="xgrid crisp" transform="translate(473.61,0)" d="M0,20v227" style="stroke: rgb(255, 255, 255); stroke-opacity: 1; stroke-width: 1px;"/></g><g class="y"><path class="ygrid crisp" transform="translate(0,233.01)" d="M68,0h457.78" style="stroke: rgb(255, 255, 255); stroke-opacity: 1; stroke-width: 1px;"/><path class="ygrid crisp" transform="translate(0,169.13)" d="M68,0h457.78" style="stroke: rgb(255, 255, 255); stroke-opacity: 1; stroke-width: 1px;"/><path class="ygrid crisp" transform="translate(0,105.24)" d="M68,0h457.78" style="stroke: rgb(255, 255, 255); stroke-opacity: 1; stroke-width: 1px;"/><path class="ygrid crisp" transform="translate(0,41.36)" d="M68,0h457.78" style="stroke: rgb(255, 255, 255); stroke-opacity: 1; stroke-width: 1px;"/></g><g class="y2"><path class="y2grid crisp" transform="translate(0,184.59)" d="M68,0h457.78" style="stroke: rgb(255, 255, 255); stroke-opacity: 1; stroke-width: 1px;"/><path class="y2grid crisp" transform="translate(0,133.51)" d="M68,0h457.78" style="stroke: rgb(255, 255, 255); stroke-opacity: 1; stroke-width: 1px;"/><path class="y2grid crisp" transform="translate(0,82.43)" d="M68,0h457.78" style="stroke: rgb(255, 255, 255); stroke-opacity: 1; stroke-width: 1px;"/><path class="y2grid crisp" transform="translate(0,31.35)" d="M68,0h457.78" style="stroke: rgb(255, 255, 255); stroke-opacity: 1; stroke-width: 1px;"/></g></g><g class="zerolinelayer"><path class="xzl zl crisp" transform="translate(68,0)" d="M0,20v227" style="stroke: rgb(255, 255, 255); stroke-opacity: 1; stroke-width: 2px;"/><path class="y2zl zl crisp" transform="translate(0,235.67)" d="M68,0h457.78" style="stroke: rgb(255, 255, 255); stroke-opacity: 1; stroke-width: 2px;"/></g><path class="xlines-below"/><path class="ylines-below"/><g class="overlines-below"><path class="xy2-x"/><path class="xy2-y"/></g><g class="xaxislayer-below"/><g class="yaxislayer-below"/><g class="overaxes-below"><g class="xy2-x"/><g class="xy2-y"/></g><g class="plot" transform="translate(68,20)" clip-path="url(#clip45207axyplot)"><g class="scatterlayer mlayer"><g class="trace scatter trace596478" style="stroke-miterlimit: 2; opacity: 1;"><g class="fills"/><g class="errorbars"/><g class="lines"><path class="js-line" d="M0,19.45L0.1,17.51L0.15,20.5L0.2,21.03L0.76,13.22L0.96,20.08L1.01,18.75L1.37,22.44L1.67,16.42L1.72,15.54L1.88,12.07L2.13,15.83L2.18,17.78L2.33,16.8L2.48,20.58L2.54,20.13L2.59,22.57L2.84,23.44L2.94,19.71L3.19,23.2L3.24,25.69L3.5,26.07L4.06,20.72L4.11,22.9L4.16,23.02L4.26,23.7L4.36,21.46L4.77,22.33L4.82,24.9L5.17,20.41L5.37,25.83L5.43,25.15L5.48,22.07L5.53,21.61L5.98,24.32L6.03,24.16L6.08,25.83L6.44,18.04L6.59,20.02L6.64,18.62L7,16.37L7.15,20.45L7.2,23.96L7.3,20.29L7.5,24.26L8.01,20.73L8.06,20.32L8.16,21.88L8.47,19.01L8.52,17.77L8.72,16.06L9.43,23.82L9.58,23.01L9.63,21.21L11,13.65L11.05,14.47L11.1,14.28L11.31,16.11L11.36,17.46L11.66,20.43L12.02,14.9L12.07,16.64L12.12,16.78L12.32,20.87L12.98,20.43L13.03,19.71L13.23,17.38L13.59,20.01L13.64,21.24L13.69,21.46L13.74,19.73L13.79,18.18L14.15,15.46L14.5,23.64L14.65,23.33L14.7,21.19L14.75,21.58L15.06,19.01L15.11,19.36L15.16,18.03L15.41,20.87L15.67,15.46L15.87,18.49L15.92,18.02L15.97,17.86L16.07,18.66L16.12,20.25L16.63,15.62L16.83,20.05L16.88,19.64L17.54,14.37L17.69,15.34L17.75,16.08L17.95,15.25L18.86,23.72L19.06,21.3L19.11,19.95L19.22,22.8L19.77,17.15L19.82,18.76L19.87,19.41L19.98,18.59L20.28,24.01L20.48,20.78L20.53,21.05L20.74,21.75L21.29,11.35L21.55,15.85L21.6,16.15L22.66,26.27L22.76,24.8L22.82,24.3L23.12,24.33L23.32,20.32L23.58,22.92L23.63,23.62L23.93,27.01L24.24,23.24L24.29,21.91L24.69,23.11L24.94,16.63L25.15,19.1L25.2,20.65L25.25,22.65L25.45,17.76L25.91,20.65L25.96,19.41L26.01,18.73L26.36,23.21L26.47,22.01L26.52,22.32L26.77,21.8L27.38,24.54L27.43,23.89L27.63,25.74L27.89,21.82L27.94,20.18L28.14,19.49L28.49,23.47L28.75,21.92L28.8,20.31L29.15,16.07L29.56,19.8L29.61,19.58L29.71,17.68L29.86,21.17L30.22,18.58L30.27,17.52L30.47,15.84L30.93,18.84L31.03,17.9L31.08,18.42L31.18,15.69L31.49,20.06L31.84,17.83L31.89,17.14L32.14,20.8L32.5,17.47L32.55,16.68L32.96,22.12L33.36,20.52L33.41,19.27L33.61,17.82L34.38,23.93L34.43,22.32L34.48,22.45L35.69,29.19L35.79,27.9L35.85,25.4L36.3,21.19L36.4,23.56L36.45,24.68L36.56,25.63L36.66,23.38L36.76,24.71L36.81,25.79L37.21,28.38L37.67,21.53L37.72,20.18L38.03,20.83L38.38,17.59L38.43,19.16L38.48,20.19L38.68,18.97L39.34,23.71L39.45,22.97L39.5,23.11L39.6,24.86L39.75,21.7L40.16,22.07L40.21,20.52L40.26,19.58L40.66,23.09L40.87,21.61L40.92,23.17L41.22,24.98L41.63,22.93L41.68,22.88L41.73,22.57L41.88,25.28L42.18,24.12L42.23,24.32L42.54,25.97L42.69,23.75L42.79,25.85L42.84,25.93L43.2,28.36L43.86,20.93L43.91,21.58L44.01,19.91L44.21,23.7L44.26,25.44L44.31,23.87L44.67,27.05L45.02,24.3L45.07,24.54L45.58,20.83L45.78,23.62L45.83,24.76L45.94,24.2L46.09,25.7L46.14,26.42L46.44,27.73L46.59,24.57L46.9,26.03L46.95,26.22L47.3,31.2L47.66,26.53L47.71,26.53L47.81,27.36L47.86,25.65L47.91,25.82L47.96,25.23L48.83,20.08L48.88,21.06L49.48,25.38L49.84,23.13L49.89,21.71L50.35,26.34L50.75,25.41L50.8,24.99L51.41,20.14L51.61,22.14L51.66,23.48L52.58,27.17L52.63,25.82L52.93,29.38L53.39,27.6L53.44,26.78L53.64,30.09L54.15,27.8L54.2,28L54.35,26.93L54.76,31.18L55.06,31.03L55.11,30.99L55.21,33.07L55.72,27.8L55.77,26.57L55.92,30.22L56.48,25.98L56.53,25.24L56.63,24.52L56.89,28.04L56.94,27.5L56.99,28.5L57.24,25.5L57.65,29.17L57.7,29.04L58,30.17L58.51,26.26L58.56,26.26L58.61,25.03L59.12,27.5L59.27,25.31L59.32,26.56L59.62,30.68L60.18,29.76L60.23,30.1L60.28,28.88L60.54,31.26L60.89,29.68L60.94,31.32L61.04,32.12L61.4,28.25L61.5,28.8L61.55,27.77L61.65,27.04L62.16,29.48L62.21,29.89L62.62,27.67L63.07,28.74L63.12,29.43L63.27,28.78L63.68,32.43L63.93,29.96L63.98,30.19L64.04,29.58L64.39,32.61L64.44,33.31L64.8,31.37L65.25,35.09L65.3,35.36L66.01,29.89L66.16,30.93L66.22,30.96L66.27,28.82L66.67,31.25L66.98,30.37L67.03,30.35L67.23,30.67L67.69,27.02L67.84,29.31L67.89,30.41L68.04,30.31L68.45,33.87L68.5,34.55L68.9,33.35L69.46,36.22L69.51,34.93L69.61,34.5L69.82,36.53L69.87,37.07L71.13,28.69L71.34,29.39L71.39,29.54L71.74,25.52L72.1,29.37L72.15,30L72.35,28.84L73.01,31.03L73.06,30.08L73.16,29.78L74.43,40.51L74.48,40.96L74.78,39.2L74.83,38.16L74.89,37.1L75.34,40.23L75.44,40.17L75.49,39.84L75.54,39.66L75.75,41.01L75.8,42.05L75.85,42.22L76.15,40.66L76.2,40L76.96,35.92L77.07,36.95L77.12,37.15L77.42,39.06L77.67,35.72L77.72,36.35L77.78,35.96L77.98,34.98L78.23,36.93L78.59,36.57L78.64,35.33L79.04,31.02L79.45,33.31L79.5,33.44L80.26,37.24L80.36,35.98L80.41,35.74L80.92,39.75L80.97,40.75L81.27,42.68L81.38,40.42L81.43,37.83L81.53,38.5L81.83,36.13L82.14,37.85L82.19,37.86L82.29,35.67L82.49,38L82.54,38.82L82.85,40.34L83.15,37.97L83.3,39.01L83.35,38.98L83.61,36.25L84.06,38.53L84.11,39.05L84.37,40.13L84.57,38.51L84.82,38.91L84.87,38.48L85.63,35.88L85.68,36.46L85.74,37.33L85.99,35.6L86.45,38.74L86.5,37.38L86.9,35.74L87.1,38.36L87.16,37.23L87.21,36.77L87.51,38.91L88.02,38.45L88.07,39.13L88.32,40.16L88.47,38.34L88.52,38.65L88.57,37.68L89.39,39.92L89.44,39.42L89.89,40.96L89.94,39.34L90.15,39.85L90.2,39.32L91.06,35.97L91.11,36.2L91.72,34.55L91.92,35.18L91.97,35.11L92.43,36.81L92.73,36.77L92.78,35.25L93.54,37.81L93.59,37.14L93.64,37.01L93.7,35.87L94.05,39.8L94.3,37.66L94.35,38.58L95.01,42.16L95.27,41.04L95.32,39.95L95.67,38.65L96.48,44.26L96.64,43.39L96.69,42.7L96.84,41.91L96.99,43.21L97.04,43.39L97.9,47.02L98.21,46.05L98.26,45.03L98.87,48.83L99.07,46.69L99.12,45.67L99.27,45.38L99.53,46.58L99.58,47.19L100.03,45.72L100.19,47.25L100.34,46.33L100.39,46.44L100.64,47.81L100.69,48.21L101,47.93L101.4,49.54L101.5,48.64L101.55,48.83L101.91,50.45L102.26,46.93L102.42,48.37L102.47,48.41L102.67,46.59L103.33,50.09L103.38,49.23L103.94,51.81L104.19,49.94L104.24,49.91L104.7,46.44L104.85,47.67L104.9,48.57L105.86,51.12L105.91,49.8L106.02,50.64L106.27,48.52L106.32,48.61L106.37,47.26L106.78,48.27L107.44,44.62L107.49,44.69L107.54,45.3L107.69,45.19L108.45,47.12L108.5,47.14L108.6,46.86L108.7,47.28L108.8,47.23L108.86,45.32L109.06,45.17L109.92,48.67L109.97,48.81L111.14,52.16L111.19,51.35L111.24,50.85L111.34,50.43L112.05,51.76L112.1,51.55L112.15,50.74L112.56,51.45L112.81,49.85L112.86,50.6L112.91,50.77L113.98,54.15L114.23,54.08L114.28,54.09L114.38,54.61L114.48,53.44L114.89,53.48L114.94,53.16L115.34,55.52L115.55,52.54L115.65,52.94L115.7,53.18L116.05,52.61L116.56,54.01L116.61,53.45L116.92,54.07L117.02,52.24L117.07,50.9L117.63,52.87L118.08,52.5L118.13,51.64L118.94,53.47L119,52.93L119.1,52.29L119.35,53.33L119.65,52.77L119.71,52.45L119.76,51.79L120.21,54.35L120.26,54.19L120.31,54.53L120.57,55.81L120.82,53.47L120.87,53.55L120.92,53.58L121.23,53.18L121.48,54.51L121.53,52.96L122.75,57.27L122.8,57.16L122.95,57.75L123.1,56.03L123.56,57.5L123.61,57.16L124.37,59.41L124.47,58.7L124.52,56.85L124.88,57.61L124.93,56.49L124.98,55.84L125.43,55.73L125.69,57.59L125.74,57.09L125.79,56.17L126.25,57.6L126.3,55.9L126.35,55.11L127.21,58.62L127.26,58.44L127.31,57.23L128.38,61.02L128.43,60.37L129.44,62.01L129.49,61.34L129.95,62.84L130.2,61.59L130.25,60.89L130.81,64.4L131.32,63.22L131.37,63.02L132.28,65.05L132.33,64.67L132.38,63.06L133.39,65.25L133.45,64.72L134.76,68.52L134.81,68.19L134.86,67.06L135.02,67.91L135.12,66.21L135.17,64.56L136.13,67.92L136.18,67.17L136.23,66.46L136.59,67.82L137.15,67.43L137.2,66.62L137.25,65.66L137.91,67.15L137.96,67.52L138.16,67.72L138.21,67.33L138.26,66.33L138.36,66.69L138.72,65.09L138.77,65.11L138.92,63.63L139.38,65.46L139.48,64.94L139.53,65.59L141.56,70.21L141.61,69.53L142.22,70.25L142.27,69.23L142.32,68.83L143.23,71.41L143.28,70.32L144.09,72.05L144.3,71.38L144.35,71.4L145.01,69.08L145.16,69.63L145.21,69.71L145.46,69.17L146.07,71.44L146.12,70.24L146.17,70.24L146.22,69.94L146.68,71.49L146.73,71.65L146.93,70.75L147.59,72.45L147.64,72.46L147.74,72L148.81,76.19L148.96,75.78L149.01,74.75L149.31,75.86L149.47,74.6L149.62,75.3L149.67,75.37L150.13,76.16L150.38,75.27L150.43,75.36L151.09,73.81L151.24,74.16L151.29,74.28L151.34,73.64L151.55,74.37L152,74.34L152.05,74.4L152.31,72.25L152.86,72.84L152.91,73.01L153.73,71.09L153.83,71.87L153.88,71.99L154.89,73.72L154.94,73.9L155.09,73.79L156.92,78.86L156.97,78.63L157.88,80.71L157.93,80.85L158.95,82.96L159,82.43L159.66,81.13L159.96,81.85L160.01,82.02L161.03,84L161.08,83.41L161.13,82.46L161.38,82.61L161.69,80.98L161.94,81.81L161.99,82.21L162.9,83.91L162.95,83.97L163.05,82.33L163.71,82.91L163.76,83.02L164.32,81.62L164.58,82.44L164.63,82.46L166,84.46L166.05,84.48L166.3,84.2L167.01,84.92L167.06,84.71L167.11,84.71L168.33,86.76L168.38,86.85L168.68,88.25L168.73,88.47L169.24,90.62L169.7,90.47L169.75,89.74L169.85,89.49L171.01,92.16L171.07,92.17L175.48,101.52L175.53,101.25L175.58,100.76L175.93,101.92L176.24,101.63L176.29,101.68L177.56,103.33L177.61,102.67L177.81,102.28L179.33,105.07L179.63,104.37L179.68,104.2L179.84,104.39L179.99,103.33L180.14,103.66L180.19,103.07L180.24,103.22L180.29,102.72L180.55,103.04L180.6,101.81L181.97,104.12L182.02,103.32L183.69,106.68L183.79,106.02L183.84,105.54L184.75,107.38L184.96,106.83L185.01,106.85L186.17,104.79L186.23,104.83L187.24,105.93L187.29,106.15L188.2,107.92L188.35,107.83L188.41,107.16L188.86,105.49L189.17,106.48L189.22,106.62L189.42,106.47L190.53,109.23L190.59,108.6L192.06,109.82L192.11,108.97L192.16,108.56L192.82,109.26L192.87,109.37L193.02,109.83L193.37,108.79L193.58,109.04L193.63,109.11L194.13,110.64L194.54,110.38L194.59,110.39L195.91,111.89L195.96,111.39L196.01,111.01L196.82,111.56L196.87,110.79L197.02,111.47L197.23,110.53L197.68,111.34L197.73,111.37L197.89,110.9L199.36,113.25L199.41,111.88L199.46,111.11L200.12,112.42L200.17,112.42L201.28,113.39L201.33,113.46L201.49,113.47L201.54,112.39L203.62,115.52L203.82,115.14L203.87,114.81L204.07,114.97L204.12,114.42L204.17,114.58L204.22,114.09L205.59,115.38L205.64,114.97L206.4,115.94L206.45,114.94L209.29,118.66L209.34,118.18L209.7,118.67L209.85,117.49L209.95,117.86L210,117.23L212.44,120.8L212.69,120.6L212.74,119.92L212.84,119.57L213.45,120.11L213.5,120.12L213.96,119.93L214.52,121.65L214.57,121.14L216.04,122.72L216.09,122.8L217.1,124.55L217.15,123.96L217.2,123.49L218.07,124.84L218.12,125.02L222.02,130.62L222.07,129.87L224.76,132.87L224.81,133.06L226.43,134.21L226.48,134.26L228.1,135.77L228.15,135.77L229.93,138.12L229.98,137.32L233.02,140.15L233.22,139.89L233.28,139.89L235.2,141.67L235.25,141.73L236.77,142.83L236.82,142.94L237.74,144.07L237.79,143.37L238.35,144.15L238.4,144.24L238.65,144.51L238.7,143.61L239.11,144.15L239.16,144.15L240.32,145.51L240.37,145.79L241.64,147.69L241.69,147.74L244.58,149.47L244.63,149.57L246.86,151.13L246.91,151.26L250.82,154.02L250.87,154.04L251.93,154.84L251.98,155.14L253.76,156.49L253.81,156.54L254.42,157.19L254.47,157.39L257.31,159.03L257.36,159.14L258.68,160.52L258.73,160.56L259.74,161.36L259.79,161.42L262.23,162.97L262.28,163.1L263.59,164.34L263.65,164.34L266.28,165.97L266.33,165.97L267.8,166.69L267.85,166.69L270.19,167.43L270.24,167.45L271.05,168.37L271.1,168.57L272.42,169.29L272.47,169.29L277.74,171.7L277.79,171.84L285.14,174.75L285.19,174.9L286.26,175.58L286.31,175.66L288.84,176.91L288.89,177.1L290.62,177.77L290.67,177.77L295.23,179.99L295.28,180.15L296.85,180.74L296.91,180.94L298.73,181.9L298.78,181.9L299.8,182.54L299.85,182.71L303.65,184.14L303.7,184.26L305.58,185.22L305.63,185.28L307.6,186.23L307.65,186.34L309.94,186.89L309.99,186.89L312.07,187.52L312.12,187.52L315.77,188.22L315.82,188.33L317.29,189L317.34,189L319.42,189.67L319.47,189.76L322.86,190.72L322.92,190.74L327.78,192.24L327.83,192.24L331.53,192.99L331.59,193L335.13,193.71L335.18,193.8L337.21,194.63L337.26,194.71L341.12,195.43L341.17,195.47L366.11,201.1L366.16,201.32L369.97,201.95L370.02,201.95L375.29,203.2L375.34,203.2L381.37,203.86L381.42,203.98L386.04,204.92L386.09,204.92L390.8,205.65L390.85,205.76L395.11,206.51L395.16,206.59L399.02,207.21L399.07,207.37L403.07,208.11L403.12,208.21L406.83,208.95L406.88,209.03L452.66,214.86L452.71,214.86L456.31,215.61L456.36,215.64L457.78,215.65" style="vector-effect: non-scaling-stroke; fill: none; stroke: rgb(99, 110, 250); stroke-opacity: 1; stroke-width: 2px; opacity: 1;"/></g><g class="points"/><g class="text"/></g></g></g><g class="overplot"><g class="xy2" transform="translate(68,20)" clip-path="url(#clip45207axy2plot)"><g class="scatterlayer mlayer"><g class="trace scatter trace40d631" style="stroke-miterlimit: 2; opacity: 1;"><g class="fills"/><g class="errorbars"/><g class="lines"><path class="js-line" d="M0,11.35L9.48,46.21L9.53,46.38L17.8,71.86L17.85,72L24.69,90.15L24.74,90.28L33.51,110.21L33.56,110.31L45.02,131.64L45.07,131.72L53.54,144.64L53.59,144.71L63.53,157.35L63.58,157.4L71.94,166.27L72,166.32L81.48,174.74L81.53,174.78L89.69,180.87L89.74,180.9L98.71,186.55L98.77,186.57L109.51,192.14L109.57,192.16L123.25,197.73L123.31,197.74L133.55,201.03L133.6,201.04L155.7,206.21L155.75,206.22L177.15,209.48L177.2,209.48L199.15,211.66L199.2,211.66L212.84,212.61L212.89,212.61L250.36,214.21L250.41,214.21L268.26,214.65L268.31,214.65L336.05,215.4L336.1,215.41L457.78,215.65" style="vector-effect: non-scaling-stroke; fill: none; stroke: rgb(239, 85, 59); stroke-opacity: 1; stroke-width: 2px; opacity: 1;"/></g><g class="points"/><g class="text"/></g></g></g></g><path class="xlines-above crisp" d="M0,0" style="fill: none;"/><path class="ylines-above crisp" d="M0,0" style="fill: none;"/><g class="overlines-above"><path class="xy2-x crisp" d="M0,0" style="fill: none;"/><path class="xy2-y crisp" d="M0,0" style="fill: none;"/></g><g class="xaxislayer-above"><g class="xtick"><text text-anchor="middle" x="0" y="260" transform="translate(68,0)" style="font-family: 'Open Sans', verdana, arial, sans-serif; font-size: 12px; fill: rgb(42, 63, 95); fill-opacity: 1; white-space: pre; opacity: 1;">0</text></g><g class="xtick"><text text-anchor="middle" x="0" y="260" style="font-family: 'Open Sans', verdana, arial, sans-serif; font-size: 12px; fill: rgb(42, 63, 95); fill-opacity: 1; white-space: pre; opacity: 1;" transform="translate(169.4,0)">2000</text></g><g class="xtick"><text text-anchor="middle" x="0" y="260" style="font-family: 'Open Sans', verdana, arial, sans-serif; font-size: 12px; fill: rgb(42, 63, 95); fill-opacity: 1; white-space: pre; opacity: 1;" transform="translate(270.8,0)">4000</text></g><g class="xtick"><text text-anchor="middle" x="0" y="260" style="font-family: 'Open Sans', verdana, arial, sans-serif; font-size: 12px; fill: rgb(42, 63, 95); fill-opacity: 1; white-space: pre; opacity: 1;" transform="translate(372.21,0)">6000</text></g><g class="xtick"><text text-anchor="middle" x="0" y="260" style="font-family: 'Open Sans', verdana, arial, sans-serif; font-size: 12px; fill: rgb(42, 63, 95); fill-opacity: 1; white-space: pre; opacity: 1;" transform="translate(473.61,0)">8000</text></g></g><g class="yaxislayer-above"><g class="ytick"><text text-anchor="end" x="67" y="4.199999999999999" transform="translate(0,233.01)" style="font-family: 'Open Sans', verdana, arial, sans-serif; font-size: 12px; fill: rgb(42, 63, 95); fill-opacity: 1; white-space: pre; opacity: 1;">300k</text></g><g class="ytick"><text text-anchor="end" x="67" y="4.199999999999999" style="font-family: 'Open Sans', verdana, arial, sans-serif; font-size: 12px; fill: rgb(42, 63, 95); fill-opacity: 1; white-space: pre; opacity: 1;" transform="translate(0,169.13)">350k</text></g><g class="ytick"><text text-anchor="end" x="67" y="4.199999999999999" style="font-family: 'Open Sans', verdana, arial, sans-serif; font-size: 12px; fill: rgb(42, 63, 95); fill-opacity: 1; white-space: pre; opacity: 1;" transform="translate(0,105.24)">400k</text></g><g class="ytick"><text text-anchor="end" x="67" y="4.199999999999999" style="font-family: 'Open Sans', verdana, arial, sans-serif; font-size: 12px; fill: rgb(42, 63, 95); fill-opacity: 1; white-space: pre; opacity: 1;" transform="translate(0,41.36)">450k</text></g></g><g class="overaxes-above"><g class="xy2-x"/><g class="xy2-y"><g class="y2tick"><text text-anchor="start" x="526.78" y="4.199999999999999" transform="translate(0,235.67)" style="font-family: 'Open Sans', verdana, arial, sans-serif; font-size: 12px; fill: rgb(42, 63, 95); fill-opacity: 1; white-space: pre; opacity: 1;">0</text></g><g class="y2tick"><text text-anchor="start" x="526.78" y="4.199999999999999" style="font-family: 'Open Sans', verdana, arial, sans-serif; font-size: 12px; fill: rgb(42, 63, 95); fill-opacity: 1; white-space: pre; opacity: 1;" transform="translate(0,184.59)">500</text></g><g class="y2tick"><text text-anchor="start" x="526.78" y="4.199999999999999" style="font-family: 'Open Sans', verdana, arial, sans-serif; font-size: 12px; fill: rgb(42, 63, 95); fill-opacity: 1; white-space: pre; opacity: 1;" transform="translate(0,133.51)">1000</text></g><g class="y2tick"><text text-anchor="start" x="526.78" y="4.199999999999999" style="font-family: 'Open Sans', verdana, arial, sans-serif; font-size: 12px; fill: rgb(42, 63, 95); fill-opacity: 1; white-space: pre; opacity: 1;" transform="translate(0,82.43)">1500</text></g><g class="y2tick"><text text-anchor="start" x="526.78" y="4.199999999999999" style="font-family: 'Open Sans', verdana, arial, sans-serif; font-size: 12px; fill: rgb(42, 63, 95); fill-opacity: 1; white-space: pre; opacity: 1;" transform="translate(0,31.35)">2000</text></g></g></g></g><g class="subplot xy2"/></g><g class="polarlayer"/><g class="smithlayer"/><g class="ternarylayer"/><g class="geolayer"/><g class="funnelarealayer"/><g class="pielayer"/><g class="iciclelayer"/><g class="treemaplayer"/><g class="sunburstlayer"/><g class="glimages"/><defs id="topdefs-45207a"><g class="clips"/><clipPath id="legend45207a"><rect width="123" height="48" x="0" y="0"/></clipPath></defs><g class="layer-above"><g class="imagelayer"/><g class="shapelayer"/></g><g class="infolayer"><g class="legend" pointer-events="all" transform="translate(564.74,20)"><rect class="bg" shape-rendering="crispEdges" width="123" height="48" x="0" y="0" style="stroke: rgb(68, 68, 68); stroke-opacity: 1; fill: rgb(255, 255, 255); fill-opacity: 1; stroke-width: 0px;"/><g class="scrollbox" transform="" clip-path="url(#legend45207a)"><g class="groups"><g class="traces" transform="translate(0,14.5)" style="opacity: 1;"><text class="legendtext" text-anchor="start" x="40" y="4.680000000000001" style="font-family: 'Open Sans', verdana, arial, sans-serif; font-size: 12px; fill: rgb(42, 63, 95); fill-opacity: 1; white-space: pre;">Cost</text><g class="layers" style="opacity: 1;"><g class="legendfill"/><g class="legendlines"><path class="js-line" d="M5,0h30" style="fill: none; stroke: rgb(99, 110, 250); stroke-opacity: 1; stroke-width: 2px;"/></g><g class="legendsymbols"><g class="legendpoints"/></g></g><rect class="legendtoggle" x="0" y="-9.5" width="117.265625" height="19" style="fill: rgb(0, 0, 0); fill-opacity: 0;"/></g><g class="traces" transform="translate(0,33.5)" style="opacity: 1;"><text class="legendtext" text-anchor="start" x="40" y="4.680000000000001" style="font-family: 'Open Sans', verdana, arial, sans-serif; font-size: 12px; fill: rgb(42, 63, 95); fill-opacity: 1; white-space: pre;">Temperature</text><g class="layers" style="opacity: 1;"><g class="legendfill"/><g class="legendlines"><path class="js-line" d="M5,0h30" style="fill: none; stroke: rgb(239, 85, 59); stroke-opacity: 1; stroke-width: 2px;"/></g><g class="legendsymbols"><g class="legendpoints"/></g></g><rect class="legendtoggle" x="0" y="-9.5" width="117.265625" height="19" style="fill: rgb(0, 0, 0); fill-opacity: 0;"/></g></g></g><rect class="scrollbar" rx="20" ry="3" width="0" height="0" x="0" y="0" style="fill: rgb(128, 139, 164); fill-opacity: 1;"/></g><g class="g-gtitle"/><g class="g-xtitle"><text class="xtitle" x="296.89" y="287.8" text-anchor="middle" style="font-family: 'Open Sans', verdana, arial, sans-serif; font-size: 14px; fill: rgb(42, 63, 95); opacity: 1; font-weight: normal; white-space: pre;">Iterations</text></g><g class="g-ytitle" transform="translate(1.7998046875,0)"><text class="ytitle" transform="rotate(-90,12.200000000000003,133.5)" x="12.200000000000003" y="133.5" text-anchor="middle" style="font-family: 'Open Sans', verdana, arial, sans-serif; font-size: 14px; fill: rgb(42, 63, 95); opacity: 1; font-weight: normal; white-space: pre;">Cost</text></g><g class="g-y2title"><text class="y2title" transform="rotate(-90,582.471875,133.5)" x="582.471875" y="133.5" text-anchor="middle" style="font-family: 'Open Sans', verdana, arial, sans-serif; font-size: 14px; fill: rgb(42, 63, 95); opacity: 1; font-weight: normal; white-space: pre;">Temperature</text></g></g></svg>