<svg class="main-svg" xmlns="http://www.w3.org/2000/svg" xmlns:xlink="http://www.w3.org/1999/xlink" width="700" height="300" style="" viewBox="0 0 700 300"><rect x="0" y="0" width="700" height="300" style="fill: rgb(255, 255, 255); fill-opacity: 1;"/><defs id="defs-10e844"><g class="clips"><clipPath id="clip10e844xyplot" class="plotclip"><rect width="465.29999999999995" height="227"/></clipPath><clipPath id="clip10e844xy2plot" class="plotclip"><rect width="465.29999999999995" height="227"/></clipPath><clipPath class="axesclip" id="clip10e844x"><rect x="60" y="0" width="465.29999999999995" height="300"/></clipPath><clipPath class="axesclip" id="clip10e844y"><rect x="0" y="20" width="700" height="227"/></clipPath><clipPath class="axesclip" id="clip10e844xy"><rect x="60" y="20" width="465.29999999999995" height="227"/></clipPath><clipPath class="axesclip" id="clip10e844y2"><rect x="0" y="20" width="700" height="227"/></clipPath><clipPath class="axesclip" id="clip10e844xy2"><rect x="60" y="20" width="465.29999999999995" height="227"/></clipPath></g><g class="gradients"/><g class="patterns"/></defs><g class="bglayer"><rect class="bg" x="60" y="20" width="465.29999999999995" height="227" style="fill: rgb(229, 236, 246); fill-opacity: 1; stroke-width: 0;"/></g><g class="layer-below"><g class="imagelayer"/><g class="shapelayer"/></g><g class="cartesianlayer"><g class="subplot xy"><g class="layer-subplot"><g class="shapelayer"/><g class="imagelayer"/></g><g class="gridlayer"><g class="x"><path class="xgrid crisp" transform="translate(172.68,0)" d="M0,20v227" style="stroke: rgb(255, 255, 255); stroke-opacity: 1; stroke-width: 1px;"/><path class="xgrid crisp" transform="translate(285.35,0)" d="M0,20v227" style="stroke: rgb(255, 255, 255); stroke-opacity: 1; stroke-width: 1px;"/><path class="xgrid crisp" transform="translate(398.03,0)" d="M0,20v227" style="stroke: rgb(255, 255, 255); stroke-opacity: 1; stroke-width: 1px;"/><path class="xgrid crisp" transform="translate(510.71,0)" d="M0,20v227" style="stroke: rgb(255, 255, 255); stroke-opacity: 1; stroke-width: 1px;"/></g><g class="y"><path class="ygrid crisp" transform="translate(0,241.14)" d="M60,0h465.29999999999995" style="stroke: rgb(255, 255, 255); stroke-opacity: 1; stroke-width: 1px;"/><path class="ygrid crisp" transform="translate(0,201.35)" d="M60,0h465.29999999999995" style="stroke: rgb(255, 255, 255); stroke-opacity: 1; stroke-width: 1px;"/><path class="ygrid crisp" transform="translate(0,161.55)" d="M60,0h465.29999999999995" style="stroke: rgb(255, 255, 255); stroke-opacity: 1; stroke-width: 1px;"/><path class="ygrid crisp" transform="translate(0,121.76)" d="M60,0h465.29999999999995" style="stroke: rgb(255, 255, 255); stroke-opacity: 1; stroke-width: 1px;"/><path class="ygrid crisp" transform="translate(0,81.97)" d="M60,0h465.29999999999995" style="stroke: rgb(255, 255, 255); stroke-opacity: 1; stroke-width: 1px;"/><path class="ygrid crisp" transform="translate(0,42.17)" d="M60,0h465.29999999999995" style="stroke: rgb(255, 255, 255); stroke-opacity: 1; stroke-width: 1px;"/></g><g class="y2"><path class="y2grid crisp" transform="translate(0,184.61)" d="M60,0h465.29999999999995" style="stroke: rgb(255, 255, 255); stroke-opacity: 1; stroke-width: 1px;"/><path class="y2grid crisp" transform="translate(0,133.53)" d="M60,0h465.29999999999995" style="stroke: rgb(255, 255, 255); stroke-opacity: 1; stroke-width: 1px;"/><path class="y2grid crisp" transform="translate(0,82.44)" d="M60,0h465.29999999999995" style="stroke: rgb(255, 255, 255); stroke-opacity: 1; stroke-width: 1px;"/><path class="y2grid crisp" transform="translate(0,31.35)" d="M60,0h465.29999999999995" style="stroke: rgb(255, 255, 255); stroke-opacity: 1; stroke-width: 1px;"/></g></g><g class="zerolinelayer"><path class="xzl zl crisp" transform="translate(60,0)" d="M0,20v227" style="stroke: rgb(255, 255, 255); stroke-opacity: 1; stroke-width: 2px;"/><path class="y2zl zl crisp" transform="translate(0,235.7)" d="M60,0h465.29999999999995" style="stroke: rgb(255, 255, 255); stroke-opacity: 1; stroke-width: 2px;"/></g><path class="xlines-below"/><path class="ylines-below"/><g class="overlines-below"><path class="xy2-x"/><path class="xy2-y"/></g><g class="xaxislayer-below"/><g class="yaxislayer-below"/><g class="overaxes-below"><g class="xy2-x"/><g class="xy2-y"/></g><g class="plot" transform="translate(60,20)" clip-path="url(#clip10e844xyplot)"><g class="scatterlayer mlayer"><g class="trace scatter tracec100f7" style="stroke-miterlimit: 2; opacity: 1;"><g class="fills"/><g class="errorbars"/><g class="lines"><path class="js-line" d="M0,15.97L0.17,12.7L0.68,24.88L0.85,20.1L0.9,16.84L1.01,15.89L1.41,27.11L1.63,19.95L1.69,16.36L1.8,22.41L2.03,14.85L2.42,16.84L2.48,15.81L3.1,28.86L3.27,26.95L3.32,17.72L3.38,16.13L3.66,21.7L3.89,18.99L3.94,22.81L4.06,23.69L4.28,23.21L4.34,17.32L4.62,25.04L5.13,20.66L5.18,22.49L5.3,15.01L5.58,24.64L5.92,16.68L5.97,22.65L6.14,12.78L6.7,21.94L6.76,23.45L6.82,20.74L7.32,31.72L7.38,32.6L8.06,15.89L8.23,21.06L8.28,22.09L8.34,24.24L8.79,17.16L8.85,17.4L8.9,16.76L9.07,14.93L9.3,23.92L9.63,17.24L9.69,15.33L10.42,25.28L10.54,24.24L10.59,19.31L10.93,27.19L11.21,15.89L11.32,20.02L11.38,18.04L11.94,26.47L12.17,26.39L12.23,23.45L12.28,25.99L12.73,16.84L12.79,13.26L12.96,22.17L13.58,17.96L13.63,15.49L13.69,14.53L13.97,19.31L14.14,18.43L14.2,23.45L14.42,24.72L14.54,20.42L14.59,14.85L14.82,11.99L15.16,22.97L15.38,19.47L15.44,17.8L15.72,24.8L16.11,17.24L16.17,17.4L16.23,14.61L16.62,11.35L16.85,17.88L16.9,16.68L16.96,20.02L17.07,22.33L17.24,16.68L17.3,16.28L17.58,15.25L18.08,23.85L18.2,21.7L18.25,17.64L18.42,22.49L18.59,16.13L19.04,19.95L19.1,19.47L19.27,17.24L19.44,23.13L19.61,19.71L19.66,28.06L20.51,20.26L20.56,23.53L20.68,17.4L20.85,24.24L21.3,21.38L21.35,24.48L21.75,27.74L22.03,18.51L22.14,19.23L22.2,22.25L22.65,24.24L22.76,19.39L22.82,24.08L22.87,25.2L23.61,15.97L23.77,17.32L23.83,17.08L24.45,27.59L24.62,25.12L24.68,19.47L24.9,22.25L25.01,19.39L25.18,20.74L25.24,19.55L25.41,15.73L25.47,18.67L25.52,26.15L25.63,29.97L25.86,18.67L26.14,22.81L26.2,21.22L26.37,17.48L26.65,25.44L26.93,22.01L26.99,19.63L27.1,18.75L27.83,25.28L27.94,24.56L28,22.73L28.06,19.39L28.39,30.37L28.73,21.14L28.79,23.21L28.96,16.6L29.18,24.4L29.58,20.18L29.63,19.87L29.8,16.6L30.48,23.53L30.54,18.35L30.99,17.48L31.44,26.87L31.49,26.71L31.55,24.56L31.66,22.49L31.72,28.38L32.34,23.13L32.39,23.53L32.85,27.67L32.96,22.17L33.18,26.79L33.24,22.17L33.75,25.76L34.2,14.29L34.25,18.04L34.54,12.94L34.82,21.7L34.87,20.82L34.93,20.82L35.1,17.32L35.55,24.48L35.61,25.76L35.72,27.35L35.83,24.56L35.89,23.21L35.94,23.61L36.06,20.58L36.11,15.89L36.17,14.93L36.39,21.7L36.45,24.96L36.62,21.7L36.96,24.16L37.01,24.48L37.18,20.5L37.3,24.72L37.69,21.54L37.75,25.91L37.92,22.57L38.03,27.43L38.08,29.5L38.42,15.57L38.93,23.05L38.99,23.69L39.32,26.79L39.72,18.59L39.78,18.91L39.83,20.9L40.45,20.42L40.73,27.43L40.9,25.76L40.96,24.88L41.3,28.3L41.69,19.39L41.8,19.55L41.86,20.02L42.08,23.85L42.14,19.07L42.2,17.4L42.54,24.4L43.04,23.69L43.1,25.68L43.38,20.02L43.66,26.87L43.89,23.45L43.94,24.64L44.28,18.59L44.62,22.49L44.68,22.73L44.79,24.72L44.9,21.22L45.35,22.33L45.41,19.63L45.58,16.52L46.2,23.05L46.25,22.09L46.31,20.9L46.48,24.4L46.76,15.33L46.93,19.87L46.99,18.19L47.1,25.68L47.49,17.24L47.66,22.09L47.72,19.07L48.56,26.23L48.62,24.96L48.68,22.97L48.9,25.68L49.01,20.82L49.07,25.04L49.13,26.15L49.52,29.34L49.75,24.64L49.86,25.36L49.92,24.24L50.03,25.36L50.08,22.01L50.25,22.73L50.31,19.39L51.44,33.16L51.49,31.49L51.55,29.81L51.61,30.05L51.66,27.9L51.83,29.1L51.89,25.52L51.94,21.22L52.45,27.82L52.62,25.68L52.68,25.44L52.73,28.46L53.07,22.57L53.41,27.51L53.47,25.99L53.75,22.41L53.97,28.78L54.08,24.64L54.14,22.17L54.25,24.88L54.31,23.85L54.37,26.31L55.04,20.42L55.21,22.09L55.27,23.69L55.66,30.53L56,17.56L56.06,20.98L56.11,21.86L56.28,23.53L56.51,19.71L56.62,21.86L56.68,25.52L56.73,26.63L56.96,19.47L57.01,20.66L57.07,17.16L57.69,22.97L57.92,22.09L57.97,21.7L58.2,19.07L58.25,21.94L58.48,21.54L58.54,23.92L58.65,24.96L58.7,23.53L58.76,24.8L58.82,20.34L58.93,17.56L59.49,23.37L59.55,22.01L59.61,18.59L59.83,16.92L60.39,26.87L60.79,26.47L60.85,23.85L61.24,28.06L61.41,22.09L61.58,23.77L61.63,23.13L61.86,23.05L62.31,32.44L62.54,29.02L62.59,24.48L62.82,26.23L63.21,20.02L63.32,21.3L63.38,23.21L63.44,23.37L63.49,21.62L63.55,21.62L63.61,20.34L63.78,20.18L63.83,20.9L63.89,23.05L64,20.74L64.68,29.34L64.85,27.9L64.9,26.39L65.01,21.06L65.63,26.95L65.69,29.5L65.75,30.21L65.86,24.4L65.97,25.12L66.03,23.29L66.25,24.72L66.48,22.17L66.59,23.29L66.65,27.51L66.82,23.37L67.32,28.78L67.38,29.34L67.61,32.44L67.66,34.03L68.28,23.45L68.51,24.88L68.56,26.15L68.79,26.39L69.07,17.32L69.41,20.66L69.47,23.21L69.63,22.17L69.86,26.15L70.2,24.72L70.25,22.81L70.31,19.79L70.7,25.12L70.99,20.26L71.04,20.9L71.27,19.63L71.61,23.69L71.66,24L72.11,31.01L72.4,27.82L72.45,25.04L72.51,24L72.9,30.13L73.01,28.3L73.07,28.3L73.52,26.47L73.86,33.24L73.97,33.16L74.03,34.03L74.65,26.23L74.87,27.59L74.93,28.38L75.66,18.19L75.78,20.98L75.83,20.82L76.62,28.62L77.01,28.06L77.07,26.47L77.18,25.99L77.63,33.16L77.97,32.12L78.03,29.89L78.37,31.8L78.42,28.3L78.48,28.46L78.93,30.21L78.99,26.87L79.1,29.18L79.16,26.23L79.38,28.78L79.44,30.53L79.55,31.72L79.78,24.4L79.89,25.68L79.94,22.81L80.23,22.33L80.56,29.02L80.9,26.55L80.96,24.4L81.13,27.74L81.69,25.36L81.75,24.64L81.92,26.15L82.03,22.41L82.25,24.88L82.31,20.98L82.99,27.35L83.04,23.05L84.06,29.26L84.11,26.71L84.85,33.63L84.9,31.57L84.96,30.61L85.01,31.01L85.24,27.11L85.41,28.46L85.47,27.74L85.58,26.55L86.42,32.28L86.48,27.11L86.65,21.06L87.16,29.58L87.21,29.58L87.27,32.12L87.78,26.87L87.94,29.1L88,29.02L88.06,29.42L88.28,26.23L88.4,27.67L88.45,26.95L89.13,35.78L89.3,31.09L89.35,29.42L89.69,31.41L90.42,22.17L90.48,22.97L90.54,21.06L90.93,26.55L91.1,24.16L91.16,25.76L91.21,25.36L91.38,28.54L91.66,27.51L91.72,27.59L92.73,34.51L92.79,31.41L92.85,30.69L93.58,25.68L93.63,25.99L93.69,26.47L94.48,35.31L94.59,32.84L94.65,31.09L94.71,31.25L94.76,30.61L94.82,28.38L94.99,31.25L95.04,29.34L95.1,28.22L95.38,27.43L95.55,29.73L95.61,30.85L96.23,35.78L96.28,33.55L96.34,30.53L96.9,37.22L97.13,31.33L97.18,31.57L97.47,35.86L97.86,31.49L97.92,30.21L98.25,32.84L98.65,25.83L98.82,27.74L98.87,28.7L98.93,28.86L98.99,27.43L99.16,28.3L99.21,30.53L99.66,29.58L100.17,36.74L100.23,35.15L100.28,35.39L100.45,38.09L100.51,34.75L100.56,35.46L100.62,33.08L100.73,32.2L100.9,33.55L100.96,30.37L101.07,28.7L103.04,45.89L103.1,42.95L103.16,40L104.11,34.75L104.28,36.26L104.34,36.98L104.79,32.04L105.13,34.27L105.18,35.07L105.97,39.05L106.03,35.54L106.14,33.24L106.54,36.26L106.71,36.1L106.76,36.18L106.82,33.32L107.32,38.65L107.44,38.09L107.49,40.16L107.66,38.25L108.28,42.79L108.34,40.8L108.96,35.46L109.18,37.85L109.24,39.21L109.3,40.24L109.75,35.78L109.8,36.18L109.86,35.7L110.31,37.85L110.42,34.83L110.48,32.28L111.78,41.2L111.83,39.36L111.89,39.6L112,39.05L112.51,43.26L112.85,42.31L112.9,42.31L113.02,42.87L113.24,40.32L113.35,40.88L113.41,38.25L113.69,31.49L114.31,32.44L114.37,33.48L115.04,39.21L115.27,38.41L115.32,37.77L115.72,39.52L115.78,36.02L116.23,37.69L116.28,35.39L116.4,37.45L116.45,37.53L116.73,31.8L117.18,34.11L117.24,34.59L118.37,39.68L118.48,39.21L118.54,37.61L118.76,35.46L119.16,40.08L119.21,40.16L119.33,36.9L119.66,42.71L120,40.8L120.06,40.88L120.11,41.04L120.17,37.14L121.07,46.29L121.18,41.59L121.24,39.6L121.75,32.04L122.14,32.76L122.2,34.59L122.31,33.32L122.76,37.93L123.33,37.22L123.38,34.91L123.78,39.36L123.89,36.02L123.94,34.75L124.34,35.23L124.56,34.03L124.62,31.01L125.92,39.92L126.03,39.05L126.09,38.65L126.2,36.66L126.48,39.76L126.93,39.52L126.99,38.81L127.38,40.48L127.78,35.39L127.94,36.18L128,36.34L128.4,40.16L128.85,39.6L128.9,36.26L129.41,33.48L129.52,34.75L129.58,36.02L129.63,35.31L129.86,38.81L130.2,36.98L130.25,37.61L130.65,41.35L130.99,40L131.04,37.45L132.23,48.12L132.28,46.69L132.34,45.41L132.56,44.62L132.96,47.48L133.18,46.77L133.24,45.73L133.58,47.32L133.75,41.91L134.03,43.5L134.09,43.58L134.25,42.55L134.48,44.06L134.82,43.66L134.87,44.14L134.99,44.78L135.04,43.26L135.1,40.88L135.83,44.86L136.06,42.79L136.11,42.87L136.45,44.94L136.56,43.82L136.62,42.47L137.07,46.85L137.3,44.54L137.35,43.82L137.58,45.49L137.75,43.5L137.8,41.27L137.86,41.67L137.97,39.44L138.03,39.84L138.09,37.93L139.27,46.05L139.38,44.78L139.44,43.98L141.47,54.72L141.52,52.18L141.75,53.85L141.8,51.22L141.97,52.97L142.03,50.43L142.14,50.51L142.42,46.69L142.76,47.32L142.82,48.52L142.87,46.37L143.49,48.99L143.55,49.95L143.94,50.75L144.06,48.28L144.17,50.43L144.23,50.59L144.28,49.07L144.85,52.81L144.9,53.05L145.18,56L145.47,52.58L145.58,54.17L145.64,52.02L145.97,47.48L146.48,49.55L146.54,49.87L146.59,50.19L146.82,47.08L147.16,49.07L147.21,47.4L147.44,44.86L148,46.45L148.06,46.69L148.17,45.09L148.62,47.48L148.85,45.25L148.9,45.97L150.09,52.18L150.14,53.05L150.87,56.24L150.93,54.01L150.99,51.54L151.04,50.83L151.55,53.93L151.61,55.12L152.34,48.44L152.45,48.99L152.51,48.2L152.56,47.24L153.13,50.19L153.18,51.38L154.09,47.32L154.14,47.64L155.04,52.42L155.38,52.26L155.44,52.58L156.23,57.83L156.34,56.32L156.4,56.64L156.56,57.83L156.73,54.96L156.85,57.51L156.9,55.2L157.18,56L157.24,54.88L157.3,53.45L157.41,55.44L157.97,54.33L158.03,52.34L158.09,51.62L158.54,54.65L158.59,55.2L158.65,52.58L159.33,53.77L159.38,53.69L160,57.11L160.28,55.28L160.34,55.52L160.51,54.72L161.3,58.47L161.35,57.03L161.92,58.62L162.03,57.59L162.09,55.28L163.61,62.13L163.95,61.49L164,60.3L164.28,62.52L164.68,60.77L164.73,60.77L165.58,54.57L165.75,55.12L165.8,55.44L166.2,56.56L166.31,53.93L166.37,54.17L167.83,61.49L167.89,59.1L167.95,59.74L168.23,56.48L168.28,56.48L168.34,55.76L169.52,61.17L169.58,59.58L169.86,59.1L170.93,65.63L170.99,63.96L171.04,61.09L171.38,64.12L171.55,61.25L171.61,59.42L171.78,58.07L172.4,61.97L172.45,59.82L172.73,57.99L173.24,60.69L173.3,58.47L173.52,59.74L173.75,57.67L173.86,58.31L173.92,57.19L174.03,55.6L174.37,58.23L174.54,57.43L174.59,56.24L174.65,55.44L175.1,58.86L175.21,56.95L175.27,57.27L175.55,56L177.18,62.21L177.24,60.22L177.41,59.9L178.87,65.39L178.93,65.87L179.16,67.7L179.55,65.07L179.66,65.95L179.72,66.03L180,62.52L180.51,62.76L180.57,63.56L181.18,66.11L181.24,64.83L181.3,63.96L181.52,63.48L181.8,65.15L181.86,63.72L181.92,63.08L182.09,61.65L182.71,65.95L182.76,64.59L182.82,63.88L183.04,64.75L183.1,63.32L183.16,63.48L183.21,62.29L183.55,63.4L183.61,61.65L183.66,59.74L183.89,58.62L184.96,64.12L185.02,63.96L186.26,68.49L186.31,66.98L186.76,69.93L186.93,67.86L186.99,66.66L187.72,62.92L187.89,64.43L187.95,64.99L188.62,57.51L188.79,58.15L188.85,58.86L189.97,66.11L190.03,66.34L190.37,66.58L190.48,64.35L190.82,65.23L190.87,65.31L192.06,69.13L192.11,67.54L192.23,69.21L192.51,65.87L192.79,67.3L192.85,67.54L193.07,65.39L193.52,68.25L193.58,68.73L193.69,68.1L193.92,68.81L193.97,67.46L194.93,71.04L194.99,71.2L195.33,70.72L195.89,73.99L196.17,73.35L196.23,72.47L196.51,73.75L196.57,71.44L196.96,72.31L197.02,72.71L197.8,74.86L197.86,73.03L198.2,71.76L198.71,73.35L198.76,73.35L198.88,73.03L199.55,75.97L199.61,74.3L199.66,74.54L200.73,78.36L200.79,78.68L201.47,81.07L201.52,79.64L201.58,78.52L202.26,80.03L202.37,79.08L202.42,78.52L202.54,77.01L203.1,79.79L203.16,78.12L203.27,76.37L204.06,81.23L204.11,81.78L205.8,86.72L205.86,86.16L205.92,86.16L206.48,86.48L206.76,84.89L206.82,84.97L206.88,85.21L207.04,85.84L207.1,84.01L207.33,84.41L207.38,84.41L207.61,84.89L207.66,83.62L207.72,82.5L208.23,84.01L208.45,82.98L208.51,82.34L208.68,83.22L208.85,81.15L209.18,82.66L209.24,82.1L209.35,80.51L209.86,83.14L209.92,83.3L210.31,81.47L210.65,83.14L210.71,83.46L210.82,82.58L211.49,85.21L211.55,83.54L211.95,80.99L212.34,83.14L212.4,83.22L212.79,82.9L214.03,86.8L214.09,84.41L215.04,87.59L215.21,86.4L215.27,85.45L215.38,86L215.44,84.49L216,85.53L216.06,85.53L216.28,84.41L216.85,85.21L216.9,85.29L217.19,86.32L217.24,84.25L219.27,89.42L219.33,89.9L219.44,89.11L219.95,90.7L220,90.78L220.57,94.2L220.62,94.6L221.35,97.07L221.69,96.43L221.75,96.51L221.8,97.3L221.97,96.19L222.48,96.67L222.54,95.16L222.76,95.63L222.82,94.84L222.88,94.92L222.93,94.28L223.83,96.75L223.89,95.55L227.61,106.93L227.66,105.66L228.23,105.9L228.51,103.35L228.57,103.43L228.68,103.67L228.73,102.4L229.02,102.88L229.07,101.68L229.41,98.1L229.86,99.93L229.92,99.93L231.27,103.99L231.33,102.95L232.06,100.17L232.11,100.41L232.17,100.73L232.68,102.4L232.9,101.28L232.96,100.57L233.47,100.65L233.64,98.5L233.8,99.29L233.86,99.37L234.2,99.85L234.26,98.58L234.42,99.13L234.48,98.26L235.89,102.4L236.11,101.52L236.17,100.57L237.19,103.03L237.3,101.68L237.35,100.09L238.31,102.88L238.37,102.88L238.88,104.39L239.16,103.43L239.21,102.88L239.78,104.55L239.83,103.59L239.89,101.6L240.23,102.72L240.34,100.17L240.4,100.17L240.45,100.25L240.57,99.77L241.24,101.92L241.3,100.89L242.31,102.08L242.37,102.48L244.57,106.93L244.62,106.06L245.35,103.03L245.47,103.59L245.52,103.83L247.5,108.21L247.55,106.7L248.68,109.32L248.73,107.41L249.07,108.45L249.13,107.09L249.19,107.17L249.24,106.06L249.35,104.71L249.86,106.62L249.92,106.62L249.97,106.7L250.54,108.45L250.59,106.54L250.65,105.34L251.33,106.06L251.38,106.14L254.09,113.14L254.14,111.87L254.2,111.87L254.26,110.67L254.65,112.58L254.93,111.23L254.99,111.39L256.4,115.69L256.45,115.85L257.24,116.56L257.35,115.93L257.41,115.93L257.97,116.72L258.03,115.45L258.09,115.53L258.37,115.21L259.27,117.44L259.33,116.17L260.4,118.16L260.45,118.16L260.57,117.6L261.07,118.47L261.13,118.47L261.19,118.71L263.38,122.85L263.44,123.17L263.95,123.97L264,124.28L264.23,123.89L265.07,125.08L265.13,125.08L268.17,131.61L268.23,130.65L271.33,135.9L271.38,136.38L272,136.94L272.06,137.18L277.24,143.86L277.3,143.86L278.59,144.58L278.65,144.98L282.26,146.57L282.31,147.05L284.79,149.99L284.85,150.15L287.04,151.5L287.1,151.5L288,152.38L288.06,152.38L289.02,153.89L289.07,153.89L291.5,156.52L291.55,156.52L292.9,157.71L292.96,157.71L294.65,159.06L294.71,159.06L295.89,159.46L295.95,159.86L297.81,161.29L297.86,161.29L299.44,162.01L299.5,162.17L300.4,163.44L300.45,163.44L302.26,164.08L302.31,164.32L303.78,164.87L303.83,165.19L307.16,165.75L307.21,166.07L308.06,166.78L308.12,166.86L309.41,167.5L309.47,168.06L311.95,169.73L312,170.05L313.97,170.68L314.03,170.84L315.72,172.04L315.78,172.04L317.24,173.15L317.3,173.15L318.37,174.11L318.43,174.11L323.5,174.82L323.55,174.98L324.06,175.46L324.12,175.78L324.96,176.1L325.02,176.1L326.82,177.37L326.88,177.37L328.45,178.08L328.51,178.32L329.07,178.72L329.13,179.12L331.89,179.6L331.95,179.99L334.65,180.71L334.71,180.95L336.4,181.51L336.45,181.83L339.61,183.1L339.67,183.1L341.07,183.82L341.13,183.82L342.76,185.25L342.82,185.33L343.78,185.8L343.83,185.8L344.96,186.68L345.02,186.68L347.78,187.4L347.83,187.48L350.43,188.19L350.48,188.43L354.71,189.15L354.76,189.23L355.61,189.7L355.67,189.7L358.2,190.42L358.26,190.58L360.23,191.3L360.28,191.61L366.54,193.92L366.59,193.92L367.67,194.48L367.72,194.48L369.24,195.2L369.3,195.28L371.55,195.67L371.61,195.67L373.81,196.39L373.86,196.47L377.86,197.19L377.92,197.34L379.83,197.82L379.89,198.14L382.65,198.86L382.71,199.02L386.6,200.21L386.65,200.21L388.51,200.85L388.57,201.09L392.9,202.44L392.96,202.44L398.14,203.15L398.2,203.23L399.67,203.63L399.72,204.03L405.92,204.75L405.98,204.83L409.41,205.46L409.47,205.62L411.22,206.34L411.27,206.5L412.17,207.29L412.23,207.29L416.51,208.01L416.57,208.09L420.4,208.81L420.45,208.89L422.93,209.12L422.99,209.12L428.45,209.6L428.51,209.92L431.67,210.64L431.72,210.87L432.68,211.35L432.74,211.35L437.24,212.07L437.3,212.23L440.51,212.86L440.57,213.02L449.07,213.58L449.13,213.82L455.67,214.54L455.72,214.62L461.98,215.17L462.03,215.41L465.3,215.65" style="vector-effect: non-scaling-stroke; fill: none; stroke: rgb(99, 110, 250); stroke-opacity: 1; stroke-width: 2px; opacity: 1;"/></g><g class="points"/><g class="text"/></g></g></g><g class="overplot"><g class="xy2" transform="translate(60,20)" clip-path="url(#clip10e844xy2plot)"><g class="scatterlayer mlayer"><g class="trace scatter trace8b617a" style="stroke-miterlimit: 2; opacity: 1;"><g class="fills"/><g class="errorbars"/><g class="lines"><path class="js-line" d="M0,11.35L14.42,57.52L14.48,57.68L27.04,89.28L27.1,89.41L36.23,108.31L36.28,108.41L43.94,122.06L44,122.16L55.04,138.81L55.1,138.89L65.63,152L65.69,152.06L74.31,161.09L74.37,161.15L84,169.73L84.06,169.77L95.44,178.18L95.49,178.22L109.97,186.72L110.03,186.74L122.48,192.49L122.54,192.51L138.14,198.13L138.2,198.14L149.52,201.34L149.58,201.36L174.31,206.46L174.37,206.46L194.2,209.21L194.26,209.21L218.31,211.47L218.37,211.47L233.07,212.45L233.13,212.45L274.54,214.14L274.59,214.14L295.66,214.63L295.72,214.63L313.41,214.92L313.47,214.92L465.3,215.65" style="vector-effect: non-scaling-stroke; fill: none; stroke: rgb(239, 85, 59); stroke-opacity: 1; stroke-width: 2px; opacity: 1;"/></g><g class="points"/><g class="text"/></g></g></g></g><path class="xlines-above crisp" d="M0,0" style="fill: none;"/><path class="ylines-above crisp" d="M0,0" style="fill: none;"/><g class="overlines-above"><path class="xy2-x crisp" d="M0,0" style="fill: none;"/><path class="xy2-y crisp" d="M0,0" style="fill: none;"/></g><g class="xaxislayer-above"><g class="xtick"><text text-anchor="middle" x="0" y="260" transform="translate(60,0)" style="font-family: 'Open Sans', verdana, arial, sans-serif; font-size: 12px; fill: rgb(42, 63, 95); fill-opacity: 1; white-space: pre; opacity: 1;">0</text></g><g class="xtick"><text text-anchor="middle" x="0" y="260" style="font-family: 'Open Sans', verdana, arial, sans-serif; font-size: 12px; fill: rgb(42, 63, 95); fill-opacity: 1; white-space: pre; opacity: 1;" transform="translate(172.68,0)">2000</text></g><g class="xtick"><text text-anchor="middle" x="0" y="260" style="font-family: 'Open Sans', verdana, arial, sans-serif; font-size: 12px; fill: rgb(42, 63, 95); fill-opacity: 1; white-space: pre; opacity: 1;" transform="translate(285.35,0)">4000</text></g><g class="xtick"><text text-anchor="middle" x="0" y="260" style="font-family: 'Open Sans', verdana, arial, sans-serif; font-size: 12px; fill: rgb(42, 63, 95); fill-opacity: 1; white-space: pre; opacity: 1;" transform="translate(398.03,0)">6000</text></g><g class="xtick"><text text-anchor="middle" x="0" y="260" style="font-family: 'Open Sans', verdana, arial, sans-serif; font-size: 12px; fill: rgb(42, 63, 95); fill-opacity: 1; white-space: pre; opacity: 1;" transform="translate(510.71,0)">8000</text></g></g><g class="yaxislayer-above"><g class="ytick"><text text-anchor="end" x="59" y="4.199999999999999" transform="translate(0,241.14)" style="font-family: 'Open Sans', verdana, arial, sans-serif; font-size: 12px; fill: rgb(42, 63, 95); fill-opacity: 1; white-space: pre; opacity: 1;">9k</text></g><g class="ytick"><text text-anchor="end" x="59" y="4.199999999999999" style="font-family: 'Open Sans', verdana, arial, sans-serif; font-size: 12px; fill: rgb(42, 63, 95); fill-opacity: 1; white-space: pre; opacity: 1;" transform="translate(0,201.35)">10k</text></g><g class="ytick"><text text-anchor="end" x="59" y="4.199999999999999" style="font-family: 'Open Sans', verdana, arial, sans-serif; font-size: 12px; fill: rgb(42, 63, 95); fill-opacity: 1; white-space: pre; opacity: 1;" transform="translate(0,161.55)">11k</text></g><g class="ytick"><text text-anchor="end" x="59" y="4.199999999999999" style="font-family: 'Open Sans', verdana, arial, sans-serif; font-size: 12px; fill: rgb(42, 63, 95); fill-opacity: 1; white-space: pre; opacity: 1;" transform="translate(0,121.76)">12k</text></g><g class="ytick"><text text-anchor="end" x="59" y="4.199999999999999" style="font-family: 'Open Sans', verdana, arial, sans-serif; font-size: 12px; fill: rgb(42, 63, 95); fill-opacity: 1; white-space: pre; opacity: 1;" transform="translate(0,81.97)">13k</text></g><g class="ytick"><text text-anchor="end" x="59" y="4.199999999999999" style="font-family: 'Open Sans', verdana, arial, sans-serif; font-size: 12px; fill: rgb(42, 63, 95); fill-opacity: 1; white-space: pre; opacity: 1;" transform="translate(0,42.17)">14k</text></g></g><g class="overaxes-above"><g class="xy2-x"/><g class="xy2-y"><g class="y2tick"><text text-anchor="start" x="526.3" y="4.199999999999999" transform="translate(0,235.7)" style="font-family: 'Open Sans', verdana, arial, sans-serif; font-size: 12px; fill: rgb(42, 63, 95); fill-opacity: 1; white-space: pre; opacity: 1;">0</text></g><g class="y2tick"><text text-anchor="start" x="526.3" y="4.199999999999999" style="font-family: 'Open Sans', verdana, arial, sans-serif; font-size: 12px; fill: rgb(42, 63, 95); fill-opacity: 1; white-space: pre; opacity: 1;" transform="translate(0,184.61)">500</text></g><g class="y2tick"><text text-anchor="start" x="526.3" y="4.199999999999999" style="font-family: 'Open Sans', verdana, arial, sans-serif; font-size: 12px; fill: rgb(42, 63, 95); fill-opacity: 1; white-space: pre; opacity: 1;" transform="translate(0,133.53)">1000</text></g><g class="y2tick"><text text-anchor="start" x="526.3" y="4.199999999999999" style="font-family: 'Open Sans', verdana, arial, sans-serif; font-size: 12px; fill: rgb(42, 63, 95); fill-opacity: 1; white-space: pre; opacity: 1;" transform="translate(0,82.44)">1500</text></g><g class="y2tick"><text text-anchor="start" x="526.3" y="4.199999999999999" style="font-family: 'Open Sans', verdana, arial, sans-serif; font-size: 12px; fill: rgb(42, 63, 95); fill-opacity: 1; white-space: pre; opacity: 1;" transform="translate(0,31.35)">2000</text></g></g></g></g><g class="subplot xy2"/></g><g class="polarlayer"/><g class="smithlayer"/><g class="ternarylayer"/><g class="geolayer"/><g class="funnelarealayer"/><g class="pielayer"/><g class="iciclelayer"/><g class="treemaplayer"/><g class="sunburstlayer"/><g class="glimages"/><defs id="topdefs-10e844"><g class="clips"/><clipPath id="legend10e844"><rect width="123" height="48" x="0" y="0"/></clipPath></defs><g class="layer-above"><g class="imagelayer"/><g class="shapelayer"/></g><g class="infolayer"><g class="legend" pointer-events="all" transform="translate(564.9000000000001,20)"><rect class="bg" shape-rendering="crispEdges" width="123" height="48" x="0" y="0" style="stroke: rgb(68, 68, 68); stroke-opacity: 1; fill: rgb(255, 255, 255); fill-opacity: 1; stroke-width: 0px;"/><g class="scrollbox" transform="" clip-path="url(#legend10e844)"><g class="groups"><g class="traces" transform="translate(0,14.5)" style="opacity: 1;"><text class="legendtext" text-anchor="start" x="40" y="4.680000000000001" style="font-family: 'Open Sans', verdana, arial, sans-serif; font-size: 12px; fill: rgb(42, 63, 95); fill-opacity: 1; white-space: pre;">Cost</text><g class="layers" style="opacity: 1;"><g class="legendfill"/><g class="legendlines"><path class="js-line" d="M5,0h30" style="fill: none; stroke: rgb(99, 110, 250); stroke-opacity: 1; stroke-width: 2px;"/></g><g class="legendsymbols"><g class="legendpoints"/></g></g><rect class="legendtoggle" x="0" y="-9.5" width="117.265625" height="19" style="fill: rgb(0, 0, 0); fill-opacity: 0;"/></g><g class="traces" transform="translate(0,33.5)" style="opacity: 1;"><text class="legendtext" text-anchor="start" x="40" y="4.680000000000001" style="font-family: 'Open Sans', verdana, arial, sans-serif; font-size: 12px; fill: rgb(42, 63, 95); fill-opacity: 1; white-space: pre;">Temperature</text><g class="layers" style="opacity: 1;"><g class="legendfill"/><g class="legendlines"><path class="js-line" d="M5,0h30" style="fill: none; stroke: rgb(239, 85, 59); stroke-opacity: 1; stroke-width: 2px;"/></g><g class="legendsymbols"><g class="legendpoints"/></g></g><rect class="legendtoggle" x="0" y="-9.5" width="117.265625" height="19" style="fill: rgb(0, 0, 0); fill-opacity: 0;"/></g></g></g><rect class="scrollbar" rx="20" ry="3" width="0" height="0" x="0" y="0" style="fill: rgb(128, 139, 164); fill-opacity: 1;"/></g><g class="g-gtitle"/><g class="g-xtitle"><text class="xtitle" x="292.65" y="287.8" text-anchor="middle" style="font-family: 'Open Sans', verdana, arial, sans-serif; font-size: 14px; fill: rgb(42, 63, 95); opacity: 1; font-weight: normal; white-space: pre;">Iterations</text></g><g class="g-ytitle" transform="translate(2.1591796875,0)"><text class="ytitle" transform="rotate(-90,11.840625000000003,133.5)" x="11.840625000000003" y="133.5" text-anchor="middle" style="font-family: 'Open Sans', verdana, arial, sans-serif; font-size: 14px; fill: rgb(42, 63, 95); opacity: 1; font-weight: normal; white-space: pre;">Cost</text></g><g class="g-y2title"><text class="y2title" transform="rotate(-90,581.9875,133.5)" x="581.9875" y="133.5" text-anchor="middle" style="font-family: 'Open Sans', verdana, arial, sans-serif; font-size: 14px; fill: rgb(42, 63, 95); opacity: 1; font-weight: normal; white-space: pre;">Temperature</text></g></g></svg>