<svg class="main-svg" xmlns="http://www.w3.org/2000/svg" xmlns:xlink="http://www.w3.org/1999/xlink" width="700" height="300" style="" viewBox="0 0 700 300"><rect x="0" y="0" width="700" height="300" style="fill: rgb(255, 255, 255); fill-opacity: 1;"/><defs id="defs-16b953"><g class="clips"><clipPath id="clip16b953xyplot" class="plotclip"><rect width="457.78" height="227"/></clipPath><clipPath id="clip16b953xy2plot" class="plotclip"><rect width="457.78" height="227"/></clipPath><clipPath class="axesclip" id="clip16b953x"><rect x="68" y="0" width="457.78" height="300"/></clipPath><clipPath class="axesclip" id="clip16b953y"><rect x="0" y="20" width="700" height="227"/></clipPath><clipPath class="axesclip" id="clip16b953xy"><rect x="68" y="20" width="457.78" height="227"/></clipPath><clipPath class="axesclip" id="clip16b953y2"><rect x="0" y="20" width="700" height="227"/></clipPath><clipPath class="axesclip" id="clip16b953xy2"><rect x="68" y="20" width="457.78" height="227"/></clipPath></g><g class="gradients"/><g class="patterns"/></defs><g class="bglayer"><rect class="bg" x="68" y="20" width="457.78" height="227" style="fill: rgb(229, 236, 246); fill-opacity: 1; stroke-width: 0;"/></g><g class="layer-below"><g class="imagelayer"/><g class="shapelayer"/></g><g class="cartesianlayer"><g class="subplot xy"><g class="layer-subplot"><g class="shapelayer"/><g class="imagelayer"/></g><g class="gridlayer"><g class="x"><path class="xgrid crisp" transform="translate(178.86,0)" d="M0,20v227" style="stroke: rgb(255, 255, 255); stroke-opacity: 1; stroke-width: 1px;"/><path class="xgrid crisp" transform="translate(289.71000000000004,0)" d="M0,20v227" style="stroke: rgb(255, 255, 255); stroke-opacity: 1; stroke-width: 1px;"/><path class="xgrid crisp" transform="translate(400.57,0)" d="M0,20v227" style="stroke: rgb(255, 255, 255); stroke-opacity: 1; stroke-width: 1px;"/><path class="xgrid crisp" transform="translate(511.42,0)" d="M0,20v227" style="stroke: rgb(255, 255, 255); stroke-opacity: 1; stroke-width: 1px;"/></g><g class="y"><path class="ygrid crisp" transform="translate(0,228.87)" d="M68,0h457.78" style="stroke: rgb(255, 255, 255); stroke-opacity: 1; stroke-width: 1px;"/><path class="ygrid crisp" transform="translate(0,193.07)" d="M68,0h457.78" style="stroke: rgb(255, 255, 255); stroke-opacity: 1; stroke-width: 1px;"/><path class="ygrid crisp" transform="translate(0,157.28)" d="M68,0h457.78" style="stroke: rgb(255, 255, 255); stroke-opacity: 1; stroke-width: 1px;"/><path class="ygrid crisp" transform="translate(0,121.48)" d="M68,0h457.78" style="stroke: rgb(255, 255, 255); stroke-opacity: 1; stroke-width: 1px;"/><path class="ygrid crisp" transform="translate(0,85.68)" d="M68,0h457.78" style="stroke: rgb(255, 255, 255); stroke-opacity: 1; stroke-width: 1px;"/><path class="ygrid crisp" transform="translate(0,49.89)" d="M68,0h457.78" style="stroke: rgb(255, 255, 255); stroke-opacity: 1; stroke-width: 1px;"/></g><g class="y2"><path class="y2grid crisp" transform="translate(0,184.61)" d="M68,0h457.78" style="stroke: rgb(255, 255, 255); stroke-opacity: 1; stroke-width: 1px;"/><path class="y2grid crisp" transform="translate(0,133.53)" d="M68,0h457.78" style="stroke: rgb(255, 255, 255); stroke-opacity: 1; stroke-width: 1px;"/><path class="y2grid crisp" transform="translate(0,82.44)" d="M68,0h457.78" style="stroke: rgb(255, 255, 255); stroke-opacity: 1; stroke-width: 1px;"/><path class="y2grid crisp" transform="translate(0,31.35)" d="M68,0h457.78" style="stroke: rgb(255, 255, 255); stroke-opacity: 1; stroke-width: 1px;"/></g></g><g class="zerolinelayer"><path class="xzl zl crisp" transform="translate(68,0)" d="M0,20v227" style="stroke: rgb(255, 255, 255); stroke-opacity: 1; stroke-width: 2px;"/><path class="y2zl zl crisp" transform="translate(0,235.7)" d="M68,0h457.78" style="stroke: rgb(255, 255, 255); stroke-opacity: 1; stroke-width: 2px;"/></g><path class="xlines-below"/><path class="ylines-below"/><g class="overlines-below"><path class="xy2-x"/><path class="xy2-y"/></g><g class="xaxislayer-below"/><g class="yaxislayer-below"/><g class="overaxes-below"><g class="xy2-x"/><g class="xy2-y"/></g><g class="plot" transform="translate(68,20)" clip-path="url(#clip16b953xyplot)"><g class="scatterlayer mlayer"><g class="trace scatter trace05f049" style="stroke-miterlimit: 2; opacity: 1;"><g class="fills"/><g class="errorbars"/><g class="lines"><path class="js-line" d="M0,22.78L0.22,32.83L0.44,12.14L0.61,16.79L0.67,26.1L1,35.89L1.33,33.21L1.39,21.33L1.44,15.6L2,33.87L2.11,20.14L2.16,24.8L2.55,17.71L2.83,36.82L2.99,31.35L3.05,30.31L3.49,17.94L3.71,34.06L3.77,33.79L4.05,36.45L4.16,23.12L4.21,17.71L4.82,35.52L4.99,27.42L5.04,23.09L5.49,34.37L5.65,20.64L5.71,21.26L5.76,17.87L5.93,31.24L6.49,20.4L6.54,22.09L6.6,27.89L7.09,17.09L7.32,25.58L7.37,22.3L7.65,15.32L8.09,32.13L8.15,26L8.2,27.11L8.54,36.69L8.98,20.04L9.03,26.16L9.09,32.27L9.59,17.99L9.7,20.81L9.76,22.22L9.87,22.55L9.92,26.33L10.25,29.84L10.37,16.85L10.64,23.26L10.7,27.49L10.92,18.21L11.2,38.61L11.25,36.81L11.31,42.14L11.75,22.36L12.03,27.63L12.08,34.52L12.14,35.46L12.25,31.35L12.31,26.28L12.58,34.45L12.97,11.35L13.14,21.89L13.19,25.87L13.25,25.65L13.3,28.85L13.36,28.06L13.41,30.68L13.47,28.86L13.52,19.14L13.91,14.6L14.13,28.68L14.19,33.49L14.25,37.34L14.8,26.41L14.85,30.39L14.91,25.53L15.3,31.8L15.52,21.37L15.63,30.15L15.69,26.48L15.74,35.12L16.13,20.2L16.46,35.1L16.52,27.96L16.57,28.53L16.63,28.25L16.68,20.56L17.63,39.07L17.68,30.18L17.74,34.76L18.07,21.04L18.46,33.24L18.51,33.46L19.07,24.24L19.29,39.3L19.34,34.07L19.95,23.13L20.12,24.01L20.18,25.78L20.34,17.05L20.4,27.4L20.62,17.65L21.17,24.85L21.23,21.14L21.34,16.4L21.89,32.01L22.06,30.68L22.12,29.25L22.28,29.32L22.84,17.15L22.95,17.36L23,16.3L23.22,29.62L23.28,34.6L23.56,37.74L23.61,28.69L23.67,23.85L23.78,29.23L23.83,32.76L24.06,20.21L24.28,29.45L24.33,32.26L24.55,42.36L24.94,19.47L25.22,26.93L25.28,30.54L25.44,36.77L25.83,24.09L25.88,31.91L25.94,34.83L26.22,35.79L26.55,24.61L26.66,32.74L26.72,33.84L26.88,39.86L27.22,16.86L27.44,31.32L27.49,35.13L27.55,37.75L27.88,22.26L27.94,17.19L28.16,34.09L28.77,28.82L28.82,29.48L28.88,23.44L29.16,38.76L29.43,37.18L29.49,39.14L29.93,44.23L30.49,19.76L30.54,20.24L30.6,23.66L31.32,41.16L31.37,38.3L31.43,39.3L32.09,24.54L32.26,26.16L32.31,27.17L32.54,40.1L32.81,26.34L32.87,18.35L33.31,13.7L33.76,32.41L33.81,23.13L34.14,11.62L34.53,21.82L34.59,25.2L34.81,20.16L35.03,32.96L35.31,26.8L35.36,22.6L35.42,22.75L35.47,21.32L35.53,19.7L35.64,22.16L35.7,18.81L36.08,34.2L36.47,29.11L36.53,25.41L36.58,23.48L36.75,31.84L37.19,26.71L37.25,28.9L37.41,19.96L37.69,35.15L37.97,26.94L38.02,22.5L38.13,21.5L38.25,28.16L38.74,25.45L38.8,22.32L38.86,14.89L39.41,32.56L39.46,31.22L39.52,29.32L39.85,31.7L40.24,22.32L40.3,26.27L40.68,33.29L40.85,19.25L40.96,20.84L41.02,21.6L41.24,12.38L41.79,27.2L41.85,23.03L42.07,19.55L42.18,29.79L42.46,27.04L42.51,30.69L42.68,35.18L42.9,20.49L43.29,26.27L43.34,28.6L43.51,23.68L43.73,33.53L43.9,31.14L43.95,26.06L44.29,30.62L44.73,22.43L44.79,28.22L44.95,31.48L45.01,25.75L45.06,28.17L45.12,35.88L45.23,30.41L45.67,45.5L45.78,39.47L45.84,39.07L46.45,22.95L46.61,31.74L46.67,33.96L46.95,43.37L47.11,31.22L47.17,35.94L47.22,28.02L47.39,22.42L47.61,33.46L47.89,27.66L47.95,31.05L48.11,41.83L48.55,20.53L48.89,22.72L48.94,25.84L49,24.78L49.28,31.41L49.33,35.18L49.5,38.77L49.66,30.22L50.05,38.54L50.11,36.06L50.27,41.3L50.83,32.99L50.88,33.69L50.94,34.03L51.6,42.91L51.66,40.76L51.71,34.36L52.32,37.27L52.6,27.82L52.66,31.11L52.99,17.49L53.38,29.66L53.43,33.09L53.77,31.35L54.26,40.33L54.32,40.3L54.37,41.66L54.54,43.51L54.71,31.31L54.76,32.67L54.82,24.02L54.87,22.5L55.04,29.88L55.37,27.64L55.43,28.99L56.31,41.38L56.37,38.43L56.43,34.62L56.59,32.6L56.87,46.83L57.04,39.5L57.09,30.42L57.15,22.66L57.76,36.18L57.81,36.32L58.09,26.76L58.59,30.27L58.64,28.12L59.03,24.47L59.42,37.83L59.47,36.65L59.53,33.1L59.59,32.91L59.64,33.56L59.7,36.28L60.03,42.88L60.14,30.06L60.25,35.41L60.31,29.33L60.42,40.19L60.53,32.17L60.58,26.7L60.75,33.73L60.86,23.76L61.3,33.16L61.36,28.29L61.64,39.7L62.3,38.21L62.36,36.25L62.41,35.09L62.58,40.42L62.8,39.99L62.86,43.27L63.41,19.71L63.69,29.53L63.74,33.46L64.02,40.66L64.35,30.31L64.41,27.04L64.8,35.26L65.07,25.68L65.13,27.47L65.18,24.64L66.13,41.43L66.29,39.79L66.35,36.28L67.01,46.7L67.35,46L67.4,45.66L67.73,34.02L68.07,50.33L68.12,53.39L68.23,53.45L68.95,30.16L69.23,34.75L69.29,37.58L69.62,35.13L70.17,44.97L70.23,38.86L70.45,43.18L70.78,34.07L70.84,35.29L70.89,35.75L70.95,42.41L71.5,32.53L71.61,34.37L71.67,32.61L71.89,23.62L72.22,40.62L72.33,39.09L72.39,36.57L72.44,33.31L72.72,40.57L73.05,35.82L73.11,38.96L73.16,35.26L73.72,47.83L73.77,48.28L73.89,48.42L74.05,36.91L74.38,41.38L74.44,43.74L74.72,44.44L74.88,30.69L75.27,37.17L75.33,39.73L75.38,39.93L75.44,44.31L75.55,40.15L75.71,43.07L75.77,45.64L76.05,50.44L76.27,37.05L76.32,31.84L76.55,41.68L76.6,46.07L76.71,49.17L76.93,43.35L77.16,44.68L77.21,40.99L77.38,43.57L77.43,42.92L77.49,35.98L77.82,32.8L78.54,45.9L78.6,44.74L78.65,43.08L78.71,42.89L78.76,45.41L78.98,47.45L79.04,42.91L79.54,47.13L79.59,40.25L79.71,41.52L79.76,42.06L80.04,50.02L80.26,41.76L80.32,41.99L80.37,41.82L80.43,42.58L80.48,39.6L80.65,43.24L80.7,44.88L80.98,51.17L81.15,44.01L81.26,45.9L81.31,44.7L81.42,46.85L81.53,42.22L81.59,42.48L81.65,36.88L82.14,34.43L82.42,43.12L82.48,43.02L82.53,44.81L82.59,45.64L82.81,39.76L82.86,38.03L83.14,41.99L83.25,41.16L83.31,37.24L83.47,35.61L83.59,43.7L83.92,40.45L83.97,40.65L84.36,35.38L84.86,45.67L84.92,41.48L85.08,48.32L85.3,39.69L85.64,41.26L85.69,42.18L86.69,52.8L86.74,47.48L87.24,50.55L87.52,39.7L87.58,42.62L87.63,42.85L87.8,42.21L88.13,50.38L88.35,43.35L88.41,43.61L88.8,50.11L89.02,44.23L89.07,38.4L89.13,36.67L89.57,45.06L89.68,41.32L89.74,41.58L90.13,37.4L90.62,48.09L90.68,46.27L90.74,46.43L90.79,48.34L91.07,37.31L91.35,42.46L91.4,42.88L91.51,42.34L92.34,54.61L92.4,53.63L92.45,53.45L92.51,57.2L92.9,45.53L93.12,48.49L93.17,49.31L93.73,52.69L93.78,48.92L93.9,49.31L93.95,49.32L94.06,44.66L94.62,49.87L94.67,49.84L94.73,51.14L94.84,49.08L95.23,54.78L95.28,50.37L95.34,47.18L95.39,47.33L95.45,50.74L95.61,54.19L95.67,52.44L95.72,49.82L95.89,53.55L96.44,42.91L96.67,44.03L96.72,44.2L96.89,43.85L97.05,51.73L97.55,48.46L97.61,47.66L98,40.16L98.38,43.45L98.44,44.51L98.61,40.76L99.49,54.62L99.55,54.72L99.99,62.25L100.38,44.68L100.44,47.62L100.6,44.7L101.43,52.2L101.49,49.51L101.65,38.96L102.26,46.37L102.32,49.17L102.43,51.3L102.49,54.65L102.6,49.19L103.1,60.38L103.21,55.72L103.26,56.61L103.37,60.02L103.59,55.45L103.82,57.36L103.87,54.11L103.93,56.44L104.04,49.08L104.54,51.39L104.59,48.88L104.81,47.82L105.65,63.97L105.7,56.81L106.09,58.82L106.26,52.87L106.42,55.58L106.48,56L107.2,48.87L107.31,51.49L107.36,52.3L107.75,47.25L108.31,58.96L108.36,56.02L108.42,56.83L108.47,52.06L108.53,54.05L108.58,48.44L108.64,47.32L108.97,53.92L109.19,50.83L109.25,52.12L109.41,50.17L110.58,61.44L110.63,60.89L110.69,56.8L110.8,60.89L111.08,53.19L111.24,54.91L111.3,53.06L112.08,65.75L112.19,61.64L112.24,61.91L113.18,45.92L113.41,50.41L113.46,51.29L113.74,50.93L113.96,54.86L114.02,57.5L114.13,53.55L114.51,61.44L114.85,59L114.9,59.43L115.01,54.28L115.51,62.51L115.57,61.95L115.62,61.88L115.68,64.73L115.73,59.79L116.34,61.84L116.4,61.15L116.68,64.14L116.73,60.55L116.95,62.44L117.01,57.3L117.12,56.07L117.62,63.53L117.67,66.41L117.78,64.37L118.06,70.16L118.39,66.51L118.45,66.16L118.62,69.43L118.67,67.15L118.73,64.76L118.95,68.52L119.28,60.76L119.39,62.25L119.45,63.33L119.67,48.42L120.28,54.45L120.33,54.64L120.89,60.35L121.11,59.4L121.17,57.93L121.72,64.83L121.94,60.33L122,59L122.39,57.61L122.5,60.11L122.55,59.1L122.61,62.68L122.83,62L123.05,65.12L123.11,57.93L124.1,66.49L124.16,61.42L124.21,57.81L124.88,61.41L124.93,62.81L125.6,69.64L125.82,66.95L125.88,67.11L126.04,69.56L126.15,66.89L126.21,66.91L126.27,64.62L126.65,55.81L127.1,59.4L127.15,60.02L127.6,67.71L127.65,69.84L128.04,70.13L128.32,66.05L128.43,67.64L128.48,68.25L129.15,59.9L129.31,61.51L129.37,62L129.7,61.74L130.48,71.65L130.53,70.86L130.59,66.95L131.2,75.63L131.36,68.54L131.42,68.75L131.7,72.76L132.36,60.86L132.69,64.01L132.75,67.54L132.81,64.54L133.3,72.59L133.42,68.51L133.47,70.77L133.53,72.12L133.86,63.18L133.91,63.38L134.47,72.28L134.52,74.24L134.58,75.31L134.91,68.11L134.97,69.34L135.02,69.37L135.3,73.19L135.36,66.45L135.58,66.09L136.35,72.18L136.41,67.87L136.57,67.38L136.74,69.96L136.85,67.99L136.91,64.99L137.74,72.29L137.79,70.93L138.13,72.98L138.24,72.49L138.29,68.81L138.57,58.17L139.12,62.83L139.18,60.16L139.46,58.01L140.23,65.37L140.29,62.87L140.73,71.23L141.18,68.94L141.23,69.04L142.23,78.92L142.28,78.3L142.34,76.99L142.45,71.47L143.06,74.7L143.12,74.87L143.34,74.11L144.22,81.74L144.28,80.15L144.33,78.88L144.72,82.07L145,79.85L145.06,79.98L145.55,69.74L145.83,72.08L145.89,73.31L146,74.94L146.22,69.48L146.27,69.58L146.33,66.39L146.61,58.82L147,64.24L147.05,65.19L147.33,68.12L147.55,62.87L147.6,60.49L149.05,80.34L149.21,78.46L149.27,73.67L149.43,67.54L149.99,74.48L150.04,75.07L150.76,80.24L150.82,75.9L150.93,77.26L151.04,74.6L151.43,76.97L151.48,73.87L151.71,74.93L151.76,72.23L151.93,73.31L151.98,71.6L152.15,72.71L152.21,74.55L152.7,78.89L152.87,77.19L152.93,74.57L153.04,72.15L153.59,79.28L153.76,77.67L153.81,76.27L154.2,75.6L154.98,83.7L155.03,80.4L155.14,81.74L155.2,78.39L155.53,78.88L155.59,78.05L155.92,77.83L156.64,85.89L156.7,82.06L156.86,82.73L156.92,80.84L156.97,82.39L157.03,79.65L157.19,78.93L158.14,89.86L158.63,88.47L158.69,86.78L159.19,90.46L159.24,91.42L159.63,85.01L160.13,86.78L160.19,88.59L160.69,84.55L160.96,84.91L161.02,85.68L161.52,90.03L161.57,88.27L161.63,86.15L161.85,81.61L162.35,85.49L162.4,85.79L162.46,86.34L162.51,83.36L162.9,84.6L162.96,83.09L163.35,81.38L163.96,85.86L164.01,86.04L164.12,85.79L164.79,91.79L164.95,90.76L165.01,87.9L165.45,90.66L165.51,92.64L166.06,95.13L166.12,91.98L166.17,90.88L166.62,93.65L166.67,89.96L166.78,90.13L166.84,88.21L167.23,95.59L167.73,92.05L167.78,92.71L168.11,94.53L168.33,92.06L168.5,92.84L168.56,93.18L169.33,88.56L169.39,89.47L169.44,90.38L169.5,91.05L169.55,87.88L169.78,89.89L169.83,85.65L170.27,85.38L170.66,89.53L170.72,84.73L171.44,91.12L171.55,87.35L171.61,84.38L171.94,82.97L172.1,85.79L172.16,86.28L172.49,83.13L172.71,86.91L172.77,87.53L173.05,89.7L173.1,86.45L173.27,87.87L173.32,85.78L173.38,84.19L173.93,89.06L173.99,89.39L175.37,99.32L175.43,99.41L175.6,99.98L175.65,99.32L175.76,99.87L175.82,97.65L176.15,92.97L176.54,97.11L176.59,97.31L176.87,98.72L176.93,95.83L177.92,101.06L178.26,100.08L178.31,99.25L178.37,97.62L178.98,101.29L179.03,100.61L179.09,97.05L179.7,102.68L179.75,103.76L180.86,107.13L181.03,106.24L181.08,104.26L181.31,103.78L181.75,106.4L181.8,103.96L181.86,104.74L181.91,105.6L182.41,102.52L182.47,99.41L183.41,104.59L183.47,103.46L183.58,100.74L184.13,103.79L184.19,104.45L184.24,102.95L184.74,107.26L184.8,107.26L184.85,107.27L185.3,110.75L185.41,106.56L185.46,107.13L185.52,107.19L185.79,108.12L185.85,106.66L185.91,107.04L185.96,104.72L186.18,106.05L186.4,101.76L186.79,103.26L186.85,103.32L187.07,105.85L187.62,105.62L187.68,102.72L188.18,104.94L188.34,103.81L188.4,101.64L188.51,100.4L189.01,103.59L189.06,103.68L190.06,109.92L190.34,109.12L190.4,107.5L190.84,109.26L190.89,107.36L191,107.47L191.06,106.31L191.23,102.63L191.56,105.12L191.61,105.4L192.56,109.81L192.61,108.49L192.67,108.1L193,105.35L193.28,108.8L193.33,109.69L195.16,115.09L195.22,113.11L196.38,116.52L196.66,116.13L196.71,115.3L196.94,117.29L197.27,115.05L197.32,112.08L197.55,112.2L197.77,108.52L198.04,111.45L198.1,112.48L198.16,112.03L198.6,114.04L198.65,114.34L200.1,118.98L200.15,117.28L200.48,118.47L200.54,119.16L200.87,114.75L201.26,119.14L201.31,119.18L202.98,124.1L203.14,123.17L203.2,121.06L203.37,121.78L203.59,118.65L203.7,118.8L203.75,118.94L204.36,120.95L204.42,118.25L205.19,119.97L205.25,117.85L205.31,116.34L205.75,120.14L205.92,118.88L205.97,118.88L206.08,119.34L206.14,117.21L206.19,115.3L206.41,116.88L206.47,115.73L206.52,113.94L206.75,111.98L208.13,118.75L208.19,118.77L209.07,121.93L209.13,120.43L209.91,112.93L210.02,113.83L210.07,113.92L210.35,113.18L210.9,115.46L210.96,114.43L212.57,123.48L212.62,123.57L213.01,124.18L213.07,122.13L213.23,119.76L214.01,123.38L214.06,123.38L215.28,127.99L215.45,127.66L215.5,127.66L215.56,126.33L216.11,129.51L216.17,129.51L216.56,126.77L216.95,128.03L217,128.12L217.83,130.64L217.89,129.37L217.94,129.37L218.33,124.01L218.77,126.32L218.83,126.52L219.99,130.78L220.05,128.48L220.38,129.05L220.44,129.57L220.77,127.63L221.27,130.65L221.32,130.97L221.77,129.22L222.04,130.77L222.1,130.8L222.38,131.11L222.43,129.02L223.26,131.73L223.32,131.94L223.37,132.96L223.71,131.36L224.1,132.86L224.15,132.93L224.43,134.31L224.65,133.96L224.71,130.94L224.87,130.9L225.48,133.85L225.65,131.84L225.7,131.91L226.37,134.75L226.7,134.62L226.76,133.45L227.92,138.83L228.14,137.58L228.2,137.6L228.75,139.13L228.97,138.37L229.03,138.37L229.53,139.76L229.58,140.29L229.86,141.78L229.92,142.12L230.03,142.4L230.08,142.02L230.25,142.02L230.3,139.52L231.63,141.77L231.69,141.87L233.52,145.79L233.57,146.08L233.74,146.96L233.8,144.69L234.24,142.44L234.57,143.83L234.63,144.1L235.35,140.89L235.46,141.51L235.51,141.74L236.23,143.07L236.29,141.24L237.07,142.74L237.12,140.28L238.67,144.9L238.84,144.33L238.89,143.67L239.17,143.74L239.28,142.07L239.62,143.41L239.67,143.41L240.56,145.63L240.61,145.63L244.22,153.19L244.27,151.59L244.66,152.83L244.88,150.94L244.99,151.23L245.05,151.23L245.16,151.83L245.55,150.2L245.6,150.28L245.66,148.88L246.27,150.6L246.32,150.87L246.43,149.02L247.1,149.96L247.15,149.96L248.32,152.22L248.37,151.06L249.59,153.92L249.65,153.92L250.65,156L250.7,156.08L251.31,157L251.37,157.26L251.42,157.47L251.48,156.33L251.98,156.69L252.03,156.69L252.86,158.29L252.92,157.47L253.31,158.22L253.36,156.69L253.92,157.34L253.97,156.21L254.03,155.78L255.41,158.86L255.47,158.86L256.02,160.22L256.24,159.03L256.3,159.11L256.52,159.16L256.58,157.46L256.85,157.8L256.91,156.38L257.02,156.5L257.08,156.53L257.41,157.03L257.46,155.98L257.91,156.81L257.96,155.58L258.46,155.85L258.52,153.28L258.74,153.66L258.79,152.68L259.29,153.21L259.35,153.21L260.73,155.5L260.79,155.5L261.51,156.91L261.56,157.43L263.28,161.27L263.34,161.38L265.22,163.04L265.28,163.31L266.55,164.95L266.61,164.95L267.5,166.18L267.55,166.18L269.6,167.85L269.66,167.85L270.05,167.98L270.1,167.08L271.65,168.31L271.71,168.78L272.54,169.67L272.59,170.14L273.59,171.02L273.65,171.02L277.36,174.61L277.42,174.61L280.3,176.45L280.35,176.79L281.24,177.35L281.3,177.71L283.74,178.36L283.79,178.52L285.73,179.18L285.79,179.41L286.9,180.02L286.95,180.02L288.39,180.47L288.45,180.47L290.22,180.98L290.28,180.98L291.44,181.69L291.5,181.69L300.36,185.57L300.42,185.57L303.36,186.31L303.41,186.45L307.35,187.51L307.4,187.59L310.18,188.44L310.23,188.75L312.34,189.58L312.39,189.89L314.5,190.64L314.55,190.66L315.72,190.84L315.77,190.84L317.88,191.58L317.94,191.67L320.04,192.27L320.1,192.57L322.81,193.38L322.87,193.38L327.8,194.11L327.86,194.26L329.3,194.92L329.35,194.92L332.01,195.65L332.07,195.7L333.23,196.19L333.29,196.19L348.7,199.76L348.75,199.76L354.79,200.82L354.85,200.82L357.84,201.73L357.9,201.73L361.56,202.42L361.61,202.69L366.05,203.41L366.1,203.45L373.14,204.48L373.2,204.64L374.14,205.11L374.19,205.11L377.41,205.86L377.46,205.91L382.4,206.66L382.45,206.77L387.22,207.3L387.28,207.56L393.65,208.23L393.71,208.32L395.53,208.59L395.59,208.59L402.46,209.31L402.52,209.38L403.68,209.49L403.74,209.49L406.12,209.92L406.18,210.27L411.83,211L411.89,211.13L421.42,211.88L421.47,211.96L428.85,212.7L428.9,212.73L438.05,213.37L438.1,213.55L439.27,213.66L439.32,213.66L441.26,213.85L441.32,213.85L446.53,214.52L446.58,214.85L447.53,215.05L447.58,215.05L457.78,215.65" style="vector-effect: non-scaling-stroke; fill: none; stroke: rgb(99, 110, 250); stroke-opacity: 1; stroke-width: 2px; opacity: 1;"/></g><g class="points"/><g class="text"/></g></g></g><g class="overplot"><g class="xy2" transform="translate(68,20)" clip-path="url(#clip16b953xy2plot)"><g class="scatterlayer mlayer"><g class="trace scatter trace63f904" style="stroke-miterlimit: 2; opacity: 1;"><g class="fills"/><g class="errorbars"/><g class="lines"><path class="js-line" d="M0,11.35L15.13,60.19L15.19,60.35L21.78,77.79L21.84,77.92L30.37,97.6L30.43,97.72L41.29,118.73L41.35,118.82L49.44,131.99L49.5,132.07L58.53,144.66L58.59,144.73L69.45,157.37L69.51,157.42L78.65,166.29L78.71,166.34L87.63,173.69L87.69,173.73L100.32,182.29L100.38,182.32L114.96,190.05L115.01,190.07L128.65,195.66L128.7,195.68L146.55,201.2L146.61,201.21L157.14,203.72L157.19,203.73L173.32,206.76L173.38,206.76L192.45,209.37L192.5,209.37L219.72,211.83L219.77,211.83L233.41,212.68L233.46,212.68L271.82,214.19L271.87,214.19L292.6,214.66L292.66,214.66L310.34,214.95L310.4,214.95L457.78,215.65" style="vector-effect: non-scaling-stroke; fill: none; stroke: rgb(239, 85, 59); stroke-opacity: 1; stroke-width: 2px; opacity: 1;"/></g><g class="points"/><g class="text"/></g></g></g></g><path class="xlines-above crisp" d="M0,0" style="fill: none;"/><path class="ylines-above crisp" d="M0,0" style="fill: none;"/><g class="overlines-above"><path class="xy2-x crisp" d="M0,0" style="fill: none;"/><path class="xy2-y crisp" d="M0,0" style="fill: none;"/></g><g class="xaxislayer-above"><g class="xtick"><text text-anchor="middle" x="0" y="260" transform="translate(68,0)" style="font-family: 'Open Sans', verdana, arial, sans-serif; font-size: 12px; fill: rgb(42, 63, 95); fill-opacity: 1; white-space: pre; opacity: 1;">0</text></g><g class="xtick"><text text-anchor="middle" x="0" y="260" style="font-family: 'Open Sans', verdana, arial, sans-serif; font-size: 12px; fill: rgb(42, 63, 95); fill-opacity: 1; white-space: pre; opacity: 1;" transform="translate(178.86,0)">2000</text></g><g class="xtick"><text text-anchor="middle" x="0" y="260" style="font-family: 'Open Sans', verdana, arial, sans-serif; font-size: 12px; fill: rgb(42, 63, 95); fill-opacity: 1; white-space: pre; opacity: 1;" transform="translate(289.71000000000004,0)">4000</text></g><g class="xtick"><text text-anchor="middle" x="0" y="260" style="font-family: 'Open Sans', verdana, arial, sans-serif; font-size: 12px; fill: rgb(42, 63, 95); fill-opacity: 1; white-space: pre; opacity: 1;" transform="translate(400.57,0)">6000</text></g><g class="xtick"><text text-anchor="middle" x="0" y="260" style="font-family: 'Open Sans', verdana, arial, sans-serif; font-size: 12px; fill: rgb(42, 63, 95); fill-opacity: 1; white-space: pre; opacity: 1;" transform="translate(511.42,0)">8000</text></g></g><g class="yaxislayer-above"><g class="ytick"><text text-anchor="end" x="67" y="4.199999999999999" transform="translate(0,228.87)" style="font-family: 'Open Sans', verdana, arial, sans-serif; font-size: 12px; fill: rgb(42, 63, 95); fill-opacity: 1; white-space: pre; opacity: 1;">340k</text></g><g class="ytick"><text text-anchor="end" x="67" y="4.199999999999999" style="font-family: 'Open Sans', verdana, arial, sans-serif; font-size: 12px; fill: rgb(42, 63, 95); fill-opacity: 1; white-space: pre; opacity: 1;" transform="translate(0,193.07)">345k</text></g><g class="ytick"><text text-anchor="end" x="67" y="4.199999999999999" style="font-family: 'Open Sans', verdana, arial, sans-serif; font-size: 12px; fill: rgb(42, 63, 95); fill-opacity: 1; white-space: pre; opacity: 1;" transform="translate(0,157.28)">350k</text></g><g class="ytick"><text text-anchor="end" x="67" y="4.199999999999999" style="font-family: 'Open Sans', verdana, arial, sans-serif; font-size: 12px; fill: rgb(42, 63, 95); fill-opacity: 1; white-space: pre; opacity: 1;" transform="translate(0,121.48)">355k</text></g><g class="ytick"><text text-anchor="end" x="67" y="4.199999999999999" style="font-family: 'Open Sans', verdana, arial, sans-serif; font-size: 12px; fill: rgb(42, 63, 95); fill-opacity: 1; white-space: pre; opacity: 1;" transform="translate(0,85.68)">360k</text></g><g class="ytick"><text text-anchor="end" x="67" y="4.199999999999999" style="font-family: 'Open Sans', verdana, arial, sans-serif; font-size: 12px; fill: rgb(42, 63, 95); fill-opacity: 1; white-space: pre; opacity: 1;" transform="translate(0,49.89)">365k</text></g></g><g class="overaxes-above"><g class="xy2-x"/><g class="xy2-y"><g class="y2tick"><text text-anchor="start" x="526.78" y="4.199999999999999" transform="translate(0,235.7)" style="font-family: 'Open Sans', verdana, arial, sans-serif; font-size: 12px; fill: rgb(42, 63, 95); fill-opacity: 1; white-space: pre; opacity: 1;">0</text></g><g class="y2tick"><text text-anchor="start" x="526.78" y="4.199999999999999" style="font-family: 'Open Sans', verdana, arial, sans-serif; font-size: 12px; fill: rgb(42, 63, 95); fill-opacity: 1; white-space: pre; opacity: 1;" transform="translate(0,184.61)">500</text></g><g class="y2tick"><text text-anchor="start" x="526.78" y="4.199999999999999" style="font-family: 'Open Sans', verdana, arial, sans-serif; font-size: 12px; fill: rgb(42, 63, 95); fill-opacity: 1; white-space: pre; opacity: 1;" transform="translate(0,133.53)">1000</text></g><g class="y2tick"><text text-anchor="start" x="526.78" y="4.199999999999999" style="font-family: 'Open Sans', verdana, arial, sans-serif; font-size: 12px; fill: rgb(42, 63, 95); fill-opacity: 1; white-space: pre; opacity: 1;" transform="translate(0,82.44)">1500</text></g><g class="y2tick"><text text-anchor="start" x="526.78" y="4.199999999999999" style="font-family: 'Open Sans', verdana, arial, sans-serif; font-size: 12px; fill: rgb(42, 63, 95); fill-opacity: 1; white-space: pre; opacity: 1;" transform="translate(0,31.35)">2000</text></g></g></g></g><g class="subplot xy2"/></g><g class="polarlayer"/><g class="smithlayer"/><g class="ternarylayer"/><g class="geolayer"/><g class="funnelarealayer"/><g class="pielayer"/><g class="iciclelayer"/><g class="treemaplayer"/><g class="sunburstlayer"/><g class="glimages"/><defs id="topdefs-16b953"><g class="clips"/><clipPath id="legend16b953"><rect width="123" height="48" x="0" y="0"/></clipPath></defs><g class="layer-above"><g class="imagelayer"/><g class="shapelayer"/></g><g class="infolayer"><g class="legend" pointer-events="all" transform="translate(564.74,20)"><rect class="bg" shape-rendering="crispEdges" width="123" height="48" x="0" y="0" style="stroke: rgb(68, 68, 68); stroke-opacity: 1; fill: rgb(255, 255, 255); fill-opacity: 1; stroke-width: 0px;"/><g class="scrollbox" transform="" clip-path="url(#legend16b953)"><g class="groups"><g class="traces" transform="translate(0,14.5)" style="opacity: 1;"><text class="legendtext" text-anchor="start" x="40" y="4.680000000000001" style="font-family: 'Open Sans', verdana, arial, sans-serif; font-size: 12px; fill: rgb(42, 63, 95); fill-opacity: 1; white-space: pre;">Cost</text><g class="layers" style="opacity: 1;"><g class="legendfill"/><g class="legendlines"><path class="js-line" d="M5,0h30" style="fill: none; stroke: rgb(99, 110, 250); stroke-opacity: 1; stroke-width: 2px;"/></g><g class="legendsymbols"><g class="legendpoints"/></g></g><rect class="legendtoggle" x="0" y="-9.5" width="117.265625" height="19" style="fill: rgb(0, 0, 0); fill-opacity: 0;"/></g><g class="traces" transform="translate(0,33.5)" style="opacity: 1;"><text class="legendtext" text-anchor="start" x="40" y="4.680000000000001" style="font-family: 'Open Sans', verdana, arial, sans-serif; font-size: 12px; fill: rgb(42, 63, 95); fill-opacity: 1; white-space: pre;">Temperature</text><g class="layers" style="opacity: 1;"><g class="legendfill"/><g class="legendlines"><path class="js-line" d="M5,0h30" style="fill: none; stroke: rgb(239, 85, 59); stroke-opacity: 1; stroke-width: 2px;"/></g><g class="legendsymbols"><g class="legendpoints"/></g></g><rect class="legendtoggle" x="0" y="-9.5" width="117.265625" height="19" style="fill: rgb(0, 0, 0); fill-opacity: 0;"/></g></g></g><rect class="scrollbar" rx="20" ry="3" width="0" height="0" x="0" y="0" style="fill: rgb(128, 139, 164); fill-opacity: 1;"/></g><g class="g-gtitle"/><g class="g-xtitle"><text class="xtitle" x="296.89" y="287.8" text-anchor="middle" style="font-family: 'Open Sans', verdana, arial, sans-serif; font-size: 14px; fill: rgb(42, 63, 95); opacity: 1; font-weight: normal; white-space: pre;">Iterations</text></g><g class="g-ytitle" transform="translate(1.7998046875,0)"><text class="ytitle" transform="rotate(-90,12.200000000000003,133.5)" x="12.200000000000003" y="133.5" text-anchor="middle" style="font-family: 'Open Sans', verdana, arial, sans-serif; font-size: 14px; fill: rgb(42, 63, 95); opacity: 1; font-weight: normal; white-space: pre;">Cost</text></g><g class="g-y2title"><text class="y2title" transform="rotate(-90,582.471875,133.5)" x="582.471875" y="133.5" text-anchor="middle" style="font-family: 'Open Sans', verdana, arial, sans-serif; font-size: 14px; fill: rgb(42, 63, 95); opacity: 1; font-weight: normal; white-space: pre;">Temperature</text></g></g></svg>