<svg class="main-svg" xmlns="http://www.w3.org/2000/svg" xmlns:xlink="http://www.w3.org/1999/xlink" width="700" height="300" style="" viewBox="0 0 700 300"><rect x="0" y="0" width="700" height="300" style="fill: rgb(255, 255, 255); fill-opacity: 1;"/><defs id="defs-45b545"><g class="clips"><clipPath id="clip45b545xyplot" class="plotclip"><rect width="451.2" height="227"/></clipPath><clipPath id="clip45b545xy2plot" class="plotclip"><rect width="451.2" height="227"/></clipPath><clipPath class="axesclip" id="clip45b545x"><rect x="75" y="0" width="451.2" height="300"/></clipPath><clipPath class="axesclip" id="clip45b545y"><rect x="0" y="20" width="700" height="227"/></clipPath><clipPath class="axesclip" id="clip45b545xy"><rect x="75" y="20" width="451.2" height="227"/></clipPath><clipPath class="axesclip" id="clip45b545y2"><rect x="0" y="20" width="700" height="227"/></clipPath><clipPath class="axesclip" id="clip45b545xy2"><rect x="75" y="20" width="451.2" height="227"/></clipPath></g><g class="gradients"/><g class="patterns"/></defs><g class="bglayer"><rect class="bg" x="75" y="20" width="451.2" height="227" style="fill: rgb(229, 236, 246); fill-opacity: 1; stroke-width: 0;"/></g><g class="layer-below"><g class="imagelayer"/><g class="shapelayer"/></g><g class="cartesianlayer"><g class="subplot xy"><g class="layer-subplot"><g class="shapelayer"/><g class="imagelayer"/></g><g class="gridlayer"><g class="x"><path class="xgrid crisp" transform="translate(149.95999999999998,0)" d="M0,20v227" style="stroke: rgb(255, 255, 255); stroke-opacity: 1; stroke-width: 1px;"/><path class="xgrid crisp" transform="translate(224.93,0)" d="M0,20v227" style="stroke: rgb(255, 255, 255); stroke-opacity: 1; stroke-width: 1px;"/><path class="xgrid crisp" transform="translate(299.89,0)" d="M0,20v227" style="stroke: rgb(255, 255, 255); stroke-opacity: 1; stroke-width: 1px;"/><path class="xgrid crisp" transform="translate(374.85,0)" d="M0,20v227" style="stroke: rgb(255, 255, 255); stroke-opacity: 1; stroke-width: 1px;"/><path class="xgrid crisp" transform="translate(449.81,0)" d="M0,20v227" style="stroke: rgb(255, 255, 255); stroke-opacity: 1; stroke-width: 1px;"/><path class="xgrid crisp" transform="translate(524.78,0)" d="M0,20v227" style="stroke: rgb(255, 255, 255); stroke-opacity: 1; stroke-width: 1px;"/></g><g class="y"><path class="ygrid crisp" transform="translate(0,207.85)" d="M75,0h451.2" style="stroke: rgb(255, 255, 255); stroke-opacity: 1; stroke-width: 1px;"/><path class="ygrid crisp" transform="translate(0,153.52)" d="M75,0h451.2" style="stroke: rgb(255, 255, 255); stroke-opacity: 1; stroke-width: 1px;"/><path class="ygrid crisp" transform="translate(0,99.2)" d="M75,0h451.2" style="stroke: rgb(255, 255, 255); stroke-opacity: 1; stroke-width: 1px;"/><path class="ygrid crisp" transform="translate(0,44.870000000000005)" d="M75,0h451.2" style="stroke: rgb(255, 255, 255); stroke-opacity: 1; stroke-width: 1px;"/></g><g class="y2"><path class="y2grid crisp" transform="translate(0,184.58)" d="M75,0h451.2" style="stroke: rgb(255, 255, 255); stroke-opacity: 1; stroke-width: 1px;"/><path class="y2grid crisp" transform="translate(0,133.5)" d="M75,0h451.2" style="stroke: rgb(255, 255, 255); stroke-opacity: 1; stroke-width: 1px;"/><path class="y2grid crisp" transform="translate(0,82.43)" d="M75,0h451.2" style="stroke: rgb(255, 255, 255); stroke-opacity: 1; stroke-width: 1px;"/><path class="y2grid crisp" transform="translate(0,31.35)" d="M75,0h451.2" style="stroke: rgb(255, 255, 255); stroke-opacity: 1; stroke-width: 1px;"/></g></g><g class="zerolinelayer"><path class="xzl zl crisp" transform="translate(75,0)" d="M0,20v227" style="stroke: rgb(255, 255, 255); stroke-opacity: 1; stroke-width: 2px;"/><path class="y2zl zl crisp" transform="translate(0,235.65)" d="M75,0h451.2" style="stroke: rgb(255, 255, 255); stroke-opacity: 1; stroke-width: 2px;"/></g><path class="xlines-below"/><path class="ylines-below"/><g class="overlines-below"><path class="xy2-x"/><path class="xy2-y"/></g><g class="xaxislayer-below"/><g class="yaxislayer-below"/><g class="overaxes-below"><g class="xy2-x"/><g class="xy2-y"/></g><g class="plot" transform="translate(75,20)" clip-path="url(#clip45b545xyplot)"><g class="scatterlayer mlayer"><g class="trace scatter traceb397cc" style="stroke-miterlimit: 2; opacity: 1;"><g class="fills"/><g class="errorbars"/><g class="lines"><path class="js-line" d="M0,15.54L0.15,17.1L0.3,15.05L0.37,12.85L0.52,11.35L0.82,15.69L0.9,15.24L1.72,21.69L1.87,19.63L1.95,19.29L2.02,20.92L2.47,16.47L2.55,17.19L2.62,15.85L2.85,14.84L3.15,18.73L3.3,16.41L3.37,15.72L3.45,16.66L3.9,13.85L4.05,16.18L4.12,14.39L4.2,15.69L4.42,12.11L4.8,13.98L4.87,13.51L5.32,12.68L5.47,14.54L5.55,13.27L5.62,12.46L5.77,12.27L5.85,12.59L5.92,13.57L6,12.81L6.15,14.51L6.45,14.33L6.52,15.27L6.67,13.45L6.75,12.41L7.57,16.91L7.65,16.36L8.1,16.14L9,21.31L9.07,21.15L9.15,20.6L9.22,18.79L9.67,21.88L9.82,20.58L9.9,20.67L9.97,19.46L10.57,21.55L10.64,21.25L11.02,19.05L11.09,19.82L11.17,21.52L11.32,20.92L11.54,22.69L11.62,22.68L11.69,23.81L12.67,26.45L12.74,26.71L12.89,25.85L13.27,27.17L13.34,28.83L14.09,31.05L14.17,30.12L14.24,30.4L14.39,31L14.54,29.45L14.84,29.82L14.92,28.94L15.74,30.98L15.89,30.39L15.97,29.79L16.12,28.64L16.49,31.04L16.64,30.11L16.72,30.47L17.62,33.83L17.69,32.64L17.77,32.06L18.89,35.75L18.97,34.34L19.34,36.21L19.42,36.6L19.57,36.32L20.31,37.24L20.39,37.46L20.61,36.53L20.99,37.93L21.06,38.22L25.11,47.17L25.34,46.48L25.41,46.53L27.29,51.7L27.36,51.79L28.79,55.34L28.86,55.13L29.91,56.24L29.99,56.26L30.51,57.49L30.81,57.06L30.88,57.08L32.76,60.93L32.83,60.56L33.06,60.47L33.36,61.04L33.43,61.17L34.33,63.27L34.63,63.03L34.71,63.08L35.01,63.74L35.08,64.24L36.13,66L36.21,66.24L37.33,68.76L37.41,68.96L45.13,83.23L45.2,83.29L46.93,86.12L47,86.15L48.28,88.26L48.35,88.41L51.42,93.23L51.5,93.4L53.45,97.26L53.52,97.36L55.55,100.22L55.62,100.37L57.12,101.64L57.2,101.82L58.4,103.4L58.47,103.42L59.67,104.89L59.75,104.91L61.77,107.49L61.84,107.5L63.64,109.31L63.72,109.33L64.39,110.23L64.47,110.4L65.59,111.53L65.67,111.66L66.94,112.87L67.02,112.91L68.37,114.5L68.44,114.8L70.61,117.85L70.69,118.08L72.19,119.5L72.26,119.75L79.61,127.32L79.69,127.63L91.53,139.12L91.6,139.13L103.67,148.76L103.75,148.78L107.42,151.36L107.5,151.61L108.47,152.39L108.55,152.39L109.97,153.27L110.05,153.27L111.84,154.5L111.92,154.6L112.89,154.94L112.97,155.02L116.64,157.42L116.72,157.66L118.07,158.22L118.14,158.27L122.56,160.97L122.64,160.98L123.61,161.53L123.69,161.57L128.79,163.94L128.86,164.07L129.84,164.56L129.91,164.57L139.81,169.29L139.88,169.29L146.93,172.38L147,172.48L148.2,173.01L148.28,173.01L150.45,173.8L150.52,173.83L158.17,176.52L158.25,176.64L161.39,177.31L161.47,177.4L164.54,178.02L164.62,178.32L167.09,178.91L167.17,179.09L169.94,179.77L170.02,179.98L173.61,180.65L173.69,180.65L176.99,181.75L177.06,181.84L179.09,182.58L179.16,182.61L180.88,183.19L180.96,183.19L181.93,183.86L182.01,183.96L185.38,184.65L185.46,184.78L186.28,185.02L186.36,185.02L188.01,185.62L188.08,185.64L202.77,189.02L202.85,189.02L204.35,189.8L204.42,189.8L208.17,190.51L208.25,190.58L237.48,196.27L237.56,196.27L242.65,196.94L242.73,197.07L251.12,197.66L251.2,197.83L257.95,198.54L258.02,198.63L264.54,199.34L264.62,199.52L273.01,200.24L273.09,200.31L280.14,201.06L280.21,201.09L288.98,202.09L289.06,202.09L296.1,202.83L296.18,202.89L301.42,203.64L301.5,203.76L308.17,204.47L308.25,204.6L315.89,205.32L315.97,205.42L353.07,208.59L353.15,208.64L354.42,208.84L354.5,208.84L360.27,209.52L360.35,209.62L362.44,209.76L362.52,209.76L371.59,210.47L371.66,210.57L388.53,211.31L388.61,211.34L390.78,211.53L390.86,211.53L395.13,212.24L395.2,212.32L407.35,213.06L407.42,213.16L409.37,213.25L409.45,213.25L425.41,213.8L425.49,214.03L437.63,214.77L437.71,214.85L450.08,215.6L450.15,215.65L451.2,215.65" style="vector-effect: non-scaling-stroke; fill: none; stroke: rgb(99, 110, 250); stroke-opacity: 1; stroke-width: 2px; opacity: 1;"/></g><g class="points"/><g class="text"/></g></g></g><g class="overplot"><g class="xy2" transform="translate(75,20)" clip-path="url(#clip45b545xy2plot)"><g class="scatterlayer mlayer"><g class="trace scatter trace4bb365" style="stroke-miterlimit: 2; opacity: 1;"><g class="fills"/><g class="errorbars"/><g class="lines"><path class="js-line" d="M0,11.35L3.45,74.46L3.52,75.59L8.17,130.53L8.25,131.21L11.77,157.76L11.84,158.22L16.49,180.75L16.57,181.03L19.94,191.53L20.02,191.72L23.61,199.38L23.69,199.51L27.96,205.44L28.04,205.52L32.91,209.64L32.98,209.69L39.28,212.61L39.36,212.64L46.55,214.26L46.63,214.27L60.19,215.33L60.27,215.33L83.13,215.62L83.21,215.62L451.2,215.65" style="vector-effect: non-scaling-stroke; fill: none; stroke: rgb(239, 85, 59); stroke-opacity: 1; stroke-width: 2px; opacity: 1;"/></g><g class="points"/><g class="text"/></g></g></g></g><path class="xlines-above crisp" d="M0,0" style="fill: none;"/><path class="ylines-above crisp" d="M0,0" style="fill: none;"/><g class="overlines-above"><path class="xy2-x crisp" d="M0,0" style="fill: none;"/><path class="xy2-y crisp" d="M0,0" style="fill: none;"/></g><g class="xaxislayer-above"><g class="xtick"><text text-anchor="middle" x="0" y="260" transform="translate(75,0)" style="font-family: 'Open Sans', verdana, arial, sans-serif; font-size: 12px; fill: rgb(42, 63, 95); fill-opacity: 1; white-space: pre; opacity: 1;">0</text></g><g class="xtick"><text text-anchor="middle" x="0" y="260" style="font-family: 'Open Sans', verdana, arial, sans-serif; font-size: 12px; fill: rgb(42, 63, 95); fill-opacity: 1; white-space: pre; opacity: 1;" transform="translate(149.95999999999998,0)">1000</text></g><g class="xtick"><text text-anchor="middle" x="0" y="260" style="font-family: 'Open Sans', verdana, arial, sans-serif; font-size: 12px; fill: rgb(42, 63, 95); fill-opacity: 1; white-space: pre; opacity: 1;" transform="translate(224.93,0)">2000</text></g><g class="xtick"><text text-anchor="middle" x="0" y="260" style="font-family: 'Open Sans', verdana, arial, sans-serif; font-size: 12px; fill: rgb(42, 63, 95); fill-opacity: 1; white-space: pre; opacity: 1;" transform="translate(299.89,0)">3000</text></g><g class="xtick"><text text-anchor="middle" x="0" y="260" style="font-family: 'Open Sans', verdana, arial, sans-serif; font-size: 12px; fill: rgb(42, 63, 95); fill-opacity: 1; white-space: pre; opacity: 1;" transform="translate(374.85,0)">4000</text></g><g class="xtick"><text text-anchor="middle" x="0" y="260" style="font-family: 'Open Sans', verdana, arial, sans-serif; font-size: 12px; fill: rgb(42, 63, 95); fill-opacity: 1; white-space: pre; opacity: 1;" transform="translate(449.81,0)">5000</text></g><g class="xtick"><text text-anchor="middle" x="0" y="260" style="font-family: 'Open Sans', verdana, arial, sans-serif; font-size: 12px; fill: rgb(42, 63, 95); fill-opacity: 1; white-space: pre; opacity: 1;" transform="translate(524.78,0)">6000</text></g></g><g class="yaxislayer-above"><g class="ytick"><text text-anchor="end" x="74" y="4.199999999999999" transform="translate(0,207.85)" style="font-family: 'Open Sans', verdana, arial, sans-serif; font-size: 12px; fill: rgb(42, 63, 95); fill-opacity: 1; white-space: pre; opacity: 1;">1.1M</text></g><g class="ytick"><text text-anchor="end" x="74" y="4.199999999999999" style="font-family: 'Open Sans', verdana, arial, sans-serif; font-size: 12px; fill: rgb(42, 63, 95); fill-opacity: 1; white-space: pre; opacity: 1;" transform="translate(0,153.52)">1.15M</text></g><g class="ytick"><text text-anchor="end" x="74" y="4.199999999999999" style="font-family: 'Open Sans', verdana, arial, sans-serif; font-size: 12px; fill: rgb(42, 63, 95); fill-opacity: 1; white-space: pre; opacity: 1;" transform="translate(0,99.2)">1.2M</text></g><g class="ytick"><text text-anchor="end" x="74" y="4.199999999999999" style="font-family: 'Open Sans', verdana, arial, sans-serif; font-size: 12px; fill: rgb(42, 63, 95); fill-opacity: 1; white-space: pre; opacity: 1;" transform="translate(0,44.870000000000005)">1.25M</text></g></g><g class="overaxes-above"><g class="xy2-x"/><g class="xy2-y"><g class="y2tick"><text text-anchor="start" x="527.2" y="4.199999999999999" transform="translate(0,235.65)" style="font-family: 'Open Sans', verdana, arial, sans-serif; font-size: 12px; fill: rgb(42, 63, 95); fill-opacity: 1; white-space: pre; opacity: 1;">0</text></g><g class="y2tick"><text text-anchor="start" x="527.2" y="4.199999999999999" style="font-family: 'Open Sans', verdana, arial, sans-serif; font-size: 12px; fill: rgb(42, 63, 95); fill-opacity: 1; white-space: pre; opacity: 1;" transform="translate(0,184.58)">500</text></g><g class="y2tick"><text text-anchor="start" x="527.2" y="4.199999999999999" style="font-family: 'Open Sans', verdana, arial, sans-serif; font-size: 12px; fill: rgb(42, 63, 95); fill-opacity: 1; white-space: pre; opacity: 1;" transform="translate(0,133.5)">1000</text></g><g class="y2tick"><text text-anchor="start" x="527.2" y="4.199999999999999" style="font-family: 'Open Sans', verdana, arial, sans-serif; font-size: 12px; fill: rgb(42, 63, 95); fill-opacity: 1; white-space: pre; opacity: 1;" transform="translate(0,82.43)">1500</text></g><g class="y2tick"><text text-anchor="start" x="527.2" y="4.199999999999999" style="font-family: 'Open Sans', verdana, arial, sans-serif; font-size: 12px; fill: rgb(42, 63, 95); fill-opacity: 1; white-space: pre; opacity: 1;" transform="translate(0,31.35)">2000</text></g></g></g></g><g class="subplot xy2"/></g><g class="polarlayer"/><g class="smithlayer"/><g class="ternarylayer"/><g class="geolayer"/><g class="funnelarealayer"/><g class="pielayer"/><g class="iciclelayer"/><g class="treemaplayer"/><g class="sunburstlayer"/><g class="glimages"/><defs id="topdefs-45b545"><g class="clips"/><clipPath id="legend45b545"><rect width="123" height="48" x="0" y="0"/></clipPath></defs><g class="layer-above"><g class="imagelayer"/><g class="shapelayer"/></g><g class="infolayer"><g class="legend" pointer-events="all" transform="translate(564.6,20)"><rect class="bg" shape-rendering="crispEdges" width="123" height="48" x="0" y="0" style="stroke: rgb(68, 68, 68); stroke-opacity: 1; fill: rgb(255, 255, 255); fill-opacity: 1; stroke-width: 0px;"/><g class="scrollbox" transform="" clip-path="url(#legend45b545)"><g class="groups"><g class="traces" transform="translate(0,14.5)" style="opacity: 1;"><text class="legendtext" text-anchor="start" x="40" y="4.680000000000001" style="font-family: 'Open Sans', verdana, arial, sans-serif; font-size: 12px; fill: rgb(42, 63, 95); fill-opacity: 1; white-space: pre;">Cost</text><g class="layers" style="opacity: 1;"><g class="legendfill"/><g class="legendlines"><path class="js-line" d="M5,0h30" style="fill: none; stroke: rgb(99, 110, 250); stroke-opacity: 1; stroke-width: 2px;"/></g><g class="legendsymbols"><g class="legendpoints"/></g></g><rect class="legendtoggle" x="0" y="-9.5" width="117.265625" height="19" style="fill: rgb(0, 0, 0); fill-opacity: 0;"/></g><g class="traces" transform="translate(0,33.5)" style="opacity: 1;"><text class="legendtext" text-anchor="start" x="40" y="4.680000000000001" style="font-family: 'Open Sans', verdana, arial, sans-serif; font-size: 12px; fill: rgb(42, 63, 95); fill-opacity: 1; white-space: pre;">Temperature</text><g class="layers" style="opacity: 1;"><g class="legendfill"/><g class="legendlines"><path class="js-line" d="M5,0h30" style="fill: none; stroke: rgb(239, 85, 59); stroke-opacity: 1; stroke-width: 2px;"/></g><g class="legendsymbols"><g class="legendpoints"/></g></g><rect class="legendtoggle" x="0" y="-9.5" width="117.265625" height="19" style="fill: rgb(0, 0, 0); fill-opacity: 0;"/></g></g></g><rect class="scrollbar" rx="20" ry="3" width="0" height="0" x="0" y="0" style="fill: rgb(128, 139, 164); fill-opacity: 1;"/></g><g class="g-gtitle"/><g class="g-xtitle"><text class="xtitle" x="300.6" y="287.8" text-anchor="middle" style="font-family: 'Open Sans', verdana, arial, sans-serif; font-size: 14px; fill: rgb(42, 63, 95); opacity: 1; font-weight: normal; white-space: pre;">Iterations</text></g><g class="g-ytitle" transform="translate(2.1748046875,0)"><text class="ytitle" transform="rotate(-90,11.825000000000003,133.5)" x="11.825000000000003" y="133.5" text-anchor="middle" style="font-family: 'Open Sans', verdana, arial, sans-serif; font-size: 14px; fill: rgb(42, 63, 95); opacity: 1; font-weight: normal; white-space: pre;">Cost</text></g><g class="g-y2title"><text class="y2title" transform="rotate(-90,582.89375,133.5)" x="582.89375" y="133.5" text-anchor="middle" style="font-family: 'Open Sans', verdana, arial, sans-serif; font-size: 14px; fill: rgb(42, 63, 95); opacity: 1; font-weight: normal; white-space: pre;">Temperature</text></g></g></svg>