<svg class="main-svg" xmlns="http://www.w3.org/2000/svg" xmlns:xlink="http://www.w3.org/1999/xlink" width="700" height="300" style="" viewBox="0 0 700 300"><rect x="0" y="0" width="700" height="300" style="fill: rgb(255, 255, 255); fill-opacity: 1;"/><defs id="defs-af8326"><g class="clips"><clipPath id="clipaf8326xyplot" class="plotclip"><rect width="465.29999999999995" height="227"/></clipPath><clipPath id="clipaf8326xy2plot" class="plotclip"><rect width="465.29999999999995" height="227"/></clipPath><clipPath class="axesclip" id="clipaf8326x"><rect x="60" y="0" width="465.29999999999995" height="300"/></clipPath><clipPath class="axesclip" id="clipaf8326y"><rect x="0" y="20" width="700" height="227"/></clipPath><clipPath class="axesclip" id="clipaf8326xy"><rect x="60" y="20" width="465.29999999999995" height="227"/></clipPath><clipPath class="axesclip" id="clipaf8326y2"><rect x="0" y="20" width="700" height="227"/></clipPath><clipPath class="axesclip" id="clipaf8326xy2"><rect x="60" y="20" width="465.29999999999995" height="227"/></clipPath></g><g class="gradients"/><g class="patterns"/></defs><g class="bglayer"><rect class="bg" x="60" y="20" width="465.29999999999995" height="227" style="fill: rgb(229, 236, 246); fill-opacity: 1; stroke-width: 0;"/></g><g class="layer-below"><g class="imagelayer"/><g class="shapelayer"/></g><g class="cartesianlayer"><g class="subplot xy"><g class="layer-subplot"><g class="shapelayer"/><g class="imagelayer"/></g><g class="gridlayer"><g class="x"><path class="xgrid crisp" transform="translate(163.07,0)" d="M0,20v227" style="stroke: rgb(255, 255, 255); stroke-opacity: 1; stroke-width: 1px;"/><path class="xgrid crisp" transform="translate(266.14,0)" d="M0,20v227" style="stroke: rgb(255, 255, 255); stroke-opacity: 1; stroke-width: 1px;"/><path class="xgrid crisp" transform="translate(369.2,0)" d="M0,20v227" style="stroke: rgb(255, 255, 255); stroke-opacity: 1; stroke-width: 1px;"/><path class="xgrid crisp" transform="translate(472.27,0)" d="M0,20v227" style="stroke: rgb(255, 255, 255); stroke-opacity: 1; stroke-width: 1px;"/></g><g class="y"><path class="ygrid crisp" transform="translate(0,198.16)" d="M60,0h465.29999999999995" style="stroke: rgb(255, 255, 255); stroke-opacity: 1; stroke-width: 1px;"/><path class="ygrid crisp" transform="translate(0,121.02)" d="M60,0h465.29999999999995" style="stroke: rgb(255, 255, 255); stroke-opacity: 1; stroke-width: 1px;"/><path class="ygrid crisp" transform="translate(0,43.879999999999995)" d="M60,0h465.29999999999995" style="stroke: rgb(255, 255, 255); stroke-opacity: 1; stroke-width: 1px;"/></g><g class="y2"><path class="y2grid crisp" transform="translate(0,184.59)" d="M60,0h465.29999999999995" style="stroke: rgb(255, 255, 255); stroke-opacity: 1; stroke-width: 1px;"/><path class="y2grid crisp" transform="translate(0,133.51)" d="M60,0h465.29999999999995" style="stroke: rgb(255, 255, 255); stroke-opacity: 1; stroke-width: 1px;"/><path class="y2grid crisp" transform="translate(0,82.43)" d="M60,0h465.29999999999995" style="stroke: rgb(255, 255, 255); stroke-opacity: 1; stroke-width: 1px;"/><path class="y2grid crisp" transform="translate(0,31.35)" d="M60,0h465.29999999999995" style="stroke: rgb(255, 255, 255); stroke-opacity: 1; stroke-width: 1px;"/></g></g><g class="zerolinelayer"><path class="xzl zl crisp" transform="translate(60,0)" d="M0,20v227" style="stroke: rgb(255, 255, 255); stroke-opacity: 1; stroke-width: 2px;"/><path class="y2zl zl crisp" transform="translate(0,235.67)" d="M60,0h465.29999999999995" style="stroke: rgb(255, 255, 255); stroke-opacity: 1; stroke-width: 2px;"/></g><path class="xlines-below"/><path class="ylines-below"/><g class="overlines-below"><path class="xy2-x"/><path class="xy2-y"/></g><g class="xaxislayer-below"/><g class="yaxislayer-below"/><g class="overaxes-below"><g class="xy2-x"/><g class="xy2-y"/></g><g class="plot" transform="translate(60,20)" clip-path="url(#clipaf8326xyplot)"><g class="scatterlayer mlayer"><g class="trace scatter tracee912a3" style="stroke-miterlimit: 2; opacity: 1;"><g class="fills"/><g class="errorbars"/><g class="lines"><path class="js-line" d="M0,17.64L0.21,14.9L0.31,16.69L0.36,17.18L0.41,14.37L0.72,17.95L1.13,15.89L1.19,15.36L1.29,16.94L1.75,12.43L1.8,12.83L1.91,11.35L2.16,16.29L2.37,14.53L2.42,16.44L2.94,20.64L3.25,20.27L3.3,19L3.61,19.74L4.02,13.36L4.17,15.61L4.23,17.64L4.33,14.84L4.69,20.33L4.9,19.56L4.95,20.58L5.26,25.27L5.62,19.68L5.67,19.8L6.49,14.99L6.54,15.73L6.6,14.93L7.01,18.76L7.06,20.02L7.16,18.42L7.42,21.59L7.68,20.79L7.73,21.44L8.19,22.74L8.35,20.36L8.45,22.18L8.5,21.01L8.66,21.29L9.12,17.09L9.53,17.95L9.59,18.05L9.79,14.37L10.2,20.24L10.26,19.56L10.31,20.39L10.56,21.84L10.72,18.23L10.82,18.79L10.87,16.69L11.39,13.54L11.6,15.92L11.65,16.6L12.06,15.61L12.42,19.53L12.47,17.89L12.78,14.37L13.19,17.4L13.24,18.2L13.45,20.42L13.76,17.12L13.91,17.68L13.97,17.06L14.43,15.18L14.53,18.17L14.58,17.37L14.64,19.34L14.79,19.71L15.25,15.48L15.41,17.74L15.46,18.69L15.56,22.89L16.23,20.39L16.28,20.27L16.49,22.61L16.8,21.13L16.85,19.28L17.01,17L17.42,22.4L17.52,21.53L17.57,21.9L18.19,19.06L18.4,20.39L18.45,21.22L18.81,18.63L19.07,25.05L19.12,25.76L19.79,17.8L20,20.67L20.05,19.93L20.1,18.14L20.46,21.04L20.82,19.22L20.87,18.32L20.92,19.71L21.23,15.92L21.64,19.56L21.7,20.05L22.16,13.88L22.67,15.73L22.73,16.29L22.93,15.39L23.09,20.79L23.65,19.16L23.71,18.72L23.91,18.35L24.01,19.34L24.07,19.84L24.79,16.63L24.89,17.09L24.94,16.6L25.25,19.77L25.66,17.46L25.72,17.24L26.08,20.67L26.33,16.35L26.39,16.41L26.44,15.79L27.11,11.57L27.31,13.51L27.36,13.39L27.42,14.34L27.88,11.38L28.09,13.05L28.14,13.32L29.12,18.11L29.17,17.21L29.22,16.94L29.32,13.48L29.74,19.59L29.79,19.37L30.2,16.47L30.56,18.23L30.61,17.86L30.97,13.66L31.28,21.69L31.44,20.14L31.49,19.65L31.64,21.72L31.85,18.39L32.21,19.77L32.26,19.9L32.67,22.58L32.88,21.93L32.93,20.55L33.14,16.47L33.7,17.83L33.75,18.85L33.96,20.61L34.32,18.2L34.37,16.9L34.48,15.52L34.73,18.66L34.89,18.48L34.94,19.25L34.99,22.58L35.66,17.74L35.71,18.85L36.59,14.99L36.74,16.04L36.8,16.19L37.67,24.37L37.77,22.21L37.83,20.82L37.93,21.01L38.03,19.59L38.08,19.43L38.29,17.83L38.6,22.06L38.75,21.1L38.81,21.35L39.73,16.94L39.84,18.97L39.89,19.65L40.09,20.36L40.45,18.08L40.76,19.22L40.81,19.8L41.07,20.73L41.43,18.66L41.54,19.5L41.59,20.21L42.1,21.25L42.57,16.94L42.62,17.64L42.93,16.04L43.39,20.55L43.49,20.21L43.55,18.63L44.11,19.62L44.27,16.41L44.37,17.27L44.42,18.08L45.35,25.7L45.5,22.71L45.56,21.5L45.66,20.61L46.02,23.23L46.54,22.49L46.59,21.63L46.95,22.18L47.05,20.42L47.21,22.15L47.26,22.86L47.36,21.25L47.67,23.54L48.03,22.24L48.08,22.27L48.44,23.23L48.6,21.75L48.65,21.81L48.7,20.85L48.8,21.32L48.91,20.08L48.96,18.35L49.68,14.4L49.83,16.63L49.88,17.27L50.3,19.87L50.45,18.23L50.5,17.34L50.61,16.87L52.26,24.09L52.36,23.32L52.41,23.51L52.67,21.1L52.98,23.91L53.18,22.92L53.23,23.2L53.6,24.53L53.85,23.04L54.11,24.37L54.16,24.43L54.42,25.76L54.94,19.74L55.09,21.41L55.14,21.44L55.55,18.01L55.91,19.4L55.97,19.71L56.53,17.83L56.69,19.09L56.74,20.24L57.61,26.04L57.87,24.43L57.92,23.79L58.03,22.71L58.23,25.14L58.54,24.37L58.59,25.33L59.06,25.79L59.21,23.14L59.42,24.06L59.47,24.25L60.19,19.96L60.45,21.25L60.5,21.41L60.96,24.9L61.02,23.79L61.07,22.92L61.43,20.21L61.84,20.95L61.89,21.56L62.3,21.32L62.61,23.94L62.72,22.67L62.77,21.75L64.11,29.43L64.21,28.38L64.26,27.33L64.47,28.72L64.83,24.62L65.09,25.79L65.14,25.42L65.29,26.75L65.65,25.24L65.91,25.79L65.96,25.42L66.27,25.67L66.63,24.06L66.68,24.22L66.74,24.49L66.94,26.56L67.41,24.03L67.46,24.83L67.51,24.56L68.23,30.23L68.49,28.78L68.54,28.14L68.8,27.33L69.21,30.17L69.26,27.92L69.78,25.85L70.09,26.25L70.14,26.5L70.29,25.82L71.17,30.33L71.22,29.8L71.27,29.31L71.63,27.77L72.04,28.32L72.1,28.41L72.3,29.28L72.56,27.4L72.82,28.48L72.87,28.48L73.85,26.01L73.9,26.75L73.95,27.24L74.21,25.88L74.57,27.95L74.62,28.04L74.83,27.55L74.88,26.72L74.93,26.25L75.29,29.52L75.34,29.77L75.45,30.02L75.75,27.73L76.12,28.54L76.17,29.22L76.89,23.41L77.09,25.02L77.15,25.11L77.35,23.14L77.66,26.5L77.82,26.16L77.87,26.22L78.49,30.2L78.8,28.51L78.85,28.26L79.62,30.42L79.67,30.26L79.72,30.39L79.88,30.02L80.6,32.46L80.65,32.15L80.7,31.99L80.86,31.9L81.06,33.81L81.42,32.21L81.48,31.56L81.99,35.26L82.45,34.34L82.51,34.43L82.92,36.56L83.18,35.05L83.23,33.78L83.64,34.21L84.21,31.53L84.26,31.59L84.31,31.9L84.41,33.13L84.72,31.07L85.03,31.93L85.08,31.25L85.29,31.65L85.49,30.82L85.65,30.82L85.7,30.6L86.06,27.92L86.58,28.51L86.63,28.91L88.17,34.8L88.33,34.65L88.38,33.91L88.69,34.96L88.79,32.24L89,32.73L89.05,32.89L89.21,31.62L90.39,35.63L90.44,34.99L90.85,36.96L91.01,34.71L91.16,35.73L91.22,34.37L91.52,34.86L91.63,34.06L91.73,34.65L91.78,33.35L91.99,33.29L92.97,37.27L93.12,36.5L93.17,36.68L93.74,38.69L93.95,37.39L94,36.31L94.31,35.02L94.56,36.62L94.77,36L94.82,36.13L95.03,38.53L95.39,35.91L95.54,36.47L95.6,35.91L95.65,35.76L96.01,37.05L96.06,37.18L96.16,36.62L96.57,39.18L96.63,38.84L96.68,39.28L96.94,40.17L97.3,39.43L97.35,37.92L97.55,39L97.81,37.33L97.86,37.45L97.91,37.27L97.97,36.78L98.43,39L98.53,37.92L98.58,38.01L98.89,38.63L99,37.61L99.25,38.35L99.31,36.96L99.41,35.94L99.92,38.23L99.98,38.44L100.23,37.98L100.7,39.03L100.75,38.26L101.68,40.69L101.73,39.77L101.78,38.81L102.14,41.13L102.24,39.77L102.29,39.34L102.55,39.28L103.38,42.42L103.48,42.27L103.53,41.43L103.69,40.54L104.1,42.92L104.15,42.64L104.2,42.67L104.77,40.42L104.97,41.43L105.03,41.43L105.23,40.79L105.44,42.14L105.75,41.59L105.8,42.64L106.73,44.71L106.78,44.21L106.83,42.82L107.86,45.08L107.91,44.4L108.12,45.57L108.27,43.66L108.69,45.2L108.74,44.71L109.05,43.69L109.82,47.98L109.87,47.85L109.92,47.88L110.02,47.08L110.44,49.74L110.49,49.89L111.31,51.31L111.42,50.75L111.47,50.2L111.57,50.6L111.62,49.77L111.73,50.2L111.78,48.62L111.88,49.21L112.24,47.54L112.34,47.76L112.4,46.31L112.5,45.85L112.76,47.67L113.17,46.4L113.22,46.13L113.43,44.74L113.63,45.54L113.68,46.25L113.89,46.9L113.99,45.79L114.04,45.82L114.1,44.8L114.41,46.13L114.71,44.55L114.77,43.84L114.87,43.59L115.38,45.75L115.49,45.01L115.54,44.03L115.64,43.84L115.95,44.58L116,45.42L116.62,46.77L116.88,46.68L116.93,46.83L117.09,47.3L117.45,45.72L117.5,44.67L117.91,46.25L118.22,44.95L118.27,44.18L118.32,43.78L118.84,45.48L118.89,45.6L119.04,45.51L120.69,49.55L120.74,49.24L121.05,50.04L121.57,46.9L121.77,47.33L121.83,47.42L122.08,48.07L122.39,47.05L122.44,45.88L123.37,47.98L123.42,47.73L123.48,47.08L123.99,48.04L124.15,46.8L124.2,46.96L124.25,46.77L124.76,45.45L125.07,46.19L125.12,46.22L125.79,48.41L125.9,47.08L125.95,46.56L126.26,46.99L126.41,46.03L126.62,46.93L126.67,47.17L126.77,46.37L127.29,48.59L127.34,48.72L127.65,49.49L127.86,47.51L127.91,47.39L128.83,51.31L128.99,49.86L129.04,49.49L129.61,47.33L129.87,48.04L129.92,48.1L130.48,49.09L130.64,48.9L130.69,47.95L131.62,49.83L131.67,49.89L132.08,49.74L132.34,51.09L132.39,51L132.44,50.04L132.85,52.05L132.91,52.42L133.63,55.04L133.89,54.73L133.94,53.81L134.71,56.09L134.81,55.07L134.86,54.7L135.07,55.51L135.28,54.02L135.33,54.06L136,56.09L136.2,55.32L136.26,55.07L136.41,54.27L136.98,55.26L137.03,55.44L137.18,55.26L137.23,55.44L137.29,53.96L137.6,53.84L139.24,58.68L139.4,58.34L139.45,58.04L139.91,58.38L140.02,58L140.07,57.2L140.22,56.31L140.79,57.33L140.84,57.36L141.31,58.34L141.36,58.71L143.88,63.68L144.19,63.28L144.24,62.94L144.4,61.68L144.81,62.69L144.86,62.76L145.33,63.62L145.69,63.34L145.74,62.73L146,63.65L146.1,63.03L146.15,62.11L147.34,62.91L147.39,62.26L148.83,64.76L148.88,63.62L149.4,62.08L149.6,62.91L149.65,63.1L150.17,63.96L150.32,63.5L150.38,62.91L150.99,63.53L151.05,62.66L151.15,63L151.2,63.22L151.46,61.95L151.87,62.97L151.92,63.1L152.8,65.47L152.85,65.23L152.9,65.26L153.31,66.64L153.88,66.34L153.93,65.81L155.22,68.65L155.27,67.57L155.32,67.14L155.43,67.05L155.99,68.62L156.25,68.25L156.3,68.28L157.8,72.2L157.85,71.61L157.9,70.63L159.14,72.63L159.19,71.89L159.45,72.38L159.6,71.06L159.86,71.49L159.91,71.52L160.01,71.64L160.06,70.81L160.32,71.06L160.37,70.63L160.79,71.61L160.89,70.25L160.94,69.76L161.82,71.15L161.87,70.69L161.92,70.44L162.28,70.84L162.43,69.98L162.64,70.38L162.69,70.44L163.62,71.58L163.72,71.18L163.77,70.53L165.27,72.94L165.32,72.2L165.37,72.01L165.94,72.79L165.99,72.94L167.07,75.56L167.28,75.32L167.33,75.32L167.64,75.56L167.79,74.79L168.1,74.98L168.16,75.1L169.24,77.26L169.34,77.01L169.39,76.55L171.4,82.13L171.45,82.2L171.76,82.72L172.12,81.76L172.17,82.01L172.23,82.1L172.28,81.83L172.79,83.03L172.84,83.18L173.62,81.89L173.67,82.01L173.72,82.01L174.7,84.45L174.75,84.48L175.83,85.65L175.89,85.68L176.66,84.57L176.71,84.63L176.76,83.89L177.28,84.91L177.59,84.54L177.64,84.02L178.93,86.08L178.98,85.41L179.44,83.21L179.91,84.17L179.96,84.29L181.14,86.18L181.3,85.9L181.35,85.25L182.07,84.26L182.12,84.45L182.17,84.79L182.28,84.51L182.64,85.25L182.79,85.16L182.84,85.25L182.89,85L183.41,86.21L183.46,86.24L183.98,84.73L184.29,85.5L184.34,85.59L185.06,85.81L185.11,85.34L186.66,87.26L186.71,86.64L187.02,87.44L187.12,86.98L187.17,86.49L187.69,87.32L187.94,85.53L188,85.59L188.05,85.62L189.18,87.69L189.23,87.23L189.28,86.52L190.06,84.51L190.37,84.94L190.42,84.97L190.52,84.73L190.83,85.41L190.93,85.37L190.98,85.78L191.09,85.5L192.69,89.14L192.84,89.02L192.89,89.05L192.94,88.65L193.46,90.16L193.51,90.22L193.61,89.88L194.08,90.74L194.13,91.02L194.23,90.87L194.44,91.45L194.49,91.48L194.54,91.89L194.75,91.67L195.67,93.15L195.73,92.97L196.65,95.03L196.96,94.6L197.01,94.66L199.18,98.77L199.23,98.3L199.69,99.32L199.9,98.46L199.95,97.93L200.78,98.49L200.83,98.74L202.27,101.82L202.37,101.05L202.43,101.11L203.15,100.31L203.35,100.49L203.4,100.74L204.13,101.33L204.18,100.77L204.23,100.56L204.28,100.12L204.8,101.54L204.85,101.76L206.86,104.57L206.91,103.83L208.76,106.39L208.92,105.92L208.97,105.55L212.42,108.79L212.47,108.27L212.68,107.75L214.33,109.78L214.38,109.91L215.46,111.11L215.51,111.17L215.77,110.68L216.24,111.11L216.29,110.68L216.39,110.24L216.75,110.99L217.01,110.71L217.06,110.74L218.35,111.97L218.4,111.42L218.66,111.48L218.71,110.89L219.12,111.51L219.17,111.54L220.51,113.08L220.57,112.59L220.62,112.1L220.72,112.5L220.98,111.26L221.29,111.63L221.34,111.17L222.27,112L222.32,111.36L223.55,112.22L223.61,112.22L225.1,113.79L225.15,114.04L229.48,120.06L229.53,120.33L229.89,119.87L230.31,120.18L230.36,120.27L230.87,120.77L231.23,120.64L231.28,120.67L231.9,120.92L231.95,121.17L232.62,121.32L232.68,120.58L233.35,121.29L233.45,121.04L233.5,120.24L235.15,121.82L235.2,121.82L238.6,126.44L238.65,126.26L246.74,134.78L246.8,134.34L247.72,134.87L247.78,134.96L251.59,139.06L251.69,138.57L251.74,138.6L253.39,139.19L253.44,139.4L256.07,141.07L256.12,141.29L258.8,143.29L258.86,143.48L260.19,145.14L260.25,145.24L264.11,148.85L264.16,148.85L265.45,150.39L265.5,150.39L267.72,151.87L267.77,152.09L269.99,153.63L270.04,153.63L272,154.71L272.05,154.8L273.59,155.76L273.65,155.94L275.5,157.18L275.55,157.18L292.35,166.34L292.4,166.34L294.88,167.54L294.93,167.64L302.61,171L302.66,171.16L304.41,172.48L304.46,172.48L306.27,173.41L306.32,173.81L309.2,174.98L309.26,175.17L313.58,176.22L313.64,176.22L315.08,176.89L315.13,176.99L316.57,177.88L316.62,178.01L318.79,178.65L318.84,178.87L323.99,180.94L324.05,180.94L326.78,182.02L326.83,182.14L332.19,183.93L332.24,183.99L335.64,185.32L335.69,185.47L339.66,186.15L339.71,186.27L350.79,189.7L350.84,189.79L352.96,190.44L353.01,190.72L355.17,191.34L355.22,191.55L358.16,191.86L358.21,191.86L362.08,193.16L362.13,193.34L365.32,194.08L365.38,194.11L370.48,195.84L370.53,195.96L372.23,196.58L372.28,196.74L374.91,197.44L374.96,197.51L378.05,198.25L378.1,198.28L381.51,198.99L381.56,199.14L402.33,203.71L402.38,203.83L406.4,204.57L406.45,204.63L410.93,205.34L410.98,205.41L419.74,207.72L419.8,207.91L425.26,208.65L425.31,208.71L426.7,209.26L426.75,209.26L454.48,214.01L454.53,214.01L460.3,214.76L460.35,214.79L463.91,215.43L463.96,215.56L465.3,215.65" style="vector-effect: non-scaling-stroke; fill: none; stroke: rgb(99, 110, 250); stroke-opacity: 1; stroke-width: 2px; opacity: 1;"/></g><g class="points"/><g class="text"/></g></g></g><g class="overplot"><g class="xy2" transform="translate(60,20)" clip-path="url(#clipaf8326xy2plot)"><g class="scatterlayer mlayer"><g class="trace scatter trace616a60" style="stroke-miterlimit: 2; opacity: 1;"><g class="fills"/><g class="errorbars"/><g class="lines"><path class="js-line" d="M0,11.35L8.76,43.31L8.81,43.48L17.21,69.39L17.26,69.54L22.47,83.58L22.52,83.72L31.13,104.02L31.18,104.13L39.84,121.39L39.89,121.48L47.77,134.85L47.82,134.93L61.63,153.92L61.69,153.99L71.94,165.12L71.99,165.17L85.24,176.62L85.29,176.66L94.36,182.96L94.41,182.99L104.46,188.79L104.51,188.81L120.38,195.94L120.43,195.96L137.03,201.39L137.08,201.4L157.33,206.04L157.38,206.05L178.98,209.35L179.03,209.35L201.39,211.58L201.45,211.58L213.56,212.44L213.61,212.44L248.75,214.04L248.81,214.04L267.56,214.54L267.62,214.54L283.39,214.84L283.44,214.84L404.49,215.59L404.54,215.6L465.3,215.65" style="vector-effect: non-scaling-stroke; fill: none; stroke: rgb(239, 85, 59); stroke-opacity: 1; stroke-width: 2px; opacity: 1;"/></g><g class="points"/><g class="text"/></g></g></g></g><path class="xlines-above crisp" d="M0,0" style="fill: none;"/><path class="ylines-above crisp" d="M0,0" style="fill: none;"/><g class="overlines-above"><path class="xy2-x crisp" d="M0,0" style="fill: none;"/><path class="xy2-y crisp" d="M0,0" style="fill: none;"/></g><g class="xaxislayer-above"><g class="xtick"><text text-anchor="middle" x="0" y="260" transform="translate(60,0)" style="font-family: 'Open Sans', verdana, arial, sans-serif; font-size: 12px; fill: rgb(42, 63, 95); fill-opacity: 1; white-space: pre; opacity: 1;">0</text></g><g class="xtick"><text text-anchor="middle" x="0" y="260" style="font-family: 'Open Sans', verdana, arial, sans-serif; font-size: 12px; fill: rgb(42, 63, 95); fill-opacity: 1; white-space: pre; opacity: 1;" transform="translate(163.07,0)">2000</text></g><g class="xtick"><text text-anchor="middle" x="0" y="260" style="font-family: 'Open Sans', verdana, arial, sans-serif; font-size: 12px; fill: rgb(42, 63, 95); fill-opacity: 1; white-space: pre; opacity: 1;" transform="translate(266.14,0)">4000</text></g><g class="xtick"><text text-anchor="middle" x="0" y="260" style="font-family: 'Open Sans', verdana, arial, sans-serif; font-size: 12px; fill: rgb(42, 63, 95); fill-opacity: 1; white-space: pre; opacity: 1;" transform="translate(369.2,0)">6000</text></g><g class="xtick"><text text-anchor="middle" x="0" y="260" style="font-family: 'Open Sans', verdana, arial, sans-serif; font-size: 12px; fill: rgb(42, 63, 95); fill-opacity: 1; white-space: pre; opacity: 1;" transform="translate(472.27,0)">8000</text></g></g><g class="yaxislayer-above"><g class="ytick"><text text-anchor="end" x="59" y="4.199999999999999" transform="translate(0,198.16)" style="font-family: 'Open Sans', verdana, arial, sans-serif; font-size: 12px; fill: rgb(42, 63, 95); fill-opacity: 1; white-space: pre; opacity: 1;">45k</text></g><g class="ytick"><text text-anchor="end" x="59" y="4.199999999999999" style="font-family: 'Open Sans', verdana, arial, sans-serif; font-size: 12px; fill: rgb(42, 63, 95); fill-opacity: 1; white-space: pre; opacity: 1;" transform="translate(0,121.02)">50k</text></g><g class="ytick"><text text-anchor="end" x="59" y="4.199999999999999" style="font-family: 'Open Sans', verdana, arial, sans-serif; font-size: 12px; fill: rgb(42, 63, 95); fill-opacity: 1; white-space: pre; opacity: 1;" transform="translate(0,43.879999999999995)">55k</text></g></g><g class="overaxes-above"><g class="xy2-x"/><g class="xy2-y"><g class="y2tick"><text text-anchor="start" x="526.3" y="4.199999999999999" transform="translate(0,235.67)" style="font-family: 'Open Sans', verdana, arial, sans-serif; font-size: 12px; fill: rgb(42, 63, 95); fill-opacity: 1; white-space: pre; opacity: 1;">0</text></g><g class="y2tick"><text text-anchor="start" x="526.3" y="4.199999999999999" style="font-family: 'Open Sans', verdana, arial, sans-serif; font-size: 12px; fill: rgb(42, 63, 95); fill-opacity: 1; white-space: pre; opacity: 1;" transform="translate(0,184.59)">500</text></g><g class="y2tick"><text text-anchor="start" x="526.3" y="4.199999999999999" style="font-family: 'Open Sans', verdana, arial, sans-serif; font-size: 12px; fill: rgb(42, 63, 95); fill-opacity: 1; white-space: pre; opacity: 1;" transform="translate(0,133.51)">1000</text></g><g class="y2tick"><text text-anchor="start" x="526.3" y="4.199999999999999" style="font-family: 'Open Sans', verdana, arial, sans-serif; font-size: 12px; fill: rgb(42, 63, 95); fill-opacity: 1; white-space: pre; opacity: 1;" transform="translate(0,82.43)">1500</text></g><g class="y2tick"><text text-anchor="start" x="526.3" y="4.199999999999999" style="font-family: 'Open Sans', verdana, arial, sans-serif; font-size: 12px; fill: rgb(42, 63, 95); fill-opacity: 1; white-space: pre; opacity: 1;" transform="translate(0,31.35)">2000</text></g></g></g></g><g class="subplot xy2"/></g><g class="polarlayer"/><g class="smithlayer"/><g class="ternarylayer"/><g class="geolayer"/><g class="funnelarealayer"/><g class="pielayer"/><g class="iciclelayer"/><g class="treemaplayer"/><g class="sunburstlayer"/><g class="glimages"/><defs id="topdefs-af8326"><g class="clips"/><clipPath id="legendaf8326"><rect width="123" height="48" x="0" y="0"/></clipPath></defs><g class="layer-above"><g class="imagelayer"/><g class="shapelayer"/></g><g class="infolayer"><g class="legend" pointer-events="all" transform="translate(564.9000000000001,20)"><rect class="bg" shape-rendering="crispEdges" width="123" height="48" x="0" y="0" style="stroke: rgb(68, 68, 68); stroke-opacity: 1; fill: rgb(255, 255, 255); fill-opacity: 1; stroke-width: 0px;"/><g class="scrollbox" transform="" clip-path="url(#legendaf8326)"><g class="groups"><g class="traces" transform="translate(0,14.5)" style="opacity: 1;"><text class="legendtext" text-anchor="start" x="40" y="4.680000000000001" style="font-family: 'Open Sans', verdana, arial, sans-serif; font-size: 12px; fill: rgb(42, 63, 95); fill-opacity: 1; white-space: pre;">Cost</text><g class="layers" style="opacity: 1;"><g class="legendfill"/><g class="legendlines"><path class="js-line" d="M5,0h30" style="fill: none; stroke: rgb(99, 110, 250); stroke-opacity: 1; stroke-width: 2px;"/></g><g class="legendsymbols"><g class="legendpoints"/></g></g><rect class="legendtoggle" x="0" y="-9.5" width="117.265625" height="19" style="fill: rgb(0, 0, 0); fill-opacity: 0;"/></g><g class="traces" transform="translate(0,33.5)" style="opacity: 1;"><text class="legendtext" text-anchor="start" x="40" y="4.680000000000001" style="font-family: 'Open Sans', verdana, arial, sans-serif; font-size: 12px; fill: rgb(42, 63, 95); fill-opacity: 1; white-space: pre;">Temperature</text><g class="layers" style="opacity: 1;"><g class="legendfill"/><g class="legendlines"><path class="js-line" d="M5,0h30" style="fill: none; stroke: rgb(239, 85, 59); stroke-opacity: 1; stroke-width: 2px;"/></g><g class="legendsymbols"><g class="legendpoints"/></g></g><rect class="legendtoggle" x="0" y="-9.5" width="117.265625" height="19" style="fill: rgb(0, 0, 0); fill-opacity: 0;"/></g></g></g><rect class="scrollbar" rx="20" ry="3" width="0" height="0" x="0" y="0" style="fill: rgb(128, 139, 164); fill-opacity: 1;"/></g><g class="g-gtitle"/><g class="g-xtitle"><text class="xtitle" x="292.65" y="287.8" text-anchor="middle" style="font-family: 'Open Sans', verdana, arial, sans-serif; font-size: 14px; fill: rgb(42, 63, 95); opacity: 1; font-weight: normal; white-space: pre;">Iterations</text></g><g class="g-ytitle" transform="translate(2.1591796875,0)"><text class="ytitle" transform="rotate(-90,11.840625000000003,133.5)" x="11.840625000000003" y="133.5" text-anchor="middle" style="font-family: 'Open Sans', verdana, arial, sans-serif; font-size: 14px; fill: rgb(42, 63, 95); opacity: 1; font-weight: normal; white-space: pre;">Cost</text></g><g class="g-y2title"><text class="y2title" transform="rotate(-90,581.9875,133.5)" x="581.9875" y="133.5" text-anchor="middle" style="font-family: 'Open Sans', verdana, arial, sans-serif; font-size: 14px; fill: rgb(42, 63, 95); opacity: 1; font-weight: normal; white-space: pre;">Temperature</text></g></g></svg>