<svg class="main-svg" xmlns="http://www.w3.org/2000/svg" xmlns:xlink="http://www.w3.org/1999/xlink" width="700" height="300" style="" viewBox="0 0 700 300"><rect x="0" y="0" width="700" height="300" style="fill: rgb(255, 255, 255); fill-opacity: 1;"/><defs id="defs-210d83"><g class="clips"><clipPath id="clip210d83xyplot" class="plotclip"><rect width="455.9" height="227"/></clipPath><clipPath id="clip210d83xy2plot" class="plotclip"><rect width="455.9" height="227"/></clipPath><clipPath class="axesclip" id="clip210d83x"><rect x="70" y="0" width="455.9" height="300"/></clipPath><clipPath class="axesclip" id="clip210d83y"><rect x="0" y="20" width="700" height="227"/></clipPath><clipPath class="axesclip" id="clip210d83xy"><rect x="70" y="20" width="455.9" height="227"/></clipPath><clipPath class="axesclip" id="clip210d83y2"><rect x="0" y="20" width="700" height="227"/></clipPath><clipPath class="axesclip" id="clip210d83xy2"><rect x="70" y="20" width="455.9" height="227"/></clipPath></g><g class="gradients"/><g class="patterns"/></defs><g class="bglayer"><rect class="bg" x="70" y="20" width="455.9" height="227" style="fill: rgb(229, 236, 246); fill-opacity: 1; stroke-width: 0;"/></g><g class="layer-below"><g class="imagelayer"/><g class="shapelayer"/></g><g class="cartesianlayer"><g class="subplot xy"><g class="layer-subplot"><g class="shapelayer"/><g class="imagelayer"/></g><g class="gridlayer"><g class="x"><path class="xgrid crisp" transform="translate(145.74,0)" d="M0,20v227" style="stroke: rgb(255, 255, 255); stroke-opacity: 1; stroke-width: 1px;"/><path class="xgrid crisp" transform="translate(221.49,0)" d="M0,20v227" style="stroke: rgb(255, 255, 255); stroke-opacity: 1; stroke-width: 1px;"/><path class="xgrid crisp" transform="translate(297.23,0)" d="M0,20v227" style="stroke: rgb(255, 255, 255); stroke-opacity: 1; stroke-width: 1px;"/><path class="xgrid crisp" transform="translate(372.97,0)" d="M0,20v227" style="stroke: rgb(255, 255, 255); stroke-opacity: 1; stroke-width: 1px;"/><path class="xgrid crisp" transform="translate(448.72,0)" d="M0,20v227" style="stroke: rgb(255, 255, 255); stroke-opacity: 1; stroke-width: 1px;"/><path class="xgrid crisp" transform="translate(524.46,0)" d="M0,20v227" style="stroke: rgb(255, 255, 255); stroke-opacity: 1; stroke-width: 1px;"/></g><g class="y"><path class="ygrid crisp" transform="translate(0,230.48)" d="M70,0h455.9" style="stroke: rgb(255, 255, 255); stroke-opacity: 1; stroke-width: 1px;"/><path class="ygrid crisp" transform="translate(0,133.34)" d="M70,0h455.9" style="stroke: rgb(255, 255, 255); stroke-opacity: 1; stroke-width: 1px;"/><path class="ygrid crisp" transform="translate(0,84.78)" d="M70,0h455.9" style="stroke: rgb(255, 255, 255); stroke-opacity: 1; stroke-width: 1px;"/><path class="ygrid crisp" transform="translate(0,36.21)" d="M70,0h455.9" style="stroke: rgb(255, 255, 255); stroke-opacity: 1; stroke-width: 1px;"/></g><g class="y2"><path class="y2grid crisp" transform="translate(0,184.58)" d="M70,0h455.9" style="stroke: rgb(255, 255, 255); stroke-opacity: 1; stroke-width: 1px;"/><path class="y2grid crisp" transform="translate(0,133.5)" d="M70,0h455.9" style="stroke: rgb(255, 255, 255); stroke-opacity: 1; stroke-width: 1px;"/><path class="y2grid crisp" transform="translate(0,82.43)" d="M70,0h455.9" style="stroke: rgb(255, 255, 255); stroke-opacity: 1; stroke-width: 1px;"/><path class="y2grid crisp" transform="translate(0,31.35)" d="M70,0h455.9" style="stroke: rgb(255, 255, 255); stroke-opacity: 1; stroke-width: 1px;"/></g></g><g class="zerolinelayer"><path class="xzl zl crisp" transform="translate(70,0)" d="M0,20v227" style="stroke: rgb(255, 255, 255); stroke-opacity: 1; stroke-width: 2px;"/><path class="yzl zl crisp" transform="translate(0,181.91)" d="M70,0h455.9" style="stroke: rgb(255, 255, 255); stroke-opacity: 1; stroke-width: 2px;"/><path class="y2zl zl crisp" transform="translate(0,235.65)" d="M70,0h455.9" style="stroke: rgb(255, 255, 255); stroke-opacity: 1; stroke-width: 2px;"/></g><path class="xlines-below"/><path class="ylines-below"/><g class="overlines-below"><path class="xy2-x"/><path class="xy2-y"/></g><g class="xaxislayer-below"/><g class="yaxislayer-below"/><g class="overaxes-below"><g class="xy2-x"/><g class="xy2-y"/></g><g class="plot" transform="translate(70,20)" clip-path="url(#clip210d83xyplot)"><g class="scatterlayer mlayer"><g class="trace scatter trace32f2ee" style="stroke-miterlimit: 2; opacity: 1;"><g class="fills"/><g class="errorbars"/><g class="lines"><path class="js-line" d="M0,19.17L0.53,13.18L0.91,14.42L0.98,16.03L1.29,11.35L1.59,17.8L1.67,18.83L1.89,19.39L2.42,16.8L2.5,17.24L2.58,18.24L2.8,15.67L3.26,19.64L3.33,16.95L3.56,18.02L3.71,15.44L3.86,17.89L3.94,18.64L4.17,20.28L4.32,15.97L4.39,14.57L4.92,22.35L5.23,18.98L5.3,20.05L5.98,25.44L6.14,22.04L6.21,19.87L6.36,20.86L6.44,18.8L6.82,15.73L7.04,19.12L7.12,20.9L7.27,20.12L7.5,22.04L7.57,23.62L7.65,21.56L8.03,24.73L8.33,23.34L8.41,21.4L9.01,19.14L9.16,20.63L9.24,22.7L9.47,25.28L10.07,24.68L10.15,24.88L10.76,31.36L11.21,29.98L11.29,28.76L12.04,32.25L12.12,30.01L12.35,31.27L12.5,28.12L12.88,29.24L12.95,29.78L13.03,29.54L13.18,30.79L13.26,32.26L14.32,37.55L14.39,37.66L15.3,40.98L15.38,40.37L15.45,39.18L15.98,42.13L16.06,40.97L16.13,41.87L17.19,46.7L17.27,46.69L17.35,45.93L17.57,45.26L18.56,48.13L18.63,47.74L18.71,46.39L19.01,45.73L19.92,48.25L20,47.42L21.81,55.66L21.89,54.52L22.19,54.3L22.65,55.27L22.72,54.57L23.1,55.44L23.18,54.97L23.25,55.68L26.81,64.4L26.89,64.43L27.04,64.22L29.92,72.06L29.99,72.07L31.28,73.7L31.36,74.25L32.19,75.11L32.27,75.24L34.24,79.96L34.39,79.64L34.46,79.7L40.98,91.7L41.05,91.85L42.64,94.33L42.72,94.75L48.25,103.65L48.32,103.67L49.54,105.36L49.61,105.58L50.45,106.71L50.52,106.9L53.25,111.25L53.32,111.35L55.29,113.89L55.37,114.21L58.17,118.08L58.25,118.2L59.84,120.48L59.91,120.64L62.64,124.53L62.72,124.71L66.05,129.21L66.12,129.25L67.49,130.66L67.56,130.76L71.43,133.51L71.5,133.63L72.56,134.69L72.64,135.12L75.29,137.75L75.36,137.76L80.06,142.14L80.14,142.2L82.94,145.37L83.01,145.39L84.23,146.3L84.3,146.34L87.48,149.41L87.56,149.42L90.44,151.74L90.51,151.86L95.29,155.92L95.36,155.92L103.62,160.49L103.69,160.65L105.28,161.4L105.36,161.42L107.18,162.27L107.25,162.37L108.92,163.38L108.99,163.63L115.43,166.95L115.51,166.95L117.33,167.67L117.4,167.67L118.46,168.41L118.54,168.43L122.02,169.67L122.1,169.67L123.99,170.41L124.07,170.43L127.25,171.7L127.32,171.72L128.39,172.12L128.46,172.12L129.67,173.07L129.75,173.07L131.64,173.77L131.72,173.83L132.7,174.5L132.78,174.5L134.14,175.25L134.22,175.27L136.34,175.99L136.41,176.06L137.4,176.64L137.47,176.68L150.5,181.11L150.58,181.13L153,181.99L153.08,182.02L155.05,182.71L155.12,182.79L157.55,183.5L157.62,183.56L161.49,184.31L161.56,184.34L169.97,185.81L170.04,185.81L171.71,186.53L171.79,186.58L177.09,187.31L177.16,187.39L180.5,188.13L180.57,188.15L183.22,188.41L183.3,188.41L184.21,188.76L184.28,188.76L192.31,190.64L192.39,190.64L198.52,191.91L198.6,191.91L200.72,192.46L200.8,192.46L205.19,193.18L205.26,193.22L210.04,193.86L210.11,194.01L249.27,199.66L249.35,199.88L290.32,203.28L290.4,203.43L297.22,204.17L297.29,204.19L301.91,204.66L301.99,204.66L303.73,204.76L303.81,204.76L310.7,205.48L310.78,205.52L319.49,206.26L319.56,206.28L321.68,206.7L321.76,206.7L332.82,207.42L332.89,207.54L338.57,208.27L338.65,208.33L349.63,209.03L349.71,209.14L351.3,209.38L351.37,209.38L366.67,210.1L366.75,210.15L379.63,210.87L379.7,210.92L386.22,211.15L386.29,211.15L397.65,211.86L397.73,211.91L407.42,212.61L407.5,212.69L426.28,213.44L426.36,213.51L436.66,214.17L436.74,214.36L450.14,215.09L450.22,215.15L455.9,215.65" style="vector-effect: non-scaling-stroke; fill: none; stroke: rgb(99, 110, 250); stroke-opacity: 1; stroke-width: 2px; opacity: 1;"/></g><g class="points"/><g class="text"/></g></g></g><g class="overplot"><g class="xy2" transform="translate(70,20)" clip-path="url(#clip210d83xy2plot)"><g class="scatterlayer mlayer"><g class="trace scatter traced2bc0b" style="stroke-miterlimit: 2; opacity: 1;"><g class="fills"/><g class="errorbars"/><g class="lines"><path class="js-line" d="M0,11.35L4.54,89.48L4.62,90.49L9.16,138.35L9.24,138.97L13.86,168.67L13.94,169.05L17.42,183.44L17.5,183.7L20.83,193.21L20.91,193.39L24.39,200.27L24.47,200.39L28.93,206.15L29.01,206.23L33.78,209.97L33.86,210.01L39.54,212.56L39.61,212.59L47.72,214.35L47.79,214.36L61.73,215.36L61.81,215.36L84,215.62L84.08,215.62L455.9,215.65" style="vector-effect: non-scaling-stroke; fill: none; stroke: rgb(239, 85, 59); stroke-opacity: 1; stroke-width: 2px; opacity: 1;"/></g><g class="points"/><g class="text"/></g></g></g></g><path class="xlines-above crisp" d="M0,0" style="fill: none;"/><path class="ylines-above crisp" d="M0,0" style="fill: none;"/><g class="overlines-above"><path class="xy2-x crisp" d="M0,0" style="fill: none;"/><path class="xy2-y crisp" d="M0,0" style="fill: none;"/></g><g class="xaxislayer-above"><g class="xtick"><text text-anchor="middle" x="0" y="260" transform="translate(70,0)" style="font-family: 'Open Sans', verdana, arial, sans-serif; font-size: 12px; fill: rgb(42, 63, 95); fill-opacity: 1; white-space: pre; opacity: 1;">0</text></g><g class="xtick"><text text-anchor="middle" x="0" y="260" style="font-family: 'Open Sans', verdana, arial, sans-serif; font-size: 12px; fill: rgb(42, 63, 95); fill-opacity: 1; white-space: pre; opacity: 1;" transform="translate(145.74,0)">1000</text></g><g class="xtick"><text text-anchor="middle" x="0" y="260" style="font-family: 'Open Sans', verdana, arial, sans-serif; font-size: 12px; fill: rgb(42, 63, 95); fill-opacity: 1; white-space: pre; opacity: 1;" transform="translate(221.49,0)">2000</text></g><g class="xtick"><text text-anchor="middle" x="0" y="260" style="font-family: 'Open Sans', verdana, arial, sans-serif; font-size: 12px; fill: rgb(42, 63, 95); fill-opacity: 1; white-space: pre; opacity: 1;" transform="translate(297.23,0)">3000</text></g><g class="xtick"><text text-anchor="middle" x="0" y="260" style="font-family: 'Open Sans', verdana, arial, sans-serif; font-size: 12px; fill: rgb(42, 63, 95); fill-opacity: 1; white-space: pre; opacity: 1;" transform="translate(372.97,0)">4000</text></g><g class="xtick"><text text-anchor="middle" x="0" y="260" style="font-family: 'Open Sans', verdana, arial, sans-serif; font-size: 12px; fill: rgb(42, 63, 95); fill-opacity: 1; white-space: pre; opacity: 1;" transform="translate(448.72,0)">5000</text></g><g class="xtick"><text text-anchor="middle" x="0" y="260" style="font-family: 'Open Sans', verdana, arial, sans-serif; font-size: 12px; fill: rgb(42, 63, 95); fill-opacity: 1; white-space: pre; opacity: 1;" transform="translate(524.46,0)">6000</text></g></g><g class="yaxislayer-above"><g class="ytick"><text text-anchor="end" x="69" y="4.199999999999999" transform="translate(0,230.48)" style="font-family: 'Open Sans', verdana, arial, sans-serif; font-size: 12px; fill: rgb(42, 63, 95); fill-opacity: 1; white-space: pre; opacity: 1;">−10k</text></g><g class="ytick"><text text-anchor="end" x="69" y="4.199999999999999" style="font-family: 'Open Sans', verdana, arial, sans-serif; font-size: 12px; fill: rgb(42, 63, 95); fill-opacity: 1; white-space: pre; opacity: 1;" transform="translate(0,181.91)">0</text></g><g class="ytick"><text text-anchor="end" x="69" y="4.199999999999999" style="font-family: 'Open Sans', verdana, arial, sans-serif; font-size: 12px; fill: rgb(42, 63, 95); fill-opacity: 1; white-space: pre; opacity: 1;" transform="translate(0,133.34)">10k</text></g><g class="ytick"><text text-anchor="end" x="69" y="4.199999999999999" style="font-family: 'Open Sans', verdana, arial, sans-serif; font-size: 12px; fill: rgb(42, 63, 95); fill-opacity: 1; white-space: pre; opacity: 1;" transform="translate(0,84.78)">20k</text></g><g class="ytick"><text text-anchor="end" x="69" y="4.199999999999999" style="font-family: 'Open Sans', verdana, arial, sans-serif; font-size: 12px; fill: rgb(42, 63, 95); fill-opacity: 1; white-space: pre; opacity: 1;" transform="translate(0,36.21)">30k</text></g></g><g class="overaxes-above"><g class="xy2-x"/><g class="xy2-y"><g class="y2tick"><text text-anchor="start" x="526.9" y="4.199999999999999" transform="translate(0,235.65)" style="font-family: 'Open Sans', verdana, arial, sans-serif; font-size: 12px; fill: rgb(42, 63, 95); fill-opacity: 1; white-space: pre; opacity: 1;">0</text></g><g class="y2tick"><text text-anchor="start" x="526.9" y="4.199999999999999" style="font-family: 'Open Sans', verdana, arial, sans-serif; font-size: 12px; fill: rgb(42, 63, 95); fill-opacity: 1; white-space: pre; opacity: 1;" transform="translate(0,184.58)">500</text></g><g class="y2tick"><text text-anchor="start" x="526.9" y="4.199999999999999" style="font-family: 'Open Sans', verdana, arial, sans-serif; font-size: 12px; fill: rgb(42, 63, 95); fill-opacity: 1; white-space: pre; opacity: 1;" transform="translate(0,133.5)">1000</text></g><g class="y2tick"><text text-anchor="start" x="526.9" y="4.199999999999999" style="font-family: 'Open Sans', verdana, arial, sans-serif; font-size: 12px; fill: rgb(42, 63, 95); fill-opacity: 1; white-space: pre; opacity: 1;" transform="translate(0,82.43)">1500</text></g><g class="y2tick"><text text-anchor="start" x="526.9" y="4.199999999999999" style="font-family: 'Open Sans', verdana, arial, sans-serif; font-size: 12px; fill: rgb(42, 63, 95); fill-opacity: 1; white-space: pre; opacity: 1;" transform="translate(0,31.35)">2000</text></g></g></g></g><g class="subplot xy2"/></g><g class="polarlayer"/><g class="smithlayer"/><g class="ternarylayer"/><g class="geolayer"/><g class="funnelarealayer"/><g class="pielayer"/><g class="iciclelayer"/><g class="treemaplayer"/><g class="sunburstlayer"/><g class="glimages"/><defs id="topdefs-210d83"><g class="clips"/><clipPath id="legend210d83"><rect width="123" height="48" x="0" y="0"/></clipPath></defs><g class="layer-above"><g class="imagelayer"/><g class="shapelayer"/></g><g class="infolayer"><g class="legend" pointer-events="all" transform="translate(564.7,20)"><rect class="bg" shape-rendering="crispEdges" width="123" height="48" x="0" y="0" style="stroke: rgb(68, 68, 68); stroke-opacity: 1; fill: rgb(255, 255, 255); fill-opacity: 1; stroke-width: 0px;"/><g class="scrollbox" transform="" clip-path="url(#legend210d83)"><g class="groups"><g class="traces" transform="translate(0,14.5)" style="opacity: 1;"><text class="legendtext" text-anchor="start" x="40" y="4.680000000000001" style="font-family: 'Open Sans', verdana, arial, sans-serif; font-size: 12px; fill: rgb(42, 63, 95); fill-opacity: 1; white-space: pre;">Cost</text><g class="layers" style="opacity: 1;"><g class="legendfill"/><g class="legendlines"><path class="js-line" d="M5,0h30" style="fill: none; stroke: rgb(99, 110, 250); stroke-opacity: 1; stroke-width: 2px;"/></g><g class="legendsymbols"><g class="legendpoints"/></g></g><rect class="legendtoggle" x="0" y="-9.5" width="117.265625" height="19" style="fill: rgb(0, 0, 0); fill-opacity: 0;"/></g><g class="traces" transform="translate(0,33.5)" style="opacity: 1;"><text class="legendtext" text-anchor="start" x="40" y="4.680000000000001" style="font-family: 'Open Sans', verdana, arial, sans-serif; font-size: 12px; fill: rgb(42, 63, 95); fill-opacity: 1; white-space: pre;">Temperature</text><g class="layers" style="opacity: 1;"><g class="legendfill"/><g class="legendlines"><path class="js-line" d="M5,0h30" style="fill: none; stroke: rgb(239, 85, 59); stroke-opacity: 1; stroke-width: 2px;"/></g><g class="legendsymbols"><g class="legendpoints"/></g></g><rect class="legendtoggle" x="0" y="-9.5" width="117.265625" height="19" style="fill: rgb(0, 0, 0); fill-opacity: 0;"/></g></g></g><rect class="scrollbar" rx="20" ry="3" width="0" height="0" x="0" y="0" style="fill: rgb(128, 139, 164); fill-opacity: 1;"/></g><g class="g-gtitle"/><g class="g-xtitle"><text class="xtitle" x="297.95" y="287.8" text-anchor="middle" style="font-family: 'Open Sans', verdana, arial, sans-serif; font-size: 14px; fill: rgb(42, 63, 95); opacity: 1; font-weight: normal; white-space: pre;">Iterations</text></g><g class="g-ytitle" transform="translate(1.9873046875,0)"><text class="ytitle" transform="rotate(-90,12.012500000000003,133.5)" x="12.012500000000003" y="133.5" text-anchor="middle" style="font-family: 'Open Sans', verdana, arial, sans-serif; font-size: 14px; fill: rgb(42, 63, 95); opacity: 1; font-weight: normal; white-space: pre;">Cost</text></g><g class="g-y2title"><text class="y2title" transform="rotate(-90,582.596875,133.5)" x="582.596875" y="133.5" text-anchor="middle" style="font-family: 'Open Sans', verdana, arial, sans-serif; font-size: 14px; fill: rgb(42, 63, 95); opacity: 1; font-weight: normal; white-space: pre;">Temperature</text></g></g></svg>