<svg class="main-svg" xmlns="http://www.w3.org/2000/svg" xmlns:xlink="http://www.w3.org/1999/xlink" width="700" height="300" style="" viewBox="0 0 700 300"><rect x="0" y="0" width="700" height="300" style="fill: rgb(255, 255, 255); fill-opacity: 1;"/><defs id="defs-9335b1"><g class="clips"><clipPath id="clip9335b1xyplot" class="plotclip"><rect width="465.29999999999995" height="227"/></clipPath><clipPath id="clip9335b1xy2plot" class="plotclip"><rect width="465.29999999999995" height="227"/></clipPath><clipPath class="axesclip" id="clip9335b1x"><rect x="60" y="0" width="465.29999999999995" height="300"/></clipPath><clipPath class="axesclip" id="clip9335b1y"><rect x="0" y="20" width="700" height="227"/></clipPath><clipPath class="axesclip" id="clip9335b1xy"><rect x="60" y="20" width="465.29999999999995" height="227"/></clipPath><clipPath class="axesclip" id="clip9335b1y2"><rect x="0" y="20" width="700" height="227"/></clipPath><clipPath class="axesclip" id="clip9335b1xy2"><rect x="60" y="20" width="465.29999999999995" height="227"/></clipPath></g><g class="gradients"/><g class="patterns"/></defs><g class="bglayer"><rect class="bg" x="60" y="20" width="465.29999999999995" height="227" style="fill: rgb(229, 236, 246); fill-opacity: 1; stroke-width: 0;"/></g><g class="layer-below"><g class="imagelayer"/><g class="shapelayer"/></g><g class="cartesianlayer"><g class="subplot xy"><g class="layer-subplot"><g class="shapelayer"/><g class="imagelayer"/></g><g class="gridlayer"><g class="x"><path class="xgrid crisp" transform="translate(144.45999999999998,0)" d="M0,20v227" style="stroke: rgb(255, 255, 255); stroke-opacity: 1; stroke-width: 1px;"/><path class="xgrid crisp" transform="translate(228.92,0)" d="M0,20v227" style="stroke: rgb(255, 255, 255); stroke-opacity: 1; stroke-width: 1px;"/><path class="xgrid crisp" transform="translate(313.39,0)" d="M0,20v227" style="stroke: rgb(255, 255, 255); stroke-opacity: 1; stroke-width: 1px;"/><path class="xgrid crisp" transform="translate(397.85,0)" d="M0,20v227" style="stroke: rgb(255, 255, 255); stroke-opacity: 1; stroke-width: 1px;"/><path class="xgrid crisp" transform="translate(482.31,0)" d="M0,20v227" style="stroke: rgb(255, 255, 255); stroke-opacity: 1; stroke-width: 1px;"/></g><g class="y"><path class="ygrid crisp" transform="translate(0,190.18)" d="M60,0h465.29999999999995" style="stroke: rgb(255, 255, 255); stroke-opacity: 1; stroke-width: 1px;"/><path class="ygrid crisp" transform="translate(0,122.42)" d="M60,0h465.29999999999995" style="stroke: rgb(255, 255, 255); stroke-opacity: 1; stroke-width: 1px;"/><path class="ygrid crisp" transform="translate(0,54.66)" d="M60,0h465.29999999999995" style="stroke: rgb(255, 255, 255); stroke-opacity: 1; stroke-width: 1px;"/></g><g class="y2"><path class="y2grid crisp" transform="translate(0,184.58)" d="M60,0h465.29999999999995" style="stroke: rgb(255, 255, 255); stroke-opacity: 1; stroke-width: 1px;"/><path class="y2grid crisp" transform="translate(0,133.5)" d="M60,0h465.29999999999995" style="stroke: rgb(255, 255, 255); stroke-opacity: 1; stroke-width: 1px;"/><path class="y2grid crisp" transform="translate(0,82.43)" d="M60,0h465.29999999999995" style="stroke: rgb(255, 255, 255); stroke-opacity: 1; stroke-width: 1px;"/><path class="y2grid crisp" transform="translate(0,31.35)" d="M60,0h465.29999999999995" style="stroke: rgb(255, 255, 255); stroke-opacity: 1; stroke-width: 1px;"/></g></g><g class="zerolinelayer"><path class="xzl zl crisp" transform="translate(60,0)" d="M0,20v227" style="stroke: rgb(255, 255, 255); stroke-opacity: 1; stroke-width: 2px;"/><path class="y2zl zl crisp" transform="translate(0,235.65)" d="M60,0h465.29999999999995" style="stroke: rgb(255, 255, 255); stroke-opacity: 1; stroke-width: 2px;"/></g><path class="xlines-below"/><path class="ylines-below"/><g class="overlines-below"><path class="xy2-x"/><path class="xy2-y"/></g><g class="xaxislayer-below"/><g class="yaxislayer-below"/><g class="overaxes-below"><g class="xy2-x"/><g class="xy2-y"/></g><g class="plot" transform="translate(60,20)" clip-path="url(#clip9335b1xyplot)"><g class="scatterlayer mlayer"><g class="trace scatter trace1da0a3" style="stroke-miterlimit: 2; opacity: 1;"><g class="fills"/><g class="errorbars"/><g class="lines"><path class="js-line" d="M0,14.53L0.08,14.4L0.17,11.62L1.1,20.63L1.18,19.68L1.35,20.23L1.44,15.35L1.52,14.4L1.69,18.74L1.94,15.21L2.03,18.19L2.2,15.35L2.7,16.64L2.79,18.6L2.96,13.52L3.29,19.35L3.38,23.34L4.31,14.33L4.39,16.7L4.65,15.55L4.81,16.91L4.9,16.64L4.98,13.32L5.91,21.51L6,19.21L6.08,16.64L6.33,21.31L6.67,19.41L6.76,20.9L7.01,11.35L7.26,11.49L7.35,17.92L8.02,24.9L8.19,24.09L8.28,21.85L8.45,22.06L8.62,18.87L8.87,20.29L8.95,20.77L9.21,22.53L9.54,16.09L9.71,18.94L9.8,18.87L10.05,20.16L10.73,13.04L10.81,15.75L11.49,26.33L11.74,23.89L11.82,23.28L11.91,23.89L11.99,20.97L12.08,18.53L12.5,18.06L13.34,24.36L13.43,22.46L13.51,22.67L13.6,23.28L13.68,20.43L13.94,22.4L14.02,20.77L14.11,20.9L14.19,23.07L14.36,22.06L14.44,24.22L14.53,20.77L14.95,25.04L15.03,26.33L15.46,27.48L15.88,23.07L15.96,23.82L16.05,25.85L16.22,27.75L16.3,29.65L16.89,33.17L17.31,32.36L17.4,28.97L17.65,29.65L17.74,26.46L18.07,28.29L18.16,29.65L19.09,34.59L19.17,32.36L19.51,28.49L19.93,30.8L20.02,31.41L20.44,34.59L20.86,34.52L20.95,32.56L21.37,37.3L21.71,33.58L21.79,32.76L22.04,30.73L22.3,33.17L22.38,33.37L22.64,31.68L23.31,36.76L23.4,36.9L24.41,43.2L24.49,43.4L25.09,40.01L25.34,41.44L25.42,41.71L25.85,42.45L25.93,40.56L26.01,41.37L26.1,40.49L26.18,40.83L26.27,38.05L26.35,37.3L26.52,34.86L27.11,36.76L27.2,38.32L27.79,43.6L28.04,42.79L28.13,42.86L28.21,42.18L28.63,44.89L28.72,45.3L28.89,45.64L28.97,43.4L29.22,44.69L29.39,43.74L29.48,42.25L33.19,58.31L33.28,56L35.39,64.54L35.47,63.53L37.42,68.95L37.5,69.29L37.67,69.35L37.75,68.4L39.27,73.22L39.36,72.4L42.06,80.2L42.15,78.91L43.5,82.36L43.58,82.57L44.76,85.62L44.85,85.14L44.93,84.13L45.69,87.38L46.03,86.5L46.12,86.9L47.72,90.56L47.81,90.83L48.48,91.85L48.57,92.12L50,94.36L50.09,94.76L51.1,95.92L51.18,95.98L55.07,103.03L55.15,103.44L56.08,104.59L56.17,104.72L57.27,107.23L57.35,107.37L57.86,108.05L57.94,108.52L59.55,111.3L59.63,111.77L60.73,112.86L60.81,113.33L69.01,125.53L69.09,125.53L71.29,128.37L71.37,128.44L72.89,130.27L72.97,130.34L74.41,131.69L74.5,131.96L75.34,132.71L75.42,132.98L78.47,136.98L78.55,136.98L80.91,138.74L81,138.88L81.67,139.35L81.76,139.69L82.35,140.23L82.43,140.64L83.62,141.38L83.7,141.45L84.8,142.13L84.88,142.54L87.16,144.64L87.25,144.7L89.02,145.45L89.11,145.58L90.37,146.26L90.46,146.4L95.7,150.94L95.78,151.41L98.57,153.11L98.65,153.65L100.17,154.94L100.26,155.07L103.63,157.17L103.72,157.51L104.9,159L104.99,159.14L105.83,159.68L105.92,159.81L111.57,163.95L111.66,164.02L113.18,165.03L113.26,165.1L115.63,165.85L115.71,165.98L116.81,166.32L116.9,166.32L118.5,167.68L118.58,167.74L120.27,168.22L120.36,168.22L124.07,168.89L124.16,169.03L125.85,169.5L125.93,169.5L128.64,170.25L128.72,170.32L130.58,171.88L130.66,171.94L132.35,172.55L132.44,172.55L135.22,173.3L135.31,173.37L137.25,174.04L137.33,174.04L138.86,174.72L138.94,174.93L143.16,175.67L143.25,175.81L144.43,176.48L144.51,176.62L145.78,177.23L145.87,177.23L150.17,178.31L150.26,178.31L153.72,179.06L153.8,179.19L156.51,179.87L156.59,180.01L158.03,180.62L158.11,180.82L161.83,181.57L161.91,181.7L163.35,181.97L163.43,181.97L167.23,182.72L167.32,182.79L172.98,183.53L173.06,183.67L174.08,183.94L174.16,183.94L177.2,184.55L177.29,184.82L178.38,185.23L178.47,185.23L182.18,185.9L182.27,186.11L187.93,187.33L188.01,187.33L191.81,188.07L191.9,188.14L196.29,188.82L196.37,189.02L200.17,189.77L200.26,189.83L201.27,190.38L201.36,190.38L207.69,190.98L207.78,191.26L217.91,192L218,192.2L222.64,192.95L222.73,193.22L227.46,193.97L227.54,194.03L230.24,194.71L230.33,194.85L234.63,195.46L234.72,195.73L236.07,195.86L236.16,195.86L240.89,196.47L240.97,196.74L248.06,197.49L248.15,197.69L251.87,198.44L251.95,198.51L259.38,199.18L259.47,199.32L262.85,199.93L262.93,199.93L268.59,200.54L268.67,200.74L281.68,201.49L281.76,201.69L287.17,202.3L287.25,202.64L292.49,203.32L292.58,203.52L302.2,204.2L302.29,204.33L309.38,204.81L309.47,205.15L327.12,205.82L327.2,206.03L334.22,206.77L334.3,206.98L336.92,207.11L337,207.11L340.13,207.59L340.21,207.59L351.95,208.2L352.04,208.47L364.37,209.08L364.45,209.28L372.9,209.96L372.98,210.09L382.61,210.7L382.7,210.91L389.45,211.65L389.54,211.72L392.33,212.06L392.41,212.06L404.15,212.8L404.23,212.87L417.92,213.55L418,213.68L433.37,214.36L433.46,214.57L457.36,215.31L457.45,215.51L465.3,215.65" style="vector-effect: non-scaling-stroke; fill: none; stroke: rgb(99, 110, 250); stroke-opacity: 1; stroke-width: 2px; opacity: 1;"/></g><g class="points"/><g class="text"/></g></g></g><g class="overplot"><g class="xy2" transform="translate(60,20)" clip-path="url(#clip9335b1xy2plot)"><g class="scatterlayer mlayer"><g class="trace scatter trace7e929a" style="stroke-miterlimit: 2; opacity: 1;"><g class="fills"/><g class="errorbars"/><g class="lines"><path class="js-line" d="M0,11.35L3.72,72.17L3.8,73.32L8.7,126.33L8.78,127.04L13.68,160.04L13.77,160.48L17.31,176.28L17.4,176.6L21.28,188.66L21.37,188.88L25.42,197.44L25.51,197.59L29.82,203.66L29.9,203.75L34.88,208.24L34.97,208.3L40.54,211.33L40.63,211.36L47.64,213.45L47.72,213.47L60.56,215.01L60.64,215.01L82.77,215.57L82.86,215.57L465.3,215.65" style="vector-effect: non-scaling-stroke; fill: none; stroke: rgb(239, 85, 59); stroke-opacity: 1; stroke-width: 2px; opacity: 1;"/></g><g class="points"/><g class="text"/></g></g></g></g><path class="xlines-above crisp" d="M0,0" style="fill: none;"/><path class="ylines-above crisp" d="M0,0" style="fill: none;"/><g class="overlines-above"><path class="xy2-x crisp" d="M0,0" style="fill: none;"/><path class="xy2-y crisp" d="M0,0" style="fill: none;"/></g><g class="xaxislayer-above"><g class="xtick"><text text-anchor="middle" x="0" y="260" transform="translate(60,0)" style="font-family: 'Open Sans', verdana, arial, sans-serif; font-size: 12px; fill: rgb(42, 63, 95); fill-opacity: 1; white-space: pre; opacity: 1;">0</text></g><g class="xtick"><text text-anchor="middle" x="0" y="260" style="font-family: 'Open Sans', verdana, arial, sans-serif; font-size: 12px; fill: rgb(42, 63, 95); fill-opacity: 1; white-space: pre; opacity: 1;" transform="translate(144.45999999999998,0)">1000</text></g><g class="xtick"><text text-anchor="middle" x="0" y="260" style="font-family: 'Open Sans', verdana, arial, sans-serif; font-size: 12px; fill: rgb(42, 63, 95); fill-opacity: 1; white-space: pre; opacity: 1;" transform="translate(228.92,0)">2000</text></g><g class="xtick"><text text-anchor="middle" x="0" y="260" style="font-family: 'Open Sans', verdana, arial, sans-serif; font-size: 12px; fill: rgb(42, 63, 95); fill-opacity: 1; white-space: pre; opacity: 1;" transform="translate(313.39,0)">3000</text></g><g class="xtick"><text text-anchor="middle" x="0" y="260" style="font-family: 'Open Sans', verdana, arial, sans-serif; font-size: 12px; fill: rgb(42, 63, 95); fill-opacity: 1; white-space: pre; opacity: 1;" transform="translate(397.85,0)">4000</text></g><g class="xtick"><text text-anchor="middle" x="0" y="260" style="font-family: 'Open Sans', verdana, arial, sans-serif; font-size: 12px; fill: rgb(42, 63, 95); fill-opacity: 1; white-space: pre; opacity: 1;" transform="translate(482.31,0)">5000</text></g></g><g class="yaxislayer-above"><g class="ytick"><text text-anchor="end" x="59" y="4.199999999999999" transform="translate(0,190.18)" style="font-family: 'Open Sans', verdana, arial, sans-serif; font-size: 12px; fill: rgb(42, 63, 95); fill-opacity: 1; white-space: pre; opacity: 1;">12k</text></g><g class="ytick"><text text-anchor="end" x="59" y="4.199999999999999" style="font-family: 'Open Sans', verdana, arial, sans-serif; font-size: 12px; fill: rgb(42, 63, 95); fill-opacity: 1; white-space: pre; opacity: 1;" transform="translate(0,122.42)">14k</text></g><g class="ytick"><text text-anchor="end" x="59" y="4.199999999999999" style="font-family: 'Open Sans', verdana, arial, sans-serif; font-size: 12px; fill: rgb(42, 63, 95); fill-opacity: 1; white-space: pre; opacity: 1;" transform="translate(0,54.66)">16k</text></g></g><g class="overaxes-above"><g class="xy2-x"/><g class="xy2-y"><g class="y2tick"><text text-anchor="start" x="526.3" y="4.199999999999999" transform="translate(0,235.65)" style="font-family: 'Open Sans', verdana, arial, sans-serif; font-size: 12px; fill: rgb(42, 63, 95); fill-opacity: 1; white-space: pre; opacity: 1;">0</text></g><g class="y2tick"><text text-anchor="start" x="526.3" y="4.199999999999999" style="font-family: 'Open Sans', verdana, arial, sans-serif; font-size: 12px; fill: rgb(42, 63, 95); fill-opacity: 1; white-space: pre; opacity: 1;" transform="translate(0,184.58)">500</text></g><g class="y2tick"><text text-anchor="start" x="526.3" y="4.199999999999999" style="font-family: 'Open Sans', verdana, arial, sans-serif; font-size: 12px; fill: rgb(42, 63, 95); fill-opacity: 1; white-space: pre; opacity: 1;" transform="translate(0,133.5)">1000</text></g><g class="y2tick"><text text-anchor="start" x="526.3" y="4.199999999999999" style="font-family: 'Open Sans', verdana, arial, sans-serif; font-size: 12px; fill: rgb(42, 63, 95); fill-opacity: 1; white-space: pre; opacity: 1;" transform="translate(0,82.43)">1500</text></g><g class="y2tick"><text text-anchor="start" x="526.3" y="4.199999999999999" style="font-family: 'Open Sans', verdana, arial, sans-serif; font-size: 12px; fill: rgb(42, 63, 95); fill-opacity: 1; white-space: pre; opacity: 1;" transform="translate(0,31.35)">2000</text></g></g></g></g><g class="subplot xy2"/></g><g class="polarlayer"/><g class="smithlayer"/><g class="ternarylayer"/><g class="geolayer"/><g class="funnelarealayer"/><g class="pielayer"/><g class="iciclelayer"/><g class="treemaplayer"/><g class="sunburstlayer"/><g class="glimages"/><defs id="topdefs-9335b1"><g class="clips"/><clipPath id="legend9335b1"><rect width="123" height="48" x="0" y="0"/></clipPath></defs><g class="layer-above"><g class="imagelayer"/><g class="shapelayer"/></g><g class="infolayer"><g class="legend" pointer-events="all" transform="translate(564.9000000000001,20)"><rect class="bg" shape-rendering="crispEdges" width="123" height="48" x="0" y="0" style="stroke: rgb(68, 68, 68); stroke-opacity: 1; fill: rgb(255, 255, 255); fill-opacity: 1; stroke-width: 0px;"/><g class="scrollbox" transform="" clip-path="url(#legend9335b1)"><g class="groups"><g class="traces" transform="translate(0,14.5)" style="opacity: 1;"><text class="legendtext" text-anchor="start" x="40" y="4.680000000000001" style="font-family: 'Open Sans', verdana, arial, sans-serif; font-size: 12px; fill: rgb(42, 63, 95); fill-opacity: 1; white-space: pre;">Cost</text><g class="layers" style="opacity: 1;"><g class="legendfill"/><g class="legendlines"><path class="js-line" d="M5,0h30" style="fill: none; stroke: rgb(99, 110, 250); stroke-opacity: 1; stroke-width: 2px;"/></g><g class="legendsymbols"><g class="legendpoints"/></g></g><rect class="legendtoggle" x="0" y="-9.5" width="117.265625" height="19" style="fill: rgb(0, 0, 0); fill-opacity: 0;"/></g><g class="traces" transform="translate(0,33.5)" style="opacity: 1;"><text class="legendtext" text-anchor="start" x="40" y="4.680000000000001" style="font-family: 'Open Sans', verdana, arial, sans-serif; font-size: 12px; fill: rgb(42, 63, 95); fill-opacity: 1; white-space: pre;">Temperature</text><g class="layers" style="opacity: 1;"><g class="legendfill"/><g class="legendlines"><path class="js-line" d="M5,0h30" style="fill: none; stroke: rgb(239, 85, 59); stroke-opacity: 1; stroke-width: 2px;"/></g><g class="legendsymbols"><g class="legendpoints"/></g></g><rect class="legendtoggle" x="0" y="-9.5" width="117.265625" height="19" style="fill: rgb(0, 0, 0); fill-opacity: 0;"/></g></g></g><rect class="scrollbar" rx="20" ry="3" width="0" height="0" x="0" y="0" style="fill: rgb(128, 139, 164); fill-opacity: 1;"/></g><g class="g-gtitle"/><g class="g-xtitle"><text class="xtitle" x="292.65" y="287.8" text-anchor="middle" style="font-family: 'Open Sans', verdana, arial, sans-serif; font-size: 14px; fill: rgb(42, 63, 95); opacity: 1; font-weight: normal; white-space: pre;">Iterations</text></g><g class="g-ytitle" transform="translate(2.1591796875,0)"><text class="ytitle" transform="rotate(-90,11.840625000000003,133.5)" x="11.840625000000003" y="133.5" text-anchor="middle" style="font-family: 'Open Sans', verdana, arial, sans-serif; font-size: 14px; fill: rgb(42, 63, 95); opacity: 1; font-weight: normal; white-space: pre;">Cost</text></g><g class="g-y2title"><text class="y2title" transform="rotate(-90,581.9875,133.5)" x="581.9875" y="133.5" text-anchor="middle" style="font-family: 'Open Sans', verdana, arial, sans-serif; font-size: 14px; fill: rgb(42, 63, 95); opacity: 1; font-weight: normal; white-space: pre;">Temperature</text></g></g></svg>