<svg class="main-svg" xmlns="http://www.w3.org/2000/svg" xmlns:xlink="http://www.w3.org/1999/xlink" width="700" height="300" style="" viewBox="0 0 700 300"><rect x="0" y="0" width="700" height="300" style="fill: rgb(255, 255, 255); fill-opacity: 1;"/><defs id="defs-a71214"><g class="clips"><clipPath id="clipa71214xyplot" class="plotclip"><rect width="457.78" height="227"/></clipPath><clipPath id="clipa71214xy2plot" class="plotclip"><rect width="457.78" height="227"/></clipPath><clipPath class="axesclip" id="clipa71214x"><rect x="68" y="0" width="457.78" height="300"/></clipPath><clipPath class="axesclip" id="clipa71214y"><rect x="0" y="20" width="700" height="227"/></clipPath><clipPath class="axesclip" id="clipa71214xy"><rect x="68" y="20" width="457.78" height="227"/></clipPath><clipPath class="axesclip" id="clipa71214y2"><rect x="0" y="20" width="700" height="227"/></clipPath><clipPath class="axesclip" id="clipa71214xy2"><rect x="68" y="20" width="457.78" height="227"/></clipPath></g><g class="gradients"/><g class="patterns"/></defs><g class="bglayer"><rect class="bg" x="68" y="20" width="457.78" height="227" style="fill: rgb(229, 236, 246); fill-opacity: 1; stroke-width: 0;"/></g><g class="layer-below"><g class="imagelayer"/><g class="shapelayer"/></g><g class="cartesianlayer"><g class="subplot xy"><g class="layer-subplot"><g class="shapelayer"/><g class="imagelayer"/></g><g class="gridlayer"><g class="x"><path class="xgrid crisp" transform="translate(151.1,0)" d="M0,20v227" style="stroke: rgb(255, 255, 255); stroke-opacity: 1; stroke-width: 1px;"/><path class="xgrid crisp" transform="translate(234.19,0)" d="M0,20v227" style="stroke: rgb(255, 255, 255); stroke-opacity: 1; stroke-width: 1px;"/><path class="xgrid crisp" transform="translate(317.28999999999996,0)" d="M0,20v227" style="stroke: rgb(255, 255, 255); stroke-opacity: 1; stroke-width: 1px;"/><path class="xgrid crisp" transform="translate(400.39,0)" d="M0,20v227" style="stroke: rgb(255, 255, 255); stroke-opacity: 1; stroke-width: 1px;"/><path class="xgrid crisp" transform="translate(483.48,0)" d="M0,20v227" style="stroke: rgb(255, 255, 255); stroke-opacity: 1; stroke-width: 1px;"/></g><g class="y"><path class="ygrid crisp" transform="translate(0,220.13)" d="M68,0h457.78" style="stroke: rgb(255, 255, 255); stroke-opacity: 1; stroke-width: 1px;"/><path class="ygrid crisp" transform="translate(0,185.88)" d="M68,0h457.78" style="stroke: rgb(255, 255, 255); stroke-opacity: 1; stroke-width: 1px;"/><path class="ygrid crisp" transform="translate(0,151.64)" d="M68,0h457.78" style="stroke: rgb(255, 255, 255); stroke-opacity: 1; stroke-width: 1px;"/><path class="ygrid crisp" transform="translate(0,117.39)" d="M68,0h457.78" style="stroke: rgb(255, 255, 255); stroke-opacity: 1; stroke-width: 1px;"/><path class="ygrid crisp" transform="translate(0,83.14)" d="M68,0h457.78" style="stroke: rgb(255, 255, 255); stroke-opacity: 1; stroke-width: 1px;"/><path class="ygrid crisp" transform="translate(0,48.9)" d="M68,0h457.78" style="stroke: rgb(255, 255, 255); stroke-opacity: 1; stroke-width: 1px;"/></g><g class="y2"><path class="y2grid crisp" transform="translate(0,184.58)" d="M68,0h457.78" style="stroke: rgb(255, 255, 255); stroke-opacity: 1; stroke-width: 1px;"/><path class="y2grid crisp" transform="translate(0,133.5)" d="M68,0h457.78" style="stroke: rgb(255, 255, 255); stroke-opacity: 1; stroke-width: 1px;"/><path class="y2grid crisp" transform="translate(0,82.43)" d="M68,0h457.78" style="stroke: rgb(255, 255, 255); stroke-opacity: 1; stroke-width: 1px;"/><path class="y2grid crisp" transform="translate(0,31.35)" d="M68,0h457.78" style="stroke: rgb(255, 255, 255); stroke-opacity: 1; stroke-width: 1px;"/></g></g><g class="zerolinelayer"><path class="xzl zl crisp" transform="translate(68,0)" d="M0,20v227" style="stroke: rgb(255, 255, 255); stroke-opacity: 1; stroke-width: 2px;"/><path class="y2zl zl crisp" transform="translate(0,235.65)" d="M68,0h457.78" style="stroke: rgb(255, 255, 255); stroke-opacity: 1; stroke-width: 2px;"/></g><path class="xlines-below"/><path class="ylines-below"/><g class="overlines-below"><path class="xy2-x"/><path class="xy2-y"/></g><g class="xaxislayer-below"/><g class="yaxislayer-below"/><g class="overaxes-below"><g class="xy2-x"/><g class="xy2-y"/></g><g class="plot" transform="translate(68,20)" clip-path="url(#clipa71214xyplot)"><g class="scatterlayer mlayer"><g class="trace scatter trace2d5fa6" style="stroke-miterlimit: 2; opacity: 1;"><g class="fills"/><g class="errorbars"/><g class="lines"><path class="js-line" d="M0,21.06L0.25,13.7L0.42,17.75L0.5,26.16L0.75,21.9L1.16,31.06L1.25,29.9L1.33,23.89L1.5,27.05L1.75,18.15L1.83,16.61L1.99,19.3L2.08,15.95L2.91,29.77L3.16,29.04L3.24,28.23L3.57,27.59L3.66,31.5L3.74,30.1L3.82,26.23L4.15,11.35L4.57,26.11L4.65,23.21L4.99,31.62L5.48,28.84L5.57,22.27L5.9,36.8L6.4,29.92L6.48,27.8L6.56,30.3L7.06,23.75L7.15,23.13L7.23,23.45L7.31,28.04L7.48,30.96L7.73,27.14L8.06,28.33L8.14,29.51L8.56,21.58L8.89,24.61L8.97,28.65L9.06,28.86L9.14,25.1L9.22,22.14L9.64,32.45L9.72,37.49L10.05,38.73L10.22,34.84L10.39,36.56L10.47,36.9L10.97,30.88L11.22,34.45L11.3,35.43L11.55,23.78L12.13,28.01L12.22,28.75L12.3,25.29L12.71,34.72L12.8,37.03L12.88,37.39L12.96,32.82L13.05,31.64L13.38,34.99L13.46,36.16L13.71,35.43L13.88,36.87L13.96,34.73L14.54,29.54L14.79,32.31L14.87,32.76L15.04,36.43L15.29,27.34L15.37,27.8L15.46,25.99L15.54,24.82L15.87,29.67L15.95,30.65L16.12,32.33L16.2,30.38L16.29,26.67L16.7,26.5L17.45,36.95L17.53,35.73L17.62,31.94L18.03,40.1L18.2,36.88L18.28,37.13L19.11,40.28L19.2,38.19L19.36,35.12L19.69,39.37L19.86,37.91L19.94,39.17L20.03,37.49L20.44,42.1L20.52,42.38L21.27,46.6L21.36,43.03L21.44,39.63L22.02,43.03L22.1,43.52L22.27,42.18L22.85,46.43L22.93,48.25L23.18,48.77L23.27,47.68L23.35,47.45L25.51,58.96L25.59,57.82L26.26,55.58L26.34,55.62L26.42,56.9L26.76,56.26L27.09,57.16L27.17,57.8L27.75,60L28,59.51L28.09,59.64L29.42,66.4L29.5,63.71L30.66,69.14L30.75,68.09L32.32,73.76L32.41,72.06L32.66,69.14L33.07,72.47L33.16,72.49L33.4,73.56L33.57,70.51L33.65,69.18L36.15,75.84L36.23,74.25L38.31,78.42L38.39,76.79L38.64,76.6L39.39,80.65L39.47,80.08L39.55,80.25L40.97,84.69L41.05,83.02L43.79,90.32L43.88,90.34L44.96,91.88L45.04,92.14L46.12,93.43L46.2,93.48L48.2,98.95L48.28,99.42L49.44,101.95L49.53,101.97L50.61,103.98L50.69,104.01L51.35,105.12L51.44,105.34L55.09,113.45L55.18,113.45L55.76,114.22L55.84,114.68L58.42,118.21L58.5,118.79L59.33,120.47L59.41,120.73L64.23,128.79L64.32,128.79L64.98,129.77L65.06,129.95L67.89,134.14L67.97,134.28L68.97,134.99L69.05,135.19L72.21,139.64L72.29,139.73L73.46,140.65L73.54,141.08L76.03,144.61L76.12,144.81L79.19,148.37L79.27,148.37L81.68,151.44L81.77,151.45L84.43,155.37L84.51,155.49L89.41,159.09L89.5,159.62L90.74,160.67L90.82,160.68L92.82,162.41L92.9,162.41L94.48,164.38L94.56,164.86L95.98,165.54L96.06,165.63L98.39,166.49L98.47,166.75L100.21,167.38L100.3,167.54L102.54,168.36L102.62,168.5L103.87,169.17L103.95,169.27L104.87,170.02L104.95,170.12L107.44,171.4L107.53,171.4L111.77,173.04L111.85,173.64L113.09,174.35L113.18,174.42L114.76,175.13L114.84,175.29L117.83,176.02L117.91,176.05L118.99,176.76L119.08,176.76L120.91,177.48L120.99,177.58L124.48,178.43L124.56,178.43L126.47,179.16L126.56,179.43L134.62,181.92L134.7,182.16L137.03,182.71L137.11,183.01L139.02,184.37L139.1,184.58L141.26,185.65L141.35,185.65L144.26,186.38L144.34,186.47L147,187.18L147.08,187.26L150.74,188L150.82,188.16L153.81,188.79L153.9,188.98L156.64,189.66L156.72,189.77L160.04,190.37L160.13,190.54L162.2,190.74L162.29,190.74L165.86,191.09L165.94,191.09L171.51,191.7L171.59,191.89L174.75,192.64L174.84,192.68L180.65,193.4L180.74,193.81L186.72,194.5L186.8,194.6L194.03,195.24L194.11,195.4L199.85,196.05L199.93,196.25L233,202.05L233.09,202.05L241.56,202.77L241.65,202.85L254.53,203.56L254.61,203.62L272.22,205.18L272.31,205.18L274.47,205.31L274.55,205.31L295.66,206.04L295.74,206.12L296.57,206.85L296.66,206.85L298.9,206.91L298.98,206.91L300.15,207.6L300.23,207.79L308.62,208.41L308.7,208.57L317.35,209.27L317.43,209.36L332.3,210.08L332.39,210.29L338.37,211L338.45,211.13L357.15,211.75L357.23,212.01L368.2,212.73L368.28,213.01L385.24,213.68L385.32,213.96L420.8,214.67L420.89,214.72L446.73,215.44L446.81,215.58L457.78,215.65" style="vector-effect: non-scaling-stroke; fill: none; stroke: rgb(99, 110, 250); stroke-opacity: 1; stroke-width: 2px; opacity: 1;"/></g><g class="points"/><g class="text"/></g></g></g><g class="overplot"><g class="xy2" transform="translate(68,20)" clip-path="url(#clipa71214xy2plot)"><g class="scatterlayer mlayer"><g class="trace scatter traceca8a3d" style="stroke-miterlimit: 2; opacity: 1;"><g class="fills"/><g class="errorbars"/><g class="lines"><path class="js-line" d="M0,11.35L3.82,74.46L3.91,75.59L7.73,118.85L7.81,119.63L11.63,149.29L11.72,149.82L15.54,170.16L15.62,170.52L20.77,188.22L20.86,188.44L24.76,197L24.85,197.15L29.58,203.94L29.67,204.04L34.49,208.36L34.57,208.42L39.39,211.11L39.47,211.15L47.03,213.48L47.12,213.5L58.83,214.96L58.92,214.96L80.35,215.56L80.44,215.56L93.57,215.63L93.65,215.63L457.78,215.65" style="vector-effect: non-scaling-stroke; fill: none; stroke: rgb(239, 85, 59); stroke-opacity: 1; stroke-width: 2px; opacity: 1;"/></g><g class="points"/><g class="text"/></g></g></g></g><path class="xlines-above crisp" d="M0,0" style="fill: none;"/><path class="ylines-above crisp" d="M0,0" style="fill: none;"/><g class="overlines-above"><path class="xy2-x crisp" d="M0,0" style="fill: none;"/><path class="xy2-y crisp" d="M0,0" style="fill: none;"/></g><g class="xaxislayer-above"><g class="xtick"><text text-anchor="middle" x="0" y="260" transform="translate(68,0)" style="font-family: 'Open Sans', verdana, arial, sans-serif; font-size: 12px; fill: rgb(42, 63, 95); fill-opacity: 1; white-space: pre; opacity: 1;">0</text></g><g class="xtick"><text text-anchor="middle" x="0" y="260" style="font-family: 'Open Sans', verdana, arial, sans-serif; font-size: 12px; fill: rgb(42, 63, 95); fill-opacity: 1; white-space: pre; opacity: 1;" transform="translate(151.1,0)">1000</text></g><g class="xtick"><text text-anchor="middle" x="0" y="260" style="font-family: 'Open Sans', verdana, arial, sans-serif; font-size: 12px; fill: rgb(42, 63, 95); fill-opacity: 1; white-space: pre; opacity: 1;" transform="translate(234.19,0)">2000</text></g><g class="xtick"><text text-anchor="middle" x="0" y="260" style="font-family: 'Open Sans', verdana, arial, sans-serif; font-size: 12px; fill: rgb(42, 63, 95); fill-opacity: 1; white-space: pre; opacity: 1;" transform="translate(317.28999999999996,0)">3000</text></g><g class="xtick"><text text-anchor="middle" x="0" y="260" style="font-family: 'Open Sans', verdana, arial, sans-serif; font-size: 12px; fill: rgb(42, 63, 95); fill-opacity: 1; white-space: pre; opacity: 1;" transform="translate(400.39,0)">4000</text></g><g class="xtick"><text text-anchor="middle" x="0" y="260" style="font-family: 'Open Sans', verdana, arial, sans-serif; font-size: 12px; fill: rgb(42, 63, 95); fill-opacity: 1; white-space: pre; opacity: 1;" transform="translate(483.48,0)">5000</text></g></g><g class="yaxislayer-above"><g class="ytick"><text text-anchor="end" x="67" y="4.199999999999999" transform="translate(0,220.13)" style="font-family: 'Open Sans', verdana, arial, sans-serif; font-size: 12px; fill: rgb(42, 63, 95); fill-opacity: 1; white-space: pre; opacity: 1;">60k</text></g><g class="ytick"><text text-anchor="end" x="67" y="4.199999999999999" style="font-family: 'Open Sans', verdana, arial, sans-serif; font-size: 12px; fill: rgb(42, 63, 95); fill-opacity: 1; white-space: pre; opacity: 1;" transform="translate(0,185.88)">70k</text></g><g class="ytick"><text text-anchor="end" x="67" y="4.199999999999999" style="font-family: 'Open Sans', verdana, arial, sans-serif; font-size: 12px; fill: rgb(42, 63, 95); fill-opacity: 1; white-space: pre; opacity: 1;" transform="translate(0,151.64)">80k</text></g><g class="ytick"><text text-anchor="end" x="67" y="4.199999999999999" style="font-family: 'Open Sans', verdana, arial, sans-serif; font-size: 12px; fill: rgb(42, 63, 95); fill-opacity: 1; white-space: pre; opacity: 1;" transform="translate(0,117.39)">90k</text></g><g class="ytick"><text text-anchor="end" x="67" y="4.199999999999999" style="font-family: 'Open Sans', verdana, arial, sans-serif; font-size: 12px; fill: rgb(42, 63, 95); fill-opacity: 1; white-space: pre; opacity: 1;" transform="translate(0,83.14)">100k</text></g><g class="ytick"><text text-anchor="end" x="67" y="4.199999999999999" style="font-family: 'Open Sans', verdana, arial, sans-serif; font-size: 12px; fill: rgb(42, 63, 95); fill-opacity: 1; white-space: pre; opacity: 1;" transform="translate(0,48.9)">110k</text></g></g><g class="overaxes-above"><g class="xy2-x"/><g class="xy2-y"><g class="y2tick"><text text-anchor="start" x="526.78" y="4.199999999999999" transform="translate(0,235.65)" style="font-family: 'Open Sans', verdana, arial, sans-serif; font-size: 12px; fill: rgb(42, 63, 95); fill-opacity: 1; white-space: pre; opacity: 1;">0</text></g><g class="y2tick"><text text-anchor="start" x="526.78" y="4.199999999999999" style="font-family: 'Open Sans', verdana, arial, sans-serif; font-size: 12px; fill: rgb(42, 63, 95); fill-opacity: 1; white-space: pre; opacity: 1;" transform="translate(0,184.58)">500</text></g><g class="y2tick"><text text-anchor="start" x="526.78" y="4.199999999999999" style="font-family: 'Open Sans', verdana, arial, sans-serif; font-size: 12px; fill: rgb(42, 63, 95); fill-opacity: 1; white-space: pre; opacity: 1;" transform="translate(0,133.5)">1000</text></g><g class="y2tick"><text text-anchor="start" x="526.78" y="4.199999999999999" style="font-family: 'Open Sans', verdana, arial, sans-serif; font-size: 12px; fill: rgb(42, 63, 95); fill-opacity: 1; white-space: pre; opacity: 1;" transform="translate(0,82.43)">1500</text></g><g class="y2tick"><text text-anchor="start" x="526.78" y="4.199999999999999" style="font-family: 'Open Sans', verdana, arial, sans-serif; font-size: 12px; fill: rgb(42, 63, 95); fill-opacity: 1; white-space: pre; opacity: 1;" transform="translate(0,31.35)">2000</text></g></g></g></g><g class="subplot xy2"/></g><g class="polarlayer"/><g class="smithlayer"/><g class="ternarylayer"/><g class="geolayer"/><g class="funnelarealayer"/><g class="pielayer"/><g class="iciclelayer"/><g class="treemaplayer"/><g class="sunburstlayer"/><g class="glimages"/><defs id="topdefs-a71214"><g class="clips"/><clipPath id="legenda71214"><rect width="123" height="48" x="0" y="0"/></clipPath></defs><g class="layer-above"><g class="imagelayer"/><g class="shapelayer"/></g><g class="infolayer"><g class="legend" pointer-events="all" transform="translate(564.74,20)"><rect class="bg" shape-rendering="crispEdges" width="123" height="48" x="0" y="0" style="stroke: rgb(68, 68, 68); stroke-opacity: 1; fill: rgb(255, 255, 255); fill-opacity: 1; stroke-width: 0px;"/><g class="scrollbox" transform="" clip-path="url(#legenda71214)"><g class="groups"><g class="traces" transform="translate(0,14.5)" style="opacity: 1;"><text class="legendtext" text-anchor="start" x="40" y="4.680000000000001" style="font-family: 'Open Sans', verdana, arial, sans-serif; font-size: 12px; fill: rgb(42, 63, 95); fill-opacity: 1; white-space: pre;">Cost</text><g class="layers" style="opacity: 1;"><g class="legendfill"/><g class="legendlines"><path class="js-line" d="M5,0h30" style="fill: none; stroke: rgb(99, 110, 250); stroke-opacity: 1; stroke-width: 2px;"/></g><g class="legendsymbols"><g class="legendpoints"/></g></g><rect class="legendtoggle" x="0" y="-9.5" width="117.265625" height="19" style="fill: rgb(0, 0, 0); fill-opacity: 0;"/></g><g class="traces" transform="translate(0,33.5)" style="opacity: 1;"><text class="legendtext" text-anchor="start" x="40" y="4.680000000000001" style="font-family: 'Open Sans', verdana, arial, sans-serif; font-size: 12px; fill: rgb(42, 63, 95); fill-opacity: 1; white-space: pre;">Temperature</text><g class="layers" style="opacity: 1;"><g class="legendfill"/><g class="legendlines"><path class="js-line" d="M5,0h30" style="fill: none; stroke: rgb(239, 85, 59); stroke-opacity: 1; stroke-width: 2px;"/></g><g class="legendsymbols"><g class="legendpoints"/></g></g><rect class="legendtoggle" x="0" y="-9.5" width="117.265625" height="19" style="fill: rgb(0, 0, 0); fill-opacity: 0;"/></g></g></g><rect class="scrollbar" rx="20" ry="3" width="0" height="0" x="0" y="0" style="fill: rgb(128, 139, 164); fill-opacity: 1;"/></g><g class="g-gtitle"/><g class="g-xtitle"><text class="xtitle" x="296.89" y="287.8" text-anchor="middle" style="font-family: 'Open Sans', verdana, arial, sans-serif; font-size: 14px; fill: rgb(42, 63, 95); opacity: 1; font-weight: normal; white-space: pre;">Iterations</text></g><g class="g-ytitle" transform="translate(1.7998046875,0)"><text class="ytitle" transform="rotate(-90,12.200000000000003,133.5)" x="12.200000000000003" y="133.5" text-anchor="middle" style="font-family: 'Open Sans', verdana, arial, sans-serif; font-size: 14px; fill: rgb(42, 63, 95); opacity: 1; font-weight: normal; white-space: pre;">Cost</text></g><g class="g-y2title"><text class="y2title" transform="rotate(-90,582.471875,133.5)" x="582.471875" y="133.5" text-anchor="middle" style="font-family: 'Open Sans', verdana, arial, sans-serif; font-size: 14px; fill: rgb(42, 63, 95); opacity: 1; font-weight: normal; white-space: pre;">Temperature</text></g></g></svg>