<svg class="main-svg" xmlns="http://www.w3.org/2000/svg" xmlns:xlink="http://www.w3.org/1999/xlink" width="700" height="300" style="" viewBox="0 0 700 300"><rect x="0" y="0" width="700" height="300" style="fill: rgb(255, 255, 255); fill-opacity: 1;"/><defs id="defs-9c6307"><g class="clips"><clipPath id="clip9c6307xyplot" class="plotclip"><rect width="465.29999999999995" height="227"/></clipPath><clipPath id="clip9c6307xy2plot" class="plotclip"><rect width="465.29999999999995" height="227"/></clipPath><clipPath class="axesclip" id="clip9c6307x"><rect x="60" y="0" width="465.29999999999995" height="300"/></clipPath><clipPath class="axesclip" id="clip9c6307y"><rect x="0" y="20" width="700" height="227"/></clipPath><clipPath class="axesclip" id="clip9c6307xy"><rect x="60" y="20" width="465.29999999999995" height="227"/></clipPath><clipPath class="axesclip" id="clip9c6307y2"><rect x="0" y="20" width="700" height="227"/></clipPath><clipPath class="axesclip" id="clip9c6307xy2"><rect x="60" y="20" width="465.29999999999995" height="227"/></clipPath></g><g class="gradients"/><g class="patterns"/></defs><g class="bglayer"><rect class="bg" x="60" y="20" width="465.29999999999995" height="227" style="fill: rgb(229, 236, 246); fill-opacity: 1; stroke-width: 0;"/></g><g class="layer-below"><g class="imagelayer"/><g class="shapelayer"/></g><g class="cartesianlayer"><g class="subplot xy"><g class="layer-subplot"><g class="shapelayer"/><g class="imagelayer"/></g><g class="gridlayer"><g class="x"><path class="xgrid crisp" transform="translate(137.31,0)" d="M0,20v227" style="stroke: rgb(255, 255, 255); stroke-opacity: 1; stroke-width: 1px;"/><path class="xgrid crisp" transform="translate(214.61,0)" d="M0,20v227" style="stroke: rgb(255, 255, 255); stroke-opacity: 1; stroke-width: 1px;"/><path class="xgrid crisp" transform="translate(291.91999999999996,0)" d="M0,20v227" style="stroke: rgb(255, 255, 255); stroke-opacity: 1; stroke-width: 1px;"/><path class="xgrid crisp" transform="translate(369.22,0)" d="M0,20v227" style="stroke: rgb(255, 255, 255); stroke-opacity: 1; stroke-width: 1px;"/><path class="xgrid crisp" transform="translate(446.53,0)" d="M0,20v227" style="stroke: rgb(255, 255, 255); stroke-opacity: 1; stroke-width: 1px;"/><path class="xgrid crisp" transform="translate(523.8299999999999,0)" d="M0,20v227" style="stroke: rgb(255, 255, 255); stroke-opacity: 1; stroke-width: 1px;"/></g><g class="y"><path class="ygrid crisp" transform="translate(0,225.49)" d="M60,0h465.29999999999995" style="stroke: rgb(255, 255, 255); stroke-opacity: 1; stroke-width: 1px;"/><path class="ygrid crisp" transform="translate(0,187.57)" d="M60,0h465.29999999999995" style="stroke: rgb(255, 255, 255); stroke-opacity: 1; stroke-width: 1px;"/><path class="ygrid crisp" transform="translate(0,149.65)" d="M60,0h465.29999999999995" style="stroke: rgb(255, 255, 255); stroke-opacity: 1; stroke-width: 1px;"/><path class="ygrid crisp" transform="translate(0,111.74)" d="M60,0h465.29999999999995" style="stroke: rgb(255, 255, 255); stroke-opacity: 1; stroke-width: 1px;"/><path class="ygrid crisp" transform="translate(0,73.82)" d="M60,0h465.29999999999995" style="stroke: rgb(255, 255, 255); stroke-opacity: 1; stroke-width: 1px;"/><path class="ygrid crisp" transform="translate(0,35.9)" d="M60,0h465.29999999999995" style="stroke: rgb(255, 255, 255); stroke-opacity: 1; stroke-width: 1px;"/></g><g class="y2"><path class="y2grid crisp" transform="translate(0,184.58)" d="M60,0h465.29999999999995" style="stroke: rgb(255, 255, 255); stroke-opacity: 1; stroke-width: 1px;"/><path class="y2grid crisp" transform="translate(0,133.5)" d="M60,0h465.29999999999995" style="stroke: rgb(255, 255, 255); stroke-opacity: 1; stroke-width: 1px;"/><path class="y2grid crisp" transform="translate(0,82.43)" d="M60,0h465.29999999999995" style="stroke: rgb(255, 255, 255); stroke-opacity: 1; stroke-width: 1px;"/><path class="y2grid crisp" transform="translate(0,31.35)" d="M60,0h465.29999999999995" style="stroke: rgb(255, 255, 255); stroke-opacity: 1; stroke-width: 1px;"/></g></g><g class="zerolinelayer"><path class="xzl zl crisp" transform="translate(60,0)" d="M0,20v227" style="stroke: rgb(255, 255, 255); stroke-opacity: 1; stroke-width: 2px;"/><path class="y2zl zl crisp" transform="translate(0,235.65)" d="M60,0h465.29999999999995" style="stroke: rgb(255, 255, 255); stroke-opacity: 1; stroke-width: 2px;"/></g><path class="xlines-below"/><path class="ylines-below"/><g class="overlines-below"><path class="xy2-x"/><path class="xy2-y"/></g><g class="xaxislayer-below"/><g class="yaxislayer-below"/><g class="overaxes-below"><g class="xy2-x"/><g class="xy2-y"/></g><g class="plot" transform="translate(60,20)" clip-path="url(#clip9c6307xyplot)"><g class="scatterlayer mlayer"><g class="trace scatter tracecde241" style="stroke-miterlimit: 2; opacity: 1;"><g class="fills"/><g class="errorbars"/><g class="lines"><path class="js-line" d="M0,19.73L0.54,20.98L1.08,14.5L1.16,14.57L1.24,14.99L1.62,17.49L2.01,15.56L2.09,15.37L2.32,12.11L2.78,15.07L2.86,14.8L3.01,15.63L3.09,13.59L3.17,13.21L3.32,11.35L3.87,13.85L3.94,14.65L4.25,15.29L4.72,13.59L4.79,14.27L4.87,15.22L5.8,19.54L5.95,17.04L6.03,16.62L6.18,17.23L6.42,15.98L6.57,16.39L6.65,15.18L7.03,16.54L7.5,16.17L7.58,15.18L7.81,15.56L7.89,14.84L7.96,14.54L8.27,14.91L8.43,13.25L8.74,14.31L8.81,14.61L8.97,14L9.28,15.56L9.43,14.84L9.51,15.1L10.05,15.6L10.13,14.72L10.2,15.75L10.44,14.69L10.59,17.08L10.67,18.06L10.75,18.33L10.98,16.7L11.05,16.58L11.29,15.75L11.6,16.85L11.67,17.3L11.91,17.11L13.76,24.66L13.84,24.39L15.07,27.5L15.15,27.69L15.38,26.48L15.85,27.96L15.92,27.43L16,27.58L16.08,26.55L16.62,29.17L16.7,28.15L16.78,27.39L16.93,26.55L17.39,28.26L17.47,28.45L17.63,28.11L18.4,30.76L18.48,31.52L19.4,34.21L19.71,33.53L19.79,33.23L20.18,31.71L20.64,32.13L20.72,32.24L21.03,32.02L22.5,36.11L22.57,36.72L23.89,39.26L23.96,38.65L24.66,39.79L24.89,39.3L24.97,39.26L25.67,40.7L25.74,40.77L26.9,42.44L26.98,41.76L28.53,45.02L28.6,44.53L32.16,51.62L32.24,51.73L33.4,53.17L33.47,53.29L34.79,55.18L34.86,55.26L37.18,58.9L37.26,58.75L44.76,69.59L44.84,69.63L46.92,73.12L47,73.31L48.93,76L49.01,76.04L51.41,78.5L51.49,78.69L56.59,85.74L56.66,86.2L58.29,87.83L58.37,87.91L59.76,89.54L59.83,89.61L60.76,90.83L60.84,91.01L62.69,93.29L62.77,93.52L67.87,99.24L67.95,99.51L78.31,110.88L78.39,110.92L79.78,112.97L79.86,113.12L81.63,115.21L81.71,115.55L82.79,116.5L82.87,116.69L86.04,119.57L86.12,119.76L96.32,129.69L96.4,129.69L97.87,130.68L97.95,130.79L99.49,132.08L99.57,132.12L101.89,134.92L101.97,134.92L107.45,140L107.53,140.04L109.7,141.26L109.77,141.45L110.78,142.36L110.86,142.43L112.79,143.3L112.87,143.3L118.66,147.13L118.74,147.25L120.13,148.27L120.21,148.27L121.29,148.95L121.37,149.07L122.61,150.05L122.68,150.13L130.96,154.98L131.03,154.98L132.73,155.7L132.81,155.74L136.13,157.29L136.21,157.37L137.68,158.05L137.76,158.13L138.99,158.81L139.07,158.81L140.15,159.27L140.23,159.3L142.55,160.02L142.63,160.06L144.48,160.78L144.56,160.82L147.11,162.07L147.19,162.38L150.13,163.63L150.2,163.63L152.06,164.42L152.14,164.42L160.25,167.27L160.33,167.38L162.8,168.22L162.88,168.25L165.74,169.73L165.82,169.92L167.52,170.6L167.6,170.68L172.39,172.42L172.47,172.65L174.4,173.26L174.48,173.41L175.56,173.94L175.64,173.94L178.19,174.66L178.27,174.74L179.58,175.04L179.66,175.04L204.09,182.21L204.16,182.32L207.18,183L207.26,183L211.58,183.72L211.66,183.88L213.59,184.33L213.67,184.33L216.22,185.05L216.3,185.13L218.08,185.51L218.16,185.51L221.87,186.42L221.94,186.42L225.5,187.17L225.58,187.36L227.12,187.74L227.2,187.74L233.77,188.46L233.85,188.5L239.26,189.22L239.34,189.37L244.98,190.02L245.06,190.13L246.6,190.89L246.68,190.89L249.31,191.38L249.39,191.38L255.57,192.44L255.65,192.44L256.89,192.71L256.96,192.71L259.28,193.05L259.36,193.05L264.62,193.77L264.69,193.81L268.4,194.83L268.48,194.83L273.66,195.44L273.74,195.63L278.14,196.35L278.22,196.39L282.86,197.11L282.94,197.18L284.25,197.49L284.33,197.49L286.72,197.79L286.8,197.79L288.81,198.06L288.89,198.06L295.15,198.81L295.23,198.85L299.48,199.57L299.56,199.65L304.27,200.37L304.35,200.48L312.78,201.2L312.85,201.24L317.49,201.92L317.57,202L322.29,202.72L322.36,202.76L325.61,203.44L325.69,203.52L330.48,204.27L330.56,204.31L334.89,204.88L334.96,204.88L345.4,205.6L345.48,205.64L353.9,207.23L353.98,207.23L363.88,207.95L363.95,208.1L374.16,208.82L374.23,208.86L380.19,209.58L380.26,209.62L384.98,210.04L385.06,210.04L392.01,210.76L392.09,210.87L398.74,211.59L398.82,211.71L409.56,212.35L409.64,212.5L412.81,212.58L412.89,212.58L429.04,213.3L429.12,213.34L442.26,214.02L442.34,214.1L455.25,214.85L455.33,214.89L464.6,215.61L464.68,215.65L465.3,215.65" style="vector-effect: non-scaling-stroke; fill: none; stroke: rgb(99, 110, 250); stroke-opacity: 1; stroke-width: 2px; opacity: 1;"/></g><g class="points"/><g class="text"/></g></g></g><g class="overplot"><g class="xy2" transform="translate(60,20)" clip-path="url(#clip9c6307xy2plot)"><g class="scatterlayer mlayer"><g class="trace scatter traced5169d" style="stroke-miterlimit: 2; opacity: 1;"><g class="fills"/><g class="errorbars"/><g class="lines"><path class="js-line" d="M0,11.35L4.41,86.4L4.48,87.43L8.81,133.88L8.89,134.53L13.3,164.33L13.37,164.74L17.7,183.18L17.78,183.44L22.19,195.27L22.26,195.44L26.98,203.27L27.06,203.37L31.7,208.06L31.77,208.12L37.49,211.5L37.57,211.53L43.29,213.38L43.37,213.39L50.79,214.61L50.87,214.61L61.84,215.32L61.92,215.32L78.23,215.59L78.31,215.59L465.3,215.65" style="vector-effect: non-scaling-stroke; fill: none; stroke: rgb(239, 85, 59); stroke-opacity: 1; stroke-width: 2px; opacity: 1;"/></g><g class="points"/><g class="text"/></g></g></g></g><path class="xlines-above crisp" d="M0,0" style="fill: none;"/><path class="ylines-above crisp" d="M0,0" style="fill: none;"/><g class="overlines-above"><path class="xy2-x crisp" d="M0,0" style="fill: none;"/><path class="xy2-y crisp" d="M0,0" style="fill: none;"/></g><g class="xaxislayer-above"><g class="xtick"><text text-anchor="middle" x="0" y="260" transform="translate(60,0)" style="font-family: 'Open Sans', verdana, arial, sans-serif; font-size: 12px; fill: rgb(42, 63, 95); fill-opacity: 1; white-space: pre; opacity: 1;">0</text></g><g class="xtick"><text text-anchor="middle" x="0" y="260" style="font-family: 'Open Sans', verdana, arial, sans-serif; font-size: 12px; fill: rgb(42, 63, 95); fill-opacity: 1; white-space: pre; opacity: 1;" transform="translate(137.31,0)">1000</text></g><g class="xtick"><text text-anchor="middle" x="0" y="260" style="font-family: 'Open Sans', verdana, arial, sans-serif; font-size: 12px; fill: rgb(42, 63, 95); fill-opacity: 1; white-space: pre; opacity: 1;" transform="translate(214.61,0)">2000</text></g><g class="xtick"><text text-anchor="middle" x="0" y="260" style="font-family: 'Open Sans', verdana, arial, sans-serif; font-size: 12px; fill: rgb(42, 63, 95); fill-opacity: 1; white-space: pre; opacity: 1;" transform="translate(291.91999999999996,0)">3000</text></g><g class="xtick"><text text-anchor="middle" x="0" y="260" style="font-family: 'Open Sans', verdana, arial, sans-serif; font-size: 12px; fill: rgb(42, 63, 95); fill-opacity: 1; white-space: pre; opacity: 1;" transform="translate(369.22,0)">4000</text></g><g class="xtick"><text text-anchor="middle" x="0" y="260" style="font-family: 'Open Sans', verdana, arial, sans-serif; font-size: 12px; fill: rgb(42, 63, 95); fill-opacity: 1; white-space: pre; opacity: 1;" transform="translate(446.53,0)">5000</text></g><g class="xtick"><text text-anchor="middle" x="0" y="260" style="font-family: 'Open Sans', verdana, arial, sans-serif; font-size: 12px; fill: rgb(42, 63, 95); fill-opacity: 1; white-space: pre; opacity: 1;" transform="translate(523.8299999999999,0)">6000</text></g></g><g class="yaxislayer-above"><g class="ytick"><text text-anchor="end" x="59" y="4.199999999999999" transform="translate(0,225.49)" style="font-family: 'Open Sans', verdana, arial, sans-serif; font-size: 12px; fill: rgb(42, 63, 95); fill-opacity: 1; white-space: pre; opacity: 1;">32k</text></g><g class="ytick"><text text-anchor="end" x="59" y="4.199999999999999" style="font-family: 'Open Sans', verdana, arial, sans-serif; font-size: 12px; fill: rgb(42, 63, 95); fill-opacity: 1; white-space: pre; opacity: 1;" transform="translate(0,187.57)">34k</text></g><g class="ytick"><text text-anchor="end" x="59" y="4.199999999999999" style="font-family: 'Open Sans', verdana, arial, sans-serif; font-size: 12px; fill: rgb(42, 63, 95); fill-opacity: 1; white-space: pre; opacity: 1;" transform="translate(0,149.65)">36k</text></g><g class="ytick"><text text-anchor="end" x="59" y="4.199999999999999" style="font-family: 'Open Sans', verdana, arial, sans-serif; font-size: 12px; fill: rgb(42, 63, 95); fill-opacity: 1; white-space: pre; opacity: 1;" transform="translate(0,111.74)">38k</text></g><g class="ytick"><text text-anchor="end" x="59" y="4.199999999999999" style="font-family: 'Open Sans', verdana, arial, sans-serif; font-size: 12px; fill: rgb(42, 63, 95); fill-opacity: 1; white-space: pre; opacity: 1;" transform="translate(0,73.82)">40k</text></g><g class="ytick"><text text-anchor="end" x="59" y="4.199999999999999" style="font-family: 'Open Sans', verdana, arial, sans-serif; font-size: 12px; fill: rgb(42, 63, 95); fill-opacity: 1; white-space: pre; opacity: 1;" transform="translate(0,35.9)">42k</text></g></g><g class="overaxes-above"><g class="xy2-x"/><g class="xy2-y"><g class="y2tick"><text text-anchor="start" x="526.3" y="4.199999999999999" transform="translate(0,235.65)" style="font-family: 'Open Sans', verdana, arial, sans-serif; font-size: 12px; fill: rgb(42, 63, 95); fill-opacity: 1; white-space: pre; opacity: 1;">0</text></g><g class="y2tick"><text text-anchor="start" x="526.3" y="4.199999999999999" style="font-family: 'Open Sans', verdana, arial, sans-serif; font-size: 12px; fill: rgb(42, 63, 95); fill-opacity: 1; white-space: pre; opacity: 1;" transform="translate(0,184.58)">500</text></g><g class="y2tick"><text text-anchor="start" x="526.3" y="4.199999999999999" style="font-family: 'Open Sans', verdana, arial, sans-serif; font-size: 12px; fill: rgb(42, 63, 95); fill-opacity: 1; white-space: pre; opacity: 1;" transform="translate(0,133.5)">1000</text></g><g class="y2tick"><text text-anchor="start" x="526.3" y="4.199999999999999" style="font-family: 'Open Sans', verdana, arial, sans-serif; font-size: 12px; fill: rgb(42, 63, 95); fill-opacity: 1; white-space: pre; opacity: 1;" transform="translate(0,82.43)">1500</text></g><g class="y2tick"><text text-anchor="start" x="526.3" y="4.199999999999999" style="font-family: 'Open Sans', verdana, arial, sans-serif; font-size: 12px; fill: rgb(42, 63, 95); fill-opacity: 1; white-space: pre; opacity: 1;" transform="translate(0,31.35)">2000</text></g></g></g></g><g class="subplot xy2"/></g><g class="polarlayer"/><g class="smithlayer"/><g class="ternarylayer"/><g class="geolayer"/><g class="funnelarealayer"/><g class="pielayer"/><g class="iciclelayer"/><g class="treemaplayer"/><g class="sunburstlayer"/><g class="glimages"/><defs id="topdefs-9c6307"><g class="clips"/><clipPath id="legend9c6307"><rect width="123" height="48" x="0" y="0"/></clipPath></defs><g class="layer-above"><g class="imagelayer"/><g class="shapelayer"/></g><g class="infolayer"><g class="legend" pointer-events="all" transform="translate(564.9000000000001,20)"><rect class="bg" shape-rendering="crispEdges" width="123" height="48" x="0" y="0" style="stroke: rgb(68, 68, 68); stroke-opacity: 1; fill: rgb(255, 255, 255); fill-opacity: 1; stroke-width: 0px;"/><g class="scrollbox" transform="" clip-path="url(#legend9c6307)"><g class="groups"><g class="traces" transform="translate(0,14.5)" style="opacity: 1;"><text class="legendtext" text-anchor="start" x="40" y="4.680000000000001" style="font-family: 'Open Sans', verdana, arial, sans-serif; font-size: 12px; fill: rgb(42, 63, 95); fill-opacity: 1; white-space: pre;">Cost</text><g class="layers" style="opacity: 1;"><g class="legendfill"/><g class="legendlines"><path class="js-line" d="M5,0h30" style="fill: none; stroke: rgb(99, 110, 250); stroke-opacity: 1; stroke-width: 2px;"/></g><g class="legendsymbols"><g class="legendpoints"/></g></g><rect class="legendtoggle" x="0" y="-9.5" width="117.265625" height="19" style="fill: rgb(0, 0, 0); fill-opacity: 0;"/></g><g class="traces" transform="translate(0,33.5)" style="opacity: 1;"><text class="legendtext" text-anchor="start" x="40" y="4.680000000000001" style="font-family: 'Open Sans', verdana, arial, sans-serif; font-size: 12px; fill: rgb(42, 63, 95); fill-opacity: 1; white-space: pre;">Temperature</text><g class="layers" style="opacity: 1;"><g class="legendfill"/><g class="legendlines"><path class="js-line" d="M5,0h30" style="fill: none; stroke: rgb(239, 85, 59); stroke-opacity: 1; stroke-width: 2px;"/></g><g class="legendsymbols"><g class="legendpoints"/></g></g><rect class="legendtoggle" x="0" y="-9.5" width="117.265625" height="19" style="fill: rgb(0, 0, 0); fill-opacity: 0;"/></g></g></g><rect class="scrollbar" rx="20" ry="3" width="0" height="0" x="0" y="0" style="fill: rgb(128, 139, 164); fill-opacity: 1;"/></g><g class="g-gtitle"/><g class="g-xtitle"><text class="xtitle" x="292.65" y="287.8" text-anchor="middle" style="font-family: 'Open Sans', verdana, arial, sans-serif; font-size: 14px; fill: rgb(42, 63, 95); opacity: 1; font-weight: normal; white-space: pre;">Iterations</text></g><g class="g-ytitle" transform="translate(2.1591796875,0)"><text class="ytitle" transform="rotate(-90,11.840625000000003,133.5)" x="11.840625000000003" y="133.5" text-anchor="middle" style="font-family: 'Open Sans', verdana, arial, sans-serif; font-size: 14px; fill: rgb(42, 63, 95); opacity: 1; font-weight: normal; white-space: pre;">Cost</text></g><g class="g-y2title"><text class="y2title" transform="rotate(-90,581.9875,133.5)" x="581.9875" y="133.5" text-anchor="middle" style="font-family: 'Open Sans', verdana, arial, sans-serif; font-size: 14px; fill: rgb(42, 63, 95); opacity: 1; font-weight: normal; white-space: pre;">Temperature</text></g></g></svg>