<svg class="main-svg" xmlns="http://www.w3.org/2000/svg" xmlns:xlink="http://www.w3.org/1999/xlink" width="700" height="300" style="" viewBox="0 0 700 300"><rect x="0" y="0" width="700" height="300" style="fill: rgb(255, 255, 255); fill-opacity: 1;"/><defs id="defs-869c16"><g class="clips"><clipPath id="clip869c16xyplot" class="plotclip"><rect width="457.78" height="227"/></clipPath><clipPath id="clip869c16xy2plot" class="plotclip"><rect width="457.78" height="227"/></clipPath><clipPath class="axesclip" id="clip869c16x"><rect x="68" y="0" width="457.78" height="300"/></clipPath><clipPath class="axesclip" id="clip869c16y"><rect x="0" y="20" width="700" height="227"/></clipPath><clipPath class="axesclip" id="clip869c16xy"><rect x="68" y="20" width="457.78" height="227"/></clipPath><clipPath class="axesclip" id="clip869c16y2"><rect x="0" y="20" width="700" height="227"/></clipPath><clipPath class="axesclip" id="clip869c16xy2"><rect x="68" y="20" width="457.78" height="227"/></clipPath></g><g class="gradients"/><g class="patterns"/></defs><g class="bglayer"><rect class="bg" x="68" y="20" width="457.78" height="227" style="fill: rgb(229, 236, 246); fill-opacity: 1; stroke-width: 0;"/></g><g class="layer-below"><g class="imagelayer"/><g class="shapelayer"/></g><g class="cartesianlayer"><g class="subplot xy"><g class="layer-subplot"><g class="shapelayer"/><g class="imagelayer"/></g><g class="gridlayer"><g class="x"><path class="xgrid crisp" transform="translate(169.4,0)" d="M0,20v227" style="stroke: rgb(255, 255, 255); stroke-opacity: 1; stroke-width: 1px;"/><path class="xgrid crisp" transform="translate(270.8,0)" d="M0,20v227" style="stroke: rgb(255, 255, 255); stroke-opacity: 1; stroke-width: 1px;"/><path class="xgrid crisp" transform="translate(372.21,0)" d="M0,20v227" style="stroke: rgb(255, 255, 255); stroke-opacity: 1; stroke-width: 1px;"/><path class="xgrid crisp" transform="translate(473.61,0)" d="M0,20v227" style="stroke: rgb(255, 255, 255); stroke-opacity: 1; stroke-width: 1px;"/></g><g class="y"><path class="ygrid crisp" transform="translate(0,214.2)" d="M68,0h457.78" style="stroke: rgb(255, 255, 255); stroke-opacity: 1; stroke-width: 1px;"/><path class="ygrid crisp" transform="translate(0,174.55)" d="M68,0h457.78" style="stroke: rgb(255, 255, 255); stroke-opacity: 1; stroke-width: 1px;"/><path class="ygrid crisp" transform="translate(0,134.9)" d="M68,0h457.78" style="stroke: rgb(255, 255, 255); stroke-opacity: 1; stroke-width: 1px;"/><path class="ygrid crisp" transform="translate(0,95.24)" d="M68,0h457.78" style="stroke: rgb(255, 255, 255); stroke-opacity: 1; stroke-width: 1px;"/><path class="ygrid crisp" transform="translate(0,55.59)" d="M68,0h457.78" style="stroke: rgb(255, 255, 255); stroke-opacity: 1; stroke-width: 1px;"/></g><g class="y2"><path class="y2grid crisp" transform="translate(0,184.59)" d="M68,0h457.78" style="stroke: rgb(255, 255, 255); stroke-opacity: 1; stroke-width: 1px;"/><path class="y2grid crisp" transform="translate(0,133.51)" d="M68,0h457.78" style="stroke: rgb(255, 255, 255); stroke-opacity: 1; stroke-width: 1px;"/><path class="y2grid crisp" transform="translate(0,82.43)" d="M68,0h457.78" style="stroke: rgb(255, 255, 255); stroke-opacity: 1; stroke-width: 1px;"/><path class="y2grid crisp" transform="translate(0,31.35)" d="M68,0h457.78" style="stroke: rgb(255, 255, 255); stroke-opacity: 1; stroke-width: 1px;"/></g></g><g class="zerolinelayer"><path class="xzl zl crisp" transform="translate(68,0)" d="M0,20v227" style="stroke: rgb(255, 255, 255); stroke-opacity: 1; stroke-width: 2px;"/><path class="y2zl zl crisp" transform="translate(0,235.67)" d="M68,0h457.78" style="stroke: rgb(255, 255, 255); stroke-opacity: 1; stroke-width: 2px;"/></g><path class="xlines-below"/><path class="ylines-below"/><g class="overlines-below"><path class="xy2-x"/><path class="xy2-y"/></g><g class="xaxislayer-below"/><g class="yaxislayer-below"/><g class="overaxes-below"><g class="xy2-x"/><g class="xy2-y"/></g><g class="plot" transform="translate(68,20)" clip-path="url(#clip869c16xyplot)"><g class="scatterlayer mlayer"><g class="trace scatter trace6b9c56" style="stroke-miterlimit: 2; opacity: 1;"><g class="fills"/><g class="errorbars"/><g class="lines"><path class="js-line" d="M0,20.47L0.05,21.91L0.35,14.27L0.76,21.33L0.81,20.87L0.96,28.54L1.37,17.65L1.62,24.94L1.67,24.36L1.93,30.39L2.43,13.54L2.59,17.08L2.64,19.05L2.84,15.59L3.19,20.32L3.4,18.11L3.45,18.6L3.65,25.25L4.11,22.91L4.16,18.86L4.21,18.68L4.26,22.81L4.72,27.43L4.92,19.18L4.97,23.42L5.02,20.74L5.12,17.7L5.48,28.6L5.68,22.84L5.73,19.15L5.78,16.5L6.13,25.32L6.39,22.33L6.44,22.99L6.59,24.71L6.9,19.44L7.2,23.35L7.25,22.89L7.61,15.21L7.91,23.34L8.06,20.31L8.11,23.81L8.37,18.88L8.42,17.53L8.62,16.37L9.08,23.56L9.28,21.98L9.33,22.59L9.68,19.65L9.99,24.76L10.04,23.61L10.09,23.49L10.14,19.55L10.5,26.08L10.8,22.78L10.85,24.35L10.9,24.53L10.95,24.19L11,24.19L11.05,20.59L11.1,18.92L11.51,27.88L11.61,26.37L11.66,26.71L11.81,28.47L11.91,24.32L12.12,26.13L12.17,22.52L12.22,24.31L12.68,15.23L12.73,15.12L13.28,24.17L13.54,18.28L13.59,15.42L13.74,11.35L13.94,15.87L13.99,16.73L14.15,20.54L14.6,14.47L14.7,16.51L14.75,16.63L14.96,14.93L15.46,21.11L15.62,20.33L15.67,18.64L15.82,17.5L16.63,28.31L16.68,28.45L17.04,18.62L17.44,26.57L17.49,26.99L17.75,18.67L18.3,22.59L18.35,26.47L18.66,29.19L18.81,24.36L18.86,20.38L18.91,20.57L18.96,24.98L19.17,27.06L19.62,17.02L19.82,22.02L19.87,22.25L20.23,26.07L20.58,23.59L20.64,21.66L20.84,17.16L21.14,26.66L21.35,20.67L21.4,22.87L21.65,25.74L21.75,18.93L22,24.71L22.05,25.35L22.16,26.11L22.87,17.96L23.12,21.57L23.17,21.29L23.73,25.89L23.98,22.41L24.03,21.34L24.39,28.02L24.84,26.01L24.89,24.71L24.94,23.33L25.25,27.72L25.5,26.36L25.55,27.42L25.96,19.99L26.26,27.62L26.31,27.87L26.82,20.2L27.18,23.19L27.23,23.69L27.53,26.5L27.83,20.3L27.89,19.97L28.29,21.06L28.54,15.88L28.7,17.9L28.75,20.41L28.9,20.87L29.51,14.56L29.56,17.06L29.61,19.2L30.57,25.63L30.62,24.39L30.72,25.44L30.98,23.32L31.13,24.22L31.18,22.25L31.43,24.22L31.64,21.26L31.89,22.92L31.94,21.27L32.3,23.52L32.6,19.84L32.65,21.52L32.7,22.08L32.8,21.27L33.06,25.09L33.11,25.74L33.21,27.26L33.41,23.59L33.46,25.01L33.51,23.27L34.27,15.32L34.32,16.31L34.38,16.12L35.34,26.24L35.44,25.41L35.49,25.23L35.85,29.24L36.05,25.01L36.15,25.32L36.2,22.87L36.3,21.2L36.81,24.79L36.86,23.94L36.91,25.59L38.03,36.16L38.08,34.97L39.19,25.14L39.29,25.74L39.34,25.92L39.6,21.69L40.1,24.82L40.16,24.15L41.22,33.69L41.32,30.9L41.37,28.19L41.47,28.92L41.68,24.67L41.83,26.02L41.88,24.43L42.44,27.01L42.59,23.7L42.64,23.9L42.89,21.75L43.05,25.07L43.1,24.97L43.15,27.84L43.55,30.31L43.86,27.77L43.91,25.83L44.01,24.34L44.41,29.54L44.57,26.39L44.62,25.74L44.87,22.15L44.97,23.81L45.02,26.37L45.12,25.72L45.38,29.39L45.43,30.9L45.48,31.48L45.68,27.85L45.88,28.6L45.94,27.58L46.29,27L46.49,30.74L46.7,29.06L46.75,26.77L46.95,28.11L47.2,23.69L47.25,22.35L47.3,21.26L47.66,28.79L47.76,27.1L47.81,27.23L48.22,28.78L48.57,24.82L48.62,25.61L48.67,25.63L49.28,32.26L49.48,29.04L49.53,29.27L50.04,34.28L50.35,32.48L50.4,31.58L50.55,30.57L50.8,34.32L50.85,36.55L51.56,29.61L51.61,30.15L51.66,26.98L52.17,34.67L52.48,30.17L52.53,27.58L52.58,27.22L52.83,30.02L52.88,30.84L52.93,32.14L53.39,28L53.49,28.65L53.54,26.82L53.79,25.59L54.25,29.8L54.3,29L54.35,28.37L54.96,22.33L55.26,25.69L55.31,25.89L55.47,24.05L55.57,25.8L55.62,26.33L56.02,22.27L56.33,28.95L56.38,27.89L56.43,27.92L56.68,24.82L56.84,28.11L56.89,28.82L56.94,27.27L57.6,29.64L57.65,30.55L57.8,33.6L58.15,29.41L58.31,31.83L58.36,30.81L58.56,26.42L58.97,28.75L59.02,29.75L59.07,28.58L59.47,33.33L59.73,29.46L59.78,29.77L60.84,33.39L60.89,32.26L61.2,32.14L62.41,39.71L62.51,38.4L62.57,38.5L62.62,37.95L63.02,41.29L63.07,42.99L63.48,36.85L63.83,40.17L63.88,40.4L63.93,41.45L64.19,38.58L64.44,38.63L64.49,37.14L64.54,35.78L65.1,40.49L65.15,39.22L65.2,39.25L65.35,36.1L66.01,41.62L66.11,40.5L66.16,40.54L66.42,38.43L66.52,41.14L66.62,40.72L66.67,38.95L67.28,36.05L67.38,36.62L67.43,37.7L67.48,38.57L67.94,35.51L68.14,37.87L68.19,36.86L68.5,42.14L69,40.03L69.05,40.44L69.16,37.79L69.41,43.88L69.66,43.28L69.71,43.87L69.82,45.47L70.07,42.19L70.12,42.74L70.17,41.03L70.93,38.19L70.98,38.39L71.03,38.83L71.24,41.62L71.39,40.52L71.44,38.5L71.74,37.47L71.94,39.99L72,40.42L72.1,41.37L72.3,38.5L72.71,41.03L72.76,40.23L72.81,38.93L73.31,45.36L73.36,45.69L73.47,46.6L73.87,43.65L73.92,42.05L73.97,43.31L74.23,39.33L74.68,42.62L74.73,41.08L75.24,47.2L75.54,43.3L75.6,41.18L76.2,46.14L76.36,42.75L76.41,42.72L76.56,44.12L76.61,45.93L76.76,46.55L76.96,44.84L77.01,42.93L77.12,41.89L77.52,46.13L77.83,44.48L77.88,43.98L77.93,45.43L78.54,43.18L78.59,42.07L78.79,42.06L79.35,47L79.45,46.67L79.5,44.74L79.7,45.77L79.9,43.1L80.21,44.13L80.26,44.95L80.82,45.35L80.97,43.64L81.02,44.53L81.07,44.63L81.22,42.46L81.43,45.44L81.78,43.85L81.83,44.39L81.93,43.37L82.59,51.16L82.95,50L83,49.11L83.4,48.51L83.81,52.63L83.86,51.72L83.91,50.23L84.01,50.1L84.11,50.61L84.16,49.27L84.32,50.4L84.57,46.16L84.77,48.56L84.82,47.35L84.98,45.19L85.38,48.05L85.63,45.82L85.68,45.99L85.74,46.59L86.09,43.27L86.14,41.84L86.39,41.01L87.81,47.62L87.86,47.23L88.02,48.02L88.07,45.88L88.32,46.77L88.37,45.27L88.42,43.44L88.98,50.09L89.03,50.13L89.08,49.46L89.28,51.91L89.74,49.98L89.79,50.77L90.81,53.99L90.86,52.6L91.06,52.88L91.36,49.21L91.67,51.56L91.72,51.75L92.43,48.5L92.53,49.58L92.58,49.71L92.99,46L93.34,48.29L93.39,48.44L93.49,47.3L94.05,49.96L94.1,50.68L94.46,48.82L94.91,49.45L94.96,49.59L95.17,50.45L95.32,49.24L95.42,49.86L95.47,47.85L95.77,49.85L96.03,47.55L96.23,48.46L96.28,47.88L96.84,52.05L97.3,50.9L97.35,49.62L97.6,49.51L98.16,52.49L98.21,50.61L98.26,49.81L98.82,51.66L98.87,52.45L99.22,51.68L99.42,53.41L99.53,52.33L99.58,51.86L99.88,50.65L100.03,53.28L100.08,53.14L100.34,55.22L100.49,52.3L100.74,53.62L100.79,52.45L100.84,52.75L101,50L101.05,50.27L101.1,49.36L101.2,48.54L103.23,58.99L103.38,58.79L103.43,58.01L103.48,59.14L103.79,56.14L104.19,58.47L104.24,58.5L104.44,59.92L104.75,58.09L104.9,58.97L104.95,57.2L105.76,61.1L105.91,59.35L105.97,58.64L106.83,53.92L106.88,54.03L106.93,54.24L107.13,52.33L107.69,53.65L107.74,53.88L108.25,57.5L108.5,55.44L108.55,54.87L108.6,54.61L109.01,56.29L109.06,57.07L109.36,55.46L109.62,57.79L109.77,56.93L109.82,56.94L109.92,56L110.38,58.63L110.43,56.36L110.73,55.46L110.93,57.23L110.98,56.21L111.04,55.8L111.19,57.48L111.64,54.61L111.75,55.11L111.8,55.51L112.45,58.43L112.91,57.82L112.96,55.87L113.47,58.01L113.87,57.95L113.93,57.93L114.38,58.54L114.48,56.94L114.58,57.29L114.64,56.89L114.79,56.36L114.84,57.25L114.89,57.88L115.8,61.04L115.85,61.39L116.76,64.84L116.82,64.54L116.87,64.55L116.97,65.56L117.17,62.77L117.37,64.52L117.42,63.49L117.63,62.08L118.39,66.83L118.44,67.04L118.59,66.72L119.15,70.52L119.5,69.56L119.55,68.72L119.96,71.69L120.47,71.28L120.52,71.35L121.43,75.52L121.53,74.88L121.58,74.99L122.04,74.46L122.29,75.78L122.34,74.07L123.56,78.2L123.61,77.22L123.66,77.28L124.52,70.96L124.57,71.15L124.62,71.19L124.67,71.57L124.98,70.17L125.38,71.35L125.43,71.43L125.99,73.6L126.09,72.69L126.14,71.32L126.3,70.48L127.06,75.15L127.26,74.55L127.31,73.48L127.36,72.25L127.82,74.52L128.02,73.78L128.07,73.91L128.17,72.82L129.24,77.51L129.34,76.56L129.39,75.16L129.59,77.26L129.9,74.87L130.2,76.49L130.25,76.57L130.5,77.06L130.66,75.41L130.81,76.11L130.86,75.44L131.01,76.21L131.27,73.73L131.52,75.18L131.57,74.82L132.79,80.1L132.84,80.17L134.21,84.11L134.26,82.42L134.86,76.6L135.22,78.68L135.27,78.95L136.03,82.19L136.23,81.05L136.28,80.45L136.54,79.57L136.79,80.89L136.84,81.65L137.3,79.48L137.5,80.81L137.55,81.07L137.6,79.97L138.16,81.97L138.26,81.9L138.31,82.03L139.73,85.79L139.78,85.41L140.49,87.41L140.59,86.06L140.64,86.27L140.85,85.2L141.51,87.98L141.61,87.5L141.66,86.46L142.72,87.33L142.82,87.01L142.88,86.12L142.93,85.76L143.38,87.86L143.43,87.92L143.59,88.11L143.64,87.26L143.69,87.54L143.74,87.05L144.3,84.53L144.6,84.6L144.65,84.78L144.8,84.99L144.85,83.58L145.11,82.6L145.71,84.59L145.77,84.77L146.98,89.82L147.03,89L147.08,87.85L147.69,89.02L147.84,88.34L147.9,86.83L150.08,92.16L150.13,91.23L150.38,90.19L151.04,93.66L151.14,92.73L151.19,91.75L151.49,93.19L151.55,92.34L151.6,90.7L152.31,91.96L152.36,91.15L152.41,90.86L152.51,91L152.56,90.01L152.76,90.37L152.81,89.74L153.02,88.71L153.42,89.63L153.47,90L154.33,90.85L154.38,89.5L154.74,90.04L154.84,88.45L155.15,89.19L155.2,89.39L155.25,88.54L155.7,90.21L155.91,89.74L155.96,90L156.46,92.01L156.51,92.35L158.44,96.14L158.49,95.16L158.8,93.8L159.25,94.65L159.3,94.83L160.87,98.43L160.93,97.4L161.69,100.28L162.09,99.59L162.14,99.61L162.4,100.81L162.7,98.47L162.8,99.01L162.85,99.09L165.13,104.87L165.18,104.5L166.3,102.02L166.4,102.23L166.45,102.33L166.6,100.85L167.11,102.19L167.16,102.21L168.48,104.64L168.53,104.6L168.58,103.61L168.94,102.2L169.34,103.31L169.39,103.36L169.49,103.34L170.25,104.39L170.3,104.34L171.22,106.31L171.27,106.64L172.18,107.89L172.23,107.6L172.54,107.4L172.99,108.99L173.04,108.32L173.09,107.56L173.96,108.58L174.01,106.79L174.06,106.62L174.51,107.59L174.56,107.63L174.61,107.3L175.07,109.08L175.12,109.12L175.38,107.19L175.73,109.01L175.78,109.09L177.96,114.82L178.06,114.37L178.11,114.37L179.23,116.18L179.28,115.12L180.5,116.23L180.55,115.8L181.21,117.17L181.46,117L181.51,115.86L181.92,116.68L182.22,116.03L182.27,115.67L182.32,115.22L182.78,117.23L182.83,117.57L183.08,116.91L183.54,117.52L183.59,117.79L184.25,118.67L184.5,118.37L184.55,117.63L184.91,118.62L185.41,118.25L185.46,117.46L186.53,118.44L186.58,117.65L187.95,120.95L188.1,120.26L188.15,119.34L188.56,118.18L188.86,119.54L188.91,120.11L189.88,121.05L189.93,121.15L191.14,124.85L191.4,124.34L191.45,124.4L191.75,125.22L192.11,124.51L192.16,123.54L193.37,126.49L193.42,125.63L193.58,125.39L194.69,127.87L194.74,127.91L194.79,128.06L195.1,127.18L195.35,127.37L195.4,127.43L195.96,128.28L196.01,128.33L196.42,128.83L196.62,128.01L196.77,128.29L196.82,128.36L197.28,128.5L197.43,127.77L197.58,128.23L197.63,128.23L197.89,126.39L198.39,127.14L198.44,127.18L199.61,130.52L199.86,130.36L199.91,130.4L200.07,130.71L200.37,129.76L200.52,129.94L200.57,129.96L201.59,131.74L201.64,131.96L202.09,130.67L202.45,131.25L202.5,131.32L203.41,132.59L203.46,132.67L204.73,134.79L204.88,134.24L204.93,133.72L205.19,133.31L206.66,136.18L206.71,136.33L206.91,136.61L206.96,136.16L207.01,134.7L208.08,136.21L208.13,136.46L208.69,137.06L209.04,136.62L209.09,136.62L209.34,136.11L209.95,137.14L210,137.2L210.56,137.97L210.61,137.12L211.12,137.49L211.22,136.95L211.27,136.38L211.42,136.14L213.25,138.49L213.3,138.01L214.31,139.48L214.41,138.96L214.47,138.36L215.63,140.9L215.68,140.92L217.56,142.53L217.61,142.68L220.19,145.65L220.25,145.2L222.48,147.59L222.53,147.85L222.98,148.35L223.14,147.97L223.19,147.4L223.9,148.08L223.95,148.18L224.2,147.67L225.57,149.36L225.62,149.36L229.32,153.26L229.37,153.28L230.03,153.73L230.08,153.46L230.13,153.01L230.79,153.63L230.84,153.96L231.2,153.78L231.5,154.26L231.55,154.3L232.21,155.5L232.26,155.67L234.39,157.26L234.44,157.07L236.01,157.38L236.06,156.7L237.13,158L237.18,158L238.75,159.61L238.8,159.72L239.92,160.51L239.97,160.72L240.27,160.42L240.83,160.98L240.88,160.47L241.84,161.03L241.89,161.07L245.29,164.4L245.34,163.83L247.07,164.97L247.12,164.97L249.8,166.45L249.85,166.64L251.68,167.82L251.73,167.82L253.81,168.77L253.86,169L255.03,169.81L255.08,170.03L255.94,170.47L255.99,170.47L265.17,176.74L265.22,176.74L266.28,177.1L266.33,177.1L278.15,182.97L278.2,182.97L279.52,183.71L279.57,183.79L288.59,187.5L288.64,187.5L295.69,189.66L295.74,189.66L304.51,192.59L304.56,192.59L306.74,193.27L306.79,193.47L309.18,194.37L309.23,194.37L317.29,196.26L317.34,196.29L320.23,197.04L320.28,197.08L324.28,197.76L324.33,197.84L327.43,198.48L327.48,198.62L333.06,199.34L333.11,199.46L336.15,200.14L336.2,200.22L340.81,200.95L340.86,201.01L343.8,201.76L343.85,201.8L347.51,202.54L347.56,202.66L372.45,206.39L372.5,206.63L379.65,207.38L379.7,207.56L381.42,207.83L381.47,207.83L389.84,208.96L389.89,209.12L399.37,209.86L399.42,209.92L403.58,210.66L403.63,210.72L408.09,211.45L408.14,211.53L415.75,212.22L415.8,212.31L424.98,213.01L425.03,213.08L435.47,213.8L435.52,213.89L440.49,214.56L440.54,214.7L442.27,214.79L442.32,214.79L455.6,215.54L455.65,215.55L457.78,215.65" style="vector-effect: non-scaling-stroke; fill: none; stroke: rgb(99, 110, 250); stroke-opacity: 1; stroke-width: 2px; opacity: 1;"/></g><g class="points"/><g class="text"/></g></g></g><g class="overplot"><g class="xy2" transform="translate(68,20)" clip-path="url(#clip869c16xy2plot)"><g class="scatterlayer mlayer"><g class="trace scatter traceb0b515" style="stroke-miterlimit: 2; opacity: 1;"><g class="fills"/><g class="errorbars"/><g class="lines"><path class="js-line" d="M0,11.35L9.48,46.21L9.53,46.38L17.8,71.86L17.85,72L24.69,90.15L24.74,90.28L33.51,110.21L33.56,110.31L45.02,131.64L45.07,131.72L53.54,144.64L53.59,144.71L63.53,157.35L63.58,157.4L71.94,166.27L72,166.32L81.48,174.74L81.53,174.78L89.69,180.87L89.74,180.9L98.71,186.55L98.77,186.57L109.51,192.14L109.57,192.16L123.25,197.73L123.31,197.74L133.55,201.03L133.6,201.04L155.7,206.21L155.75,206.22L177.15,209.48L177.2,209.48L199.15,211.66L199.2,211.66L212.84,212.61L212.89,212.61L250.36,214.21L250.41,214.21L268.26,214.65L268.31,214.65L336.05,215.4L336.1,215.41L457.78,215.65" style="vector-effect: non-scaling-stroke; fill: none; stroke: rgb(239, 85, 59); stroke-opacity: 1; stroke-width: 2px; opacity: 1;"/></g><g class="points"/><g class="text"/></g></g></g></g><path class="xlines-above crisp" d="M0,0" style="fill: none;"/><path class="ylines-above crisp" d="M0,0" style="fill: none;"/><g class="overlines-above"><path class="xy2-x crisp" d="M0,0" style="fill: none;"/><path class="xy2-y crisp" d="M0,0" style="fill: none;"/></g><g class="xaxislayer-above"><g class="xtick"><text text-anchor="middle" x="0" y="260" transform="translate(68,0)" style="font-family: 'Open Sans', verdana, arial, sans-serif; font-size: 12px; fill: rgb(42, 63, 95); fill-opacity: 1; white-space: pre; opacity: 1;">0</text></g><g class="xtick"><text text-anchor="middle" x="0" y="260" style="font-family: 'Open Sans', verdana, arial, sans-serif; font-size: 12px; fill: rgb(42, 63, 95); fill-opacity: 1; white-space: pre; opacity: 1;" transform="translate(169.4,0)">2000</text></g><g class="xtick"><text text-anchor="middle" x="0" y="260" style="font-family: 'Open Sans', verdana, arial, sans-serif; font-size: 12px; fill: rgb(42, 63, 95); fill-opacity: 1; white-space: pre; opacity: 1;" transform="translate(270.8,0)">4000</text></g><g class="xtick"><text text-anchor="middle" x="0" y="260" style="font-family: 'Open Sans', verdana, arial, sans-serif; font-size: 12px; fill: rgb(42, 63, 95); fill-opacity: 1; white-space: pre; opacity: 1;" transform="translate(372.21,0)">6000</text></g><g class="xtick"><text text-anchor="middle" x="0" y="260" style="font-family: 'Open Sans', verdana, arial, sans-serif; font-size: 12px; fill: rgb(42, 63, 95); fill-opacity: 1; white-space: pre; opacity: 1;" transform="translate(473.61,0)">8000</text></g></g><g class="yaxislayer-above"><g class="ytick"><text text-anchor="end" x="67" y="4.199999999999999" transform="translate(0,214.2)" style="font-family: 'Open Sans', verdana, arial, sans-serif; font-size: 12px; fill: rgb(42, 63, 95); fill-opacity: 1; white-space: pre; opacity: 1;">260k</text></g><g class="ytick"><text text-anchor="end" x="67" y="4.199999999999999" style="font-family: 'Open Sans', verdana, arial, sans-serif; font-size: 12px; fill: rgb(42, 63, 95); fill-opacity: 1; white-space: pre; opacity: 1;" transform="translate(0,174.55)">270k</text></g><g class="ytick"><text text-anchor="end" x="67" y="4.199999999999999" style="font-family: 'Open Sans', verdana, arial, sans-serif; font-size: 12px; fill: rgb(42, 63, 95); fill-opacity: 1; white-space: pre; opacity: 1;" transform="translate(0,134.9)">280k</text></g><g class="ytick"><text text-anchor="end" x="67" y="4.199999999999999" style="font-family: 'Open Sans', verdana, arial, sans-serif; font-size: 12px; fill: rgb(42, 63, 95); fill-opacity: 1; white-space: pre; opacity: 1;" transform="translate(0,95.24)">290k</text></g><g class="ytick"><text text-anchor="end" x="67" y="4.199999999999999" style="font-family: 'Open Sans', verdana, arial, sans-serif; font-size: 12px; fill: rgb(42, 63, 95); fill-opacity: 1; white-space: pre; opacity: 1;" transform="translate(0,55.59)">300k</text></g></g><g class="overaxes-above"><g class="xy2-x"/><g class="xy2-y"><g class="y2tick"><text text-anchor="start" x="526.78" y="4.199999999999999" transform="translate(0,235.67)" style="font-family: 'Open Sans', verdana, arial, sans-serif; font-size: 12px; fill: rgb(42, 63, 95); fill-opacity: 1; white-space: pre; opacity: 1;">0</text></g><g class="y2tick"><text text-anchor="start" x="526.78" y="4.199999999999999" style="font-family: 'Open Sans', verdana, arial, sans-serif; font-size: 12px; fill: rgb(42, 63, 95); fill-opacity: 1; white-space: pre; opacity: 1;" transform="translate(0,184.59)">500</text></g><g class="y2tick"><text text-anchor="start" x="526.78" y="4.199999999999999" style="font-family: 'Open Sans', verdana, arial, sans-serif; font-size: 12px; fill: rgb(42, 63, 95); fill-opacity: 1; white-space: pre; opacity: 1;" transform="translate(0,133.51)">1000</text></g><g class="y2tick"><text text-anchor="start" x="526.78" y="4.199999999999999" style="font-family: 'Open Sans', verdana, arial, sans-serif; font-size: 12px; fill: rgb(42, 63, 95); fill-opacity: 1; white-space: pre; opacity: 1;" transform="translate(0,82.43)">1500</text></g><g class="y2tick"><text text-anchor="start" x="526.78" y="4.199999999999999" style="font-family: 'Open Sans', verdana, arial, sans-serif; font-size: 12px; fill: rgb(42, 63, 95); fill-opacity: 1; white-space: pre; opacity: 1;" transform="translate(0,31.35)">2000</text></g></g></g></g><g class="subplot xy2"/></g><g class="polarlayer"/><g class="smithlayer"/><g class="ternarylayer"/><g class="geolayer"/><g class="funnelarealayer"/><g class="pielayer"/><g class="iciclelayer"/><g class="treemaplayer"/><g class="sunburstlayer"/><g class="glimages"/><defs id="topdefs-869c16"><g class="clips"/><clipPath id="legend869c16"><rect width="123" height="48" x="0" y="0"/></clipPath></defs><g class="layer-above"><g class="imagelayer"/><g class="shapelayer"/></g><g class="infolayer"><g class="legend" pointer-events="all" transform="translate(564.74,20)"><rect class="bg" shape-rendering="crispEdges" width="123" height="48" x="0" y="0" style="stroke: rgb(68, 68, 68); stroke-opacity: 1; fill: rgb(255, 255, 255); fill-opacity: 1; stroke-width: 0px;"/><g class="scrollbox" transform="" clip-path="url(#legend869c16)"><g class="groups"><g class="traces" transform="translate(0,14.5)" style="opacity: 1;"><text class="legendtext" text-anchor="start" x="40" y="4.680000000000001" style="font-family: 'Open Sans', verdana, arial, sans-serif; font-size: 12px; fill: rgb(42, 63, 95); fill-opacity: 1; white-space: pre;">Cost</text><g class="layers" style="opacity: 1;"><g class="legendfill"/><g class="legendlines"><path class="js-line" d="M5,0h30" style="fill: none; stroke: rgb(99, 110, 250); stroke-opacity: 1; stroke-width: 2px;"/></g><g class="legendsymbols"><g class="legendpoints"/></g></g><rect class="legendtoggle" x="0" y="-9.5" width="117.265625" height="19" style="fill: rgb(0, 0, 0); fill-opacity: 0;"/></g><g class="traces" transform="translate(0,33.5)" style="opacity: 1;"><text class="legendtext" text-anchor="start" x="40" y="4.680000000000001" style="font-family: 'Open Sans', verdana, arial, sans-serif; font-size: 12px; fill: rgb(42, 63, 95); fill-opacity: 1; white-space: pre;">Temperature</text><g class="layers" style="opacity: 1;"><g class="legendfill"/><g class="legendlines"><path class="js-line" d="M5,0h30" style="fill: none; stroke: rgb(239, 85, 59); stroke-opacity: 1; stroke-width: 2px;"/></g><g class="legendsymbols"><g class="legendpoints"/></g></g><rect class="legendtoggle" x="0" y="-9.5" width="117.265625" height="19" style="fill: rgb(0, 0, 0); fill-opacity: 0;"/></g></g></g><rect class="scrollbar" rx="20" ry="3" width="0" height="0" x="0" y="0" style="fill: rgb(128, 139, 164); fill-opacity: 1;"/></g><g class="g-gtitle"/><g class="g-xtitle"><text class="xtitle" x="296.89" y="287.8" text-anchor="middle" style="font-family: 'Open Sans', verdana, arial, sans-serif; font-size: 14px; fill: rgb(42, 63, 95); opacity: 1; font-weight: normal; white-space: pre;">Iterations</text></g><g class="g-ytitle" transform="translate(1.7998046875,0)"><text class="ytitle" transform="rotate(-90,12.200000000000003,133.5)" x="12.200000000000003" y="133.5" text-anchor="middle" style="font-family: 'Open Sans', verdana, arial, sans-serif; font-size: 14px; fill: rgb(42, 63, 95); opacity: 1; font-weight: normal; white-space: pre;">Cost</text></g><g class="g-y2title"><text class="y2title" transform="rotate(-90,582.471875,133.5)" x="582.471875" y="133.5" text-anchor="middle" style="font-family: 'Open Sans', verdana, arial, sans-serif; font-size: 14px; fill: rgb(42, 63, 95); opacity: 1; font-weight: normal; white-space: pre;">Temperature</text></g></g></svg>