<svg class="main-svg" xmlns="http://www.w3.org/2000/svg" xmlns:xlink="http://www.w3.org/1999/xlink" width="700" height="300" style="" viewBox="0 0 700 300"><rect x="0" y="0" width="700" height="300" style="fill: rgb(255, 255, 255); fill-opacity: 1;"/><defs id="defs-8beff3"><g class="clips"><clipPath id="clip8beff3xyplot" class="plotclip"><rect width="457.78" height="227"/></clipPath><clipPath id="clip8beff3xy2plot" class="plotclip"><rect width="457.78" height="227"/></clipPath><clipPath class="axesclip" id="clip8beff3x"><rect x="68" y="0" width="457.78" height="300"/></clipPath><clipPath class="axesclip" id="clip8beff3y"><rect x="0" y="20" width="700" height="227"/></clipPath><clipPath class="axesclip" id="clip8beff3xy"><rect x="68" y="20" width="457.78" height="227"/></clipPath><clipPath class="axesclip" id="clip8beff3y2"><rect x="0" y="20" width="700" height="227"/></clipPath><clipPath class="axesclip" id="clip8beff3xy2"><rect x="68" y="20" width="457.78" height="227"/></clipPath></g><g class="gradients"/><g class="patterns"/></defs><g class="bglayer"><rect class="bg" x="68" y="20" width="457.78" height="227" style="fill: rgb(229, 236, 246); fill-opacity: 1; stroke-width: 0;"/></g><g class="layer-below"><g class="imagelayer"/><g class="shapelayer"/></g><g class="cartesianlayer"><g class="subplot xy"><g class="layer-subplot"><g class="shapelayer"/><g class="imagelayer"/></g><g class="gridlayer"><g class="x"><path class="xgrid crisp" transform="translate(178.86,0)" d="M0,20v227" style="stroke: rgb(255, 255, 255); stroke-opacity: 1; stroke-width: 1px;"/><path class="xgrid crisp" transform="translate(289.71000000000004,0)" d="M0,20v227" style="stroke: rgb(255, 255, 255); stroke-opacity: 1; stroke-width: 1px;"/><path class="xgrid crisp" transform="translate(400.57,0)" d="M0,20v227" style="stroke: rgb(255, 255, 255); stroke-opacity: 1; stroke-width: 1px;"/><path class="xgrid crisp" transform="translate(511.42,0)" d="M0,20v227" style="stroke: rgb(255, 255, 255); stroke-opacity: 1; stroke-width: 1px;"/></g><g class="y"><path class="ygrid crisp" transform="translate(0,222.86)" d="M68,0h457.78" style="stroke: rgb(255, 255, 255); stroke-opacity: 1; stroke-width: 1px;"/><path class="ygrid crisp" transform="translate(0,185.73)" d="M68,0h457.78" style="stroke: rgb(255, 255, 255); stroke-opacity: 1; stroke-width: 1px;"/><path class="ygrid crisp" transform="translate(0,148.59)" d="M68,0h457.78" style="stroke: rgb(255, 255, 255); stroke-opacity: 1; stroke-width: 1px;"/><path class="ygrid crisp" transform="translate(0,111.46)" d="M68,0h457.78" style="stroke: rgb(255, 255, 255); stroke-opacity: 1; stroke-width: 1px;"/><path class="ygrid crisp" transform="translate(0,74.32)" d="M68,0h457.78" style="stroke: rgb(255, 255, 255); stroke-opacity: 1; stroke-width: 1px;"/><path class="ygrid crisp" transform="translate(0,37.19)" d="M68,0h457.78" style="stroke: rgb(255, 255, 255); stroke-opacity: 1; stroke-width: 1px;"/></g><g class="y2"><path class="y2grid crisp" transform="translate(0,184.61)" d="M68,0h457.78" style="stroke: rgb(255, 255, 255); stroke-opacity: 1; stroke-width: 1px;"/><path class="y2grid crisp" transform="translate(0,133.53)" d="M68,0h457.78" style="stroke: rgb(255, 255, 255); stroke-opacity: 1; stroke-width: 1px;"/><path class="y2grid crisp" transform="translate(0,82.44)" d="M68,0h457.78" style="stroke: rgb(255, 255, 255); stroke-opacity: 1; stroke-width: 1px;"/><path class="y2grid crisp" transform="translate(0,31.35)" d="M68,0h457.78" style="stroke: rgb(255, 255, 255); stroke-opacity: 1; stroke-width: 1px;"/></g></g><g class="zerolinelayer"><path class="xzl zl crisp" transform="translate(68,0)" d="M0,20v227" style="stroke: rgb(255, 255, 255); stroke-opacity: 1; stroke-width: 2px;"/><path class="y2zl zl crisp" transform="translate(0,235.7)" d="M68,0h457.78" style="stroke: rgb(255, 255, 255); stroke-opacity: 1; stroke-width: 2px;"/></g><path class="xlines-below"/><path class="ylines-below"/><g class="overlines-below"><path class="xy2-x"/><path class="xy2-y"/></g><g class="xaxislayer-below"/><g class="yaxislayer-below"/><g class="overaxes-below"><g class="xy2-x"/><g class="xy2-y"/></g><g class="plot" transform="translate(68,20)" clip-path="url(#clip8beff3xyplot)"><g class="scatterlayer mlayer"><g class="trace scatter trace691141" style="stroke-miterlimit: 2; opacity: 1;"><g class="fills"/><g class="errorbars"/><g class="lines"><path class="js-line" d="M0,26.96L0.67,17.76L0.72,21.26L0.78,27.81L1.27,14.13L1.44,28.88L1.5,29.03L1.55,29.66L1.66,22.64L1.77,24.06L1.83,22.87L2.16,28.29L2.22,21.09L2.72,29.92L2.88,15.34L2.94,17.22L2.99,19.92L3.38,28.38L3.66,26L3.71,22.38L3.82,19.79L4.1,29.94L4.49,26.44L4.55,25.74L4.99,19.05L5.21,33.94L5.27,25.01L5.32,24.32L5.38,31.93L5.88,22.21L6.04,25.78L6.1,27.17L6.54,31.68L6.76,20.58L6.87,23.66L6.93,27.07L7.15,16.48L7.65,20.24L7.7,28.39L8.26,15.95L8.48,25.17L8.54,29.31L9.37,15.93L9.48,17.62L9.53,18.72L9.7,29.07L9.98,17.18L10.31,23.92L10.37,22.33L10.42,17.63L10.64,24.56L11.03,24.3L11.09,28.19L11.47,17.25L11.7,29.71L11.75,27.92L11.81,31.93L12.69,16.61L12.75,18.32L12.8,14.77L13.3,28.99L13.36,28.38L13.64,13.72L14.19,16.78L14.25,23.67L14.63,27.54L15.02,18.27L15.08,21.24L15.24,26.08L15.58,17.26L15.74,24.24L15.8,24.53L15.91,13.13L16.35,28.34L16.46,21.11L16.52,25.71L16.96,26.99L17.24,16.59L17.29,22.5L17.35,27.8L17.57,22.46L17.63,29.32L17.74,25.5L17.79,30.72L17.9,32.29L18.46,13.62L18.68,22.88L18.73,24.13L18.9,29.65L19.51,28.28L19.57,24.2L19.9,29.85L20.18,19.35L20.45,20.72L20.51,24.47L20.56,20.68L21.06,28.66L21.17,28.37L21.23,29.06L21.51,17.71L21.95,23.94L22,26.2L22.34,12.72L22.73,23.72L22.78,25.46L23.45,30.33L23.61,19.19L23.67,17.01L23.94,23.58L24.06,21.19L24.11,16.5L24.89,27.28L24.94,25.5L25.5,31.02L25.66,28.77L25.72,23.05L26,32.98L26.16,18.06L26.55,30.32L26.61,26.84L26.72,27.63L26.77,25.86L26.83,22.21L26.94,19.95L27.1,22.87L27.16,26.34L27.44,13.76L27.99,15.7L28.05,20.86L28.27,15L28.55,19.1L28.6,20.39L28.66,19.42L28.88,22.97L28.99,20.11L29.04,29.18L29.27,33.24L29.71,20.86L29.93,24.67L29.99,28.41L30.26,31.51L30.87,14.75L30.98,17.66L31.04,19.2L31.1,14.05L31.54,26.59L31.7,22.91L31.76,26.63L32.37,27.59L32.59,19.45L32.65,23.37L32.7,23.75L32.76,21.84L32.81,16.65L33.09,15.79L33.48,34.4L33.64,29L33.7,19.57L33.81,18.52L33.87,20.12L33.92,24.97L34.14,20.99L34.25,25.98L34.31,23.47L34.37,20.95L34.64,14.54L34.81,29.7L35.03,23.91L35.09,23.75L35.14,23.59L35.2,20.72L35.42,30.07L35.53,20.35L35.97,23.92L36.03,25.64L36.08,25.81L36.14,23.32L36.31,26.7L36.64,20.77L36.69,22.82L36.75,17.64L36.8,18.29L36.97,13.92L37.03,11.35L37.91,29.52L38.13,22.94L38.19,23.92L38.36,25.71L38.41,22.39L38.52,23.35L38.58,19.06L38.86,28.16L39.08,20.2L39.13,18.61L39.63,29.74L39.91,21.43L39.96,18.48L40.13,17.77L40.24,21.65L40.3,21.01L40.35,24.12L40.41,22.04L40.85,30.21L40.91,33.24L41.4,16.07L41.79,23.51L41.85,23.75L42.24,13.79L42.68,27.82L42.74,27.67L42.96,31.14L43.18,22.51L43.46,26.68L43.51,29.98L43.9,21.06L44.34,24.82L44.4,26.84L44.51,21.01L44.95,32.5L45.12,23.56L45.17,28.1L45.23,30.48L45.67,24.09L45.78,26.06L45.84,22.63L45.89,22.78L45.95,25.54L46.01,25.36L46.06,27.86L46.28,31.57L46.73,25.59L46.78,28.02L46.84,26.8L47.28,23.64L47.56,35.12L47.72,30.77L47.78,26.43L48.17,29.96L48.44,19.9L48.67,20.8L48.72,21.9L48.89,12.84L49.39,26.11L49.44,27.12L49.94,31.61L50.16,23.66L50.22,25.06L50.27,24.53L50.38,22.74L50.66,31.76L50.77,27.98L50.83,22.8L51.33,31.84L51.44,27.44L51.49,24.27L52.1,29.49L52.16,26.94L52.21,23.48L52.38,30.76L52.88,27.33L52.93,24.29L53.43,36L53.77,33.91L53.82,32.03L53.99,28.34L54.43,33.75L54.49,28.89L54.6,30.89L54.65,26.5L54.71,23.11L55.21,34.37L55.59,33.16L55.65,31.63L55.82,31.73L55.87,27.76L55.93,22.25L56.15,22.2L56.92,32.65L56.98,32.8L57.37,28.12L57.48,30.13L57.53,26.77L57.76,33.43L57.98,22.59L58.03,20.47L58.09,19.86L58.25,25.47L58.31,27.7L58.7,23.12L59.14,32.69L59.2,31.28L59.59,37.77L59.81,28.11L59.86,29.45L59.92,28.94L59.97,32.13L60.19,20.07L60.64,28.56L60.69,27.99L60.86,21.29L61.3,29.09L61.47,22.72L61.53,23.92L61.86,23.51L62.13,33.87L62.3,29.99L62.36,25.31L62.8,35.35L63.13,28.47L63.19,30.31L63.3,32.68L63.74,28.68L63.91,31.8L63.96,30.1L64.07,31.84L64.24,27.9L64.41,30.71L64.46,31.44L64.91,35.38L65.02,29.65L65.07,27.1L65.29,24.93L66.01,32.08L66.07,33.53L66.13,34.74L66.4,25.51L66.46,25.2L66.79,33.02L67.01,20.56L67.12,21.95L67.18,20.27L67.46,17.48L68.18,32.93L68.23,34.4L68.34,36.28L68.4,38.04L68.62,26.26L69.23,31.84L69.29,30.33L69.4,29.52L69.45,33.73L69.51,34.35L70.01,24.55L70.28,30.06L70.34,32.16L70.89,38.81L71,34.26L71.06,30.74L71.45,28.41L71.5,32.09L71.56,35.32L72.22,30.62L72.28,33.52L72.33,34.74L72.56,38.81L72.78,36.94L72.83,32.19L73,27.02L73.61,34.94L73.66,31.41L73.94,36.51L74.44,33.53L74.5,35.96L74.55,36.45L74.66,30.21L74.72,29.43L74.77,25.36L75.22,30.65L75.44,28.77L75.49,32.72L75.55,33.69L75.88,27.03L75.94,28.63L75.99,23.68L76.1,23.47L76.55,31.64L76.71,29.32L76.77,26.81L76.99,23.58L77.38,34.28L77.6,32.01L77.65,32.3L77.71,31.55L78.1,34.15L78.15,35.67L78.49,39.78L78.6,37.41L78.65,32.75L78.87,36.17L78.98,32.05L79.04,32.09L79.1,30.93L79.43,39.92L79.87,37.87L79.93,33.09L80.15,40.38L80.43,29.26L80.65,32.58L80.7,28.02L80.98,29.86L81.2,23.79L81.42,27.93L81.48,27.5L81.59,25.75L81.87,32.68L81.92,35.24L82.03,38.44L82.14,31.67L82.53,34.2L82.59,30.28L83.2,39.74L83.64,37.27L83.7,37.28L84.14,33.08L84.36,37.57L84.42,40.46L85.03,31.19L85.14,35.65L85.19,39.91L86.02,31.15L86.14,34.24L86.19,35.89L86.63,38.78L86.8,35.15L86.86,36.53L86.91,32.07L86.97,32.44L87.02,31.8L87.08,28.05L88.08,37.53L88.13,37.75L88.19,36.74L88.46,40.75L88.52,44.01L89.18,36.47L89.41,38.24L89.46,40.12L89.68,43.09L89.96,42.16L90.02,38.14L90.13,39.45L90.57,34.53L90.62,33.42L91.4,47.99L91.62,41.18L91.68,41.77L92.12,43.26L92.68,29.83L92.9,31.37L92.95,32.06L93.12,29.04L93.51,37.37L93.78,36.68L93.84,35.59L94.28,35.45L94.73,44.44L94.78,42.35L94.84,41.73L95.06,42.4L95.61,29.79L95.72,30.67L95.78,30.74L96.83,41.76L96.89,40.73L96.94,38.86L97.22,34.95L97.5,41.51L97.61,39L97.66,41.1L97.89,42.01L97.94,37.73L98,38.27L98.05,34.99L98.22,29.11L98.83,31.57L98.88,33.91L99.05,33.85L99.77,48.45L100.05,43.63L100.1,41.26L100.38,34.09L100.88,38.55L100.93,39.69L101.65,45.14L101.77,42.99L101.82,44.81L102.32,37.07L102.65,39.67L102.71,38.25L103.32,35.36L103.48,35.9L103.54,36.78L104.26,43.42L104.37,43.18L104.43,39.98L104.76,35.55L105.09,40.57L105.15,42.25L105.48,38.33L105.59,44.37L105.92,39.77L105.98,39.91L106.75,45.34L106.92,42.99L106.98,41.61L107.75,48.17L108.03,47.3L108.08,44.86L108.31,41.37L108.75,46.67L108.81,47.49L109.08,47.18L109.36,51.49L109.58,49.65L109.64,48.4L109.69,48.72L109.75,45.65L109.97,48.67L110.02,45.27L110.36,43.83L110.52,47.74L110.63,45.14L110.69,43.11L110.75,41.04L111.08,48.54L111.35,44.3L111.41,44.87L111.47,42.75L111.85,48.4L112.08,45.56L112.13,46.29L112.46,50.27L112.85,47.68L112.91,45.97L112.96,42.78L113.63,46.84L113.68,46.94L113.79,47.9L113.85,45.42L113.9,44.3L114.07,38.13L114.63,43.63L114.68,45.31L115.23,51.48L115.57,49.41L115.62,48.52L116.12,39.93L116.4,45.26L116.45,47.45L117.4,56.21L117.45,53.96L117.51,51.72L117.56,52.18L117.78,48.69L117.9,49.72L117.95,48.7L118.23,54.78L118.56,44.13L118.62,44.64L119.06,42.62L119.39,48.38L119.45,48.21L119.5,44.47L119.67,45.88L119.78,42.71L120.11,44.19L120.17,42.47L120.33,45.48L120.45,44.69L120.5,46.48L120.67,43.84L120.94,48.32L121.28,45.38L121.33,46.11L122.05,56.06L122.16,55.41L122.22,51.12L122.33,52.56L122.39,50.13L122.44,51L122.5,49.06L123.88,59.28L124.05,56.68L124.1,55.44L124.16,55.25L124.21,52.14L124.38,54.65L124.49,53.33L124.55,50.29L124.93,53.2L125.27,47.65L125.32,48.24L125.38,49.22L125.99,44.35L126.15,45.19L126.21,46.39L126.76,45.7L127.26,54.39L127.43,53.09L127.48,52.35L127.65,47.53L128.26,50.92L128.32,51.46L128.48,50.26L129.2,58.43L129.42,54.55L129.48,54.83L129.65,56.38L129.81,53.1L130.09,55.76L130.14,55.96L130.37,59.09L130.7,56.3L130.75,51.73L130.87,49.78L131.25,54.17L131.59,53.32L131.64,50.56L131.7,47.3L132.25,52.47L132.36,51.32L132.42,51.6L132.86,57.76L133.14,55.24L133.19,55.32L133.25,55.12L133.36,57.1L133.42,58.24L133.53,58.4L133.69,54.07L134.08,57.88L134.14,58.31L134.3,59.74L134.47,56.42L134.52,53.65L134.69,52.41L134.97,54.25L135.02,55.74L135.36,59.19L135.41,56.28L135.47,51.34L135.58,53.1L135.85,47.07L136.13,51.69L136.19,48.45L136.57,51.94L136.69,47.04L136.91,48.4L136.96,48.69L137.13,48.14L137.74,53.42L137.9,51.69L137.96,50.8L138.68,54.17L138.74,56.07L139.35,61.5L139.46,57.96L139.51,55.4L139.73,57.29L139.79,54.44L139.9,54.74L139.96,53.28L140.23,53.03L140.62,54.81L140.73,54.42L140.79,55.61L141.45,62.61L141.62,59.19L141.67,59.86L141.9,63.06L142.06,62.07L142.12,59.76L142.34,62.01L142.56,57.58L142.84,59.86L142.89,60.18L143,59.23L144.22,67.19L144.28,67.35L144.5,68.45L144.56,69.32L144.67,69.7L144.72,66.58L144.83,67.26L144.89,64.87L144.94,65.51L145.11,60.32L145.28,61.84L145.33,60.84L145.78,62.49L145.89,58.5L146.11,59.82L146.16,59.97L146.33,61.17L146.39,59.22L146.83,60.73L146.88,59.2L147.44,62.78L147.49,63.4L147.77,64.62L147.83,62.66L148.38,66.1L148.49,60.78L148.55,61.2L148.88,60.4L149.32,63.55L149.38,61.91L149.77,64.1L150.04,59.91L150.1,60.15L151.32,66.75L151.37,63.72L151.76,66.63L151.87,62.9L151.98,63.81L152.04,62.43L152.09,62.64L152.15,60.45L152.21,59.08L153.59,65.99L153.65,63.17L154.53,70.04L154.59,69.24L154.64,69.24L154.7,66.27L155.31,71.02L155.36,71.08L156.03,74.77L156.14,74.19L156.2,71.95L156.47,70.73L156.64,72.96L156.7,72.05L156.75,70.14L157.03,66.56L157.47,68.93L157.53,69.77L158.41,61.55L158.47,62.18L159.19,66.09L159.3,64.58L159.36,64.55L160.35,74.14L160.57,70.85L160.63,68.07L162.13,75.92L162.18,73.58L162.35,74.26L162.51,70.78L162.85,73.6L162.9,72.14L163.12,69.37L163.79,77.76L163.96,74.39L164.01,72.57L164.18,73.62L164.23,71.15L164.34,71.43L164.4,69.79L164.45,68.53L164.73,69.57L165.29,64.72L165.4,65.82L165.45,66.67L165.79,70.4L166.28,68.65L166.34,67.22L166.56,65.25L166.89,69.09L166.95,69.8L167.06,65.94L167.73,67.1L167.78,67.42L167.95,68L168,65.66L169.28,75.28L169.33,72.61L170.72,80.37L170.77,78.56L170.88,78.67L171,75.42L171.44,78.24L171.49,78.38L171.66,77.63L171.94,79.27L171.99,76.4L172.94,80.95L173.27,80.55L173.32,79.43L173.55,79.24L174.32,83.72L174.38,81.72L174.93,84.59L175.15,83.27L175.21,81.86L175.32,81.27L175.71,84.16L175.76,81.91L175.82,80.49L176.09,81.39L176.26,79.51L176.32,79.55L176.37,76.95L177.59,81.69L177.76,81.08L177.81,78.93L178.15,77.35L178.59,82.01L178.76,81.7L178.81,80.28L178.92,81.23L179.09,76.61L179.2,76.91L179.25,74.66L179.31,73.7L179.81,77.2L179.86,78.04L180.14,77.67L180.7,81.68L180.75,81.97L180.81,82.13L180.86,79.81L182.52,89.15L182.69,87.94L182.75,87.97L183.02,88.06L183.08,89.09L183.25,89.56L183.41,86.59L183.58,87.84L183.63,85.89L184.13,85.26L184.58,88.21L184.63,86.84L184.91,88.75L184.96,86.64L185.07,86.78L185.13,84.07L185.63,81.33L185.85,84.12L185.91,82.92L186.57,78.38L186.79,79.48L186.85,79.83L187.01,79.17L187.62,85.4L187.79,84.89L187.85,82.09L187.9,82.73L188.29,79.51L188.34,76.48L188.46,75.11L189.4,79.09L189.45,79.22L189.73,78.91L190.62,82.63L190.67,81.24L191.23,83.44L191.56,82.6L191.61,82.77L191.95,81.4L192.61,85.12L192.67,83.75L192.72,83.12L192.78,83.55L192.83,81.24L193.17,81.22L193.22,80.59L193.89,82.63L194.05,81.82L194.11,80.61L194.28,80.35L195.11,82.48L195.16,81.52L195.99,86.24L196.05,84.33L196.1,82.11L196.27,81.89L196.82,84.27L196.99,82.52L197.05,82.61L197.38,83.58L197.43,84.35L197.66,83.76L198.38,85.79L198.43,84.61L198.88,87.14L199.04,86.3L199.1,85.01L199.76,79.79L200.04,81.31L200.1,81.68L201.04,87.49L201.15,86.99L201.2,85.46L201.81,90.78L202.2,89.56L202.26,89.89L203.25,94.26L203.31,94.3L203.92,95.17L203.98,93.94L204.31,93.58L204.75,95.8L204.86,95.07L204.92,95.13L205.42,96.28L205.47,94.37L205.53,94.68L205.58,92.5L206.75,96.55L206.8,94.74L207.25,91.5L207.58,93.71L207.63,93.75L207.86,92.6L208.41,95.77L208.46,96.69L209.24,98.33L209.3,98.15L209.35,99.29L209.41,99.92L209.63,97.55L209.74,98.18L209.8,95.99L210.29,97.72L210.35,96.4L210.4,94.95L212.01,101.1L212.07,99.64L212.12,99.64L213.79,104.1L213.84,103.2L213.9,103.78L214.17,101.33L214.28,101.45L214.34,99.78L214.78,101.85L214.95,100.77L215.01,99.76L215.73,102.05L215.78,99.86L215.84,99.98L217.5,105.83L217.72,105.11L217.78,105.11L218.05,103.55L218.77,106.37L218.83,105.17L219.66,107.26L219.72,106.67L219.77,107.08L221.32,112.36L221.38,112.39L221.43,109.84L222.1,110.63L222.16,111.06L222.38,110.92L222.99,111.98L223.04,110.18L223.76,111.98L223.87,111.38L223.93,110.85L224.37,111.72L224.43,110.28L224.59,110.44L224.65,110.57L224.76,110.7L224.82,108.73L225.43,109.82L225.54,109.18L225.59,108.32L225.87,108.65L225.92,107.13L226.53,108.46L226.59,106.61L227.59,111.2L227.86,110.4L227.92,109.31L228.09,109.04L228.92,114.1L228.97,114.46L229.36,115.21L229.42,113.73L230.53,116.76L230.58,115.16L231.8,118.65L231.97,118.5L232.02,116.51L232.13,114.22L232.74,115.77L232.8,115.77L233.8,118.94L233.85,119.16L234.79,120.86L234.85,120.86L234.9,121.19L234.96,119.4L235.57,120.9L235.62,120.93L235.9,120.28L237.12,124.14L237.18,122.89L237.4,123.3L237.45,121.94L237.56,119.63L238.17,121.03L238.23,121.64L238.78,122.64L238.84,121.04L240.56,125.81L240.61,125.81L242.05,130.03L242.11,128.69L242.44,129L242.5,127.58L242.55,127.58L243.99,130.41L244.05,129.32L245.99,133.47L246.04,133.47L246.54,134.2L246.6,133.18L246.71,133.28L246.77,133.28L247.98,134.9L248.04,134.96L248.98,135.54L249.04,134.44L250.09,136.2L250.15,134.3L250.2,133.04L250.81,134.87L250.87,135.18L252.36,136.39L252.42,136.69L253.42,138.66L253.47,138.66L253.86,140.56L254.25,139.35L254.3,139.35L256.02,141.05L256.08,140.27L257.24,141.83L257.3,141.86L258.24,142.81L258.29,141.34L260.4,146.22L260.46,146.22L262.45,148.69L262.73,147.97L262.78,147.97L264.39,150.74L264.45,150.74L265.56,151.38L265.61,151.38L266.5,151.81L266.55,150.65L266.89,151.41L266.94,149.84L268.05,151.13L268.11,151.59L271.65,155.23L271.71,155.23L274.2,155.34L274.26,155.55L275.2,156.43L275.26,156.43L276.53,157.17L276.59,157.19L277.42,157.65L277.47,157.65L279.52,159.44L279.58,159.65L280.41,160.3L280.47,160.48L281.52,160.85L281.57,161.29L282.52,162.03L282.57,162.27L284.73,162.96L284.79,163.09L286.06,165.09L286.12,165.17L286.95,166.04L287.01,166.04L288.23,166.42L288.28,166.8L290.33,167.63L290.39,168.45L291.27,169.41L291.33,169.52L293.27,170.2L293.33,170.35L295.99,171.07L296.04,171.19L298.37,171.88L298.42,171.99L299.87,172.67L299.92,172.92L300.86,173.81L300.92,173.81L302.97,174.85L303.02,174.85L305.63,175.32L305.69,175.62L307.63,176.5L307.68,176.78L309.29,177.02L309.34,177.56L313.33,178.83L313.39,179.06L319.43,181.52L319.49,181.52L322.2,182.56L322.26,182.95L326.53,183.85L326.58,184.18L330.63,186.08L330.68,186.44L333.62,187.05L333.68,187.23L335.34,187.9L335.39,188.06L336.39,188.63L336.45,188.63L342.93,190.67L342.99,190.67L344.87,191.66L344.93,191.66L347.37,193.3L347.42,193.3L350.36,193.93L350.42,194.16L352.52,194.91L352.58,195.21L362.11,198.29L362.17,198.53L366.82,199.22L366.88,199.33L369.65,199.96L369.7,200.12L372.64,200.68L372.7,200.91L377.46,201.65L377.52,201.69L381.46,202.42L381.51,202.58L383.73,203.26L383.78,203.44L385.5,203.84L385.56,203.84L388.27,204.54L388.33,204.64L389.33,204.96L389.38,204.96L396.37,205.62L396.42,205.86L397.64,206.4L397.7,206.4L399.86,207.12L399.91,207.16L404.51,207.84L404.57,207.95L407.56,208.57L407.62,208.74L422.47,210.89L422.53,210.89L434.44,212.71L434.5,212.71L441.82,213.37L441.87,213.51L446.14,214.15L446.2,214.3L450.69,215.01L450.74,215.14L457.78,215.65" style="vector-effect: non-scaling-stroke; fill: none; stroke: rgb(99, 110, 250); stroke-opacity: 1; stroke-width: 2px; opacity: 1;"/></g><g class="points"/><g class="text"/></g></g></g><g class="overplot"><g class="xy2" transform="translate(68,20)" clip-path="url(#clip8beff3xy2plot)"><g class="scatterlayer mlayer"><g class="trace scatter tracea02f81" style="stroke-miterlimit: 2; opacity: 1;"><g class="fills"/><g class="errorbars"/><g class="lines"><path class="js-line" d="M0,11.35L15.13,60.19L15.19,60.35L21.78,77.79L21.84,77.92L30.37,97.6L30.43,97.72L41.29,118.73L41.35,118.82L49.44,131.99L49.5,132.07L58.53,144.66L58.59,144.73L69.45,157.37L69.51,157.42L78.65,166.29L78.71,166.34L87.63,173.69L87.69,173.73L100.32,182.29L100.38,182.32L114.96,190.05L115.01,190.07L128.65,195.66L128.7,195.68L146.55,201.2L146.61,201.21L157.14,203.72L157.19,203.73L173.32,206.76L173.38,206.76L192.45,209.37L192.5,209.37L219.72,211.83L219.77,211.83L233.41,212.68L233.46,212.68L271.82,214.19L271.87,214.19L292.6,214.66L292.66,214.66L310.34,214.95L310.4,214.95L457.78,215.65" style="vector-effect: non-scaling-stroke; fill: none; stroke: rgb(239, 85, 59); stroke-opacity: 1; stroke-width: 2px; opacity: 1;"/></g><g class="points"/><g class="text"/></g></g></g></g><path class="xlines-above crisp" d="M0,0" style="fill: none;"/><path class="ylines-above crisp" d="M0,0" style="fill: none;"/><g class="overlines-above"><path class="xy2-x crisp" d="M0,0" style="fill: none;"/><path class="xy2-y crisp" d="M0,0" style="fill: none;"/></g><g class="xaxislayer-above"><g class="xtick"><text text-anchor="middle" x="0" y="260" transform="translate(68,0)" style="font-family: 'Open Sans', verdana, arial, sans-serif; font-size: 12px; fill: rgb(42, 63, 95); fill-opacity: 1; white-space: pre; opacity: 1;">0</text></g><g class="xtick"><text text-anchor="middle" x="0" y="260" style="font-family: 'Open Sans', verdana, arial, sans-serif; font-size: 12px; fill: rgb(42, 63, 95); fill-opacity: 1; white-space: pre; opacity: 1;" transform="translate(178.86,0)">2000</text></g><g class="xtick"><text text-anchor="middle" x="0" y="260" style="font-family: 'Open Sans', verdana, arial, sans-serif; font-size: 12px; fill: rgb(42, 63, 95); fill-opacity: 1; white-space: pre; opacity: 1;" transform="translate(289.71000000000004,0)">4000</text></g><g class="xtick"><text text-anchor="middle" x="0" y="260" style="font-family: 'Open Sans', verdana, arial, sans-serif; font-size: 12px; fill: rgb(42, 63, 95); fill-opacity: 1; white-space: pre; opacity: 1;" transform="translate(400.57,0)">6000</text></g><g class="xtick"><text text-anchor="middle" x="0" y="260" style="font-family: 'Open Sans', verdana, arial, sans-serif; font-size: 12px; fill: rgb(42, 63, 95); fill-opacity: 1; white-space: pre; opacity: 1;" transform="translate(511.42,0)">8000</text></g></g><g class="yaxislayer-above"><g class="ytick"><text text-anchor="end" x="67" y="4.199999999999999" transform="translate(0,222.86)" style="font-family: 'Open Sans', verdana, arial, sans-serif; font-size: 12px; fill: rgb(42, 63, 95); fill-opacity: 1; white-space: pre; opacity: 1;">60k</text></g><g class="ytick"><text text-anchor="end" x="67" y="4.199999999999999" style="font-family: 'Open Sans', verdana, arial, sans-serif; font-size: 12px; fill: rgb(42, 63, 95); fill-opacity: 1; white-space: pre; opacity: 1;" transform="translate(0,185.73)">70k</text></g><g class="ytick"><text text-anchor="end" x="67" y="4.199999999999999" style="font-family: 'Open Sans', verdana, arial, sans-serif; font-size: 12px; fill: rgb(42, 63, 95); fill-opacity: 1; white-space: pre; opacity: 1;" transform="translate(0,148.59)">80k</text></g><g class="ytick"><text text-anchor="end" x="67" y="4.199999999999999" style="font-family: 'Open Sans', verdana, arial, sans-serif; font-size: 12px; fill: rgb(42, 63, 95); fill-opacity: 1; white-space: pre; opacity: 1;" transform="translate(0,111.46)">90k</text></g><g class="ytick"><text text-anchor="end" x="67" y="4.199999999999999" style="font-family: 'Open Sans', verdana, arial, sans-serif; font-size: 12px; fill: rgb(42, 63, 95); fill-opacity: 1; white-space: pre; opacity: 1;" transform="translate(0,74.32)">100k</text></g><g class="ytick"><text text-anchor="end" x="67" y="4.199999999999999" style="font-family: 'Open Sans', verdana, arial, sans-serif; font-size: 12px; fill: rgb(42, 63, 95); fill-opacity: 1; white-space: pre; opacity: 1;" transform="translate(0,37.19)">110k</text></g></g><g class="overaxes-above"><g class="xy2-x"/><g class="xy2-y"><g class="y2tick"><text text-anchor="start" x="526.78" y="4.199999999999999" transform="translate(0,235.7)" style="font-family: 'Open Sans', verdana, arial, sans-serif; font-size: 12px; fill: rgb(42, 63, 95); fill-opacity: 1; white-space: pre; opacity: 1;">0</text></g><g class="y2tick"><text text-anchor="start" x="526.78" y="4.199999999999999" style="font-family: 'Open Sans', verdana, arial, sans-serif; font-size: 12px; fill: rgb(42, 63, 95); fill-opacity: 1; white-space: pre; opacity: 1;" transform="translate(0,184.61)">500</text></g><g class="y2tick"><text text-anchor="start" x="526.78" y="4.199999999999999" style="font-family: 'Open Sans', verdana, arial, sans-serif; font-size: 12px; fill: rgb(42, 63, 95); fill-opacity: 1; white-space: pre; opacity: 1;" transform="translate(0,133.53)">1000</text></g><g class="y2tick"><text text-anchor="start" x="526.78" y="4.199999999999999" style="font-family: 'Open Sans', verdana, arial, sans-serif; font-size: 12px; fill: rgb(42, 63, 95); fill-opacity: 1; white-space: pre; opacity: 1;" transform="translate(0,82.44)">1500</text></g><g class="y2tick"><text text-anchor="start" x="526.78" y="4.199999999999999" style="font-family: 'Open Sans', verdana, arial, sans-serif; font-size: 12px; fill: rgb(42, 63, 95); fill-opacity: 1; white-space: pre; opacity: 1;" transform="translate(0,31.35)">2000</text></g></g></g></g><g class="subplot xy2"/></g><g class="polarlayer"/><g class="smithlayer"/><g class="ternarylayer"/><g class="geolayer"/><g class="funnelarealayer"/><g class="pielayer"/><g class="iciclelayer"/><g class="treemaplayer"/><g class="sunburstlayer"/><g class="glimages"/><defs id="topdefs-8beff3"><g class="clips"/><clipPath id="legend8beff3"><rect width="123" height="48" x="0" y="0"/></clipPath></defs><g class="layer-above"><g class="imagelayer"/><g class="shapelayer"/></g><g class="infolayer"><g class="legend" pointer-events="all" transform="translate(564.74,20)"><rect class="bg" shape-rendering="crispEdges" width="123" height="48" x="0" y="0" style="stroke: rgb(68, 68, 68); stroke-opacity: 1; fill: rgb(255, 255, 255); fill-opacity: 1; stroke-width: 0px;"/><g class="scrollbox" transform="" clip-path="url(#legend8beff3)"><g class="groups"><g class="traces" transform="translate(0,14.5)" style="opacity: 1;"><text class="legendtext" text-anchor="start" x="40" y="4.680000000000001" style="font-family: 'Open Sans', verdana, arial, sans-serif; font-size: 12px; fill: rgb(42, 63, 95); fill-opacity: 1; white-space: pre;">Cost</text><g class="layers" style="opacity: 1;"><g class="legendfill"/><g class="legendlines"><path class="js-line" d="M5,0h30" style="fill: none; stroke: rgb(99, 110, 250); stroke-opacity: 1; stroke-width: 2px;"/></g><g class="legendsymbols"><g class="legendpoints"/></g></g><rect class="legendtoggle" x="0" y="-9.5" width="117.265625" height="19" style="fill: rgb(0, 0, 0); fill-opacity: 0;"/></g><g class="traces" transform="translate(0,33.5)" style="opacity: 1;"><text class="legendtext" text-anchor="start" x="40" y="4.680000000000001" style="font-family: 'Open Sans', verdana, arial, sans-serif; font-size: 12px; fill: rgb(42, 63, 95); fill-opacity: 1; white-space: pre;">Temperature</text><g class="layers" style="opacity: 1;"><g class="legendfill"/><g class="legendlines"><path class="js-line" d="M5,0h30" style="fill: none; stroke: rgb(239, 85, 59); stroke-opacity: 1; stroke-width: 2px;"/></g><g class="legendsymbols"><g class="legendpoints"/></g></g><rect class="legendtoggle" x="0" y="-9.5" width="117.265625" height="19" style="fill: rgb(0, 0, 0); fill-opacity: 0;"/></g></g></g><rect class="scrollbar" rx="20" ry="3" width="0" height="0" x="0" y="0" style="fill: rgb(128, 139, 164); fill-opacity: 1;"/></g><g class="g-gtitle"/><g class="g-xtitle"><text class="xtitle" x="296.89" y="287.8" text-anchor="middle" style="font-family: 'Open Sans', verdana, arial, sans-serif; font-size: 14px; fill: rgb(42, 63, 95); opacity: 1; font-weight: normal; white-space: pre;">Iterations</text></g><g class="g-ytitle" transform="translate(1.7998046875,0)"><text class="ytitle" transform="rotate(-90,12.200000000000003,133.5)" x="12.200000000000003" y="133.5" text-anchor="middle" style="font-family: 'Open Sans', verdana, arial, sans-serif; font-size: 14px; fill: rgb(42, 63, 95); opacity: 1; font-weight: normal; white-space: pre;">Cost</text></g><g class="g-y2title"><text class="y2title" transform="rotate(-90,582.471875,133.5)" x="582.471875" y="133.5" text-anchor="middle" style="font-family: 'Open Sans', verdana, arial, sans-serif; font-size: 14px; fill: rgb(42, 63, 95); opacity: 1; font-weight: normal; white-space: pre;">Temperature</text></g></g></svg>