<svg class="main-svg" xmlns="http://www.w3.org/2000/svg" xmlns:xlink="http://www.w3.org/1999/xlink" width="700" height="300" style="" viewBox="0 0 700 300"><rect x="0" y="0" width="700" height="300" style="fill: rgb(255, 255, 255); fill-opacity: 1;"/><defs id="defs-ea77ef"><g class="clips"><clipPath id="clipea77efxyplot" class="plotclip"><rect width="463.41999999999996" height="227"/></clipPath><clipPath id="clipea77efxy2plot" class="plotclip"><rect width="463.41999999999996" height="227"/></clipPath><clipPath class="axesclip" id="clipea77efx"><rect x="62" y="0" width="463.41999999999996" height="300"/></clipPath><clipPath class="axesclip" id="clipea77efy"><rect x="0" y="20" width="700" height="227"/></clipPath><clipPath class="axesclip" id="clipea77efxy"><rect x="62" y="20" width="463.41999999999996" height="227"/></clipPath><clipPath class="axesclip" id="clipea77efy2"><rect x="0" y="20" width="700" height="227"/></clipPath><clipPath class="axesclip" id="clipea77efxy2"><rect x="62" y="20" width="463.41999999999996" height="227"/></clipPath></g><g class="gradients"/><g class="patterns"/></defs><g class="bglayer"><rect class="bg" x="62" y="20" width="463.41999999999996" height="227" style="fill: rgb(229, 236, 246); fill-opacity: 1; stroke-width: 0;"/></g><g class="layer-below"><g class="imagelayer"/><g class="shapelayer"/></g><g class="cartesianlayer"><g class="subplot xy"><g class="layer-subplot"><g class="shapelayer"/><g class="imagelayer"/></g><g class="gridlayer"><g class="x"><path class="xgrid crisp" transform="translate(174.22,0)" d="M0,20v227" style="stroke: rgb(255, 255, 255); stroke-opacity: 1; stroke-width: 1px;"/><path class="xgrid crisp" transform="translate(286.44,0)" d="M0,20v227" style="stroke: rgb(255, 255, 255); stroke-opacity: 1; stroke-width: 1px;"/><path class="xgrid crisp" transform="translate(398.67,0)" d="M0,20v227" style="stroke: rgb(255, 255, 255); stroke-opacity: 1; stroke-width: 1px;"/><path class="xgrid crisp" transform="translate(510.89,0)" d="M0,20v227" style="stroke: rgb(255, 255, 255); stroke-opacity: 1; stroke-width: 1px;"/></g><g class="y"><path class="ygrid crisp" transform="translate(0,236.44)" d="M62,0h463.41999999999996" style="stroke: rgb(255, 255, 255); stroke-opacity: 1; stroke-width: 1px;"/><path class="ygrid crisp" transform="translate(0,145.07999999999998)" d="M62,0h463.41999999999996" style="stroke: rgb(255, 255, 255); stroke-opacity: 1; stroke-width: 1px;"/><path class="ygrid crisp" transform="translate(0,99.4)" d="M62,0h463.41999999999996" style="stroke: rgb(255, 255, 255); stroke-opacity: 1; stroke-width: 1px;"/><path class="ygrid crisp" transform="translate(0,53.72)" d="M62,0h463.41999999999996" style="stroke: rgb(255, 255, 255); stroke-opacity: 1; stroke-width: 1px;"/></g><g class="y2"><path class="y2grid crisp" transform="translate(0,184.61)" d="M62,0h463.41999999999996" style="stroke: rgb(255, 255, 255); stroke-opacity: 1; stroke-width: 1px;"/><path class="y2grid crisp" transform="translate(0,133.53)" d="M62,0h463.41999999999996" style="stroke: rgb(255, 255, 255); stroke-opacity: 1; stroke-width: 1px;"/><path class="y2grid crisp" transform="translate(0,82.44)" d="M62,0h463.41999999999996" style="stroke: rgb(255, 255, 255); stroke-opacity: 1; stroke-width: 1px;"/><path class="y2grid crisp" transform="translate(0,31.35)" d="M62,0h463.41999999999996" style="stroke: rgb(255, 255, 255); stroke-opacity: 1; stroke-width: 1px;"/></g></g><g class="zerolinelayer"><path class="xzl zl crisp" transform="translate(62,0)" d="M0,20v227" style="stroke: rgb(255, 255, 255); stroke-opacity: 1; stroke-width: 2px;"/><path class="yzl zl crisp" transform="translate(0,190.76)" d="M62,0h463.41999999999996" style="stroke: rgb(255, 255, 255); stroke-opacity: 1; stroke-width: 2px;"/><path class="y2zl zl crisp" transform="translate(0,235.7)" d="M62,0h463.41999999999996" style="stroke: rgb(255, 255, 255); stroke-opacity: 1; stroke-width: 2px;"/></g><path class="xlines-below"/><path class="ylines-below"/><g class="overlines-below"><path class="xy2-x"/><path class="xy2-y"/></g><g class="xaxislayer-below"/><g class="yaxislayer-below"/><g class="overaxes-below"><g class="xy2-x"/><g class="xy2-y"/></g><g class="plot" transform="translate(62,20)" clip-path="url(#clipea77efxyplot)"><g class="scatterlayer mlayer"><g class="trace scatter trace09c0c6" style="stroke-miterlimit: 2; opacity: 1;"><g class="fills"/><g class="errorbars"/><g class="lines"><path class="js-line" d="M0,29.22L0.39,20.16L0.56,33.39L0.62,27.06L0.67,24.87L1.01,38.96L1.46,32.86L1.51,27.59L1.63,31.34L1.85,22.26L1.91,19.54L1.96,18.53L2.02,27.16L2.08,32.44L2.13,34.85L2.36,23.12L2.52,29.42L2.58,17.98L3.48,39.95L3.53,33.99L3.65,30.32L3.76,35.07L3.82,21.2L3.87,17.75L4.1,28.03L4.49,21.62L4.54,27.19L5.05,19.13L5.22,28.11L5.27,35.29L5.5,36.31L5.72,25.95L6,28.4L6.06,35.47L6.73,21.66L6.79,29.38L6.85,30.86L7.18,33.15L7.52,18.35L7.74,25.36L7.8,27.81L8.14,23.01L8.42,37.83L8.58,30.85L8.64,27.12L9.2,21.69L9.26,32.14L9.37,31.67L9.43,27.45L9.48,31.27L9.59,18.49L10.1,22.42L10.16,14.53L10.21,11.35L10.44,30.35L10.66,28.96L10.72,28.42L10.83,32.23L11.22,11.64L11.28,16.92L11.33,13.73L11.39,12.78L11.45,17.11L11.5,27.58L11.61,21.13L11.73,25.8L11.78,32.18L12.68,20.47L12.74,23.23L12.79,19.7L12.91,34.77L13.41,27.48L13.47,29.15L13.69,19.94L13.97,33.48L14.2,29.2L14.25,34.52L14.31,34.68L14.36,33.06L14.42,37.33L14.53,41.52L14.81,28.71L14.98,30.66L15.04,40.53L15.54,17.12L15.88,29.77L15.94,30.99L15.99,37.7L16.16,28.6L16.66,35.54L16.72,29.99L16.83,34.54L16.89,28.14L17,28.42L17.06,26.95L17.34,22.48L17.84,35.58L17.9,35.41L17.96,37.15L18.46,37.39L18.68,20.5L18.8,20.58L18.85,26.99L18.91,24.4L19.36,35.23L19.41,33.57L19.47,39.87L19.86,25.73L20.37,28.47L20.42,31.14L20.54,36.53L20.99,26.5L21.04,30.5L21.1,33.11L21.6,31.47L21.94,40.42L22,34.01L22.28,39.42L22.67,29.64L22.78,30.3L22.84,32.98L22.95,31.87L23.01,37.31L23.06,39.53L23.9,23.08L23.96,26.68L24.02,28.25L24.3,18.91L24.69,27.78L24.74,27.45L25.08,34.41L25.31,30.37L25.36,20.3L26.04,36.78L26.2,30.39L26.26,30.1L26.71,35.56L27.1,16.92L27.16,20.78L27.21,24.38L27.49,18.55L28,32.78L28.06,22.92L28.5,19.83L28.73,27.12L28.78,23.45L28.84,24.47L29.01,33.08L29.29,28.93L29.35,24.89L29.51,20.19L29.85,29.62L29.91,30.65L30.02,28.51L30.08,35.41L30.19,36.49L30.58,26.75L30.69,27.39L30.75,22.11L30.8,20.58L31.03,29.62L31.14,28.16L31.2,36.2L31.65,42.65L32.15,21.47L32.21,22.4L32.26,26.1L32.6,31.61L32.82,23.25L32.99,26.04L33.05,27.14L33.44,39.89L33.72,26.7L33.78,28.27L33.83,27.89L34.17,33.86L34.45,22.15L34.51,27.01L34.56,25.66L34.79,21.07L34.9,30.13L35.01,28.14L35.07,34.85L35.35,28.49L35.41,36.49L35.74,29.66L35.8,33.26L36.53,20.01L36.58,22.51L36.64,27.14L37.09,36.04L37.48,30.35L37.54,25.07L37.71,32.07L37.76,28.56L37.82,25.62L38.04,36.68L38.44,25.73L38.49,19.76L39.28,34.21L39.33,28.87L39.39,28.95L39.67,34.79L40.01,26.5L40.12,29.42L40.18,27.9L40.4,39.23L40.85,29.9L40.9,26.9L41.07,30.97L41.19,23.26L41.52,26.61L41.58,33.17L41.63,33.66L41.69,31.87L41.75,26.97L41.86,22.79L42.03,34.65L42.31,29.42L42.36,35.2L42.48,25.46L42.81,37.46L43.09,33.11L43.15,33.81L43.26,38.85L43.71,27.12L43.82,33.66L43.88,30.97L44.16,29.4L44.5,35.74L44.55,33.5L44.61,29.86L44.94,38.37L45.39,34.34L45.45,33.31L45.67,26.46L45.95,38.48L46.12,34.15L46.18,38.19L46.96,24.6L47.02,25.11L47.08,26.24L47.19,20.78L47.25,17.73L47.36,17.85L47.41,17.62L47.47,22.11L48.59,38.21L48.65,32.31L48.98,29.93L49.21,35.69L49.32,32.23L49.38,30.43L49.43,28.76L49.94,34.94L50.05,32.44L50.11,34.39L50.28,32.23L50.61,37.61L50.72,33.68L50.78,30.61L50.89,32.67L51.06,23.26L51.23,26.02L51.29,23.32L51.45,14.66L52.52,43.89L52.58,40.2L52.63,41.3L52.8,35.54L53.14,37.84L53.19,34.15L53.25,31.74L53.7,40.53L53.81,36.77L53.87,38.61L54.32,45.79L54.82,25.93L54.88,34.37L54.93,33.5L55.16,42.07L55.44,36.53L55.49,37.31L55.55,34.56L56.11,41.63L56.17,45.3L56.78,27.39L57.12,29.99L57.18,30.86L57.79,39.64L58.02,35.47L58.07,33.17L58.19,31.61L58.36,39.42L58.69,32.31L58.75,29.62L58.8,31.3L59.08,22.79L59.48,29.24L59.53,30.32L60.32,39.74L60.38,35.74L60.43,36.31L60.6,38.19L60.71,33.79L60.77,29.86L60.94,36L61.22,26.08L61.55,34.19L61.61,32.51L61.78,29.51L62.56,42.56L62.62,40.15L62.9,46.14L63.24,43.97L63.29,36.53L63.69,43.6L64.08,32.78L64.13,34.03L64.42,32.95L64.47,36.46L64.53,39.49L64.81,35.56L64.92,40.48L64.98,33.13L65.14,32.66L65.76,43.84L65.93,41.83L65.99,42.61L66.21,33.99L66.6,40.06L66.66,41.21L66.72,42.69L66.88,34.04L67.11,35.54L67.16,34.04L67.33,30.1L67.45,32.64L67.5,33.44L67.73,41.33L67.95,32.13L68.17,34.08L68.23,31.03L68.34,27.05L68.68,34.56L68.74,38.43L68.85,33.53L69.13,37.46L69.18,39.74L69.63,31.16L69.91,38.56L69.97,39.11L70.08,42.27L70.42,33.5L70.59,38.7L70.64,36.99L70.81,35.74L71.15,45.37L71.49,41.21L71.54,39.2L71.65,35.21L71.93,43.64L72.1,39.03L72.16,35.8L72.33,27.87L72.83,32.25L72.89,38.41L73.79,48.02L73.84,43.66L73.9,40.97L74.07,44.9L74.46,31.03L74.85,35.72L74.91,36.09L75.02,35.89L75.19,43.31L75.41,39.43L75.47,36.24L75.86,30.61L75.92,28.87L76.42,41.26L76.87,39.29L76.93,38.12L77.1,33.37L77.6,40.35L77.66,36.97L77.99,35.93L78.27,42.21L78.33,41.13L78.39,37.48L78.44,34.59L78.84,40.95L79.06,37.52L79.12,39.11L79.17,37.7L79.68,44.39L79.73,43.42L79.85,46.21L80.13,38.21L80.18,36.13L81.08,45.41L81.14,44.29L81.19,44.15L81.53,41.94L81.92,49.12L81.98,46.23L82.03,46.32L82.31,53.63L82.6,40.24L82.65,36.8L82.71,38.61L83.16,31.65L83.27,34.52L83.32,31.12L84,47.71L84.22,37.88L84.28,35.34L84.33,32.53L84.9,38.59L84.95,40.24L85.23,41.9L85.79,29.55L85.85,31.3L85.91,31.67L86.58,46.43L86.92,43.22L86.97,43.91L87.14,40.07L87.36,45.61L87.48,43.8L87.53,37.75L87.87,36.86L88.37,44.48L88.43,44.9L88.77,48.57L89.27,40.55L89.33,41.1L89.61,44.53L90.11,36.49L90.17,36.71L90.23,38.17L90.45,39.78L90.51,42.65L91.01,48.3L91.18,45.56L91.24,41.92L91.29,42.47L91.35,39.8L91.4,35.32L91.57,33.72L91.85,39.31L92.13,36.31L92.19,36.33L92.36,29.62L92.81,37.5L92.86,38.67L92.92,37.61L93.14,45.99L93.2,45.08L93.26,45.94L93.37,38.85L93.54,46.96L94.04,41.92L94.1,37.7L94.88,49.39L95.22,45.61L95.28,41.66L95.84,46.78L95.95,39.82L96.01,41.15L96.06,40.38L96.17,38.01L96.45,46.87L96.51,47.33L97.18,53.08L97.46,51.4L97.52,51.9L97.58,52.48L97.69,47.66L97.75,43.66L97.91,48.1L98.14,40.02L98.25,41.08L98.31,41.33L99.43,48.41L99.54,47.82L99.6,45.98L100.27,33L100.44,36.89L100.49,39.01L100.72,38.56L100.89,41.86L100.94,44.13L101.11,45.52L101.17,42.87L101.22,39.73L101.34,38.9L101.45,41.74L101.62,40.22L101.67,36.91L101.9,40.59L102.01,38.83L102.07,36.82L102.12,33.29L102.68,43.97L102.74,44.42L102.91,42.05L103.41,48.92L103.47,50.47L104.31,42.34L104.37,42.52L104.42,43.89L104.65,41.21L104.93,45.54L105.15,44.17L105.21,43.27L106.11,51.27L106.16,49.52L106.22,47.25L106.39,44.33L107.06,54.89L107.12,52.11L107.51,53.61L107.68,50.29L107.73,48.64L107.96,51.02L108.07,48.52L108.18,50.47L108.24,46.49L109.3,56.63L109.42,54.55L109.47,50.23L109.98,57.07L110.31,56.98L110.37,54.05L110.43,51.66L110.59,55.75L111.1,53.07L111.16,53.87L111.21,54.6L111.32,48.72L111.72,52.74L111.77,49.78L111.94,47.73L112.22,51.99L112.28,54.75L112.45,53.5L112.9,58.14L113.01,55.29L113.06,53.32L113.12,52.83L113.29,55.97L113.51,55.55L113.57,56.08L113.62,57.14L113.91,53.61L113.96,53.63L114.02,49.26L114.3,52.74L114.47,46.65L114.52,46.74L114.58,45.5L114.97,51.66L115.03,53.19L115.14,56.96L115.25,52.04L115.59,52.5L115.64,48.72L115.87,48.02L116.15,50.14L116.21,52.02L116.49,54.87L116.54,56.03L116.71,59.48L116.82,54.12L117.22,55.51L117.27,55.48L117.66,56.68L118,51.46L118.11,52.54L118.17,51.35L118.28,51.29L118.45,51.62L118.51,47.71L118.79,48.94L118.9,44.02L119.07,46.41L119.12,44.88L119.29,43.18L120.69,61.01L120.75,61.25L121.03,65.11L121.09,65.8L121.2,66.51L121.42,64.49L121.48,62.46L121.59,61.14L122.04,64.21L122.15,62.82L122.21,61.01L122.27,61.63L122.32,57.08L122.43,57.89L122.49,55.06L122.6,55.44L122.66,51.95L122.71,53.1L122.77,47.62L123.72,55.64L123.78,53.12L123.84,50L123.89,48.94L124.23,57.41L124.29,58.46L124.51,59.72L124.79,49.76L125.18,51.31L125.24,53.03L126.08,59.83L126.14,57.52L126.19,55.02L126.31,54.2L126.81,60.05L126.98,57.45L127.04,57.69L127.2,58.88L127.26,56.35L127.32,53.89L127.6,52.7L127.93,57.58L128.05,55.84L128.1,53.96L128.16,53.03L128.49,58.86L128.61,56.68L128.66,57.69L128.77,58.38L128.89,53.03L129,54.89L129.06,50.8L129.11,48.24L129.62,58.11L129.67,58.99L129.9,64.92L130.46,61.09L130.51,61.36L130.57,59.61L131.13,63.94L131.19,65.16L131.75,68.45L131.86,63.63L131.92,63.02L132.81,70.19L133.04,67.65L133.1,65.93L133.26,64.96L133.54,69.51L133.66,65.73L133.71,64.25L134.05,67.43L134.11,63.43L134.33,65.07L134.39,63.39L134.61,61.95L135.4,69.29L135.45,65.98L135.62,67.76L135.68,66.09L135.73,63.19L135.96,58.58L136.18,62.64L136.24,62.68L136.29,60.94L136.85,66.11L136.91,66.62L137.02,66.92L137.14,64.47L137.3,66.81L137.36,64.01L138.26,69.25L138.31,67.06L138.43,67.63L138.54,63.61L138.59,64.3L138.65,62.4L138.99,57.63L139.32,60.37L139.38,61.95L139.49,58.47L139.88,63.37L139.94,63.96L140.22,65.98L140.28,62.18L140.45,61.65L141.23,68.8L141.34,65.4L141.4,63.77L141.51,64.67L141.74,61.58L141.96,62.2L142.02,60.78L143.08,69.89L143.14,69.33L143.2,66.26L144.32,72.91L144.37,73.02L144.43,73.2L144.49,70.59L144.65,71.39L144.71,69.44L144.77,70.83L144.82,69.09L145.05,71.17L145.38,65.78L145.61,68.38L145.66,69.02L145.72,70.22L145.89,66.62L146.34,67.72L146.39,68.49L148.02,54.69L148.08,57.01L148.19,54.51L148.69,60.56L148.75,60.59L148.92,59.9L149.31,64.58L149.37,65.42L150.21,60.92L150.27,61.12L150.49,64.43L150.55,64.8L150.83,65.75L150.88,63.3L150.94,63.37L152.51,75.58L152.68,73.95L152.73,69.97L153.13,68.05L153.46,72.01L153.52,70.7L154.25,74.96L154.31,71.37L154.36,72.82L154.59,69.25L155.03,71.06L155.09,71.21L155.2,71.89L155.37,69.25L155.43,69.53L155.48,66.7L156.32,74.9L156.55,72.87L156.61,72.27L156.94,72.32L157.39,65.86L157.45,68.45L157.5,69.24L157.9,72.36L158.12,67.24L158.29,70.24L158.34,70.5L158.4,71.94L158.63,67.79L158.96,70.51L159.02,67.63L159.52,70.68L159.8,69.51L159.86,66.77L160.25,75.39L160.76,71.03L160.81,71.12L161.32,75.23L161.6,74.9L161.66,73.33L161.88,73.05L162.16,75.3L162.22,76.69L163.84,83.73L163.9,82.28L164.46,82.15L164.8,84.51L164.85,83.23L165.02,84.2L165.08,80.14L165.13,80.29L165.19,79.56L165.41,80.78L165.47,79.83L165.53,78.02L165.81,78.48L165.98,73.26L166.31,76.18L166.37,77.11L166.99,82.06L167.38,80.56L167.43,79.5L168.11,82.39L168.39,82.15L168.44,78.77L168.67,79.67L168.73,76.49L169.01,77.04L169.06,76.11L169.12,76.16L169.17,74.37L170.02,77.55L170.35,77.11L170.41,77.22L170.52,77.57L170.58,74.11L170.8,67.52L171.36,71.39L171.42,72.2L173.1,81.17L173.16,79.74L173.33,80.51L173.44,78.72L173.49,76.42L174.56,82.39L174.79,81.08L174.84,78.34L176.69,91.73L176.75,89.61L177.03,90.38L177.09,88.29L177.82,84L178.04,84.4L178.1,84.82L178.21,84.6L179.11,88.6L179.33,88.31L179.39,85.44L179.84,87.54L179.89,86.01L180.28,88.66L180.51,87.98L180.56,85.42L181.97,91.88L182.02,88.95L182.08,89.15L182.14,85.9L182.47,88L182.7,86.14L182.75,83.58L183.48,86.38L183.65,86.03L183.71,83.27L185.11,87.86L185.17,87.89L185.28,89.34L185.45,86.39L185.95,88.57L186.01,88.79L186.46,91.73L186.79,89.87L186.85,88.15L187.52,90.63L187.58,88.35L187.63,88.46L188.53,91.53L188.64,90.56L188.7,88.48L189.88,92.44L189.94,90.85L190.44,87.96L190.72,90.18L190.78,90.36L190.95,88.77L192.01,94.16L192.07,92.75L192.52,92.15L193.13,95.49L193.19,93.88L193.41,93.03L193.81,94.51L193.86,92.99L194.42,94.6L194.48,92.31L194.54,92.46L194.59,92.53L194.76,88.06L195.32,93.23L195.38,93.43L195.55,92.84L196.39,95.95L196.5,95.82L196.56,96L197.96,103L198.02,103.7L198.63,105.8L198.86,105.14L198.91,104.1L199.14,104.76L199.31,102.47L199.53,103.53L199.59,104.03L199.92,104.65L199.98,102.47L200.6,99.37L200.88,100.74L200.93,100.74L200.99,100.88L201.05,98.42L201.44,96.57L201.72,99.07L201.83,97.76L201.89,98.2L203.07,103L203.12,102.42L203.46,102.2L204.36,107.72L204.47,106.47L204.52,106.58L204.64,107.1L204.75,105.23L204.92,105.74L204.97,104.72L205.37,106.55L205.42,103.68L205.65,105.2L205.76,101.19L206.04,102.22L206.1,102.22L206.71,104.15L206.77,102.42L207.33,104.87L207.39,105.29L207.5,105.8L207.55,104.06L207.61,102.69L207.89,102.64L208.56,104.87L208.62,103.06L208.96,104.23L209.01,105.78L209.52,106.75L209.57,104.37L209.63,103L209.85,99.9L210.42,101.85L210.47,101.98L211.2,105.63L211.54,104.3L211.59,104.46L211.76,103.68L212.55,106.26L212.83,105.74L212.88,102.97L213.28,105.03L213.73,104.3L213.78,104.52L214.06,105.54L214.12,103.4L214.68,103.04L215.41,107.53L215.47,106.11L215.58,105.18L216.14,106.51L216.2,104.48L216.31,104.25L216.7,105.78L216.92,104.26L216.98,104.3L217.26,103.62L220.29,115.7L220.35,114.59L221.41,117.22L221.47,115.3L222.37,117.78L222.42,117.97L222.59,118.37L222.65,117.38L222.7,117.46L222.76,116.34L223.27,117.36L223.32,115.81L223.66,117.2L223.71,117.2L224.22,119.3L224.28,119.45L224.56,118.68L225.17,121.84L225.23,121.84L225.68,123.45L225.73,121.35L225.9,120.67L226.41,122.04L226.46,122.28L226.63,122.75L226.69,120.45L228.2,123.85L228.26,123.91L228.88,125.61L229.21,125.28L229.27,125.28L229.77,126.39L229.83,126.88L230.39,127.76L230.45,126.19L230.56,126.48L230.62,124.93L230.78,125.22L230.84,124.36L230.95,125.2L231.06,123.07L231.57,124.62L231.63,124.62L231.96,123.87L232.58,125.24L232.64,125.24L233.42,127.19L233.65,126.46L233.7,125.71L233.98,125.97L234.04,124.75L234.99,126.63L235.05,126.68L235.39,127.32L235.44,125.95L235.67,126.37L235.72,123.87L236.34,124.71L236.4,124.78L237.29,128.11L237.35,126.79L238.08,128.93L238.13,127.34L238.42,125.9L238.86,126.79L238.92,126.83L239.09,127.4L239.14,124.95L239.76,125.95L239.82,126.59L242.06,132.91L242.12,132.91L243.02,134.39L243.07,133.15L243.24,133.5L243.3,131.87L243.41,131.87L243.47,131.87L243.69,132.29L243.75,130.37L244.08,130.9L244.14,130.96L244.36,129.72L244.7,131.51L244.76,131.62L245.99,133.74L246.05,132.88L246.78,133.59L246.83,131.54L246.94,131.29L248.01,134.08L248.07,132.24L248.23,133.22L248.57,131.12L248.74,131.38L248.8,131.4L249.81,132.79L249.86,132.79L250.82,134.6L251.04,134.52L251.1,134.52L252.33,136.15L252.39,134.96L253.85,138.14L253.9,136.24L255.81,139.55L255.87,138.67L256.6,139.93L256.65,140.5L256.88,140.72L256.93,139.27L256.99,138.14L257.66,138.91L257.72,138.91L258.67,140.92L258.73,139.78L258.78,139.86L258.84,139.66L259.06,140.64L259.29,140.64L259.34,140.7L260.13,143.68L260.19,143.88L261.31,145.49L261.36,144.04L263.33,145.47L263.38,145.63L264.51,147.48L264.56,147.53L265.4,148.01L265.46,146.62L266.58,148.1L266.64,146.45L267.2,147.13L267.26,147.4L268.55,149.19L268.6,149.29L269.39,149.96L269.44,150.25L269.78,150.89L269.84,151.28L270.29,151.81L270.74,151.42L270.79,151.42L271.41,152.08L271.46,150.75L272.92,152.41L272.98,151.48L274.16,153.21L274.21,153.21L275.45,154.71L275.5,154.71L276.68,155.68L276.74,155.79L280.78,160.27L280.84,160.27L284.43,163.36L284.48,163.36L286.61,165.73L286.67,165.73L291.16,169.79L291.22,169.79L292.28,171.25L292.34,171.34L294.81,172.84L294.86,172.86L295.7,173.08L295.76,173.09L298.01,173.75L298.06,173.92L300.75,175.58L300.81,175.78L302.66,176.73L302.72,176.73L304.68,177.44L304.74,177.75L306.42,178.47L306.48,178.47L309.28,179.2L309.34,179.27L312.82,179.96L312.87,180.09L313.83,180.46L313.88,180.46L317.48,182.49L317.53,182.49L319.5,183.13L319.55,183.25L320.51,183.73L320.56,183.73L325.61,185.68L325.67,186.12L327.97,186.82L328.02,187L330.94,187.75L331,187.8L333.41,188.55L333.47,188.79L334.81,189.47L334.87,189.59L337.73,190.34L337.79,190.38L339.13,191.13L339.19,191.33L342.11,192.02L342.16,192.1L345.59,192.83L345.64,192.83L346.54,193.58L346.6,193.58L350.02,194.31L350.08,194.36L350.92,194.64L350.97,194.64L353.72,195.82L353.78,195.82L355.07,196.08L355.13,196.1L356.75,196.63L356.81,196.63L359.45,197.23L359.5,197.41L361.13,198.02L361.19,198.02L362.7,198.77L362.76,198.77L368.48,200.5L368.54,200.63L370.95,201.31L371.01,201.43L375.16,202.18L375.21,202.2L380.88,203.5L380.94,203.65L384.53,204.39L384.58,204.43L388.51,205.14L388.57,205.33L392.33,206.22L392.38,206.22L393.34,206.97L393.39,206.97L395.53,207.65L395.58,207.98L404.11,208.71L404.17,208.8L412.25,209.49L412.3,209.57L419.65,210.3L419.71,210.37L421.56,210.86L421.62,210.86L429.19,211.61L429.25,211.76L434.58,212.47L434.64,212.53L447.15,214.15L447.2,214.15L456.35,214.86L456.41,214.94L463.42,215.65" style="vector-effect: non-scaling-stroke; fill: none; stroke: rgb(99, 110, 250); stroke-opacity: 1; stroke-width: 2px; opacity: 1;"/></g><g class="points"/><g class="text"/></g></g></g><g class="overplot"><g class="xy2" transform="translate(62,20)" clip-path="url(#clipea77efxy2plot)"><g class="scatterlayer mlayer"><g class="trace scatter trace35e99c" style="stroke-miterlimit: 2; opacity: 1;"><g class="fills"/><g class="errorbars"/><g class="lines"><path class="js-line" d="M0,11.35L14.59,58.16L14.64,58.31L27.21,89.91L27.27,90.04L36.36,108.84L36.42,108.95L46.24,126.1L46.29,126.19L58.36,143.51L58.41,143.58L66.21,152.95L66.27,153.01L78.61,165.4L78.67,165.45L91.18,175.5L91.24,175.54L101.22,182.09L101.28,182.12L115.64,189.71L115.7,189.74L137.81,198.2L137.86,198.21L149.14,201.4L149.2,201.41L161.26,204.18L161.32,204.19L193.25,209.19L193.3,209.19L221.64,211.78L221.69,211.78L273.77,214.15L273.82,214.15L294.92,214.64L294.98,214.64L364.44,215.39L364.5,215.4L463.42,215.65" style="vector-effect: non-scaling-stroke; fill: none; stroke: rgb(239, 85, 59); stroke-opacity: 1; stroke-width: 2px; opacity: 1;"/></g><g class="points"/><g class="text"/></g></g></g></g><path class="xlines-above crisp" d="M0,0" style="fill: none;"/><path class="ylines-above crisp" d="M0,0" style="fill: none;"/><g class="overlines-above"><path class="xy2-x crisp" d="M0,0" style="fill: none;"/><path class="xy2-y crisp" d="M0,0" style="fill: none;"/></g><g class="xaxislayer-above"><g class="xtick"><text text-anchor="middle" x="0" y="260" transform="translate(62,0)" style="font-family: 'Open Sans', verdana, arial, sans-serif; font-size: 12px; fill: rgb(42, 63, 95); fill-opacity: 1; white-space: pre; opacity: 1;">0</text></g><g class="xtick"><text text-anchor="middle" x="0" y="260" style="font-family: 'Open Sans', verdana, arial, sans-serif; font-size: 12px; fill: rgb(42, 63, 95); fill-opacity: 1; white-space: pre; opacity: 1;" transform="translate(174.22,0)">2000</text></g><g class="xtick"><text text-anchor="middle" x="0" y="260" style="font-family: 'Open Sans', verdana, arial, sans-serif; font-size: 12px; fill: rgb(42, 63, 95); fill-opacity: 1; white-space: pre; opacity: 1;" transform="translate(286.44,0)">4000</text></g><g class="xtick"><text text-anchor="middle" x="0" y="260" style="font-family: 'Open Sans', verdana, arial, sans-serif; font-size: 12px; fill: rgb(42, 63, 95); fill-opacity: 1; white-space: pre; opacity: 1;" transform="translate(398.67,0)">6000</text></g><g class="xtick"><text text-anchor="middle" x="0" y="260" style="font-family: 'Open Sans', verdana, arial, sans-serif; font-size: 12px; fill: rgb(42, 63, 95); fill-opacity: 1; white-space: pre; opacity: 1;" transform="translate(510.89,0)">8000</text></g></g><g class="yaxislayer-above"><g class="ytick"><text text-anchor="end" x="61" y="4.199999999999999" transform="translate(0,236.44)" style="font-family: 'Open Sans', verdana, arial, sans-serif; font-size: 12px; fill: rgb(42, 63, 95); fill-opacity: 1; white-space: pre; opacity: 1;">−5k</text></g><g class="ytick"><text text-anchor="end" x="61" y="4.199999999999999" style="font-family: 'Open Sans', verdana, arial, sans-serif; font-size: 12px; fill: rgb(42, 63, 95); fill-opacity: 1; white-space: pre; opacity: 1;" transform="translate(0,190.76)">0</text></g><g class="ytick"><text text-anchor="end" x="61" y="4.199999999999999" style="font-family: 'Open Sans', verdana, arial, sans-serif; font-size: 12px; fill: rgb(42, 63, 95); fill-opacity: 1; white-space: pre; opacity: 1;" transform="translate(0,145.07999999999998)">5k</text></g><g class="ytick"><text text-anchor="end" x="61" y="4.199999999999999" style="font-family: 'Open Sans', verdana, arial, sans-serif; font-size: 12px; fill: rgb(42, 63, 95); fill-opacity: 1; white-space: pre; opacity: 1;" transform="translate(0,99.4)">10k</text></g><g class="ytick"><text text-anchor="end" x="61" y="4.199999999999999" style="font-family: 'Open Sans', verdana, arial, sans-serif; font-size: 12px; fill: rgb(42, 63, 95); fill-opacity: 1; white-space: pre; opacity: 1;" transform="translate(0,53.72)">15k</text></g></g><g class="overaxes-above"><g class="xy2-x"/><g class="xy2-y"><g class="y2tick"><text text-anchor="start" x="526.42" y="4.199999999999999" transform="translate(0,235.7)" style="font-family: 'Open Sans', verdana, arial, sans-serif; font-size: 12px; fill: rgb(42, 63, 95); fill-opacity: 1; white-space: pre; opacity: 1;">0</text></g><g class="y2tick"><text text-anchor="start" x="526.42" y="4.199999999999999" style="font-family: 'Open Sans', verdana, arial, sans-serif; font-size: 12px; fill: rgb(42, 63, 95); fill-opacity: 1; white-space: pre; opacity: 1;" transform="translate(0,184.61)">500</text></g><g class="y2tick"><text text-anchor="start" x="526.42" y="4.199999999999999" style="font-family: 'Open Sans', verdana, arial, sans-serif; font-size: 12px; fill: rgb(42, 63, 95); fill-opacity: 1; white-space: pre; opacity: 1;" transform="translate(0,133.53)">1000</text></g><g class="y2tick"><text text-anchor="start" x="526.42" y="4.199999999999999" style="font-family: 'Open Sans', verdana, arial, sans-serif; font-size: 12px; fill: rgb(42, 63, 95); fill-opacity: 1; white-space: pre; opacity: 1;" transform="translate(0,82.44)">1500</text></g><g class="y2tick"><text text-anchor="start" x="526.42" y="4.199999999999999" style="font-family: 'Open Sans', verdana, arial, sans-serif; font-size: 12px; fill: rgb(42, 63, 95); fill-opacity: 1; white-space: pre; opacity: 1;" transform="translate(0,31.35)">2000</text></g></g></g></g><g class="subplot xy2"/></g><g class="polarlayer"/><g class="smithlayer"/><g class="ternarylayer"/><g class="geolayer"/><g class="funnelarealayer"/><g class="pielayer"/><g class="iciclelayer"/><g class="treemaplayer"/><g class="sunburstlayer"/><g class="glimages"/><defs id="topdefs-ea77ef"><g class="clips"/><clipPath id="legendea77ef"><rect width="123" height="48" x="0" y="0"/></clipPath></defs><g class="layer-above"><g class="imagelayer"/><g class="shapelayer"/></g><g class="infolayer"><g class="legend" pointer-events="all" transform="translate(564.86,20)"><rect class="bg" shape-rendering="crispEdges" width="123" height="48" x="0" y="0" style="stroke: rgb(68, 68, 68); stroke-opacity: 1; fill: rgb(255, 255, 255); fill-opacity: 1; stroke-width: 0px;"/><g class="scrollbox" transform="" clip-path="url(#legendea77ef)"><g class="groups"><g class="traces" transform="translate(0,14.5)" style="opacity: 1;"><text class="legendtext" text-anchor="start" x="40" y="4.680000000000001" style="font-family: 'Open Sans', verdana, arial, sans-serif; font-size: 12px; fill: rgb(42, 63, 95); fill-opacity: 1; white-space: pre;">Cost</text><g class="layers" style="opacity: 1;"><g class="legendfill"/><g class="legendlines"><path class="js-line" d="M5,0h30" style="fill: none; stroke: rgb(99, 110, 250); stroke-opacity: 1; stroke-width: 2px;"/></g><g class="legendsymbols"><g class="legendpoints"/></g></g><rect class="legendtoggle" x="0" y="-9.5" width="117.265625" height="19" style="fill: rgb(0, 0, 0); fill-opacity: 0;"/></g><g class="traces" transform="translate(0,33.5)" style="opacity: 1;"><text class="legendtext" text-anchor="start" x="40" y="4.680000000000001" style="font-family: 'Open Sans', verdana, arial, sans-serif; font-size: 12px; fill: rgb(42, 63, 95); fill-opacity: 1; white-space: pre;">Temperature</text><g class="layers" style="opacity: 1;"><g class="legendfill"/><g class="legendlines"><path class="js-line" d="M5,0h30" style="fill: none; stroke: rgb(239, 85, 59); stroke-opacity: 1; stroke-width: 2px;"/></g><g class="legendsymbols"><g class="legendpoints"/></g></g><rect class="legendtoggle" x="0" y="-9.5" width="117.265625" height="19" style="fill: rgb(0, 0, 0); fill-opacity: 0;"/></g></g></g><rect class="scrollbar" rx="20" ry="3" width="0" height="0" x="0" y="0" style="fill: rgb(128, 139, 164); fill-opacity: 1;"/></g><g class="g-gtitle"/><g class="g-xtitle"><text class="xtitle" x="293.71" y="287.8" text-anchor="middle" style="font-family: 'Open Sans', verdana, arial, sans-serif; font-size: 14px; fill: rgb(42, 63, 95); opacity: 1; font-weight: normal; white-space: pre;">Iterations</text></g><g class="g-ytitle" transform="translate(2.3623046875,0)"><text class="ytitle" transform="rotate(-90,11.637500000000003,133.5)" x="11.637500000000003" y="133.5" text-anchor="middle" style="font-family: 'Open Sans', verdana, arial, sans-serif; font-size: 14px; fill: rgb(42, 63, 95); opacity: 1; font-weight: normal; white-space: pre;">Cost</text></g><g class="g-y2title"><text class="y2title" transform="rotate(-90,582.1125,133.5)" x="582.1125" y="133.5" text-anchor="middle" style="font-family: 'Open Sans', verdana, arial, sans-serif; font-size: 14px; fill: rgb(42, 63, 95); opacity: 1; font-weight: normal; white-space: pre;">Temperature</text></g></g></svg>