<svg class="main-svg" xmlns="http://www.w3.org/2000/svg" xmlns:xlink="http://www.w3.org/1999/xlink" width="700" height="300" style="" viewBox="0 0 700 300"><rect x="0" y="0" width="700" height="300" style="fill: rgb(255, 255, 255); fill-opacity: 1;"/><defs id="defs-867ccf"><g class="clips"><clipPath id="clip867ccfxyplot" class="plotclip"><rect width="465.29999999999995" height="227"/></clipPath><clipPath id="clip867ccfxy2plot" class="plotclip"><rect width="465.29999999999995" height="227"/></clipPath><clipPath class="axesclip" id="clip867ccfx"><rect x="60" y="0" width="465.29999999999995" height="300"/></clipPath><clipPath class="axesclip" id="clip867ccfy"><rect x="0" y="20" width="700" height="227"/></clipPath><clipPath class="axesclip" id="clip867ccfxy"><rect x="60" y="20" width="465.29999999999995" height="227"/></clipPath><clipPath class="axesclip" id="clip867ccfy2"><rect x="0" y="20" width="700" height="227"/></clipPath><clipPath class="axesclip" id="clip867ccfxy2"><rect x="60" y="20" width="465.29999999999995" height="227"/></clipPath></g><g class="gradients"/><g class="patterns"/></defs><g class="bglayer"><rect class="bg" x="60" y="20" width="465.29999999999995" height="227" style="fill: rgb(229, 236, 246); fill-opacity: 1; stroke-width: 0;"/></g><g class="layer-below"><g class="imagelayer"/><g class="shapelayer"/></g><g class="cartesianlayer"><g class="subplot xy"><g class="layer-subplot"><g class="shapelayer"/><g class="imagelayer"/></g><g class="gridlayer"><g class="x"><path class="xgrid crisp" transform="translate(172.68,0)" d="M0,20v227" style="stroke: rgb(255, 255, 255); stroke-opacity: 1; stroke-width: 1px;"/><path class="xgrid crisp" transform="translate(285.35,0)" d="M0,20v227" style="stroke: rgb(255, 255, 255); stroke-opacity: 1; stroke-width: 1px;"/><path class="xgrid crisp" transform="translate(398.03,0)" d="M0,20v227" style="stroke: rgb(255, 255, 255); stroke-opacity: 1; stroke-width: 1px;"/><path class="xgrid crisp" transform="translate(510.71,0)" d="M0,20v227" style="stroke: rgb(255, 255, 255); stroke-opacity: 1; stroke-width: 1px;"/></g><g class="y"><path class="ygrid crisp" transform="translate(0,238.45)" d="M60,0h465.29999999999995" style="stroke: rgb(255, 255, 255); stroke-opacity: 1; stroke-width: 1px;"/><path class="ygrid crisp" transform="translate(0,202.53)" d="M60,0h465.29999999999995" style="stroke: rgb(255, 255, 255); stroke-opacity: 1; stroke-width: 1px;"/><path class="ygrid crisp" transform="translate(0,166.62)" d="M60,0h465.29999999999995" style="stroke: rgb(255, 255, 255); stroke-opacity: 1; stroke-width: 1px;"/><path class="ygrid crisp" transform="translate(0,130.7)" d="M60,0h465.29999999999995" style="stroke: rgb(255, 255, 255); stroke-opacity: 1; stroke-width: 1px;"/><path class="ygrid crisp" transform="translate(0,94.78)" d="M60,0h465.29999999999995" style="stroke: rgb(255, 255, 255); stroke-opacity: 1; stroke-width: 1px;"/><path class="ygrid crisp" transform="translate(0,58.86)" d="M60,0h465.29999999999995" style="stroke: rgb(255, 255, 255); stroke-opacity: 1; stroke-width: 1px;"/><path class="ygrid crisp" transform="translate(0,22.95)" d="M60,0h465.29999999999995" style="stroke: rgb(255, 255, 255); stroke-opacity: 1; stroke-width: 1px;"/></g><g class="y2"><path class="y2grid crisp" transform="translate(0,184.61)" d="M60,0h465.29999999999995" style="stroke: rgb(255, 255, 255); stroke-opacity: 1; stroke-width: 1px;"/><path class="y2grid crisp" transform="translate(0,133.53)" d="M60,0h465.29999999999995" style="stroke: rgb(255, 255, 255); stroke-opacity: 1; stroke-width: 1px;"/><path class="y2grid crisp" transform="translate(0,82.44)" d="M60,0h465.29999999999995" style="stroke: rgb(255, 255, 255); stroke-opacity: 1; stroke-width: 1px;"/><path class="y2grid crisp" transform="translate(0,31.35)" d="M60,0h465.29999999999995" style="stroke: rgb(255, 255, 255); stroke-opacity: 1; stroke-width: 1px;"/></g></g><g class="zerolinelayer"><path class="xzl zl crisp" transform="translate(60,0)" d="M0,20v227" style="stroke: rgb(255, 255, 255); stroke-opacity: 1; stroke-width: 2px;"/><path class="y2zl zl crisp" transform="translate(0,235.7)" d="M60,0h465.29999999999995" style="stroke: rgb(255, 255, 255); stroke-opacity: 1; stroke-width: 2px;"/></g><path class="xlines-below"/><path class="ylines-below"/><g class="overlines-below"><path class="xy2-x"/><path class="xy2-y"/></g><g class="xaxislayer-below"/><g class="yaxislayer-below"/><g class="overaxes-below"><g class="xy2-x"/><g class="xy2-y"/></g><g class="plot" transform="translate(60,20)" clip-path="url(#clip867ccfxyplot)"><g class="scatterlayer mlayer"><g class="trace scatter trace24bec2" style="stroke-miterlimit: 2; opacity: 1;"><g class="fills"/><g class="errorbars"/><g class="lines"><path class="js-line" d="M0,18.82L0.11,11.35L0.45,22.92L0.51,25.57L1.13,17.6L1.24,20.98L1.3,21.98L1.63,25.07L2.08,16.67L2.14,16.74L2.48,21.62L2.82,17.89L2.87,14.87L2.99,16.95L3.04,19.11L3.1,15.37L3.32,24.93L3.77,19.83L3.83,20.47L4.17,12.43L4.34,24.5L4.39,28.66L5.07,16.81L5.18,19.54L5.24,20.47L5.58,15.66L5.75,22.27L5.8,23.92L5.86,28.02L6.37,17.89L6.42,15.01L6.87,28.52L7.21,19.9L7.27,19.68L7.66,18.68L7.94,30.03L8.06,24.35L8.11,18.96L8.28,22.84L8.45,14.73L8.85,18.96L8.9,17.31L9.07,14.87L9.35,30.46L9.75,22.34L9.8,17.38L9.92,19.18L10.08,13.79L10.25,18.03L10.31,21.05L10.7,29.17L10.93,23.42L10.99,18.17L11.1,15.52L11.32,22.2L11.49,19.9L11.55,16.02L11.83,13.79L12.39,24.86L12.45,22.63L12.56,22.7L12.79,14.51L13.13,19.47L13.18,20.33L13.41,12.43L13.69,22.7L13.75,21.91L13.8,22.27L14.7,14.73L14.76,18.32L15.16,17.67L15.44,23.13L15.49,20.62L15.55,20.62L15.66,19.11L15.72,16.88L16.51,23.2L16.56,17.6L16.68,19.68L17.01,14.87L17.13,17.38L17.18,21.12L17.52,24.71L17.8,19.54L17.86,17.82L17.92,16.52L18.42,21.19L18.48,24.78L19.32,14.08L19.44,18.46L19.49,19.83L19.77,15.73L20.06,23.06L20.11,26.22L20.79,17.74L20.96,19.54L21.01,22.56L21.13,20.76L21.3,27.08L21.63,21.62L21.69,20.54L22.03,16.31L22.2,23.2L22.25,23.42L22.54,16.81L23.1,17.6L23.16,17.46L23.49,16.02L23.72,24.93L23.89,20.4L23.94,18.46L24.68,25.21L24.73,22.84L24.79,21.41L24.9,24.21L24.96,22.27L25.01,18.89L25.41,18.75L25.69,23.99L25.86,23.78L25.92,23.63L25.97,18.89L26.42,27.37L26.65,24.06L26.7,22.48L26.82,18.46L26.99,22.41L27.04,24.21L27.44,15.66L27.77,20.26L27.83,25.14L27.89,27.08L28.23,18.25L28.39,19.97L28.45,16.67L28.56,18.25L28.96,12.71L29.01,13.15L29.07,13.36L29.8,28.09L29.97,22.2L30.03,22.2L30.2,13.36L30.48,23.85L30.7,22.56L30.76,21.41L31.1,18.68L31.38,24.35L31.44,24.14L31.49,20.54L31.72,14.3L31.94,26.51L32,29.17L32.79,16.02L32.9,17.67L32.96,15.23L33.01,15.44L33.07,20.04L33.18,16.31L33.63,22.2L33.69,21.41L33.75,23.92L34.54,16.16L34.59,17.46L35.1,25.65L35.27,23.99L35.32,19.54L35.77,25L36,20.83L36.06,18.46L36.17,15.23L36.68,22.92L36.73,22.92L36.85,24.93L37.24,17.6L37.41,24.57L37.47,25.21L37.97,30.75L38.31,18.46L38.37,19.11L38.42,18.61L38.65,24.71L39.1,18.25L39.16,16.38L39.27,14.37L39.32,16.45L39.38,19.47L39.66,17.17L39.89,21.84L39.94,24.57L40.17,19.32L40.28,24.64L40.56,23.2L40.62,30.46L40.68,31.75L40.79,25.21L41.01,25.72L41.07,23.99L41.18,24.42L41.24,22.84L41.3,24.28L41.35,25.29L41.52,27.87L41.86,17.46L42.31,20.47L42.37,23.85L42.59,15.8L42.87,26.08L43.1,22.92L43.16,22.99L43.27,27.66L43.55,25.36L43.61,22.48L43.78,16.45L44.34,19.97L44.39,20.62L44.73,25.86L44.9,20.04L45.18,22.13L45.24,23.42L45.41,21.91L45.52,24.78L45.92,23.78L45.97,24.71L46.2,21.48L46.54,26.44L46.65,24.93L46.7,19.47L46.87,21.48L47.16,16.09L47.21,19.47L47.27,22.92L47.32,20.62L47.72,29.45L47.94,25.43L48,24.42L48.17,19.25L48.62,21.69L48.68,23.63L48.96,26.08L49.24,13.65L49.47,17.1L49.52,18.03L49.63,21.19L49.8,19.68L49.86,17.24L50.14,21.91L50.31,13.07L50.48,18.46L50.54,20.04L50.76,19.11L51.27,25.14L51.32,23.35L51.38,21.98L52.11,28.95L52.23,26.79L52.28,25.93L52.34,25.21L52.51,31.97L52.62,29.81L52.68,30.96L52.73,31.68L52.96,25L53.07,25.79L53.13,26.51L53.24,20.26L53.92,20.9L53.97,22.27L54.03,24.5L54.42,18.82L54.7,22.48L54.76,23.56L54.93,25.43L55.49,19.47L55.55,21.69L55.61,22.7L55.78,20.69L55.89,25.36L55.94,28.16L56.17,32.25L56.56,28.45L56.62,26.44L57.13,19.25L57.41,20.9L57.47,22.56L57.69,21.91L58.03,26.94L58.14,23.63L58.2,21.62L58.99,28.66L59.04,25.79L59.1,22.41L59.27,20.19L59.61,24.93L59.78,24.14L59.83,26.87L59.89,29.02L60.17,21.34L60.39,23.06L60.45,21.91L60.62,24.86L61.07,19.11L61.13,18.39L61.24,13.94L61.63,24.64L61.69,26L61.97,22.99L62.25,28.88L62.37,28.73L62.42,24.14L62.48,22.05L62.93,30.46L62.99,28.52L63.04,28.95L63.16,29.38L63.21,27.44L63.27,30.96L63.32,35.06L63.89,21.69L63.94,24.71L64,26.72L64.06,27.01L64.11,25.93L64.17,26.44L64.23,22.84L64.62,26.87L64.96,23.99L65.01,21.62L65.18,19.4L65.58,26.65L65.63,27.87L66.14,25.86L66.31,29.96L66.37,30.03L66.59,26.15L66.76,30.89L66.87,28.23L66.93,25.21L67.44,25.72L67.78,20.69L67.83,20.4L68.85,30.75L68.9,28.73L69.07,29.45L69.18,25.21L69.58,29.17L69.63,30.31L69.92,31.97L70.03,28.16L70.09,28.23L70.14,25.43L70.7,27.94L70.76,24.78L70.82,23.13L71.49,29.45L71.78,27.8L71.83,27.58L72.11,21.05L72.62,24.5L72.68,26.51L73.13,31.18L73.24,27.94L73.3,26.22L73.52,27.66L73.58,24.28L73.86,25.86L73.92,24.35L74.42,36.56L74.7,26.65L74.76,24.57L75.1,22.13L75.21,26.29L75.27,26.65L75.72,33.4L76.11,30.96L76.17,28.88L76.28,29.96L76.45,26L76.79,28.66L76.85,25.86L77.13,27.15L77.35,22.27L77.58,26.36L77.63,24.14L77.75,25.36L77.97,19.9L78.09,21.98L78.14,17.82L78.37,16.88L78.87,25.14L79.27,24.35L79.32,21.84L79.49,22.7L79.55,24.78L79.72,24.14L80.56,29.88L80.62,29.38L80.79,28.52L81.18,33.4L81.3,30.39L81.35,28.02L81.92,32.4L81.97,33.55L82.31,34.12L82.7,30.03L82.76,30.67L82.82,31.89L83.1,32.33L83.55,23.27L83.66,24.21L83.72,25.57L84.51,32.97L84.62,29.88L84.68,25L85.3,30.53L85.47,26.36L85.52,24.28L85.92,31.1L86.25,24.42L86.31,24.57L86.59,22.84L86.99,26.94L87.04,24.71L87.1,24.78L87.27,22.13L87.83,29.17L87.89,30.6L87.94,31.32L88.17,27.73L88.23,24.57L88.51,27.08L88.62,27.01L88.68,30.39L89.24,35.56L89.47,33.55L89.52,30.67L90.25,36.56L90.48,35.7L90.54,35.56L90.76,35.63L91.16,30.53L91.27,35.34L91.32,35.7L91.38,35.99L91.44,34.55L91.49,35.63L91.55,31.89L92.06,32.04L92.34,27.66L92.4,28.52L92.79,27.08L93.3,32.54L93.35,29.24L93.41,26.58L93.92,30.46L94.09,28.59L94.14,29.38L94.54,34.91L94.71,31.89L94.76,29.81L95.04,33.98L95.38,28.95L95.49,30.6L95.55,30.1L95.78,28.45L96.17,32.9L96.23,33.12L96.28,30.24L96.85,34.84L96.96,34.27L97.01,33.83L97.35,31.75L97.69,35.56L97.75,35.77L97.8,37.57L98.25,28.3L98.31,28.81L100,41.66L100.06,40.08L100.34,42.53L101.13,29.31L101.18,31.46L101.75,37L101.8,38.72L102.25,43.1L102.37,36.42L102.42,37L102.48,35.41L102.93,29.17L103.21,33.69L103.27,34.19L103.55,38.5L104.11,37.64L104.17,36.56L104.34,37.14L104.4,33.98L104.68,30.53L105.13,32.4L105.18,32.54L105.75,32.33L106.25,38.29L106.31,36.06L107.1,44.61L107.16,41.09L107.21,37.79L107.72,32.18L107.94,35.13L108,35.77L108.06,36.13L108.34,33.62L108.45,35.13L108.51,33.19L108.62,35.77L109.13,29.74L109.18,30.1L109.35,32.33L109.41,33.69L110.2,38.58L110.25,37L110.31,35.77L110.48,38.07L110.71,36.13L110.76,33.76L111.1,33.19L111.38,37.28L111.55,36.06L111.61,36.78L111.89,39.15L111.94,36.71L112,37L112.06,34.27L112.28,37.07L112.51,33.4L112.62,34.98L112.68,33.4L113.07,36.56L113.18,31.1L113.24,31.46L113.3,28.88L113.41,28.52L114.03,36.42L114.42,35.49L114.48,35.2L114.65,34.05L115.49,41.52L115.55,39.37L115.66,38.93L116.28,43.89L116.45,42.31L116.51,40.08L117.02,34.55L117.3,37.57L117.35,38.07L117.58,39.37L117.8,34.91L117.86,34.98L117.92,34.55L118.99,43.82L119.04,44.25L119.27,43.1L120.11,49.57L120.17,48.13L120.23,46.33L120.4,48.06L120.56,45.9L120.85,47.34L120.9,46.41L121.18,38.43L121.58,43.68L121.63,43.89L121.75,43.03L122.09,45.62L122.2,44.47L122.25,42.81L122.48,43.46L122.54,42.24L122.59,40.08L122.71,42.45L122.76,39.01L123.33,39.87L123.38,38.93L123.49,41.95L124.06,39.01L124.11,37.35L124.28,36.78L124.73,39.37L124.85,38.22L124.9,36.28L125.07,35.13L125.63,38.93L125.69,36.13L126.54,42.1L126.71,40.73L126.76,38.22L126.93,38.58L126.99,36.64L127.44,41.52L127.83,39.08L127.89,36.71L129.02,43.75L129.07,41.81L129.13,41.16L129.41,43.96L129.47,44.97L130.31,39.58L130.37,39.87L130.42,40.23L130.65,41.88L130.71,40.73L130.76,37.71L131.33,44.32L131.78,43.03L131.83,42.6L132.23,45.62L132.4,41.45L132.56,42.67L132.62,41.59L133.47,49.93L133.8,47.77L133.86,45.26L134.03,45.54L134.71,41.66L134.87,42.53L134.93,42.6L135.04,43.17L135.1,41.74L135.21,42.67L135.27,44.32L135.44,44.61L135.61,41.09L135.66,39.15L135.72,37.93L136.17,42.45L136.23,43.53L137.58,54.59L137.64,53.66L137.97,55.1L138.03,52.8L138.09,50.86L138.2,51L138.25,49.35L138.42,51.29L138.71,48.2L138.76,46.19L139.66,41.23L139.72,41.59L140.23,44.25L140.28,41.31L140.34,40.01L141.64,51.72L141.69,50.72L141.8,52.08L141.92,48.63L142.31,51.51L142.37,52.01L142.48,50.86L142.76,54.31L143.04,52.87L143.1,53.3L143.38,51.94L143.66,53.8L143.72,52.22L144.06,54.02L144.4,50.07L144.56,51L144.62,51.94L145.35,54.16L145.41,52.01L145.58,52.66L145.64,50.28L145.69,48.85L146.65,54.45L146.71,53.52L146.76,51.51L146.82,52.08L146.99,47.48L147.16,48.85L147.21,46.05L147.83,47.84L147.89,48.13L149.97,57.47L150.03,55.53L150.09,55.82L150.14,54.88L150.25,55.31L150.31,53.16L150.42,53.37L150.48,51.22L150.76,51L151.04,52.51L151.1,52.01L151.16,50.21L151.44,51.43L151.72,47.84L151.83,49.57L151.89,49.85L152.34,53.66L152.45,51.94L152.51,50.07L152.85,48.56L153.35,52.44L153.41,51.36L153.47,51.43L153.64,53.09L153.69,50.86L154.25,52.8L154.31,52.87L154.59,52.66L154.87,54.16L154.93,52.08L155.27,53.73L155.33,51L155.49,53.37L155.72,48.42L156,50.86L156.06,48.99L156.11,47.41L156.62,52.58L156.68,53.3L157.24,55.24L157.35,54.45L157.41,53.01L157.64,53.37L157.69,52.37L157.8,52.8L157.86,53.8L157.97,52.37L158.93,56.18L158.99,56.1L159.04,56.18L159.33,52.08L159.78,54.95L159.83,55.17L160.4,58.62L160.45,57.4L160.51,56.25L160.73,53.95L161.18,55.82L161.24,55.89L162.09,59.05L162.14,57.68L162.2,57.9L162.25,56.89L162.31,55.03L162.48,54.02L162.93,56.32L162.99,56.75L164.23,60.49L164.28,58.26L164.34,57.68L164.68,60.49L164.79,59.84L164.85,60.34L165.47,63.5L165.75,61.99L165.8,60.77L165.92,61.71L165.97,59.91L166.26,61.2L166.31,58.19L166.54,58.76L166.59,56.46L166.76,53.73L167.33,55.74L167.38,55.96L168.23,62.78L168.28,63.79L168.68,65.23L169.13,64.65L169.18,61.99L169.69,63.65L169.75,61.71L169.97,62.86L170.03,61.42L170.37,63.22L170.54,62.57L170.59,60.7L172.11,71.98L172.23,69.9L172.28,68.32L173.07,63.79L173.3,65.44L173.35,65.51L173.92,62.5L174.2,63.86L174.26,64.01L174.31,63.86L174.54,65.15L174.59,65.51L174.99,68.46L175.04,68.67L175.38,70.04L175.44,67.81L175.49,66.09L175.61,64.87L176.06,70.33L176.17,68.75L176.23,66.16L176.85,68.53L176.9,66.74L177.07,67.31L177.18,64.87L177.35,65.37L177.41,63.72L177.47,62.28L177.92,64.94L178.09,64.8L178.14,65.51L179.1,71.12L179.38,70.47L179.44,70.54L179.66,70.97L179.72,69.61L179.78,69.68L179.83,69.18L179.89,69.54L180.06,66.45L180.45,68.89L180.51,66.81L181.3,70.18L181.41,69.68L181.47,67.81L181.64,68.32L181.8,65.37L181.86,65.94L181.92,65.15L182.37,64.58L183.83,71.55L183.89,68.82L184.45,63.36L184.73,64.87L184.79,63.5L185.18,64.87L185.35,64.72L185.41,65.73L185.92,67.45L186.31,67.24L186.37,66.38L186.48,65.8L187.33,70.18L187.44,69.9L187.49,69.03L187.78,67.45L188.11,69.75L188.17,68.39L188.4,67.6L188.51,68.96L188.57,67.45L189.02,69.46L189.35,69.25L189.41,68.24L189.64,66.52L190.31,70.18L190.37,68.32L191.33,72.7L191.38,73.27L191.49,73.49L191.55,72.34L191.83,72.41L191.89,70.76L192,70.11L192.62,73.27L192.68,71.98L192.73,70.04L193.02,72.27L193.58,71.62L193.64,72.41L193.8,72.84L193.86,71.84L193.92,71.98L193.97,71.19L195.33,77.51L195.38,78.59L195.72,79.81L195.78,78.66L195.83,77.37L196.28,79.38L196.51,77.94L196.57,76.65L196.79,77.01L196.85,76.15L197.07,77.01L197.13,77.73L198.54,83.4L198.65,81.39L198.71,81.39L198.99,80.46L199.21,81.82L199.27,82.18L199.33,82.32L199.38,80.38L199.49,80.81L199.55,78.95L200.06,79.88L200.11,79.88L200.34,81.89L200.73,81.53L200.79,81.03L200.85,81.68L201.24,79.09L201.3,79.16L201.35,78.8L201.64,77.15L202.2,80.1L202.26,80.1L202.65,82.83L202.71,83.69L203.04,84.84L203.1,82.97L203.16,82.97L203.33,83.76L203.55,81.75L203.89,83.11L203.95,82.54L204.06,82.4L204.28,83.26L204.34,80.74L204.4,79.38L204.96,82.97L205.02,83.4L206.2,88.43L206.48,87.85L206.54,85.84L206.71,84.55L207.21,87.21L207.38,87.06L207.44,85.92L207.83,87.5L208,85.13L208.06,85.13L208.62,87.42L208.85,85.56L208.9,84.84L208.96,83.83L209.52,85.77L209.58,86.13L209.64,84.84L210.2,87.06L210.31,85.84L210.37,86.2L210.54,85.13L211.33,87.71L211.38,87.85L212.51,91.45L212.57,89.29L213.41,92.09L213.47,92.09L214.14,94.97L214.31,94.18L214.37,92.96L214.76,94.25L214.88,93.39L214.93,92.16L215.21,93.31L215.33,91.16L215.49,91.37L215.55,89.15L216.73,92.67L216.85,91.73L216.9,91.37L217.24,93.1L217.3,91.02L217.35,91.23L217.52,88.86L217.58,88.93L218.03,90.37L218.26,89.65L218.31,88.36L218.42,87.64L218.82,89.94L218.93,88.14L218.99,87.28L219.38,84.55L219.78,85.48L219.83,85.48L221.97,92.09L222.03,92.52L222.09,92.67L222.14,91.66L222.65,92.38L222.71,91.3L222.99,90.8L224.34,96.26L224.51,95.4L224.57,94.03L224.79,93.96L225.24,95.18L225.35,94.61L225.41,94.68L226.37,95.97L226.42,96.12L227.1,99.49L227.16,99.78L228.34,103.51L228.4,103.8L229.47,107.03L229.52,107.18L232.06,113.57L232.11,112.42L232.85,109.19L233.13,109.33L233.19,109.33L233.64,110.12L233.69,108.76L233.92,109.41L233.97,108.76L234.14,108.62L235.44,110.41L235.5,109.62L235.78,109.84L235.83,108.69L236.17,109.41L236.23,108.54L236.4,108.76L236.45,108.33L236.51,106.68L236.9,106.24L237.47,107.54L237.52,106.46L237.64,106.68L237.69,104.38L240.17,110.99L240.34,110.7L240.4,109.33L241.3,111.85L241.35,111.85L241.58,113.28L242.03,113.14L242.09,111.78L242.31,112.78L242.59,110.84L242.65,110.91L242.76,111.27L242.82,110.12L243.27,110.99L243.33,109.41L243.55,107.54L244.17,109.91L244.23,109.91L245.75,112.64L245.81,113.14L246.14,113.72L246.2,112.35L246.37,113.07L246.59,110.77L246.65,109.69L246.88,109.12L248.68,112.42L248.73,112.78L250.76,117.09L250.82,115.66L251.83,116.88L251.89,116.88L251.95,116.52L252.45,117.88L252.51,117.95L252.68,118.24L252.73,116.16L252.9,116.16L252.96,116.3L253.3,117.67L253.52,115.44L253.69,116.16L253.75,116.16L257.24,120.68L257.3,119.46L257.69,120.54L257.75,119.18L258.09,119.82L258.14,119.82L260.12,122.69L260.17,121.83L260.85,122.69L260.9,122.98L261.86,125.21L261.92,125.5L262.2,125.78L262.26,124.56L263.95,127.29L264,127.29L264.45,128.08L264.51,127.29L265.58,128.87L265.64,128.51L266.09,129.52L266.14,129.66L266.71,130.31L266.76,130.67L266.88,130.88L266.93,128.87L270.76,134.4L270.82,134.4L272.79,136.49L272.85,136.49L276.12,140.22L276.17,140.22L278.43,142.81L278.48,142.81L279.89,143.31L279.95,143.6L280.85,144.17L280.9,144.39L282.48,144.75L282.54,145.39L284,146.11L284.06,146.19L285.13,147.55L285.19,147.55L288,149.99L288.06,149.99L289.02,150.71L289.07,150.78L290.59,151.5L290.65,151.72L291.5,152.58L291.55,152.58L292.79,152.94L292.85,152.94L294.43,154.09L294.48,154.37L296.45,155.45L296.51,156.03L298.48,157.39L298.54,157.39L299.5,158.61L299.55,158.61L301.97,159.19L302.03,159.4L303.38,160.05L303.44,160.19L305.41,160.84L305.47,161.13L307.1,162.2L307.16,162.2L309.07,162.92L309.13,162.99L311.27,164.58L311.33,164.58L312.51,165.22L312.57,166.01L315.21,166.66L315.27,166.87L317.52,167.52L317.58,167.81L320.17,168.53L320.23,168.6L321.86,169.96L321.92,169.96L325.13,172.05L325.19,172.05L327.27,172.55L327.33,173.05L328.79,173.84L328.85,173.84L330.14,174.42L330.2,174.92L333.24,175.49L333.3,175.78L335.89,176.5L335.95,176.57L336.79,177L336.85,177L337.69,177.86L337.75,177.86L341.75,180.02L341.81,180.24L342.93,180.52L342.99,180.52L343.89,180.88L343.95,180.88L348.06,182.82L348.12,183.04L349.36,183.68L349.41,183.97L352.34,184.62L352.4,184.76L354.93,185.19L354.99,185.55L356.4,186.2L356.45,186.41L357.36,186.99L357.41,186.99L359.5,187.56L359.55,187.78L362.88,188.5L362.93,188.64L364.96,189.36L365.02,189.43L365.86,190.08L365.92,190.08L368.45,190.72L368.51,190.87L372.4,191.59L372.45,191.87L374.71,192.59L374.76,192.66L376.9,193.24L376.96,193.45L379.1,194.1L379.16,194.24L381.98,194.96L382.03,195.11L386.71,195.68L386.76,195.9L388.74,196.61L388.79,196.76L391.16,197.48L391.21,197.83L394.71,198.41L394.76,198.77L399.38,199.49L399.44,199.63L404.4,200.35L404.45,200.42L406.71,200.56L406.76,200.56L407.67,201.14L407.72,201.14L410.93,201.79L410.99,201.93L412.17,202.22L412.23,202.22L413.69,202.94L413.75,202.94L415.5,204.01L415.55,204.01L420.74,204.66L420.79,204.8L424.68,205.38L424.74,205.81L425.81,206.17L425.86,206.17L428.06,206.89L428.12,206.96L430.43,207.17L430.48,207.17L434.54,207.89L434.6,207.96L437.53,208.61L437.58,208.83L439.16,209.4L439.22,209.83L441.3,210.48L441.36,210.77L445.53,211.48L445.58,211.56L450.2,212.2L450.26,212.49L457.13,213.14L457.19,213.28L459.27,214.21L459.33,214.57L463.55,215.29L463.61,215.58L465.3,215.65" style="vector-effect: non-scaling-stroke; fill: none; stroke: rgb(99, 110, 250); stroke-opacity: 1; stroke-width: 2px; opacity: 1;"/></g><g class="points"/><g class="text"/></g></g></g><g class="overplot"><g class="xy2" transform="translate(60,20)" clip-path="url(#clip867ccfxy2plot)"><g class="scatterlayer mlayer"><g class="trace scatter trace0c9be5" style="stroke-miterlimit: 2; opacity: 1;"><g class="fills"/><g class="errorbars"/><g class="lines"><path class="js-line" d="M0,11.35L14.42,57.52L14.48,57.68L27.04,89.28L27.1,89.41L36.23,108.31L36.28,108.41L43.94,122.06L44,122.16L55.04,138.81L55.1,138.89L65.63,152L65.69,152.06L74.31,161.09L74.37,161.15L84,169.73L84.06,169.77L95.44,178.18L95.49,178.22L109.97,186.72L110.03,186.74L122.48,192.49L122.54,192.51L138.14,198.13L138.2,198.14L149.52,201.34L149.58,201.36L174.31,206.46L174.37,206.46L194.2,209.21L194.26,209.21L218.31,211.47L218.37,211.47L233.07,212.45L233.13,212.45L274.54,214.14L274.59,214.14L295.66,214.63L295.72,214.63L313.41,214.92L313.47,214.92L465.3,215.65" style="vector-effect: non-scaling-stroke; fill: none; stroke: rgb(239, 85, 59); stroke-opacity: 1; stroke-width: 2px; opacity: 1;"/></g><g class="points"/><g class="text"/></g></g></g></g><path class="xlines-above crisp" d="M0,0" style="fill: none;"/><path class="ylines-above crisp" d="M0,0" style="fill: none;"/><g class="overlines-above"><path class="xy2-x crisp" d="M0,0" style="fill: none;"/><path class="xy2-y crisp" d="M0,0" style="fill: none;"/></g><g class="xaxislayer-above"><g class="xtick"><text text-anchor="middle" x="0" y="260" transform="translate(60,0)" style="font-family: 'Open Sans', verdana, arial, sans-serif; font-size: 12px; fill: rgb(42, 63, 95); fill-opacity: 1; white-space: pre; opacity: 1;">0</text></g><g class="xtick"><text text-anchor="middle" x="0" y="260" style="font-family: 'Open Sans', verdana, arial, sans-serif; font-size: 12px; fill: rgb(42, 63, 95); fill-opacity: 1; white-space: pre; opacity: 1;" transform="translate(172.68,0)">2000</text></g><g class="xtick"><text text-anchor="middle" x="0" y="260" style="font-family: 'Open Sans', verdana, arial, sans-serif; font-size: 12px; fill: rgb(42, 63, 95); fill-opacity: 1; white-space: pre; opacity: 1;" transform="translate(285.35,0)">4000</text></g><g class="xtick"><text text-anchor="middle" x="0" y="260" style="font-family: 'Open Sans', verdana, arial, sans-serif; font-size: 12px; fill: rgb(42, 63, 95); fill-opacity: 1; white-space: pre; opacity: 1;" transform="translate(398.03,0)">6000</text></g><g class="xtick"><text text-anchor="middle" x="0" y="260" style="font-family: 'Open Sans', verdana, arial, sans-serif; font-size: 12px; fill: rgb(42, 63, 95); fill-opacity: 1; white-space: pre; opacity: 1;" transform="translate(510.71,0)">8000</text></g></g><g class="yaxislayer-above"><g class="ytick"><text text-anchor="end" x="59" y="4.199999999999999" transform="translate(0,238.45)" style="font-family: 'Open Sans', verdana, arial, sans-serif; font-size: 12px; fill: rgb(42, 63, 95); fill-opacity: 1; white-space: pre; opacity: 1;">11k</text></g><g class="ytick"><text text-anchor="end" x="59" y="4.199999999999999" style="font-family: 'Open Sans', verdana, arial, sans-serif; font-size: 12px; fill: rgb(42, 63, 95); fill-opacity: 1; white-space: pre; opacity: 1;" transform="translate(0,202.53)">12k</text></g><g class="ytick"><text text-anchor="end" x="59" y="4.199999999999999" style="font-family: 'Open Sans', verdana, arial, sans-serif; font-size: 12px; fill: rgb(42, 63, 95); fill-opacity: 1; white-space: pre; opacity: 1;" transform="translate(0,166.62)">13k</text></g><g class="ytick"><text text-anchor="end" x="59" y="4.199999999999999" style="font-family: 'Open Sans', verdana, arial, sans-serif; font-size: 12px; fill: rgb(42, 63, 95); fill-opacity: 1; white-space: pre; opacity: 1;" transform="translate(0,130.7)">14k</text></g><g class="ytick"><text text-anchor="end" x="59" y="4.199999999999999" style="font-family: 'Open Sans', verdana, arial, sans-serif; font-size: 12px; fill: rgb(42, 63, 95); fill-opacity: 1; white-space: pre; opacity: 1;" transform="translate(0,94.78)">15k</text></g><g class="ytick"><text text-anchor="end" x="59" y="4.199999999999999" style="font-family: 'Open Sans', verdana, arial, sans-serif; font-size: 12px; fill: rgb(42, 63, 95); fill-opacity: 1; white-space: pre; opacity: 1;" transform="translate(0,58.86)">16k</text></g><g class="ytick"><text text-anchor="end" x="59" y="4.199999999999999" style="font-family: 'Open Sans', verdana, arial, sans-serif; font-size: 12px; fill: rgb(42, 63, 95); fill-opacity: 1; white-space: pre; opacity: 1;" transform="translate(0,22.95)">17k</text></g></g><g class="overaxes-above"><g class="xy2-x"/><g class="xy2-y"><g class="y2tick"><text text-anchor="start" x="526.3" y="4.199999999999999" transform="translate(0,235.7)" style="font-family: 'Open Sans', verdana, arial, sans-serif; font-size: 12px; fill: rgb(42, 63, 95); fill-opacity: 1; white-space: pre; opacity: 1;">0</text></g><g class="y2tick"><text text-anchor="start" x="526.3" y="4.199999999999999" style="font-family: 'Open Sans', verdana, arial, sans-serif; font-size: 12px; fill: rgb(42, 63, 95); fill-opacity: 1; white-space: pre; opacity: 1;" transform="translate(0,184.61)">500</text></g><g class="y2tick"><text text-anchor="start" x="526.3" y="4.199999999999999" style="font-family: 'Open Sans', verdana, arial, sans-serif; font-size: 12px; fill: rgb(42, 63, 95); fill-opacity: 1; white-space: pre; opacity: 1;" transform="translate(0,133.53)">1000</text></g><g class="y2tick"><text text-anchor="start" x="526.3" y="4.199999999999999" style="font-family: 'Open Sans', verdana, arial, sans-serif; font-size: 12px; fill: rgb(42, 63, 95); fill-opacity: 1; white-space: pre; opacity: 1;" transform="translate(0,82.44)">1500</text></g><g class="y2tick"><text text-anchor="start" x="526.3" y="4.199999999999999" style="font-family: 'Open Sans', verdana, arial, sans-serif; font-size: 12px; fill: rgb(42, 63, 95); fill-opacity: 1; white-space: pre; opacity: 1;" transform="translate(0,31.35)">2000</text></g></g></g></g><g class="subplot xy2"/></g><g class="polarlayer"/><g class="smithlayer"/><g class="ternarylayer"/><g class="geolayer"/><g class="funnelarealayer"/><g class="pielayer"/><g class="iciclelayer"/><g class="treemaplayer"/><g class="sunburstlayer"/><g class="glimages"/><defs id="topdefs-867ccf"><g class="clips"/><clipPath id="legend867ccf"><rect width="123" height="48" x="0" y="0"/></clipPath></defs><g class="layer-above"><g class="imagelayer"/><g class="shapelayer"/></g><g class="infolayer"><g class="legend" pointer-events="all" transform="translate(564.9000000000001,20)"><rect class="bg" shape-rendering="crispEdges" width="123" height="48" x="0" y="0" style="stroke: rgb(68, 68, 68); stroke-opacity: 1; fill: rgb(255, 255, 255); fill-opacity: 1; stroke-width: 0px;"/><g class="scrollbox" transform="" clip-path="url(#legend867ccf)"><g class="groups"><g class="traces" transform="translate(0,14.5)" style="opacity: 1;"><text class="legendtext" text-anchor="start" x="40" y="4.680000000000001" style="font-family: 'Open Sans', verdana, arial, sans-serif; font-size: 12px; fill: rgb(42, 63, 95); fill-opacity: 1; white-space: pre;">Cost</text><g class="layers" style="opacity: 1;"><g class="legendfill"/><g class="legendlines"><path class="js-line" d="M5,0h30" style="fill: none; stroke: rgb(99, 110, 250); stroke-opacity: 1; stroke-width: 2px;"/></g><g class="legendsymbols"><g class="legendpoints"/></g></g><rect class="legendtoggle" x="0" y="-9.5" width="117.265625" height="19" style="fill: rgb(0, 0, 0); fill-opacity: 0;"/></g><g class="traces" transform="translate(0,33.5)" style="opacity: 1;"><text class="legendtext" text-anchor="start" x="40" y="4.680000000000001" style="font-family: 'Open Sans', verdana, arial, sans-serif; font-size: 12px; fill: rgb(42, 63, 95); fill-opacity: 1; white-space: pre;">Temperature</text><g class="layers" style="opacity: 1;"><g class="legendfill"/><g class="legendlines"><path class="js-line" d="M5,0h30" style="fill: none; stroke: rgb(239, 85, 59); stroke-opacity: 1; stroke-width: 2px;"/></g><g class="legendsymbols"><g class="legendpoints"/></g></g><rect class="legendtoggle" x="0" y="-9.5" width="117.265625" height="19" style="fill: rgb(0, 0, 0); fill-opacity: 0;"/></g></g></g><rect class="scrollbar" rx="20" ry="3" width="0" height="0" x="0" y="0" style="fill: rgb(128, 139, 164); fill-opacity: 1;"/></g><g class="g-gtitle"/><g class="g-xtitle"><text class="xtitle" x="292.65" y="287.8" text-anchor="middle" style="font-family: 'Open Sans', verdana, arial, sans-serif; font-size: 14px; fill: rgb(42, 63, 95); opacity: 1; font-weight: normal; white-space: pre;">Iterations</text></g><g class="g-ytitle" transform="translate(2.1591796875,0)"><text class="ytitle" transform="rotate(-90,11.840625000000003,133.5)" x="11.840625000000003" y="133.5" text-anchor="middle" style="font-family: 'Open Sans', verdana, arial, sans-serif; font-size: 14px; fill: rgb(42, 63, 95); opacity: 1; font-weight: normal; white-space: pre;">Cost</text></g><g class="g-y2title"><text class="y2title" transform="rotate(-90,581.9875,133.5)" x="581.9875" y="133.5" text-anchor="middle" style="font-family: 'Open Sans', verdana, arial, sans-serif; font-size: 14px; fill: rgb(42, 63, 95); opacity: 1; font-weight: normal; white-space: pre;">Temperature</text></g></g></svg>