<svg class="main-svg" xmlns="http://www.w3.org/2000/svg" xmlns:xlink="http://www.w3.org/1999/xlink" width="700" height="300" style="" viewBox="0 0 700 300"><rect x="0" y="0" width="700" height="300" style="fill: rgb(255, 255, 255); fill-opacity: 1;"/><defs id="defs-264f43"><g class="clips"><clipPath id="clip264f43xyplot" class="plotclip"><rect width="465.29999999999995" height="227"/></clipPath><clipPath id="clip264f43xy2plot" class="plotclip"><rect width="465.29999999999995" height="227"/></clipPath><clipPath class="axesclip" id="clip264f43x"><rect x="60" y="0" width="465.29999999999995" height="300"/></clipPath><clipPath class="axesclip" id="clip264f43y"><rect x="0" y="20" width="700" height="227"/></clipPath><clipPath class="axesclip" id="clip264f43xy"><rect x="60" y="20" width="465.29999999999995" height="227"/></clipPath><clipPath class="axesclip" id="clip264f43y2"><rect x="0" y="20" width="700" height="227"/></clipPath><clipPath class="axesclip" id="clip264f43xy2"><rect x="60" y="20" width="465.29999999999995" height="227"/></clipPath></g><g class="gradients"/><g class="patterns"/></defs><g class="bglayer"><rect class="bg" x="60" y="20" width="465.29999999999995" height="227" style="fill: rgb(229, 236, 246); fill-opacity: 1; stroke-width: 0;"/></g><g class="layer-below"><g class="imagelayer"/><g class="shapelayer"/></g><g class="cartesianlayer"><g class="subplot xy"><g class="layer-subplot"><g class="shapelayer"/><g class="imagelayer"/></g><g class="gridlayer"><g class="x"><path class="xgrid crisp" transform="translate(163.07,0)" d="M0,20v227" style="stroke: rgb(255, 255, 255); stroke-opacity: 1; stroke-width: 1px;"/><path class="xgrid crisp" transform="translate(266.14,0)" d="M0,20v227" style="stroke: rgb(255, 255, 255); stroke-opacity: 1; stroke-width: 1px;"/><path class="xgrid crisp" transform="translate(369.2,0)" d="M0,20v227" style="stroke: rgb(255, 255, 255); stroke-opacity: 1; stroke-width: 1px;"/><path class="xgrid crisp" transform="translate(472.27,0)" d="M0,20v227" style="stroke: rgb(255, 255, 255); stroke-opacity: 1; stroke-width: 1px;"/></g><g class="y"><path class="ygrid crisp" transform="translate(0,229.27)" d="M60,0h465.29999999999995" style="stroke: rgb(255, 255, 255); stroke-opacity: 1; stroke-width: 1px;"/><path class="ygrid crisp" transform="translate(0,190.6)" d="M60,0h465.29999999999995" style="stroke: rgb(255, 255, 255); stroke-opacity: 1; stroke-width: 1px;"/><path class="ygrid crisp" transform="translate(0,151.93)" d="M60,0h465.29999999999995" style="stroke: rgb(255, 255, 255); stroke-opacity: 1; stroke-width: 1px;"/><path class="ygrid crisp" transform="translate(0,113.26)" d="M60,0h465.29999999999995" style="stroke: rgb(255, 255, 255); stroke-opacity: 1; stroke-width: 1px;"/><path class="ygrid crisp" transform="translate(0,74.58)" d="M60,0h465.29999999999995" style="stroke: rgb(255, 255, 255); stroke-opacity: 1; stroke-width: 1px;"/><path class="ygrid crisp" transform="translate(0,35.91)" d="M60,0h465.29999999999995" style="stroke: rgb(255, 255, 255); stroke-opacity: 1; stroke-width: 1px;"/></g><g class="y2"><path class="y2grid crisp" transform="translate(0,184.59)" d="M60,0h465.29999999999995" style="stroke: rgb(255, 255, 255); stroke-opacity: 1; stroke-width: 1px;"/><path class="y2grid crisp" transform="translate(0,133.51)" d="M60,0h465.29999999999995" style="stroke: rgb(255, 255, 255); stroke-opacity: 1; stroke-width: 1px;"/><path class="y2grid crisp" transform="translate(0,82.43)" d="M60,0h465.29999999999995" style="stroke: rgb(255, 255, 255); stroke-opacity: 1; stroke-width: 1px;"/><path class="y2grid crisp" transform="translate(0,31.35)" d="M60,0h465.29999999999995" style="stroke: rgb(255, 255, 255); stroke-opacity: 1; stroke-width: 1px;"/></g></g><g class="zerolinelayer"><path class="xzl zl crisp" transform="translate(60,0)" d="M0,20v227" style="stroke: rgb(255, 255, 255); stroke-opacity: 1; stroke-width: 2px;"/><path class="y2zl zl crisp" transform="translate(0,235.67)" d="M60,0h465.29999999999995" style="stroke: rgb(255, 255, 255); stroke-opacity: 1; stroke-width: 2px;"/></g><path class="xlines-below"/><path class="ylines-below"/><g class="overlines-below"><path class="xy2-x"/><path class="xy2-y"/></g><g class="xaxislayer-below"/><g class="yaxislayer-below"/><g class="overaxes-below"><g class="xy2-x"/><g class="xy2-y"/></g><g class="plot" transform="translate(60,20)" clip-path="url(#clip264f43xyplot)"><g class="scatterlayer mlayer"><g class="trace scatter trace6fcd60" style="stroke-miterlimit: 2; opacity: 1;"><g class="fills"/><g class="errorbars"/><g class="lines"><path class="js-line" d="M0,16.73L0.26,14.6L0.62,17.65L0.67,18.85L0.88,15.33L1.19,20.48L1.39,18.54L1.44,18.77L1.49,20.01L2.01,17.23L2.16,18.43L2.22,19.39L2.63,18.5L3.25,24.58L3.3,24.07L3.87,15.95L4.23,18.66L4.28,18.47L4.38,19.05L4.43,16.42L4.48,15.33L4.53,14.48L4.84,19.66L4.95,19.28L5,19.51L5.26,17.5L5.46,21.6L5.72,19.24L5.77,19.7L5.87,18.12L6.18,23.38L6.49,20.17L6.54,19.59L7.11,13.36L7.32,14.95L7.37,16.03L7.42,15.68L7.73,18.66L7.78,18.5L8.25,15.14L8.45,18.97L8.5,19.08L8.61,20.01L8.86,15.91L9.12,17.34L9.17,16.84L9.74,15.49L10,19.08L10.05,18.81L10.36,16.8L10.87,20.36L10.93,20.21L10.98,20.17L11.13,20.59L11.49,16.69L11.75,19.47L11.8,18.35L11.85,16.69L12.37,21.64L12.42,21.02L12.47,22.22L12.94,22.45L13.24,18.89L13.35,19.59L13.4,20.28L13.71,20.75L13.97,17L14.27,17.96L14.33,18.16L14.38,17.03L14.58,20.17L14.94,19.9L15,20.86L15.2,18.58L15.31,21.75L15.72,20.13L15.77,20.17L16.08,21.25L16.34,18.23L16.39,17.42L16.49,16.96L16.59,18L16.65,19.43L16.7,18.62L17.16,22.8L17.21,22.84L18.04,15.76L18.14,17.96L18.19,19.16L18.5,21.21L19.38,11.35L19.43,11.66L19.48,11.85L20.2,14.87L20.3,13.55L20.36,14.1L20.61,13.98L21.13,18.35L21.34,17.5L21.39,16.69L21.64,17.15L21.75,15.33L21.9,16.92L21.95,17.19L22.47,21.79L22.83,19.86L22.88,17.89L23.65,13.55L23.71,12.47L24.68,19.66L24.74,19.59L24.79,19.9L24.84,20.17L25.1,17.96L25.15,17.27L25.41,19.47L25.56,15.18L25.82,17.5L25.87,16.03L26.33,21.44L26.69,18.27L26.75,17.89L27.26,19.01L27.57,15.33L27.62,15.53L28.6,21.25L28.65,21.44L28.86,17.77L29.37,20.71L29.43,21.33L29.63,20.71L29.79,21.6L29.84,20.67L29.94,18.5L30.56,20.98L30.61,20.28L30.87,19.7L31.38,22.06L31.44,21.75L31.49,21.83L31.64,20.63L31.95,23.61L32.05,21.75L32.11,20.36L32.26,20.13L32.52,22.49L32.88,21.4L32.93,20.17L33.08,23.65L33.55,18.58L33.65,20.59L33.7,20.48L33.96,17.46L34.48,18.77L34.53,19.39L34.58,19.86L34.73,18.04L35.2,18.7L35.25,17.5L35.66,19.66L36.02,18.35L36.07,17.46L36.38,20.21L36.8,18.12L36.85,15.68L37.16,18.85L37.41,14.06L37.57,15.8L37.62,15.87L38.34,19.94L38.55,18.62L38.6,17.58L38.81,14.44L39.22,17.96L39.37,16.26L39.42,17.34L39.99,22.14L40.35,20.86L40.4,20.67L40.61,19.74L40.81,22.76L40.87,22.95L41.02,22.41L41.54,24.03L41.59,23.3L41.64,22.33L42,20.28L42.26,25.23L42.31,25.89L42.36,27.51L42.88,21.21L42.93,21.37L43.03,20.98L43.13,23.72L43.39,22.22L43.44,20.9L43.75,21.48L43.86,19.2L44.01,20.05L44.06,22.45L44.16,21.56L44.89,23.49L44.94,23.69L45.5,19.47L45.81,22.02L45.87,22.8L46.9,28.09L46.95,28.21L47.57,22.49L47.98,22.76L48.03,23.22L48.6,25.77L48.65,24.73L48.7,23.03L48.96,25.19L49.21,23.03L49.27,21.6L49.42,20.9L49.83,23.3L49.88,23.34L50.04,22.53L50.3,24.34L50.35,25.81L50.45,26.82L50.61,25.66L50.66,23.8L50.76,23.96L50.81,22.87L50.92,23.65L50.97,22.49L51.12,24.73L51.43,21.64L51.69,23.61L51.74,22.53L51.84,22.95L52,21.83L52.05,21.02L52.51,23.49L52.72,21.56L52.77,20.09L52.82,19.66L53.18,22.6L53.23,22.6L53.29,23.11L53.75,24.3L53.8,23.45L53.85,22.26L55.04,25.89L55.24,24.69L55.3,23.49L55.35,22.76L55.76,25.77L55.86,25.08L55.91,25.66L56.38,23.76L56.64,25.27L56.69,25.43L56.84,25.16L57.1,26.51L57.41,25.62L57.46,25.46L57.72,24.92L58.49,29.72L58.8,28.33L58.85,28.37L59.47,24.42L59.68,24.85L59.73,25.12L59.93,26.59L60.04,24.65L60.09,23.61L60.14,23.92L60.45,21.98L60.5,20.59L60.71,21.4L60.76,20.67L60.81,19.51L60.86,19.32L61.07,21.29L61.12,22.26L61.17,21.13L61.74,24.03L61.79,24.54L61.84,24.77L61.94,22.87L62.05,22.99L62.1,22.22L63.49,26.08L63.54,25.74L63.8,22.87L64.11,24.85L64.16,25.08L64.98,28.87L65.19,28.21L65.24,27.17L65.65,29.22L65.96,28.37L66.01,27.51L66.17,27.28L66.58,30.14L66.94,29.06L66.99,28.67L68.02,23.34L68.08,23.88L68.28,23.72L68.44,24.77L68.49,25.74L69.16,21.1L69.31,22.26L69.36,22.53L70.29,26.97L70.55,26.7L70.6,26.74L70.81,26.63L71.22,28.17L71.27,27.63L71.32,26.24L71.74,27.32L71.84,24.61L71.94,25.27L71.99,25.31L72.46,26.7L72.51,25.27L72.56,24.85L73.13,28.64L73.59,27.63L73.64,27.71L73.9,27.86L74.11,26.12L74.31,27.24L74.36,27.4L74.42,27.17L74.78,28.52L74.83,28.79L75.24,31.23L75.29,32.16L75.45,31.11L75.75,33.16L75.96,32.58L76.01,32.62L76.99,34.51L77.04,34.59L77.09,35.52L77.66,32.62L77.71,32.7L77.87,32.62L78.8,36.91L78.85,36.52L78.9,36.8L79.05,34.75L79.21,34.98L79.26,33.86L79.88,29.45L80.19,30.96L80.24,31.23L80.34,30.18L80.96,32.46L81.01,31.38L81.06,30.69L81.94,26.28L81.99,27.13L82.04,27.21L82.3,29.1L82.82,27.59L82.87,26.7L83.12,25.74L83.43,28.09L83.59,26.24L83.64,26.74L84.15,26.32L85.19,33.51L85.29,31.58L85.34,30.92L85.44,29.72L85.91,32.04L85.96,32.5L86.58,34.9L86.68,32.5L86.73,32.54L87.76,29.18L87.81,29.41L87.87,30.26L88.07,29.41L88.38,32.08L88.43,32.62L89.21,31.38L89.31,31.73L89.36,31.77L89.67,31.5L90.24,35.33L90.29,35.06L90.34,34.51L90.7,35.79L90.8,34.13L90.85,32.89L91.37,33.9L91.42,33.04L91.47,31.96L91.58,32.66L91.83,30.34L92.19,31.85L92.25,32.08L92.61,31.96L93.84,35.87L94,35.52L94.05,35.09L94.1,34.63L94.31,36.37L94.72,35.6L94.77,35.91L94.87,35.21L95.54,39.04L95.7,36.83L95.75,36.91L97.14,42.02L97.3,41.94L97.35,41.98L97.61,39.54L98.07,41.78L98.12,42.17L98.22,42.75L98.58,41.13L98.79,42.52L98.84,41.59L99.46,43.1L99.56,42.17L99.62,41.09L99.72,41.86L100.03,40.01L100.23,40.59L100.29,39.66L100.54,40.78L100.59,39.89L100.65,38.38L102.76,45.11L102.81,44.03L102.86,43.49L103.07,43.87L103.33,43.06L103.53,43.68L103.58,43.91L104.25,40.86L104.41,41.71L104.46,41.98L104.51,42.21L104.77,40.04L104.82,40.01L104.92,40.47L105.23,38.23L105.28,38.38L105.34,38.42L106.42,43.49L106.47,43.52L107.14,39.43L107.4,39.89L107.45,40.59L107.65,40.47L108.07,43.41L108.27,42.05L108.32,40.82L108.89,39.7L109.1,40.55L109.15,40.7L109.36,40.31L110.08,42.94L110.13,41.59L110.59,41.13L111.06,43.83L111.11,43.18L111.67,40.89L111.88,41.75L111.93,41.9L112.14,41.67L113.43,46.7L113.48,46.08L114.25,44.22L114.3,44.61L114.35,44.26L116.36,49.05L116.42,48.47L116.47,48.2L116.72,47.51L117.45,50.79L117.6,50.56L117.65,50.1L118.53,51.8L118.58,50.72L119.51,53.19L119.56,52.84L119.66,53.46L119.87,50.83L120.07,51.76L120.13,51.84L120.54,53.23L121.05,53.11L121.1,52.34L122.08,54.31L122.19,53.97L122.24,52.77L123.42,54.89L123.48,54.43L123.78,55.13L123.84,54.28L123.89,53.73L123.99,52.92L124.45,55.09L124.51,55.2L124.71,55.82L125.07,54.78L125.12,53.73L125.33,53.11L126,56.67L126.21,55.36L126.26,55.09L127.91,59.84L127.96,59.38L128.32,60L128.53,58.88L128.63,59.03L128.68,59.11L129.04,60.15L129.2,58.64L129.45,59.5L129.5,59.42L130.43,55.74L130.59,56.63L130.64,56.71L131.88,58.8L131.93,58.45L132.39,56.36L132.85,57.06L132.91,57.25L133.78,59.11L133.83,57.99L133.89,57.52L134.04,56.32L134.5,58.64L134.61,57.83L134.66,57.87L135.95,60.93L136,60.5L137.54,64.33L137.6,64.21L137.65,63.71L138.57,65.8L138.73,65.37L138.78,64.72L138.99,64.79L140.48,58.57L140.58,58.76L140.64,58.92L140.79,59.11L140.89,58.22L141.36,58.8L141.41,58.88L141.98,57.79L142.13,58.61L142.18,59.03L142.39,58.61L145.02,63.17L145.07,62.55L145.84,64.14L146,63.32L146.05,63.36L146.3,63.87L146.46,62.78L146.51,62.82L146.67,61.93L146.97,63.56L147.08,63.13L147.13,63.44L147.28,62.98L148.06,64.29L148.11,63.25L148.37,62.86L149.04,64.52L149.09,64.56L150.17,66.38L150.22,65.57L150.27,64.37L150.94,65.34L150.99,65.37L151.3,66.5L151.66,65.18L151.72,65.34L151.77,65.37L152.13,64.21L152.49,64.91L152.54,65.34L152.7,64.41L153.21,65.72L153.26,65.76L153.47,66.42L153.88,64.99L153.93,65.06L153.98,65.22L154.91,66.34L154.96,65.45L155.22,65.18L156.46,66.96L156.51,67.62L157.95,72.22L158.26,71.41L158.31,71.45L158.57,71.29L158.83,72.22L159.09,71.68L159.14,70.98L162.38,76.74L162.43,76.78L162.49,76.98L162.69,75.97L162.74,75.12L163.57,75.85L163.62,74.69L165.37,80.46L165.73,79.41L165.78,79.45L166.25,80.3L166.3,80.49L166.35,81L166.97,79.99L167.02,80.34L167.07,80.38L167.79,79.53L167.9,79.6L167.95,79.91L168.88,76.74L168.98,77.01L169.03,77.09L169.5,77.71L169.86,77.44L169.91,76.63L170.22,76.16L171.25,78.6L171.61,78.1L171.66,77.63L172.02,78.48L172.48,78.17L172.54,78.37L173.1,79.68L173.36,78.83L173.41,78.99L173.51,77.86L173.98,79.14L174.03,79.02L174.08,79.22L174.39,79.95L174.75,79.53L174.8,79.02L175.47,78.17L175.68,78.44L175.73,78.72L176.66,79.91L176.71,79.99L177.53,80.65L177.59,80.65L179.29,83.7L179.34,83.24L179.8,84.28L179.96,82.97L180.11,83.24L180.16,83.28L181.81,85.91L181.86,85.99L183.82,90.59L183.87,90.28L184.59,89.7L184.65,89.78L184.7,89.81L185.06,88.92L185.63,90.7L185.68,90.82L185.99,90.55L186.86,91.98L186.91,91.09L187.02,89.97L187.53,91.44L187.58,91.63L189.39,93.91L189.44,94.11L189.54,93.8L190.11,94.45L190.16,94.61L190.31,92.87L190.93,93.41L190.98,93.53L192.17,95.46L192.32,95.11L192.38,95.23L193.66,98.01L193.72,97.74L195.98,100.22L196.04,99.4L196.09,99.13L196.45,100.14L196.71,99.79L196.76,99.95L197.84,100.64L197.89,100.18L199.95,102.42L200,101.96L200.31,100.87L200.83,101.26L200.88,101.38L201.34,101.61L201.39,101.14L201.45,100.53L202.73,102.27L202.79,102.19L202.84,102.19L203.35,101.84L203.51,102.27L203.56,102.38L206.03,106.33L206.44,105.86L206.5,105.36L206.7,105.09L208.82,107.87L208.97,107.56L209.02,106.95L209.85,107.56L209.9,106.98L211.65,110.08L211.7,109.5L212.47,110.15L212.53,109.38L213.81,110.7L213.87,110.74L216.7,115.07L216.75,114.52L217.68,115.34L217.73,114.68L217.89,114.49L218.45,115.07L218.5,114.41L219.69,115.68L219.74,115.1L220.62,115.03L220.67,114.68L221.65,116.3L221.75,115.14L221.8,115.18L223.97,118.01L224.02,118.2L224.89,116.81L224.95,116.92L227.26,118.39L227.32,118.39L228.6,120.02L228.66,120.02L230,121.25L230.05,120.71L231.13,122.49L231.18,122.53L231.44,121.76L232.11,122.76L232.16,122.1L234.12,123.3L234.17,123.3L235.61,125.39L235.66,125.47L237.67,127.94L237.73,127.98L239.27,129.41L239.32,129.41L239.43,129.8L239.58,129.03L240.1,129.57L240.15,129.65L242.78,132.35L242.83,132.35L245.25,134.32L245.3,134.52L248.81,136.57L248.86,136.72L249.94,137.5L249.99,137.53L251.43,139.08L251.49,139.16L252.46,140.05L252.52,140.09L253.03,140.71L253.34,140.09L253.39,140.09L255.4,142.56L255.45,142.64L264.42,150.06L264.47,150.06L265.66,151.11L265.71,151.26L266.69,152L266.74,152.07L268.39,152.89L268.44,152.89L270.86,153.7L270.91,153.7L273.28,154.9L273.34,155.09L275.5,157.06L275.55,157.06L279.16,159.89L279.21,159.89L280.55,160.62L280.6,160.7L282.3,161.43L282.35,161.47L285.81,164.26L285.86,164.26L287.2,164.95L287.25,165.03L289.98,165.76L290.03,165.84L294.52,168.43L294.57,168.43L297.61,169.17L297.66,169.21L300.19,170.44L300.24,170.48L302.71,170.95L302.76,170.95L304.15,171.6L304.2,171.6L306.68,172.34L306.73,172.38L308.43,173.07L308.48,173.15L314.41,175.16L314.46,175.28L317.19,176.55L317.24,176.55L320.03,177.29L320.08,177.48L322.29,178.84L322.34,178.95L323.63,179.57L323.68,179.57L325.33,180.34L325.39,180.34L327.29,181.08L327.34,181.12L329.77,181.81L329.82,181.97L331.67,182.43L331.72,182.43L333.94,183.17L333.99,183.2L340.23,185.41L340.28,185.49L341.72,186.34L341.77,186.34L347.6,188.12L347.65,188.12L353.11,189.86L353.16,189.86L355.17,190.59L355.22,190.63L356.36,191.13L356.41,191.13L361.87,193.26L361.92,193.26L367.49,195.27L367.54,195.35L369.76,196.08L369.81,196.08L373.26,196.82L373.31,196.86L375.27,197.59L375.32,197.63L379.91,198.33L379.96,198.4L383.62,199.14L383.67,199.29L388.26,201.03L388.31,201.03L391.35,201.81L391.4,201.81L394.7,202.5L394.75,202.62L415.05,206.41L415.11,206.41L416.91,206.83L416.96,206.83L421.34,207.53L421.39,207.8L424.74,208.34L424.79,208.57L426.49,208.92L426.55,208.92L433.3,210.08L433.35,210.08L434.74,210.24L434.79,210.24L437.78,210.97L437.83,211.16L441.54,211.9L441.59,211.98L446.75,212.71L446.8,212.94L448.4,213.29L448.45,213.29L452.62,214.03L452.67,214.06L457.26,214.8L457.31,214.84L465.2,215.57L465.25,215.65" style="vector-effect: non-scaling-stroke; fill: none; stroke: rgb(99, 110, 250); stroke-opacity: 1; stroke-width: 2px; opacity: 1;"/></g><g class="points"/><g class="text"/></g></g></g><g class="overplot"><g class="xy2" transform="translate(60,20)" clip-path="url(#clip264f43xy2plot)"><g class="scatterlayer mlayer"><g class="trace scatter trace3ccaee" style="stroke-miterlimit: 2; opacity: 1;"><g class="fills"/><g class="errorbars"/><g class="lines"><path class="js-line" d="M0,11.35L8.76,43.31L8.81,43.48L17.21,69.39L17.26,69.54L22.47,83.58L22.52,83.72L31.13,104.02L31.18,104.13L39.84,121.39L39.89,121.48L47.77,134.85L47.82,134.93L61.63,153.92L61.69,153.99L71.94,165.12L71.99,165.17L85.24,176.62L85.29,176.66L94.36,182.96L94.41,182.99L104.46,188.79L104.51,188.81L120.38,195.94L120.43,195.96L137.03,201.39L137.08,201.4L157.33,206.04L157.38,206.05L178.98,209.35L179.03,209.35L201.39,211.58L201.45,211.58L213.56,212.44L213.61,212.44L248.75,214.04L248.81,214.04L267.56,214.54L267.62,214.54L283.39,214.84L283.44,214.84L404.49,215.59L404.54,215.6L465.3,215.65" style="vector-effect: non-scaling-stroke; fill: none; stroke: rgb(239, 85, 59); stroke-opacity: 1; stroke-width: 2px; opacity: 1;"/></g><g class="points"/><g class="text"/></g></g></g></g><path class="xlines-above crisp" d="M0,0" style="fill: none;"/><path class="ylines-above crisp" d="M0,0" style="fill: none;"/><g class="overlines-above"><path class="xy2-x crisp" d="M0,0" style="fill: none;"/><path class="xy2-y crisp" d="M0,0" style="fill: none;"/></g><g class="xaxislayer-above"><g class="xtick"><text text-anchor="middle" x="0" y="260" transform="translate(60,0)" style="font-family: 'Open Sans', verdana, arial, sans-serif; font-size: 12px; fill: rgb(42, 63, 95); fill-opacity: 1; white-space: pre; opacity: 1;">0</text></g><g class="xtick"><text text-anchor="middle" x="0" y="260" style="font-family: 'Open Sans', verdana, arial, sans-serif; font-size: 12px; fill: rgb(42, 63, 95); fill-opacity: 1; white-space: pre; opacity: 1;" transform="translate(163.07,0)">2000</text></g><g class="xtick"><text text-anchor="middle" x="0" y="260" style="font-family: 'Open Sans', verdana, arial, sans-serif; font-size: 12px; fill: rgb(42, 63, 95); fill-opacity: 1; white-space: pre; opacity: 1;" transform="translate(266.14,0)">4000</text></g><g class="xtick"><text text-anchor="middle" x="0" y="260" style="font-family: 'Open Sans', verdana, arial, sans-serif; font-size: 12px; fill: rgb(42, 63, 95); fill-opacity: 1; white-space: pre; opacity: 1;" transform="translate(369.2,0)">6000</text></g><g class="xtick"><text text-anchor="middle" x="0" y="260" style="font-family: 'Open Sans', verdana, arial, sans-serif; font-size: 12px; fill: rgb(42, 63, 95); fill-opacity: 1; white-space: pre; opacity: 1;" transform="translate(472.27,0)">8000</text></g></g><g class="yaxislayer-above"><g class="ytick"><text text-anchor="end" x="59" y="4.199999999999999" transform="translate(0,229.27)" style="font-family: 'Open Sans', verdana, arial, sans-serif; font-size: 12px; fill: rgb(42, 63, 95); fill-opacity: 1; white-space: pre; opacity: 1;">32k</text></g><g class="ytick"><text text-anchor="end" x="59" y="4.199999999999999" style="font-family: 'Open Sans', verdana, arial, sans-serif; font-size: 12px; fill: rgb(42, 63, 95); fill-opacity: 1; white-space: pre; opacity: 1;" transform="translate(0,190.6)">34k</text></g><g class="ytick"><text text-anchor="end" x="59" y="4.199999999999999" style="font-family: 'Open Sans', verdana, arial, sans-serif; font-size: 12px; fill: rgb(42, 63, 95); fill-opacity: 1; white-space: pre; opacity: 1;" transform="translate(0,151.93)">36k</text></g><g class="ytick"><text text-anchor="end" x="59" y="4.199999999999999" style="font-family: 'Open Sans', verdana, arial, sans-serif; font-size: 12px; fill: rgb(42, 63, 95); fill-opacity: 1; white-space: pre; opacity: 1;" transform="translate(0,113.26)">38k</text></g><g class="ytick"><text text-anchor="end" x="59" y="4.199999999999999" style="font-family: 'Open Sans', verdana, arial, sans-serif; font-size: 12px; fill: rgb(42, 63, 95); fill-opacity: 1; white-space: pre; opacity: 1;" transform="translate(0,74.58)">40k</text></g><g class="ytick"><text text-anchor="end" x="59" y="4.199999999999999" style="font-family: 'Open Sans', verdana, arial, sans-serif; font-size: 12px; fill: rgb(42, 63, 95); fill-opacity: 1; white-space: pre; opacity: 1;" transform="translate(0,35.91)">42k</text></g></g><g class="overaxes-above"><g class="xy2-x"/><g class="xy2-y"><g class="y2tick"><text text-anchor="start" x="526.3" y="4.199999999999999" transform="translate(0,235.67)" style="font-family: 'Open Sans', verdana, arial, sans-serif; font-size: 12px; fill: rgb(42, 63, 95); fill-opacity: 1; white-space: pre; opacity: 1;">0</text></g><g class="y2tick"><text text-anchor="start" x="526.3" y="4.199999999999999" style="font-family: 'Open Sans', verdana, arial, sans-serif; font-size: 12px; fill: rgb(42, 63, 95); fill-opacity: 1; white-space: pre; opacity: 1;" transform="translate(0,184.59)">500</text></g><g class="y2tick"><text text-anchor="start" x="526.3" y="4.199999999999999" style="font-family: 'Open Sans', verdana, arial, sans-serif; font-size: 12px; fill: rgb(42, 63, 95); fill-opacity: 1; white-space: pre; opacity: 1;" transform="translate(0,133.51)">1000</text></g><g class="y2tick"><text text-anchor="start" x="526.3" y="4.199999999999999" style="font-family: 'Open Sans', verdana, arial, sans-serif; font-size: 12px; fill: rgb(42, 63, 95); fill-opacity: 1; white-space: pre; opacity: 1;" transform="translate(0,82.43)">1500</text></g><g class="y2tick"><text text-anchor="start" x="526.3" y="4.199999999999999" style="font-family: 'Open Sans', verdana, arial, sans-serif; font-size: 12px; fill: rgb(42, 63, 95); fill-opacity: 1; white-space: pre; opacity: 1;" transform="translate(0,31.35)">2000</text></g></g></g></g><g class="subplot xy2"/></g><g class="polarlayer"/><g class="smithlayer"/><g class="ternarylayer"/><g class="geolayer"/><g class="funnelarealayer"/><g class="pielayer"/><g class="iciclelayer"/><g class="treemaplayer"/><g class="sunburstlayer"/><g class="glimages"/><defs id="topdefs-264f43"><g class="clips"/><clipPath id="legend264f43"><rect width="123" height="48" x="0" y="0"/></clipPath></defs><g class="layer-above"><g class="imagelayer"/><g class="shapelayer"/></g><g class="infolayer"><g class="legend" pointer-events="all" transform="translate(564.9000000000001,20)"><rect class="bg" shape-rendering="crispEdges" width="123" height="48" x="0" y="0" style="stroke: rgb(68, 68, 68); stroke-opacity: 1; fill: rgb(255, 255, 255); fill-opacity: 1; stroke-width: 0px;"/><g class="scrollbox" transform="" clip-path="url(#legend264f43)"><g class="groups"><g class="traces" transform="translate(0,14.5)" style="opacity: 1;"><text class="legendtext" text-anchor="start" x="40" y="4.680000000000001" style="font-family: 'Open Sans', verdana, arial, sans-serif; font-size: 12px; fill: rgb(42, 63, 95); fill-opacity: 1; white-space: pre;">Cost</text><g class="layers" style="opacity: 1;"><g class="legendfill"/><g class="legendlines"><path class="js-line" d="M5,0h30" style="fill: none; stroke: rgb(99, 110, 250); stroke-opacity: 1; stroke-width: 2px;"/></g><g class="legendsymbols"><g class="legendpoints"/></g></g><rect class="legendtoggle" x="0" y="-9.5" width="117.265625" height="19" style="fill: rgb(0, 0, 0); fill-opacity: 0;"/></g><g class="traces" transform="translate(0,33.5)" style="opacity: 1;"><text class="legendtext" text-anchor="start" x="40" y="4.680000000000001" style="font-family: 'Open Sans', verdana, arial, sans-serif; font-size: 12px; fill: rgb(42, 63, 95); fill-opacity: 1; white-space: pre;">Temperature</text><g class="layers" style="opacity: 1;"><g class="legendfill"/><g class="legendlines"><path class="js-line" d="M5,0h30" style="fill: none; stroke: rgb(239, 85, 59); stroke-opacity: 1; stroke-width: 2px;"/></g><g class="legendsymbols"><g class="legendpoints"/></g></g><rect class="legendtoggle" x="0" y="-9.5" width="117.265625" height="19" style="fill: rgb(0, 0, 0); fill-opacity: 0;"/></g></g></g><rect class="scrollbar" rx="20" ry="3" width="0" height="0" x="0" y="0" style="fill: rgb(128, 139, 164); fill-opacity: 1;"/></g><g class="g-gtitle"/><g class="g-xtitle"><text class="xtitle" x="292.65" y="287.8" text-anchor="middle" style="font-family: 'Open Sans', verdana, arial, sans-serif; font-size: 14px; fill: rgb(42, 63, 95); opacity: 1; font-weight: normal; white-space: pre;">Iterations</text></g><g class="g-ytitle" transform="translate(2.1591796875,0)"><text class="ytitle" transform="rotate(-90,11.840625000000003,133.5)" x="11.840625000000003" y="133.5" text-anchor="middle" style="font-family: 'Open Sans', verdana, arial, sans-serif; font-size: 14px; fill: rgb(42, 63, 95); opacity: 1; font-weight: normal; white-space: pre;">Cost</text></g><g class="g-y2title"><text class="y2title" transform="rotate(-90,581.9875,133.5)" x="581.9875" y="133.5" text-anchor="middle" style="font-family: 'Open Sans', verdana, arial, sans-serif; font-size: 14px; fill: rgb(42, 63, 95); opacity: 1; font-weight: normal; white-space: pre;">Temperature</text></g></g></svg>