<svg class="main-svg" xmlns="http://www.w3.org/2000/svg" xmlns:xlink="http://www.w3.org/1999/xlink" width="700" height="300" style="" viewBox="0 0 700 300"><rect x="0" y="0" width="700" height="300" style="fill: rgb(255, 255, 255); fill-opacity: 1;"/><defs id="defs-52ff19"><g class="clips"><clipPath id="clip52ff19xyplot" class="plotclip"><rect width="448.38" height="227"/></clipPath><clipPath id="clip52ff19xy2plot" class="plotclip"><rect width="448.38" height="227"/></clipPath><clipPath class="axesclip" id="clip52ff19x"><rect x="78" y="0" width="448.38" height="300"/></clipPath><clipPath class="axesclip" id="clip52ff19y"><rect x="0" y="20" width="700" height="227"/></clipPath><clipPath class="axesclip" id="clip52ff19xy"><rect x="78" y="20" width="448.38" height="227"/></clipPath><clipPath class="axesclip" id="clip52ff19y2"><rect x="0" y="20" width="700" height="227"/></clipPath><clipPath class="axesclip" id="clip52ff19xy2"><rect x="78" y="20" width="448.38" height="227"/></clipPath></g><g class="gradients"/><g class="patterns"/></defs><g class="bglayer"><rect class="bg" x="78" y="20" width="448.38" height="227" style="fill: rgb(229, 236, 246); fill-opacity: 1; stroke-width: 0;"/></g><g class="layer-below"><g class="imagelayer"/><g class="shapelayer"/></g><g class="cartesianlayer"><g class="subplot xy"><g class="layer-subplot"><g class="shapelayer"/><g class="imagelayer"/></g><g class="gridlayer"><g class="x"><path class="xgrid crisp" transform="translate(186.57999999999998,0)" d="M0,20v227" style="stroke: rgb(255, 255, 255); stroke-opacity: 1; stroke-width: 1px;"/><path class="xgrid crisp" transform="translate(295.15999999999997,0)" d="M0,20v227" style="stroke: rgb(255, 255, 255); stroke-opacity: 1; stroke-width: 1px;"/><path class="xgrid crisp" transform="translate(403.74,0)" d="M0,20v227" style="stroke: rgb(255, 255, 255); stroke-opacity: 1; stroke-width: 1px;"/><path class="xgrid crisp" transform="translate(512.3199999999999,0)" d="M0,20v227" style="stroke: rgb(255, 255, 255); stroke-opacity: 1; stroke-width: 1px;"/></g><g class="y"><path class="ygrid crisp" transform="translate(0,213.19)" d="M78,0h448.38" style="stroke: rgb(255, 255, 255); stroke-opacity: 1; stroke-width: 1px;"/><path class="ygrid crisp" transform="translate(0,156.47)" d="M78,0h448.38" style="stroke: rgb(255, 255, 255); stroke-opacity: 1; stroke-width: 1px;"/><path class="ygrid crisp" transform="translate(0,99.75)" d="M78,0h448.38" style="stroke: rgb(255, 255, 255); stroke-opacity: 1; stroke-width: 1px;"/></g><g class="y2"><path class="y2grid crisp" transform="translate(0,184.61)" d="M78,0h448.38" style="stroke: rgb(255, 255, 255); stroke-opacity: 1; stroke-width: 1px;"/><path class="y2grid crisp" transform="translate(0,133.53)" d="M78,0h448.38" style="stroke: rgb(255, 255, 255); stroke-opacity: 1; stroke-width: 1px;"/><path class="y2grid crisp" transform="translate(0,82.44)" d="M78,0h448.38" style="stroke: rgb(255, 255, 255); stroke-opacity: 1; stroke-width: 1px;"/><path class="y2grid crisp" transform="translate(0,31.35)" d="M78,0h448.38" style="stroke: rgb(255, 255, 255); stroke-opacity: 1; stroke-width: 1px;"/></g></g><g class="zerolinelayer"><path class="xzl zl crisp" transform="translate(78,0)" d="M0,20v227" style="stroke: rgb(255, 255, 255); stroke-opacity: 1; stroke-width: 2px;"/><path class="yzl zl crisp" transform="translate(0,43.03)" d="M78,0h448.38" style="stroke: rgb(255, 255, 255); stroke-opacity: 1; stroke-width: 2px;"/><path class="y2zl zl crisp" transform="translate(0,235.7)" d="M78,0h448.38" style="stroke: rgb(255, 255, 255); stroke-opacity: 1; stroke-width: 2px;"/></g><path class="xlines-below"/><path class="ylines-below"/><g class="overlines-below"><path class="xy2-x"/><path class="xy2-y"/></g><g class="xaxislayer-below"/><g class="yaxislayer-below"/><g class="overaxes-below"><g class="xy2-x"/><g class="xy2-y"/></g><g class="plot" transform="translate(78,20)" clip-path="url(#clip52ff19xyplot)"><g class="scatterlayer mlayer"><g class="trace scatter tracebaa8e1" style="stroke-miterlimit: 2; opacity: 1;"><g class="fills"/><g class="errorbars"/><g class="lines"><path class="js-line" d="M0,19.06L0.49,27.34L0.81,23.49L0.87,21.56L0.98,19.86L1.25,23.94L1.47,22.69L1.52,25.53L1.63,29.27L1.79,20.88L2.12,24.51L2.17,18.61L2.44,28.03L2.88,18.38L2.93,16.68L3.8,28.93L3.85,27.68L4.07,29.73L4.94,17.82L4.99,18.61L5.05,18.84L5.7,26.32L5.86,23.03L5.92,21.67L6.3,28.59L6.35,27.57L6.41,21.56L6.89,18.72L7.17,28.93L7.22,28.14L7.27,26.66L7.49,19.06L7.87,28.48L8.09,22.35L8.14,25.19L8.25,19.74L8.79,28.37L8.96,21.45L9.01,21.56L9.56,29.39L9.61,22.01L9.66,20.99L9.77,18.16L10.04,23.49L10.1,20.88L10.15,17.59L10.8,29.16L11.02,22.58L11.08,20.77L11.4,18.38L11.67,27.8L11.84,23.94L11.89,23.49L12.16,32.11L12.65,19.52L12.7,19.74L12.76,14.98L13.36,23.71L13.41,22.13L13.46,23.37L13.52,25.64L13.9,14.87L14.12,21.67L14.17,18.5L14.5,16L14.88,31.2L14.98,21.67L15.04,20.08L15.15,21.56L15.36,15.89L15.42,11.35L16.23,25.98L16.29,23.49L16.34,20.65L16.4,20.88L16.45,19.63L16.5,20.2L16.56,23.83L16.83,26.1L16.88,20.08L17.16,24.74L17.21,24.4L17.92,17.59L18.08,19.86L18.13,22.13L18.46,18.16L18.84,30.41L18.89,25.19L18.95,20.65L19.16,15.77L19.33,23.6L19.6,22.92L19.65,23.37L19.76,27.12L20.14,21.33L20.2,24.17L20.25,20.42L20.36,19.4L20.85,27L20.96,24.96L21.01,20.99L21.77,30.97L21.99,26.78L22.04,27.8L22.58,28.37L22.8,21.67L22.91,22.58L22.96,25.19L23.24,26.32L23.45,19.18L23.72,24.05L23.78,25.42L24.05,27.23L24.43,17.25L24.59,19.29L24.65,22.24L24.81,28.14L24.97,19.74L25.24,24.62L25.3,25.64L25.68,17.59L25.95,27.23L26.11,21.56L26.17,19.86L26.55,31.88L26.93,28.14L26.98,25.08L27.04,25.53L27.14,22.35L27.2,20.31L27.31,19.52L27.36,23.49L27.42,27.34L28.12,14.87L28.18,18.5L28.23,24.05L28.61,21.22L28.99,28.03L29.05,27.34L29.1,27.57L29.64,18.27L29.86,23.94L29.91,25.53L30.35,20.99L30.57,27.8L30.62,24.28L30.73,21.67L30.89,26.89L30.95,28.14L31.38,18.04L31.71,22.58L31.76,25.42L32.19,22.01L32.52,29.73L32.57,28.71L32.63,27.68L32.85,28.48L33.17,21.56L33.5,23.6L33.55,24.28L34.2,26.21L34.37,19.63L34.42,20.08L34.58,19.18L34.8,30.63L35.23,28.37L35.29,26.1L35.61,26.44L35.72,19.97L36.05,24.74L36.1,23.49L36.37,29.61L36.86,24.85L36.92,24.4L37.03,20.42L37.24,27.68L37.51,26.32L37.57,29.5L37.68,30.07L38.06,23.15L38.44,25.76L38.49,25.53L38.98,24.62L39.25,29.95L39.31,25.19L39.52,27.57L39.85,21.45L39.9,21.45L39.96,21.9L40.17,27.8L40.72,24.85L40.77,22.35L41.31,21.22L41.53,28.14L41.59,25.98L41.69,30.97L42.02,23.6L42.35,27L42.4,27.57L42.62,23.94L42.94,30.29L43.05,28.14L43.11,25.42L43.49,23.49L43.92,31.66L43.97,27.68L44.41,21.9L44.68,25.64L44.73,27.8L44.84,19.52L45.28,30.52L45.33,33.24L45.44,33.81L45.98,17.59L46.31,24.96L46.36,26.89L46.69,30.97L46.96,24.96L47.02,26.1L47.07,26.1L47.29,22.81L47.56,28.71L47.61,31.2L47.88,24.28L48.26,33.36L48.32,33.36L48.43,34.94L48.75,30.07L48.81,30.75L48.86,28.14L49.02,33.24L49.13,29.39L49.19,27.57L49.62,18.27L49.89,28.03L49.95,29.05L50.6,21.9L50.65,26.1L50.71,29.5L50.98,31.2L51.14,26.66L51.2,27.57L51.25,26.78L51.52,28.03L52.01,18.61L52.06,19.52L52.12,20.08L52.39,16.45L52.88,25.53L52.93,22.24L52.99,21.33L53.2,30.18L53.75,23.6L53.8,24.62L54.18,30.41L54.45,24.74L54.51,21.9L54.72,24.85L54.78,28.82L54.94,24.85L55.27,32.11L55.43,32.11L55.48,32.45L56.35,24.4L56.41,27.57L56.62,28.48L57.28,15.21L57.44,16.11L57.49,15.77L57.55,13.73L57.93,21.67L58.04,20.42L58.09,24.51L58.42,22.24L58.69,29.84L58.85,27.46L58.9,26.44L59.28,19.74L59.61,24.62L59.66,28.37L59.99,33.24L60.32,29.73L60.37,26.89L60.42,28.82L60.64,24.4L61.02,24.4L61.08,23.15L61.46,18.16L61.67,26.21L61.73,27L61.84,27.46L61.94,25.53L62,25.76L62.05,24.05L62.7,28.03L62.81,25.98L62.87,25.76L62.92,24.28L63.46,29.84L63.52,29.5L63.57,29.95L63.63,25.42L63.74,26.1L63.79,24.05L64.33,22.81L64.71,30.41L64.77,30.97L64.93,33.47L65.26,22.01L65.42,28.37L65.47,25.76L65.69,20.77L65.75,16.91L66.78,29.84L66.83,29.05L66.94,30.29L67.05,27.34L67.1,23.26L67.21,26.55L67.27,27.34L67.32,29.39L67.65,18.72L67.92,25.3L67.97,23.15L68.19,20.42L68.62,31.09L68.79,26.44L68.84,24.74L68.89,25.3L69,21.33L69.27,23.71L69.33,21.45L69.71,28.25L69.98,22.35L70.03,20.54L71.01,32.68L71.07,32.45L71.12,29.05L71.23,26.66L71.66,35.06L71.99,31.31L72.04,30.07L72.31,28.14L72.64,34.26L72.8,32.11L72.86,32.11L72.97,33.58L73.02,31.66L73.07,27.23L73.89,36.76L74.21,33.36L74.27,32.34L74.54,31.66L74.81,38.01L74.97,32.9L75.03,31.88L75.08,29.84L75.63,35.17L75.73,31.43L75.79,33.02L75.84,33.7L76.01,28.37L76.22,32.68L76.28,29.16L76.39,29.27L76.82,21.56L77.15,22.81L77.2,25.3L77.25,23.6L77.63,28.14L77.91,26.32L77.96,27.46L78.23,27.12L78.61,30.18L78.72,28.03L78.77,27.91L79.1,33.13L79.59,32.79L79.64,30.63L79.97,33.47L80.13,27.23L80.4,31.43L80.46,30.75L81.54,37.44L81.6,36.87L81.65,37.89L82.09,33.36L82.14,33.7L82.19,33.24L82.57,28.03L82.95,30.41L83.01,30.07L83.12,34.83L83.39,28.82L83.71,29.39L83.77,29.61L84.04,32.68L84.26,28.37L84.42,29.73L84.48,27L85.13,33.81L85.34,32.56L85.4,33.13L85.94,38.57L86.16,34.83L86.21,33.13L86.38,31.31L86.59,35.74L86.65,39.48L86.7,39.71L86.76,37.1L86.81,36.65L87.52,29.16L87.62,32.22L87.68,32.56L88.06,41.75L88.28,31.66L88.38,33.92L88.44,34.15L88.71,38.35L88.98,36.31L89.04,32.9L89.25,32.11L89.52,35.06L89.58,34.04L89.63,35.06L89.69,35.29L89.74,34.15L89.8,34.6L89.85,37.67L90.07,33.02L90.5,36.53L90.56,38.35L91.21,31.09L91.37,32.68L91.42,33.58L91.53,31.54L92.02,36.31L92.08,36.53L92.73,43.79L93.16,42.43L93.22,39.14L93.38,33.24L94.03,36.08L94.08,36.76L94.14,37.78L94.25,32.45L94.57,33.92L94.63,31.54L94.95,35.06L95.12,29.5L95.55,33.7L95.6,33.92L95.66,33.58L95.88,34.94L95.93,36.42L95.98,36.87L96.31,33.47L96.36,32.56L96.85,38.23L97.07,32.45L97.23,38.01L97.29,36.42L97.56,33.02L97.61,35.51L97.67,38.57L98.05,34.04L98.43,37.1L98.48,37.78L98.59,35.97L98.92,39.82L99.08,38.46L99.13,36.87L99.19,34.26L99.78,39.6L99.84,40.84L100.11,45.27L100.33,40.28L100.65,42.09L100.71,39.03L100.82,40.28L101.09,36.87L101.2,38.69L101.25,34.72L101.41,32.9L102.12,43.68L102.39,41.75L102.44,39.26L103.1,36.87L103.21,37.67L103.26,38.69L103.31,38.35L103.64,41.07L103.69,41.86L104.02,42.09L104.56,38.35L104.62,39.71L104.73,41.86L104.83,37.55L105.16,38.01L105.21,36.53L105.38,39.37L105.76,35.63L105.97,37.67L106.03,38.23L106.14,38.12L106.57,45.95L107.01,43.45L107.06,42.43L107.22,43.45L107.33,41.3L107.39,41.64L107.44,40.39L108.2,49.35L108.36,46.52L108.42,43L108.58,44.59L108.8,40.28L108.85,39.14L108.91,36.42L109.5,42.77L109.56,44.81L109.72,41.64L110.26,47.54L110.32,44.81L110.43,46.4L110.7,43.57L110.91,44.02L110.97,43.57L111.08,44.02L111.84,38.35L111.89,40.05L111.95,37.78L112.38,44.36L112.49,43.68L112.54,43.91L113.03,45.95L113.09,42.66L113.25,43.68L113.3,43.91L113.47,45.83L113.57,43.11L113.95,43.45L114.01,41.98L114.12,41.86L114.17,43L114.39,42.09L114.93,46.86L114.99,46.18L115.04,44.47L115.26,39.94L115.75,42.09L115.8,43.68L115.85,44.02L116.02,40.39L116.07,40.96L116.13,39.94L116.61,41.07L116.94,33.02L116.99,33.24L117.05,35.17L118.08,45.27L118.35,43.79L118.41,41.98L118.51,44.25L118.68,39.26L119,39.37L119.06,39.48L119.49,44.7L119.55,45.27L119.6,45.49L119.65,42.55L119.71,41.18L119.93,39.37L120.63,45.61L120.69,43.11L120.74,45.15L120.96,41.86L121.39,41.98L121.45,41.3L121.56,39.6L121.94,44.59L122.21,41.75L122.26,39.37L122.32,37.44L122.8,44.13L122.86,44.59L123.18,44.13L123.4,45.95L123.56,45.38L123.62,43.57L123.89,46.63L124.11,42.66L124.43,44.7L124.49,45.04L124.7,45.95L124.87,45.83L124.92,43.34L125.36,38.35L125.57,41.75L125.63,43.68L125.84,41.18L126.6,49.01L126.66,49.24L127.42,46.06L127.53,46.97L127.58,47.54L127.64,47.88L127.69,45.95L128.07,47.08L128.12,45.15L128.78,49.69L128.99,48.67L129.05,48.78L129.43,53.55L129.7,52.07L129.75,49.01L129.86,48.22L130.02,50.15L130.13,50.15L130.19,50.37L130.3,50.6L130.4,48.78L130.46,45.95L130.78,44.7L130.95,47.31L131.16,47.2L131.22,48.33L131.87,44.59L132.09,46.06L132.14,47.42L132.47,49.92L132.58,45.72L133.01,48.56L133.06,45.61L133.39,48.9L133.55,45.95L133.61,43.45L134.15,49.01L134.58,47.65L134.64,46.63L135.78,55.82L135.83,54.8L135.89,55.7L136.21,50.49L136.27,50.6L136.32,50.71L136.38,49.81L136.76,54L136.86,53.66L136.92,54.57L137.57,57.07L137.79,56.72L137.84,54.91L138.11,57.63L138.44,57.18L138.49,52.19L138.66,49.24L139.25,50.15L139.31,50.71L139.9,45.04L140.34,45.49L140.39,45.95L141.53,54.46L141.59,52.87L141.7,53.89L141.97,51.62L142.13,51.62L142.19,50.26L142.57,49.01L142.78,51.39L142.84,52.19L143.43,55.48L143.49,52.53L143.54,51.39L143.65,45.61L144.3,49.69L144.36,49.81L145.33,58.2L145.5,54.34L145.55,53.32L145.66,47.88L146.26,53.55L146.31,54L146.47,54.8L146.58,50.49L146.64,51.17L146.69,49.01L147.18,51.28L147.51,51.05L147.56,48.9L149.35,59.11L149.41,58.31L149.51,59.33L149.68,57.63L150.06,58.09L150.11,57.29L150.22,54.23L150.55,57.52L150.82,57.07L150.87,57.41L151.79,63.08L151.9,61.26L151.96,61.49L152.17,63.53L152.34,60.13L152.39,60.35L152.45,58.31L152.61,60.35L152.83,53.32L152.88,53.55L153.04,55.48L153.21,52.3L153.26,52.53L153.31,49.58L153.48,51.17L153.64,47.88L154.13,50.83L154.18,50.94L154.35,50.6L154.83,55.25L154.89,54.91L154.94,55.93L155,56.38L155.11,53.44L155.54,54.91L155.59,55.02L156.3,60.47L156.63,60.01L156.68,59.67L157.06,61.94L157.49,57.07L157.6,58.2L157.66,58.43L157.82,58.31L158.42,60.92L158.63,60.7L158.69,57.18L158.74,58.31L158.91,54.57L159.4,57.63L159.45,57.29L160.43,61.26L160.64,60.81L160.7,58.77L161.95,64.55L162,62.51L163.2,66.48L163.25,65.23L163.85,66.25L163.96,61.15L164.06,62.51L164.12,62.62L165.04,66.48L165.1,67.05L165.42,64.78L165.91,68.3L165.96,68.41L166.18,67.61L166.78,72.27L166.83,71.13L166.89,69.54L167.1,70.56L167.16,68.98L167.43,70.22L167.48,68.86L167.76,70.11L167.97,68.07L168.19,68.86L168.24,68.98L168.68,71.93L168.73,69.32L168.79,67.84L168.84,65.69L169.55,67.39L169.6,67.84L169.82,67.5L170.14,69.43L170.2,66.03L170.25,66.48L170.52,63.76L170.63,64.55L170.69,63.3L170.74,62.06L171.18,65.46L171.28,65.46L171.34,66.03L171.56,67.5L171.66,65.23L171.72,63.76L172.53,67.84L172.7,66.37L172.75,65.57L173.02,65.23L173.73,68.86L173.78,66.93L174.05,63.76L174.54,65.57L174.6,65.69L174.7,63.87L176.22,70.9L176.28,70.22L176.33,68.75L176.5,67.73L176.88,68.98L176.93,67.73L177.85,70.68L177.96,70.56L178.02,68.52L180.03,75.67L180.08,74.31L180.84,70.68L180.95,70.9L181,72.04L181.17,72.95L181.22,69.88L181.65,72.38L181.71,70.56L181.87,69.77L182.31,72.61L182.58,71.81L182.63,70.56L182.96,68.86L183.23,71.24L183.39,70.34L183.45,70.56L184.91,76.92L184.97,75.9L185.02,76.12L185.13,73.29L185.18,74.31L185.24,73.17L185.83,74.76L186.11,74.31L186.16,74.53L186.49,74.08L186.65,75.56L186.7,76.8L187.03,78.16L187.52,77.94L187.57,75.9L187.68,75.1L188.11,77.37L188.17,77.6L189.53,82.93L189.58,82.02L189.63,82.7L190.23,80.66L190.29,81.34L191.05,86.56L191.1,87.13L191.64,89.73L191.97,89.05L192.02,87.01L192.13,85.2L192.73,86.56L192.78,86.79L192.95,87.13L193,85.31L193.05,85.42L193.11,84.97L193.22,82.82L193.81,84.97L193.87,85.31L194.03,84.74L194.79,87.35L194.85,86.45L195.5,83.38L195.71,83.61L195.77,84.63L195.82,85.42L196.26,82.59L196.42,83.16L196.48,82.25L196.53,82.82L196.86,79.64L197.18,82.25L197.24,80.89L197.72,73.51L198.16,77.26L198.21,77.48L198.43,78.39L198.65,76.12L198.7,76.12L198.76,74.19L199.35,77.48L199.57,76.92L199.62,75.44L201.52,83.95L201.58,83.27L202.39,85.65L202.45,86.22L202.5,86.67L202.66,83.27L202.88,84.29L202.94,83.72L203.48,81.91L203.7,83.27L203.75,82.82L204.24,86.45L204.62,84.74L204.67,84.74L205,84.06L205.49,86.33L205.54,84.86L205.65,85.54L205.76,83.16L206.08,83.27L206.14,83.5L206.74,85.99L206.79,86.33L206.84,85.76L207.33,88.03L207.39,88.6L207.44,89.05L207.88,86.33L207.93,86.33L208.04,86.9L208.26,84.52L208.58,85.99L208.64,84.4L209.07,86.22L209.23,85.88L209.29,84.74L209.94,83.04L210.05,83.95L210.1,84.29L210.97,87.69L211.02,86.22L211.89,89.96L212.11,89.62L212.16,88.15L212.22,87.69L212.76,88.94L212.82,89.05L213.41,91.1L213.47,91.32L214.06,94.95L214.34,94.61L214.39,94.61L215.69,100.28L215.97,98.7L216.02,96.43L216.62,98.02L216.67,98.58L217.16,97.9L217.49,98.92L217.54,98.13L218.3,101.99L218.52,100.62L218.57,100.62L219.71,103.35L219.87,102.1L219.93,102.1L219.98,101.42L220.42,103.69L220.53,103.69L220.58,103.69L221.77,109.25L221.83,109.25L222.05,109.36L222.1,107.88L222.86,109.7L222.91,110.38L223.19,111.17L223.24,109.81L223.35,108.91L224.22,110.83L224.27,110.95L224.76,111.63L224.81,110.95L224.87,109.13L226.06,111.74L226.12,109.93L226.61,108.23L226.93,109.36L226.99,109.47L227.2,108.34L227.64,110.04L227.69,110.04L227.85,108.91L228.56,111.4L228.61,111.4L228.72,111.51L228.78,110.27L228.94,108.23L229.43,110.15L229.48,110.27L229.92,111.97L230.19,110.72L230.24,110.72L231.38,114.12L231.44,113.44L231.71,112.2L232.09,114.01L232.14,114.24L232.63,115.71L232.69,114.01L232.96,113.78L234.26,116.73L234.32,115.83L235.51,117.53L235.56,116.17L236.11,112.2L236.65,113.1L236.7,113.1L238.5,115.83L238.55,116.05L238.6,114.92L239.31,115.71L239.36,115.71L240.61,119.57L240.67,119.91L241.75,122.06L241.81,120.14L241.97,120.25L242.02,119.34L242.08,117.87L243.11,120.36L243.16,120.36L243.33,119.8L244.09,121.16L244.14,121.16L245.01,121.61L245.06,119.91L246.2,123.31L246.26,122.63L246.42,121.84L247.51,123.31L247.56,121.04L249.68,124.45L249.73,124.56L251.2,126.26L251.25,125.47L252.45,127.06L252.5,126.15L252.56,126.15L254.19,130.23L254.24,130.23L255.27,131.59L255.33,131.71L257.55,135L257.61,134.09L258.42,135L258.47,135L259.78,135.56L259.83,135.79L260.21,136.13L260.27,136.58L262.38,139.31L262.44,138.4L262.87,138.97L262.93,138.06L263.09,138.06L263.14,138.06L265.97,142.26L266.02,142.26L267.05,143.5L267.11,143.5L268.95,145.21L269.01,145.32L271.23,148.95L271.29,149.18L272.26,150.31L272.32,150.31L273.46,150.99L273.51,151.22L274.98,152.58L275.03,152.58L278.29,156.1L278.34,156.21L282.14,159.39L282.2,159.39L283.83,160.41L283.88,160.41L285.73,160.97L285.78,161.2L286.98,161.88L287.03,161.99L287.84,162.56L287.9,162.79L289.64,163.24L289.69,163.7L290.45,164.38L290.51,164.49L291.37,165.17L291.43,165.17L293.87,166.65L293.93,166.65L295.12,167.44L295.17,167.44L296.97,167.89L297.02,168.23L299.08,169.48L299.14,169.48L300.22,170.16L300.28,170.28L301.25,170.73L301.31,171.07L303.05,171.75L303.1,171.75L304.67,172.43L304.73,172.54L305.76,173.68L305.81,173.68L306.74,174.02L306.79,174.59L309.07,175.83L309.13,175.83L311.9,176.51L311.95,176.63L313.85,177.31L313.9,177.42L316.24,178.1L316.29,178.44L317.27,179.12L317.32,179.12L319.82,179.69L319.88,179.92L320.69,180.26L320.74,180.26L321.94,181.85L321.99,181.85L324.22,182.53L324.27,182.64L325.74,183.09L325.79,183.09L327.15,183.66L327.21,183.89L329,184.57L329.05,184.8L333.72,185.48L333.77,185.59L334.81,186.72L334.86,186.72L338.88,187.06L338.93,187.52L341.1,188.2L341.16,188.31L342.95,188.99L343,189.11L346.42,189.79L346.48,190.01L347.24,190.69L347.29,190.81L348.87,191.37L348.92,191.37L352.45,192.06L352.5,192.17L355.6,193.3L355.65,193.3L357.01,193.76L357.06,193.76L362.28,194.44L362.33,194.55L363.96,194.78L364.01,194.78L366.4,195.46L366.46,195.57L369.23,196.71L369.28,196.71L372.16,197.39L372.21,197.5L373.19,198.75L373.24,198.75L374.44,198.97L374.49,198.97L376.55,200.11L376.61,200.11L380.08,200.79L380.14,200.9L382.36,201.58L382.42,201.7L385.4,202.15L385.46,202.49L387.09,203.06L387.14,203.06L390.72,203.63L390.78,203.85L393.44,204.42L393.49,204.65L395.83,205.33L395.88,205.55L397.94,206.23L398,206.35L401.8,207.03L401.85,207.14L403.32,207.26L403.37,207.26L407.12,207.94L407.17,208.05L412.22,208.73L412.28,208.84L415.53,209.41L415.59,209.64L418.14,210.32L418.19,210.43L424.6,211.11L424.66,211.23L426.45,211.79L426.5,212.02L428.24,212.81L428.29,212.81L436.06,213.49L436.11,213.72L439.48,214.4L439.53,214.52L445.01,215.2L445.07,215.31L448.38,215.65" style="vector-effect: non-scaling-stroke; fill: none; stroke: rgb(99, 110, 250); stroke-opacity: 1; stroke-width: 2px; opacity: 1;"/></g><g class="points"/><g class="text"/></g></g></g><g class="overplot"><g class="xy2" transform="translate(78,20)" clip-path="url(#clip52ff19xy2plot)"><g class="scatterlayer mlayer"><g class="trace scatter trace298bc0" style="stroke-miterlimit: 2; opacity: 1;"><g class="fills"/><g class="errorbars"/><g class="lines"><path class="js-line" d="M0,11.35L6.73,35.19L6.79,35.37L12.92,54.65L12.98,54.81L19.27,72.44L19.33,72.58L24.27,85.04L24.32,85.17L34.91,108.31L34.96,108.41L44.14,125.1L44.19,125.19L52.44,137.96L52.5,138.04L61.89,150.38L61.94,150.45L73.45,162.92L73.51,162.97L83.17,171.58L83.23,171.62L94.95,180.19L95.01,180.22L105.05,186.22L105.11,186.25L116.67,191.9L116.72,191.92L127.85,196.33L127.91,196.35L141.37,200.6L141.43,200.62L153.69,203.67L153.75,203.68L167.92,206.45L167.97,206.46L216.62,211.93L216.67,211.93L262.76,214.09L262.82,214.09L282.8,214.59L282.85,214.59L344.41,215.34L344.47,215.35L448.38,215.65" style="vector-effect: non-scaling-stroke; fill: none; stroke: rgb(239, 85, 59); stroke-opacity: 1; stroke-width: 2px; opacity: 1;"/></g><g class="points"/><g class="text"/></g></g></g></g><path class="xlines-above crisp" d="M0,0" style="fill: none;"/><path class="ylines-above crisp" d="M0,0" style="fill: none;"/><g class="overlines-above"><path class="xy2-x crisp" d="M0,0" style="fill: none;"/><path class="xy2-y crisp" d="M0,0" style="fill: none;"/></g><g class="xaxislayer-above"><g class="xtick"><text text-anchor="middle" x="0" y="260" transform="translate(78,0)" style="font-family: 'Open Sans', verdana, arial, sans-serif; font-size: 12px; fill: rgb(42, 63, 95); fill-opacity: 1; white-space: pre; opacity: 1;">0</text></g><g class="xtick"><text text-anchor="middle" x="0" y="260" style="font-family: 'Open Sans', verdana, arial, sans-serif; font-size: 12px; fill: rgb(42, 63, 95); fill-opacity: 1; white-space: pre; opacity: 1;" transform="translate(186.57999999999998,0)">2000</text></g><g class="xtick"><text text-anchor="middle" x="0" y="260" style="font-family: 'Open Sans', verdana, arial, sans-serif; font-size: 12px; fill: rgb(42, 63, 95); fill-opacity: 1; white-space: pre; opacity: 1;" transform="translate(295.15999999999997,0)">4000</text></g><g class="xtick"><text text-anchor="middle" x="0" y="260" style="font-family: 'Open Sans', verdana, arial, sans-serif; font-size: 12px; fill: rgb(42, 63, 95); fill-opacity: 1; white-space: pre; opacity: 1;" transform="translate(403.74,0)">6000</text></g><g class="xtick"><text text-anchor="middle" x="0" y="260" style="font-family: 'Open Sans', verdana, arial, sans-serif; font-size: 12px; fill: rgb(42, 63, 95); fill-opacity: 1; white-space: pre; opacity: 1;" transform="translate(512.3199999999999,0)">8000</text></g></g><g class="yaxislayer-above"><g class="ytick"><text text-anchor="end" x="77" y="4.199999999999999" transform="translate(0,213.19)" style="font-family: 'Open Sans', verdana, arial, sans-serif; font-size: 12px; fill: rgb(42, 63, 95); fill-opacity: 1; white-space: pre; opacity: 1;">−3000</text></g><g class="ytick"><text text-anchor="end" x="77" y="4.199999999999999" style="font-family: 'Open Sans', verdana, arial, sans-serif; font-size: 12px; fill: rgb(42, 63, 95); fill-opacity: 1; white-space: pre; opacity: 1;" transform="translate(0,156.47)">−2000</text></g><g class="ytick"><text text-anchor="end" x="77" y="4.199999999999999" style="font-family: 'Open Sans', verdana, arial, sans-serif; font-size: 12px; fill: rgb(42, 63, 95); fill-opacity: 1; white-space: pre; opacity: 1;" transform="translate(0,99.75)">−1000</text></g><g class="ytick"><text text-anchor="end" x="77" y="4.199999999999999" style="font-family: 'Open Sans', verdana, arial, sans-serif; font-size: 12px; fill: rgb(42, 63, 95); fill-opacity: 1; white-space: pre; opacity: 1;" transform="translate(0,43.03)">0</text></g></g><g class="overaxes-above"><g class="xy2-x"/><g class="xy2-y"><g class="y2tick"><text text-anchor="start" x="527.38" y="4.199999999999999" transform="translate(0,235.7)" style="font-family: 'Open Sans', verdana, arial, sans-serif; font-size: 12px; fill: rgb(42, 63, 95); fill-opacity: 1; white-space: pre; opacity: 1;">0</text></g><g class="y2tick"><text text-anchor="start" x="527.38" y="4.199999999999999" style="font-family: 'Open Sans', verdana, arial, sans-serif; font-size: 12px; fill: rgb(42, 63, 95); fill-opacity: 1; white-space: pre; opacity: 1;" transform="translate(0,184.61)">500</text></g><g class="y2tick"><text text-anchor="start" x="527.38" y="4.199999999999999" style="font-family: 'Open Sans', verdana, arial, sans-serif; font-size: 12px; fill: rgb(42, 63, 95); fill-opacity: 1; white-space: pre; opacity: 1;" transform="translate(0,133.53)">1000</text></g><g class="y2tick"><text text-anchor="start" x="527.38" y="4.199999999999999" style="font-family: 'Open Sans', verdana, arial, sans-serif; font-size: 12px; fill: rgb(42, 63, 95); fill-opacity: 1; white-space: pre; opacity: 1;" transform="translate(0,82.44)">1500</text></g><g class="y2tick"><text text-anchor="start" x="527.38" y="4.199999999999999" style="font-family: 'Open Sans', verdana, arial, sans-serif; font-size: 12px; fill: rgb(42, 63, 95); fill-opacity: 1; white-space: pre; opacity: 1;" transform="translate(0,31.35)">2000</text></g></g></g></g><g class="subplot xy2"/></g><g class="polarlayer"/><g class="smithlayer"/><g class="ternarylayer"/><g class="geolayer"/><g class="funnelarealayer"/><g class="pielayer"/><g class="iciclelayer"/><g class="treemaplayer"/><g class="sunburstlayer"/><g class="glimages"/><defs id="topdefs-52ff19"><g class="clips"/><clipPath id="legend52ff19"><rect width="123" height="48" x="0" y="0"/></clipPath></defs><g class="layer-above"><g class="imagelayer"/><g class="shapelayer"/></g><g class="infolayer"><g class="legend" pointer-events="all" transform="translate(564.54,20)"><rect class="bg" shape-rendering="crispEdges" width="123" height="48" x="0" y="0" style="stroke: rgb(68, 68, 68); stroke-opacity: 1; fill: rgb(255, 255, 255); fill-opacity: 1; stroke-width: 0px;"/><g class="scrollbox" transform="" clip-path="url(#legend52ff19)"><g class="groups"><g class="traces" transform="translate(0,14.5)" style="opacity: 1;"><text class="legendtext" text-anchor="start" x="40" y="4.680000000000001" style="font-family: 'Open Sans', verdana, arial, sans-serif; font-size: 12px; fill: rgb(42, 63, 95); fill-opacity: 1; white-space: pre;">Cost</text><g class="layers" style="opacity: 1;"><g class="legendfill"/><g class="legendlines"><path class="js-line" d="M5,0h30" style="fill: none; stroke: rgb(99, 110, 250); stroke-opacity: 1; stroke-width: 2px;"/></g><g class="legendsymbols"><g class="legendpoints"/></g></g><rect class="legendtoggle" x="0" y="-9.5" width="117.265625" height="19" style="fill: rgb(0, 0, 0); fill-opacity: 0;"/></g><g class="traces" transform="translate(0,33.5)" style="opacity: 1;"><text class="legendtext" text-anchor="start" x="40" y="4.680000000000001" style="font-family: 'Open Sans', verdana, arial, sans-serif; font-size: 12px; fill: rgb(42, 63, 95); fill-opacity: 1; white-space: pre;">Temperature</text><g class="layers" style="opacity: 1;"><g class="legendfill"/><g class="legendlines"><path class="js-line" d="M5,0h30" style="fill: none; stroke: rgb(239, 85, 59); stroke-opacity: 1; stroke-width: 2px;"/></g><g class="legendsymbols"><g class="legendpoints"/></g></g><rect class="legendtoggle" x="0" y="-9.5" width="117.265625" height="19" style="fill: rgb(0, 0, 0); fill-opacity: 0;"/></g></g></g><rect class="scrollbar" rx="20" ry="3" width="0" height="0" x="0" y="0" style="fill: rgb(128, 139, 164); fill-opacity: 1;"/></g><g class="g-gtitle"/><g class="g-xtitle"><text class="xtitle" x="302.19" y="287.8" text-anchor="middle" style="font-family: 'Open Sans', verdana, arial, sans-serif; font-size: 14px; fill: rgb(42, 63, 95); opacity: 1; font-weight: normal; white-space: pre;">Iterations</text></g><g class="g-ytitle" transform="translate(2.1435546875,0)"><text class="ytitle" transform="rotate(-90,11.856250000000003,133.5)" x="11.856250000000003" y="133.5" text-anchor="middle" style="font-family: 'Open Sans', verdana, arial, sans-serif; font-size: 14px; fill: rgb(42, 63, 95); opacity: 1; font-weight: normal; white-space: pre;">Cost</text></g><g class="g-y2title"><text class="y2title" transform="rotate(-90,583.08125,133.5)" x="583.08125" y="133.5" text-anchor="middle" style="font-family: 'Open Sans', verdana, arial, sans-serif; font-size: 14px; fill: rgb(42, 63, 95); opacity: 1; font-weight: normal; white-space: pre;">Temperature</text></g></g></svg>