<svg class="main-svg" xmlns="http://www.w3.org/2000/svg" xmlns:xlink="http://www.w3.org/1999/xlink" width="700" height="300" style="" viewBox="0 0 700 300"><rect x="0" y="0" width="700" height="300" style="fill: rgb(255, 255, 255); fill-opacity: 1;"/><defs id="defs-5cbf61"><g class="clips"><clipPath id="clip5cbf61xyplot" class="plotclip"><rect width="455.9" height="227"/></clipPath><clipPath id="clip5cbf61xy2plot" class="plotclip"><rect width="455.9" height="227"/></clipPath><clipPath class="axesclip" id="clip5cbf61x"><rect x="70" y="0" width="455.9" height="300"/></clipPath><clipPath class="axesclip" id="clip5cbf61y"><rect x="0" y="20" width="700" height="227"/></clipPath><clipPath class="axesclip" id="clip5cbf61xy"><rect x="70" y="20" width="455.9" height="227"/></clipPath><clipPath class="axesclip" id="clip5cbf61y2"><rect x="0" y="20" width="700" height="227"/></clipPath><clipPath class="axesclip" id="clip5cbf61xy2"><rect x="70" y="20" width="455.9" height="227"/></clipPath></g><g class="gradients"/><g class="patterns"/></defs><g class="bglayer"><rect class="bg" x="70" y="20" width="455.9" height="227" style="fill: rgb(229, 236, 246); fill-opacity: 1; stroke-width: 0;"/></g><g class="layer-below"><g class="imagelayer"/><g class="shapelayer"/></g><g class="cartesianlayer"><g class="subplot xy"><g class="layer-subplot"><g class="shapelayer"/><g class="imagelayer"/></g><g class="gridlayer"><g class="x"><path class="xgrid crisp" transform="translate(152.76,0)" d="M0,20v227" style="stroke: rgb(255, 255, 255); stroke-opacity: 1; stroke-width: 1px;"/><path class="xgrid crisp" transform="translate(235.51,0)" d="M0,20v227" style="stroke: rgb(255, 255, 255); stroke-opacity: 1; stroke-width: 1px;"/><path class="xgrid crisp" transform="translate(318.27,0)" d="M0,20v227" style="stroke: rgb(255, 255, 255); stroke-opacity: 1; stroke-width: 1px;"/><path class="xgrid crisp" transform="translate(401.02,0)" d="M0,20v227" style="stroke: rgb(255, 255, 255); stroke-opacity: 1; stroke-width: 1px;"/><path class="xgrid crisp" transform="translate(483.78,0)" d="M0,20v227" style="stroke: rgb(255, 255, 255); stroke-opacity: 1; stroke-width: 1px;"/></g><g class="y"><path class="ygrid crisp" transform="translate(0,224.89)" d="M70,0h455.9" style="stroke: rgb(255, 255, 255); stroke-opacity: 1; stroke-width: 1px;"/><path class="ygrid crisp" transform="translate(0,186.82)" d="M70,0h455.9" style="stroke: rgb(255, 255, 255); stroke-opacity: 1; stroke-width: 1px;"/><path class="ygrid crisp" transform="translate(0,148.75)" d="M70,0h455.9" style="stroke: rgb(255, 255, 255); stroke-opacity: 1; stroke-width: 1px;"/><path class="ygrid crisp" transform="translate(0,110.68)" d="M70,0h455.9" style="stroke: rgb(255, 255, 255); stroke-opacity: 1; stroke-width: 1px;"/><path class="ygrid crisp" transform="translate(0,72.61)" d="M70,0h455.9" style="stroke: rgb(255, 255, 255); stroke-opacity: 1; stroke-width: 1px;"/></g><g class="y2"><path class="y2grid crisp" transform="translate(0,184.58)" d="M70,0h455.9" style="stroke: rgb(255, 255, 255); stroke-opacity: 1; stroke-width: 1px;"/><path class="y2grid crisp" transform="translate(0,133.5)" d="M70,0h455.9" style="stroke: rgb(255, 255, 255); stroke-opacity: 1; stroke-width: 1px;"/><path class="y2grid crisp" transform="translate(0,82.43)" d="M70,0h455.9" style="stroke: rgb(255, 255, 255); stroke-opacity: 1; stroke-width: 1px;"/><path class="y2grid crisp" transform="translate(0,31.35)" d="M70,0h455.9" style="stroke: rgb(255, 255, 255); stroke-opacity: 1; stroke-width: 1px;"/></g></g><g class="zerolinelayer"><path class="xzl zl crisp" transform="translate(70,0)" d="M0,20v227" style="stroke: rgb(255, 255, 255); stroke-opacity: 1; stroke-width: 2px;"/><path class="yzl zl crisp" transform="translate(0,34.54)" d="M70,0h455.9" style="stroke: rgb(255, 255, 255); stroke-opacity: 1; stroke-width: 2px;"/><path class="y2zl zl crisp" transform="translate(0,235.65)" d="M70,0h455.9" style="stroke: rgb(255, 255, 255); stroke-opacity: 1; stroke-width: 2px;"/></g><path class="xlines-below"/><path class="ylines-below"/><g class="overlines-below"><path class="xy2-x"/><path class="xy2-y"/></g><g class="xaxislayer-below"/><g class="yaxislayer-below"/><g class="overaxes-below"><g class="xy2-x"/><g class="xy2-y"/></g><g class="plot" transform="translate(70,20)" clip-path="url(#clip5cbf61xyplot)"><g class="scatterlayer mlayer"><g class="trace scatter trace852a5e" style="stroke-miterlimit: 2; opacity: 1;"><g class="fills"/><g class="errorbars"/><g class="lines"><path class="js-line" d="M0,11.35L0.91,17.91L0.99,15.71L1.08,13.24L1.32,12.24L1.57,15.83L1.74,14.14L1.82,14.26L1.9,11.73L2.15,16.16L2.48,14.46L2.57,15.01L2.9,12.28L3.39,13.5L3.48,14.8L3.72,15.99L4.14,12.77L4.3,12.87L4.39,13.54L4.55,14.08L4.63,11.51L5.05,16.28L5.46,14.19L5.54,13.97L6.37,17.42L6.45,15.82L6.54,14.86L6.62,13.5L7.2,16.31L7.28,16.67L7.45,15.84L7.53,18.13L7.61,17.75L7.94,19.69L8.03,20.97L8.85,12.56L9.02,15.05L9.1,15L9.6,14.65L10.01,16.87L10.18,16.53L10.26,14.66L10.43,11.51L10.84,15.87L10.92,17.42L11.01,17.83L11.25,16.72L11.34,17.06L11.42,15.72L11.67,14.01L12,16.06L12.08,16.47L13.24,19.15L13.32,17.4L13.57,18L13.65,16.76L14.07,18.41L14.32,17.87L14.4,16.89L14.73,15.95L15.14,18.59L15.23,18.42L15.31,17.49L15.39,16.56L15.72,18.8L15.97,17.07L16.05,18.01L16.22,17.57L16.8,20.56L16.88,19.1L16.96,18.85L17.71,21.09L17.88,20.25L17.96,20.4L18.12,21.4L18.62,20.2L18.7,20.58L18.79,20.6L19.36,16.54L19.7,16.73L19.78,16.73L21.6,23.31L21.68,23.29L21.76,22.31L22.18,23.68L22.26,23.97L22.34,23.67L22.76,24.83L22.84,25.38L23.75,26.37L23.83,25.33L23.92,23.81L24.25,26.08L24.58,25.23L24.66,25.24L25.24,26.59L25.57,26.25L25.65,25.41L25.82,26.3L26.07,24.39L26.4,25.76L26.48,25.81L27.72,28.32L27.81,27.39L28.88,29.33L28.96,28.53L29.13,27.95L29.46,29.28L29.54,29.69L30.04,29.43L31.03,31.44L31.12,30.72L32.27,33.19L32.36,32.6L32.44,31.92L33.93,35.33L34.26,34.51L34.34,34.53L37.9,41.59L38.07,41.37L38.15,40.43L39.14,41.81L39.31,41.27L39.39,41.33L47.67,54.99L47.75,55.37L49.49,58.16L49.57,58.26L51.31,60.38L51.39,60.63L52.8,61.99L52.88,62.27L57.6,69.06L57.68,69.1L60.08,71.82L60.16,71.83L61.9,73.77L61.98,73.82L62.98,75.48L63.06,75.6L64.38,77.25L64.47,77.33L68.69,82.16L68.77,82.18L72.82,86.36L72.91,86.66L74.31,88.64L74.4,88.72L76.47,90.35L76.55,90.38L80.77,94.3L80.85,94.31L84.74,97.74L84.82,97.75L85.49,98.55L85.57,98.69L87.56,100.46L87.64,100.61L96.16,108.03L96.24,108.26L97.9,109.35L97.98,109.45L99.14,110.74L99.22,110.74L100.22,111.54L100.3,111.8L101.46,112.69L101.54,112.84L103.11,114.18L103.2,114.42L105.84,116.36L105.93,116.36L107.75,117.68L107.83,118.02L108.91,118.89L108.99,118.93L111.06,120.14L111.14,120.28L111.97,120.99L112.05,121.06L113.79,121.77L113.87,122.08L117.18,124.57L117.26,124.57L118.92,126.16L119,126.18L122.15,128.42L122.23,128.67L129.18,133.06L129.26,133.06L131.66,134.67L131.75,134.67L132.41,135.47L132.49,135.66L142.92,140.11L143,140.29L144.08,140.96L144.16,141.15L148.38,142.81L148.46,143L150.78,145.12L150.86,145.12L152.1,145.87L152.19,145.87L153.76,146.6L153.84,146.65L156.99,148.43L157.07,148.46L159.8,149.49L159.88,149.74L162.86,150.92L162.95,151.17L171.3,154.89L171.39,154.89L172.88,155.67L172.96,155.94L174.03,156.67L174.12,156.67L178.5,158.46L178.59,158.46L179.83,158.79L179.91,158.79L181.9,159.47L181.98,159.76L182.72,160.61L182.81,160.7L184.96,161.26L185.04,161.53L189.26,163.52L189.34,163.52L190.5,164.03L190.59,164.35L191.5,164.8L191.58,164.8L193.07,165.32L193.15,165.32L197.04,166.81L197.12,167L200.27,167.63L200.35,168.01L203,169.21L203.08,169.3L203.99,169.59L204.08,169.59L205.9,170.29L205.98,170.35L207.14,170.94L207.22,170.94L208.96,172.17L209.04,172.19L210.45,172.85L210.53,172.95L217.81,175.43L217.9,175.43L220.13,176.18L220.21,176.19L224.76,176.94L224.85,176.95L228.16,177.69L228.24,177.74L231.05,178.59L231.14,178.76L234.12,179.48L234.2,179.52L237.01,180.27L237.09,180.41L241.32,181.13L241.4,181.17L243.63,181.8L243.71,181.8L263.08,185.7L263.16,185.7L265.89,186.4L265.98,186.51L269.87,188.07L269.95,188.22L271.19,188.91L271.27,188.99L272.6,189.59L272.68,189.59L276.82,190.34L276.9,190.36L279.3,191.18L279.38,191.37L287.08,192.61L287.16,192.61L290.97,193.33L291.05,193.42L299.33,194.48L299.41,194.86L304.46,195.61L304.54,195.68L307.52,196.49L307.6,196.6L312.32,197.27L312.4,197.4L317.28,198.11L317.37,198.39L321.42,199.1L321.51,199.39L325.39,200.09L325.48,200.24L350.22,202.34L350.3,202.68L353.12,202.9L353.2,202.9L360.48,203.57L360.57,203.69L362.06,203.94L362.14,203.94L370.91,205.13L370.99,205.28L376.04,205.9L376.12,206.11L382,206.85L382.08,207.09L387.38,207.66L387.46,207.85L390.44,208.56L390.52,208.63L396.81,209.34L396.9,209.4L401.53,210.15L401.61,210.19L406.74,210.91L406.83,210.99L434.22,213.88L434.3,213.88L446.8,214.55L446.88,214.64L453.09,215.37L453.17,215.51L455.9,215.65" style="vector-effect: non-scaling-stroke; fill: none; stroke: rgb(99, 110, 250); stroke-opacity: 1; stroke-width: 2px; opacity: 1;"/></g><g class="points"/><g class="text"/></g></g></g><g class="overplot"><g class="xy2" transform="translate(70,20)" clip-path="url(#clip5cbf61xy2plot)"><g class="scatterlayer mlayer"><g class="trace scatter trace74b639" style="stroke-miterlimit: 2; opacity: 1;"><g class="fills"/><g class="errorbars"/><g class="lines"><path class="js-line" d="M0,11.35L3.89,75.59L3.97,76.71L9.02,130.53L9.1,131.21L14.23,164.33L14.32,164.74L18.12,180.47L18.21,180.75L22.1,191.72L22.18,191.91L26.23,199.64L26.32,199.77L30.7,205.27L30.79,205.36L35.83,209.34L35.92,209.39L41.54,212.03L41.63,212.06L50.89,214.19L50.98,214.2L65.79,215.31L65.87,215.31L455.9,215.65" style="vector-effect: non-scaling-stroke; fill: none; stroke: rgb(239, 85, 59); stroke-opacity: 1; stroke-width: 2px; opacity: 1;"/></g><g class="points"/><g class="text"/></g></g></g></g><path class="xlines-above crisp" d="M0,0" style="fill: none;"/><path class="ylines-above crisp" d="M0,0" style="fill: none;"/><g class="overlines-above"><path class="xy2-x crisp" d="M0,0" style="fill: none;"/><path class="xy2-y crisp" d="M0,0" style="fill: none;"/></g><g class="xaxislayer-above"><g class="xtick"><text text-anchor="middle" x="0" y="260" transform="translate(70,0)" style="font-family: 'Open Sans', verdana, arial, sans-serif; font-size: 12px; fill: rgb(42, 63, 95); fill-opacity: 1; white-space: pre; opacity: 1;">0</text></g><g class="xtick"><text text-anchor="middle" x="0" y="260" style="font-family: 'Open Sans', verdana, arial, sans-serif; font-size: 12px; fill: rgb(42, 63, 95); fill-opacity: 1; white-space: pre; opacity: 1;" transform="translate(152.76,0)">1000</text></g><g class="xtick"><text text-anchor="middle" x="0" y="260" style="font-family: 'Open Sans', verdana, arial, sans-serif; font-size: 12px; fill: rgb(42, 63, 95); fill-opacity: 1; white-space: pre; opacity: 1;" transform="translate(235.51,0)">2000</text></g><g class="xtick"><text text-anchor="middle" x="0" y="260" style="font-family: 'Open Sans', verdana, arial, sans-serif; font-size: 12px; fill: rgb(42, 63, 95); fill-opacity: 1; white-space: pre; opacity: 1;" transform="translate(318.27,0)">3000</text></g><g class="xtick"><text text-anchor="middle" x="0" y="260" style="font-family: 'Open Sans', verdana, arial, sans-serif; font-size: 12px; fill: rgb(42, 63, 95); fill-opacity: 1; white-space: pre; opacity: 1;" transform="translate(401.02,0)">4000</text></g><g class="xtick"><text text-anchor="middle" x="0" y="260" style="font-family: 'Open Sans', verdana, arial, sans-serif; font-size: 12px; fill: rgb(42, 63, 95); fill-opacity: 1; white-space: pre; opacity: 1;" transform="translate(483.78,0)">5000</text></g></g><g class="yaxislayer-above"><g class="ytick"><text text-anchor="end" x="69" y="4.199999999999999" transform="translate(0,224.89)" style="font-family: 'Open Sans', verdana, arial, sans-serif; font-size: 12px; fill: rgb(42, 63, 95); fill-opacity: 1; white-space: pre; opacity: 1;">−50k</text></g><g class="ytick"><text text-anchor="end" x="69" y="4.199999999999999" style="font-family: 'Open Sans', verdana, arial, sans-serif; font-size: 12px; fill: rgb(42, 63, 95); fill-opacity: 1; white-space: pre; opacity: 1;" transform="translate(0,186.82)">−40k</text></g><g class="ytick"><text text-anchor="end" x="69" y="4.199999999999999" style="font-family: 'Open Sans', verdana, arial, sans-serif; font-size: 12px; fill: rgb(42, 63, 95); fill-opacity: 1; white-space: pre; opacity: 1;" transform="translate(0,148.75)">−30k</text></g><g class="ytick"><text text-anchor="end" x="69" y="4.199999999999999" style="font-family: 'Open Sans', verdana, arial, sans-serif; font-size: 12px; fill: rgb(42, 63, 95); fill-opacity: 1; white-space: pre; opacity: 1;" transform="translate(0,110.68)">−20k</text></g><g class="ytick"><text text-anchor="end" x="69" y="4.199999999999999" style="font-family: 'Open Sans', verdana, arial, sans-serif; font-size: 12px; fill: rgb(42, 63, 95); fill-opacity: 1; white-space: pre; opacity: 1;" transform="translate(0,72.61)">−10k</text></g><g class="ytick"><text text-anchor="end" x="69" y="4.199999999999999" style="font-family: 'Open Sans', verdana, arial, sans-serif; font-size: 12px; fill: rgb(42, 63, 95); fill-opacity: 1; white-space: pre; opacity: 1;" transform="translate(0,34.54)">0</text></g></g><g class="overaxes-above"><g class="xy2-x"/><g class="xy2-y"><g class="y2tick"><text text-anchor="start" x="526.9" y="4.199999999999999" transform="translate(0,235.65)" style="font-family: 'Open Sans', verdana, arial, sans-serif; font-size: 12px; fill: rgb(42, 63, 95); fill-opacity: 1; white-space: pre; opacity: 1;">0</text></g><g class="y2tick"><text text-anchor="start" x="526.9" y="4.199999999999999" style="font-family: 'Open Sans', verdana, arial, sans-serif; font-size: 12px; fill: rgb(42, 63, 95); fill-opacity: 1; white-space: pre; opacity: 1;" transform="translate(0,184.58)">500</text></g><g class="y2tick"><text text-anchor="start" x="526.9" y="4.199999999999999" style="font-family: 'Open Sans', verdana, arial, sans-serif; font-size: 12px; fill: rgb(42, 63, 95); fill-opacity: 1; white-space: pre; opacity: 1;" transform="translate(0,133.5)">1000</text></g><g class="y2tick"><text text-anchor="start" x="526.9" y="4.199999999999999" style="font-family: 'Open Sans', verdana, arial, sans-serif; font-size: 12px; fill: rgb(42, 63, 95); fill-opacity: 1; white-space: pre; opacity: 1;" transform="translate(0,82.43)">1500</text></g><g class="y2tick"><text text-anchor="start" x="526.9" y="4.199999999999999" style="font-family: 'Open Sans', verdana, arial, sans-serif; font-size: 12px; fill: rgb(42, 63, 95); fill-opacity: 1; white-space: pre; opacity: 1;" transform="translate(0,31.35)">2000</text></g></g></g></g><g class="subplot xy2"/></g><g class="polarlayer"/><g class="smithlayer"/><g class="ternarylayer"/><g class="geolayer"/><g class="funnelarealayer"/><g class="pielayer"/><g class="iciclelayer"/><g class="treemaplayer"/><g class="sunburstlayer"/><g class="glimages"/><defs id="topdefs-5cbf61"><g class="clips"/><clipPath id="legend5cbf61"><rect width="123" height="48" x="0" y="0"/></clipPath></defs><g class="layer-above"><g class="imagelayer"/><g class="shapelayer"/></g><g class="infolayer"><g class="legend" pointer-events="all" transform="translate(564.7,20)"><rect class="bg" shape-rendering="crispEdges" style="stroke: rgb(68, 68, 68); stroke-opacity: 1; fill: rgb(255, 255, 255); fill-opacity: 1; stroke-width: 0px;" width="123" height="48" x="0" y="0"/><g class="scrollbox" transform="" clip-path="url(#legend5cbf61)"><g class="groups"><g class="traces" transform="translate(0,14.5)" style="opacity: 1;"><text class="legendtext" text-anchor="start" x="40" y="4.680000000000001" style="font-family: 'Open Sans', verdana, arial, sans-serif; font-size: 12px; fill: rgb(42, 63, 95); fill-opacity: 1; white-space: pre;">Cost</text><g class="layers" style="opacity: 1;"><g class="legendfill"/><g class="legendlines"><path class="js-line" d="M5,0h30" style="fill: none; stroke: rgb(99, 110, 250); stroke-opacity: 1; stroke-width: 2px;"/></g><g class="legendsymbols"><g class="legendpoints"/></g></g><rect class="legendtoggle" x="0" y="-9.5" width="117.265625" height="19" style="fill: rgb(0, 0, 0); fill-opacity: 0;"/></g><g class="traces" transform="translate(0,33.5)" style="opacity: 1;"><text class="legendtext" text-anchor="start" x="40" y="4.680000000000001" style="font-family: 'Open Sans', verdana, arial, sans-serif; font-size: 12px; fill: rgb(42, 63, 95); fill-opacity: 1; white-space: pre;">Temperature</text><g class="layers" style="opacity: 1;"><g class="legendfill"/><g class="legendlines"><path class="js-line" d="M5,0h30" style="fill: none; stroke: rgb(239, 85, 59); stroke-opacity: 1; stroke-width: 2px;"/></g><g class="legendsymbols"><g class="legendpoints"/></g></g><rect class="legendtoggle" x="0" y="-9.5" width="117.265625" height="19" style="fill: rgb(0, 0, 0); fill-opacity: 0;"/></g></g></g><rect class="scrollbar" rx="20" ry="3" width="0" height="0" style="fill: rgb(128, 139, 164); fill-opacity: 1;" x="0" y="0"/></g><g class="g-gtitle"/><g class="g-xtitle"><text class="xtitle" x="297.95" y="287.8" text-anchor="middle" style="font-family: 'Open Sans', verdana, arial, sans-serif; font-size: 14px; fill: rgb(42, 63, 95); opacity: 1; font-weight: normal; white-space: pre;">Iterations</text></g><g class="g-ytitle" transform="translate(1.9873046875,0)"><text class="ytitle" transform="rotate(-90,12.012500000000003,133.5)" x="12.012500000000003" y="133.5" text-anchor="middle" style="font-family: 'Open Sans', verdana, arial, sans-serif; font-size: 14px; fill: rgb(42, 63, 95); opacity: 1; font-weight: normal; white-space: pre;">Cost</text></g><g class="g-y2title"><text class="y2title" transform="rotate(-90,582.596875,133.5)" x="582.596875" y="133.5" text-anchor="middle" style="font-family: 'Open Sans', verdana, arial, sans-serif; font-size: 14px; fill: rgb(42, 63, 95); opacity: 1; font-weight: normal; white-space: pre;">Temperature</text></g></g></svg>