<svg class="main-svg" xmlns="http://www.w3.org/2000/svg" xmlns:xlink="http://www.w3.org/1999/xlink" width="700" height="300" style="" viewBox="0 0 700 300"><rect x="0" y="0" width="700" height="300" style="fill: rgb(255, 255, 255); fill-opacity: 1;"/><defs id="defs-093ebe"><g class="clips"><clipPath id="clip093ebexyplot" class="plotclip"><rect width="465.29999999999995" height="227"/></clipPath><clipPath id="clip093ebexy2plot" class="plotclip"><rect width="465.29999999999995" height="227"/></clipPath><clipPath class="axesclip" id="clip093ebex"><rect x="60" y="0" width="465.29999999999995" height="300"/></clipPath><clipPath class="axesclip" id="clip093ebey"><rect x="0" y="20" width="700" height="227"/></clipPath><clipPath class="axesclip" id="clip093ebexy"><rect x="60" y="20" width="465.29999999999995" height="227"/></clipPath><clipPath class="axesclip" id="clip093ebey2"><rect x="0" y="20" width="700" height="227"/></clipPath><clipPath class="axesclip" id="clip093ebexy2"><rect x="60" y="20" width="465.29999999999995" height="227"/></clipPath></g><g class="gradients"/><g class="patterns"/></defs><g class="bglayer"><rect class="bg" x="60" y="20" width="465.29999999999995" height="227" style="fill: rgb(229, 236, 246); fill-opacity: 1; stroke-width: 0;"/></g><g class="layer-below"><g class="imagelayer"/><g class="shapelayer"/></g><g class="cartesianlayer"><g class="subplot xy"><g class="layer-subplot"><g class="shapelayer"/><g class="imagelayer"/></g><g class="gridlayer"><g class="x"><path class="xgrid crisp" transform="translate(163.07,0)" d="M0,20v227" style="stroke: rgb(255, 255, 255); stroke-opacity: 1; stroke-width: 1px;"/><path class="xgrid crisp" transform="translate(266.14,0)" d="M0,20v227" style="stroke: rgb(255, 255, 255); stroke-opacity: 1; stroke-width: 1px;"/><path class="xgrid crisp" transform="translate(369.2,0)" d="M0,20v227" style="stroke: rgb(255, 255, 255); stroke-opacity: 1; stroke-width: 1px;"/><path class="xgrid crisp" transform="translate(472.27,0)" d="M0,20v227" style="stroke: rgb(255, 255, 255); stroke-opacity: 1; stroke-width: 1px;"/></g><g class="y"><path class="ygrid crisp" transform="translate(0,185.32)" d="M60,0h465.29999999999995" style="stroke: rgb(255, 255, 255); stroke-opacity: 1; stroke-width: 1px;"/><path class="ygrid crisp" transform="translate(0,117.37)" d="M60,0h465.29999999999995" style="stroke: rgb(255, 255, 255); stroke-opacity: 1; stroke-width: 1px;"/><path class="ygrid crisp" transform="translate(0,49.42)" d="M60,0h465.29999999999995" style="stroke: rgb(255, 255, 255); stroke-opacity: 1; stroke-width: 1px;"/></g><g class="y2"><path class="y2grid crisp" transform="translate(0,184.59)" d="M60,0h465.29999999999995" style="stroke: rgb(255, 255, 255); stroke-opacity: 1; stroke-width: 1px;"/><path class="y2grid crisp" transform="translate(0,133.51)" d="M60,0h465.29999999999995" style="stroke: rgb(255, 255, 255); stroke-opacity: 1; stroke-width: 1px;"/><path class="y2grid crisp" transform="translate(0,82.43)" d="M60,0h465.29999999999995" style="stroke: rgb(255, 255, 255); stroke-opacity: 1; stroke-width: 1px;"/><path class="y2grid crisp" transform="translate(0,31.35)" d="M60,0h465.29999999999995" style="stroke: rgb(255, 255, 255); stroke-opacity: 1; stroke-width: 1px;"/></g></g><g class="zerolinelayer"><path class="xzl zl crisp" transform="translate(60,0)" d="M0,20v227" style="stroke: rgb(255, 255, 255); stroke-opacity: 1; stroke-width: 2px;"/><path class="y2zl zl crisp" transform="translate(0,235.67)" d="M60,0h465.29999999999995" style="stroke: rgb(255, 255, 255); stroke-opacity: 1; stroke-width: 2px;"/></g><path class="xlines-below"/><path class="ylines-below"/><g class="overlines-below"><path class="xy2-x"/><path class="xy2-y"/></g><g class="xaxislayer-below"/><g class="yaxislayer-below"/><g class="overaxes-below"><g class="xy2-x"/><g class="xy2-y"/></g><g class="plot" transform="translate(60,20)" clip-path="url(#clip093ebexyplot)"><g class="scatterlayer mlayer"><g class="trace scatter trace9d09ff" style="stroke-miterlimit: 2; opacity: 1;"><g class="fills"/><g class="errorbars"/><g class="lines"><path class="js-line" d="M0,16.89L0.05,15.43L0.52,23.15L0.57,22.41L1.55,17.49L1.6,19.59L1.91,20.43L2.27,17.63L2.47,18.14L2.53,18.28L2.78,14.72L3.04,18.85L3.3,16.05L3.35,16.65L3.4,15.4L3.87,21.54L3.92,22.52L4.02,21.38L4.33,23.53L4.38,25.86L5.1,15.86L5.26,16.81L5.31,17.49L6.13,22.09L6.18,19.99L6.34,17.87L6.54,20.73L6.65,19.97L6.7,21.08L7.42,13.52L7.52,14.01L7.58,16.02L7.94,14.26L8.04,17.27L8.25,15.94L8.3,15.07L8.35,14.77L8.55,17.68L8.61,18.01L8.76,15.75L9.28,19.69L9.33,21.79L9.74,17.55L9.89,19.07L9.95,20.92L10,21.19L10.2,19.42L10.51,20.24L10.56,19.67L10.87,22.41L11.03,20.05L11.08,19.23L11.18,18.44L11.9,23.5L12.11,22.33L12.16,21.54L12.21,22.68L12.57,18.36L12.88,21.24L12.94,19.97L13.19,17.9L13.45,22.33L13.6,21.43L13.66,21.13L14.48,16.65L14.53,17.22L14.58,17.3L14.64,15.73L15.1,22.3L15.15,22.87L15.31,23.31L15.92,19.26L16.18,20.32L16.23,20.7L17.06,14.5L17.11,15.21L17.37,11.35L17.93,12.55L17.99,13.04L18.4,13.55L18.66,11.76L18.76,12.71L18.81,12.71L19.63,17.36L19.69,14.58L20.15,20.92L20.56,18.28L20.61,18.06L21.03,17.08L21.54,21.65L21.59,20.89L21.64,21.19L21.9,18.31L21.95,15.59L22.88,20.18L22.93,19.94L23.19,18.47L23.29,20.89L23.4,20.4L23.45,21.7L23.71,19.2L23.81,22.3L24.12,20.73L24.17,22L24.63,19.88L24.84,22.3L24.89,23.85L24.94,25.29L25.46,20.75L25.56,22.41L25.61,21.79L25.72,22.74L26.13,18.66L26.23,20.59L26.28,19.23L26.9,23.74L27.06,21.08L27.11,20.7L27.21,19.29L27.31,21.98L27.78,20.92L27.83,20.78L28.09,17.55L28.6,22.22L28.65,20.75L28.91,18.77L29.01,21.49L29.17,19.59L29.22,19.64L29.27,17.95L29.63,22.9L29.89,21.27L29.94,21.35L30.25,17.85L30.71,19.34L30.77,17.66L31.38,22.87L31.69,20.65L31.74,20.32L31.95,18.04L32.26,22.6L32.31,22.36L32.36,23.15L32.41,24.12L32.78,21.08L33.03,22.14L33.08,22.11L33.34,19.59L33.7,23.12L33.75,23.58L33.86,26.38L34.12,21.7L34.27,21.98L34.32,21.81L34.79,24.5L34.89,21.98L34.94,21.05L35.46,21.57L35.82,16.54L36.02,17.08L36.07,17.22L36.33,17.03L37.05,22.52L37.26,22.11L37.31,21.38L37.41,22.38L37.47,19.34L37.52,19.29L37.72,23.17L38.29,21.73L38.34,20.13L38.5,20.94L38.55,19.97L38.6,19.01L38.65,16.76L39.17,21.19L39.32,19.8L39.37,20.67L39.68,18.88L39.99,21.51L40.2,19.64L40.25,21.84L40.35,22.33L40.66,20.67L40.76,21.6L40.81,20.7L40.92,19.64L41.74,26.76L41.85,23.61L41.9,22.22L42.26,20.94L42.46,23.17L42.67,22.79L42.72,21.73L42.82,21.95L42.98,20.73L43.03,23.06L43.08,23.5L43.29,20.07L43.49,21.62L43.55,20.45L43.8,19.18L43.86,20.78L44.22,20.65L44.27,20.89L44.32,20.65L44.42,22.06L44.63,22.06L44.68,22.63L44.73,21.3L45.3,24.48L45.35,24.29L45.4,24.78L45.71,26.73L45.92,25.21L45.97,24.69L46.28,26.87L46.48,25.13L46.54,25.16L46.9,27.6L47.62,18.72L47.72,19.01L47.77,20.18L48.13,20.75L48.29,19.1L48.44,20.05L48.49,19.34L48.8,16.13L49.06,19.91L49.21,18.8L49.27,19.91L49.63,19.04L49.94,22.25L50.04,21.22L50.09,20.56L50.5,22.79L50.92,22.09L50.97,21.84L51.43,19.86L51.79,23.44L51.84,22.11L51.89,21.73L52.31,23.69L52.36,23.53L52.41,23.82L52.56,23.47L52.98,24.88L53.03,23.39L53.08,22.52L53.75,26.43L53.85,24.04L53.9,23.66L54.27,21.95L54.57,25.92L54.63,23.72L54.68,23.36L55.14,23.12L55.61,27.06L55.66,26.16L55.76,28.04L56.28,25.84L56.33,26.3L56.38,25.78L56.74,28.64L57.1,26.16L57.15,25.7L57.72,21.43L57.98,22.57L58.03,23.85L58.75,20.29L58.95,21.03L59.01,23.06L59.16,22.71L59.42,24.34L59.88,24.04L59.93,22.44L60.45,26.6L60.76,24.48L60.81,24.61L61.33,20.78L61.38,21.35L61.43,23.06L62.1,19.88L62.25,21.19L62.3,21.43L62.46,21.05L62.51,22.3L62.56,22.79L62.67,23.66L62.82,21.05L63.13,22.87L63.18,22.03L64.57,31.08L64.62,31.52L64.88,28.55L65.29,30.32L65.35,30.78L65.76,31.24L66.17,27.87L66.22,28.42L66.38,27.3L67.41,34.15L67.46,33.42L67.51,32.49L67.77,30.7L68.02,33.07L68.18,33.01L68.23,33.45L68.28,33.74L68.49,31.03L68.59,31.27L68.64,31.3L69,31.71L69.16,30.21L69.31,30.76L69.36,30.13L69.67,29.7L69.88,30.92L69.98,29.91L70.03,28.72L70.7,25.78L70.86,27.25L70.91,27.66L71.17,26.19L71.43,28.64L71.48,29.26L72.35,25.46L72.41,25.56L73.13,28.04L73.38,27.49L73.44,26.27L73.49,25.92L73.85,27.82L74.11,26.68L74.16,27.09L74.57,26.9L74.78,28.25L74.83,27.47L74.88,26.16L75.24,23.88L75.55,27.2L75.6,27.66L75.81,25.94L76.17,29.67L76.22,28.74L76.27,29.26L76.63,30.51L76.79,28.66L76.94,28.99L76.99,28.45L77.15,26.84L77.46,30.21L77.61,29.86L77.66,30.37L77.92,29.64L78.49,35.19L78.64,33.36L78.69,33.39L79.57,36.11L79.62,36.46L80.03,38.83L80.34,37.17L80.39,36.68L80.5,36.14L80.96,37.28L81.06,36.98L81.11,36.11L81.78,31.92L82.09,32.69L82.15,32.66L82.51,34.45L82.87,33.15L82.92,33.04L83.12,33.07L84.05,28.34L84.1,28.64L85.34,32.39L85.39,30.97L85.44,30.62L85.75,32.41L85.91,31.68L85.96,32.3L86.73,36.54L87.09,35.43L87.14,35.62L87.56,34.8L87.71,36.14L87.76,36.87L88.17,39.97L88.69,38.75L88.74,38.01L88.79,38.42L89.26,36.54L89.31,36.79L89.36,36.27L89.67,37.66L89.82,35.95L89.93,36.3L89.98,35.67L90.96,41.79L91.47,40.87L91.52,39.64L91.63,38.77L92.25,41.22L92.35,39.89L92.4,39.75L92.5,40.4L92.71,38.85L92.81,39.04L92.86,37.33L93.38,38.96L93.43,39.34L93.69,41.14L94,39.02L94.05,38.26L94.51,40.49L94.72,37.66L94.82,37.79L94.87,37.9L95.23,37.52L95.6,38.5L95.65,37.98L96.47,40.97L96.52,39.78L96.57,38.8L97.76,42.96L97.81,41.9L97.86,41.19L98.02,42.61L98.28,39.29L98.53,40.4L98.58,39.59L98.69,38.53L99.25,40.05L99.31,40.21L99.56,39.89L99.98,41.35L100.03,40.65L100.08,40.21L100.75,41.74L100.9,41.35L100.96,41.22L101.26,42.96L101.47,41.27L101.52,40.92L101.73,39.48L101.93,41L102.04,40.1L102.09,38.8L102.29,38.96L102.45,37.9L102.71,39.04L102.76,39.13L103.22,37.63L103.48,38.26L103.53,39.21L105.08,42.8L105.13,42.2L105.34,42.88L105.49,41.27L105.59,41.9L105.64,41.06L106.68,43.34L106.73,42.58L106.78,41.49L107.45,43.18L107.5,43.28L107.65,43.99L107.81,42.33L108.17,42.9L108.22,43.04L109.46,45.54L109.51,44.51L110.23,43.42L110.28,43.5L110.33,43.56L110.95,45.49L111,45.81L111.36,47.09L111.73,46.17L111.78,45.95L111.88,44.97L112.19,46.27L112.34,46.08L112.4,46.63L113.58,48.88L113.63,47.58L113.99,49.16L114.51,48.29L114.56,48.26L115.23,50.49L115.64,49.37L115.69,48.72L116.88,53.31L117.09,53.04L117.14,51.95L117.65,52.63L117.91,50.62L117.96,50.65L118.01,51L118.32,49.56L118.89,52.74L118.94,51.9L118.99,51.55L119.04,51.14L119.46,53.64L119.51,53.75L119.71,54.84L120.02,53.78L120.07,53.48L120.18,55.57L120.69,52.96L120.74,53.01L120.8,53.2L120.95,53.86L121.26,52.53L121.47,53.61L121.52,52.72L121.83,52.93L121.93,51.55L122.08,52.53L122.14,52.85L122.5,54.48L122.81,53.34L122.86,52.77L124.15,56.87L124.2,55.73L124.82,57.61L125.12,57.39L125.18,56.25L125.49,56.96L125.54,56.22L125.59,55.49L126.67,58.64L126.77,57.5L126.83,57.06L126.88,56.28L127.39,59.35L127.44,59.51L127.8,60.65L128.01,59.08L128.11,59.35L128.16,59.27L128.47,59.97L128.58,58.59L128.63,58.83L128.68,57.91L128.89,56.85L129.56,58.94L129.61,58.53L130.48,60.24L130.59,59.7L130.64,59.46L131.77,61.47L131.88,60.92L131.93,60.76L132.65,59.29L132.7,59.67L132.75,60.22L133.78,62.09L133.83,61.63L135.07,64.48L135.12,64.27L135.48,64.59L135.53,63.67L135.69,64.13L135.74,63.72L136.2,64.24L136.67,61.22L136.77,61.47L136.82,61.55L137.54,60.65L137.75,61.22L137.8,61.39L138.68,58.91L138.78,59.7L138.83,59.73L138.88,58.67L139.5,61.25L139.55,61.55L140.53,63.78L140.58,63.99L141.87,66.17L142.03,65.98L142.08,66.11L142.85,67.53L142.9,67.34L142.96,66.79L144.04,64.4L144.09,64.59L144.3,64.97L144.35,64.21L144.4,63.45L144.5,63.61L144.66,62.69L144.81,63.23L144.86,61.98L146.15,66.39L146.25,65.71L146.3,65.3L146.82,66.36L146.97,65.57L147.03,65.03L147.54,65.35L147.64,64.27L147.8,64.59L147.85,65.14L148.88,66.11L148.93,65.38L150.22,68.7L150.27,68.56L150.32,68.64L150.48,69.05L150.74,67.72L150.94,67.94L150.99,68.02L152.75,71.63L152.8,71.39L152.85,70.44L153.06,70.25L154.34,72.77L154.4,71.88L155.63,73.72L155.68,73.32L156.56,75.27L156.92,74.59L156.97,74.59L157.02,73.81L157.59,75.87L157.64,75.95L158.26,77.18L158.31,76.03L159.65,78.15L159.7,77.56L159.86,77.42L160.73,78.48L160.79,78.48L161.1,78.59L161.61,75.82L161.66,76.17L161.71,76.2L161.92,75.84L162.54,77.31L162.59,77.61L164.08,80.49L164.14,79.51L164.6,81.36L164.65,81.61L164.86,81.28L165.58,82.69L165.63,82.1L166.15,82.26L166.3,80.44L166.51,80.93L166.56,81.04L166.66,80.55L167.07,82.18L167.12,82.39L167.38,83.13L167.59,82.34L167.64,81.31L167.85,80.95L168.83,82.42L168.88,82.69L169.34,83.86L169.5,82.26L169.6,82.88L169.65,82.31L169.7,81.69L169.91,82.5L170.32,82.53L170.37,82.91L170.47,82.39L170.99,83.64L171.04,83.81L171.71,85.41L171.92,85.14L171.97,84.11L172.07,83.86L172.43,84.95L172.48,85.28L172.54,85.71L172.9,83.59L172.95,82.42L174.18,85.22L174.24,85.25L174.29,85.44L174.85,84.68L174.91,84.87L174.96,84.92L175.32,85.87L175.42,85L175.47,84.51L177.38,87.5L177.43,86.96L178.77,88.16L178.82,87.64L178.98,87.83L179.13,87.29L179.18,87.4L179.24,86.93L179.7,87.69L179.8,87.26L179.85,86.36L180.47,86.69L180.57,85.93L180.63,86.2L180.68,86.34L181.24,88.13L181.71,87.53L181.76,86.63L181.81,86.2L182.07,86.93L182.43,86.85L182.48,86.99L184.54,89.46L184.59,89.57L184.7,89.03L185.06,90.36L185.16,90.38L185.21,90.6L185.93,92.5L186.09,91.17L186.14,90.58L187.58,93.92L187.69,93.62L187.74,93.08L188.36,94.27L188.56,93.4L188.61,93.02L189.13,93.86L189.44,93.73L189.49,93.73L190.01,94.6L190.26,94.27L190.31,93.51L191.65,95.87L191.71,95.36L192.84,97.21L192.89,97.37L193.77,98.95L193.82,97.91L193.87,97.94L194.39,96.58L194.64,97.56L194.7,97.61L195.47,99.16L195.52,98.7L195.57,97.94L197.07,99.92L197.12,99.22L197.17,98.7L198.04,100.52L198.1,99.95L198.2,99.35L198.71,100.41L198.77,100.52L202.06,105.39L202.12,104.54L203.35,105.28L203.4,105.36L204.85,106.8L205,106.28L205.05,105.85L205.26,105.31L207.42,108.49L207.48,108.68L208.3,109.82L208.35,109.46L209.07,110.63L209.33,110.31L209.38,109.71L210,110.58L210.05,110.69L210.31,110.25L210.77,111.15L210.83,110.63L212.42,111.99L212.47,111.12L213.92,113.49L214.02,113.19L214.07,112.4L214.23,112.18L214.85,113.02L215.05,112.75L215.1,112.4L215.36,112.64L215.41,111.8L215.67,112.32L215.72,111.91L216.8,114.14L216.85,114.17L218.19,116.07L218.25,116.07L222.01,120.74L222.06,120.77L222.11,120.42L222.68,121.29L222.73,121.42L223.45,120.23L223.61,120.82L223.66,120.91L225.25,122.37L225.31,121.72L227.47,123.84L227.52,123.11L229.07,124.98L229.17,124.79L229.22,124.79L231.7,127.67L231.75,127.84L235.66,131.89L235.72,131.89L237.73,134.44L237.78,134.47L238.14,134.82L238.19,134.11L238.55,134.5L238.6,134.55L238.81,134.2L239.32,134.74L239.38,134.74L241.9,137.59L241.95,137.62L242.52,138.71L242.57,138.82L249.99,144.74L250.04,144.99L253.96,147.65L254.01,147.7L256.02,149.58L256.07,149.69L257.67,150.86L257.72,150.94L262.15,154.53L262.2,154.53L263.39,155.21L263.44,155.21L281.94,166.35L281.99,166.35L286.32,168.66L286.37,168.66L290.75,171.62L290.81,171.7L292.56,172.44L292.61,172.46L293.9,173.17L293.95,173.22L299.52,175.7L299.57,175.7L301.94,176.43L301.99,176.54L303.28,177.27L303.33,177.33L305.7,178.04L305.75,178.12L310.44,179.67L310.49,179.67L313.48,180.7L313.53,180.7L315.95,181.49L316.01,181.49L319.82,182.68L319.87,182.74L323.58,183.96L323.63,183.96L325.02,184.61L325.08,184.78L333.79,187.82L333.84,187.96L334.76,188.2L334.82,188.2L340.23,189.83L340.28,190.05L341.46,190.37L341.52,190.37L344.25,191.46L344.3,191.46L349.09,193.06L349.14,193.17L351.05,194.04L351.1,194.04L353.42,194.75L353.47,194.8L358.11,195.51L358.16,195.67L361.25,196.41L361.3,196.43L362.39,196.79L362.44,196.79L365.17,197.49L365.22,197.6L368.21,198.31L368.26,198.36L371.3,199.1L371.35,199.13L384.34,202.44L384.39,202.44L424.49,209.4L424.54,209.4L427.89,210.08L427.94,210.16L429.28,210.43L429.33,210.43L433.92,211.17L433.97,211.19L439.12,211.93L439.17,212.06L448.19,213.2L448.24,213.2L455.82,213.88L455.87,213.88L460.35,214.59L460.4,214.64L465.3,215.65" style="vector-effect: non-scaling-stroke; fill: none; stroke: rgb(99, 110, 250); stroke-opacity: 1; stroke-width: 2px; opacity: 1;"/></g><g class="points"/><g class="text"/></g></g></g><g class="overplot"><g class="xy2" transform="translate(60,20)" clip-path="url(#clip093ebexy2plot)"><g class="scatterlayer mlayer"><g class="trace scatter traceadd32f" style="stroke-miterlimit: 2; opacity: 1;"><g class="fills"/><g class="errorbars"/><g class="lines"><path class="js-line" d="M0,11.35L8.76,43.31L8.81,43.48L17.21,69.39L17.26,69.54L22.47,83.58L22.52,83.72L31.13,104.02L31.18,104.13L39.84,121.39L39.89,121.48L47.77,134.85L47.82,134.93L61.63,153.92L61.69,153.99L71.94,165.12L71.99,165.17L85.24,176.62L85.29,176.66L94.36,182.96L94.41,182.99L104.46,188.79L104.51,188.81L120.38,195.94L120.43,195.96L137.03,201.39L137.08,201.4L157.33,206.04L157.38,206.05L178.98,209.35L179.03,209.35L201.39,211.58L201.45,211.58L213.56,212.44L213.61,212.44L248.75,214.04L248.81,214.04L267.56,214.54L267.62,214.54L283.39,214.84L283.44,214.84L404.49,215.59L404.54,215.6L465.3,215.65" style="vector-effect: non-scaling-stroke; fill: none; stroke: rgb(239, 85, 59); stroke-opacity: 1; stroke-width: 2px; opacity: 1;"/></g><g class="points"/><g class="text"/></g></g></g></g><path class="xlines-above crisp" d="M0,0" style="fill: none;"/><path class="ylines-above crisp" d="M0,0" style="fill: none;"/><g class="overlines-above"><path class="xy2-x crisp" d="M0,0" style="fill: none;"/><path class="xy2-y crisp" d="M0,0" style="fill: none;"/></g><g class="xaxislayer-above"><g class="xtick"><text text-anchor="middle" x="0" y="260" transform="translate(60,0)" style="font-family: 'Open Sans', verdana, arial, sans-serif; font-size: 12px; fill: rgb(42, 63, 95); fill-opacity: 1; white-space: pre; opacity: 1;">0</text></g><g class="xtick"><text text-anchor="middle" x="0" y="260" style="font-family: 'Open Sans', verdana, arial, sans-serif; font-size: 12px; fill: rgb(42, 63, 95); fill-opacity: 1; white-space: pre; opacity: 1;" transform="translate(163.07,0)">2000</text></g><g class="xtick"><text text-anchor="middle" x="0" y="260" style="font-family: 'Open Sans', verdana, arial, sans-serif; font-size: 12px; fill: rgb(42, 63, 95); fill-opacity: 1; white-space: pre; opacity: 1;" transform="translate(266.14,0)">4000</text></g><g class="xtick"><text text-anchor="middle" x="0" y="260" style="font-family: 'Open Sans', verdana, arial, sans-serif; font-size: 12px; fill: rgb(42, 63, 95); fill-opacity: 1; white-space: pre; opacity: 1;" transform="translate(369.2,0)">6000</text></g><g class="xtick"><text text-anchor="middle" x="0" y="260" style="font-family: 'Open Sans', verdana, arial, sans-serif; font-size: 12px; fill: rgb(42, 63, 95); fill-opacity: 1; white-space: pre; opacity: 1;" transform="translate(472.27,0)">8000</text></g></g><g class="yaxislayer-above"><g class="ytick"><text text-anchor="end" x="59" y="4.199999999999999" transform="translate(0,185.32)" style="font-family: 'Open Sans', verdana, arial, sans-serif; font-size: 12px; fill: rgb(42, 63, 95); fill-opacity: 1; white-space: pre; opacity: 1;">55k</text></g><g class="ytick"><text text-anchor="end" x="59" y="4.199999999999999" style="font-family: 'Open Sans', verdana, arial, sans-serif; font-size: 12px; fill: rgb(42, 63, 95); fill-opacity: 1; white-space: pre; opacity: 1;" transform="translate(0,117.37)">60k</text></g><g class="ytick"><text text-anchor="end" x="59" y="4.199999999999999" style="font-family: 'Open Sans', verdana, arial, sans-serif; font-size: 12px; fill: rgb(42, 63, 95); fill-opacity: 1; white-space: pre; opacity: 1;" transform="translate(0,49.42)">65k</text></g></g><g class="overaxes-above"><g class="xy2-x"/><g class="xy2-y"><g class="y2tick"><text text-anchor="start" x="526.3" y="4.199999999999999" transform="translate(0,235.67)" style="font-family: 'Open Sans', verdana, arial, sans-serif; font-size: 12px; fill: rgb(42, 63, 95); fill-opacity: 1; white-space: pre; opacity: 1;">0</text></g><g class="y2tick"><text text-anchor="start" x="526.3" y="4.199999999999999" style="font-family: 'Open Sans', verdana, arial, sans-serif; font-size: 12px; fill: rgb(42, 63, 95); fill-opacity: 1; white-space: pre; opacity: 1;" transform="translate(0,184.59)">500</text></g><g class="y2tick"><text text-anchor="start" x="526.3" y="4.199999999999999" style="font-family: 'Open Sans', verdana, arial, sans-serif; font-size: 12px; fill: rgb(42, 63, 95); fill-opacity: 1; white-space: pre; opacity: 1;" transform="translate(0,133.51)">1000</text></g><g class="y2tick"><text text-anchor="start" x="526.3" y="4.199999999999999" style="font-family: 'Open Sans', verdana, arial, sans-serif; font-size: 12px; fill: rgb(42, 63, 95); fill-opacity: 1; white-space: pre; opacity: 1;" transform="translate(0,82.43)">1500</text></g><g class="y2tick"><text text-anchor="start" x="526.3" y="4.199999999999999" style="font-family: 'Open Sans', verdana, arial, sans-serif; font-size: 12px; fill: rgb(42, 63, 95); fill-opacity: 1; white-space: pre; opacity: 1;" transform="translate(0,31.35)">2000</text></g></g></g></g><g class="subplot xy2"/></g><g class="polarlayer"/><g class="smithlayer"/><g class="ternarylayer"/><g class="geolayer"/><g class="funnelarealayer"/><g class="pielayer"/><g class="iciclelayer"/><g class="treemaplayer"/><g class="sunburstlayer"/><g class="glimages"/><defs id="topdefs-093ebe"><g class="clips"/><clipPath id="legend093ebe"><rect width="123" height="48" x="0" y="0"/></clipPath></defs><g class="layer-above"><g class="imagelayer"/><g class="shapelayer"/></g><g class="infolayer"><g class="legend" pointer-events="all" transform="translate(564.9000000000001,20)"><rect class="bg" shape-rendering="crispEdges" width="123" height="48" x="0" y="0" style="stroke: rgb(68, 68, 68); stroke-opacity: 1; fill: rgb(255, 255, 255); fill-opacity: 1; stroke-width: 0px;"/><g class="scrollbox" transform="" clip-path="url(#legend093ebe)"><g class="groups"><g class="traces" transform="translate(0,14.5)" style="opacity: 1;"><text class="legendtext" text-anchor="start" x="40" y="4.680000000000001" style="font-family: 'Open Sans', verdana, arial, sans-serif; font-size: 12px; fill: rgb(42, 63, 95); fill-opacity: 1; white-space: pre;">Cost</text><g class="layers" style="opacity: 1;"><g class="legendfill"/><g class="legendlines"><path class="js-line" d="M5,0h30" style="fill: none; stroke: rgb(99, 110, 250); stroke-opacity: 1; stroke-width: 2px;"/></g><g class="legendsymbols"><g class="legendpoints"/></g></g><rect class="legendtoggle" x="0" y="-9.5" width="117.265625" height="19" style="fill: rgb(0, 0, 0); fill-opacity: 0;"/></g><g class="traces" transform="translate(0,33.5)" style="opacity: 1;"><text class="legendtext" text-anchor="start" x="40" y="4.680000000000001" style="font-family: 'Open Sans', verdana, arial, sans-serif; font-size: 12px; fill: rgb(42, 63, 95); fill-opacity: 1; white-space: pre;">Temperature</text><g class="layers" style="opacity: 1;"><g class="legendfill"/><g class="legendlines"><path class="js-line" d="M5,0h30" style="fill: none; stroke: rgb(239, 85, 59); stroke-opacity: 1; stroke-width: 2px;"/></g><g class="legendsymbols"><g class="legendpoints"/></g></g><rect class="legendtoggle" x="0" y="-9.5" width="117.265625" height="19" style="fill: rgb(0, 0, 0); fill-opacity: 0;"/></g></g></g><rect class="scrollbar" rx="20" ry="3" width="0" height="0" x="0" y="0" style="fill: rgb(128, 139, 164); fill-opacity: 1;"/></g><g class="g-gtitle"/><g class="g-xtitle"><text class="xtitle" x="292.65" y="287.8" text-anchor="middle" style="font-family: 'Open Sans', verdana, arial, sans-serif; font-size: 14px; fill: rgb(42, 63, 95); opacity: 1; font-weight: normal; white-space: pre;">Iterations</text></g><g class="g-ytitle" transform="translate(2.1591796875,0)"><text class="ytitle" transform="rotate(-90,11.840625000000003,133.5)" x="11.840625000000003" y="133.5" text-anchor="middle" style="font-family: 'Open Sans', verdana, arial, sans-serif; font-size: 14px; fill: rgb(42, 63, 95); opacity: 1; font-weight: normal; white-space: pre;">Cost</text></g><g class="g-y2title"><text class="y2title" transform="rotate(-90,581.9875,133.5)" x="581.9875" y="133.5" text-anchor="middle" style="font-family: 'Open Sans', verdana, arial, sans-serif; font-size: 14px; fill: rgb(42, 63, 95); opacity: 1; font-weight: normal; white-space: pre;">Temperature</text></g></g></svg>