<svg class="main-svg" xmlns="http://www.w3.org/2000/svg" xmlns:xlink="http://www.w3.org/1999/xlink" width="700" height="300" style="" viewBox="0 0 700 300"><rect x="0" y="0" width="700" height="300" style="fill: rgb(255, 255, 255); fill-opacity: 1;"/><defs id="defs-7339a9"><g class="clips"><clipPath id="clip7339a9xyplot" class="plotclip"><rect width="448.38" height="227"/></clipPath><clipPath id="clip7339a9xy2plot" class="plotclip"><rect width="448.38" height="227"/></clipPath><clipPath class="axesclip" id="clip7339a9x"><rect x="78" y="0" width="448.38" height="300"/></clipPath><clipPath class="axesclip" id="clip7339a9y"><rect x="0" y="20" width="700" height="227"/></clipPath><clipPath class="axesclip" id="clip7339a9xy"><rect x="78" y="20" width="448.38" height="227"/></clipPath><clipPath class="axesclip" id="clip7339a9y2"><rect x="0" y="20" width="700" height="227"/></clipPath><clipPath class="axesclip" id="clip7339a9xy2"><rect x="78" y="20" width="448.38" height="227"/></clipPath></g><g class="gradients"/><g class="patterns"/></defs><g class="bglayer"><rect class="bg" x="78" y="20" width="448.38" height="227" style="fill: rgb(229, 236, 246); fill-opacity: 1; stroke-width: 0;"/></g><g class="layer-below"><g class="imagelayer"/><g class="shapelayer"/></g><g class="cartesianlayer"><g class="subplot xy"><g class="layer-subplot"><g class="shapelayer"/><g class="imagelayer"/></g><g class="gridlayer"><g class="x"><path class="xgrid crisp" transform="translate(177.32,0)" d="M0,20v227" style="stroke: rgb(255, 255, 255); stroke-opacity: 1; stroke-width: 1px;"/><path class="xgrid crisp" transform="translate(276.64,0)" d="M0,20v227" style="stroke: rgb(255, 255, 255); stroke-opacity: 1; stroke-width: 1px;"/><path class="xgrid crisp" transform="translate(375.96,0)" d="M0,20v227" style="stroke: rgb(255, 255, 255); stroke-opacity: 1; stroke-width: 1px;"/><path class="xgrid crisp" transform="translate(475.28,0)" d="M0,20v227" style="stroke: rgb(255, 255, 255); stroke-opacity: 1; stroke-width: 1px;"/></g><g class="y"><path class="ygrid crisp" transform="translate(0,243.6)" d="M78,0h448.38" style="stroke: rgb(255, 255, 255); stroke-opacity: 1; stroke-width: 1px;"/><path class="ygrid crisp" transform="translate(0,175.88)" d="M78,0h448.38" style="stroke: rgb(255, 255, 255); stroke-opacity: 1; stroke-width: 1px;"/><path class="ygrid crisp" transform="translate(0,108.16)" d="M78,0h448.38" style="stroke: rgb(255, 255, 255); stroke-opacity: 1; stroke-width: 1px;"/></g><g class="y2"><path class="y2grid crisp" transform="translate(0,184.59)" d="M78,0h448.38" style="stroke: rgb(255, 255, 255); stroke-opacity: 1; stroke-width: 1px;"/><path class="y2grid crisp" transform="translate(0,133.51)" d="M78,0h448.38" style="stroke: rgb(255, 255, 255); stroke-opacity: 1; stroke-width: 1px;"/><path class="y2grid crisp" transform="translate(0,82.43)" d="M78,0h448.38" style="stroke: rgb(255, 255, 255); stroke-opacity: 1; stroke-width: 1px;"/><path class="y2grid crisp" transform="translate(0,31.35)" d="M78,0h448.38" style="stroke: rgb(255, 255, 255); stroke-opacity: 1; stroke-width: 1px;"/></g></g><g class="zerolinelayer"><path class="xzl zl crisp" transform="translate(78,0)" d="M0,20v227" style="stroke: rgb(255, 255, 255); stroke-opacity: 1; stroke-width: 2px;"/><path class="yzl zl crisp" transform="translate(0,40.44)" d="M78,0h448.38" style="stroke: rgb(255, 255, 255); stroke-opacity: 1; stroke-width: 2px;"/><path class="y2zl zl crisp" transform="translate(0,235.67)" d="M78,0h448.38" style="stroke: rgb(255, 255, 255); stroke-opacity: 1; stroke-width: 2px;"/></g><path class="xlines-below"/><path class="ylines-below"/><g class="overlines-below"><path class="xy2-x"/><path class="xy2-y"/></g><g class="xaxislayer-below"/><g class="yaxislayer-below"/><g class="overaxes-below"><g class="xy2-x"/><g class="xy2-y"/></g><g class="plot" transform="translate(78,20)" clip-path="url(#clip7339a9xyplot)"><g class="scatterlayer mlayer"><g class="trace scatter tracee92cbf" style="stroke-miterlimit: 2; opacity: 1;"><g class="fills"/><g class="errorbars"/><g class="lines"><path class="js-line" d="M0,16.77L0.1,16.01L0.45,18.34L0.5,19.53L0.65,18.11L0.74,20.55L0.79,21.66L1.39,21.29L1.49,24.05L1.59,23.22L1.64,21.65L1.89,23.62L2.04,20.17L2.38,22.26L2.43,21.89L2.48,22.61L2.68,18.92L3.03,19.77L3.08,18.61L3.18,16.69L3.48,21.97L3.77,20.76L3.82,19.94L4.67,15.77L4.72,17.57L5.11,15.67L5.31,18.85L5.36,18.67L5.41,19.3L5.66,22.88L6.01,17.49L6.06,15.79L6.85,20.43L6.95,19.14L7,19.03L7.05,18.8L7.15,21.38L7.35,19.57L7.4,22.63L7.45,21.3L7.95,25.9L8.09,21.57L8.14,23.1L8.54,24.05L8.69,20.7L8.74,19.57L8.79,20.39L9.19,17.81L9.24,17.93L9.29,14.88L9.39,16.29L9.83,12.41L9.88,11.35L10.97,25.03L11.02,23.06L11.07,21.21L11.57,19.68L11.82,23.13L11.87,22.11L11.92,22.28L12.71,18.18L12.76,18.85L12.81,19.66L12.91,19.37L13.01,20.77L13.16,20.42L13.21,22.4L13.56,23.85L13.61,22.29L13.66,20.16L14.1,22.23L14.35,20.69L14.4,20.04L14.55,17.53L14.85,21.78L15.25,21.04L15.3,20.61L15.44,19.35L15.64,25L15.79,23.64L15.84,23.73L16.04,24.6L16.09,21.89L16.14,21.4L16.74,25L16.88,23.26L16.93,21.28L17.53,20.94L17.68,23.76L17.73,23.02L17.78,20.71L17.98,19.54L18.23,23.3L18.27,23.93L18.37,22.58L18.77,25.87L18.82,26.89L19.76,19.86L19.81,19.64L19.86,19.31L20.16,22.3L20.21,22.93L20.31,22.92L21.11,26.59L21.16,24.41L21.65,21.63L22,21.95L22.05,22.83L22.15,21.76L22.6,24.62L22.64,23.35L22.69,21.84L23.04,24.34L23.29,21.42L23.34,21.69L23.74,22.91L23.84,19.96L24.04,21.34L24.09,20.82L24.33,21.23L24.78,15.36L24.98,17.75L25.03,18.12L25.57,23.1L25.77,21.65L25.82,19.56L25.92,18.36L26.27,22.64L26.47,21.51L26.52,21.36L27.02,28.25L27.46,26.43L27.51,26.58L28.31,22L28.46,22.3L28.5,22.39L28.65,23.62L28.85,20.08L29.15,21.81L29.2,21.51L29.3,19.66L29.5,22.38L29.55,21.89L29.6,22.08L29.65,22.26L29.7,20.89L29.75,19.22L29.9,23.76L30.54,21.8L30.59,20.8L31.53,24.23L31.58,24.1L31.68,24.38L31.93,22.32L32.13,23.92L32.18,25.03L32.33,26.06L32.78,23.96L32.83,23.42L33.22,22.85L33.52,25.5L33.57,25.21L33.62,24.27L34.02,24.77L34.41,21.85L34.46,23.08L34.51,23.99L34.81,20.05L35.01,23.59L35.06,24.06L35.16,25.24L35.46,20.04L35.61,20.77L35.66,20.73L36.3,24.35L36.6,24L36.65,24.08L36.85,23.1L37.24,24.75L37.29,24.26L37.34,22.75L37.44,22.2L37.89,23.86L37.99,23.46L38.04,21.98L38.19,21.36L38.49,24.66L38.54,25.5L38.98,23.99L39.13,26.43L39.18,26.94L40.37,21.2L40.42,21.49L40.47,22.3L40.87,24.22L41.02,23.44L41.07,22.34L41.32,25.18L41.71,21.87L41.81,22.22L41.86,22.83L42.11,25.88L42.61,23.14L42.66,23.48L42.91,24.02L43.2,22.11L43.3,22.9L43.35,22.1L44.3,25.97L44.35,25.21L44.4,23.1L44.45,22.24L45.04,24.67L45.09,24.32L45.24,23.69L45.59,25.14L45.89,24.68L45.94,24.03L46.63,21.83L46.78,22.27L46.83,22.37L47.33,25.07L47.52,21.63L47.57,21.86L47.62,21.83L47.67,21.62L47.77,23.39L48.02,22.51L48.07,24.23L48.17,23.6L48.52,25.81L48.72,24.78L48.77,23.1L48.82,22.22L49.36,25.55L49.41,25.65L49.56,27.95L49.91,25.06L50.11,26.45L50.16,26.38L50.36,26.21L50.7,28.22L50.95,27.76L51,27.05L51.35,27.93L51.75,25.71L51.8,25.79L51.85,27.19L51.94,27.64L53.04,22.13L53.09,23.25L53.14,24.51L53.73,20.5L54.08,22.12L54.13,23.07L54.38,23.91L54.43,23.77L54.48,24.96L54.68,26.21L54.92,24.5L55.12,25.51L55.17,24.48L55.87,28.87L56.07,28.4L56.12,27.88L56.31,28.87L56.66,25.67L56.91,26.88L56.96,27.05L57.21,28.63L57.31,25.4L57.56,26.63L57.61,25.68L57.85,23.54L58.05,26.62L58.35,25.01L58.4,25.23L58.8,22.73L59.15,24.65L59.19,25.05L59.34,25.66L59.39,25.08L59.44,24.48L59.94,23.74L60.49,28.57L60.54,27.84L60.68,28.7L61.08,26.92L61.28,28.16L61.33,26.88L62.57,33.85L62.62,32.71L63.07,29.36L63.42,31.45L63.47,32.56L63.61,32.85L64.11,30.28L64.26,30.38L64.31,31.13L65.35,35.49L65.4,36.46L66.4,31.45L66.49,32.05L66.54,32.27L67.04,29.01L67.39,29.79L67.44,29.9L68.53,26.84L68.58,27.17L68.63,28.62L68.83,27.5L69.18,30.25L69.23,29.67L69.28,30L69.33,28.93L69.87,32.75L69.92,32.98L70.07,32.31L70.47,33.82L70.57,32.81L70.62,31.78L71.46,33.72L71.51,32.8L71.66,33.35L71.76,31.13L71.81,31.53L71.86,30.32L72.11,30.92L72.4,29.53L72.55,30.34L72.6,29.49L72.7,30.34L73.05,28.23L73.25,28.75L73.3,28.43L73.45,27.56L74.04,30.52L74.09,29.71L74.14,29.81L75.04,25.58L75.09,25.67L75.43,26.64L75.48,25.18L75.68,26.41L75.73,26.66L75.98,27.59L76.43,25.83L76.48,26.37L76.53,26.69L76.68,26.53L77.72,32.48L77.77,32.79L78.71,36.07L78.76,36.69L79.16,36.12L79.46,37.71L79.51,37.09L79.56,36.83L79.65,36.03L80.3,37.29L80.35,36.76L80.4,37.01L80.5,34.49L80.65,34.52L80.7,34.36L81.44,31.49L81.59,31.57L81.64,31.52L81.79,33.49L82.49,33.28L82.53,33.35L82.68,32.16L82.93,34.36L83.23,33.33L83.28,33.61L84.17,37.24L84.42,36.28L84.47,35.43L84.77,33.86L85.22,35.32L85.27,34.83L85.42,36.03L85.71,33.5L85.96,34.52L86.01,34.68L86.16,34.03L86.86,35.88L86.9,36.15L87.8,38.99L87.85,38.54L87.9,37.52L88.49,40.34L88.54,39.98L88.99,41.45L89.29,40.27L89.34,39.91L89.49,39.21L89.79,40.85L90.13,40.6L90.18,40.66L90.48,41.88L90.73,40.12L90.93,40.48L90.98,40.93L91.37,42.12L91.67,41.61L91.72,40.49L91.92,40.64L92.62,38.13L92.67,38.42L92.72,38.77L92.91,37.96L94.01,42.89L94.06,42.53L94.3,40.67L94.75,42.08L94.8,42.6L95.15,42.28L95.45,43.59L95.5,41.94L96.14,43.61L96.29,42.55L96.34,41.62L96.49,40.63L97.28,42.46L97.33,41.94L97.38,41.41L97.88,43.76L97.93,43.69L98.53,46.53L98.67,44.12L98.72,43.77L99.32,41.47L99.52,42.62L99.57,42.72L100.02,44.38L100.16,42.21L100.21,41.31L100.41,38.9L101.11,39.26L101.16,39.29L101.36,38.27L101.75,40.46L101.8,40.38L101.95,39.98L102.95,43.56L102.99,43.08L103.09,41.43L103.74,42.81L103.79,43.02L104.09,43.75L104.14,44.16L104.34,45.14L104.39,44.76L104.43,43.83L104.98,44.64L105.03,44.97L105.13,44.03L105.73,45.17L105.78,45.04L106.02,46.48L106.57,45.8L106.62,45.8L107.02,46.25L107.12,44.83L107.36,45.45L107.41,45.66L107.76,44.76L108.01,45.26L108.06,45.59L108.41,46.85L108.61,44.73L108.66,45.14L108.71,44.68L108.76,44.04L109.15,45.19L109.35,45.02L109.4,45.6L110.05,47.29L110.1,46.48L110.15,45.67L110.39,44.86L111.14,47.41L111.19,46.46L111.24,45.91L112.08,48.77L112.43,47.83L112.48,47.11L112.73,49.1L113.18,47.81L113.22,46.79L113.27,47.28L113.47,44.75L113.87,45.99L113.92,46.11L114.86,49.36L115.01,49.22L115.06,48.85L115.26,47.77L115.61,48.74L115.66,49.29L116.3,48.04L116.4,48.88L116.45,49.2L116.85,49.53L116.9,48.53L117.1,49.22L117.15,49.74L117.5,48.41L117.79,50.07L117.89,49.56L117.94,49.63L118.54,50.39L118.59,50.87L119.58,53.83L119.83,53.64L119.88,52.98L119.98,52.5L120.38,53.58L120.43,53.58L120.48,53.91L120.57,52.98L121.22,54.52L121.27,53.68L121.47,53.46L121.92,54.57L121.96,53.42L122.01,53.52L122.06,53.94L122.56,51.86L122.61,51.9L123.01,51.5L123.21,52.27L123.26,51.16L123.41,50.76L123.75,52.59L123.9,51.93L123.95,52.44L124.05,51.49L124.55,53.12L124.6,53.81L124.75,54.1L124.8,53.14L124.89,53.41L124.94,52.32L125.04,51.79L125.49,52.73L125.64,52.26L125.69,52.63L126.88,56.95L126.93,55.56L127.58,54.55L127.68,55.36L127.73,55.76L128.42,52.75L128.62,53.79L128.67,54.03L129.46,57.38L129.86,57.15L129.91,56.42L130.46,58.28L130.8,57.6L130.85,57.64L131.3,58.81L131.7,58.46L131.75,57.81L132.89,59.89L132.94,59.59L133.39,57.85L133.73,59.04L133.78,59.2L134.78,62.95L134.83,63.17L136.07,64.66L136.12,64.58L136.27,64.25L136.86,66.22L137.06,66.12L137.11,65.94L137.21,66.06L137.31,65.35L137.36,64.43L137.81,63.87L138.1,65.09L138.2,64.65L138.25,64.21L138.55,65.6L139.1,64.97L139.15,64.75L139.4,64.27L140.04,66.39L140.09,65.2L140.89,67.43L140.94,67.67L141.03,68.2L141.28,66.86L141.43,66.92L141.48,66.97L142.92,70.12L142.97,69.37L144.36,69.78L144.41,70.06L145.8,72.89L145.85,72.97L146,72.84L147.24,75.23L147.29,74.44L147.84,71.68L148.14,72.2L148.19,72.27L148.33,72.47L148.58,71.52L148.78,71.91L148.83,71.13L149.23,71.85L149.38,71.42L149.43,70.58L150.12,72.11L150.17,72.6L150.37,72.15L151.21,73.93L151.36,73.57L151.41,72.45L151.86,71.95L153.5,74.59L153.55,73.83L153.75,73.73L154.34,74.77L154.44,74.33L154.49,73.83L154.69,73.56L156.08,76.37L156.23,75.97L156.28,75.72L157.52,71.61L157.62,71.69L157.67,71.86L158.07,71.68L158.76,73.13L158.81,72.75L159.86,75.56L159.91,75.12L160.55,74.18L160.75,74.73L160.8,74.84L160.85,74.52L161.39,75.67L161.44,75.71L161.64,75.51L161.89,76.3L161.94,76.4L162.14,75.83L162.59,76.89L162.64,77.28L163.88,80.1L164.13,79.45L164.18,79.47L164.23,79L164.82,79.86L164.87,79.86L164.92,80.01L165.37,79.1L165.67,79.95L165.72,79.99L166.81,82L167.01,81.42L167.06,81.29L167.8,82.74L167.95,82.64L168,82.1L168.99,83.28L169.04,83.49L169.54,83.12L169.79,84.25L169.99,84.12L170.04,84.18L170.68,86.05L170.98,85.03L171.03,84.26L171.28,83.6L171.67,84.4L171.72,84.56L174.36,89.2L174.41,88.32L174.46,87.42L175.3,88.54L175.35,88.55L176.44,91.12L176.49,90.46L177.63,92.94L177.83,92.66L177.88,92.66L178.03,92.52L178.73,93.17L178.78,92.76L178.92,92.64L180.02,94.28L180.07,93.75L180.32,91.65L180.86,92.48L180.91,92.67L181.01,92.39L181.46,93.07L181.51,93.23L181.85,93.01L182.4,93.65L182.45,93.47L184.09,94.97L184.14,95.04L184.59,94.55L184.93,95.43L184.98,95.06L185.68,96.47L185.93,95.97L185.98,96.01L186.67,94.05L187.07,94.39L187.12,94.48L187.27,94.24L187.71,94.81L187.76,95.12L188.31,94.46L188.51,94.96L188.56,95.21L188.61,94.63L189.25,95.73L189.3,95.73L189.35,94.96L190.05,95.69L190.1,95.74L191.14,97.12L191.19,96.69L193.82,100.73L193.87,100.68L193.92,100.68L194.72,100.99L194.77,100.61L196.21,102.74L196.26,102.35L197.85,104.33L197.9,104.57L199.98,105.49L200.03,104.92L201.87,107.34L201.92,107.62L202.51,108.85L202.56,109.08L207.58,113.11L207.63,113.33L208.82,114.45L208.87,114.17L209.12,114.05L209.91,115.11L209.96,115.12L210.06,114.74L210.56,115.74L210.61,115.89L211.1,116.65L211.25,116.12L211.3,115.8L212.54,117.27L212.59,116.85L213.69,118.1L213.74,118.1L215.33,119.06L215.38,119.21L215.87,119.82L216.17,119.52L216.22,119.52L217.56,121.29L217.61,121.47L218.65,122.48L218.7,122.78L222.97,126.84L223.02,126.98L223.37,126.8L223.62,127.45L223.67,127.61L225.31,127.85L225.36,127.45L229.28,130.6L229.33,130.87L230.97,132.42L231.02,132.42L234.44,134.24L234.49,134.24L236.98,136.27L237.03,136.27L238.52,137.89L238.57,137.9L240.5,139.15L240.55,139.16L241.45,139.63L241.5,139.63L242.99,140.65L243.04,140.79L248.35,144.91L248.4,145.08L257.04,152.69L257.09,152.69L258.28,153.42L258.33,153.45L262.65,156.54L262.7,156.76L264.09,157.57L264.14,157.61L266.18,158.48L266.23,158.61L268.11,159.16L268.16,159.41L270.25,160.76L270.3,160.76L277.5,165.01L277.55,165.26L282.76,167.89L282.81,167.9L284.25,168.68L284.3,168.68L289.82,172.3L289.87,172.3L292.05,173.04L292.1,173.1L294.93,174.42L294.98,174.42L297.36,175.15L297.41,175.15L299.1,175.71L299.15,175.71L304.27,178.43L304.32,178.43L305.66,179.17L305.71,179.24L306.85,179.56L306.9,179.56L308.93,180.31L308.98,180.33L312.11,181.75L312.16,181.75L314.45,182.5L314.5,182.62L316.19,183.32L316.23,183.41L325.57,186.47L325.62,186.73L328.25,187.43L328.3,187.43L330.74,188.24L330.79,188.33L332.62,189.02L332.67,189.02L343.65,192.39L343.7,192.62L347.37,193.37L347.42,193.42L350.5,194.01L350.55,194.25L352.88,194.95L352.93,194.95L355.32,195.57L355.37,195.75L358.69,196.69L358.74,196.81L364.21,197.86L364.26,197.96L365.4,198.27L365.45,198.27L372.2,199.3L372.25,199.3L376.87,200.03L376.92,200.06L377.76,200.49L377.81,200.49L379.5,201L379.55,201L381.29,201.68L381.34,201.76L429.06,211.48L429.11,211.93L431.35,212.29L431.4,212.29L436.01,212.87L436.06,213.11L439.99,213.73L440.04,213.9L443.41,214.64L443.46,214.72L447.64,215.46L447.68,215.64L448.38,215.65" style="vector-effect: non-scaling-stroke; fill: none; stroke: rgb(99, 110, 250); stroke-opacity: 1; stroke-width: 2px; opacity: 1;"/></g><g class="points"/><g class="text"/></g></g></g><g class="overplot"><g class="xy2" transform="translate(78,20)" clip-path="url(#clip7339a9xy2plot)"><g class="scatterlayer mlayer"><g class="trace scatter tracef56fc6" style="stroke-miterlimit: 2; opacity: 1;"><g class="fills"/><g class="errorbars"/><g class="lines"><path class="js-line" d="M0,11.35L10.43,50.07L10.48,50.24L21.55,83.32L21.6,83.45L30.14,104.35L30.19,104.47L40.42,125.18L40.47,125.27L50.6,141.96L50.65,142.03L59.89,154.54L59.94,154.6L71.31,167.11L71.36,167.15L80.9,175.63L80.95,175.67L89.44,181.96L89.49,182L102.35,189.69L102.4,189.71L114.66,195.4L114.71,195.42L130.51,200.94L130.56,200.95L142.08,204L142.13,204.01L155.09,206.69L155.14,206.7L171.62,209.24L171.67,209.24L196.01,211.74L196.06,211.74L242.14,214.12L242.19,214.12L260.62,214.6L260.67,214.6L282.12,214.98L282.17,214.98L448.38,215.65" style="vector-effect: non-scaling-stroke; fill: none; stroke: rgb(239, 85, 59); stroke-opacity: 1; stroke-width: 2px; opacity: 1;"/></g><g class="points"/><g class="text"/></g></g></g></g><path class="xlines-above crisp" d="M0,0" style="fill: none;"/><path class="ylines-above crisp" d="M0,0" style="fill: none;"/><g class="overlines-above"><path class="xy2-x crisp" d="M0,0" style="fill: none;"/><path class="xy2-y crisp" d="M0,0" style="fill: none;"/></g><g class="xaxislayer-above"><g class="xtick"><text text-anchor="middle" x="0" y="260" transform="translate(78,0)" style="font-family: 'Open Sans', verdana, arial, sans-serif; font-size: 12px; fill: rgb(42, 63, 95); fill-opacity: 1; white-space: pre; opacity: 1;">0</text></g><g class="xtick"><text text-anchor="middle" x="0" y="260" style="font-family: 'Open Sans', verdana, arial, sans-serif; font-size: 12px; fill: rgb(42, 63, 95); fill-opacity: 1; white-space: pre; opacity: 1;" transform="translate(177.32,0)">2000</text></g><g class="xtick"><text text-anchor="middle" x="0" y="260" style="font-family: 'Open Sans', verdana, arial, sans-serif; font-size: 12px; fill: rgb(42, 63, 95); fill-opacity: 1; white-space: pre; opacity: 1;" transform="translate(276.64,0)">4000</text></g><g class="xtick"><text text-anchor="middle" x="0" y="260" style="font-family: 'Open Sans', verdana, arial, sans-serif; font-size: 12px; fill: rgb(42, 63, 95); fill-opacity: 1; white-space: pre; opacity: 1;" transform="translate(375.96,0)">6000</text></g><g class="xtick"><text text-anchor="middle" x="0" y="260" style="font-family: 'Open Sans', verdana, arial, sans-serif; font-size: 12px; fill: rgb(42, 63, 95); fill-opacity: 1; white-space: pre; opacity: 1;" transform="translate(475.28,0)">8000</text></g></g><g class="yaxislayer-above"><g class="ytick"><text text-anchor="end" x="77" y="4.199999999999999" transform="translate(0,243.6)" style="font-family: 'Open Sans', verdana, arial, sans-serif; font-size: 12px; fill: rgb(42, 63, 95); fill-opacity: 1; white-space: pre; opacity: 1;">−300k</text></g><g class="ytick"><text text-anchor="end" x="77" y="4.199999999999999" style="font-family: 'Open Sans', verdana, arial, sans-serif; font-size: 12px; fill: rgb(42, 63, 95); fill-opacity: 1; white-space: pre; opacity: 1;" transform="translate(0,175.88)">−200k</text></g><g class="ytick"><text text-anchor="end" x="77" y="4.199999999999999" style="font-family: 'Open Sans', verdana, arial, sans-serif; font-size: 12px; fill: rgb(42, 63, 95); fill-opacity: 1; white-space: pre; opacity: 1;" transform="translate(0,108.16)">−100k</text></g><g class="ytick"><text text-anchor="end" x="77" y="4.199999999999999" style="font-family: 'Open Sans', verdana, arial, sans-serif; font-size: 12px; fill: rgb(42, 63, 95); fill-opacity: 1; white-space: pre; opacity: 1;" transform="translate(0,40.44)">0</text></g></g><g class="overaxes-above"><g class="xy2-x"/><g class="xy2-y"><g class="y2tick"><text text-anchor="start" x="527.38" y="4.199999999999999" transform="translate(0,235.67)" style="font-family: 'Open Sans', verdana, arial, sans-serif; font-size: 12px; fill: rgb(42, 63, 95); fill-opacity: 1; white-space: pre; opacity: 1;">0</text></g><g class="y2tick"><text text-anchor="start" x="527.38" y="4.199999999999999" style="font-family: 'Open Sans', verdana, arial, sans-serif; font-size: 12px; fill: rgb(42, 63, 95); fill-opacity: 1; white-space: pre; opacity: 1;" transform="translate(0,184.59)">500</text></g><g class="y2tick"><text text-anchor="start" x="527.38" y="4.199999999999999" style="font-family: 'Open Sans', verdana, arial, sans-serif; font-size: 12px; fill: rgb(42, 63, 95); fill-opacity: 1; white-space: pre; opacity: 1;" transform="translate(0,133.51)">1000</text></g><g class="y2tick"><text text-anchor="start" x="527.38" y="4.199999999999999" style="font-family: 'Open Sans', verdana, arial, sans-serif; font-size: 12px; fill: rgb(42, 63, 95); fill-opacity: 1; white-space: pre; opacity: 1;" transform="translate(0,82.43)">1500</text></g><g class="y2tick"><text text-anchor="start" x="527.38" y="4.199999999999999" style="font-family: 'Open Sans', verdana, arial, sans-serif; font-size: 12px; fill: rgb(42, 63, 95); fill-opacity: 1; white-space: pre; opacity: 1;" transform="translate(0,31.35)">2000</text></g></g></g></g><g class="subplot xy2"/></g><g class="polarlayer"/><g class="smithlayer"/><g class="ternarylayer"/><g class="geolayer"/><g class="funnelarealayer"/><g class="pielayer"/><g class="iciclelayer"/><g class="treemaplayer"/><g class="sunburstlayer"/><g class="glimages"/><defs id="topdefs-7339a9"><g class="clips"/><clipPath id="legend7339a9"><rect width="123" height="48" x="0" y="0"/></clipPath></defs><g class="layer-above"><g class="imagelayer"/><g class="shapelayer"/></g><g class="infolayer"><g class="legend" pointer-events="all" transform="translate(564.54,20)"><rect class="bg" shape-rendering="crispEdges" width="123" height="48" x="0" y="0" style="stroke: rgb(68, 68, 68); stroke-opacity: 1; fill: rgb(255, 255, 255); fill-opacity: 1; stroke-width: 0px;"/><g class="scrollbox" transform="" clip-path="url(#legend7339a9)"><g class="groups"><g class="traces" transform="translate(0,14.5)" style="opacity: 1;"><text class="legendtext" text-anchor="start" x="40" y="4.680000000000001" style="font-family: 'Open Sans', verdana, arial, sans-serif; font-size: 12px; fill: rgb(42, 63, 95); fill-opacity: 1; white-space: pre;">Cost</text><g class="layers" style="opacity: 1;"><g class="legendfill"/><g class="legendlines"><path class="js-line" d="M5,0h30" style="fill: none; stroke: rgb(99, 110, 250); stroke-opacity: 1; stroke-width: 2px;"/></g><g class="legendsymbols"><g class="legendpoints"/></g></g><rect class="legendtoggle" x="0" y="-9.5" width="117.265625" height="19" style="fill: rgb(0, 0, 0); fill-opacity: 0;"/></g><g class="traces" transform="translate(0,33.5)" style="opacity: 1;"><text class="legendtext" text-anchor="start" x="40" y="4.680000000000001" style="font-family: 'Open Sans', verdana, arial, sans-serif; font-size: 12px; fill: rgb(42, 63, 95); fill-opacity: 1; white-space: pre;">Temperature</text><g class="layers" style="opacity: 1;"><g class="legendfill"/><g class="legendlines"><path class="js-line" d="M5,0h30" style="fill: none; stroke: rgb(239, 85, 59); stroke-opacity: 1; stroke-width: 2px;"/></g><g class="legendsymbols"><g class="legendpoints"/></g></g><rect class="legendtoggle" x="0" y="-9.5" width="117.265625" height="19" style="fill: rgb(0, 0, 0); fill-opacity: 0;"/></g></g></g><rect class="scrollbar" rx="20" ry="3" width="0" height="0" x="0" y="0" style="fill: rgb(128, 139, 164); fill-opacity: 1;"/></g><g class="g-gtitle"/><g class="g-xtitle"><text class="xtitle" x="302.19" y="287.8" text-anchor="middle" style="font-family: 'Open Sans', verdana, arial, sans-serif; font-size: 14px; fill: rgb(42, 63, 95); opacity: 1; font-weight: normal; white-space: pre;">Iterations</text></g><g class="g-ytitle" transform="translate(1.6123046875,0)"><text class="ytitle" transform="rotate(-90,12.387500000000003,133.5)" x="12.387500000000003" y="133.5" text-anchor="middle" style="font-family: 'Open Sans', verdana, arial, sans-serif; font-size: 14px; fill: rgb(42, 63, 95); opacity: 1; font-weight: normal; white-space: pre;">Cost</text></g><g class="g-y2title"><text class="y2title" transform="rotate(-90,583.08125,133.5)" x="583.08125" y="133.5" text-anchor="middle" style="font-family: 'Open Sans', verdana, arial, sans-serif; font-size: 14px; fill: rgb(42, 63, 95); opacity: 1; font-weight: normal; white-space: pre;">Temperature</text></g></g></svg>