<svg class="main-svg" xmlns="http://www.w3.org/2000/svg" xmlns:xlink="http://www.w3.org/1999/xlink" width="700" height="300" style="" viewBox="0 0 700 300"><rect x="0" y="0" width="700" height="300" style="fill: rgb(255, 255, 255); fill-opacity: 1;"/><defs id="defs-184df2"><g class="clips"><clipPath id="clip184df2xyplot" class="plotclip"><rect width="457.78" height="227"/></clipPath><clipPath id="clip184df2xy2plot" class="plotclip"><rect width="457.78" height="227"/></clipPath><clipPath class="axesclip" id="clip184df2x"><rect x="68" y="0" width="457.78" height="300"/></clipPath><clipPath class="axesclip" id="clip184df2y"><rect x="0" y="20" width="700" height="227"/></clipPath><clipPath class="axesclip" id="clip184df2xy"><rect x="68" y="20" width="457.78" height="227"/></clipPath><clipPath class="axesclip" id="clip184df2y2"><rect x="0" y="20" width="700" height="227"/></clipPath><clipPath class="axesclip" id="clip184df2xy2"><rect x="68" y="20" width="457.78" height="227"/></clipPath></g><g class="gradients"/><g class="patterns"/></defs><g class="bglayer"><rect class="bg" x="68" y="20" width="457.78" height="227" style="fill: rgb(229, 236, 246); fill-opacity: 1; stroke-width: 0;"/></g><g class="layer-below"><g class="imagelayer"/><g class="shapelayer"/></g><g class="cartesianlayer"><g class="subplot xy"><g class="layer-subplot"><g class="shapelayer"/><g class="imagelayer"/></g><g class="gridlayer"><g class="x"><path class="xgrid crisp" transform="translate(178.86,0)" d="M0,20v227" style="stroke: rgb(255, 255, 255); stroke-opacity: 1; stroke-width: 1px;"/><path class="xgrid crisp" transform="translate(289.71000000000004,0)" d="M0,20v227" style="stroke: rgb(255, 255, 255); stroke-opacity: 1; stroke-width: 1px;"/><path class="xgrid crisp" transform="translate(400.57,0)" d="M0,20v227" style="stroke: rgb(255, 255, 255); stroke-opacity: 1; stroke-width: 1px;"/><path class="xgrid crisp" transform="translate(511.42,0)" d="M0,20v227" style="stroke: rgb(255, 255, 255); stroke-opacity: 1; stroke-width: 1px;"/></g><g class="y"><path class="ygrid crisp" transform="translate(0,222.34)" d="M68,0h457.78" style="stroke: rgb(255, 255, 255); stroke-opacity: 1; stroke-width: 1px;"/><path class="ygrid crisp" transform="translate(0,184.22)" d="M68,0h457.78" style="stroke: rgb(255, 255, 255); stroke-opacity: 1; stroke-width: 1px;"/><path class="ygrid crisp" transform="translate(0,146.1)" d="M68,0h457.78" style="stroke: rgb(255, 255, 255); stroke-opacity: 1; stroke-width: 1px;"/><path class="ygrid crisp" transform="translate(0,107.97)" d="M68,0h457.78" style="stroke: rgb(255, 255, 255); stroke-opacity: 1; stroke-width: 1px;"/><path class="ygrid crisp" transform="translate(0,69.85)" d="M68,0h457.78" style="stroke: rgb(255, 255, 255); stroke-opacity: 1; stroke-width: 1px;"/><path class="ygrid crisp" transform="translate(0,31.73)" d="M68,0h457.78" style="stroke: rgb(255, 255, 255); stroke-opacity: 1; stroke-width: 1px;"/></g><g class="y2"><path class="y2grid crisp" transform="translate(0,184.61)" d="M68,0h457.78" style="stroke: rgb(255, 255, 255); stroke-opacity: 1; stroke-width: 1px;"/><path class="y2grid crisp" transform="translate(0,133.53)" d="M68,0h457.78" style="stroke: rgb(255, 255, 255); stroke-opacity: 1; stroke-width: 1px;"/><path class="y2grid crisp" transform="translate(0,82.44)" d="M68,0h457.78" style="stroke: rgb(255, 255, 255); stroke-opacity: 1; stroke-width: 1px;"/><path class="y2grid crisp" transform="translate(0,31.35)" d="M68,0h457.78" style="stroke: rgb(255, 255, 255); stroke-opacity: 1; stroke-width: 1px;"/></g></g><g class="zerolinelayer"><path class="xzl zl crisp" transform="translate(68,0)" d="M0,20v227" style="stroke: rgb(255, 255, 255); stroke-opacity: 1; stroke-width: 2px;"/><path class="y2zl zl crisp" transform="translate(0,235.7)" d="M68,0h457.78" style="stroke: rgb(255, 255, 255); stroke-opacity: 1; stroke-width: 2px;"/></g><path class="xlines-below"/><path class="ylines-below"/><g class="overlines-below"><path class="xy2-x"/><path class="xy2-y"/></g><g class="xaxislayer-below"/><g class="yaxislayer-below"/><g class="overaxes-below"><g class="xy2-x"/><g class="xy2-y"/></g><g class="plot" transform="translate(68,20)" clip-path="url(#clip184df2xyplot)"><g class="scatterlayer mlayer"><g class="trace scatter trace195272" style="stroke-miterlimit: 2; opacity: 1;"><g class="fills"/><g class="errorbars"/><g class="lines"><path class="js-line" d="M0,31.71L0.11,21.83L0.39,26.87L0.44,29.59L0.67,18.99L0.83,33.32L1.16,25.65L1.22,33.93L1.33,31.51L1.55,42.11L1.61,32.18L1.66,32.61L1.72,30.97L1.77,26.32L2.22,41.88L2.55,30.03L2.61,27.67L2.77,35.75L2.99,19.78L3.16,27.09L3.21,38.45L3.88,25.88L3.99,26.89L4.05,29.08L4.16,30.33L4.21,26.28L4.71,44.23L4.93,30.88L4.99,25.78L5.32,39.04L5.71,24.77L5.76,29.83L5.82,24.65L6.04,30L6.15,27.8L6.21,18.43L7.09,43.86L7.15,41.27L7.21,38.63L7.43,29.19L7.87,42.66L8.04,32.13L8.09,33.87L8.15,34.06L8.2,37.32L8.26,44.49L8.87,28.21L8.92,23.63L9.03,22.94L9.64,38.17L9.81,33.34L9.87,29.42L10.14,36.45L10.59,18.38L10.64,25.36L10.7,26.26L10.97,23.75L11.25,35.02L11.31,34.45L11.42,28.28L11.64,41.16L12.03,34.83L12.08,37.53L12.19,38.6L12.8,26.43L12.91,31.28L12.97,37.03L13.75,19.93L13.8,25.03L13.86,28.18L14.08,38.87L14.41,23.99L14.63,35.37L14.69,33.49L15.13,40.38L15.41,22.92L15.58,24.56L15.63,30.64L15.69,30.85L15.74,22.12L15.8,19.08L16.13,34.41L16.35,21.15L16.41,27.99L16.52,39.41L16.79,18.99L16.96,26.49L17.02,18.67L17.46,43.31L17.79,33.7L17.85,32.26L17.96,26.75L18.35,41.54L18.57,32.9L18.62,34.16L19.07,35.76L19.12,21.41L19.51,27.93L19.57,29.6L19.68,31.92L19.79,23.81L20.18,30.82L20.23,37.09L20.34,39.91L20.79,24.22L21.01,26L21.06,35.47L21.23,34.77L21.28,38.25L21.34,31.54L21.51,43.94L22.06,29.48L22.12,34.89L22.23,43.88L22.73,31.34L22.78,25.93L22.89,25.96L22.95,24.52L23,31.37L23.06,28.73L23.39,38.26L23.61,31.92L23.67,35.92L23.83,26.29L24.33,36.45L24.44,30.46L24.5,33.7L24.94,11.35L25.16,39.47L25.22,38.16L25.5,51.8L25.83,31.62L25.88,36.07L25.94,30.72L26.05,31.2L26.55,20.54L26.66,29.3L26.72,28.58L26.83,22.24L27.33,38.14L27.38,37.97L27.44,37.65L27.94,42.4L28.38,22.86L28.49,24.88L28.55,26.81L28.82,18.56L29.21,34.42L29.27,33.17L29.32,28.11L29.65,37.79L30.04,34.51L30.1,26.92L30.49,26.06L30.93,35.03L30.98,30.08L31.32,40.95L31.7,32.26L31.76,27.15L32.2,30.41L32.26,19.63L32.31,22.28L32.37,20.67L32.59,34.27L33.04,29.77L33.09,26.71L33.48,43.8L33.53,36.49L33.59,27.09L34.31,44.07L34.42,37.49L34.48,31.69L34.92,29.25L35.03,38.81L35.09,35.52L35.14,28.72L35.47,31.84L35.64,25.81L35.75,29.19L35.81,36.51L35.97,42.99L36.36,31.54L36.42,31.08L36.47,24.05L36.75,47.15L37.08,38.08L37.14,40.55L37.25,42.18L37.86,29.54L37.91,32.99L37.97,40.55L38.41,17.02L38.74,33.52L38.8,33.48L39.02,26.86L39.63,39.7L39.69,36.8L39.74,37.14L39.8,31.91L40.07,26.89L40.41,38.52L40.46,36.66L40.52,37.36L40.74,25.07L41.29,30.73L41.35,31.42L41.46,29.31L41.52,34.68L41.63,31.25L41.68,23.55L41.96,19.51L42.74,44.71L42.85,38.54L42.9,36.51L42.96,33.25L43.23,45.63L43.51,41.94L43.57,45.58L44.01,30.15L44.34,37.88L44.4,41.15L44.95,21.43L45.34,32.58L45.4,37.18L45.67,30L46.01,45.8L46.17,43.74L46.23,41.54L47.11,27.03L47.17,33.78L47.5,39.79L47.61,37.49L47.67,30.52L47.95,42.93L48.39,35.02L48.44,27.51L49.05,41.97L49.16,26.51L49.22,26.92L50,39.09L50.05,37.59L50.11,38.25L50.55,31.68L50.72,44.29L50.88,40.57L50.94,40.43L51.44,46.71L51.66,38.25L51.71,36.66L52.1,23.85L52.38,37.18L52.43,35L52.49,37.32L53.04,47.03L53.21,41.37L53.27,38.17L53.43,41.73L53.77,28.12L53.82,29.25L53.88,30.84L54.76,42.08L54.82,41.08L54.87,40.93L55.15,38.51L55.43,53.01L55.48,46.59L55.54,40.35L55.93,29.98L56.26,44.5L56.31,41.1L56.54,42.78L56.76,30.73L57.04,38.77L57.09,38.75L57.2,34.56L57.26,29.4L57.31,29.02L57.37,32.56L57.42,36.78L57.48,40.69L58.09,31.66L58.14,33.35L58.42,31.51L58.75,41.89L59.03,41.57L59.09,41.95L59.14,43.74L59.53,35.78L59.81,40.9L59.86,41.21L60.14,32.61L60.64,45.11L60.69,44.06L60.86,44.49L61.58,29.8L61.64,32L61.8,29.36L61.86,34.15L61.91,40.43L62.41,34.13L62.91,50.31L62.97,49.56L63.58,42.23L63.74,48.14L63.8,51.03L64.19,52.32L64.68,35.06L64.74,39.9L64.8,42L65.07,46.53L65.29,36.89L65.41,40.41L65.46,39.56L65.79,44.62L65.9,35.21L65.96,29.98L66.24,43.66L66.74,38.34L66.79,32.12L67.4,51.33L67.51,44.77L67.57,40.18L67.73,44.58L68.18,39.45L68.23,40.03L68.29,36.37L69.34,52.81L69.4,47.14L69.62,53.07L69.78,35.43L70.12,47.47L70.17,45.9L70.28,43.22L70.34,41.86L70.73,47.84L71.06,41.69L71.11,47.44L71.17,43.68L71.34,49.35L71.89,39.44L71.95,43.55L72,44.81L72.06,35.06L72.33,36.69L72.39,34.73L72.67,34.3L73.05,47.05L73.22,39.85L73.28,38.54L73.5,36.69L73.66,44.61L74.05,41.37L74.11,40.83L75.05,54.21L75.22,50.26L75.27,45.93L75.71,56.18L75.99,46.25L76.05,47.05L76.55,49.79L76.66,42.91L76.71,44.81L76.77,43.55L77.04,46.56L77.43,36.66L77.6,38.32L77.65,42.26L77.88,45.35L78.1,33.78L78.49,39.67L78.54,41.07L78.6,41.36L78.65,40.05L78.71,35.84L78.93,33.17L79.59,44.35L79.65,41.33L80.2,53.57L80.54,50.89L80.59,52.31L80.92,38.75L81.31,45.17L81.37,45.72L81.53,42L82.09,49.4L82.14,42.03L82.37,38.46L82.64,45.81L82.7,46.67L83.25,54.2L83.47,50.36L83.53,48.63L83.64,47.75L84.08,50.8L84.14,48.74L84.36,46.07L84.8,50.98L84.86,44.76L85.08,38.08L85.41,42.87L85.47,43.86L85.69,36.46L86.08,48.62L86.14,47.09L86.19,48.71L86.52,56.35L86.97,51.88L87.02,49.73L87.24,53.82L87.47,51.79L87.52,46.33L87.69,45L88.3,51.97L88.35,49.87L88.41,49.94L88.85,48.01L89.35,58.13L89.41,56.76L89.46,53.66L89.52,55.65L89.57,50.68L90.13,51.73L90.18,52.14L90.62,57.43L90.85,55.08L90.9,51.26L90.96,51.06L91.01,52.2L91.07,49.29L91.4,47.17L91.57,58.29L91.62,58.61L91.9,62.89L92.01,56.79L92.18,59.38L92.23,58.18L92.29,59.54L92.68,52.92L92.79,55.11L92.84,50.19L92.95,47.18L93.62,58.62L93.73,57.05L93.78,57.49L94.45,45.23L94.62,50.46L94.67,52.92L95.06,55.45L95.23,49.11L95.28,45.42L95.56,49.18L95.61,51.42L95.84,53.15L95.95,48.95L96,50.33L96.06,46.06L96.33,53.57L96.94,38.77L97,37.75L97.17,45.29L97.55,32.85L97.66,32.96L97.72,33.8L97.89,30.94L98.77,48.43L99.05,44.62L99.11,41.39L99.99,57.69L100.1,51.91L100.16,47.28L100.32,51.83L100.6,43.13L100.82,48.36L100.88,48.88L101.16,53.73L101.21,56.41L101.54,62.63L101.6,56.59L101.65,55.07L101.93,58.21L102.38,47.46L102.43,47.78L102.49,50.89L103.1,56.96L103.21,55.91L103.26,51.24L103.87,62.77L104.04,56.36L104.09,51.36L104.87,59.6L104.93,58.07L104.98,54.34L105.87,62.37L106.03,62.19L106.09,58.19L106.87,64.75L106.92,62.22L106.98,58.94L107.09,59.17L107.14,57.26L108.08,68.88L108.25,65.51L108.31,64.11L108.58,61.52L108.64,62.42L108.69,58.27L108.86,58.42L108.92,60.33L109.03,61.01L109.14,58.01L109.19,52.49L109.36,51.48L110.47,66.75L110.52,62.72L110.63,64.55L110.86,57.22L111.13,60.44L111.19,60.92L111.69,69.6L112.02,65.51L112.08,64.86L112.13,65.15L112.35,62.62L112.41,60.24L112.69,65.63L112.96,53.48L113.02,56.38L113.07,56.61L113.24,59.98L113.29,62.69L113.52,60.71L114.02,67.14L114.07,65.89L114.13,63.74L115.07,71.02L115.12,67.94L115.18,68.23L115.23,65.83L115.29,64.98L115.68,64.93L115.96,72.63L116.23,69.81L116.29,67.07L116.73,70.35L116.9,65.54L116.95,65.89L117.01,63.47L117.62,70.04L117.84,66L117.9,63.38L118.23,67.62L118.28,64.22L119,68.64L119.11,67.8L119.17,63.36L119.34,51.59L119.89,58.44L119.95,58.82L120.67,68.15L121.11,67.33L121.17,64.2L121.22,60.83L121.83,67.42L121.89,67.45L122.16,72.1L122.66,69.92L122.72,65.56L122.99,67.89L123.33,58.39L123.49,60.51L123.55,64.05L124.71,72.33L124.77,73.06L124.82,73.35L124.88,70.07L125.05,71.32L125.1,69L125.21,65.74L126.32,77.56L126.38,76.51L126.43,71.84L126.71,70.35L127.04,73.18L127.1,70.32L127.15,69.83L127.43,74.07L127.48,75.65L127.54,75.97L127.6,72.04L128.04,69.07L128.37,76.11L128.43,73.91L128.48,74.02L128.65,73.21L128.93,77.32L128.98,78.41L129.31,81.83L129.48,74.84L129.54,76.49L129.59,74.59L129.65,71.96L130.2,77.5L130.26,78.23L130.64,83.6L131.14,82.18L131.2,79.51L131.36,80.06L131.42,76.32L131.48,76.03L131.59,76.8L131.64,79.28L131.92,77.21L132.08,81.13L132.14,79.19L132.2,76.06L132.36,71.87L132.81,78.06L132.86,74.8L132.92,75.09L133.25,78.46L133.42,73.24L133.47,70.8L133.75,72.01L133.8,69.87L133.86,70.27L133.91,66.03L134.02,65.54L134.86,78.28L134.91,80.23L134.97,77.5L135.3,81.98L135.63,80.81L135.69,81.01L135.74,82.16L136.08,75.62L136.24,76.78L136.3,77.03L136.52,78.54L136.57,73.73L136.85,75.94L136.96,71.66L137.02,69.66L137.35,67.72L137.96,74.71L138.02,74.92L138.46,79.04L138.57,73.84L138.79,77.73L138.85,75.33L139.24,79.39L139.4,72.57L139.62,76.13L139.68,76.71L140.23,76.77L140.4,73.41L140.45,74.91L140.51,74.94L141.06,80.33L141.4,79.74L141.45,78.46L141.51,79.3L141.73,73.52L141.78,73.87L141.84,69.63L142.17,71.22L142.23,72.21L142.89,79.16L143,76.06L143.06,75.1L143.23,72.68L143.72,78.23L143.78,76.32L143.84,74.81L143.89,73.5L144.45,77.85L144.5,77.97L144.67,74.6L144.94,77.67L145,79.43L146.33,86.6L146.39,82.44L146.61,74.36L147.16,78.28L147.22,78.57L147.33,72.5L147.83,76.77L147.88,78.37L147.94,78.64L147.99,76.98L148.05,74.23L149.88,87.07L149.93,83.77L149.99,83.96L150.21,87.18L150.27,90.05L150.32,86.37L150.82,92.14L150.99,91.91L151.04,92.73L151.6,97.61L151.65,94.35L151.93,94.52L152.7,87.97L152.98,88.72L153.04,89.53L153.81,97.38L153.98,95.43L154.03,90.98L154.15,92.06L154.37,86.54L154.53,88.25L154.59,88.37L155.09,93.49L155.31,91.12L155.36,90.14L155.75,92.35L155.97,87.91L156.03,88.14L156.09,91.68L156.58,91.63L156.97,96.64L157.03,96.71L157.53,99.27L158.14,86.28L158.36,89.12L158.41,90.7L158.75,93.43L159.13,88.89L159.24,89.64L159.3,89.7L159.52,90.32L159.58,87.46L160.19,93.16L160.74,92.56L160.8,92.78L160.91,94.01L160.96,91.36L161.02,88.83L161.13,90.86L161.18,89.47L161.24,85.88L161.96,90.87L162.02,86.75L162.07,87.06L162.18,86.1L164.07,101.22L164.18,100.65L164.23,97.41L164.84,94.2L165.01,94.67L165.06,95.14L165.56,94.09L165.84,97.96L165.9,94.99L166.23,97.6L166.28,93.02L166.89,98.02L166.95,98.6L167.06,96.31L167.61,99.76L167.67,100.49L168.06,103.66L168.5,101.99L168.56,99.35L168.78,100.07L168.83,98.39L168.89,98.88L168.94,97.31L169,97.82L169.17,93.52L169.22,93.59L169.28,93.74L169.39,92.61L170.44,98.92L170.5,96.94L170.77,99.46L170.88,95.45L171,95.86L171.05,93.2L172.82,104.38L172.88,102.23L173.38,104.75L173.6,101.82L173.66,102.22L173.71,102.93L174.04,98.82L174.27,100.75L174.32,100.83L175.49,109.18L175.54,106.84L175.6,104.5L175.82,103.39L176.48,106L176.54,106.01L177.31,98.36L177.54,99.49L177.59,100.14L178.09,100.34L178.37,94.73L178.48,95.06L178.53,95.84L179.25,100.92L179.31,102.6L179.53,103.94L180.53,93.94L180.7,95.52L180.75,96.24L181.97,101.12L182.03,99.09L182.08,97.66L182.64,100.94L182.69,102.06L182.86,101.13L183.8,105.1L183.85,102.75L184.02,104.44L184.08,105.42L185.13,112.68L185.19,113.03L185.63,116.29L185.74,115.86L185.79,112.19L186.85,117.72L186.9,115.89L186.96,114.78L187.57,116.4L187.62,117.19L188.07,118.43L188.12,118.58L188.23,116.34L188.95,121.4L189.06,120.5L189.12,120.99L189.67,124.46L189.73,120.82L190.51,108.3L190.78,109.9L190.84,110.57L191.61,112.94L191.67,109.47L191.84,107.46L192.5,113.9L192.67,112.62L192.72,112.94L192.83,112.86L193.72,117.25L193.78,115.35L194.33,115.06L195,119.52L195.05,119.97L195.33,121.52L195.44,117.91L195.61,118.73L195.66,118.73L196.05,121.11L196.33,120.18L196.38,117.66L196.44,115.86L196.94,119.05L197.1,116.75L197.16,117.05L197.6,118.18L197.66,120.48L198.43,124.22L198.71,122.54L198.76,120.32L198.99,121.37L199.49,119L199.54,119.26L199.6,120.09L199.76,121.23L199.87,118.38L200.37,120.39L200.43,120.47L200.82,120.79L201.09,117.68L201.43,118.7L201.48,118.78L201.87,117.43L202.42,121.54L202.48,121.61L202.64,119.63L203.14,122.15L203.25,120.38L203.31,120.62L203.64,120.44L204.58,124.68L204.64,125.65L204.75,125.81L204.81,124.63L204.86,121.83L205.42,124.42L205.58,123.58L205.64,122.74L205.8,122.95L205.86,121.96L205.92,119.68L206.08,118.67L207.47,126.2L207.52,126.31L207.58,123.67L208.19,128.84L208.24,128.84L209.68,118.76L209.74,118.82L209.8,119.34L209.91,118.52L210.24,120.36L210.4,119.84L210.46,120.5L210.85,121.26L210.9,119.13L211.24,119.42L211.29,119.55L212.84,126.74L212.9,126.86L214.17,130L214.23,128.89L215.28,132.73L215.34,131.31L215.39,129.62L218.22,139.19L218.5,138.86L218.55,138.86L218.72,138.4L219.11,139.22L219.16,137.17L219.44,135.98L219.83,137.47L219.88,137.62L220.44,138.28L220.6,137.78L220.66,135.14L221.1,132.71L221.43,134.18L221.49,134.18L222.49,137.01L222.54,137.14L222.71,137.61L222.77,136.31L223.32,137.23L223.37,137.32L223.49,136.62L223.98,137.91L224.04,136.86L224.1,136.98L225.26,139.01L225.31,139.06L225.37,137.79L225.98,139.5L226.04,139.99L227.09,143.04L227.14,143.6L228.36,145.96L228.42,144.87L229.53,147.85L229.58,145.61L229.64,143.89L230.3,145.38L230.36,145.38L230.86,146.57L230.91,145.16L231.02,146.06L231.08,144.5L231.19,142.85L231.86,143.37L231.91,143.54L232.41,144.06L232.47,143.25L232.69,143.59L232.74,143.62L233.07,144.76L233.13,143.54L233.52,144.09L233.57,143.78L233.68,142.49L234.18,144.82L234.24,144.82L235.57,147.35L235.62,146.99L236.29,144.68L236.51,145.23L236.57,145.23L237.68,148.25L237.73,148.27L237.9,147.78L238.29,148.39L238.51,148.25L238.56,148.25L239.06,149.27L239.12,147.69L239.23,147.84L239.28,147.95L240,150.22L240.28,149.68L240.34,148.8L241.44,150.69L241.5,150.71L241.89,150.13L242.94,152.05L243,152.05L243.66,153.68L243.83,152.61L243.88,152.61L244.6,153.24L244.66,151.99L245.1,152.58L245.16,151.03L247.76,154.93L247.82,155.11L249.48,160.37L249.54,160.37L251.92,164.19L251.98,164.55L252.53,164.98L252.59,164L254.08,165.73L254.14,164.81L254.64,165.77L254.69,166.26L255.19,166.66L255.25,165.53L255.8,166.32L255.86,166.58L257.08,168.65L257.24,167.8L257.3,167.8L259.07,169.66L259.13,168.11L259.74,168.78L259.79,167.48L261.12,169.31L261.18,168.17L261.29,168.56L261.34,167.56L261.9,168L261.95,168L262.4,168.44L262.45,167.07L262.73,167.13L262.78,165.99L264.17,168.11L264.23,168.18L266.39,169.74L266.44,168.76L267.77,169.95L267.83,169.97L269.21,170.87L269.27,169.63L270.82,171.25L270.88,170L272.26,171.12L272.32,169.71L273.43,170.58L273.48,170.58L274.81,173.15L274.87,173.15L275.81,174.16L275.87,174.16L277.08,174.65L277.14,174.65L278.75,175.82L278.8,176.06L282.02,178.81L282.07,179.08L283.35,180.59L283.4,180.59L285.29,181.43L285.34,181.43L288,181.95L288.06,182.32L289.39,183.32L289.45,183.32L291.77,184.07L291.83,184.09L301.58,187.65L301.64,187.65L309.07,190.72L309.12,191.07L313.28,193.23L313.33,193.59L315.66,194.32L315.72,194.64L318.66,195.45L318.71,195.58L330.3,198.01L330.35,198.36L334.12,198.97L334.18,199.27L339,200.02L339.05,200.28L342.77,201.01L342.82,201.21L344.82,201.88L344.87,201.97L358.84,204.17L358.9,204.49L362.94,205.22L363,205.25L374.64,205.98L374.69,206.03L379.57,206.58L379.63,206.84L382.45,207.1L382.51,207.1L385.11,207.75L385.17,207.96L386.22,208.1L386.28,208.1L391.93,208.74L391.99,208.86L395.26,209.26L395.31,209.26L404.74,209.86L404.79,210.04L412.33,210.79L412.38,210.92L413.44,211.29L413.49,211.29L421.75,212.01L421.81,212.05L428.46,212.78L428.51,212.81L439.49,213.52L439.54,213.61L447.86,214.34L447.91,214.37L450.24,215.02L450.3,215.13L457.78,215.65" style="vector-effect: non-scaling-stroke; fill: none; stroke: rgb(99, 110, 250); stroke-opacity: 1; stroke-width: 2px; opacity: 1;"/></g><g class="points"/><g class="text"/></g></g></g><g class="overplot"><g class="xy2" transform="translate(68,20)" clip-path="url(#clip184df2xy2plot)"><g class="scatterlayer mlayer"><g class="trace scatter trace8003de" style="stroke-miterlimit: 2; opacity: 1;"><g class="fills"/><g class="errorbars"/><g class="lines"><path class="js-line" d="M0,11.35L15.13,60.19L15.19,60.35L21.78,77.79L21.84,77.92L30.37,97.6L30.43,97.72L41.29,118.73L41.35,118.82L49.44,131.99L49.5,132.07L58.53,144.66L58.59,144.73L69.45,157.37L69.51,157.42L78.65,166.29L78.71,166.34L87.63,173.69L87.69,173.73L100.32,182.29L100.38,182.32L114.96,190.05L115.01,190.07L128.65,195.66L128.7,195.68L146.55,201.2L146.61,201.21L157.14,203.72L157.19,203.73L173.32,206.76L173.38,206.76L192.45,209.37L192.5,209.37L219.72,211.83L219.77,211.83L233.41,212.68L233.46,212.68L271.82,214.19L271.87,214.19L292.6,214.66L292.66,214.66L310.34,214.95L310.4,214.95L457.78,215.65" style="vector-effect: non-scaling-stroke; fill: none; stroke: rgb(239, 85, 59); stroke-opacity: 1; stroke-width: 2px; opacity: 1;"/></g><g class="points"/><g class="text"/></g></g></g></g><path class="xlines-above crisp" d="M0,0" style="fill: none;"/><path class="ylines-above crisp" d="M0,0" style="fill: none;"/><g class="overlines-above"><path class="xy2-x crisp" d="M0,0" style="fill: none;"/><path class="xy2-y crisp" d="M0,0" style="fill: none;"/></g><g class="xaxislayer-above"><g class="xtick"><text text-anchor="middle" x="0" y="260" transform="translate(68,0)" style="font-family: 'Open Sans', verdana, arial, sans-serif; font-size: 12px; fill: rgb(42, 63, 95); fill-opacity: 1; white-space: pre; opacity: 1;">0</text></g><g class="xtick"><text text-anchor="middle" x="0" y="260" style="font-family: 'Open Sans', verdana, arial, sans-serif; font-size: 12px; fill: rgb(42, 63, 95); fill-opacity: 1; white-space: pre; opacity: 1;" transform="translate(178.86,0)">2000</text></g><g class="xtick"><text text-anchor="middle" x="0" y="260" style="font-family: 'Open Sans', verdana, arial, sans-serif; font-size: 12px; fill: rgb(42, 63, 95); fill-opacity: 1; white-space: pre; opacity: 1;" transform="translate(289.71000000000004,0)">4000</text></g><g class="xtick"><text text-anchor="middle" x="0" y="260" style="font-family: 'Open Sans', verdana, arial, sans-serif; font-size: 12px; fill: rgb(42, 63, 95); fill-opacity: 1; white-space: pre; opacity: 1;" transform="translate(400.57,0)">6000</text></g><g class="xtick"><text text-anchor="middle" x="0" y="260" style="font-family: 'Open Sans', verdana, arial, sans-serif; font-size: 12px; fill: rgb(42, 63, 95); fill-opacity: 1; white-space: pre; opacity: 1;" transform="translate(511.42,0)">8000</text></g></g><g class="yaxislayer-above"><g class="ytick"><text text-anchor="end" x="67" y="4.199999999999999" transform="translate(0,222.34)" style="font-family: 'Open Sans', verdana, arial, sans-serif; font-size: 12px; fill: rgb(42, 63, 95); fill-opacity: 1; white-space: pre; opacity: 1;">650k</text></g><g class="ytick"><text text-anchor="end" x="67" y="4.199999999999999" style="font-family: 'Open Sans', verdana, arial, sans-serif; font-size: 12px; fill: rgb(42, 63, 95); fill-opacity: 1; white-space: pre; opacity: 1;" transform="translate(0,184.22)">655k</text></g><g class="ytick"><text text-anchor="end" x="67" y="4.199999999999999" style="font-family: 'Open Sans', verdana, arial, sans-serif; font-size: 12px; fill: rgb(42, 63, 95); fill-opacity: 1; white-space: pre; opacity: 1;" transform="translate(0,146.1)">660k</text></g><g class="ytick"><text text-anchor="end" x="67" y="4.199999999999999" style="font-family: 'Open Sans', verdana, arial, sans-serif; font-size: 12px; fill: rgb(42, 63, 95); fill-opacity: 1; white-space: pre; opacity: 1;" transform="translate(0,107.97)">665k</text></g><g class="ytick"><text text-anchor="end" x="67" y="4.199999999999999" style="font-family: 'Open Sans', verdana, arial, sans-serif; font-size: 12px; fill: rgb(42, 63, 95); fill-opacity: 1; white-space: pre; opacity: 1;" transform="translate(0,69.85)">670k</text></g><g class="ytick"><text text-anchor="end" x="67" y="4.199999999999999" style="font-family: 'Open Sans', verdana, arial, sans-serif; font-size: 12px; fill: rgb(42, 63, 95); fill-opacity: 1; white-space: pre; opacity: 1;" transform="translate(0,31.73)">675k</text></g></g><g class="overaxes-above"><g class="xy2-x"/><g class="xy2-y"><g class="y2tick"><text text-anchor="start" x="526.78" y="4.199999999999999" transform="translate(0,235.7)" style="font-family: 'Open Sans', verdana, arial, sans-serif; font-size: 12px; fill: rgb(42, 63, 95); fill-opacity: 1; white-space: pre; opacity: 1;">0</text></g><g class="y2tick"><text text-anchor="start" x="526.78" y="4.199999999999999" style="font-family: 'Open Sans', verdana, arial, sans-serif; font-size: 12px; fill: rgb(42, 63, 95); fill-opacity: 1; white-space: pre; opacity: 1;" transform="translate(0,184.61)">500</text></g><g class="y2tick"><text text-anchor="start" x="526.78" y="4.199999999999999" style="font-family: 'Open Sans', verdana, arial, sans-serif; font-size: 12px; fill: rgb(42, 63, 95); fill-opacity: 1; white-space: pre; opacity: 1;" transform="translate(0,133.53)">1000</text></g><g class="y2tick"><text text-anchor="start" x="526.78" y="4.199999999999999" style="font-family: 'Open Sans', verdana, arial, sans-serif; font-size: 12px; fill: rgb(42, 63, 95); fill-opacity: 1; white-space: pre; opacity: 1;" transform="translate(0,82.44)">1500</text></g><g class="y2tick"><text text-anchor="start" x="526.78" y="4.199999999999999" style="font-family: 'Open Sans', verdana, arial, sans-serif; font-size: 12px; fill: rgb(42, 63, 95); fill-opacity: 1; white-space: pre; opacity: 1;" transform="translate(0,31.35)">2000</text></g></g></g></g><g class="subplot xy2"/></g><g class="polarlayer"/><g class="smithlayer"/><g class="ternarylayer"/><g class="geolayer"/><g class="funnelarealayer"/><g class="pielayer"/><g class="iciclelayer"/><g class="treemaplayer"/><g class="sunburstlayer"/><g class="glimages"/><defs id="topdefs-184df2"><g class="clips"/><clipPath id="legend184df2"><rect width="123" height="48" x="0" y="0"/></clipPath></defs><g class="layer-above"><g class="imagelayer"/><g class="shapelayer"/></g><g class="infolayer"><g class="legend" pointer-events="all" transform="translate(564.74,20)"><rect class="bg" shape-rendering="crispEdges" width="123" height="48" x="0" y="0" style="stroke: rgb(68, 68, 68); stroke-opacity: 1; fill: rgb(255, 255, 255); fill-opacity: 1; stroke-width: 0px;"/><g class="scrollbox" transform="" clip-path="url(#legend184df2)"><g class="groups"><g class="traces" transform="translate(0,14.5)" style="opacity: 1;"><text class="legendtext" text-anchor="start" x="40" y="4.680000000000001" style="font-family: 'Open Sans', verdana, arial, sans-serif; font-size: 12px; fill: rgb(42, 63, 95); fill-opacity: 1; white-space: pre;">Cost</text><g class="layers" style="opacity: 1;"><g class="legendfill"/><g class="legendlines"><path class="js-line" d="M5,0h30" style="fill: none; stroke: rgb(99, 110, 250); stroke-opacity: 1; stroke-width: 2px;"/></g><g class="legendsymbols"><g class="legendpoints"/></g></g><rect class="legendtoggle" x="0" y="-9.5" width="117.265625" height="19" style="fill: rgb(0, 0, 0); fill-opacity: 0;"/></g><g class="traces" transform="translate(0,33.5)" style="opacity: 1;"><text class="legendtext" text-anchor="start" x="40" y="4.680000000000001" style="font-family: 'Open Sans', verdana, arial, sans-serif; font-size: 12px; fill: rgb(42, 63, 95); fill-opacity: 1; white-space: pre;">Temperature</text><g class="layers" style="opacity: 1;"><g class="legendfill"/><g class="legendlines"><path class="js-line" d="M5,0h30" style="fill: none; stroke: rgb(239, 85, 59); stroke-opacity: 1; stroke-width: 2px;"/></g><g class="legendsymbols"><g class="legendpoints"/></g></g><rect class="legendtoggle" x="0" y="-9.5" width="117.265625" height="19" style="fill: rgb(0, 0, 0); fill-opacity: 0;"/></g></g></g><rect class="scrollbar" rx="20" ry="3" width="0" height="0" x="0" y="0" style="fill: rgb(128, 139, 164); fill-opacity: 1;"/></g><g class="g-gtitle"/><g class="g-xtitle"><text class="xtitle" x="296.89" y="287.8" text-anchor="middle" style="font-family: 'Open Sans', verdana, arial, sans-serif; font-size: 14px; fill: rgb(42, 63, 95); opacity: 1; font-weight: normal; white-space: pre;">Iterations</text></g><g class="g-ytitle" transform="translate(1.7998046875,0)"><text class="ytitle" transform="rotate(-90,12.200000000000003,133.5)" x="12.200000000000003" y="133.5" text-anchor="middle" style="font-family: 'Open Sans', verdana, arial, sans-serif; font-size: 14px; fill: rgb(42, 63, 95); opacity: 1; font-weight: normal; white-space: pre;">Cost</text></g><g class="g-y2title"><text class="y2title" transform="rotate(-90,582.471875,133.5)" x="582.471875" y="133.5" text-anchor="middle" style="font-family: 'Open Sans', verdana, arial, sans-serif; font-size: 14px; fill: rgb(42, 63, 95); opacity: 1; font-weight: normal; white-space: pre;">Temperature</text></g></g></svg>