<svg class="main-svg" xmlns="http://www.w3.org/2000/svg" xmlns:xlink="http://www.w3.org/1999/xlink" width="700" height="300" style="" viewBox="0 0 700 300"><rect x="0" y="0" width="700" height="300" style="fill: rgb(255, 255, 255); fill-opacity: 1;"/><defs id="defs-940f13"><g class="clips"><clipPath id="clip940f13xyplot" class="plotclip"><rect width="448.38" height="227"/></clipPath><clipPath id="clip940f13xy2plot" class="plotclip"><rect width="448.38" height="227"/></clipPath><clipPath class="axesclip" id="clip940f13x"><rect x="78" y="0" width="448.38" height="300"/></clipPath><clipPath class="axesclip" id="clip940f13y"><rect x="0" y="20" width="700" height="227"/></clipPath><clipPath class="axesclip" id="clip940f13xy"><rect x="78" y="20" width="448.38" height="227"/></clipPath><clipPath class="axesclip" id="clip940f13y2"><rect x="0" y="20" width="700" height="227"/></clipPath><clipPath class="axesclip" id="clip940f13xy2"><rect x="78" y="20" width="448.38" height="227"/></clipPath></g><g class="gradients"/><g class="patterns"/></defs><g class="bglayer"><rect class="bg" x="78" y="20" width="448.38" height="227" style="fill: rgb(229, 236, 246); fill-opacity: 1; stroke-width: 0;"/></g><g class="layer-below"><g class="imagelayer"/><g class="shapelayer"/></g><g class="cartesianlayer"><g class="subplot xy"><g class="layer-subplot"><g class="shapelayer"/><g class="imagelayer"/></g><g class="gridlayer"><g class="x"><path class="xgrid crisp" transform="translate(177.32,0)" d="M0,20v227" style="stroke: rgb(255, 255, 255); stroke-opacity: 1; stroke-width: 1px;"/><path class="xgrid crisp" transform="translate(276.64,0)" d="M0,20v227" style="stroke: rgb(255, 255, 255); stroke-opacity: 1; stroke-width: 1px;"/><path class="xgrid crisp" transform="translate(375.96,0)" d="M0,20v227" style="stroke: rgb(255, 255, 255); stroke-opacity: 1; stroke-width: 1px;"/><path class="xgrid crisp" transform="translate(475.28,0)" d="M0,20v227" style="stroke: rgb(255, 255, 255); stroke-opacity: 1; stroke-width: 1px;"/></g><g class="y"><path class="ygrid crisp" transform="translate(0,236.64)" d="M78,0h448.38" style="stroke: rgb(255, 255, 255); stroke-opacity: 1; stroke-width: 1px;"/><path class="ygrid crisp" transform="translate(0,196.66)" d="M78,0h448.38" style="stroke: rgb(255, 255, 255); stroke-opacity: 1; stroke-width: 1px;"/><path class="ygrid crisp" transform="translate(0,156.69)" d="M78,0h448.38" style="stroke: rgb(255, 255, 255); stroke-opacity: 1; stroke-width: 1px;"/><path class="ygrid crisp" transform="translate(0,116.71)" d="M78,0h448.38" style="stroke: rgb(255, 255, 255); stroke-opacity: 1; stroke-width: 1px;"/><path class="ygrid crisp" transform="translate(0,76.74000000000001)" d="M78,0h448.38" style="stroke: rgb(255, 255, 255); stroke-opacity: 1; stroke-width: 1px;"/></g><g class="y2"><path class="y2grid crisp" transform="translate(0,184.59)" d="M78,0h448.38" style="stroke: rgb(255, 255, 255); stroke-opacity: 1; stroke-width: 1px;"/><path class="y2grid crisp" transform="translate(0,133.51)" d="M78,0h448.38" style="stroke: rgb(255, 255, 255); stroke-opacity: 1; stroke-width: 1px;"/><path class="y2grid crisp" transform="translate(0,82.43)" d="M78,0h448.38" style="stroke: rgb(255, 255, 255); stroke-opacity: 1; stroke-width: 1px;"/><path class="y2grid crisp" transform="translate(0,31.35)" d="M78,0h448.38" style="stroke: rgb(255, 255, 255); stroke-opacity: 1; stroke-width: 1px;"/></g></g><g class="zerolinelayer"><path class="xzl zl crisp" transform="translate(78,0)" d="M0,20v227" style="stroke: rgb(255, 255, 255); stroke-opacity: 1; stroke-width: 2px;"/><path class="yzl zl crisp" transform="translate(0,36.760000000000005)" d="M78,0h448.38" style="stroke: rgb(255, 255, 255); stroke-opacity: 1; stroke-width: 2px;"/><path class="y2zl zl crisp" transform="translate(0,235.67)" d="M78,0h448.38" style="stroke: rgb(255, 255, 255); stroke-opacity: 1; stroke-width: 2px;"/></g><path class="xlines-below"/><path class="ylines-below"/><g class="overlines-below"><path class="xy2-x"/><path class="xy2-y"/></g><g class="xaxislayer-below"/><g class="yaxislayer-below"/><g class="overaxes-below"><g class="xy2-x"/><g class="xy2-y"/></g><g class="plot" transform="translate(78,20)" clip-path="url(#clip940f13xyplot)"><g class="scatterlayer mlayer"><g class="trace scatter trace47a725" style="stroke-miterlimit: 2; opacity: 1;"><g class="fills"/><g class="errorbars"/><g class="lines"><path class="js-line" d="M0,16.6L0.2,13.47L0.65,17.62L0.7,17.83L1.34,14.61L1.39,16.8L1.44,17.53L1.59,18.93L1.94,15.32L2.14,16.99L2.19,17.29L2.48,14.06L2.93,15.33L2.98,15.69L3.03,15.22L3.38,18.48L3.43,17.91L3.48,18.15L3.92,16.37L4.27,21.74L4.57,20.92L4.62,20.2L5.61,15.78L5.71,16.53L5.76,18.15L5.86,15.14L6.36,20.56L6.46,18.61L6.51,18.37L6.6,16.75L7.05,20.95L7.2,19.98L7.25,19.68L8.14,16.64L8.19,15.9L8.34,14.27L8.74,17.42L8.94,16.76L8.99,16.31L9.04,15.6L9.34,20.36L9.39,20L9.44,20.73L9.63,16.75L10.18,20.23L10.23,20.73L10.28,21.26L10.58,16.53L10.63,17.44L10.68,16.29L10.78,16.2L10.97,18.26L11.42,17.41L11.47,16.33L11.67,20.17L12.22,16.71L12.27,16.38L12.32,18.45L12.71,15.42L13.01,16.32L13.06,16.6L13.16,17.81L13.51,14.08L13.71,14.78L13.76,14.33L14,17.27L14.25,12.99L14.6,16.06L14.65,15.85L14.95,18.6L15.2,14.5L15.25,13.57L15.34,13.25L16.24,21.16L16.29,20.27L16.34,20.14L16.49,21.89L16.88,17.34L17.03,18.77L17.08,17.97L17.28,16.75L17.48,18.63L17.83,17.66L17.88,17.99L18.23,18.19L18.27,16.87L18.52,17.69L18.57,18.67L18.62,18.86L18.67,17.63L18.72,17.62L18.77,15.91L19.27,18.28L19.62,16.89L19.67,16.84L19.91,15.59L20.11,18.07L20.36,17.67L20.41,16.56L20.71,14.71L21.16,16.27L21.2,16.4L21.3,16.53L21.6,13.22L22,15.06L22.05,16.19L22.5,12.93L22.74,15.71L22.79,16.93L22.99,18.51L23.49,15.5L23.59,15.94L23.64,15.7L23.94,16.95L24.33,15.35L24.38,16.08L24.43,15.34L24.53,13.13L24.93,15.69L25.18,14.12L25.23,14.06L25.48,18.03L25.97,15.9L26.02,15.26L26.67,17.99L26.77,17.03L26.82,15.21L27.36,12.29L27.56,14.97L27.61,15.65L28.26,14.04L28.31,15.16L28.55,14.64L29.15,16.49L29.2,15.75L29.25,15.32L29.4,17.82L29.6,13.82L29.94,14.35L29.99,14.24L30.94,19.84L30.99,19.73L31.04,18.41L31.34,19.63L31.58,15.15L32.03,16.32L32.08,16.5L32.18,16.61L32.48,13.45L32.87,15.98L32.92,16.71L32.97,17.26L33.37,14.02L33.42,13.41L33.67,11.63L34.56,16.87L34.61,15.93L34.81,15.4L35.11,17.45L35.31,15.58L35.36,14.89L35.71,15.69L36.05,11.35L36.15,12.55L36.2,13.64L36.3,13.33L37.15,17.17L37.2,17.09L37.24,17.41L37.34,18.86L37.94,17.2L37.99,16.91L38.14,15.08L38.59,17.86L38.64,18.71L38.88,20.16L39.03,17.39L39.28,18.25L39.33,17.81L39.63,17.48L39.78,20.28L39.88,17.95L39.93,17.64L40.13,18.75L40.17,17.65L40.22,17.26L40.52,18.57L40.72,16.11L40.82,16.47L40.87,16.3L40.97,16.87L41.66,15L41.71,15.87L42.01,14.7L42.26,17.07L42.31,17.21L42.41,16.94L43.25,21.74L43.5,19.9L43.55,18.49L43.75,21.08L44.25,19.17L44.3,18.35L44.4,19.28L44.89,16.87L45.04,18.35L45.09,18.38L45.59,22.01L45.89,21.29L45.94,20.08L46.03,19.88L47.03,23.05L47.13,22.97L47.18,22.2L48.22,16.66L48.32,17.66L48.37,18.62L48.72,17.4L49.06,19.25L49.11,19.86L49.26,20.94L49.31,19.78L49.36,19.96L49.41,18.59L49.66,18.13L50.21,19.77L50.26,19.02L51.1,16.27L51.15,16.47L51.25,15.93L51.8,18.18L51.89,16.4L51.94,16.72L52.49,19.86L52.69,17.4L52.74,17.05L53.63,18.95L53.68,19.57L54.28,16.46L54.43,18.8L54.48,19.23L54.53,18.89L54.87,20.77L55.07,20.29L55.12,20.66L55.52,22.76L55.82,20.11L55.87,20.34L55.92,21.16L55.97,21.49L56.26,18.9L56.51,20.43L56.56,19.24L56.96,18.34L57.11,19.63L57.21,18.78L57.26,18.75L57.56,19.98L57.61,18.34L57.7,19.79L57.75,19.86L58,19.51L59.49,24.17L59.64,22.72L59.69,22.27L59.99,22.86L60.24,21.45L60.39,22.47L60.44,21.67L60.63,21.4L61.98,27.05L62.17,25.86L62.22,25.42L62.27,25.69L62.72,24.6L62.77,23.05L62.87,23.45L63.07,21.53L63.12,20.64L64.06,25.01L64.26,24.44L64.31,23.39L64.46,24.95L64.81,22.91L65.05,24.23L65.1,23.84L65.25,24.17L65.45,23.33L65.85,23.9L65.9,24.24L66.1,24.43L66.49,21.82L66.74,22.91L66.79,23.36L67.24,22.01L67.44,23.4L67.49,23.62L67.69,24.08L68.03,22.61L68.23,23.62L68.28,23.67L69.13,26.92L69.42,25.8L69.47,25.55L69.57,24.35L70.12,26.46L70.17,26.77L70.32,27.16L70.42,25.78L70.96,26.12L71.01,26.33L71.16,27.28L71.41,24.59L71.46,24.61L71.51,23.83L72.35,25.94L72.45,25.07L72.5,24.01L72.6,24.45L72.8,23.06L73.15,23.56L73.2,23.24L73.5,22.32L74.14,25.54L74.24,24.15L74.29,23.98L75.14,26.19L75.19,25.9L75.23,24.82L75.38,24.28L76.77,29.44L76.92,28.79L76.97,28L77.57,30.19L77.72,28.92L77.77,28.37L78.31,27.06L78.56,27.57L78.61,27.91L78.81,28.72L79.01,27.22L79.06,26.88L79.26,28.42L79.46,26.67L79.9,28.33L79.95,27.29L81,30.54L81.05,29.68L81.34,27.75L81.79,28.81L81.84,29.03L81.99,30.65L82.34,29.48L82.39,28.66L82.49,29.48L82.73,27.32L83.03,28.16L83.08,27.4L83.23,27.98L83.48,26.15L83.78,27.19L83.83,27.24L84.82,28.92L84.87,28.93L85.07,29.06L85.12,27.91L85.96,30.47L86.01,29.32L87.35,34.21L87.55,33.31L87.6,33.4L87.85,34.27L88.1,33.42L88.15,32.25L88.3,32.5L88.39,31.9L88.49,31.86L88.54,30.98L89.79,34.08L90.08,33.43L90.13,32.68L90.28,31.56L90.78,33.55L90.83,33.41L90.88,33.5L91.03,32.5L91.42,33.9L91.62,33.25L91.67,33.57L91.97,34.3L92.47,32.21L92.57,32.66L92.62,32.93L92.72,31.75L93.16,33.88L93.31,32.83L93.36,33.4L93.56,34.37L93.66,33.03L94.01,34.2L94.06,33.06L94.2,32.05L94.95,34.11L95,33.61L95.15,33.75L96.09,29.14L96.29,29.43L96.34,29.85L96.69,30.55L97.04,29.15L97.09,29.43L97.13,29.79L97.33,29.24L97.43,30.12L97.48,30.75L97.63,30.54L98.58,33.94L98.67,33.11L98.72,33.22L99.02,32.94L99.27,34.4L99.32,34.76L99.42,34L99.87,35.08L100.06,34.56L100.11,34.66L100.41,34.44L101.16,36.13L101.21,36.31L101.55,35.08L102.3,38.16L102.35,37.51L102.75,34.81L103.19,34.98L103.24,34.97L103.29,34.24L103.84,36.53L103.89,36.84L104.04,36.19L104.29,37L104.34,36.5L104.39,35.98L105.92,39.82L105.97,39.26L106.02,39.34L106.22,38.63L106.77,38.76L106.82,38.95L107.46,40.35L107.61,39.44L107.66,38.75L108.11,37.87L108.41,38.69L108.46,39.06L108.9,37.85L109.6,41.66L109.65,41.2L110.84,44.2L110.89,43.5L110.94,42.74L111.24,44.51L111.78,44.39L111.83,44.4L112.13,45.03L112.48,43.84L112.53,44.07L112.58,44.47L112.63,43.68L113.03,44.78L113.32,44.22L113.37,44.36L114.02,42.42L114.42,42.76L114.47,42.91L114.71,43.32L114.91,41.82L114.96,41.32L115.31,41.08L115.56,41.58L115.61,40.8L116.35,38.07L116.5,38.34L116.55,38.71L116.6,38.29L117.15,39.67L117.2,39.9L117.4,38.91L117.74,39.79L117.79,39.94L118.54,38.99L118.59,39.09L118.64,39.49L120.03,43.01L120.08,42.35L120.38,43.18L120.67,41.85L120.72,41.86L120.77,41.42L121.22,41.66L121.52,40.44L121.62,40.56L121.67,40.64L123.8,44.27L123.85,43.58L124.2,45.36L124.25,45.59L125.04,46.25L125.09,45.36L126.73,49.22L126.78,49.22L126.98,49.1L127.78,51.09L127.97,50.48L128.02,50.2L128.17,50.8L128.47,49.14L128.67,49.65L128.72,49.04L129.07,49.72L129.22,49.58L129.26,48.57L129.41,48.71L129.56,47.72L130.11,47.92L130.16,48.34L131.25,49.46L131.3,48.94L131.85,46.04L132.19,46.96L132.24,47.12L132.79,45.39L133.04,46.01L133.09,46.18L133.24,46.05L133.68,47.12L133.93,46.84L133.98,46.24L135.03,48.27L135.08,48.38L135.47,48.46L135.62,47.51L135.92,47.82L135.97,47.84L136.61,49.39L136.96,48.95L137.01,48.99L137.16,48.38L137.66,49.41L137.71,48.79L137.76,47.69L138.15,48.79L138.35,47.29L138.5,47.81L138.55,47.83L139.49,49.56L139.89,49.04L139.94,48.55L140.04,47.61L140.64,49.16L140.69,49.34L140.84,48.87L141.78,50.58L141.83,50L143.17,51.89L143.22,51.51L143.27,51.33L143.57,49.88L144.06,50.77L144.11,50.85L145.01,52.5L145.06,52.65L145.45,53.58L145.65,53.16L145.7,52.6L146,53.33L146.2,52.09L146.5,52.89L146.55,52.2L148.04,54.85L148.48,54.62L148.53,54.24L148.68,53.67L149.13,54.84L149.23,54.02L149.28,54.04L149.68,54.36L150.52,53.23L150.67,53.36L150.72,53.53L150.82,53.4L151.02,54.05L151.31,53.95L151.36,54.03L152.36,55.14L152.41,54.58L152.46,54.37L152.75,53.73L153.05,54.64L153.1,54.91L153.7,56.05L154.09,55.67L154.14,55.73L154.54,56.84L154.94,56.04L154.99,55.81L155.04,55.52L155.58,56.51L155.63,56.36L155.68,56.38L155.93,55.76L156.73,57.16L156.78,57.16L157.37,57.91L157.47,57.62L157.52,56.97L158.66,58.78L158.71,58.83L159.31,59.83L159.56,59.67L159.61,58.63L160.85,59.87L160.95,59.8L161,59.79L161.89,60.68L161.94,60.02L162.04,59.88L162.54,60.44L162.59,60.68L162.69,60.49L163.08,61.28L163.13,61.3L164.97,63.92L165.02,62.99L167.16,66.37L167.21,66.54L167.3,66.41L167.55,67.11L167.7,67.03L167.75,67.12L169.24,68.95L169.29,68.64L171.03,70.23L171.08,70.02L171.82,71.49L171.87,70.84L171.92,70.13L174.36,73.03L174.41,72.71L174.46,72.27L175.1,73.17L175.15,73.18L175.6,74.05L175.99,73.66L176.04,73.37L176.34,73.62L176.39,73.15L176.49,73.17L176.54,72.55L177.24,73.61L177.48,73.29L177.53,72.97L178.92,74.15L179.02,73.94L179.07,74L179.27,74.13L179.37,73.28L179.42,73.35L179.47,72.92L180.27,74.36L180.32,73.94L180.37,73.67L180.56,73.46L181.71,76.58L181.76,76.83L182,76.05L183.2,78.81L183.3,78.43L183.34,78.04L186.47,81.11L186.52,80.52L186.82,80.18L187.86,81.67L187.91,81.4L187.96,81.66L188.36,80.72L188.41,80.77L188.46,80.13L189.5,81.25L189.55,80.65L189.65,80.38L190.1,81.2L190.15,81.24L190.25,80.82L191.24,82.37L191.29,82.37L192.18,83.1L192.23,82.4L192.93,83.03L192.98,82.52L193.03,82.58L193.97,83.18L194.02,83.33L195.61,86.26L195.66,86.36L196.5,86.93L196.6,86.75L196.65,86.05L196.8,85.55L197.5,86.38L197.55,86.44L199.43,88.63L199.48,87.69L201.12,89.65L201.17,89.65L202.12,89.59L202.17,89.39L204.25,91.3L204.3,91.48L204.85,92.49L205.34,91.91L205.39,91.94L206.98,93.99L207.03,93.65L207.63,94.66L207.68,95.08L211.1,99.77L211.15,99.78L212.05,100.86L212.1,101.04L214.33,103.68L214.38,103.15L216.22,105.32L216.52,105.05L216.57,104.6L217.31,105.17L217.61,104.8L217.66,104.57L217.86,104.44L218.75,105.03L218.8,105.03L219.99,106.78L220.04,106.31L220.09,106.31L220.19,106.18L220.54,106.81L220.59,106.91L223.47,109.73L223.62,109.39L223.67,109.39L223.97,109.52L224.07,108.82L224.12,108.6L224.66,109.2L224.91,108.98L224.96,108.36L225.75,107.97L225.8,107.97L226.85,108.98L226.9,108.75L229.03,110.48L229.08,110.66L231.32,112.79L231.42,112.54L231.47,112.54L232.81,113.87L232.86,113.93L234.69,115.3L234.74,115.02L237.23,117.48L237.28,117.63L238.37,118.71L238.42,118.79L240.35,120.21L240.4,120.39L242.34,122.36L242.39,121.92L251.13,129.06L251.18,129.27L253.81,131.85L253.86,131.85L255.8,133.06L255.85,133.29L257.44,134.78L257.49,134.78L258.73,135.66L258.78,136.05L259.67,136.7L259.72,136.84L261.51,138.24L261.56,138.24L263,139.04L263.05,139.05L264.19,140.46L264.24,140.57L265.38,141.36L265.43,141.39L266.82,142.14L266.87,142.19L269.7,144.78L269.75,144.84L271.64,145.85L271.69,145.99L272.68,146.72L272.73,146.89L273.78,147.5L273.83,147.83L276.06,149.73L276.11,149.73L277.95,150.57L278,150.61L285.1,154.92L285.15,154.92L286.74,155.64L286.79,155.71L288.03,156.67L288.08,156.77L294.14,159.87L294.19,159.87L296.32,160.6L296.37,160.6L298.06,161.36L298.11,161.45L302.48,164.87L302.53,165.02L304.52,165.75L304.56,165.87L307.54,168.17L307.59,168.17L313.95,171.59L314,171.59L327.56,176.65L327.61,176.66L329.74,177.75L329.79,177.75L340.57,182.67L340.62,182.71L342.26,183.05L342.31,183.05L346.03,184.42L346.08,184.66L350,186.16L350.05,186.16L352.14,186.88L352.19,186.88L355.91,188.06L355.96,188.16L358.45,188.83L358.5,188.97L361.48,190.3L361.52,190.33L364.4,191.01L364.45,191.11L367.43,191.81L367.48,191.87L370.96,193.01L371.01,193.14L379.25,196.1L379.3,196.27L380.74,196.59L380.79,196.59L381.93,196.91L381.98,196.91L384.57,197.92L384.62,198.08L386.6,198.78L386.65,198.85L401.75,202.5L401.8,202.63L404.13,203.16L404.18,203.18L405.23,203.61L405.28,203.61L416.2,206.42L416.25,206.61L420.67,207.36L420.72,207.38L432.29,210.91L432.34,211.09L433.83,211.7L433.88,211.85L445.5,214.59L445.55,214.69L448.23,215.43L448.28,215.63" style="vector-effect: non-scaling-stroke; fill: none; stroke: rgb(99, 110, 250); stroke-opacity: 1; stroke-width: 2px; opacity: 1;"/></g><g class="points"/><g class="text"/></g></g></g><g class="overplot"><g class="xy2" transform="translate(78,20)" clip-path="url(#clip940f13xy2plot)"><g class="scatterlayer mlayer"><g class="trace scatter trace78b21d" style="stroke-miterlimit: 2; opacity: 1;"><g class="fills"/><g class="errorbars"/><g class="lines"><path class="js-line" d="M0,11.35L10.43,50.07L10.48,50.24L21.55,83.32L21.6,83.45L30.14,104.35L30.19,104.47L40.42,125.18L40.47,125.27L50.6,141.96L50.65,142.03L59.89,154.54L59.94,154.6L71.31,167.11L71.36,167.15L80.9,175.63L80.95,175.67L89.44,181.96L89.49,182L102.35,189.69L102.4,189.71L114.66,195.4L114.71,195.42L130.51,200.94L130.56,200.95L142.08,204L142.13,204.01L155.09,206.69L155.14,206.7L171.62,209.24L171.67,209.24L196.01,211.74L196.06,211.74L242.14,214.12L242.19,214.12L260.62,214.6L260.67,214.6L282.12,214.98L282.17,214.98L448.38,215.65" style="vector-effect: non-scaling-stroke; fill: none; stroke: rgb(239, 85, 59); stroke-opacity: 1; stroke-width: 2px; opacity: 1;"/></g><g class="points"/><g class="text"/></g></g></g></g><path class="xlines-above crisp" d="M0,0" style="fill: none;"/><path class="ylines-above crisp" d="M0,0" style="fill: none;"/><g class="overlines-above"><path class="xy2-x crisp" d="M0,0" style="fill: none;"/><path class="xy2-y crisp" d="M0,0" style="fill: none;"/></g><g class="xaxislayer-above"><g class="xtick"><text text-anchor="middle" x="0" y="260" transform="translate(78,0)" style="font-family: 'Open Sans', verdana, arial, sans-serif; font-size: 12px; fill: rgb(42, 63, 95); fill-opacity: 1; white-space: pre; opacity: 1;">0</text></g><g class="xtick"><text text-anchor="middle" x="0" y="260" style="font-family: 'Open Sans', verdana, arial, sans-serif; font-size: 12px; fill: rgb(42, 63, 95); fill-opacity: 1; white-space: pre; opacity: 1;" transform="translate(177.32,0)">2000</text></g><g class="xtick"><text text-anchor="middle" x="0" y="260" style="font-family: 'Open Sans', verdana, arial, sans-serif; font-size: 12px; fill: rgb(42, 63, 95); fill-opacity: 1; white-space: pre; opacity: 1;" transform="translate(276.64,0)">4000</text></g><g class="xtick"><text text-anchor="middle" x="0" y="260" style="font-family: 'Open Sans', verdana, arial, sans-serif; font-size: 12px; fill: rgb(42, 63, 95); fill-opacity: 1; white-space: pre; opacity: 1;" transform="translate(375.96,0)">6000</text></g><g class="xtick"><text text-anchor="middle" x="0" y="260" style="font-family: 'Open Sans', verdana, arial, sans-serif; font-size: 12px; fill: rgb(42, 63, 95); fill-opacity: 1; white-space: pre; opacity: 1;" transform="translate(475.28,0)">8000</text></g></g><g class="yaxislayer-above"><g class="ytick"><text text-anchor="end" x="77" y="4.199999999999999" transform="translate(0,236.64)" style="font-family: 'Open Sans', verdana, arial, sans-serif; font-size: 12px; fill: rgb(42, 63, 95); fill-opacity: 1; white-space: pre; opacity: 1;">−100k</text></g><g class="ytick"><text text-anchor="end" x="77" y="4.199999999999999" style="font-family: 'Open Sans', verdana, arial, sans-serif; font-size: 12px; fill: rgb(42, 63, 95); fill-opacity: 1; white-space: pre; opacity: 1;" transform="translate(0,196.66)">−80k</text></g><g class="ytick"><text text-anchor="end" x="77" y="4.199999999999999" style="font-family: 'Open Sans', verdana, arial, sans-serif; font-size: 12px; fill: rgb(42, 63, 95); fill-opacity: 1; white-space: pre; opacity: 1;" transform="translate(0,156.69)">−60k</text></g><g class="ytick"><text text-anchor="end" x="77" y="4.199999999999999" style="font-family: 'Open Sans', verdana, arial, sans-serif; font-size: 12px; fill: rgb(42, 63, 95); fill-opacity: 1; white-space: pre; opacity: 1;" transform="translate(0,116.71)">−40k</text></g><g class="ytick"><text text-anchor="end" x="77" y="4.199999999999999" style="font-family: 'Open Sans', verdana, arial, sans-serif; font-size: 12px; fill: rgb(42, 63, 95); fill-opacity: 1; white-space: pre; opacity: 1;" transform="translate(0,76.74000000000001)">−20k</text></g><g class="ytick"><text text-anchor="end" x="77" y="4.199999999999999" style="font-family: 'Open Sans', verdana, arial, sans-serif; font-size: 12px; fill: rgb(42, 63, 95); fill-opacity: 1; white-space: pre; opacity: 1;" transform="translate(0,36.760000000000005)">0</text></g></g><g class="overaxes-above"><g class="xy2-x"/><g class="xy2-y"><g class="y2tick"><text text-anchor="start" x="527.38" y="4.199999999999999" transform="translate(0,235.67)" style="font-family: 'Open Sans', verdana, arial, sans-serif; font-size: 12px; fill: rgb(42, 63, 95); fill-opacity: 1; white-space: pre; opacity: 1;">0</text></g><g class="y2tick"><text text-anchor="start" x="527.38" y="4.199999999999999" style="font-family: 'Open Sans', verdana, arial, sans-serif; font-size: 12px; fill: rgb(42, 63, 95); fill-opacity: 1; white-space: pre; opacity: 1;" transform="translate(0,184.59)">500</text></g><g class="y2tick"><text text-anchor="start" x="527.38" y="4.199999999999999" style="font-family: 'Open Sans', verdana, arial, sans-serif; font-size: 12px; fill: rgb(42, 63, 95); fill-opacity: 1; white-space: pre; opacity: 1;" transform="translate(0,133.51)">1000</text></g><g class="y2tick"><text text-anchor="start" x="527.38" y="4.199999999999999" style="font-family: 'Open Sans', verdana, arial, sans-serif; font-size: 12px; fill: rgb(42, 63, 95); fill-opacity: 1; white-space: pre; opacity: 1;" transform="translate(0,82.43)">1500</text></g><g class="y2tick"><text text-anchor="start" x="527.38" y="4.199999999999999" style="font-family: 'Open Sans', verdana, arial, sans-serif; font-size: 12px; fill: rgb(42, 63, 95); fill-opacity: 1; white-space: pre; opacity: 1;" transform="translate(0,31.35)">2000</text></g></g></g></g><g class="subplot xy2"/></g><g class="polarlayer"/><g class="smithlayer"/><g class="ternarylayer"/><g class="geolayer"/><g class="funnelarealayer"/><g class="pielayer"/><g class="iciclelayer"/><g class="treemaplayer"/><g class="sunburstlayer"/><g class="glimages"/><defs id="topdefs-940f13"><g class="clips"/><clipPath id="legend940f13"><rect width="123" height="48" x="0" y="0"/></clipPath></defs><g class="layer-above"><g class="imagelayer"/><g class="shapelayer"/></g><g class="infolayer"><g class="legend" pointer-events="all" transform="translate(564.54,20)"><rect class="bg" shape-rendering="crispEdges" width="123" height="48" x="0" y="0" style="stroke: rgb(68, 68, 68); stroke-opacity: 1; fill: rgb(255, 255, 255); fill-opacity: 1; stroke-width: 0px;"/><g class="scrollbox" transform="" clip-path="url(#legend940f13)"><g class="groups"><g class="traces" transform="translate(0,14.5)" style="opacity: 1;"><text class="legendtext" text-anchor="start" x="40" y="4.680000000000001" style="font-family: 'Open Sans', verdana, arial, sans-serif; font-size: 12px; fill: rgb(42, 63, 95); fill-opacity: 1; white-space: pre;">Cost</text><g class="layers" style="opacity: 1;"><g class="legendfill"/><g class="legendlines"><path class="js-line" d="M5,0h30" style="fill: none; stroke: rgb(99, 110, 250); stroke-opacity: 1; stroke-width: 2px;"/></g><g class="legendsymbols"><g class="legendpoints"/></g></g><rect class="legendtoggle" x="0" y="-9.5" width="117.265625" height="19" style="fill: rgb(0, 0, 0); fill-opacity: 0;"/></g><g class="traces" transform="translate(0,33.5)" style="opacity: 1;"><text class="legendtext" text-anchor="start" x="40" y="4.680000000000001" style="font-family: 'Open Sans', verdana, arial, sans-serif; font-size: 12px; fill: rgb(42, 63, 95); fill-opacity: 1; white-space: pre;">Temperature</text><g class="layers" style="opacity: 1;"><g class="legendfill"/><g class="legendlines"><path class="js-line" d="M5,0h30" style="fill: none; stroke: rgb(239, 85, 59); stroke-opacity: 1; stroke-width: 2px;"/></g><g class="legendsymbols"><g class="legendpoints"/></g></g><rect class="legendtoggle" x="0" y="-9.5" width="117.265625" height="19" style="fill: rgb(0, 0, 0); fill-opacity: 0;"/></g></g></g><rect class="scrollbar" rx="20" ry="3" width="0" height="0" x="0" y="0" style="fill: rgb(128, 139, 164); fill-opacity: 1;"/></g><g class="g-gtitle"/><g class="g-xtitle"><text class="xtitle" x="302.19" y="287.8" text-anchor="middle" style="font-family: 'Open Sans', verdana, arial, sans-serif; font-size: 14px; fill: rgb(42, 63, 95); opacity: 1; font-weight: normal; white-space: pre;">Iterations</text></g><g class="g-ytitle" transform="translate(1.6123046875,0)"><text class="ytitle" transform="rotate(-90,12.387500000000003,133.5)" x="12.387500000000003" y="133.5" text-anchor="middle" style="font-family: 'Open Sans', verdana, arial, sans-serif; font-size: 14px; fill: rgb(42, 63, 95); opacity: 1; font-weight: normal; white-space: pre;">Cost</text></g><g class="g-y2title"><text class="y2title" transform="rotate(-90,583.08125,133.5)" x="583.08125" y="133.5" text-anchor="middle" style="font-family: 'Open Sans', verdana, arial, sans-serif; font-size: 14px; fill: rgb(42, 63, 95); opacity: 1; font-weight: normal; white-space: pre;">Temperature</text></g></g></svg>