<svg class="main-svg" xmlns="http://www.w3.org/2000/svg" xmlns:xlink="http://www.w3.org/1999/xlink" width="700" height="300" style="" viewBox="0 0 700 300"><rect x="0" y="0" width="700" height="300" style="fill: rgb(255, 255, 255); fill-opacity: 1;"/><defs id="defs-837783"><g class="clips"><clipPath id="clip837783xyplot" class="plotclip"><rect width="448.38" height="227"/></clipPath><clipPath id="clip837783xy2plot" class="plotclip"><rect width="448.38" height="227"/></clipPath><clipPath class="axesclip" id="clip837783x"><rect x="78" y="0" width="448.38" height="300"/></clipPath><clipPath class="axesclip" id="clip837783y"><rect x="0" y="20" width="700" height="227"/></clipPath><clipPath class="axesclip" id="clip837783xy"><rect x="78" y="20" width="448.38" height="227"/></clipPath><clipPath class="axesclip" id="clip837783y2"><rect x="0" y="20" width="700" height="227"/></clipPath><clipPath class="axesclip" id="clip837783xy2"><rect x="78" y="20" width="448.38" height="227"/></clipPath></g><g class="gradients"/><g class="patterns"/></defs><g class="bglayer"><rect class="bg" x="78" y="20" width="448.38" height="227" style="fill: rgb(229, 236, 246); fill-opacity: 1; stroke-width: 0;"/></g><g class="layer-below"><g class="imagelayer"/><g class="shapelayer"/></g><g class="cartesianlayer"><g class="subplot xy"><g class="layer-subplot"><g class="shapelayer"/><g class="imagelayer"/></g><g class="gridlayer"><g class="x"><path class="xgrid crisp" transform="translate(159.39,0)" d="M0,20v227" style="stroke: rgb(255, 255, 255); stroke-opacity: 1; stroke-width: 1px;"/><path class="xgrid crisp" transform="translate(240.78,0)" d="M0,20v227" style="stroke: rgb(255, 255, 255); stroke-opacity: 1; stroke-width: 1px;"/><path class="xgrid crisp" transform="translate(322.16999999999996,0)" d="M0,20v227" style="stroke: rgb(255, 255, 255); stroke-opacity: 1; stroke-width: 1px;"/><path class="xgrid crisp" transform="translate(403.56,0)" d="M0,20v227" style="stroke: rgb(255, 255, 255); stroke-opacity: 1; stroke-width: 1px;"/><path class="xgrid crisp" transform="translate(484.95,0)" d="M0,20v227" style="stroke: rgb(255, 255, 255); stroke-opacity: 1; stroke-width: 1px;"/></g><g class="y"><path class="ygrid crisp" transform="translate(0,241.6)" d="M78,0h448.38" style="stroke: rgb(255, 255, 255); stroke-opacity: 1; stroke-width: 1px;"/><path class="ygrid crisp" transform="translate(0,207.13)" d="M78,0h448.38" style="stroke: rgb(255, 255, 255); stroke-opacity: 1; stroke-width: 1px;"/><path class="ygrid crisp" transform="translate(0,172.66)" d="M78,0h448.38" style="stroke: rgb(255, 255, 255); stroke-opacity: 1; stroke-width: 1px;"/><path class="ygrid crisp" transform="translate(0,138.19)" d="M78,0h448.38" style="stroke: rgb(255, 255, 255); stroke-opacity: 1; stroke-width: 1px;"/><path class="ygrid crisp" transform="translate(0,103.72)" d="M78,0h448.38" style="stroke: rgb(255, 255, 255); stroke-opacity: 1; stroke-width: 1px;"/><path class="ygrid crisp" transform="translate(0,69.25)" d="M78,0h448.38" style="stroke: rgb(255, 255, 255); stroke-opacity: 1; stroke-width: 1px;"/></g><g class="y2"><path class="y2grid crisp" transform="translate(0,184.58)" d="M78,0h448.38" style="stroke: rgb(255, 255, 255); stroke-opacity: 1; stroke-width: 1px;"/><path class="y2grid crisp" transform="translate(0,133.5)" d="M78,0h448.38" style="stroke: rgb(255, 255, 255); stroke-opacity: 1; stroke-width: 1px;"/><path class="y2grid crisp" transform="translate(0,82.43)" d="M78,0h448.38" style="stroke: rgb(255, 255, 255); stroke-opacity: 1; stroke-width: 1px;"/><path class="y2grid crisp" transform="translate(0,31.35)" d="M78,0h448.38" style="stroke: rgb(255, 255, 255); stroke-opacity: 1; stroke-width: 1px;"/></g></g><g class="zerolinelayer"><path class="xzl zl crisp" transform="translate(78,0)" d="M0,20v227" style="stroke: rgb(255, 255, 255); stroke-opacity: 1; stroke-width: 2px;"/><path class="yzl zl crisp" transform="translate(0,34.78)" d="M78,0h448.38" style="stroke: rgb(255, 255, 255); stroke-opacity: 1; stroke-width: 2px;"/><path class="y2zl zl crisp" transform="translate(0,235.65)" d="M78,0h448.38" style="stroke: rgb(255, 255, 255); stroke-opacity: 1; stroke-width: 2px;"/></g><path class="xlines-below"/><path class="ylines-below"/><g class="overlines-below"><path class="xy2-x"/><path class="xy2-y"/></g><g class="xaxislayer-below"/><g class="yaxislayer-below"/><g class="overaxes-below"><g class="xy2-x"/><g class="xy2-y"/></g><g class="plot" transform="translate(78,20)" clip-path="url(#clip837783xyplot)"><g class="scatterlayer mlayer"><g class="trace scatter tracebf21b6" style="stroke-miterlimit: 2; opacity: 1;"><g class="fills"/><g class="errorbars"/><g class="lines"><path class="js-line" d="M0,18.32L0.33,11.35L0.73,18.25L0.81,16.44L0.9,20.27L1.47,12.73L1.55,12.25L2.6,18.43L2.69,16.75L2.93,22.18L3.01,16.25L3.17,18.8L3.26,14.76L3.42,14.61L3.5,15.82L3.66,14.78L3.74,12.06L4.15,18.74L4.64,16.65L4.72,15.86L5.05,16.44L5.29,12.64L5.53,13.42L5.62,17.02L5.7,13.28L6.02,19.89L6.43,13.48L6.51,13.75L7.08,13.2L7.24,16.26L7.33,14.67L8.22,21.48L8.3,22.04L8.71,21.67L8.87,22.99L8.95,20.84L9.03,18.46L9.44,22.99L9.69,20.47L9.77,19.57L9.93,19.93L10.09,16.06L10.5,18.98L10.58,20.08L10.66,21.32L10.91,16.69L10.99,14.47L11.07,12.98L11.31,17.66L11.56,16.67L11.64,16.82L12.29,21.8L12.53,20.4L12.62,17.32L13.19,25.45L13.51,23.17L13.59,24.21L13.92,25.39L14,22.5L14.32,25.89L14.49,22.14L14.57,22.38L14.65,20.4L15.22,24.6L15.38,22.14L15.46,19.92L15.87,22.86L15.95,21.55L16.03,20.71L16.44,22.88L16.52,23.41L16.6,23.97L16.69,22.62L16.77,19.11L17.01,16.19L17.42,18.62L17.5,19.91L17.74,21.55L17.82,23.47L18.56,26L18.64,26.69L19.21,26.82L19.53,23.89L19.62,23.97L19.86,25.58L19.94,23.76L20.18,23.12L20.51,25.11L20.59,26.52L20.67,26.15L20.84,27.96L20.92,27.74L21,28.43L21.08,27.14L21.65,28.97L21.73,29.26L22.79,32.07L22.95,30.72L23.03,28.98L24.25,33.43L24.34,32.65L24.42,31.11L24.58,30.85L25.48,33.77L25.56,32.8L25.96,35.21L26.04,36.38L26.45,38.29L26.61,36.23L26.78,37.18L26.86,35.22L27.35,37.5L27.67,36.49L27.75,36.5L27.92,35.47L28.16,36.5L28.24,37.26L28.89,40.39L29.3,40.1L29.38,40.15L29.71,39.66L30.28,42.01L30.36,42.02L31.5,47.8L31.58,47.24L31.91,47.76L31.99,46.79L32.39,47.45L32.47,47.75L33.94,50.68L34.02,49.73L34.1,49.04L34.59,50.49L34.67,50.78L35.65,52.75L35.73,53L36.63,56.43L36.95,56.04L37.03,56.08L38.66,59.45L38.74,58.93L41.67,64.43L41.75,64.43L42.32,65.79L42.4,63.64L43.87,66.55L43.95,65.14L45.58,68.71L45.66,69.49L47.53,73.45L47.61,73.52L47.78,72.96L51.44,79.93L51.52,79.94L52.58,81.55L52.66,81.74L55.35,87.85L55.43,87.86L56.4,89L56.48,89.08L58.28,92.11L58.36,92.12L59.25,93.2L59.33,93.52L60.96,95.44L61.04,95.46L62.1,96.77L62.18,97.19L62.67,97.98L62.75,98.2L63.32,98.94L63.4,99.26L65.84,103.81L65.93,103.82L66.58,104.69L66.66,104.9L68.61,107.77L68.69,107.79L70.24,109.26L70.32,109.31L73.01,113.32L73.09,113.4L76.02,116.05L76.1,116.39L77,117.46L77.08,117.66L78.13,118.74L78.22,119.23L79.27,120.28L79.36,120.57L86.27,127.78L86.36,127.79L88.63,130.51L88.72,130.59L90.67,132.43L90.75,132.64L92.87,133.75L92.95,133.75L94.74,135.33L94.82,135.35L96.53,137.13L96.61,137.13L99.05,138.53L99.13,138.53L102.39,141.3L102.47,141.3L103.53,141.9L103.61,142.06L106.7,143.97L106.78,144.31L111.5,147.02L111.59,147.02L113.13,148.31L113.21,148.49L116.39,150.1L116.47,150.34L119.16,152.49L119.24,152.74L122.17,153.77L122.25,154.05L123.79,154.69L123.88,155.14L126.81,155.85L126.89,155.93L128.92,156.67L129,156.7L130.31,157.94L130.39,157.94L135.35,159.15L135.43,159.15L136.41,159.53L136.49,159.53L138.04,160.6L138.12,160.6L139.58,161.24L139.67,161.8L140.81,162.57L140.89,162.72L142.92,163.46L143,163.49L145.28,164.16L145.36,164.26L146.34,164.79L146.42,164.79L148.78,165.67L148.86,165.7L150.57,166.8L150.65,166.8L155.21,168L155.29,168.14L155.86,168.77L155.94,168.92L157.25,169.55L157.33,169.9L160.42,170.55L160.5,170.68L163.27,171.65L163.35,171.65L166.12,172.32L166.2,172.71L172.55,174.7L172.63,174.7L175.72,175.43L175.8,175.49L178.98,176.93L179.06,177.19L180.69,177.9L180.77,178.1L191.02,179.76L191.1,179.76L195.58,180.8L195.66,180.8L198.02,181.45L198.1,181.63L201.36,182.29L201.44,182.69L212.02,184.52L212.1,184.78L216.01,185.28L216.09,185.54L221.06,186.15L221.14,186.53L226.59,187.2L226.67,187.32L228.22,188.73L228.3,188.75L231.23,189.43L231.31,189.76L234.16,190.49L234.24,190.52L237.5,191.11L237.58,191.37L241.57,192.12L241.65,192.18L244.42,192.92L244.5,192.97L252.88,194.74L252.96,194.81L254.1,194.98L254.18,194.98L257.28,195.46L257.36,195.86L258.58,196.05L258.66,196.06L266.39,196.75L266.47,196.82L271.44,197.82L271.52,197.82L276.48,198.46L276.56,198.75L286.66,199.47L286.74,199.53L295.94,200.24L296.02,200.46L298.21,200.71L298.3,200.71L301.88,201.41L301.96,201.68L304.56,202.29L304.64,202.29L314.82,202.97L314.9,203.09L317.91,203.33L317.99,203.92L328.41,204.65L328.49,204.76L333.21,205.44L333.29,205.52L351.85,206.27L351.93,206.32L357.96,206.94L358.04,207.08L363.82,207.52L363.9,207.84L372.44,208.56L372.52,208.9L373.5,209.64L373.58,209.64L389.21,210.3L389.29,210.4L394.34,211L394.42,211.25L405.57,211.94L405.65,212.03L409.8,212.29L409.88,212.83L416.23,213.47L416.31,213.72L427.14,214.37L427.22,214.61L439.51,215.25L439.59,215.46L448.38,215.65" style="vector-effect: non-scaling-stroke; fill: none; stroke: rgb(99, 110, 250); stroke-opacity: 1; stroke-width: 2px; opacity: 1;"/></g><g class="points"/><g class="text"/></g></g></g><g class="overplot"><g class="xy2" transform="translate(78,20)" clip-path="url(#clip837783xy2plot)"><g class="scatterlayer mlayer"><g class="trace scatter traceee6017" style="stroke-miterlimit: 2; opacity: 1;"><g class="fills"/><g class="errorbars"/><g class="lines"><path class="js-line" d="M0,11.35L3.99,77.82L4.07,78.92L7.98,122.67L8.06,123.41L12.05,153.42L12.13,153.92L16.2,174.34L16.28,174.67L20.59,188.88L20.67,189.09L24.91,198.16L24.99,198.3L29.22,204.22L29.3,204.31L34.1,208.59L34.18,208.65L40.61,211.94L40.7,211.97L47.69,213.8L47.78,213.82L58.03,214.98L58.11,214.99L80.74,215.58L80.82,215.58L448.38,215.65" style="vector-effect: non-scaling-stroke; fill: none; stroke: rgb(239, 85, 59); stroke-opacity: 1; stroke-width: 2px; opacity: 1;"/></g><g class="points"/><g class="text"/></g></g></g></g><path class="xlines-above crisp" d="M0,0" style="fill: none;"/><path class="ylines-above crisp" d="M0,0" style="fill: none;"/><g class="overlines-above"><path class="xy2-x crisp" d="M0,0" style="fill: none;"/><path class="xy2-y crisp" d="M0,0" style="fill: none;"/></g><g class="xaxislayer-above"><g class="xtick"><text text-anchor="middle" x="0" y="260" transform="translate(78,0)" style="font-family: 'Open Sans', verdana, arial, sans-serif; font-size: 12px; fill: rgb(42, 63, 95); fill-opacity: 1; white-space: pre; opacity: 1;">0</text></g><g class="xtick"><text text-anchor="middle" x="0" y="260" style="font-family: 'Open Sans', verdana, arial, sans-serif; font-size: 12px; fill: rgb(42, 63, 95); fill-opacity: 1; white-space: pre; opacity: 1;" transform="translate(159.39,0)">1000</text></g><g class="xtick"><text text-anchor="middle" x="0" y="260" style="font-family: 'Open Sans', verdana, arial, sans-serif; font-size: 12px; fill: rgb(42, 63, 95); fill-opacity: 1; white-space: pre; opacity: 1;" transform="translate(240.78,0)">2000</text></g><g class="xtick"><text text-anchor="middle" x="0" y="260" style="font-family: 'Open Sans', verdana, arial, sans-serif; font-size: 12px; fill: rgb(42, 63, 95); fill-opacity: 1; white-space: pre; opacity: 1;" transform="translate(322.16999999999996,0)">3000</text></g><g class="xtick"><text text-anchor="middle" x="0" y="260" style="font-family: 'Open Sans', verdana, arial, sans-serif; font-size: 12px; fill: rgb(42, 63, 95); fill-opacity: 1; white-space: pre; opacity: 1;" transform="translate(403.56,0)">4000</text></g><g class="xtick"><text text-anchor="middle" x="0" y="260" style="font-family: 'Open Sans', verdana, arial, sans-serif; font-size: 12px; fill: rgb(42, 63, 95); fill-opacity: 1; white-space: pre; opacity: 1;" transform="translate(484.95,0)">5000</text></g></g><g class="yaxislayer-above"><g class="ytick"><text text-anchor="end" x="77" y="4.199999999999999" transform="translate(0,241.6)" style="font-family: 'Open Sans', verdana, arial, sans-serif; font-size: 12px; fill: rgb(42, 63, 95); fill-opacity: 1; white-space: pre; opacity: 1;">−120k</text></g><g class="ytick"><text text-anchor="end" x="77" y="4.199999999999999" style="font-family: 'Open Sans', verdana, arial, sans-serif; font-size: 12px; fill: rgb(42, 63, 95); fill-opacity: 1; white-space: pre; opacity: 1;" transform="translate(0,207.13)">−100k</text></g><g class="ytick"><text text-anchor="end" x="77" y="4.199999999999999" style="font-family: 'Open Sans', verdana, arial, sans-serif; font-size: 12px; fill: rgb(42, 63, 95); fill-opacity: 1; white-space: pre; opacity: 1;" transform="translate(0,172.66)">−80k</text></g><g class="ytick"><text text-anchor="end" x="77" y="4.199999999999999" style="font-family: 'Open Sans', verdana, arial, sans-serif; font-size: 12px; fill: rgb(42, 63, 95); fill-opacity: 1; white-space: pre; opacity: 1;" transform="translate(0,138.19)">−60k</text></g><g class="ytick"><text text-anchor="end" x="77" y="4.199999999999999" style="font-family: 'Open Sans', verdana, arial, sans-serif; font-size: 12px; fill: rgb(42, 63, 95); fill-opacity: 1; white-space: pre; opacity: 1;" transform="translate(0,103.72)">−40k</text></g><g class="ytick"><text text-anchor="end" x="77" y="4.199999999999999" style="font-family: 'Open Sans', verdana, arial, sans-serif; font-size: 12px; fill: rgb(42, 63, 95); fill-opacity: 1; white-space: pre; opacity: 1;" transform="translate(0,69.25)">−20k</text></g><g class="ytick"><text text-anchor="end" x="77" y="4.199999999999999" style="font-family: 'Open Sans', verdana, arial, sans-serif; font-size: 12px; fill: rgb(42, 63, 95); fill-opacity: 1; white-space: pre; opacity: 1;" transform="translate(0,34.78)">0</text></g></g><g class="overaxes-above"><g class="xy2-x"/><g class="xy2-y"><g class="y2tick"><text text-anchor="start" x="527.38" y="4.199999999999999" transform="translate(0,235.65)" style="font-family: 'Open Sans', verdana, arial, sans-serif; font-size: 12px; fill: rgb(42, 63, 95); fill-opacity: 1; white-space: pre; opacity: 1;">0</text></g><g class="y2tick"><text text-anchor="start" x="527.38" y="4.199999999999999" style="font-family: 'Open Sans', verdana, arial, sans-serif; font-size: 12px; fill: rgb(42, 63, 95); fill-opacity: 1; white-space: pre; opacity: 1;" transform="translate(0,184.58)">500</text></g><g class="y2tick"><text text-anchor="start" x="527.38" y="4.199999999999999" style="font-family: 'Open Sans', verdana, arial, sans-serif; font-size: 12px; fill: rgb(42, 63, 95); fill-opacity: 1; white-space: pre; opacity: 1;" transform="translate(0,133.5)">1000</text></g><g class="y2tick"><text text-anchor="start" x="527.38" y="4.199999999999999" style="font-family: 'Open Sans', verdana, arial, sans-serif; font-size: 12px; fill: rgb(42, 63, 95); fill-opacity: 1; white-space: pre; opacity: 1;" transform="translate(0,82.43)">1500</text></g><g class="y2tick"><text text-anchor="start" x="527.38" y="4.199999999999999" style="font-family: 'Open Sans', verdana, arial, sans-serif; font-size: 12px; fill: rgb(42, 63, 95); fill-opacity: 1; white-space: pre; opacity: 1;" transform="translate(0,31.35)">2000</text></g></g></g></g><g class="subplot xy2"/></g><g class="polarlayer"/><g class="smithlayer"/><g class="ternarylayer"/><g class="geolayer"/><g class="funnelarealayer"/><g class="pielayer"/><g class="iciclelayer"/><g class="treemaplayer"/><g class="sunburstlayer"/><g class="glimages"/><defs id="topdefs-837783"><g class="clips"/><clipPath id="legend837783"><rect width="123" height="48" x="0" y="0"/></clipPath></defs><g class="layer-above"><g class="imagelayer"/><g class="shapelayer"/></g><g class="infolayer"><g class="legend" pointer-events="all" transform="translate(564.54,20)"><rect class="bg" shape-rendering="crispEdges" width="123" height="48" x="0" y="0" style="stroke: rgb(68, 68, 68); stroke-opacity: 1; fill: rgb(255, 255, 255); fill-opacity: 1; stroke-width: 0px;"/><g class="scrollbox" transform="" clip-path="url(#legend837783)"><g class="groups"><g class="traces" transform="translate(0,14.5)" style="opacity: 1;"><text class="legendtext" text-anchor="start" x="40" y="4.680000000000001" style="font-family: 'Open Sans', verdana, arial, sans-serif; font-size: 12px; fill: rgb(42, 63, 95); fill-opacity: 1; white-space: pre;">Cost</text><g class="layers" style="opacity: 1;"><g class="legendfill"/><g class="legendlines"><path class="js-line" d="M5,0h30" style="fill: none; stroke: rgb(99, 110, 250); stroke-opacity: 1; stroke-width: 2px;"/></g><g class="legendsymbols"><g class="legendpoints"/></g></g><rect class="legendtoggle" x="0" y="-9.5" width="117.265625" height="19" style="fill: rgb(0, 0, 0); fill-opacity: 0;"/></g><g class="traces" transform="translate(0,33.5)" style="opacity: 1;"><text class="legendtext" text-anchor="start" x="40" y="4.680000000000001" style="font-family: 'Open Sans', verdana, arial, sans-serif; font-size: 12px; fill: rgb(42, 63, 95); fill-opacity: 1; white-space: pre;">Temperature</text><g class="layers" style="opacity: 1;"><g class="legendfill"/><g class="legendlines"><path class="js-line" d="M5,0h30" style="fill: none; stroke: rgb(239, 85, 59); stroke-opacity: 1; stroke-width: 2px;"/></g><g class="legendsymbols"><g class="legendpoints"/></g></g><rect class="legendtoggle" x="0" y="-9.5" width="117.265625" height="19" style="fill: rgb(0, 0, 0); fill-opacity: 0;"/></g></g></g><rect class="scrollbar" rx="20" ry="3" width="0" height="0" x="0" y="0" style="fill: rgb(128, 139, 164); fill-opacity: 1;"/></g><g class="g-gtitle"/><g class="g-xtitle"><text class="xtitle" x="302.19" y="287.8" text-anchor="middle" style="font-family: 'Open Sans', verdana, arial, sans-serif; font-size: 14px; fill: rgb(42, 63, 95); opacity: 1; font-weight: normal; white-space: pre;">Iterations</text></g><g class="g-ytitle" transform="translate(1.6123046875,0)"><text class="ytitle" transform="rotate(-90,12.387500000000003,133.5)" x="12.387500000000003" y="133.5" text-anchor="middle" style="font-family: 'Open Sans', verdana, arial, sans-serif; font-size: 14px; fill: rgb(42, 63, 95); opacity: 1; font-weight: normal; white-space: pre;">Cost</text></g><g class="g-y2title"><text class="y2title" transform="rotate(-90,583.08125,133.5)" x="583.08125" y="133.5" text-anchor="middle" style="font-family: 'Open Sans', verdana, arial, sans-serif; font-size: 14px; fill: rgb(42, 63, 95); opacity: 1; font-weight: normal; white-space: pre;">Temperature</text></g></g></svg>