<svg class="main-svg" xmlns="http://www.w3.org/2000/svg" xmlns:xlink="http://www.w3.org/1999/xlink" width="700" height="300" style="" viewBox="0 0 700 300"><rect x="0" y="0" width="700" height="300" style="fill: rgb(255, 255, 255); fill-opacity: 1;"/><defs id="defs-5f0f97"><g class="clips"><clipPath id="clip5f0f97xyplot" class="plotclip"><rect width="448.38" height="227"/></clipPath><clipPath id="clip5f0f97xy2plot" class="plotclip"><rect width="448.38" height="227"/></clipPath><clipPath class="axesclip" id="clip5f0f97x"><rect x="78" y="0" width="448.38" height="300"/></clipPath><clipPath class="axesclip" id="clip5f0f97y"><rect x="0" y="20" width="700" height="227"/></clipPath><clipPath class="axesclip" id="clip5f0f97xy"><rect x="78" y="20" width="448.38" height="227"/></clipPath><clipPath class="axesclip" id="clip5f0f97y2"><rect x="0" y="20" width="700" height="227"/></clipPath><clipPath class="axesclip" id="clip5f0f97xy2"><rect x="78" y="20" width="448.38" height="227"/></clipPath></g><g class="gradients"/><g class="patterns"/></defs><g class="bglayer"><rect class="bg" x="78" y="20" width="448.38" height="227" style="fill: rgb(229, 236, 246); fill-opacity: 1; stroke-width: 0;"/></g><g class="layer-below"><g class="imagelayer"/><g class="shapelayer"/></g><g class="cartesianlayer"><g class="subplot xy"><g class="layer-subplot"><g class="shapelayer"/><g class="imagelayer"/></g><g class="gridlayer"><g class="x"><path class="xgrid crisp" transform="translate(186.57999999999998,0)" d="M0,20v227" style="stroke: rgb(255, 255, 255); stroke-opacity: 1; stroke-width: 1px;"/><path class="xgrid crisp" transform="translate(295.15999999999997,0)" d="M0,20v227" style="stroke: rgb(255, 255, 255); stroke-opacity: 1; stroke-width: 1px;"/><path class="xgrid crisp" transform="translate(403.74,0)" d="M0,20v227" style="stroke: rgb(255, 255, 255); stroke-opacity: 1; stroke-width: 1px;"/><path class="xgrid crisp" transform="translate(512.3199999999999,0)" d="M0,20v227" style="stroke: rgb(255, 255, 255); stroke-opacity: 1; stroke-width: 1px;"/></g><g class="y"><path class="ygrid crisp" transform="translate(0,224.91)" d="M78,0h448.38" style="stroke: rgb(255, 255, 255); stroke-opacity: 1; stroke-width: 1px;"/><path class="ygrid crisp" transform="translate(0,187.55)" d="M78,0h448.38" style="stroke: rgb(255, 255, 255); stroke-opacity: 1; stroke-width: 1px;"/><path class="ygrid crisp" transform="translate(0,150.18)" d="M78,0h448.38" style="stroke: rgb(255, 255, 255); stroke-opacity: 1; stroke-width: 1px;"/><path class="ygrid crisp" transform="translate(0,112.82)" d="M78,0h448.38" style="stroke: rgb(255, 255, 255); stroke-opacity: 1; stroke-width: 1px;"/><path class="ygrid crisp" transform="translate(0,75.46000000000001)" d="M78,0h448.38" style="stroke: rgb(255, 255, 255); stroke-opacity: 1; stroke-width: 1px;"/></g><g class="y2"><path class="y2grid crisp" transform="translate(0,184.61)" d="M78,0h448.38" style="stroke: rgb(255, 255, 255); stroke-opacity: 1; stroke-width: 1px;"/><path class="y2grid crisp" transform="translate(0,133.53)" d="M78,0h448.38" style="stroke: rgb(255, 255, 255); stroke-opacity: 1; stroke-width: 1px;"/><path class="y2grid crisp" transform="translate(0,82.44)" d="M78,0h448.38" style="stroke: rgb(255, 255, 255); stroke-opacity: 1; stroke-width: 1px;"/><path class="y2grid crisp" transform="translate(0,31.35)" d="M78,0h448.38" style="stroke: rgb(255, 255, 255); stroke-opacity: 1; stroke-width: 1px;"/></g></g><g class="zerolinelayer"><path class="xzl zl crisp" transform="translate(78,0)" d="M0,20v227" style="stroke: rgb(255, 255, 255); stroke-opacity: 1; stroke-width: 2px;"/><path class="yzl zl crisp" transform="translate(0,38.09)" d="M78,0h448.38" style="stroke: rgb(255, 255, 255); stroke-opacity: 1; stroke-width: 2px;"/><path class="y2zl zl crisp" transform="translate(0,235.7)" d="M78,0h448.38" style="stroke: rgb(255, 255, 255); stroke-opacity: 1; stroke-width: 2px;"/></g><path class="xlines-below"/><path class="ylines-below"/><g class="overlines-below"><path class="xy2-x"/><path class="xy2-y"/></g><g class="xaxislayer-below"/><g class="yaxislayer-below"/><g class="overaxes-below"><g class="xy2-x"/><g class="xy2-y"/></g><g class="plot" transform="translate(78,20)" clip-path="url(#clip5f0f97xyplot)"><g class="scatterlayer mlayer"><g class="trace scatter trace96117a" style="stroke-miterlimit: 2; opacity: 1;"><g class="fills"/><g class="errorbars"/><g class="lines"><path class="js-line" d="M0,17.78L0.16,15.08L0.49,24.31L0.76,19.43L0.81,15.24L0.98,14L1.41,23.12L1.57,18.67L1.63,15.83L1.68,13.89L1.95,23.55L2.23,19.92L2.28,21.71L2.39,25.95L2.82,15.93L2.93,18.15L2.99,17.53L3.64,23.87L3.69,15.95L3.75,21.17L3.8,20.32L4.29,19.62L4.45,24.61L4.51,23.06L4.56,19.21L4.89,21.77L5.37,12.14L5.43,17.48L5.7,20.99L5.75,16.39L5.86,12.41L5.97,18.51L6.03,19.78L6.57,22.1L6.89,13.9L6.95,15.21L7,14.87L7.06,20.01L7.22,20.77L7.27,16.36L7.33,16.77L7.38,13.62L7.49,13.61L7.65,22.67L8.14,21L8.2,17.59L8.47,13.55L8.85,23.44L9.07,21.04L9.12,19.43L9.28,13.81L9.61,21.56L9.72,19.16L9.77,23.15L9.88,26.18L9.94,23.03L9.99,18.84L10.32,21.74L10.75,13.89L10.8,15.21L10.86,20.41L11.08,20.97L11.29,13.64L11.46,15.23L11.51,21.79L11.84,13.88L12,18.67L12.05,22.82L12.27,14.75L12.81,20.39L12.87,20.75L12.98,15.36L13.46,21.47L13.63,19.57L13.68,16.9L14.22,14.14L14.39,19.19L14.44,17.89L14.5,15.58L14.6,14.66L15.09,21.96L15.26,16.75L15.31,16.78L15.58,16.54L16.02,20.5L16.07,17.24L16.18,13.58L16.34,19.14L16.78,16.67L16.83,17.14L16.99,20.44L17.26,14.57L17.54,17.4L17.59,17.08L17.86,13.98L18.08,21.97L18.35,21.08L18.4,18.5L18.73,14.02L19,22.07L19.16,17.96L19.22,24.78L19.38,26.65L19.65,15.78L19.98,19.7L20.03,22.76L20.09,23.43L20.25,18.03L20.3,17.11L20.68,18.3L20.9,12.64L20.96,15.57L21.01,18L21.06,16.06L21.34,22.42L21.72,19.06L21.77,19.6L22.1,16.02L22.26,20.93L22.37,19.53L22.42,22.66L22.53,23.25L23.34,15.46L23.4,18.07L23.83,27.85L24.05,17.8L24.1,16.1L24.76,23.25L24.86,19.47L24.92,19.25L24.97,17.77L25.3,25.32L25.52,20.12L25.57,23.7L25.68,24.97L25.73,20.44L25.79,20.77L25.84,15.85L26,11.53L26.17,20.42L26.22,17.89L26.28,20.37L26.55,22.3L26.93,14.82L27.2,17.19L27.25,19.22L27.36,20.63L27.42,17.79L27.47,16.18L27.52,13.71L27.69,19.19L28.12,16.57L28.18,20.19L28.29,18.92L28.34,21.81L28.39,17.06L28.56,14.03L28.61,15.88L28.67,13.15L28.77,12.41L28.94,15.39L28.99,18.78L29.26,22.2L29.59,14.42L29.75,16.43L29.81,18.13L29.91,17.65L29.97,22.37L30.35,15.26L30.62,17.97L30.67,19.2L30.84,13.46L31.11,21.4L31.38,20.62L31.43,20.88L31.49,22.26L31.87,16.39L32.14,21.2L32.19,19.38L32.36,17.96L32.74,22.06L32.85,18.02L32.9,16.96L33.17,14.4L33.61,24.32L33.71,23.98L33.77,19.27L33.82,20.06L34.04,13.72L34.2,15.22L34.26,12.1L35.23,23.05L35.29,21.8L35.34,22.76L35.45,22.28L35.51,23.19L35.56,20.33L35.83,17.99L36.27,23.07L36.32,19.94L36.81,25.55L37.08,21.34L37.13,21.52L37.41,22.69L37.84,14.33L38.11,14.72L38.17,17.08L38.27,15.87L38.55,21.55L38.6,24.62L38.65,26.57L38.98,18.92L39.25,21.14L39.31,22.73L39.74,25.6L40.07,17.34L40.17,20.12L40.23,21L40.5,22.71L40.93,16.08L41.04,16.22L41.1,16.97L41.21,14.31L41.31,18.74L41.42,18.34L41.48,19.82L41.69,21.08L41.8,18.53L41.86,19.51L41.91,21.81L42.18,13.75L42.67,16.51L42.73,18.52L43.05,24.77L43.49,22.69L43.54,20.2L43.59,20.44L43.65,16.4L44.14,20.61L44.19,16.11L44.35,17.72L44.41,15.82L44.63,17.99L44.95,11.35L45.11,17.17L45.17,19.64L45.28,21.72L45.49,15.58L45.93,21.15L45.98,20.23L46.53,18.22L46.63,24.12L46.74,21.23L46.8,19.13L47.18,23.9L47.56,21.21L47.61,21.48L48.32,17.14L48.37,18.18L48.43,20.61L48.7,16.37L49.3,24.65L49.35,23.57L49.62,16.27L49.89,23.33L49.95,23.11L50.11,23.01L50.38,29.09L50.54,25.09L50.6,24.27L50.76,20.17L51.3,22.81L51.36,24.09L51.47,24.79L51.79,18.42L52.17,19.39L52.23,20.31L52.44,16.7L52.66,22.23L52.88,19.51L52.93,18.29L53.1,17.79L53.69,24.17L53.8,21.18L53.86,22.02L54.02,18.95L54.51,23.57L54.56,21.75L54.62,20.78L54.94,21.67L55.48,16.01L55.54,16.13L55.59,15.19L55.86,19.39L56.08,17.34L56.14,19.23L56.3,17.75L56.62,22.69L56.73,19.52L56.79,17.33L57.71,24.25L57.76,23.57L58.52,17.41L58.58,20L59.01,27.9L59.34,23.33L59.39,23.07L59.56,17.95L59.88,23.62L59.94,22.45L59.99,23.52L60.21,24.65L60.26,23.29L60.32,23.47L60.37,19.45L60.59,19.09L61.13,25.55L61.35,22.71L61.4,22.67L61.62,21.85L61.78,25.81L62.05,24.27L62.11,22.78L62.38,20.31L62.65,25.75L62.87,25.13L62.92,21.77L63.25,20.64L63.36,22.81L63.41,24.82L63.95,29.89L64.22,19.12L64.28,19.82L64.33,19.61L64.55,18.35L64.88,24.88L65.09,19.89L65.15,19.17L65.42,16.12L66.07,26.21L66.13,24.92L66.51,27.22L67.27,20.35L67.32,21.59L67.37,22.81L67.54,19.84L68.03,21.76L68.08,22.99L68.19,25.98L68.62,21.55L68.79,23.21L68.84,20.96L68.95,21.89L69.22,16.64L69.27,17.42L69.33,16.42L70.36,28.92L70.41,28.02L70.52,29.13L70.74,23.01L71.01,23.55L71.07,26.56L71.5,29.77L71.55,27.39L71.61,25.93L71.99,28.52L72.42,22.49L72.48,22.71L72.53,23.31L72.8,28.68L72.97,24.83L73.02,20.5L73.29,18.09L74.05,24.52L74.11,23.53L74.21,23.31L74.27,23.46L74.32,25.47L74.54,19.79L74.97,25.24L75.03,25.89L75.41,30.96L75.52,27.03L75.57,23.17L76.01,19.17L76.33,22.12L76.39,23.59L76.55,25.37L76.71,23.01L76.93,23.51L76.98,21.16L77.04,18.96L77.63,22.12L77.69,22.68L77.96,24.05L78.29,19.9L78.39,20.97L78.45,23.73L78.88,26.93L79.05,24.92L79.1,22.13L79.21,21.97L79.48,27.04L79.97,24.79L80.02,25.04L80.08,27.12L80.67,21.88L80.73,22.74L81.22,28.05L81.6,26.36L81.65,26.68L81.87,25.69L82.19,28.02L82.25,26.29L82.3,24.92L82.57,28.47L82.85,23.34L83.12,26.93L83.17,24.05L83.23,24.22L83.28,21.36L83.44,19.73L83.71,23.38L83.99,20.7L84.04,22.16L84.37,27.55L84.48,25.02L84.53,22.48L85.02,27.64L85.4,26.45L85.45,24.83L85.62,24.9L85.67,24.18L85.72,25.55L86.1,28.7L86.43,21.99L86.54,24.2L86.59,25.34L86.86,25.12L87.35,28.44L87.41,25.82L87.68,29.19L87.9,23L88.17,26.52L88.22,24.19L88.28,23.76L88.6,25.8L88.66,27.26L88.71,28.06L89.25,24.88L89.31,25.56L89.58,25.08L90.77,32.71L90.83,30.85L91.26,31.28L91.75,23.43L91.8,24.2L91.91,23.42L93,30.66L93.05,29.07L93.16,30.34L93.22,26.94L93.38,27.16L93.43,24.17L93.81,30.85L94.36,29.25L94.41,27.3L94.68,30.22L95.01,28.05L95.06,25.65L95.6,30.95L95.93,27.78L95.98,26.97L96.04,27.64L96.2,24.53L96.47,25.63L96.53,24.37L96.58,21.18L97.18,28.1L97.23,28.87L97.4,28.18L97.78,32.05L97.99,30.91L98.05,28.44L98.1,28.78L98.21,24.99L98.26,25.41L98.32,22.9L99.51,32.04L99.57,30.08L99.62,28.13L100.16,31.94L100.27,31.92L100.33,32.08L100.65,29.57L101.03,32.45L101.09,32.49L101.3,29.9L101.74,33.79L101.79,35.01L102.06,35.43L102.12,34.48L102.17,33.07L102.23,33.42L102.39,30.54L102.44,28.19L102.5,29.31L102.72,24.02L103.1,26.68L103.15,26.28L103.59,30.76L104.07,29.6L104.13,28.17L104.4,31.54L104.73,25.46L104.78,25.93L105.7,32.97L105.92,32.95L105.97,29.06L106.08,27.83L106.3,30.01L106.35,31.65L106.52,26.64L106.79,31.91L106.84,31.94L107.44,35.49L107.49,34.11L107.55,30.73L108.2,36.89L108.58,35.67L108.63,34.64L109.07,34.97L109.94,24.61L109.99,24.98L110.05,26.92L110.32,29.53L110.37,30.47L110.53,29.65L110.75,31.37L110.81,30.85L110.86,29.41L111.08,27.8L111.51,32.75L111.67,30.31L111.73,29.46L113.03,34.51L113.09,32.44L113.14,31.53L113.63,36.07L113.68,35.19L113.74,35.24L113.9,29.12L114.5,33.6L114.55,33.34L114.66,34.46L114.82,30.72L114.99,31.19L115.04,30.65L115.2,32.52L115.37,30.12L115.42,30.18L116.34,35.79L116.4,35.46L116.67,32.32L117.1,34.45L117.16,34.98L117.7,38.33L117.97,37.12L118.03,33.91L118.35,37.33L118.57,32.82L118.62,31.43L119.55,34.92L119.6,32.05L119.98,33.38L120.14,30.11L120.36,31.1L120.41,31.28L120.85,35.89L120.9,36.17L121.34,39.61L121.94,31.72L121.99,31.98L122.04,32.36L122.15,31.92L122.8,34.81L122.86,32.33L123.67,36.51L123.73,34.42L123.78,33.76L123.94,36.29L124,36.51L124.92,40.47L124.98,38.21L125.25,35.43L125.68,38.83L125.74,39.82L125.79,38.61L126.39,41.86L126.44,41.88L126.55,42.3L126.71,40.47L126.77,40.6L126.82,39.11L127.15,33.02L127.69,33.65L127.74,33.86L128.34,36.73L128.72,36.1L128.78,34.81L129.1,35.27L129.32,33.31L129.48,34.09L129.54,34.96L130.24,40.75L130.4,37.73L130.46,37.95L131.22,43.67L131.44,41.07L131.49,38.34L132.2,42.75L132.25,43.68L132.96,37.63L133.17,38.88L133.23,39.12L134.42,42.41L134.58,42.36L134.64,40.85L135.34,43.37L135.4,42.31L135.45,41.1L135.67,43.84L136.21,41.88L136.27,42.65L136.59,44.92L137.08,44.89L137.14,43.1L138.06,37.62L138.22,38.6L138.28,39.55L138.44,39.3L138.98,42.07L139.14,41.21L139.2,41.34L139.42,41.11L140.07,45.27L140.18,43.53L140.23,42.84L140.34,43.52L140.45,41.63L140.77,42.79L140.83,41.57L140.99,40.25L141.75,45.31L141.81,44.45L141.86,42.2L142.46,44.68L142.51,42.31L142.78,41.97L143.43,45.09L143.49,44.9L143.6,42.69L143.92,48.03L144.3,43.43L144.36,44.11L144.85,45.78L144.95,43.46L145.01,43.68L145.06,43.49L145.5,39.61L145.88,41.69L145.93,42.01L146.2,41.64L146.58,43.12L146.64,41.6L147.07,42.97L147.18,41.15L147.34,42.59L147.4,41.27L147.56,41.9L147.61,43.13L148.75,50.32L148.86,48.2L148.92,47.18L149.03,47.37L149.08,45.07L149.19,46.12L149.46,42.91L149.68,44.18L149.73,43.41L150.06,42.14L150.82,48.06L150.87,46.46L151.2,45L151.52,48.99L151.74,47.98L151.79,47.01L152.28,48.64L152.55,48.17L152.61,46.46L153.04,48.93L153.1,50.22L153.31,51.96L153.53,49.24L153.8,50.89L153.86,49.58L154.07,50.29L154.45,49.37L154.51,50.21L154.56,48.1L154.73,46.68L155,49.14L155.05,49.18L155.11,48.21L155.59,51.88L155.65,51.96L156.03,47.67L156.46,49.43L156.52,48.6L156.84,46.77L157.39,49.84L157.44,48.65L158.09,50.75L158.2,49.54L158.25,48.66L159.5,52.28L159.56,52.39L159.78,53.72L160.05,53.41L160.1,52.39L160.16,50.94L160.37,53.84L160.81,52.71L160.86,53.06L161.08,51.44L161.51,53.14L161.57,53.65L161.84,54.42L161.95,53.83L162,52.61L162.54,56.07L162.71,53.76L162.76,52.36L162.98,51.65L163.36,54.46L163.52,53.61L163.58,52.83L164.12,54.52L164.17,54.8L164.34,52.83L164.88,55.76L164.99,55.42L165.04,53.16L165.2,53.83L165.26,52.17L166.34,57.54L166.62,56.98L166.67,55.55L167.38,51.09L167.48,52.25L167.54,52.51L167.92,51.46L168.62,54.89L168.68,53.08L169.76,58.37L169.82,57.2L169.87,55.81L170.42,59.58L170.47,58.13L170.52,58.89L170.8,59.76L171.12,57.78L171.18,58.13L171.23,58.43L171.28,58.81L171.61,57.43L171.66,57.48L171.72,56.13L172.26,51.23L172.64,52.09L172.7,52.54L173.4,54.78L173.56,53.6L173.62,53.04L175.68,60.56L175.74,58.89L176.98,62.17L177.04,61.24L177.8,64.16L178.02,63.06L178.07,63.18L178.67,66.44L178.83,65.3L178.89,64.01L178.94,64.5L179.16,60.98L179.21,58.24L180.35,62.5L180.41,62.5L180.73,61.32L181.06,63.43L181.17,62.62L181.22,60.9L182.47,66.82L182.79,66.4L182.85,65.37L183.5,66.55L183.55,65.12L183.61,65.19L183.72,64.58L184.04,66.89L184.21,66.03L184.26,66.25L184.42,66.03L184.86,67.9L184.91,68.2L185.56,65.89L185.67,66.2L185.73,66.77L185.89,67.59L186,63.7L186.05,63.71L186.11,62.92L186.32,62.67L187.08,65.22L187.14,65.3L187.19,64.42L187.63,66.05L187.9,65.1L187.95,65.12L188.01,65.37L188.06,63.53L188.28,64.11L188.33,63.33L188.49,64.22L188.55,62.96L189.09,63.68L189.15,63.73L189.31,63.33L190.99,71.54L191.05,69.05L191.43,69.93L191.48,67.98L191.7,68.32L191.75,68.33L192.02,70.01L192.24,66.5L192.29,64.93L192.46,65.82L192.62,63.95L192.95,64.59L193,62.35L193.22,63.88L193.27,64.2L193.38,63.83L194.47,68.39L194.52,68.51L195.71,71.16L195.77,69.88L195.82,69.9L196.09,69.27L196.69,70.84L196.75,69.84L197.13,68.18L197.51,68.98L197.56,69.37L198.1,70.93L198.38,70.05L198.43,70.15L198.76,70.72L198.81,69.42L198.92,67.87L199.46,70.65L199.52,71.38L200.22,73.66L200.49,73.47L200.55,72.46L201.36,74.64L201.42,74.27L201.47,72.8L201.58,72.26L202.39,74.38L202.45,74.39L202.94,73.61L203.26,75.36L203.32,73.94L203.37,73.14L203.86,76.16L203.91,76.16L203.97,77.04L204.78,78.89L204.84,78.06L204.89,78.12L205.27,78.59L205.32,77.62L205.38,77.05L205.76,77.64L205.81,76.34L206.25,77.87L206.3,77.98L206.63,78.75L206.68,77.27L206.79,78.36L206.84,76.8L206.95,77.04L207.01,75.75L207.33,76.59L207.39,74.74L207.5,75.43L207.66,73.54L207.82,73.97L207.88,72.6L208.8,75.24L208.85,73.36L209.4,74.77L209.72,74.24L209.78,72.76L211.19,78.11L211.46,77.93L211.51,76.81L211.78,77.79L212.27,77.17L212.33,77.23L212.92,77.53L212.98,77.86L213.14,76.33L213.63,78.65L213.68,78.73L213.96,79.92L214.12,77.87L214.44,78.85L214.5,78.44L214.72,78.96L214.77,79.6L215.59,80.77L215.64,79.5L216.35,81.61L216.78,81.07L216.83,81.09L217.7,82.54L217.76,82.67L218.95,85.66L219.22,85.47L219.28,83.75L220.09,85.4L220.15,85.42L220.25,84.47L221.07,86.87L221.12,85.77L222.43,87.45L222.48,85.33L223.95,88.97L224,87.71L224.05,86.66L224.6,85.61L224.76,86.3L224.81,86.88L225.57,88.98L226.01,88.62L226.06,88.38L226.17,86.85L226.77,89.08L226.82,89.12L229.1,93.51L229.16,93.51L229.65,94.01L229.81,92.82L229.86,92.82L230.35,94.6L230.73,94.15L230.79,94.16L231.27,94.96L231.55,92.72L231.71,92.95L231.76,93.12L232.2,94.4L232.25,92.46L233.28,94.33L233.34,92.52L234.53,95.49L234.7,95.2L234.75,94.34L237.08,98.96L237.14,99.26L237.52,97.79L237.84,99.04L237.9,99.36L238.06,99.69L238.12,98.16L238.5,99.07L238.55,97.21L239.42,100.41L239.47,98.87L239.53,98.91L240.4,99.63L240.45,98.6L240.94,99.63L240.99,98.04L241.26,98.88L241.32,99.01L241.92,99.56L241.97,99.89L242.19,99.16L243,100.9L243.06,100.9L243.38,101.15L243.44,100.27L244.74,102.31L244.79,102.34L245.39,104.09L245.66,102.88L245.72,102.88L246.91,105.17L246.96,105.17L247.34,105.49L247.4,104.67L247.67,105.01L247.72,105.01L248.16,105.52L248.21,104.57L248.48,104.95L248.54,105.01L249.41,107.01L249.68,106.71L249.73,105L250.06,104.62L251.04,106.95L251.09,106.95L252.45,108.79L252.5,108.79L252.72,108.02L253.37,109.19L253.43,107.98L253.64,108.07L253.7,107.17L254.4,107.76L254.46,108.03L254.62,108.05L254.67,106.72L255.33,108.17L255.38,106.9L255.54,106.28L258.15,111.73L258.2,111.91L259.18,113.85L259.23,114.31L261.51,116.63L261.57,116.63L262,117.12L262.06,115.5L264.5,120.54L264.55,120.54L264.93,118.94L265.48,119.49L265.53,119.52L266.13,120.19L266.18,120.42L269.82,125L269.87,125L270.58,125.74L270.63,125.88L271.61,126.15L271.67,126.17L272.97,127.04L273.02,127.13L274.11,128.15L274.16,128.4L274.92,129.03L274.98,129.23L277.37,130.5L277.42,131.1L278.4,131.78L278.45,132.08L279.05,132.82L279.1,133.25L280.62,134.45L280.68,134.61L282.31,136.64L282.36,136.64L283.45,137.82L283.5,138.22L284.15,138.81L284.21,138.99L285.08,139.65L285.13,140.05L287.63,141.91L287.68,141.91L289.64,144.09L289.69,144.09L290.89,145.11L290.94,145.11L292.89,146.29L292.95,146.29L294.74,147.34L294.79,147.87L295.99,148.49L296.04,148.8L300.33,151.45L300.39,151.45L301.8,152.2L301.85,152.39L302.67,152.66L302.72,153.19L304.02,154.85L304.08,154.85L307.17,156.7L307.23,157.04L308.8,158.22L308.86,158.58L311.3,159.37L311.35,159.37L312.44,160.7L312.49,160.7L318.46,162.82L318.52,163.07L319.66,163.67L319.71,164.05L321.99,165.01L322.05,165.18L322.92,165.75L322.97,165.75L323.57,166.4L323.62,166.79L327.8,168.76L327.86,168.76L330.3,170.47L330.35,170.47L331.66,171.76L331.71,171.76L332.96,172.69L333.01,172.93L335.35,173.59L335.4,174.14L337.36,174.83L337.41,174.96L338.66,176.13L338.71,176.19L339.64,177.2L339.69,177.2L341.1,178.53L341.16,178.53L343.44,179.23L343.49,179.33L346.86,179.96L346.91,180.25L350.55,182.23L350.6,182.5L352.4,183.25L352.45,183.32L354.02,183.87L354.08,184.17L356.09,185.14L356.14,185.14L364.01,188.37L364.07,188.57L368.85,189.23L368.9,189.42L371.34,190.12L371.4,190.23L373.79,190.92L373.84,191.04L379.11,192.77L379.16,192.97L382.63,193.71L382.69,193.77L385.89,194.63L385.95,194.93L387.79,195.68L387.85,195.91L390.94,196.57L391,196.9L392.08,197.63L392.14,197.74L393.06,198.28L393.11,198.28L396.15,198.95L396.21,199.24L398.81,200.2L398.87,200.3L404.57,202.57L404.62,202.57L405.55,203.38L405.6,203.38L407.5,203.97L407.55,204.15L409.78,204.47L409.83,205.04L412.17,205.7L412.22,205.7L413.91,206.37L413.96,206.56L417,207.21L417.05,207.49L417.98,208.01L418.03,208.01L419.66,208.62L419.71,208.85L420.53,209.15L420.58,209.15L422.43,209.3L422.48,209.3L423.62,210.05L423.68,210.07L427.97,210.82L428.02,211L433.72,211.73L433.78,211.95L438.01,212.68L438.06,212.71L439.1,213.46L439.15,213.46L442.41,214.08L442.46,214.08L446.59,214.67L446.64,214.95L448.38,215.65" style="vector-effect: non-scaling-stroke; fill: none; stroke: rgb(99, 110, 250); stroke-opacity: 1; stroke-width: 2px; opacity: 1;"/></g><g class="points"/><g class="text"/></g></g></g><g class="overplot"><g class="xy2" transform="translate(78,20)" clip-path="url(#clip5f0f97xy2plot)"><g class="scatterlayer mlayer"><g class="trace scatter trace25972e" style="stroke-miterlimit: 2; opacity: 1;"><g class="fills"/><g class="errorbars"/><g class="lines"><path class="js-line" d="M0,11.35L6.73,35.19L6.79,35.37L12.92,54.65L12.98,54.81L19.27,72.44L19.33,72.58L24.27,85.04L24.32,85.17L34.91,108.31L34.96,108.41L44.14,125.1L44.19,125.19L52.44,137.96L52.5,138.04L61.89,150.38L61.94,150.45L73.45,162.92L73.51,162.97L83.17,171.58L83.23,171.62L94.95,180.19L95.01,180.22L105.05,186.22L105.11,186.25L116.67,191.9L116.72,191.92L127.85,196.33L127.91,196.35L141.37,200.6L141.43,200.62L153.69,203.67L153.75,203.68L167.92,206.45L167.97,206.46L216.62,211.93L216.67,211.93L262.76,214.09L262.82,214.09L282.8,214.59L282.85,214.59L344.41,215.34L344.47,215.35L448.38,215.65" style="vector-effect: non-scaling-stroke; fill: none; stroke: rgb(239, 85, 59); stroke-opacity: 1; stroke-width: 2px; opacity: 1;"/></g><g class="points"/><g class="text"/></g></g></g></g><path class="xlines-above crisp" d="M0,0" style="fill: none;"/><path class="ylines-above crisp" d="M0,0" style="fill: none;"/><g class="overlines-above"><path class="xy2-x crisp" d="M0,0" style="fill: none;"/><path class="xy2-y crisp" d="M0,0" style="fill: none;"/></g><g class="xaxislayer-above"><g class="xtick"><text text-anchor="middle" x="0" y="260" transform="translate(78,0)" style="font-family: 'Open Sans', verdana, arial, sans-serif; font-size: 12px; fill: rgb(42, 63, 95); fill-opacity: 1; white-space: pre; opacity: 1;">0</text></g><g class="xtick"><text text-anchor="middle" x="0" y="260" style="font-family: 'Open Sans', verdana, arial, sans-serif; font-size: 12px; fill: rgb(42, 63, 95); fill-opacity: 1; white-space: pre; opacity: 1;" transform="translate(186.57999999999998,0)">2000</text></g><g class="xtick"><text text-anchor="middle" x="0" y="260" style="font-family: 'Open Sans', verdana, arial, sans-serif; font-size: 12px; fill: rgb(42, 63, 95); fill-opacity: 1; white-space: pre; opacity: 1;" transform="translate(295.15999999999997,0)">4000</text></g><g class="xtick"><text text-anchor="middle" x="0" y="260" style="font-family: 'Open Sans', verdana, arial, sans-serif; font-size: 12px; fill: rgb(42, 63, 95); fill-opacity: 1; white-space: pre; opacity: 1;" transform="translate(403.74,0)">6000</text></g><g class="xtick"><text text-anchor="middle" x="0" y="260" style="font-family: 'Open Sans', verdana, arial, sans-serif; font-size: 12px; fill: rgb(42, 63, 95); fill-opacity: 1; white-space: pre; opacity: 1;" transform="translate(512.3199999999999,0)">8000</text></g></g><g class="yaxislayer-above"><g class="ytick"><text text-anchor="end" x="77" y="4.199999999999999" transform="translate(0,224.91)" style="font-family: 'Open Sans', verdana, arial, sans-serif; font-size: 12px; fill: rgb(42, 63, 95); fill-opacity: 1; white-space: pre; opacity: 1;">−100k</text></g><g class="ytick"><text text-anchor="end" x="77" y="4.199999999999999" style="font-family: 'Open Sans', verdana, arial, sans-serif; font-size: 12px; fill: rgb(42, 63, 95); fill-opacity: 1; white-space: pre; opacity: 1;" transform="translate(0,187.55)">−80k</text></g><g class="ytick"><text text-anchor="end" x="77" y="4.199999999999999" style="font-family: 'Open Sans', verdana, arial, sans-serif; font-size: 12px; fill: rgb(42, 63, 95); fill-opacity: 1; white-space: pre; opacity: 1;" transform="translate(0,150.18)">−60k</text></g><g class="ytick"><text text-anchor="end" x="77" y="4.199999999999999" style="font-family: 'Open Sans', verdana, arial, sans-serif; font-size: 12px; fill: rgb(42, 63, 95); fill-opacity: 1; white-space: pre; opacity: 1;" transform="translate(0,112.82)">−40k</text></g><g class="ytick"><text text-anchor="end" x="77" y="4.199999999999999" style="font-family: 'Open Sans', verdana, arial, sans-serif; font-size: 12px; fill: rgb(42, 63, 95); fill-opacity: 1; white-space: pre; opacity: 1;" transform="translate(0,75.46000000000001)">−20k</text></g><g class="ytick"><text text-anchor="end" x="77" y="4.199999999999999" style="font-family: 'Open Sans', verdana, arial, sans-serif; font-size: 12px; fill: rgb(42, 63, 95); fill-opacity: 1; white-space: pre; opacity: 1;" transform="translate(0,38.09)">0</text></g></g><g class="overaxes-above"><g class="xy2-x"/><g class="xy2-y"><g class="y2tick"><text text-anchor="start" x="527.38" y="4.199999999999999" transform="translate(0,235.7)" style="font-family: 'Open Sans', verdana, arial, sans-serif; font-size: 12px; fill: rgb(42, 63, 95); fill-opacity: 1; white-space: pre; opacity: 1;">0</text></g><g class="y2tick"><text text-anchor="start" x="527.38" y="4.199999999999999" style="font-family: 'Open Sans', verdana, arial, sans-serif; font-size: 12px; fill: rgb(42, 63, 95); fill-opacity: 1; white-space: pre; opacity: 1;" transform="translate(0,184.61)">500</text></g><g class="y2tick"><text text-anchor="start" x="527.38" y="4.199999999999999" style="font-family: 'Open Sans', verdana, arial, sans-serif; font-size: 12px; fill: rgb(42, 63, 95); fill-opacity: 1; white-space: pre; opacity: 1;" transform="translate(0,133.53)">1000</text></g><g class="y2tick"><text text-anchor="start" x="527.38" y="4.199999999999999" style="font-family: 'Open Sans', verdana, arial, sans-serif; font-size: 12px; fill: rgb(42, 63, 95); fill-opacity: 1; white-space: pre; opacity: 1;" transform="translate(0,82.44)">1500</text></g><g class="y2tick"><text text-anchor="start" x="527.38" y="4.199999999999999" style="font-family: 'Open Sans', verdana, arial, sans-serif; font-size: 12px; fill: rgb(42, 63, 95); fill-opacity: 1; white-space: pre; opacity: 1;" transform="translate(0,31.35)">2000</text></g></g></g></g><g class="subplot xy2"/></g><g class="polarlayer"/><g class="smithlayer"/><g class="ternarylayer"/><g class="geolayer"/><g class="funnelarealayer"/><g class="pielayer"/><g class="iciclelayer"/><g class="treemaplayer"/><g class="sunburstlayer"/><g class="glimages"/><defs id="topdefs-5f0f97"><g class="clips"/><clipPath id="legend5f0f97"><rect width="123" height="48" x="0" y="0"/></clipPath></defs><g class="layer-above"><g class="imagelayer"/><g class="shapelayer"/></g><g class="infolayer"><g class="legend" pointer-events="all" transform="translate(564.54,20)"><rect class="bg" shape-rendering="crispEdges" width="123" height="48" x="0" y="0" style="stroke: rgb(68, 68, 68); stroke-opacity: 1; fill: rgb(255, 255, 255); fill-opacity: 1; stroke-width: 0px;"/><g class="scrollbox" transform="" clip-path="url(#legend5f0f97)"><g class="groups"><g class="traces" transform="translate(0,14.5)" style="opacity: 1;"><text class="legendtext" text-anchor="start" x="40" y="4.680000000000001" style="font-family: 'Open Sans', verdana, arial, sans-serif; font-size: 12px; fill: rgb(42, 63, 95); fill-opacity: 1; white-space: pre;">Cost</text><g class="layers" style="opacity: 1;"><g class="legendfill"/><g class="legendlines"><path class="js-line" d="M5,0h30" style="fill: none; stroke: rgb(99, 110, 250); stroke-opacity: 1; stroke-width: 2px;"/></g><g class="legendsymbols"><g class="legendpoints"/></g></g><rect class="legendtoggle" x="0" y="-9.5" width="117.265625" height="19" style="fill: rgb(0, 0, 0); fill-opacity: 0;"/></g><g class="traces" transform="translate(0,33.5)" style="opacity: 1;"><text class="legendtext" text-anchor="start" x="40" y="4.680000000000001" style="font-family: 'Open Sans', verdana, arial, sans-serif; font-size: 12px; fill: rgb(42, 63, 95); fill-opacity: 1; white-space: pre;">Temperature</text><g class="layers" style="opacity: 1;"><g class="legendfill"/><g class="legendlines"><path class="js-line" d="M5,0h30" style="fill: none; stroke: rgb(239, 85, 59); stroke-opacity: 1; stroke-width: 2px;"/></g><g class="legendsymbols"><g class="legendpoints"/></g></g><rect class="legendtoggle" x="0" y="-9.5" width="117.265625" height="19" style="fill: rgb(0, 0, 0); fill-opacity: 0;"/></g></g></g><rect class="scrollbar" rx="20" ry="3" width="0" height="0" x="0" y="0" style="fill: rgb(128, 139, 164); fill-opacity: 1;"/></g><g class="g-gtitle"/><g class="g-xtitle"><text class="xtitle" x="302.19" y="287.8" text-anchor="middle" style="font-family: 'Open Sans', verdana, arial, sans-serif; font-size: 14px; fill: rgb(42, 63, 95); opacity: 1; font-weight: normal; white-space: pre;">Iterations</text></g><g class="g-ytitle" transform="translate(1.6123046875,0)"><text class="ytitle" transform="rotate(-90,12.387500000000003,133.5)" x="12.387500000000003" y="133.5" text-anchor="middle" style="font-family: 'Open Sans', verdana, arial, sans-serif; font-size: 14px; fill: rgb(42, 63, 95); opacity: 1; font-weight: normal; white-space: pre;">Cost</text></g><g class="g-y2title"><text class="y2title" transform="rotate(-90,583.08125,133.5)" x="583.08125" y="133.5" text-anchor="middle" style="font-family: 'Open Sans', verdana, arial, sans-serif; font-size: 14px; fill: rgb(42, 63, 95); opacity: 1; font-weight: normal; white-space: pre;">Temperature</text></g></g></svg>