<svg class="main-svg" xmlns="http://www.w3.org/2000/svg" xmlns:xlink="http://www.w3.org/1999/xlink" width="700" height="300" style="" viewBox="0 0 700 300"><rect x="0" y="0" width="700" height="300" style="fill: rgb(255, 255, 255); fill-opacity: 1;"/><defs id="defs-5ec042"><g class="clips"><clipPath id="clip5ec042xyplot" class="plotclip"><rect width="451.2" height="227"/></clipPath><clipPath id="clip5ec042xy2plot" class="plotclip"><rect width="451.2" height="227"/></clipPath><clipPath class="axesclip" id="clip5ec042x"><rect x="75" y="0" width="451.2" height="300"/></clipPath><clipPath class="axesclip" id="clip5ec042y"><rect x="0" y="20" width="700" height="227"/></clipPath><clipPath class="axesclip" id="clip5ec042xy"><rect x="75" y="20" width="451.2" height="227"/></clipPath><clipPath class="axesclip" id="clip5ec042y2"><rect x="0" y="20" width="700" height="227"/></clipPath><clipPath class="axesclip" id="clip5ec042xy2"><rect x="75" y="20" width="451.2" height="227"/></clipPath></g><g class="gradients"/><g class="patterns"/></defs><g class="bglayer"><rect class="bg" x="75" y="20" width="451.2" height="227" style="fill: rgb(229, 236, 246); fill-opacity: 1; stroke-width: 0;"/></g><g class="layer-below"><g class="imagelayer"/><g class="shapelayer"/></g><g class="cartesianlayer"><g class="subplot xy"><g class="layer-subplot"><g class="shapelayer"/><g class="imagelayer"/></g><g class="gridlayer"><g class="x"><path class="xgrid crisp" transform="translate(149.95999999999998,0)" d="M0,20v227" style="stroke: rgb(255, 255, 255); stroke-opacity: 1; stroke-width: 1px;"/><path class="xgrid crisp" transform="translate(224.93,0)" d="M0,20v227" style="stroke: rgb(255, 255, 255); stroke-opacity: 1; stroke-width: 1px;"/><path class="xgrid crisp" transform="translate(299.89,0)" d="M0,20v227" style="stroke: rgb(255, 255, 255); stroke-opacity: 1; stroke-width: 1px;"/><path class="xgrid crisp" transform="translate(374.85,0)" d="M0,20v227" style="stroke: rgb(255, 255, 255); stroke-opacity: 1; stroke-width: 1px;"/><path class="xgrid crisp" transform="translate(449.81,0)" d="M0,20v227" style="stroke: rgb(255, 255, 255); stroke-opacity: 1; stroke-width: 1px;"/><path class="xgrid crisp" transform="translate(524.78,0)" d="M0,20v227" style="stroke: rgb(255, 255, 255); stroke-opacity: 1; stroke-width: 1px;"/></g><g class="y"><path class="ygrid crisp" transform="translate(0,231.73)" d="M75,0h451.2" style="stroke: rgb(255, 255, 255); stroke-opacity: 1; stroke-width: 1px;"/><path class="ygrid crisp" transform="translate(0,183.41)" d="M75,0h451.2" style="stroke: rgb(255, 255, 255); stroke-opacity: 1; stroke-width: 1px;"/><path class="ygrid crisp" transform="translate(0,135.1)" d="M75,0h451.2" style="stroke: rgb(255, 255, 255); stroke-opacity: 1; stroke-width: 1px;"/><path class="ygrid crisp" transform="translate(0,86.79)" d="M75,0h451.2" style="stroke: rgb(255, 255, 255); stroke-opacity: 1; stroke-width: 1px;"/><path class="ygrid crisp" transform="translate(0,38.480000000000004)" d="M75,0h451.2" style="stroke: rgb(255, 255, 255); stroke-opacity: 1; stroke-width: 1px;"/></g><g class="y2"><path class="y2grid crisp" transform="translate(0,184.58)" d="M75,0h451.2" style="stroke: rgb(255, 255, 255); stroke-opacity: 1; stroke-width: 1px;"/><path class="y2grid crisp" transform="translate(0,133.5)" d="M75,0h451.2" style="stroke: rgb(255, 255, 255); stroke-opacity: 1; stroke-width: 1px;"/><path class="y2grid crisp" transform="translate(0,82.43)" d="M75,0h451.2" style="stroke: rgb(255, 255, 255); stroke-opacity: 1; stroke-width: 1px;"/><path class="y2grid crisp" transform="translate(0,31.35)" d="M75,0h451.2" style="stroke: rgb(255, 255, 255); stroke-opacity: 1; stroke-width: 1px;"/></g></g><g class="zerolinelayer"><path class="xzl zl crisp" transform="translate(75,0)" d="M0,20v227" style="stroke: rgb(255, 255, 255); stroke-opacity: 1; stroke-width: 2px;"/><path class="y2zl zl crisp" transform="translate(0,235.65)" d="M75,0h451.2" style="stroke: rgb(255, 255, 255); stroke-opacity: 1; stroke-width: 2px;"/></g><path class="xlines-below"/><path class="ylines-below"/><g class="overlines-below"><path class="xy2-x"/><path class="xy2-y"/></g><g class="xaxislayer-below"/><g class="yaxislayer-below"/><g class="overaxes-below"><g class="xy2-x"/><g class="xy2-y"/></g><g class="plot" transform="translate(75,20)" clip-path="url(#clip5ec042xyplot)"><g class="scatterlayer mlayer"><g class="trace scatter traceccdb6a" style="stroke-miterlimit: 2; opacity: 1;"><g class="fills"/><g class="errorbars"/><g class="lines"><path class="js-line" d="M0,18.84L0.15,15.65L0.52,16.19L0.6,19.37L0.9,11.35L1.35,17.75L1.42,18.7L1.57,16.07L1.72,23.2L1.95,20.01L2.02,22.26L2.7,12.42L3,17.83L3.07,16.95L3.15,16.35L3.3,18.36L3.37,20.89L3.82,23.53L4.05,22.58L4.12,19.82L4.27,18.49L4.5,20.29L4.65,19.7L4.72,21.62L4.87,25.35L5.17,20.81L5.47,22.67L5.55,22.3L5.7,24.73L6.22,22.97L6.3,21.86L6.45,24.51L6.67,19.97L6.75,18.34L7.12,14.49L7.57,16.53L7.65,16.85L7.72,14.72L8.25,18.81L8.32,20.25L8.55,19.14L8.85,21.18L9,19.94L9.07,21.03L9.15,21.35L9.3,19.23L9.37,18.07L9.52,17.28L10.64,24.27L10.72,23.04L11.02,23.31L11.47,21.13L11.54,21.36L11.62,20.48L12.82,25.85L12.89,26.25L13.04,25.87L14.47,32.94L14.54,33.04L15.07,29.56L15.29,32.2L15.37,31.92L16.57,36.58L16.72,35.55L16.79,35.56L16.87,34.96L17.32,37.09L17.39,37.5L17.62,38.44L17.69,39.88L17.84,38.89L18.22,41.42L18.37,40.48L18.44,41.51L19.94,44.36L20.02,44.41L20.09,43.71L20.61,45.51L20.69,45.62L21.51,48.59L21.96,47.81L22.04,47.11L23.69,54L23.76,53.42L23.91,52.54L24.44,53.87L24.51,53.57L24.66,53.3L25.04,53.86L25.11,54.5L25.94,57.89L26.09,56.91L26.16,56.14L29.24,66.34L29.31,66.37L30.13,69.47L30.36,69.31L30.43,69.34L32.76,75.6L32.83,75.78L35.23,83.22L35.31,83.62L35.61,83.87L35.68,84.73L35.83,84.3L36.66,86.44L36.73,86.67L40.18,94.94L40.25,95.53L48.5,109.52L48.58,109.65L51.5,116.06L51.57,116.11L55.1,121.85L55.17,121.87L58.55,126.01L58.62,126.05L59.07,126.54L59.15,127.07L60.42,129.28L60.49,129.45L64.84,134.79L64.92,134.81L66.19,136.64L66.27,136.7L67.62,138.32L67.69,138.58L70.91,143.97L70.99,144.01L72.71,146.23L72.79,146.26L88.83,160.52L88.91,160.52L96.55,166.36L96.63,166.37L99.63,168.12L99.7,168.19L108.55,173.83L108.62,173.83L109.82,174.83L109.9,174.83L118.22,178.41L118.29,178.64L120.32,179.31L120.39,179.41L122.04,180.06L122.11,180.06L124.06,180.79L124.14,180.86L125.71,181.58L125.79,181.65L129.69,182.54L129.76,182.7L131.63,183.43L131.71,183.52L133.88,184.17L133.96,184.31L137.03,185.19L137.11,185.35L144.15,187.43L144.23,187.43L148.35,188.02L148.43,188.02L152.7,188.69L152.77,188.81L154.42,189.11L154.5,189.11L157.42,189.73L157.5,190L161.02,190.73L161.09,190.83L163.72,191.56L163.79,191.69L167.84,192.43L167.92,192.53L173.31,193.92L173.39,193.92L176.69,194.66L176.76,194.71L180.96,195.46L181.03,195.48L183.51,195.75L183.58,195.75L195.28,198.04L195.35,198.04L200.97,198.79L201.05,198.82L205.77,199.47L205.85,199.59L208.7,200.29L208.77,200.41L213.94,201.1L214.02,201.28L219.72,201.95L219.79,202.04L226.99,202.78L227.06,202.96L237.26,203.65L237.33,203.72L241.45,204.08L241.53,204.08L243.78,204.66L243.85,204.91L256.22,205.64L256.3,205.68L262.52,206.43L262.59,206.54L274.36,207.26L274.44,207.32L288.46,208.06L288.53,208.17L305.1,208.92L305.17,209.03L316.42,209.75L316.49,209.75L331.78,210.5L331.86,210.51L373.09,212.86L373.16,212.86L387.26,214L387.33,214L424.96,214.74L425.04,214.79L427.51,214.91L427.59,214.91L451.2,215.65" style="vector-effect: non-scaling-stroke; fill: none; stroke: rgb(99, 110, 250); stroke-opacity: 1; stroke-width: 2px; opacity: 1;"/></g><g class="points"/><g class="text"/></g></g></g><g class="overplot"><g class="xy2" transform="translate(75,20)" clip-path="url(#clip5ec042xy2plot)"><g class="scatterlayer mlayer"><g class="trace scatter trace4b89e9" style="stroke-miterlimit: 2; opacity: 1;"><g class="fills"/><g class="errorbars"/><g class="lines"><path class="js-line" d="M0,11.35L3.45,74.46L3.52,75.59L8.17,130.53L8.25,131.21L11.77,157.76L11.84,158.22L16.49,180.75L16.57,181.03L19.94,191.53L20.02,191.72L23.61,199.38L23.69,199.51L27.96,205.44L28.04,205.52L32.91,209.64L32.98,209.69L39.28,212.61L39.36,212.64L46.55,214.26L46.63,214.27L60.19,215.33L60.27,215.33L83.13,215.62L83.21,215.62L451.2,215.65" style="vector-effect: non-scaling-stroke; fill: none; stroke: rgb(239, 85, 59); stroke-opacity: 1; stroke-width: 2px; opacity: 1;"/></g><g class="points"/><g class="text"/></g></g></g></g><path class="xlines-above crisp" d="M0,0" style="fill: none;"/><path class="ylines-above crisp" d="M0,0" style="fill: none;"/><g class="overlines-above"><path class="xy2-x crisp" d="M0,0" style="fill: none;"/><path class="xy2-y crisp" d="M0,0" style="fill: none;"/></g><g class="xaxislayer-above"><g class="xtick"><text text-anchor="middle" x="0" y="260" transform="translate(75,0)" style="font-family: 'Open Sans', verdana, arial, sans-serif; font-size: 12px; fill: rgb(42, 63, 95); fill-opacity: 1; white-space: pre; opacity: 1;">0</text></g><g class="xtick"><text text-anchor="middle" x="0" y="260" style="font-family: 'Open Sans', verdana, arial, sans-serif; font-size: 12px; fill: rgb(42, 63, 95); fill-opacity: 1; white-space: pre; opacity: 1;" transform="translate(149.95999999999998,0)">1000</text></g><g class="xtick"><text text-anchor="middle" x="0" y="260" style="font-family: 'Open Sans', verdana, arial, sans-serif; font-size: 12px; fill: rgb(42, 63, 95); fill-opacity: 1; white-space: pre; opacity: 1;" transform="translate(224.93,0)">2000</text></g><g class="xtick"><text text-anchor="middle" x="0" y="260" style="font-family: 'Open Sans', verdana, arial, sans-serif; font-size: 12px; fill: rgb(42, 63, 95); fill-opacity: 1; white-space: pre; opacity: 1;" transform="translate(299.89,0)">3000</text></g><g class="xtick"><text text-anchor="middle" x="0" y="260" style="font-family: 'Open Sans', verdana, arial, sans-serif; font-size: 12px; fill: rgb(42, 63, 95); fill-opacity: 1; white-space: pre; opacity: 1;" transform="translate(374.85,0)">4000</text></g><g class="xtick"><text text-anchor="middle" x="0" y="260" style="font-family: 'Open Sans', verdana, arial, sans-serif; font-size: 12px; fill: rgb(42, 63, 95); fill-opacity: 1; white-space: pre; opacity: 1;" transform="translate(449.81,0)">5000</text></g><g class="xtick"><text text-anchor="middle" x="0" y="260" style="font-family: 'Open Sans', verdana, arial, sans-serif; font-size: 12px; fill: rgb(42, 63, 95); fill-opacity: 1; white-space: pre; opacity: 1;" transform="translate(524.78,0)">6000</text></g></g><g class="yaxislayer-above"><g class="ytick"><text text-anchor="end" x="74" y="4.199999999999999" transform="translate(0,231.73)" style="font-family: 'Open Sans', verdana, arial, sans-serif; font-size: 12px; fill: rgb(42, 63, 95); fill-opacity: 1; white-space: pre; opacity: 1;">1.38M</text></g><g class="ytick"><text text-anchor="end" x="74" y="4.199999999999999" style="font-family: 'Open Sans', verdana, arial, sans-serif; font-size: 12px; fill: rgb(42, 63, 95); fill-opacity: 1; white-space: pre; opacity: 1;" transform="translate(0,183.41)">1.4M</text></g><g class="ytick"><text text-anchor="end" x="74" y="4.199999999999999" style="font-family: 'Open Sans', verdana, arial, sans-serif; font-size: 12px; fill: rgb(42, 63, 95); fill-opacity: 1; white-space: pre; opacity: 1;" transform="translate(0,135.1)">1.42M</text></g><g class="ytick"><text text-anchor="end" x="74" y="4.199999999999999" style="font-family: 'Open Sans', verdana, arial, sans-serif; font-size: 12px; fill: rgb(42, 63, 95); fill-opacity: 1; white-space: pre; opacity: 1;" transform="translate(0,86.79)">1.44M</text></g><g class="ytick"><text text-anchor="end" x="74" y="4.199999999999999" style="font-family: 'Open Sans', verdana, arial, sans-serif; font-size: 12px; fill: rgb(42, 63, 95); fill-opacity: 1; white-space: pre; opacity: 1;" transform="translate(0,38.480000000000004)">1.46M</text></g></g><g class="overaxes-above"><g class="xy2-x"/><g class="xy2-y"><g class="y2tick"><text text-anchor="start" x="527.2" y="4.199999999999999" transform="translate(0,235.65)" style="font-family: 'Open Sans', verdana, arial, sans-serif; font-size: 12px; fill: rgb(42, 63, 95); fill-opacity: 1; white-space: pre; opacity: 1;">0</text></g><g class="y2tick"><text text-anchor="start" x="527.2" y="4.199999999999999" style="font-family: 'Open Sans', verdana, arial, sans-serif; font-size: 12px; fill: rgb(42, 63, 95); fill-opacity: 1; white-space: pre; opacity: 1;" transform="translate(0,184.58)">500</text></g><g class="y2tick"><text text-anchor="start" x="527.2" y="4.199999999999999" style="font-family: 'Open Sans', verdana, arial, sans-serif; font-size: 12px; fill: rgb(42, 63, 95); fill-opacity: 1; white-space: pre; opacity: 1;" transform="translate(0,133.5)">1000</text></g><g class="y2tick"><text text-anchor="start" x="527.2" y="4.199999999999999" style="font-family: 'Open Sans', verdana, arial, sans-serif; font-size: 12px; fill: rgb(42, 63, 95); fill-opacity: 1; white-space: pre; opacity: 1;" transform="translate(0,82.43)">1500</text></g><g class="y2tick"><text text-anchor="start" x="527.2" y="4.199999999999999" style="font-family: 'Open Sans', verdana, arial, sans-serif; font-size: 12px; fill: rgb(42, 63, 95); fill-opacity: 1; white-space: pre; opacity: 1;" transform="translate(0,31.35)">2000</text></g></g></g></g><g class="subplot xy2"/></g><g class="polarlayer"/><g class="smithlayer"/><g class="ternarylayer"/><g class="geolayer"/><g class="funnelarealayer"/><g class="pielayer"/><g class="iciclelayer"/><g class="treemaplayer"/><g class="sunburstlayer"/><g class="glimages"/><defs id="topdefs-5ec042"><g class="clips"/><clipPath id="legend5ec042"><rect width="123" height="48" x="0" y="0"/></clipPath></defs><g class="layer-above"><g class="imagelayer"/><g class="shapelayer"/></g><g class="infolayer"><g class="legend" pointer-events="all" transform="translate(564.6,20)"><rect class="bg" shape-rendering="crispEdges" width="123" height="48" x="0" y="0" style="stroke: rgb(68, 68, 68); stroke-opacity: 1; fill: rgb(255, 255, 255); fill-opacity: 1; stroke-width: 0px;"/><g class="scrollbox" transform="" clip-path="url(#legend5ec042)"><g class="groups"><g class="traces" transform="translate(0,14.5)" style="opacity: 1;"><text class="legendtext" text-anchor="start" x="40" y="4.680000000000001" style="font-family: 'Open Sans', verdana, arial, sans-serif; font-size: 12px; fill: rgb(42, 63, 95); fill-opacity: 1; white-space: pre;">Cost</text><g class="layers" style="opacity: 1;"><g class="legendfill"/><g class="legendlines"><path class="js-line" d="M5,0h30" style="fill: none; stroke: rgb(99, 110, 250); stroke-opacity: 1; stroke-width: 2px;"/></g><g class="legendsymbols"><g class="legendpoints"/></g></g><rect class="legendtoggle" x="0" y="-9.5" width="117.265625" height="19" style="fill: rgb(0, 0, 0); fill-opacity: 0;"/></g><g class="traces" transform="translate(0,33.5)" style="opacity: 1;"><text class="legendtext" text-anchor="start" x="40" y="4.680000000000001" style="font-family: 'Open Sans', verdana, arial, sans-serif; font-size: 12px; fill: rgb(42, 63, 95); fill-opacity: 1; white-space: pre;">Temperature</text><g class="layers" style="opacity: 1;"><g class="legendfill"/><g class="legendlines"><path class="js-line" d="M5,0h30" style="fill: none; stroke: rgb(239, 85, 59); stroke-opacity: 1; stroke-width: 2px;"/></g><g class="legendsymbols"><g class="legendpoints"/></g></g><rect class="legendtoggle" x="0" y="-9.5" width="117.265625" height="19" style="fill: rgb(0, 0, 0); fill-opacity: 0;"/></g></g></g><rect class="scrollbar" rx="20" ry="3" width="0" height="0" x="0" y="0" style="fill: rgb(128, 139, 164); fill-opacity: 1;"/></g><g class="g-gtitle"/><g class="g-xtitle"><text class="xtitle" x="300.6" y="287.8" text-anchor="middle" style="font-family: 'Open Sans', verdana, arial, sans-serif; font-size: 14px; fill: rgb(42, 63, 95); opacity: 1; font-weight: normal; white-space: pre;">Iterations</text></g><g class="g-ytitle" transform="translate(2.1748046875,0)"><text class="ytitle" transform="rotate(-90,11.825000000000003,133.5)" x="11.825000000000003" y="133.5" text-anchor="middle" style="font-family: 'Open Sans', verdana, arial, sans-serif; font-size: 14px; fill: rgb(42, 63, 95); opacity: 1; font-weight: normal; white-space: pre;">Cost</text></g><g class="g-y2title"><text class="y2title" transform="rotate(-90,582.89375,133.5)" x="582.89375" y="133.5" text-anchor="middle" style="font-family: 'Open Sans', verdana, arial, sans-serif; font-size: 14px; fill: rgb(42, 63, 95); opacity: 1; font-weight: normal; white-space: pre;">Temperature</text></g></g></svg>