<svg class="main-svg" xmlns="http://www.w3.org/2000/svg" xmlns:xlink="http://www.w3.org/1999/xlink" width="700" height="300" style="" viewBox="0 0 700 300"><rect x="0" y="0" width="700" height="300" style="fill: rgb(255, 255, 255); fill-opacity: 1;"/><defs id="defs-4dcf7d"><g class="clips"><clipPath id="clip4dcf7dxyplot" class="plotclip"><rect width="448.38" height="227"/></clipPath><clipPath id="clip4dcf7dxy2plot" class="plotclip"><rect width="448.38" height="227"/></clipPath><clipPath class="axesclip" id="clip4dcf7dx"><rect x="78" y="0" width="448.38" height="300"/></clipPath><clipPath class="axesclip" id="clip4dcf7dy"><rect x="0" y="20" width="700" height="227"/></clipPath><clipPath class="axesclip" id="clip4dcf7dxy"><rect x="78" y="20" width="448.38" height="227"/></clipPath><clipPath class="axesclip" id="clip4dcf7dy2"><rect x="0" y="20" width="700" height="227"/></clipPath><clipPath class="axesclip" id="clip4dcf7dxy2"><rect x="78" y="20" width="448.38" height="227"/></clipPath></g><g class="gradients"/><g class="patterns"/></defs><g class="bglayer"><rect class="bg" x="78" y="20" width="448.38" height="227" style="fill: rgb(229, 236, 246); fill-opacity: 1; stroke-width: 0;"/></g><g class="layer-below"><g class="imagelayer"/><g class="shapelayer"/></g><g class="cartesianlayer"><g class="subplot xy"><g class="layer-subplot"><g class="shapelayer"/><g class="imagelayer"/></g><g class="gridlayer"><g class="x"><path class="xgrid crisp" transform="translate(177.32,0)" d="M0,20v227" style="stroke: rgb(255, 255, 255); stroke-opacity: 1; stroke-width: 1px;"/><path class="xgrid crisp" transform="translate(276.64,0)" d="M0,20v227" style="stroke: rgb(255, 255, 255); stroke-opacity: 1; stroke-width: 1px;"/><path class="xgrid crisp" transform="translate(375.96,0)" d="M0,20v227" style="stroke: rgb(255, 255, 255); stroke-opacity: 1; stroke-width: 1px;"/><path class="xgrid crisp" transform="translate(475.28,0)" d="M0,20v227" style="stroke: rgb(255, 255, 255); stroke-opacity: 1; stroke-width: 1px;"/></g><g class="y"><path class="ygrid crisp" transform="translate(0,229.23)" d="M78,0h448.38" style="stroke: rgb(255, 255, 255); stroke-opacity: 1; stroke-width: 1px;"/><path class="ygrid crisp" transform="translate(0,191.15)" d="M78,0h448.38" style="stroke: rgb(255, 255, 255); stroke-opacity: 1; stroke-width: 1px;"/><path class="ygrid crisp" transform="translate(0,153.07)" d="M78,0h448.38" style="stroke: rgb(255, 255, 255); stroke-opacity: 1; stroke-width: 1px;"/><path class="ygrid crisp" transform="translate(0,115)" d="M78,0h448.38" style="stroke: rgb(255, 255, 255); stroke-opacity: 1; stroke-width: 1px;"/><path class="ygrid crisp" transform="translate(0,76.92)" d="M78,0h448.38" style="stroke: rgb(255, 255, 255); stroke-opacity: 1; stroke-width: 1px;"/></g><g class="y2"><path class="y2grid crisp" transform="translate(0,184.59)" d="M78,0h448.38" style="stroke: rgb(255, 255, 255); stroke-opacity: 1; stroke-width: 1px;"/><path class="y2grid crisp" transform="translate(0,133.51)" d="M78,0h448.38" style="stroke: rgb(255, 255, 255); stroke-opacity: 1; stroke-width: 1px;"/><path class="y2grid crisp" transform="translate(0,82.43)" d="M78,0h448.38" style="stroke: rgb(255, 255, 255); stroke-opacity: 1; stroke-width: 1px;"/><path class="y2grid crisp" transform="translate(0,31.35)" d="M78,0h448.38" style="stroke: rgb(255, 255, 255); stroke-opacity: 1; stroke-width: 1px;"/></g></g><g class="zerolinelayer"><path class="xzl zl crisp" transform="translate(78,0)" d="M0,20v227" style="stroke: rgb(255, 255, 255); stroke-opacity: 1; stroke-width: 2px;"/><path class="yzl zl crisp" transform="translate(0,38.84)" d="M78,0h448.38" style="stroke: rgb(255, 255, 255); stroke-opacity: 1; stroke-width: 2px;"/><path class="y2zl zl crisp" transform="translate(0,235.67)" d="M78,0h448.38" style="stroke: rgb(255, 255, 255); stroke-opacity: 1; stroke-width: 2px;"/></g><path class="xlines-below"/><path class="ylines-below"/><g class="overlines-below"><path class="xy2-x"/><path class="xy2-y"/></g><g class="xaxislayer-below"/><g class="yaxislayer-below"/><g class="overaxes-below"><g class="xy2-x"/><g class="xy2-y"/></g><g class="plot" transform="translate(78,20)" clip-path="url(#clip4dcf7dxyplot)"><g class="scatterlayer mlayer"><g class="trace scatter traceb67e14" style="stroke-miterlimit: 2; opacity: 1;"><g class="fills"/><g class="errorbars"/><g class="lines"><path class="js-line" d="M0,19.65L0.15,19.14L0.7,24.96L0.84,22.53L0.89,21.69L1.29,22.59L1.99,16.12L2.14,17.85L2.19,18.48L2.43,23.93L2.88,21.43L2.93,20.3L3.33,20.61L3.87,13.65L3.92,15.99L3.97,15.52L4.17,19.15L4.32,14.2L4.67,15.17L4.72,15.14L4.92,13.45L5.02,14.19L5.07,12.57L5.11,11.35L5.56,17.46L5.71,15.15L5.76,15.26L6.26,22.22L6.65,19.1L6.7,18.9L7,21.32L7.4,13.31L7.7,15.72L7.75,17.75L8.24,20.4L8.54,19.44L8.59,19.19L8.79,16.4L9.19,20.77L9.39,17.96L9.44,18.25L10.08,17.36L10.33,21.83L10.38,21.6L10.43,20.65L10.58,21.9L10.83,17.6L10.93,19.79L10.97,21.53L11.17,23.9L11.57,19.56L11.62,19.15L11.72,17.79L12.02,20.32L12.32,19.12L12.37,18.8L12.66,16.84L13.11,21.71L13.16,19.77L13.21,19.4L13.26,21.34L13.61,17.84L13.95,19.55L14,18.62L14.1,19.61L14.3,16.55L14.55,17.93L14.6,16.28L14.85,15.4L15.05,18.07L15.3,16.6L15.34,16.78L15.39,16.45L15.74,18.8L15.79,19.43L16.29,20.13L16.69,15.74L16.74,16.35L16.83,14.34L17.23,20.27L17.38,20.17L17.43,21.03L17.93,26.05L18.27,23.91L18.32,23.04L18.77,16.02L19.12,18.69L19.17,20.06L19.32,19.84L19.47,21.43L19.52,19.79L19.57,19.43L19.76,18.52L19.96,21.36L20.36,21L20.41,20.48L20.46,21.6L20.86,17.73L21.06,19.48L21.11,18.98L21.3,16.65L21.5,19.97L21.8,18.93L21.85,20.12L22.2,19.91L22.4,23.45L22.74,22.27L22.79,21.78L22.94,19.49L23.34,23.21L23.44,21.87L23.49,19.47L23.79,22.52L24.13,17.92L24.18,16.71L24.28,15.76L24.83,18.8L25.13,17.56L25.18,17.33L25.23,16.4L25.53,21.42L25.87,18.37L25.92,18.91L26.07,16.98L26.37,20.86L26.62,19L26.67,19.39L26.87,17.76L27.11,21.65L27.21,20.53L27.26,21.29L27.61,24.83L27.91,22.23L27.96,21.27L28.36,21.8L28.85,17.89L28.9,18.31L28.95,19.17L29.05,17.54L29.3,22.68L29.35,23.1L29.7,20.57L30.09,21.3L30.14,22.29L30.44,20.81L30.69,23.09L30.74,23.48L31.88,16.31L31.93,16.82L31.98,17.99L32.48,16.91L32.73,20.88L32.78,20.75L32.83,20.1L33.17,24.31L33.67,22.19L33.72,21.24L33.77,22.58L34.36,18.7L34.41,17.73L35.16,20.84L35.21,19.72L35.26,19.82L35.61,18.33L35.76,19.47L35.8,16.91L35.85,16.6L36.1,19.45L36.15,19.77L36.35,18.78L36.5,20.53L36.75,19.38L36.8,18.1L37.29,21.43L37.64,20.96L37.69,21.82L38.19,24.95L38.44,24.21L38.49,22.25L38.88,22.7L39.48,19.51L39.53,19.37L39.73,20.24L39.78,19.16L39.83,18.76L39.88,16.83L40.17,19.89L40.57,18.36L40.62,18.7L40.67,19.27L41.02,16.43L41.12,17.42L41.17,16.31L41.81,15.57L42.01,19.33L42.06,19.71L42.16,17.41L42.66,20.62L42.71,21.03L43.45,26.84L43.65,24.08L43.7,23.88L43.95,22.68L44.15,25.42L44.5,24.66L44.55,24.08L44.74,25.56L44.89,23.18L45.34,24.82L45.39,24.61L45.44,24.77L45.49,24.06L45.59,24.2L45.64,22.44L45.79,20.55L46.18,22.62L46.23,22.32L46.28,22.38L46.33,22.19L46.43,23.56L46.53,22.5L46.58,24.93L46.73,24.78L47.03,28.15L47.52,27.4L47.57,26.27L48.42,23.76L48.47,24.14L48.62,26.1L49.01,23.1L49.21,24.79L49.26,24.6L50.21,19.39L50.26,20.21L50.6,21.26L50.9,19.15L51,19.65L51.05,20.38L51.25,21.63L51.65,19.98L51.7,20.29L51.75,19.02L51.8,18.46L52.24,21.44L52.34,20.58L52.39,21.39L53.29,24.69L53.33,24.4L54.23,27.31L54.28,26.67L54.53,25.88L54.73,27.03L54.82,26.55L54.87,25.21L55.07,25.71L55.17,23.87L55.47,25.09L55.52,24.32L55.62,26.09L55.92,24.16L56.12,24.26L56.17,23.55L56.22,23.37L56.41,25.15L56.46,25.87L57.16,23.63L57.21,24.87L57.26,25.38L57.36,24.02L57.75,27.6L57.9,26.01L57.95,26.94L58.65,24.95L58.75,25.29L58.8,25.92L59.24,28.59L59.54,26.65L59.59,25.54L59.69,24.99L59.84,26.94L60.29,26.27L60.34,24.31L60.39,25.92L61.13,25.62L61.18,24.79L61.83,20.77L62.03,22.31L62.07,23.27L62.42,21.06L62.67,24.14L62.72,24.4L62.92,26.05L63.42,24.31L63.47,24.95L63.52,24.98L63.66,23.83L64.16,27.14L64.21,27.52L64.66,25.66L64.96,26.26L65,26.5L66.15,30.72L66.2,30.68L66.59,28.08L67.04,29.42L67.09,29.71L67.19,30.72L67.24,29.54L67.29,27.76L67.59,30.34L68.13,29.93L68.18,28.51L68.23,28.25L68.43,30.24L68.48,31.01L69.28,27.89L69.33,28.91L69.72,31.21L70.07,29.08L70.12,29.55L70.27,29.85L70.67,27.72L70.91,28.5L70.96,28.05L71.31,30.61L71.91,30.02L71.96,29.54L72.4,32.68L72.9,31.96L72.95,31.32L73.1,30.64L73.5,34.07L73.6,32L73.65,32.01L74.19,33.75L74.24,32.91L74.29,32.73L74.49,30.54L75.09,31.55L75.14,31.58L76.23,35.63L76.38,33.75L76.43,33.19L76.92,31.26L77.17,32.53L77.22,33.2L78.02,30L78.12,30.57L78.16,30.81L78.86,32.46L78.91,32.24L78.96,31.23L79.75,34.93L80.05,33.11L80.1,31.87L80.2,31.26L80.55,33.63L80.65,32.6L80.7,32.93L80.9,32.29L81.59,34.33L81.64,33.81L81.89,32.14L82.44,32.98L82.49,33.22L82.73,35.33L82.98,32.8L83.13,33.13L83.18,32.3L83.38,31L83.63,32.63L83.73,30.96L83.78,31.03L83.83,31.36L84.22,29.32L84.27,29.64L84.32,29.14L84.37,28.6L84.72,31.67L84.92,30.45L84.97,30.57L85.86,33.39L85.96,32.51L86.01,32.54L86.31,34.23L86.56,32.39L86.61,30.99L86.76,29.14L87.1,31.29L87.25,31.12L87.3,31.62L87.5,31.41L88.35,33.7L88.39,33.37L88.49,33.54L88.74,32.36L88.89,33.27L88.94,32.07L88.99,31.49L89.49,33.56L89.59,33.06L89.64,32.91L89.93,33.68L90.23,31.57L90.38,32.49L90.43,32.56L90.48,31.33L91.08,34L91.13,34.16L92.47,41.74L92.52,41.57L92.57,41.09L92.96,38.54L93.31,40.94L93.36,41.26L93.46,40.1L93.76,41.9L94.11,40.63L94.16,41.05L94.3,40.34L95.15,42.04L95.2,41.28L95.3,40.86L95.65,42.59L95.69,42.85L95.79,42.58L96.34,43.8L96.39,43.41L96.44,42.78L96.64,44.35L97.28,43.57L97.33,43.24L97.83,39.16L98.18,40.67L98.23,40.97L98.62,39.79L98.72,41.38L98.97,41.08L99.02,41.35L99.22,42.54L99.47,40.26L99.62,40.38L99.67,40.54L99.72,40.18L100.31,41.34L100.36,41.38L100.76,41.79L100.81,42.21L100.91,42.4L101.06,40.58L101.11,39.95L101.26,40.74L101.8,39.3L101.85,39.3L102.05,38.06L102.55,39.44L102.6,39.45L103.54,43.72L103.84,42.05L103.89,41.89L104.14,40.46L104.48,42.36L104.63,40.87L104.68,41.23L105.38,43.12L105.68,42.72L105.73,42.53L106.07,44.64L106.47,42.93L106.52,42.96L106.67,42.64L107.02,43.19L107.07,42.26L107.81,44.52L107.86,44.75L108.16,44.26L108.56,45.48L108.61,44.5L109.25,46.58L109.55,46.17L109.6,45.86L109.95,46.36L110,45.8L110.05,45.2L110.94,43.5L110.99,43.69L111.04,43.93L111.09,43.77L111.29,44.67L111.54,44.61L111.59,44.99L111.73,44.76L112.28,46.21L112.33,45.14L112.38,44.93L112.83,45.52L112.98,45.4L113.03,44.32L113.22,45.33L113.57,44.2L113.77,44.51L113.82,44.28L113.87,43.3L114.22,44.99L114.52,44.79L114.57,44.87L114.76,43.77L115.21,45.27L115.31,44.54L115.36,44.76L115.46,44.3L115.66,45.68L116.01,45.01L116.06,45.08L116.9,48.36L117,46.9L117.05,46.7L117.59,48.51L117.69,47.89L117.74,47.13L118.14,48.09L118.49,47.81L118.54,46.99L118.89,45.01L119.28,46.78L119.33,46.81L119.98,49.23L120.18,48.39L120.23,48.41L120.28,48.61L120.43,47.17L120.67,47.36L120.72,47.21L121.92,51.05L121.96,51.42L122.66,53.12L122.81,52.54L122.86,51.91L122.91,51.24L123.45,52.3L123.55,52.02L123.6,52.08L124.35,53.47L124.45,53.28L124.5,53.38L124.8,52.91L125.19,55.02L125.44,54.13L125.49,53.01L125.64,53.95L125.94,52.39L126.24,53.11L126.29,53.2L126.34,53.48L126.58,50.82L126.83,52.06L126.88,52.23L126.98,51.64L127.58,52.54L127.63,52.68L128.72,56.39L128.77,56.18L128.92,54.8L129.41,57.2L129.46,57.2L129.56,56.98L129.81,58.04L129.86,58.35L130.01,57.25L130.36,58.54L130.66,57.66L130.71,57.75L131.5,58.85L131.65,58.66L131.7,58.71L132.15,59.66L132.39,59L132.44,58.33L133.59,61.51L133.64,60.85L133.68,60.65L133.88,61.29L134.08,60.03L134.38,60.8L134.43,60.06L134.78,58.78L135.17,59.99L135.22,60.02L135.82,62.5L136.12,62.12L136.17,60.62L136.52,62.41L136.66,60.33L136.81,60.59L136.86,60.24L136.96,59.85L137.41,61.1L137.46,61.24L139.89,65.71L139.94,64.92L140.49,63.17L140.79,64.23L140.84,64.29L141.23,65.16L141.43,63.75L141.48,63.8L141.88,64.56L141.98,64.35L142.03,63.3L142.33,63.03L142.97,64.8L143.02,64.58L143.07,64.26L143.96,67.22L144.21,67.06L144.26,66.43L144.31,65.73L144.61,66.68L144.91,66.68L144.96,67.21L145.16,67.69L145.26,66.39L145.6,66.98L145.65,66.38L146.84,68.1L146.89,68.56L147.49,67.11L147.74,67.44L147.79,67.65L147.84,66.82L148.53,67.79L148.58,67.92L148.88,67.21L149.13,68.18L149.28,68L149.33,67.38L150.07,69.14L150.37,68.75L150.42,68.92L151.41,70.98L151.46,71.12L152.36,73.2L152.41,72.61L152.46,71.87L153.7,73.94L153.75,72.93L153.8,72.29L154.39,73.85L154.44,74L154.74,74.94L154.79,74.54L154.84,74.01L155.29,75.26L155.39,74.54L155.44,73.85L156.18,75.07L156.33,74.84L156.38,74.21L157.12,72.41L157.32,72.87L157.37,73.12L157.47,72.45L158.02,73.75L158.07,73.75L159.31,76.64L159.36,75.87L160.05,78.35L160.3,78L160.35,78.26L160.5,77.53L160.75,78.45L161,78.1L161.05,77.88L161.1,78.3L161.35,76.82L161.74,77.56L161.79,77.7L162.09,78.12L162.14,77.6L162.54,77.71L162.59,77.75L162.88,77.88L163.48,76.07L163.58,76.44L163.63,76.46L163.73,76.63L163.93,75.79L164.13,75.92L164.18,75.15L164.57,75.62L164.62,74.96L164.82,75.28L164.87,74.76L164.97,75.04L165.17,73.54L165.42,74.11L165.47,74.19L166.06,74.31L166.21,73.07L166.26,73.24L166.31,73.68L166.61,72.64L166.96,73.53L167.01,73.68L169.94,78.41L169.99,78.67L171.72,81.42L171.77,81.56L172.07,81.37L172.47,81.77L172.52,81.83L173.76,83.43L173.81,83.33L174.26,82.13L174.55,83.36L174.6,83.39L175.15,81.72L175.5,82.43L175.55,82.43L176.34,79.7L176.39,79.71L176.44,79.96L177.44,82.18L177.58,81.62L177.63,80.98L178.63,82.13L178.68,82.21L180.02,84.91L180.07,84.91L182.65,88.85L182.85,88.38L182.9,88.38L184.44,89.54L184.49,89.75L185.58,91.07L185.63,91.08L185.98,91.45L186.03,90.75L186.08,90.96L186.13,90.44L187.96,91.64L188.01,91.05L189.25,91.62L189.3,90.92L191.29,93.57L191.34,93.77L192.33,94.91L192.38,94.37L192.43,94.64L192.78,93.74L193.08,94.05L193.13,94.19L193.18,94.02L193.67,94.83L193.72,94.88L195.21,97.26L195.46,96.72L195.51,96.04L195.56,95.5L196.21,96.14L196.26,96.23L197.9,97.99L197.94,97.76L197.99,97.76L198.19,98.06L198.49,97.48L198.59,97.49L198.64,97.09L198.69,96.75L199.29,97.58L199.34,97.74L201.02,99.49L201.07,99.2L201.27,98.85L202.66,100.6L202.71,100.11L202.86,99.98L203.01,100.37L203.26,100.52L203.31,100.59L204.95,103.1L205,102.95L205.84,103.99L206.04,103.84L206.09,103.07L206.93,104.75L206.98,104.85L207.03,104.5L207.38,105.12L207.68,105.06L207.73,105.12L209.52,108.16L209.57,107.58L210.91,108.57L210.96,108.38L211.01,108.41L211.85,109.83L212,109.66L212.05,109.67L213.09,111.47L213.14,111.51L214.33,112.5L214.38,112.8L214.43,112.62L214.93,113.38L214.98,113.45L215.92,114.86L215.97,114.75L216.02,114.77L217.06,115.8L217.11,116.02L221.58,120.72L221.63,121.15L223.22,122.26L223.27,122.26L227.14,124.98L227.19,124.41L228.44,124.5L228.49,124.31L232.66,128.82L232.71,128.33L234.25,129.74L234.3,129.81L236.93,132.53L236.98,132.63L237.18,132.12L237.67,132.7L237.72,132.88L240.4,135.14L240.45,135.14L241.6,135.93L241.65,136.06L242.69,136.59L242.74,135.88L247.21,140.5L247.26,140.72L248.25,141.71L248.3,141.78L255.75,148.04L255.8,148.06L257.98,149.41L258.03,149.57L258.83,150.24L258.88,150.39L265.04,154.75L265.08,154.75L266.08,155.62L266.13,155.76L267.67,156.67L267.72,156.67L269.46,158.16L269.5,158.34L274.82,161.71L274.87,161.95L276.71,162.78L276.76,162.86L278.39,163.47L278.44,163.47L279.93,164.16L279.98,164.28L281.82,165.01L281.87,165.04L286.14,167.53L286.19,167.53L287.63,168.4L287.68,168.4L289.02,169.14L289.07,169.19L290.01,169.97L290.06,170.07L292.05,170.92L292.1,171.03L293.49,172.5L293.54,172.69L295.58,173.87L295.63,173.87L312.91,180.57L312.96,180.57L314.84,181.29L314.89,181.35L317.03,182.09L317.08,182.13L320.56,182.98L320.6,183.15L325.67,184.57L325.72,184.8L327.41,185.77L327.46,185.77L329.84,186.66L329.89,186.66L331.83,187.4L331.88,187.45L334.31,188.18L334.36,188.22L335.25,188.54L335.3,188.54L338.23,189.39L338.28,189.55L340.72,190.26L340.77,190.31L343.25,191.01L343.3,191.07L351.74,194.19L351.79,194.19L354.42,194.94L354.47,195.09L357.25,195.8L357.3,195.87L361.38,196.9L361.43,196.9L364.6,198.32L364.65,198.32L370.56,199.41L370.61,199.53L375.88,200.28L375.93,200.29L380.05,200.99L380.1,201.17L395.94,205.72L395.99,205.72L401.45,206.45L401.5,206.52L403.98,207.16L404.03,207.3L408.7,207.78L408.75,207.78L411.78,208.52L411.83,208.56L413.97,209.47L414.02,209.47L416.8,209.86L416.85,209.86L418.68,210.29L418.73,210.29L422.71,210.98L422.76,211.09L428.62,212.53L428.66,212.53L433.38,213.21L433.43,213.4L438.89,214.09L438.94,214.09L442.37,214.81L442.42,214.86L446.74,215.58L446.79,215.63L448.38,215.65" style="vector-effect: non-scaling-stroke; fill: none; stroke: rgb(99, 110, 250); stroke-opacity: 1; stroke-width: 2px; opacity: 1;"/></g><g class="points"/><g class="text"/></g></g></g><g class="overplot"><g class="xy2" transform="translate(78,20)" clip-path="url(#clip4dcf7dxy2plot)"><g class="scatterlayer mlayer"><g class="trace scatter tracec66d1e" style="stroke-miterlimit: 2; opacity: 1;"><g class="fills"/><g class="errorbars"/><g class="lines"><path class="js-line" d="M0,11.35L10.43,50.07L10.48,50.24L21.55,83.32L21.6,83.45L30.14,104.35L30.19,104.47L40.42,125.18L40.47,125.27L50.6,141.96L50.65,142.03L59.89,154.54L59.94,154.6L71.31,167.11L71.36,167.15L80.9,175.63L80.95,175.67L89.44,181.96L89.49,182L102.35,189.69L102.4,189.71L114.66,195.4L114.71,195.42L130.51,200.94L130.56,200.95L142.08,204L142.13,204.01L155.09,206.69L155.14,206.7L171.62,209.24L171.67,209.24L196.01,211.74L196.06,211.74L242.14,214.12L242.19,214.12L260.62,214.6L260.67,214.6L282.12,214.98L282.17,214.98L448.38,215.65" style="vector-effect: non-scaling-stroke; fill: none; stroke: rgb(239, 85, 59); stroke-opacity: 1; stroke-width: 2px; opacity: 1;"/></g><g class="points"/><g class="text"/></g></g></g></g><path class="xlines-above crisp" d="M0,0" style="fill: none;"/><path class="ylines-above crisp" d="M0,0" style="fill: none;"/><g class="overlines-above"><path class="xy2-x crisp" d="M0,0" style="fill: none;"/><path class="xy2-y crisp" d="M0,0" style="fill: none;"/></g><g class="xaxislayer-above"><g class="xtick"><text text-anchor="middle" x="0" y="260" transform="translate(78,0)" style="font-family: 'Open Sans', verdana, arial, sans-serif; font-size: 12px; fill: rgb(42, 63, 95); fill-opacity: 1; white-space: pre; opacity: 1;">0</text></g><g class="xtick"><text text-anchor="middle" x="0" y="260" style="font-family: 'Open Sans', verdana, arial, sans-serif; font-size: 12px; fill: rgb(42, 63, 95); fill-opacity: 1; white-space: pre; opacity: 1;" transform="translate(177.32,0)">2000</text></g><g class="xtick"><text text-anchor="middle" x="0" y="260" style="font-family: 'Open Sans', verdana, arial, sans-serif; font-size: 12px; fill: rgb(42, 63, 95); fill-opacity: 1; white-space: pre; opacity: 1;" transform="translate(276.64,0)">4000</text></g><g class="xtick"><text text-anchor="middle" x="0" y="260" style="font-family: 'Open Sans', verdana, arial, sans-serif; font-size: 12px; fill: rgb(42, 63, 95); fill-opacity: 1; white-space: pre; opacity: 1;" transform="translate(375.96,0)">6000</text></g><g class="xtick"><text text-anchor="middle" x="0" y="260" style="font-family: 'Open Sans', verdana, arial, sans-serif; font-size: 12px; fill: rgb(42, 63, 95); fill-opacity: 1; white-space: pre; opacity: 1;" transform="translate(475.28,0)">8000</text></g></g><g class="yaxislayer-above"><g class="ytick"><text text-anchor="end" x="77" y="4.199999999999999" transform="translate(0,229.23)" style="font-family: 'Open Sans', verdana, arial, sans-serif; font-size: 12px; fill: rgb(42, 63, 95); fill-opacity: 1; white-space: pre; opacity: 1;">−250k</text></g><g class="ytick"><text text-anchor="end" x="77" y="4.199999999999999" style="font-family: 'Open Sans', verdana, arial, sans-serif; font-size: 12px; fill: rgb(42, 63, 95); fill-opacity: 1; white-space: pre; opacity: 1;" transform="translate(0,191.15)">−200k</text></g><g class="ytick"><text text-anchor="end" x="77" y="4.199999999999999" style="font-family: 'Open Sans', verdana, arial, sans-serif; font-size: 12px; fill: rgb(42, 63, 95); fill-opacity: 1; white-space: pre; opacity: 1;" transform="translate(0,153.07)">−150k</text></g><g class="ytick"><text text-anchor="end" x="77" y="4.199999999999999" style="font-family: 'Open Sans', verdana, arial, sans-serif; font-size: 12px; fill: rgb(42, 63, 95); fill-opacity: 1; white-space: pre; opacity: 1;" transform="translate(0,115)">−100k</text></g><g class="ytick"><text text-anchor="end" x="77" y="4.199999999999999" style="font-family: 'Open Sans', verdana, arial, sans-serif; font-size: 12px; fill: rgb(42, 63, 95); fill-opacity: 1; white-space: pre; opacity: 1;" transform="translate(0,76.92)">−50k</text></g><g class="ytick"><text text-anchor="end" x="77" y="4.199999999999999" style="font-family: 'Open Sans', verdana, arial, sans-serif; font-size: 12px; fill: rgb(42, 63, 95); fill-opacity: 1; white-space: pre; opacity: 1;" transform="translate(0,38.84)">0</text></g></g><g class="overaxes-above"><g class="xy2-x"/><g class="xy2-y"><g class="y2tick"><text text-anchor="start" x="527.38" y="4.199999999999999" transform="translate(0,235.67)" style="font-family: 'Open Sans', verdana, arial, sans-serif; font-size: 12px; fill: rgb(42, 63, 95); fill-opacity: 1; white-space: pre; opacity: 1;">0</text></g><g class="y2tick"><text text-anchor="start" x="527.38" y="4.199999999999999" style="font-family: 'Open Sans', verdana, arial, sans-serif; font-size: 12px; fill: rgb(42, 63, 95); fill-opacity: 1; white-space: pre; opacity: 1;" transform="translate(0,184.59)">500</text></g><g class="y2tick"><text text-anchor="start" x="527.38" y="4.199999999999999" style="font-family: 'Open Sans', verdana, arial, sans-serif; font-size: 12px; fill: rgb(42, 63, 95); fill-opacity: 1; white-space: pre; opacity: 1;" transform="translate(0,133.51)">1000</text></g><g class="y2tick"><text text-anchor="start" x="527.38" y="4.199999999999999" style="font-family: 'Open Sans', verdana, arial, sans-serif; font-size: 12px; fill: rgb(42, 63, 95); fill-opacity: 1; white-space: pre; opacity: 1;" transform="translate(0,82.43)">1500</text></g><g class="y2tick"><text text-anchor="start" x="527.38" y="4.199999999999999" style="font-family: 'Open Sans', verdana, arial, sans-serif; font-size: 12px; fill: rgb(42, 63, 95); fill-opacity: 1; white-space: pre; opacity: 1;" transform="translate(0,31.35)">2000</text></g></g></g></g><g class="subplot xy2"/></g><g class="polarlayer"/><g class="smithlayer"/><g class="ternarylayer"/><g class="geolayer"/><g class="funnelarealayer"/><g class="pielayer"/><g class="iciclelayer"/><g class="treemaplayer"/><g class="sunburstlayer"/><g class="glimages"/><defs id="topdefs-4dcf7d"><g class="clips"/><clipPath id="legend4dcf7d"><rect width="123" height="48" x="0" y="0"/></clipPath></defs><g class="layer-above"><g class="imagelayer"/><g class="shapelayer"/></g><g class="infolayer"><g class="legend" pointer-events="all" transform="translate(564.54,20)"><rect class="bg" shape-rendering="crispEdges" width="123" height="48" x="0" y="0" style="stroke: rgb(68, 68, 68); stroke-opacity: 1; fill: rgb(255, 255, 255); fill-opacity: 1; stroke-width: 0px;"/><g class="scrollbox" transform="" clip-path="url(#legend4dcf7d)"><g class="groups"><g class="traces" transform="translate(0,14.5)" style="opacity: 1;"><text class="legendtext" text-anchor="start" x="40" y="4.680000000000001" style="font-family: 'Open Sans', verdana, arial, sans-serif; font-size: 12px; fill: rgb(42, 63, 95); fill-opacity: 1; white-space: pre;">Cost</text><g class="layers" style="opacity: 1;"><g class="legendfill"/><g class="legendlines"><path class="js-line" d="M5,0h30" style="fill: none; stroke: rgb(99, 110, 250); stroke-opacity: 1; stroke-width: 2px;"/></g><g class="legendsymbols"><g class="legendpoints"/></g></g><rect class="legendtoggle" x="0" y="-9.5" width="117.265625" height="19" style="fill: rgb(0, 0, 0); fill-opacity: 0;"/></g><g class="traces" transform="translate(0,33.5)" style="opacity: 1;"><text class="legendtext" text-anchor="start" x="40" y="4.680000000000001" style="font-family: 'Open Sans', verdana, arial, sans-serif; font-size: 12px; fill: rgb(42, 63, 95); fill-opacity: 1; white-space: pre;">Temperature</text><g class="layers" style="opacity: 1;"><g class="legendfill"/><g class="legendlines"><path class="js-line" d="M5,0h30" style="fill: none; stroke: rgb(239, 85, 59); stroke-opacity: 1; stroke-width: 2px;"/></g><g class="legendsymbols"><g class="legendpoints"/></g></g><rect class="legendtoggle" x="0" y="-9.5" width="117.265625" height="19" style="fill: rgb(0, 0, 0); fill-opacity: 0;"/></g></g></g><rect class="scrollbar" rx="20" ry="3" width="0" height="0" x="0" y="0" style="fill: rgb(128, 139, 164); fill-opacity: 1;"/></g><g class="g-gtitle"/><g class="g-xtitle"><text class="xtitle" x="302.19" y="287.8" text-anchor="middle" style="font-family: 'Open Sans', verdana, arial, sans-serif; font-size: 14px; fill: rgb(42, 63, 95); opacity: 1; font-weight: normal; white-space: pre;">Iterations</text></g><g class="g-ytitle" transform="translate(1.6123046875,0)"><text class="ytitle" transform="rotate(-90,12.387500000000003,133.5)" x="12.387500000000003" y="133.5" text-anchor="middle" style="font-family: 'Open Sans', verdana, arial, sans-serif; font-size: 14px; fill: rgb(42, 63, 95); opacity: 1; font-weight: normal; white-space: pre;">Cost</text></g><g class="g-y2title"><text class="y2title" transform="rotate(-90,583.08125,133.5)" x="583.08125" y="133.5" text-anchor="middle" style="font-family: 'Open Sans', verdana, arial, sans-serif; font-size: 14px; fill: rgb(42, 63, 95); opacity: 1; font-weight: normal; white-space: pre;">Temperature</text></g></g></svg>