<svg class="main-svg" xmlns="http://www.w3.org/2000/svg" xmlns:xlink="http://www.w3.org/1999/xlink" width="700" height="300" style="" viewBox="0 0 700 300"><rect x="0" y="0" width="700" height="300" style="fill: rgb(255, 255, 255); fill-opacity: 1;"/><defs id="defs-3721c0"><g class="clips"><clipPath id="clip3721c0xyplot" class="plotclip"><rect width="451.2" height="227"/></clipPath><clipPath id="clip3721c0xy2plot" class="plotclip"><rect width="451.2" height="227"/></clipPath><clipPath class="axesclip" id="clip3721c0x"><rect x="75" y="0" width="451.2" height="300"/></clipPath><clipPath class="axesclip" id="clip3721c0y"><rect x="0" y="20" width="700" height="227"/></clipPath><clipPath class="axesclip" id="clip3721c0xy"><rect x="75" y="20" width="451.2" height="227"/></clipPath><clipPath class="axesclip" id="clip3721c0y2"><rect x="0" y="20" width="700" height="227"/></clipPath><clipPath class="axesclip" id="clip3721c0xy2"><rect x="75" y="20" width="451.2" height="227"/></clipPath></g><g class="gradients"/><g class="patterns"/></defs><g class="bglayer"><rect class="bg" x="75" y="20" width="451.2" height="227" style="fill: rgb(229, 236, 246); fill-opacity: 1; stroke-width: 0;"/></g><g class="layer-below"><g class="imagelayer"/><g class="shapelayer"/></g><g class="cartesianlayer"><g class="subplot xy"><g class="layer-subplot"><g class="shapelayer"/><g class="imagelayer"/></g><g class="gridlayer"><g class="x"><path class="xgrid crisp" transform="translate(174.94,0)" d="M0,20v227" style="stroke: rgb(255, 255, 255); stroke-opacity: 1; stroke-width: 1px;"/><path class="xgrid crisp" transform="translate(274.89,0)" d="M0,20v227" style="stroke: rgb(255, 255, 255); stroke-opacity: 1; stroke-width: 1px;"/><path class="xgrid crisp" transform="translate(374.83,0)" d="M0,20v227" style="stroke: rgb(255, 255, 255); stroke-opacity: 1; stroke-width: 1px;"/><path class="xgrid crisp" transform="translate(474.78,0)" d="M0,20v227" style="stroke: rgb(255, 255, 255); stroke-opacity: 1; stroke-width: 1px;"/></g><g class="y"><path class="ygrid crisp" transform="translate(0,224.46)" d="M75,0h451.2" style="stroke: rgb(255, 255, 255); stroke-opacity: 1; stroke-width: 1px;"/><path class="ygrid crisp" transform="translate(0,175.44)" d="M75,0h451.2" style="stroke: rgb(255, 255, 255); stroke-opacity: 1; stroke-width: 1px;"/><path class="ygrid crisp" transform="translate(0,126.43)" d="M75,0h451.2" style="stroke: rgb(255, 255, 255); stroke-opacity: 1; stroke-width: 1px;"/><path class="ygrid crisp" transform="translate(0,77.41)" d="M75,0h451.2" style="stroke: rgb(255, 255, 255); stroke-opacity: 1; stroke-width: 1px;"/><path class="ygrid crisp" transform="translate(0,28.4)" d="M75,0h451.2" style="stroke: rgb(255, 255, 255); stroke-opacity: 1; stroke-width: 1px;"/></g><g class="y2"><path class="y2grid crisp" transform="translate(0,184.59)" d="M75,0h451.2" style="stroke: rgb(255, 255, 255); stroke-opacity: 1; stroke-width: 1px;"/><path class="y2grid crisp" transform="translate(0,133.51)" d="M75,0h451.2" style="stroke: rgb(255, 255, 255); stroke-opacity: 1; stroke-width: 1px;"/><path class="y2grid crisp" transform="translate(0,82.43)" d="M75,0h451.2" style="stroke: rgb(255, 255, 255); stroke-opacity: 1; stroke-width: 1px;"/><path class="y2grid crisp" transform="translate(0,31.35)" d="M75,0h451.2" style="stroke: rgb(255, 255, 255); stroke-opacity: 1; stroke-width: 1px;"/></g></g><g class="zerolinelayer"><path class="xzl zl crisp" transform="translate(75,0)" d="M0,20v227" style="stroke: rgb(255, 255, 255); stroke-opacity: 1; stroke-width: 2px;"/><path class="y2zl zl crisp" transform="translate(0,235.67)" d="M75,0h451.2" style="stroke: rgb(255, 255, 255); stroke-opacity: 1; stroke-width: 2px;"/></g><path class="xlines-below"/><path class="ylines-below"/><g class="overlines-below"><path class="xy2-x"/><path class="xy2-y"/></g><g class="xaxislayer-below"/><g class="yaxislayer-below"/><g class="overaxes-below"><g class="xy2-x"/><g class="xy2-y"/></g><g class="plot" transform="translate(75,20)" clip-path="url(#clip3721c0xyplot)"><g class="scatterlayer mlayer"><g class="trace scatter trace62c18f" style="stroke-miterlimit: 2; opacity: 1;"><g class="fills"/><g class="errorbars"/><g class="lines"><path class="js-line" d="M0,19.31L0.1,25.58L0.75,21.95L0.8,21.9L0.95,26.67L1.25,16.74L1.35,19.02L1.4,17.93L1.5,13.17L1.9,21.66L2.15,15.63L2.2,16.53L2.25,16.81L2.3,13.78L2.35,12.36L3.05,17.96L3.1,16.04L3.15,15.22L3.5,13.49L4.05,23.27L4.1,19.52L4.25,17.26L4.9,23.74L4.95,23.28L5,21.76L5.35,17.01L5.75,18.86L5.8,21.3L5.85,20.03L6.1,27.24L6.3,25.85L6.35,26.69L6.55,30.39L6.95,19.07L7,17.27L7.1,17.16L7.6,22.78L7.9,20.5L7.95,19.38L8.1,20.52L8.35,12.87L8.75,15.89L8.8,17.88L8.85,16.66L9.14,22.81L9.49,18.13L9.54,19.03L9.69,21.79L9.79,18.94L9.84,18.94L9.89,18.12L9.94,15.76L10.49,22.43L10.54,25.04L10.64,27.2L10.99,16.77L11.19,22.66L11.24,21.77L11.49,24.29L11.59,17.76L11.84,21.75L11.89,23.31L12.74,12.34L12.79,13.17L12.84,15.8L13.24,11.35L13.44,15.91L13.59,15.65L13.64,15.07L13.84,13.59L13.99,19.33L14.09,17.76L14.14,19.96L14.29,23.21L14.69,15.82L14.74,17.16L14.79,15.2L14.99,18.3L15.19,14.67L15.24,13.3L15.29,12.59L15.54,16.34L15.79,15.69L15.84,16.54L16.09,16.82L16.24,13.06L16.34,14.11L16.39,17.72L16.64,24.02L17.09,20.87L17.14,18.71L17.69,25.81L17.89,21.52L17.94,20.48L18.19,21.52L18.69,17.09L18.74,17.81L18.79,19.99L18.99,22.69L19.34,19.63L19.39,23.03L19.69,20.06L20.09,25.36L20.14,24.11L20.19,23.59L21.09,14.66L21.19,18.77L21.24,19.18L21.64,21.86L22.09,14.65L22.19,16.14L22.24,17.28L22.49,19.9L22.99,14.41L23.09,14.59L23.14,17.21L23.29,11.42L23.64,19.2L23.89,12.03L23.94,14.52L24.74,23.11L24.94,22.83L24.99,22.16L25.29,20.17L25.34,21.83L25.59,17.34L25.99,23.02L26.04,20.55L26.34,20.79L26.64,15.16L26.79,16.57L26.84,19.35L27.53,13.47L27.68,16.61L27.73,18.76L27.93,22.53L28.48,19.37L28.53,19.15L28.58,19.48L28.88,16.61L28.93,16.69L29.23,12.45L29.63,18.83L29.68,16.53L29.78,18.3L30.18,13.83L30.38,14.99L30.43,17.07L30.48,16.32L30.73,21.97L30.78,21.37L30.83,22.35L31.03,20.19L31.13,23.23L31.18,19.86L31.48,23.83L31.78,17.04L31.88,20.87L31.93,19.72L32.08,24.99L32.73,22.77L32.78,20.76L33.03,18.89L33.18,21.57L33.23,19.19L33.28,17.56L33.63,18.87L33.68,17.12L33.73,14.45L34.28,22.99L34.58,20.59L34.63,19.05L34.83,17.33L35.58,25.9L35.63,25.5L35.83,26.29L35.88,27.73L35.98,28.39L36.18,25.34L36.23,24.57L36.38,26.06L36.88,22.18L36.93,21.33L37.43,29.96L37.83,26.31L37.88,25.42L38.18,26.49L38.33,23.91L38.38,22.02L38.58,16.23L39.13,19.68L39.18,20.05L39.28,22.51L39.73,15.33L39.83,16.19L39.88,16.6L39.93,15.73L40.33,21.73L40.38,20.52L40.43,21.31L40.88,18.21L41.03,19.48L41.08,21.27L41.13,22.38L41.38,18.89L41.63,21.03L41.68,16.39L41.83,14.94L42.18,19.29L42.23,20.55L42.28,20.21L42.48,23.25L42.53,24.65L42.63,21.29L43.03,30.55L43.18,28.87L43.23,30.55L43.33,34.14L43.63,28.94L43.98,31.44L44.03,31.71L44.63,21.88L44.83,27.4L44.88,27.12L45.42,21.06L45.67,25.32L45.72,27.82L46.02,26.71L46.12,30.24L46.42,29.08L46.47,26.5L46.67,27.85L47.37,23L47.42,24.32L47.47,24.97L47.62,20.42L48.07,23.6L48.12,24.6L48.42,27.13L48.47,26.33L48.52,24.46L48.72,23.05L49.02,26.55L49.07,29.19L49.27,25.33L49.42,28.62L49.47,29.56L49.72,30.31L50.02,27.9L50.22,29.42L50.27,29.64L50.47,30.95L50.52,31.98L50.92,32.37L50.97,30.59L51.07,30.68L51.12,27.95L51.27,30.6L51.77,26.02L51.82,23.87L52.07,23.32L52.57,28.46L52.67,27.23L52.72,28.3L53.27,19.49L53.62,22.26L53.67,23.83L53.82,22.65L54.02,26.66L54.07,27.21L54.47,30.23L54.67,26.23L54.72,23.37L54.82,24.18L54.87,22.57L54.92,21.11L54.97,19.15L55.52,26.62L55.57,27.06L55.67,27.67L55.77,24.99L56.07,25.64L56.12,25.71L56.27,29.82L56.67,23.66L56.82,25.53L56.87,24.14L56.97,21.39L57.47,25.73L57.52,26.09L58.07,34.71L58.47,30.68L58.52,29.5L58.67,29.21L58.92,32.2L59.02,30.24L59.07,29.35L59.37,25.33L59.57,28.57L59.62,28.98L59.97,31.15L60.37,26.7L60.47,27.6L60.52,28.03L61.67,34.73L61.72,33.13L61.92,33.73L62.17,30.93L62.37,33.4L62.42,34.25L62.67,39.1L63.31,37.37L63.36,35.43L63.66,35.74L64.01,32.87L64.21,34.38L64.26,34.48L65.06,38.07L65.11,37.4L65.31,37.81L66.01,32.6L66.06,33.16L66.11,33.61L66.26,29.48L66.81,33.28L66.86,34.77L66.91,36.24L67.31,33.47L67.61,35.62L67.66,34.07L67.81,31.67L68.06,34.91L68.36,34.61L68.41,34.62L68.71,33.53L69.06,37.56L69.26,36.21L69.31,34.67L69.91,39.15L70.01,36.68L70.06,34.46L70.31,35.76L70.66,33.41L70.76,33.86L70.81,34.23L71.06,36.57L71.26,29.33L71.31,30.55L71.36,28.67L71.66,27.06L71.96,30.08L72.01,31.29L72.06,30.52L72.36,32.45L72.71,31.04L72.76,31.39L72.81,33.12L72.91,28.93L73.46,31.07L73.51,30.57L74.36,35.73L74.71,34.93L74.76,33.24L75.81,39.98L75.86,37.53L76.21,37.73L76.26,39.18L76.41,38.56L76.66,40.64L76.71,41.2L76.91,42.76L77.06,40.43L77.26,41.14L77.31,38.66L77.51,39.21L77.66,38L77.76,38.22L77.81,37.02L78.41,33.45L78.56,35.83L78.61,36.71L78.71,36.59L79.56,42.99L79.66,40.56L79.71,39.57L80.46,45.04L80.66,41.9L80.71,41.13L80.81,41.84L81.25,39.72L81.3,38.72L82.1,41.62L82.15,40.73L82.3,40.09L83,43.56L83.05,43.08L83.45,37.27L83.9,38.98L83.95,39.44L84.15,38.59L84.35,41.29L84.6,39.84L84.65,40.24L85.5,43.86L85.55,42.17L85.6,40.29L86.35,44.37L86.45,43.67L86.5,44.16L86.7,43.11L87.5,50.4L87.8,49.07L87.85,48.53L87.95,49.51L88.25,46.27L88.45,47.7L88.5,45.76L88.85,43.37L89.15,47.1L89.2,46.14L89.25,46.15L89.4,43.8L89.75,46.19L90.1,44.09L90.15,43.8L90.45,45.79L90.5,43.64L90.7,41.91L92.2,48.89L92.25,47.97L92.3,47.67L92.45,47.5L93.25,52.34L93.35,50.77L93.4,49.82L93.95,46.49L94.15,48.59L94.2,49.56L94.4,49.93L94.6,48.38L94.85,49.82L94.9,50.08L95.45,51.65L95.6,50.16L95.65,49.96L96.65,53.91L96.7,52.21L97.15,54.34L97.55,53.28L97.6,53.35L98.8,59.86L99.05,58.82L99.1,58.15L99.49,59.97L99.64,58.25L99.69,57.19L99.99,56.34L100.14,59.14L100.49,57.96L100.54,56.78L100.59,56.09L101.09,58.82L101.14,59.04L101.19,59.27L101.29,56.94L101.34,57.05L101.39,55.7L101.64,56.94L101.74,54.64L101.79,52.4L102.24,54.67L102.59,54.56L102.64,53.14L103.09,51.8L103.24,53.44L103.39,53.04L103.44,52.55L103.69,54.02L104.09,51.9L104.19,52.57L104.24,52.28L104.39,52.1L104.89,54.62L105.04,53.13L105.09,52.83L105.89,59.03L105.99,58.42L106.04,56.9L106.89,60.56L106.94,59.81L106.99,59.18L107.24,61.02L107.54,58.58L107.59,58.69L107.64,58.07L107.84,56.73L108.39,57.57L108.44,58.18L108.64,56.97L109.14,59.63L109.19,58.57L109.24,57.64L109.49,56.62L111.19,63.44L111.24,62.46L112.04,64.35L112.09,63.79L113.24,68.02L113.29,66.59L113.44,67.07L113.49,65.38L113.99,66.75L114.04,66.24L114.09,66.7L114.34,64.84L114.64,64.83L114.69,63.76L114.79,63.9L114.84,62.43L114.99,62.12L115.59,63.79L115.94,63.51L115.99,62.71L116.19,64.44L116.59,62.29L116.64,62.55L116.69,61.54L117.33,65.65L117.63,65.22L117.68,65.77L117.73,63.59L118.28,68.35L118.38,67.37L118.43,67.27L118.68,68.81L118.93,66.41L119.08,67.03L119.13,67.04L119.28,67.49L119.38,65.78L119.43,65.94L119.48,65.1L119.63,65.27L119.68,64.06L120.43,66.55L120.48,65.25L120.53,64.83L120.93,63.72L121.38,67.06L121.43,67.91L122.08,68.89L122.13,67.69L123.78,74.39L123.83,73.79L124.23,75.12L124.43,73.2L124.78,74.77L124.83,73.37L124.88,73.57L125.03,71.67L125.08,70.82L125.93,67.22L126.13,68.16L126.18,68.49L126.38,66.96L126.78,68.86L126.93,67.89L126.98,68.11L127.53,70.9L127.93,69.91L127.98,68.87L129.03,73.62L129.08,73.65L130.63,77.32L130.88,76.48L130.93,76.08L132.28,80.19L132.33,78.67L133.18,80.98L133.23,79.83L133.28,78.4L133.58,80.97L133.98,79.38L134.03,79.92L134.68,77.54L134.83,78.55L134.88,78.72L135.03,79.11L135.08,77.47L137.22,82.74L137.27,83.24L138.32,84.42L138.37,84.43L138.97,88.24L139.32,87.23L139.37,85.81L139.67,85.52L140.17,87.45L140.22,86.36L140.27,86.48L140.37,85.68L140.82,87.54L140.92,86.43L140.97,86.97L141.27,87.92L141.52,86.24L141.57,86.58L141.62,86.34L142.97,90.23L143.07,89.65L143.12,88.94L143.72,91.25L143.82,91L143.87,89.96L144.57,88.59L144.67,88.8L144.72,89.03L144.87,85.65L145.47,87.35L145.52,87.42L145.62,86.72L146.02,88.8L146.07,89.01L146.52,88.73L147.07,91.38L147.12,90.79L147.47,89.5L147.87,90.33L147.92,90.47L148.37,92.75L148.57,90.91L148.62,90.06L149.67,92.4L149.72,92.44L149.87,92.68L149.97,91.06L150.02,90.45L150.22,89.95L150.87,91.63L150.97,90.77L151.02,90.23L151.77,87.74L151.97,88.25L152.02,88.45L153.27,91.61L153.32,91.11L153.37,90.8L156.21,97.69L156.26,97.19L157.86,101.45L157.91,100.66L157.96,100L158.56,98.66L158.76,99.61L158.81,99.7L160.61,102.53L160.66,102.63L161.16,103.19L161.21,102.22L161.41,102.7L161.46,102.72L161.56,102.98L161.61,101.39L161.96,102.64L162.01,102.68L162.06,103.05L162.26,101.42L162.71,102.47L162.76,102.5L163.76,104.2L163.81,102.91L164.71,104.8L164.76,104.8L165.31,103.51L165.51,104.19L165.56,104.3L166.41,107.22L166.46,107.51L167.51,110.12L167.56,109.33L168.26,110.78L168.31,109.88L168.66,111.11L168.76,109.39L168.81,108.06L169.11,107.74L169.61,109.03L169.66,108.4L169.71,108.44L171.01,110.57L171.11,110.18L171.16,109.14L171.26,108.38L171.8,109.99L171.9,109.18L171.95,109.19L172.3,108.95L173,111.21L173.1,111.1L173.15,111.16L173.55,112.67L173.65,110.85L173.85,111.23L173.9,110.61L174.65,111.37L174.7,110.77L174.75,109.68L175.05,110.5L175.45,109.52L175.5,109.58L175.55,109.96L177.4,113.41L177.45,113.97L177.8,114.62L177.85,113.66L179.45,117.85L179.5,118.05L180.45,119.82L180.55,119.73L180.6,118.45L182.05,121.82L182.1,121.94L185,126.41L185.05,125.9L185.1,125.17L185.7,126.56L185.75,126.1L185.8,126.2L186.4,124.24L186.7,124.56L186.75,124.56L186.95,125.21L187.35,123.77L187.4,123.98L187.45,124.01L187.65,123.96L188.25,125.56L188.4,124.83L188.45,124.83L189,125.41L189.35,124.91L189.4,124.93L189.79,124.49L190.54,126.52L190.59,126.19L191.59,126.83L191.64,125.86L193.79,129.96L193.84,130.26L193.89,129.28L194.34,130.44L194.59,129.71L194.64,129.79L194.79,130.26L194.94,129.17L195.14,129.43L195.19,128.41L196.89,130.92L196.94,130.41L197.04,130.06L197.64,130.52L197.69,130.6L199.19,133.08L199.24,132.7L199.29,132.46L200.79,135.8L200.84,134.9L200.89,134.07L200.94,133.5L201.59,134.66L201.64,134.92L203.19,136.81L203.24,136.98L205.14,138.97L205.19,138.39L205.89,139.66L206.14,139.03L206.19,138.46L206.29,138.64L206.54,137.72L206.59,137.76L206.64,136.5L207.34,137.53L207.49,137.24L207.54,136.78L208.23,138.4L208.53,137.74L208.58,136.76L208.73,136.33L209.18,137.22L209.23,137.33L210.33,138.94L210.38,138.94L212.53,141.02L212.58,140.22L215.43,143.92L215.48,144.53L217.73,147.52L217.83,146.87L217.88,146.87L219.18,148.21L219.23,147.34L219.43,146.92L219.83,147.79L219.88,147.86L220.68,148.64L220.73,147.81L220.93,146.65L221.48,147.82L221.53,147.84L224.43,151.63L224.48,151.07L225.28,152.09L225.33,151.53L225.38,151.12L226.27,152.37L226.32,152.6L227.87,154.04L227.92,152.99L230.12,155.41L230.17,155.47L231.92,156.66L231.97,156.96L232.37,157.24L232.42,156.59L232.67,156.83L232.72,156.83L234.52,158.64L234.57,158.66L234.72,157.54L235.32,157.83L235.37,158L237.52,160.87L237.57,160.96L238.77,161.87L238.82,161.97L242.82,164.42L242.87,164.43L243.12,163.95L243.57,164.59L243.62,164.64L244.81,165.78L244.86,166.18L246.31,166.89L246.36,166.94L248.46,167.82L248.51,168.06L250.11,168.9L250.16,168.9L256.36,172.89L256.41,173.06L267.05,178.27L267.1,178.27L268.6,179.21L268.65,179.28L269.8,179.8L269.85,179.8L271.3,180.61L271.35,180.61L272.5,181.43L272.55,181.43L274.85,182.16L274.9,182.21L276.2,182.96L276.25,183.02L278.1,183.91L278.15,184.03L288.24,188.02L288.29,188.02L290.44,188.73L290.49,188.78L293.39,189.47L293.44,189.58L294.84,190.3L294.89,190.34L299.73,191.98L299.78,192.07L301.53,192.8L301.58,192.83L303.73,193.75L303.78,193.86L305.23,194.41L305.28,194.41L307.13,194.56L307.18,194.56L314.43,196.15L314.48,196.23L317.42,196.94L317.47,197.01L325.77,198.79L325.82,198.99L328.72,199.74L328.77,199.75L333.52,200.44L333.57,200.56L337.36,201.75L337.41,201.75L342.26,202.46L342.31,202.52L349.41,204.06L349.46,204.27L371.34,208.15L371.39,208.15L376.34,208.88L376.39,208.92L383.59,209.99L383.64,210.14L390.58,210.87L390.63,210.96L392.28,211.17L392.33,211.17L405.13,211.92L405.18,212.01L411.12,212.75L411.17,212.78L412.87,213.02L412.92,213.02L420.22,213.73L420.27,213.78L432.71,214.5L432.76,214.54L447.6,215.26L447.65,215.32L451.2,215.65" style="vector-effect: non-scaling-stroke; fill: none; stroke: rgb(99, 110, 250); stroke-opacity: 1; stroke-width: 2px; opacity: 1;"/></g><g class="points"/><g class="text"/></g></g></g><g class="overplot"><g class="xy2" transform="translate(75,20)" clip-path="url(#clip3721c0xy2plot)"><g class="scatterlayer mlayer"><g class="trace scatter trace79117b" style="stroke-miterlimit: 2; opacity: 1;"><g class="fills"/><g class="errorbars"/><g class="lines"><path class="js-line" d="M0,11.35L10.19,49.07L10.24,49.24L18.34,74.14L18.39,74.28L25.09,92.02L25.14,92.15L35.88,116.06L35.93,116.16L47.77,137.16L47.82,137.24L56.62,149.91L56.67,149.97L67.26,162.53L67.31,162.58L77.56,172.43L77.61,172.47L88.6,181.01L88.65,181.04L102.69,189.53L102.74,189.55L114.89,195.19L114.94,195.21L131.03,200.85L131.08,200.86L142.62,203.92L142.67,203.93L155.66,206.62L155.71,206.63L172.3,209.19L172.35,209.19L196.79,211.7L196.84,211.7L208.93,212.56L208.98,212.56L243.42,214.11L243.47,214.11L262.05,214.6L262.1,214.6L322.67,215.35L322.72,215.36L451.2,215.65" style="vector-effect: non-scaling-stroke; fill: none; stroke: rgb(239, 85, 59); stroke-opacity: 1; stroke-width: 2px; opacity: 1;"/></g><g class="points"/><g class="text"/></g></g></g></g><path class="xlines-above crisp" d="M0,0" style="fill: none;"/><path class="ylines-above crisp" d="M0,0" style="fill: none;"/><g class="overlines-above"><path class="xy2-x crisp" d="M0,0" style="fill: none;"/><path class="xy2-y crisp" d="M0,0" style="fill: none;"/></g><g class="xaxislayer-above"><g class="xtick"><text text-anchor="middle" x="0" y="260" transform="translate(75,0)" style="font-family: 'Open Sans', verdana, arial, sans-serif; font-size: 12px; fill: rgb(42, 63, 95); fill-opacity: 1; white-space: pre; opacity: 1;">0</text></g><g class="xtick"><text text-anchor="middle" x="0" y="260" style="font-family: 'Open Sans', verdana, arial, sans-serif; font-size: 12px; fill: rgb(42, 63, 95); fill-opacity: 1; white-space: pre; opacity: 1;" transform="translate(174.94,0)">2000</text></g><g class="xtick"><text text-anchor="middle" x="0" y="260" style="font-family: 'Open Sans', verdana, arial, sans-serif; font-size: 12px; fill: rgb(42, 63, 95); fill-opacity: 1; white-space: pre; opacity: 1;" transform="translate(274.89,0)">4000</text></g><g class="xtick"><text text-anchor="middle" x="0" y="260" style="font-family: 'Open Sans', verdana, arial, sans-serif; font-size: 12px; fill: rgb(42, 63, 95); fill-opacity: 1; white-space: pre; opacity: 1;" transform="translate(374.83,0)">6000</text></g><g class="xtick"><text text-anchor="middle" x="0" y="260" style="font-family: 'Open Sans', verdana, arial, sans-serif; font-size: 12px; fill: rgb(42, 63, 95); fill-opacity: 1; white-space: pre; opacity: 1;" transform="translate(474.78,0)">8000</text></g></g><g class="yaxislayer-above"><g class="ytick"><text text-anchor="end" x="74" y="4.199999999999999" transform="translate(0,224.46)" style="font-family: 'Open Sans', verdana, arial, sans-serif; font-size: 12px; fill: rgb(42, 63, 95); fill-opacity: 1; white-space: pre; opacity: 1;">1.4M</text></g><g class="ytick"><text text-anchor="end" x="74" y="4.199999999999999" style="font-family: 'Open Sans', verdana, arial, sans-serif; font-size: 12px; fill: rgb(42, 63, 95); fill-opacity: 1; white-space: pre; opacity: 1;" transform="translate(0,175.44)">1.42M</text></g><g class="ytick"><text text-anchor="end" x="74" y="4.199999999999999" style="font-family: 'Open Sans', verdana, arial, sans-serif; font-size: 12px; fill: rgb(42, 63, 95); fill-opacity: 1; white-space: pre; opacity: 1;" transform="translate(0,126.43)">1.44M</text></g><g class="ytick"><text text-anchor="end" x="74" y="4.199999999999999" style="font-family: 'Open Sans', verdana, arial, sans-serif; font-size: 12px; fill: rgb(42, 63, 95); fill-opacity: 1; white-space: pre; opacity: 1;" transform="translate(0,77.41)">1.46M</text></g><g class="ytick"><text text-anchor="end" x="74" y="4.199999999999999" style="font-family: 'Open Sans', verdana, arial, sans-serif; font-size: 12px; fill: rgb(42, 63, 95); fill-opacity: 1; white-space: pre; opacity: 1;" transform="translate(0,28.4)">1.48M</text></g></g><g class="overaxes-above"><g class="xy2-x"/><g class="xy2-y"><g class="y2tick"><text text-anchor="start" x="527.2" y="4.199999999999999" transform="translate(0,235.67)" style="font-family: 'Open Sans', verdana, arial, sans-serif; font-size: 12px; fill: rgb(42, 63, 95); fill-opacity: 1; white-space: pre; opacity: 1;">0</text></g><g class="y2tick"><text text-anchor="start" x="527.2" y="4.199999999999999" style="font-family: 'Open Sans', verdana, arial, sans-serif; font-size: 12px; fill: rgb(42, 63, 95); fill-opacity: 1; white-space: pre; opacity: 1;" transform="translate(0,184.59)">500</text></g><g class="y2tick"><text text-anchor="start" x="527.2" y="4.199999999999999" style="font-family: 'Open Sans', verdana, arial, sans-serif; font-size: 12px; fill: rgb(42, 63, 95); fill-opacity: 1; white-space: pre; opacity: 1;" transform="translate(0,133.51)">1000</text></g><g class="y2tick"><text text-anchor="start" x="527.2" y="4.199999999999999" style="font-family: 'Open Sans', verdana, arial, sans-serif; font-size: 12px; fill: rgb(42, 63, 95); fill-opacity: 1; white-space: pre; opacity: 1;" transform="translate(0,82.43)">1500</text></g><g class="y2tick"><text text-anchor="start" x="527.2" y="4.199999999999999" style="font-family: 'Open Sans', verdana, arial, sans-serif; font-size: 12px; fill: rgb(42, 63, 95); fill-opacity: 1; white-space: pre; opacity: 1;" transform="translate(0,31.35)">2000</text></g></g></g></g><g class="subplot xy2"/></g><g class="polarlayer"/><g class="smithlayer"/><g class="ternarylayer"/><g class="geolayer"/><g class="funnelarealayer"/><g class="pielayer"/><g class="iciclelayer"/><g class="treemaplayer"/><g class="sunburstlayer"/><g class="glimages"/><defs id="topdefs-3721c0"><g class="clips"/><clipPath id="legend3721c0"><rect width="123" height="48" x="0" y="0"/></clipPath></defs><g class="layer-above"><g class="imagelayer"/><g class="shapelayer"/></g><g class="infolayer"><g class="legend" pointer-events="all" transform="translate(564.6,20)"><rect class="bg" shape-rendering="crispEdges" width="123" height="48" x="0" y="0" style="stroke: rgb(68, 68, 68); stroke-opacity: 1; fill: rgb(255, 255, 255); fill-opacity: 1; stroke-width: 0px;"/><g class="scrollbox" transform="" clip-path="url(#legend3721c0)"><g class="groups"><g class="traces" transform="translate(0,14.5)" style="opacity: 1;"><text class="legendtext" text-anchor="start" x="40" y="4.680000000000001" style="font-family: 'Open Sans', verdana, arial, sans-serif; font-size: 12px; fill: rgb(42, 63, 95); fill-opacity: 1; white-space: pre;">Cost</text><g class="layers" style="opacity: 1;"><g class="legendfill"/><g class="legendlines"><path class="js-line" d="M5,0h30" style="fill: none; stroke: rgb(99, 110, 250); stroke-opacity: 1; stroke-width: 2px;"/></g><g class="legendsymbols"><g class="legendpoints"/></g></g><rect class="legendtoggle" x="0" y="-9.5" width="117.265625" height="19" style="fill: rgb(0, 0, 0); fill-opacity: 0;"/></g><g class="traces" transform="translate(0,33.5)" style="opacity: 1;"><text class="legendtext" text-anchor="start" x="40" y="4.680000000000001" style="font-family: 'Open Sans', verdana, arial, sans-serif; font-size: 12px; fill: rgb(42, 63, 95); fill-opacity: 1; white-space: pre;">Temperature</text><g class="layers" style="opacity: 1;"><g class="legendfill"/><g class="legendlines"><path class="js-line" d="M5,0h30" style="fill: none; stroke: rgb(239, 85, 59); stroke-opacity: 1; stroke-width: 2px;"/></g><g class="legendsymbols"><g class="legendpoints"/></g></g><rect class="legendtoggle" x="0" y="-9.5" width="117.265625" height="19" style="fill: rgb(0, 0, 0); fill-opacity: 0;"/></g></g></g><rect class="scrollbar" rx="20" ry="3" width="0" height="0" x="0" y="0" style="fill: rgb(128, 139, 164); fill-opacity: 1;"/></g><g class="g-gtitle"/><g class="g-xtitle"><text class="xtitle" x="300.6" y="287.8" text-anchor="middle" style="font-family: 'Open Sans', verdana, arial, sans-serif; font-size: 14px; fill: rgb(42, 63, 95); opacity: 1; font-weight: normal; white-space: pre;">Iterations</text></g><g class="g-ytitle" transform="translate(2.1748046875,0)"><text class="ytitle" transform="rotate(-90,11.825000000000003,133.5)" x="11.825000000000003" y="133.5" text-anchor="middle" style="font-family: 'Open Sans', verdana, arial, sans-serif; font-size: 14px; fill: rgb(42, 63, 95); opacity: 1; font-weight: normal; white-space: pre;">Cost</text></g><g class="g-y2title"><text class="y2title" transform="rotate(-90,582.89375,133.5)" x="582.89375" y="133.5" text-anchor="middle" style="font-family: 'Open Sans', verdana, arial, sans-serif; font-size: 14px; fill: rgb(42, 63, 95); opacity: 1; font-weight: normal; white-space: pre;">Temperature</text></g></g></svg>