<svg class="main-svg" xmlns="http://www.w3.org/2000/svg" xmlns:xlink="http://www.w3.org/1999/xlink" width="700" height="300" style="" viewBox="0 0 700 300"><rect x="0" y="0" width="700" height="300" style="fill: rgb(255, 255, 255); fill-opacity: 1;"/><defs id="defs-67c081"><g class="clips"><clipPath id="clip67c081xyplot" class="plotclip"><rect width="463.41999999999996" height="227"/></clipPath><clipPath id="clip67c081xy2plot" class="plotclip"><rect width="463.41999999999996" height="227"/></clipPath><clipPath class="axesclip" id="clip67c081x"><rect x="62" y="0" width="463.41999999999996" height="300"/></clipPath><clipPath class="axesclip" id="clip67c081y"><rect x="0" y="20" width="700" height="227"/></clipPath><clipPath class="axesclip" id="clip67c081xy"><rect x="62" y="20" width="463.41999999999996" height="227"/></clipPath><clipPath class="axesclip" id="clip67c081y2"><rect x="0" y="20" width="700" height="227"/></clipPath><clipPath class="axesclip" id="clip67c081xy2"><rect x="62" y="20" width="463.41999999999996" height="227"/></clipPath></g><g class="gradients"/><g class="patterns"/></defs><g class="bglayer"><rect class="bg" x="62" y="20" width="463.41999999999996" height="227" style="fill: rgb(229, 236, 246); fill-opacity: 1; stroke-width: 0;"/></g><g class="layer-below"><g class="imagelayer"/><g class="shapelayer"/></g><g class="cartesianlayer"><g class="subplot xy"><g class="layer-subplot"><g class="shapelayer"/><g class="imagelayer"/></g><g class="gridlayer"><g class="x"><path class="xgrid crisp" transform="translate(146.12,0)" d="M0,20v227" style="stroke: rgb(255, 255, 255); stroke-opacity: 1; stroke-width: 1px;"/><path class="xgrid crisp" transform="translate(230.24,0)" d="M0,20v227" style="stroke: rgb(255, 255, 255); stroke-opacity: 1; stroke-width: 1px;"/><path class="xgrid crisp" transform="translate(314.36,0)" d="M0,20v227" style="stroke: rgb(255, 255, 255); stroke-opacity: 1; stroke-width: 1px;"/><path class="xgrid crisp" transform="translate(398.48,0)" d="M0,20v227" style="stroke: rgb(255, 255, 255); stroke-opacity: 1; stroke-width: 1px;"/><path class="xgrid crisp" transform="translate(482.6,0)" d="M0,20v227" style="stroke: rgb(255, 255, 255); stroke-opacity: 1; stroke-width: 1px;"/></g><g class="y"><path class="ygrid crisp" transform="translate(0,225.58)" d="M62,0h463.41999999999996" style="stroke: rgb(255, 255, 255); stroke-opacity: 1; stroke-width: 1px;"/><path class="ygrid crisp" transform="translate(0,137.2)" d="M62,0h463.41999999999996" style="stroke: rgb(255, 255, 255); stroke-opacity: 1; stroke-width: 1px;"/><path class="ygrid crisp" transform="translate(0,93.02)" d="M62,0h463.41999999999996" style="stroke: rgb(255, 255, 255); stroke-opacity: 1; stroke-width: 1px;"/><path class="ygrid crisp" transform="translate(0,48.83)" d="M62,0h463.41999999999996" style="stroke: rgb(255, 255, 255); stroke-opacity: 1; stroke-width: 1px;"/></g><g class="y2"><path class="y2grid crisp" transform="translate(0,184.58)" d="M62,0h463.41999999999996" style="stroke: rgb(255, 255, 255); stroke-opacity: 1; stroke-width: 1px;"/><path class="y2grid crisp" transform="translate(0,133.5)" d="M62,0h463.41999999999996" style="stroke: rgb(255, 255, 255); stroke-opacity: 1; stroke-width: 1px;"/><path class="y2grid crisp" transform="translate(0,82.43)" d="M62,0h463.41999999999996" style="stroke: rgb(255, 255, 255); stroke-opacity: 1; stroke-width: 1px;"/><path class="y2grid crisp" transform="translate(0,31.35)" d="M62,0h463.41999999999996" style="stroke: rgb(255, 255, 255); stroke-opacity: 1; stroke-width: 1px;"/></g></g><g class="zerolinelayer"><path class="xzl zl crisp" transform="translate(62,0)" d="M0,20v227" style="stroke: rgb(255, 255, 255); stroke-opacity: 1; stroke-width: 2px;"/><path class="yzl zl crisp" transform="translate(0,181.39)" d="M62,0h463.41999999999996" style="stroke: rgb(255, 255, 255); stroke-opacity: 1; stroke-width: 2px;"/><path class="y2zl zl crisp" transform="translate(0,235.65)" d="M62,0h463.41999999999996" style="stroke: rgb(255, 255, 255); stroke-opacity: 1; stroke-width: 2px;"/></g><path class="xlines-below"/><path class="ylines-below"/><g class="overlines-below"><path class="xy2-x"/><path class="xy2-y"/></g><g class="xaxislayer-below"/><g class="yaxislayer-below"/><g class="overaxes-below"><g class="xy2-x"/><g class="xy2-y"/></g><g class="plot" transform="translate(62,20)" clip-path="url(#clip67c081xyplot)"><g class="scatterlayer mlayer"><g class="trace scatter traceab1495" style="stroke-miterlimit: 2; opacity: 1;"><g class="fills"/><g class="errorbars"/><g class="lines"><path class="js-line" d="M0,27.15L0.08,29.48L0.25,21.18L0.34,12.82L0.67,28.44L1.09,14.34L1.18,15.73L1.6,15.13L1.77,24.25L1.93,21.44L2.02,16.92L2.19,21.97L2.69,16.56L2.78,11.35L3.7,34.29L3.79,35.05L4.46,37.42L4.71,20.96L4.79,24.31L5.13,36.8L5.38,33.5L5.47,30.54L6.06,18.07L6.22,20.84L6.31,22.94L6.48,24.48L6.65,20.12L6.98,20.43L7.07,23.12L7.57,18.14L7.74,25.14L7.82,29.71L7.99,29.94L8.66,16.58L8.75,22.63L8.83,17.15L9.25,29.38L9.34,29.31L9.42,29.73L9.59,31.94L9.93,22.43L10.18,25.91L10.26,29.87L10.6,31.78L11.1,22.27L11.19,24.46L11.27,29.27L11.52,35.74L11.95,30.9L12.03,31.5L12.11,31.78L12.2,30.24L12.28,29.54L12.62,34.26L12.7,28.88L12.95,33.87L13.04,26.85L13.29,30.28L13.63,22.31L13.71,22.68L14.55,29.91L14.64,28.81L14.72,26.37L14.97,33.28L15.31,25.03L15.48,27.4L15.56,28.02L16.15,33L16.32,30.95L16.4,29.61L17.67,40.65L17.75,40.83L18.25,39.43L18.34,40.94L18.42,42.99L19.26,30.09L19.35,31.85L19.43,32.24L19.68,34.7L19.77,36.22L20.1,38.9L20.19,39.63L20.27,39.38L20.44,40.92L20.61,40.58L20.69,41.27L20.86,40.9L21.7,46.15L21.79,46.77L22.21,48.55L22.46,44.61L22.54,45.11L22.63,47.23L22.88,44.4L23.3,47.39L23.39,49.1L23.47,49.42L23.55,45.16L23.89,47.51L23.97,51.14L24.73,48.89L24.82,50.64L24.9,50.07L25.07,52.11L25.15,54.09L25.49,55.31L25.57,53.89L25.66,56.17L25.99,58.03L26.08,54.71L26.16,54.81L26.25,52.35L26.33,50.29L26.92,52.76L27,54.07L27.84,61.26L28.1,60.71L28.18,60.4L28.77,54.6L29.19,56.42L29.27,56.91L29.86,52.34L30.12,52.87L30.2,53.7L31.38,58.93L31.46,60.57L32.64,65.91L32.72,66.09L32.89,67.18L33.23,64.59L33.31,64.96L33.9,65.73L34.24,62.09L34.32,63.19L34.41,63.9L34.99,65.35L35.08,65.68L37.01,75.97L37.1,75.99L38.27,79.1L38.36,76.96L44.92,96.98L45,97.04L49.04,106.12L49.13,106.46L50.3,109.46L50.39,109.73L56.11,120.26L56.19,120.3L60.15,128.28L60.23,128.6L61.41,131.01L61.49,131.18L63.01,133.57L63.09,133.59L64.6,134.77L64.69,135.07L65.61,136.22L65.7,136.4L70.75,142.85L70.83,143.2L74.03,146.54L74.11,146.7L76.47,148.63L76.55,149L80.34,152.13L80.42,152.41L85.8,157.85L85.89,157.85L87.82,159.41L87.91,159.43L88.66,160.06L88.75,160.42L93.54,163.6L93.63,163.79L96.99,166L97.08,166.2L97.92,167.17L98,167.43L107.59,171.91L107.67,172.14L108.85,172.61L108.94,172.91L110.53,173.67L110.62,173.67L111.8,174.01L111.88,174.01L116.42,175.71L116.51,175.71L122.73,177.81L122.82,177.81L125.26,178.43L125.34,178.43L126.6,179.21L126.69,179.29L134.85,181.56L134.93,181.56L137.45,182.28L137.54,182.32L141.57,183.29L141.66,183.29L145.53,183.98L145.61,184.05L148.81,184.75L148.89,185.02L152.93,185.76L153.02,185.83L156.3,186.52L156.38,186.61L170.18,188.91L170.26,189.01L174.05,189.6L174.13,189.86L176.65,190.57L176.74,190.66L179.68,191.33L179.77,191.63L185.07,193.15L185.15,193.15L193.22,193.89L193.31,194.16L197.18,194.71L197.26,194.99L198.36,195.2L198.44,195.2L203.66,195.87L203.74,195.98L211.56,196.58L211.65,196.84L213.5,197L213.58,197L218.12,197.73L218.21,197.87L227.63,198.61L227.71,198.82L235.45,199.53L235.54,199.58L244.12,200.84L244.2,200.84L248.07,201.49L248.16,201.6L251.35,201.83L251.44,201.83L257.24,202.57L257.32,202.68L258.92,202.8L259.01,202.8L266.16,203.45L266.24,203.72L267.25,203.97L267.34,203.97L275.83,204.66L275.92,204.74L287.86,205.47L287.94,205.58L295.77,206.32L295.85,206.46L297.79,206.64L297.87,206.64L304.35,207.31L304.43,207.41L307.88,208.09L307.97,208.17L314.36,208.92L314.44,208.95L326.47,209.69L326.56,209.78L331.94,210.49L332.02,210.63L345.48,211.36L345.57,211.43L362.64,212.17L362.73,212.24L380.06,212.96L380.14,213L382.5,213.23L382.58,213.23L384.26,213.37L384.35,213.37L402.1,214.06L402.18,214.18L438.02,214.93L438.1,215L442.81,215.08L442.89,215.08L463.42,215.65" style="vector-effect: non-scaling-stroke; fill: none; stroke: rgb(99, 110, 250); stroke-opacity: 1; stroke-width: 2px; opacity: 1;"/></g><g class="points"/><g class="text"/></g></g></g><g class="overplot"><g class="xy2" transform="translate(62,20)" clip-path="url(#clip67c081xy2plot)"><g class="scatterlayer mlayer"><g class="trace scatter tracee795c7" style="stroke-miterlimit: 2; opacity: 1;"><g class="fills"/><g class="errorbars"/><g class="lines"><path class="js-line" d="M0,11.35L3.79,73.32L3.87,74.46L7.65,117.29L7.74,118.07L11.52,147.67L11.61,148.22L15.39,168.67L15.48,169.05L19.35,183.44L19.43,183.7L24.31,195.6L24.39,195.76L29.61,203.56L29.69,203.66L34.83,208.3L34.91,208.36L40.38,211.33L40.46,211.36L47.53,213.47L47.61,213.48L55.94,214.67L56.02,214.68L82.52,215.57L82.61,215.57L463.42,215.65" style="vector-effect: non-scaling-stroke; fill: none; stroke: rgb(239, 85, 59); stroke-opacity: 1; stroke-width: 2px; opacity: 1;"/></g><g class="points"/><g class="text"/></g></g></g></g><path class="xlines-above crisp" d="M0,0" style="fill: none;"/><path class="ylines-above crisp" d="M0,0" style="fill: none;"/><g class="overlines-above"><path class="xy2-x crisp" d="M0,0" style="fill: none;"/><path class="xy2-y crisp" d="M0,0" style="fill: none;"/></g><g class="xaxislayer-above"><g class="xtick"><text text-anchor="middle" x="0" y="260" transform="translate(62,0)" style="font-family: 'Open Sans', verdana, arial, sans-serif; font-size: 12px; fill: rgb(42, 63, 95); fill-opacity: 1; white-space: pre; opacity: 1;">0</text></g><g class="xtick"><text text-anchor="middle" x="0" y="260" style="font-family: 'Open Sans', verdana, arial, sans-serif; font-size: 12px; fill: rgb(42, 63, 95); fill-opacity: 1; white-space: pre; opacity: 1;" transform="translate(146.12,0)">1000</text></g><g class="xtick"><text text-anchor="middle" x="0" y="260" style="font-family: 'Open Sans', verdana, arial, sans-serif; font-size: 12px; fill: rgb(42, 63, 95); fill-opacity: 1; white-space: pre; opacity: 1;" transform="translate(230.24,0)">2000</text></g><g class="xtick"><text text-anchor="middle" x="0" y="260" style="font-family: 'Open Sans', verdana, arial, sans-serif; font-size: 12px; fill: rgb(42, 63, 95); fill-opacity: 1; white-space: pre; opacity: 1;" transform="translate(314.36,0)">3000</text></g><g class="xtick"><text text-anchor="middle" x="0" y="260" style="font-family: 'Open Sans', verdana, arial, sans-serif; font-size: 12px; fill: rgb(42, 63, 95); fill-opacity: 1; white-space: pre; opacity: 1;" transform="translate(398.48,0)">4000</text></g><g class="xtick"><text text-anchor="middle" x="0" y="260" style="font-family: 'Open Sans', verdana, arial, sans-serif; font-size: 12px; fill: rgb(42, 63, 95); fill-opacity: 1; white-space: pre; opacity: 1;" transform="translate(482.6,0)">5000</text></g></g><g class="yaxislayer-above"><g class="ytick"><text text-anchor="end" x="61" y="4.199999999999999" transform="translate(0,225.58)" style="font-family: 'Open Sans', verdana, arial, sans-serif; font-size: 12px; fill: rgb(42, 63, 95); fill-opacity: 1; white-space: pre; opacity: 1;">−5k</text></g><g class="ytick"><text text-anchor="end" x="61" y="4.199999999999999" style="font-family: 'Open Sans', verdana, arial, sans-serif; font-size: 12px; fill: rgb(42, 63, 95); fill-opacity: 1; white-space: pre; opacity: 1;" transform="translate(0,181.39)">0</text></g><g class="ytick"><text text-anchor="end" x="61" y="4.199999999999999" style="font-family: 'Open Sans', verdana, arial, sans-serif; font-size: 12px; fill: rgb(42, 63, 95); fill-opacity: 1; white-space: pre; opacity: 1;" transform="translate(0,137.2)">5k</text></g><g class="ytick"><text text-anchor="end" x="61" y="4.199999999999999" style="font-family: 'Open Sans', verdana, arial, sans-serif; font-size: 12px; fill: rgb(42, 63, 95); fill-opacity: 1; white-space: pre; opacity: 1;" transform="translate(0,93.02)">10k</text></g><g class="ytick"><text text-anchor="end" x="61" y="4.199999999999999" style="font-family: 'Open Sans', verdana, arial, sans-serif; font-size: 12px; fill: rgb(42, 63, 95); fill-opacity: 1; white-space: pre; opacity: 1;" transform="translate(0,48.83)">15k</text></g></g><g class="overaxes-above"><g class="xy2-x"/><g class="xy2-y"><g class="y2tick"><text text-anchor="start" x="526.42" y="4.199999999999999" transform="translate(0,235.65)" style="font-family: 'Open Sans', verdana, arial, sans-serif; font-size: 12px; fill: rgb(42, 63, 95); fill-opacity: 1; white-space: pre; opacity: 1;">0</text></g><g class="y2tick"><text text-anchor="start" x="526.42" y="4.199999999999999" style="font-family: 'Open Sans', verdana, arial, sans-serif; font-size: 12px; fill: rgb(42, 63, 95); fill-opacity: 1; white-space: pre; opacity: 1;" transform="translate(0,184.58)">500</text></g><g class="y2tick"><text text-anchor="start" x="526.42" y="4.199999999999999" style="font-family: 'Open Sans', verdana, arial, sans-serif; font-size: 12px; fill: rgb(42, 63, 95); fill-opacity: 1; white-space: pre; opacity: 1;" transform="translate(0,133.5)">1000</text></g><g class="y2tick"><text text-anchor="start" x="526.42" y="4.199999999999999" style="font-family: 'Open Sans', verdana, arial, sans-serif; font-size: 12px; fill: rgb(42, 63, 95); fill-opacity: 1; white-space: pre; opacity: 1;" transform="translate(0,82.43)">1500</text></g><g class="y2tick"><text text-anchor="start" x="526.42" y="4.199999999999999" style="font-family: 'Open Sans', verdana, arial, sans-serif; font-size: 12px; fill: rgb(42, 63, 95); fill-opacity: 1; white-space: pre; opacity: 1;" transform="translate(0,31.35)">2000</text></g></g></g></g><g class="subplot xy2"/></g><g class="polarlayer"/><g class="smithlayer"/><g class="ternarylayer"/><g class="geolayer"/><g class="funnelarealayer"/><g class="pielayer"/><g class="iciclelayer"/><g class="treemaplayer"/><g class="sunburstlayer"/><g class="glimages"/><defs id="topdefs-67c081"><g class="clips"/><clipPath id="legend67c081"><rect width="123" height="48" x="0" y="0"/></clipPath></defs><g class="layer-above"><g class="imagelayer"/><g class="shapelayer"/></g><g class="infolayer"><g class="legend" pointer-events="all" transform="translate(564.86,20)"><rect class="bg" shape-rendering="crispEdges" width="123" height="48" x="0" y="0" style="stroke: rgb(68, 68, 68); stroke-opacity: 1; fill: rgb(255, 255, 255); fill-opacity: 1; stroke-width: 0px;"/><g class="scrollbox" transform="" clip-path="url(#legend67c081)"><g class="groups"><g class="traces" transform="translate(0,14.5)" style="opacity: 1;"><text class="legendtext" text-anchor="start" x="40" y="4.680000000000001" style="font-family: 'Open Sans', verdana, arial, sans-serif; font-size: 12px; fill: rgb(42, 63, 95); fill-opacity: 1; white-space: pre;">Cost</text><g class="layers" style="opacity: 1;"><g class="legendfill"/><g class="legendlines"><path class="js-line" d="M5,0h30" style="fill: none; stroke: rgb(99, 110, 250); stroke-opacity: 1; stroke-width: 2px;"/></g><g class="legendsymbols"><g class="legendpoints"/></g></g><rect class="legendtoggle" x="0" y="-9.5" width="117.265625" height="19" style="fill: rgb(0, 0, 0); fill-opacity: 0;"/></g><g class="traces" transform="translate(0,33.5)" style="opacity: 1;"><text class="legendtext" text-anchor="start" x="40" y="4.680000000000001" style="font-family: 'Open Sans', verdana, arial, sans-serif; font-size: 12px; fill: rgb(42, 63, 95); fill-opacity: 1; white-space: pre;">Temperature</text><g class="layers" style="opacity: 1;"><g class="legendfill"/><g class="legendlines"><path class="js-line" d="M5,0h30" style="fill: none; stroke: rgb(239, 85, 59); stroke-opacity: 1; stroke-width: 2px;"/></g><g class="legendsymbols"><g class="legendpoints"/></g></g><rect class="legendtoggle" x="0" y="-9.5" width="117.265625" height="19" style="fill: rgb(0, 0, 0); fill-opacity: 0;"/></g></g></g><rect class="scrollbar" rx="20" ry="3" width="0" height="0" x="0" y="0" style="fill: rgb(128, 139, 164); fill-opacity: 1;"/></g><g class="g-gtitle"/><g class="g-xtitle"><text class="xtitle" x="293.71" y="287.8" text-anchor="middle" style="font-family: 'Open Sans', verdana, arial, sans-serif; font-size: 14px; fill: rgb(42, 63, 95); opacity: 1; font-weight: normal; white-space: pre;">Iterations</text></g><g class="g-ytitle" transform="translate(2.3623046875,0)"><text class="ytitle" transform="rotate(-90,11.637500000000003,133.5)" x="11.637500000000003" y="133.5" text-anchor="middle" style="font-family: 'Open Sans', verdana, arial, sans-serif; font-size: 14px; fill: rgb(42, 63, 95); opacity: 1; font-weight: normal; white-space: pre;">Cost</text></g><g class="g-y2title"><text class="y2title" transform="rotate(-90,582.1125,133.5)" x="582.1125" y="133.5" text-anchor="middle" style="font-family: 'Open Sans', verdana, arial, sans-serif; font-size: 14px; fill: rgb(42, 63, 95); opacity: 1; font-weight: normal; white-space: pre;">Temperature</text></g></g></svg>