<svg class="main-svg" xmlns="http://www.w3.org/2000/svg" xmlns:xlink="http://www.w3.org/1999/xlink" width="700" height="300" style="" viewBox="0 0 700 300"><rect x="0" y="0" width="700" height="300" style="fill: rgb(255, 255, 255); fill-opacity: 1;"/><defs id="defs-1a6ebb"><g class="clips"><clipPath id="clip1a6ebbxyplot" class="plotclip"><rect width="448.38" height="227"/></clipPath><clipPath id="clip1a6ebbxy2plot" class="plotclip"><rect width="448.38" height="227"/></clipPath><clipPath class="axesclip" id="clip1a6ebbx"><rect x="78" y="0" width="448.38" height="300"/></clipPath><clipPath class="axesclip" id="clip1a6ebby"><rect x="0" y="20" width="700" height="227"/></clipPath><clipPath class="axesclip" id="clip1a6ebbxy"><rect x="78" y="20" width="448.38" height="227"/></clipPath><clipPath class="axesclip" id="clip1a6ebby2"><rect x="0" y="20" width="700" height="227"/></clipPath><clipPath class="axesclip" id="clip1a6ebbxy2"><rect x="78" y="20" width="448.38" height="227"/></clipPath></g><g class="gradients"/><g class="patterns"/></defs><g class="bglayer"><rect class="bg" x="78" y="20" width="448.38" height="227" style="fill: rgb(229, 236, 246); fill-opacity: 1; stroke-width: 0;"/></g><g class="layer-below"><g class="imagelayer"/><g class="shapelayer"/></g><g class="cartesianlayer"><g class="subplot xy"><g class="layer-subplot"><g class="shapelayer"/><g class="imagelayer"/></g><g class="gridlayer"><g class="x"><path class="xgrid crisp" transform="translate(186.57999999999998,0)" d="M0,20v227" style="stroke: rgb(255, 255, 255); stroke-opacity: 1; stroke-width: 1px;"/><path class="xgrid crisp" transform="translate(295.15999999999997,0)" d="M0,20v227" style="stroke: rgb(255, 255, 255); stroke-opacity: 1; stroke-width: 1px;"/><path class="xgrid crisp" transform="translate(403.74,0)" d="M0,20v227" style="stroke: rgb(255, 255, 255); stroke-opacity: 1; stroke-width: 1px;"/><path class="xgrid crisp" transform="translate(512.3199999999999,0)" d="M0,20v227" style="stroke: rgb(255, 255, 255); stroke-opacity: 1; stroke-width: 1px;"/></g><g class="y"><path class="ygrid crisp" transform="translate(0,213.85)" d="M78,0h448.38" style="stroke: rgb(255, 255, 255); stroke-opacity: 1; stroke-width: 1px;"/><path class="ygrid crisp" transform="translate(0,170.61)" d="M78,0h448.38" style="stroke: rgb(255, 255, 255); stroke-opacity: 1; stroke-width: 1px;"/><path class="ygrid crisp" transform="translate(0,127.36)" d="M78,0h448.38" style="stroke: rgb(255, 255, 255); stroke-opacity: 1; stroke-width: 1px;"/><path class="ygrid crisp" transform="translate(0,84.11)" d="M78,0h448.38" style="stroke: rgb(255, 255, 255); stroke-opacity: 1; stroke-width: 1px;"/></g><g class="y2"><path class="y2grid crisp" transform="translate(0,184.61)" d="M78,0h448.38" style="stroke: rgb(255, 255, 255); stroke-opacity: 1; stroke-width: 1px;"/><path class="y2grid crisp" transform="translate(0,133.53)" d="M78,0h448.38" style="stroke: rgb(255, 255, 255); stroke-opacity: 1; stroke-width: 1px;"/><path class="y2grid crisp" transform="translate(0,82.44)" d="M78,0h448.38" style="stroke: rgb(255, 255, 255); stroke-opacity: 1; stroke-width: 1px;"/><path class="y2grid crisp" transform="translate(0,31.35)" d="M78,0h448.38" style="stroke: rgb(255, 255, 255); stroke-opacity: 1; stroke-width: 1px;"/></g></g><g class="zerolinelayer"><path class="xzl zl crisp" transform="translate(78,0)" d="M0,20v227" style="stroke: rgb(255, 255, 255); stroke-opacity: 1; stroke-width: 2px;"/><path class="yzl zl crisp" transform="translate(0,40.86)" d="M78,0h448.38" style="stroke: rgb(255, 255, 255); stroke-opacity: 1; stroke-width: 2px;"/><path class="y2zl zl crisp" transform="translate(0,235.7)" d="M78,0h448.38" style="stroke: rgb(255, 255, 255); stroke-opacity: 1; stroke-width: 2px;"/></g><path class="xlines-below"/><path class="ylines-below"/><g class="overlines-below"><path class="xy2-x"/><path class="xy2-y"/></g><g class="xaxislayer-below"/><g class="yaxislayer-below"/><g class="overaxes-below"><g class="xy2-x"/><g class="xy2-y"/></g><g class="plot" transform="translate(78,20)" clip-path="url(#clip1a6ebbxyplot)"><g class="scatterlayer mlayer"><g class="trace scatter trace15f032" style="stroke-miterlimit: 2; opacity: 1;"><g class="fills"/><g class="errorbars"/><g class="lines"><path class="js-line" d="M0,20.35L0.05,17.23L0.27,24.58L0.71,18.53L0.76,20.35L0.87,18.53L1.3,23.98L1.57,23.11L1.63,22.42L2.06,15.33L2.44,18.53L2.5,20.09L2.71,25.54L2.93,17.84L3.09,18.62L3.15,23.89L3.37,12.47L3.85,19.74L3.91,19.31L3.96,14.72L4.67,18.27L4.72,18.1L4.78,22.08L5.32,16.97L5.48,21.04L5.54,20.86L5.97,14.72L6.08,21.56L6.13,28.48L6.95,18.62L7,21.12L7.06,19.83L7.38,26.14L7.71,17.66L7.76,16.28L7.98,27.09L8.58,23.46L8.63,21.9L8.96,14.9L9.23,30.29L9.39,26.14L9.45,21.04L9.83,18.53L10.15,26.4L10.26,23.89L10.32,17.84L10.59,26.4L11.02,16.45L11.08,18.62L11.13,11.35L11.67,27.01L11.78,24.58L11.84,26.23L11.94,31.85L12.49,19.57L12.54,24.41L12.6,26.66L13.08,17.58L13.36,25.45L13.41,23.03L13.52,24.32L13.74,15.24L14.01,21.99L14.06,24.32L14.5,27.26L14.66,16.19L14.82,19.91L14.88,20.78L14.98,17.06L15.09,21.38L15.2,20.6L15.26,22.08L15.47,28.56L15.96,14.03L16.18,17.4L16.23,19.91L17.05,26.14L17.32,23.81L17.37,23.03L17.59,24.76L18.08,15.59L18.19,17.23L18.24,19.31L18.46,13.86L18.62,23.03L18.68,30.21L18.73,31.42L18.95,20.09L19,21.82L19.06,20.09L19.16,24.67L19.38,16.97L19.54,19.31L19.6,17.32L19.71,15.16L20.2,21.73L20.36,21.3L20.41,17.58L20.47,15.24L20.85,24.24L20.96,21.73L21.01,23.98L21.55,31.42L21.72,21.82L21.77,20.95L21.93,18.01L22.04,24.58L22.37,18.18L22.42,16.63L22.58,13.77L23.29,25.28L23.34,23.29L24,15.33L24.1,18.18L24.16,20.17L24.27,23.89L24.81,22.68L24.86,20.6L25.08,14.12L25.41,22.85L25.57,19.31L25.62,20.52L25.73,12.82L26.11,20.69L26.33,20.26L26.38,24.32L26.76,28.56L27.04,22.33L27.09,23.63L27.14,24.24L27.42,17.84L27.52,27.96L27.58,28.48L27.69,20.78L28.12,31.16L28.34,21.99L28.39,21.38L29.05,29.6L29.15,27.44L29.21,26.31L29.7,29.95L29.86,24.06L29.91,22.68L29.97,24.5L30.24,17.92L30.62,21.82L30.67,20.17L30.73,18.62L31.16,24.76L31.22,24.67L31.27,27.18L31.6,19.31L32.09,22.08L32.14,22.08L32.25,21.47L32.3,21.56L32.36,26.57L32.41,26.23L32.47,27.7L32.52,32.45L33.44,17.32L33.5,18.18L33.55,18.44L33.88,17.84L34.09,23.46L34.15,21.9L34.2,18.44L34.37,23.37L34.69,14.38L34.75,15.24L34.8,14.38L35.13,22.59L35.67,20.26L35.72,18.36L35.94,15.24L36.43,28.22L36.81,26.57L36.86,24.15L37.08,25.88L37.3,20.86L37.35,23.98L37.41,24.76L37.79,17.75L38.17,21.99L38.22,25.88L38.55,34.18L38.87,22.51L39.03,22.94L39.09,27.87L39.25,32.8L39.36,26.31L39.41,27.26L39.47,26.14L39.52,26.92L39.85,22.51L39.9,20.35L40.12,16.97L40.23,22.08L40.28,22.85L40.34,18.7L40.88,29.69L40.93,27.18L40.99,27.61L41.04,28.99L41.21,21.82L41.53,23.29L41.59,20.6L41.64,21.12L41.75,15.85L42.07,18.53L42.13,17.84L42.18,15.67L42.67,26.57L42.73,28.22L43.21,20.52L43.54,23.03L43.59,25.79L43.7,25.88L43.81,22.85L43.92,24.41L43.97,25.97L44.19,23.98L44.63,30.12L44.84,27.96L44.9,24.76L45.01,27.01L45.11,23.2L45.17,24.32L45.22,20.43L46.09,27.7L46.15,24.58L46.2,20.35L47.02,28.39L47.18,27.18L47.23,22.08L47.34,16.45L47.83,27.01L47.88,25.71L47.94,25.19L48.48,15.33L48.64,21.64L48.7,25.02L48.75,22.16L48.86,26.57L49.4,24.41L49.46,24.5L49.57,24.67L49.62,23.37L49.68,21.04L49.73,21.21L49.78,18.01L49.84,17.06L50.16,20.52L50.33,19.13L50.38,22.51L51.03,20.43L51.14,28.65L51.3,27.44L51.36,25.97L51.47,26.05L51.52,23.29L51.58,22.25L51.96,20.78L52.23,25.1L52.34,24.32L52.39,25.45L52.77,22.59L53.04,27.35L53.1,24.84L53.15,23.89L53.2,21.3L53.48,32.45L53.75,28.99L53.8,29.08L53.91,31.76L54.29,25.88L54.51,30.9L54.56,29.25L54.94,20.69L55.21,25.19L55.27,26.75L55.32,27.96L55.59,17.06L55.65,16.8L55.86,15.33L56.46,21.47L56.52,25.79L56.73,18.36L56.84,22.33L56.9,26.14L57.06,27.78L57.33,24.76L57.38,25.28L57.44,24.32L57.71,28.48L57.82,23.63L58.04,25.54L58.09,20.43L58.74,17.84L58.85,19.91L58.9,20.26L59.34,30.81L59.72,25.54L59.77,24.5L59.99,27.78L60.32,21.82L60.37,22.68L60.42,20.95L60.53,18.1L61.46,31.85L61.51,27.78L61.73,29.51L62.38,22.42L62.43,23.81L62.49,26.83L62.65,29.95L62.7,26.31L63.25,27.78L63.3,26.4L63.68,31.07L63.79,28.82L63.84,27.52L64.28,23.98L64.77,30.55L64.82,29.17L65.04,26.14L65.31,30.9L65.53,29.25L65.58,28.91L66.07,33.75L66.45,20.52L66.51,24.41L66.72,31.24L67.16,26.92L67.21,24.58L67.65,21.82L67.86,26.14L67.92,24.93L67.97,26.05L68.08,27.87L68.24,20.43L68.46,24.76L68.51,20.52L68.68,25.45L68.95,18.36L69.27,22.33L69.33,23.2L69.82,31.68L70.14,27.09L70.2,24.67L70.36,26.66L70.41,22.68L70.63,22.77L70.69,26.31L71.01,29.86L71.17,25.36L71.23,24.06L71.72,29.69L71.93,25.1L71.99,23.89L72.37,30.9L72.69,28.3L72.75,23.81L73.78,34.44L73.83,31.76L74.43,34.01L74.65,24.24L74.7,26.05L75.14,23.29L75.35,27.01L75.41,26.83L75.68,25.79L75.84,29.08L75.95,28.56L76.01,28.74L76.28,30.03L76.55,22.59L76.82,25.54L76.87,26.05L76.93,25.19L77.25,30.9L77.31,33.06L77.96,22.85L78.12,24.67L78.18,26.14L78.45,28.56L78.77,25.62L78.83,25.02L78.99,24.5L79.97,33.93L80.19,32.54L80.24,30.47L80.4,32.54L81.22,21.64L81.43,23.2L81.49,25.88L81.71,25.45L81.98,30.98L82.36,27.35L82.41,25.1L83.39,34.18L83.5,32.28L83.55,31.68L83.66,32.11L83.77,28.82L83.82,28.3L84.26,33.84L84.64,30.72L84.69,28.04L84.75,26.83L85.18,32.63L85.29,30.21L85.34,30.21L85.94,35.31L86.27,34.36L86.32,33.67L86.59,32.02L86.76,34.27L86.81,34.44L87.03,37.9L87.41,33.75L87.52,35.22L87.57,31.24L87.79,32.89L88.11,28.39L88.17,28.65L88.66,26.66L88.93,33.06L88.98,30.9L89.47,37.9L89.74,36.09L89.8,33.84L90.18,39.55L90.56,36.09L90.61,33.32L90.66,33.93L90.77,29.69L90.94,30.81L90.99,27.61L91.15,29.95L91.37,21.99L91.64,24.15L91.7,24.93L93.11,40.67L93.16,38.42L93.22,33.93L93.38,39.29L93.7,29.43L93.76,29.43L93.81,29.6L93.87,27.96L94.3,35.14L94.36,34.44L94.41,35.22L94.63,31.85L95.01,36.61L95.17,33.84L95.22,35.83L95.6,32.63L95.88,37.3L95.93,36.95L96.26,37.47L96.31,34.96L96.36,35.48L96.42,34.36L96.64,36.09L96.96,32.63L97.02,29.51L97.12,27.52L97.45,31.24L97.83,30.29L97.88,30.55L98.92,36.95L98.97,34.53L99.46,43.27L99.73,38.08L99.78,37.04L100.11,31.5L100.54,34.62L100.6,34.79L101.14,39.03L101.36,36.52L101.41,35.05L101.9,27.61L102.34,31.24L102.39,31.07L103.42,39.37L103.48,38.25L103.53,37.64L103.59,39.11L103.8,36.61L104.18,38.34L104.24,34.7L104.45,30.64L104.94,34.96L105,32.97L105.05,33.67L105.16,34.62L105.43,29.86L105.54,32.02L105.59,30.81L105.81,33.32L106.08,32.2L106.14,29.51L107.22,39.03L107.28,35.83L107.87,41.36L108.04,36.43L108.09,37.82L108.15,38.42L108.42,33.67L108.47,34.01L108.96,32.89L109.39,38.25L109.45,37.3L109.67,36.95L109.72,37.82L109.77,37.38L109.83,35.57L109.94,35.74L109.99,33.84L110.05,32.28L110.53,36.35L110.64,36.09L110.7,35.05L110.97,34.01L111.35,38.6L111.67,37.73L111.73,37.21L111.89,36.78L112.43,42.83L112.6,39.72L112.65,39.89L112.87,43.61L113.3,39.81L113.41,41.36L113.47,41.71L113.63,43.18L113.74,37.47L113.85,38.51L113.9,36.61L114.06,36.69L114.33,32.97L114.66,35.31L114.71,36.87L115.09,40.84L115.42,40.24L115.47,37.38L115.8,34.62L116.23,40.07L116.29,37.9L117.92,48.46L117.97,45.43L118.46,47.85L118.57,46.99L118.62,44.3L118.79,41.71L119.22,45.43L119.33,44.04L119.38,45L119.55,40.5L119.98,45.77L120.2,42.49L120.25,42.75L120.47,45.6L120.74,43.01L120.79,41.19L120.85,40.24L121.12,43.7L121.28,43.7L121.34,44.91L121.5,41.19L122.1,43.87L122.15,44.3L122.32,45.43L122.53,44.74L122.59,41.71L122.86,41.02L123.18,44.22L123.24,41.88L123.29,41.45L123.4,41.1L123.78,43.61L124.11,42.83L124.16,42.92L124.54,44.65L124.92,40.15L124.98,40.33L125.03,41.62L125.36,42.92L125.41,40.84L125.46,41.36L125.52,38.68L125.63,37.38L126.22,43.44L126.39,40.76L126.44,40.84L126.98,43.87L127.04,45.34L127.36,46.81L127.64,42.4L127.8,44.48L127.85,45.34L127.91,45.6L128.02,43.01L128.12,44.04L128.18,42.92L128.34,44.91L128.4,42.14L128.88,42.75L128.94,42.23L129.64,43.96L129.7,43.7L129.75,41.88L130.35,37.99L130.51,39.89L130.57,41.02L130.62,41.88L131.06,38.08L131.16,38.86L131.22,39.11L131.38,38.68L132.74,49.41L132.79,46.73L133.34,50.79L133.82,50.53L133.88,49.15L134.58,43.35L134.86,44.04L134.91,44.22L135.07,43.96L136.32,54.34L136.38,52.35L136.92,55.72L136.97,56.93L137.08,58.49L137.19,54.34L137.24,54.42L137.3,53.04L137.41,53.82L137.73,48.2L137.79,48.54L138.28,51.83L138.33,48.54L139.25,51.66L139.31,49.06L139.36,48.11L139.74,53.91L139.8,54.34L139.9,55.29L139.96,53.13L140.01,51.31L140.12,49.93L140.45,52.95L140.77,51.05L140.83,51.74L141.1,52.78L141.15,50.96L141.21,52.09L141.26,50.19L141.32,50.36L141.37,48.02L141.7,49.58L142.19,44.13L142.24,44.3L142.29,47.16L142.35,47.33L142.4,45L142.78,45.95L143.22,39.29L143.27,39.72L143.33,40.33L145.06,55.38L145.12,53.3L145.44,52.78L145.77,54.68L145.82,53.04L145.88,53.21L146.64,58.32L146.75,56.24L146.8,56.5L147.23,58.06L147.51,55.98L147.56,54.42L148.1,57.88L148.27,56.24L148.32,53.65L148.43,52.69L149.19,58.66L149.24,57.8L149.3,57.28L149.57,59.01L149.62,56.93L149.79,58.66L149.84,56.85L150.76,61.95L150.82,59.35L151.52,53.56L151.69,55.55L151.74,54.6L151.79,53.73L152.07,55.81L152.39,55.12L152.45,55.98L152.66,58.58L152.99,57.54L153.04,55.64L153.31,56.59L153.48,53.3L153.53,53.99L153.59,53.13L155,61.26L155.21,61.08L155.27,57.97L155.43,59.53L155.49,57.71L155.54,55.64L155.76,56.5L155.81,54.77L155.97,55.98L156.03,53.13L156.46,54.42L156.52,53.04L157.82,59.18L158.09,57.62L158.15,56.33L158.47,58.75L158.69,56.85L158.74,55.55L158.91,55.46L159.88,60.22L159.94,56.76L160.16,56.15L160.86,60.82L160.92,59.09L161.51,55.38L161.68,56.5L161.73,56.67L161.89,57.19L162,56.07L162.06,54.08L162.27,55.38L162.33,53.91L162.44,54.34L162.6,52.35L162.65,50.79L163.41,55.03L163.47,55.38L164.93,61.69L165.15,61.08L165.2,59.53L165.91,65.15L166.24,64.72L166.29,64.37L166.62,67.92L166.94,66.36L167,65.76L167.54,63.94L167.81,66.62L167.86,66.71L168.3,69.04L168.57,68.18L168.62,66.62L169.87,71.55L169.93,69.99L170.14,71.72L170.52,69.21L170.58,66.53L170.9,66.27L172.1,73.37L172.42,72.07L172.48,72.07L172.53,73.11L172.64,68.18L172.97,69.39L173.02,67.57L173.29,64.03L173.73,67.14L173.78,67.31L174.05,66.53L174.6,69.56L174.65,68.44L175.14,71.03L175.41,69.91L175.46,68.18L175.9,70.08L175.95,70.34L176.55,67.14L176.82,68.52L176.88,68.61L176.98,69.82L177.31,66.27L177.53,68.61L177.58,67.48L177.69,68L177.91,66.27L178.29,67.23L178.34,67.31L178.4,66.71L178.78,69.65L178.99,67.66L179.05,67.92L179.27,65.93L179.81,69.04L179.86,68.7L179.92,68.78L180.13,70.51L180.24,68.35L180.3,68.61L180.35,67.83L182.41,78.12L182.47,76.13L183.17,70.94L183.55,72.59L183.61,72.76L184.53,77.26L184.59,75.27L184.64,74.4L185.02,77L185.67,76.39L185.73,75.01L185.78,75.87L186.05,72.67L186.32,73.54L186.38,73.19L186.54,72.33L187.35,76.74L187.57,75.53L187.63,75.62L187.95,69.82L188.44,71.81L188.49,71.98L189.09,74.4L189.15,74.66L189.31,75.1L189.36,73.54L189.53,73.89L189.58,72.33L189.8,73.45L189.96,70.86L190.29,72.33L190.34,71.29L190.56,72.67L190.61,70.94L190.72,71.38L190.77,70.08L191.97,78.38L192.35,77.26L192.4,75.27L192.51,75.7L192.78,74.06L193.11,75.18L193.16,74.92L194.09,79.16L194.14,80.72L194.74,81.5L194.79,80.03L194.85,80.29L195.17,79.85L195.61,81.93L195.71,81.5L195.77,80.03L195.82,79.77L196.15,81.93L196.2,82.19L196.26,80.89L196.86,83.83L196.91,83.92L197.51,86.51L197.83,85.82L197.89,84.18L199.24,89.37L199.3,88.59L200.06,92.57L200.17,91.1L200.22,90.15L200.33,89.63L201.14,93.35L201.2,91.27L201.63,93.17L201.9,91.27L201.96,91.27L202.12,91.62L202.28,90.15L202.45,90.92L202.5,89.89L203.42,86.08L203.53,86.43L203.59,86.69L204.56,89.2L204.62,87.81L205.11,89.37L205.22,86.6L205.32,87.38L205.38,85.99L206.52,90.75L206.63,89.63L206.68,88.33L208.15,92.83L208.2,93L208.26,91.36L208.91,93.69L208.96,93.69L209.23,92.91L209.67,94.99L209.72,95.16L210.26,93.09L210.48,94.04L210.54,94.38L211.57,97.15L211.62,97.5L213.09,99.75L213.14,99.49L213.36,98.28L213.85,100.44L213.9,99.57L214.44,100.96L214.5,99.4L214.72,100.27L214.77,100.61L215.04,101.74L215.1,100.01L215.37,100.7L215.42,99.31L216.07,100.44L216.13,99.23L216.94,101.39L217,99.75L217.76,95.94L217.97,96.55L218.03,96.55L218.3,94.21L218.84,95.77L218.9,96.11L220.04,101.13L220.31,100.01L220.36,98.8L221.12,100.44L221.18,100.61L222.53,105.2L222.59,104.68L222.97,103.81L223.57,106.32L223.62,105.54L223.67,105.54L223.78,105.72L223.84,103.81L224.05,104.85L224.33,104.59L224.38,105.54L224.54,104.5L225.3,107.01L225.36,107.27L225.57,107.96L225.63,108.31L225.85,108.57L225.9,106.58L226.23,104.33L226.61,106.49L226.66,106.49L227.85,108.31L227.91,106.49L228.13,105.63L228.99,107.79L229.05,107.79L229.27,108.66L229.32,107.7L229.86,108.57L229.92,107.79L233.17,115.23L233.23,114.11L234.86,118.17L234.91,116.27L235.18,117.74L235.35,115.92L235.62,116.27L235.67,116.27L236.38,115.32L236.49,115.75L236.54,115.75L237.19,117.22L237.25,115.58L237.95,117.31L238.12,116.79L238.17,116.87L238.33,117.13L238.39,115.66L238.82,116.44L238.88,116.44L239.64,117.05L239.69,115.58L240.99,118.6L241.05,118.6L241.7,119.47L241.75,118L242.84,119.9L242.89,118.78L244.2,122.06L244.25,120.25L244.68,119.81L246.31,122.41L246.37,121.54L246.8,120.59L247.13,121.28L247.18,121.54L248.05,122.75L248.1,121.54L248.97,123.27L249.03,123.71L249.3,123.79L249.35,124.48L250.44,125.7L250.49,125.96L253.97,132.01L254.02,132.53L255.27,133.13L255.33,133.39L256.03,134.43L256.09,134.78L257.33,135.3L257.39,134L258.15,132.53L258.2,132.87L258.26,132.87L258.31,132.36L258.85,133.57L258.91,133.57L258.96,133.57L260.54,135.38L260.59,135.38L261.41,136.08L261.46,136.68L263.36,138.41L263.41,136.77L263.9,136.85L263.96,136.08L264.72,136.59L264.77,136.85L266.24,138.76L266.29,138.76L267.87,139.62L267.92,140.31L268.84,140.92L268.9,140.92L271.12,144.38L271.18,144.38L271.56,145.07L271.61,145.42L273.24,147.06L273.3,147.06L273.89,147.75L273.95,147.84L274.54,148.88L274.6,149.31L275.9,151.21L275.96,151.21L277.15,152.34L277.2,152.34L279.65,153.03L279.7,153.29L284.91,156.49L284.97,156.75L286.11,157.53L286.16,157.53L288.44,157.96L288.5,158.3L289.64,159.26L289.69,159.26L293.22,161.76L293.27,162.02L293.87,162.72L293.93,162.8L295.83,163.49L295.88,163.67L298.43,164.36L298.49,164.53L300.66,165.83L300.71,165.83L301.85,166.87L301.91,166.87L303.15,167.47L303.21,167.82L304.62,168.51L304.67,168.77L306.63,169.46L306.68,169.63L308.37,170.07L308.42,170.41L309.24,170.85L309.29,170.85L310.32,171.8L310.38,171.88L311.46,172.58L311.52,172.75L314.12,173.44L314.18,173.79L314.83,174.31L314.88,174.65L316.02,175.34L316.08,175.52L317.38,175.86L317.43,175.86L319.5,176.47L319.55,176.47L322.05,177.07L322.1,177.33L324.22,177.68L324.27,177.68L327.42,178.63L327.48,178.63L329.54,179.32L329.59,179.41L330.84,180.1L330.9,180.19L334.05,180.88L334.1,180.97L334.97,181.66L335.02,181.66L336.05,182.18L336.11,182.18L337.57,182.7L337.63,183.04L342.46,183.73L342.51,183.82L345.23,184.51L345.28,184.51L347.56,185.03L347.62,185.64L349.08,186.59L349.14,186.59L350.82,187.19L350.88,187.37L352.5,188.06L352.56,188.23L355.76,188.84L355.82,189.01L357.01,189.53L357.06,189.79L358.48,190.39L358.53,190.65L364.72,191.35L364.77,191.43L365.97,192.04L366.02,192.38L368.41,192.99L368.47,193.16L372.32,193.85L372.37,193.94L375.25,194.55L375.31,194.72L379.65,196.19L379.7,196.19L386.71,199.39L386.76,199.39L390.56,200.08L390.62,200.34L392.57,201.03L392.62,201.12L394.09,202.76L394.14,202.76L396.64,203.37L396.7,203.63L400.33,204.32L400.39,204.49L403.7,205.18L403.75,205.27L404.62,205.79L404.68,206.05L405.71,206.57L405.76,206.57L406.58,206.74L406.63,206.74L409.29,207.43L409.35,207.61L412.87,208.3L412.93,208.38L416.84,209.08L416.89,209.16L420.58,209.77L420.64,209.94L422.92,210.37L422.97,210.37L425.8,211.07L425.85,211.15L429.87,211.76L429.92,212.02L431.12,212.71L431.17,212.88L436.92,213.57L436.98,214.01L444.25,214.7L444.31,214.79L447.35,215.48L447.4,215.48L448.22,215.65L448.27,215.65" style="vector-effect: non-scaling-stroke; fill: none; stroke: rgb(99, 110, 250); stroke-opacity: 1; stroke-width: 2px; opacity: 1;"/></g><g class="points"/><g class="text"/></g></g></g><g class="overplot"><g class="xy2" transform="translate(78,20)" clip-path="url(#clip1a6ebbxy2plot)"><g class="scatterlayer mlayer"><g class="trace scatter tracee34564" style="stroke-miterlimit: 2; opacity: 1;"><g class="fills"/><g class="errorbars"/><g class="lines"><path class="js-line" d="M0,11.35L6.73,35.19L6.79,35.37L12.92,54.65L12.98,54.81L19.27,72.44L19.33,72.58L24.27,85.04L24.32,85.17L34.91,108.31L34.96,108.41L44.14,125.1L44.19,125.19L52.44,137.96L52.5,138.04L61.89,150.38L61.94,150.45L73.45,162.92L73.51,162.97L83.17,171.58L83.23,171.62L94.95,180.19L95.01,180.22L105.05,186.22L105.11,186.25L116.67,191.9L116.72,191.92L127.85,196.33L127.91,196.35L141.37,200.6L141.43,200.62L153.69,203.67L153.75,203.68L167.92,206.45L167.97,206.46L216.62,211.93L216.67,211.93L262.76,214.09L262.82,214.09L282.8,214.59L282.85,214.59L344.41,215.34L344.47,215.35L448.38,215.65" style="vector-effect: non-scaling-stroke; fill: none; stroke: rgb(239, 85, 59); stroke-opacity: 1; stroke-width: 2px; opacity: 1;"/></g><g class="points"/><g class="text"/></g></g></g></g><path class="xlines-above crisp" d="M0,0" style="fill: none;"/><path class="ylines-above crisp" d="M0,0" style="fill: none;"/><g class="overlines-above"><path class="xy2-x crisp" d="M0,0" style="fill: none;"/><path class="xy2-y crisp" d="M0,0" style="fill: none;"/></g><g class="xaxislayer-above"><g class="xtick"><text text-anchor="middle" x="0" y="260" transform="translate(78,0)" style="font-family: 'Open Sans', verdana, arial, sans-serif; font-size: 12px; fill: rgb(42, 63, 95); fill-opacity: 1; white-space: pre; opacity: 1;">0</text></g><g class="xtick"><text text-anchor="middle" x="0" y="260" style="font-family: 'Open Sans', verdana, arial, sans-serif; font-size: 12px; fill: rgb(42, 63, 95); fill-opacity: 1; white-space: pre; opacity: 1;" transform="translate(186.57999999999998,0)">2000</text></g><g class="xtick"><text text-anchor="middle" x="0" y="260" style="font-family: 'Open Sans', verdana, arial, sans-serif; font-size: 12px; fill: rgb(42, 63, 95); fill-opacity: 1; white-space: pre; opacity: 1;" transform="translate(295.15999999999997,0)">4000</text></g><g class="xtick"><text text-anchor="middle" x="0" y="260" style="font-family: 'Open Sans', verdana, arial, sans-serif; font-size: 12px; fill: rgb(42, 63, 95); fill-opacity: 1; white-space: pre; opacity: 1;" transform="translate(403.74,0)">6000</text></g><g class="xtick"><text text-anchor="middle" x="0" y="260" style="font-family: 'Open Sans', verdana, arial, sans-serif; font-size: 12px; fill: rgb(42, 63, 95); fill-opacity: 1; white-space: pre; opacity: 1;" transform="translate(512.3199999999999,0)">8000</text></g></g><g class="yaxislayer-above"><g class="ytick"><text text-anchor="end" x="77" y="4.199999999999999" transform="translate(0,213.85)" style="font-family: 'Open Sans', verdana, arial, sans-serif; font-size: 12px; fill: rgb(42, 63, 95); fill-opacity: 1; white-space: pre; opacity: 1;">−4000</text></g><g class="ytick"><text text-anchor="end" x="77" y="4.199999999999999" style="font-family: 'Open Sans', verdana, arial, sans-serif; font-size: 12px; fill: rgb(42, 63, 95); fill-opacity: 1; white-space: pre; opacity: 1;" transform="translate(0,170.61)">−3000</text></g><g class="ytick"><text text-anchor="end" x="77" y="4.199999999999999" style="font-family: 'Open Sans', verdana, arial, sans-serif; font-size: 12px; fill: rgb(42, 63, 95); fill-opacity: 1; white-space: pre; opacity: 1;" transform="translate(0,127.36)">−2000</text></g><g class="ytick"><text text-anchor="end" x="77" y="4.199999999999999" style="font-family: 'Open Sans', verdana, arial, sans-serif; font-size: 12px; fill: rgb(42, 63, 95); fill-opacity: 1; white-space: pre; opacity: 1;" transform="translate(0,84.11)">−1000</text></g><g class="ytick"><text text-anchor="end" x="77" y="4.199999999999999" style="font-family: 'Open Sans', verdana, arial, sans-serif; font-size: 12px; fill: rgb(42, 63, 95); fill-opacity: 1; white-space: pre; opacity: 1;" transform="translate(0,40.86)">0</text></g></g><g class="overaxes-above"><g class="xy2-x"/><g class="xy2-y"><g class="y2tick"><text text-anchor="start" x="527.38" y="4.199999999999999" transform="translate(0,235.7)" style="font-family: 'Open Sans', verdana, arial, sans-serif; font-size: 12px; fill: rgb(42, 63, 95); fill-opacity: 1; white-space: pre; opacity: 1;">0</text></g><g class="y2tick"><text text-anchor="start" x="527.38" y="4.199999999999999" style="font-family: 'Open Sans', verdana, arial, sans-serif; font-size: 12px; fill: rgb(42, 63, 95); fill-opacity: 1; white-space: pre; opacity: 1;" transform="translate(0,184.61)">500</text></g><g class="y2tick"><text text-anchor="start" x="527.38" y="4.199999999999999" style="font-family: 'Open Sans', verdana, arial, sans-serif; font-size: 12px; fill: rgb(42, 63, 95); fill-opacity: 1; white-space: pre; opacity: 1;" transform="translate(0,133.53)">1000</text></g><g class="y2tick"><text text-anchor="start" x="527.38" y="4.199999999999999" style="font-family: 'Open Sans', verdana, arial, sans-serif; font-size: 12px; fill: rgb(42, 63, 95); fill-opacity: 1; white-space: pre; opacity: 1;" transform="translate(0,82.44)">1500</text></g><g class="y2tick"><text text-anchor="start" x="527.38" y="4.199999999999999" style="font-family: 'Open Sans', verdana, arial, sans-serif; font-size: 12px; fill: rgb(42, 63, 95); fill-opacity: 1; white-space: pre; opacity: 1;" transform="translate(0,31.35)">2000</text></g></g></g></g><g class="subplot xy2"/></g><g class="polarlayer"/><g class="smithlayer"/><g class="ternarylayer"/><g class="geolayer"/><g class="funnelarealayer"/><g class="pielayer"/><g class="iciclelayer"/><g class="treemaplayer"/><g class="sunburstlayer"/><g class="glimages"/><defs id="topdefs-1a6ebb"><g class="clips"/><clipPath id="legend1a6ebb"><rect width="123" height="48" x="0" y="0"/></clipPath></defs><g class="layer-above"><g class="imagelayer"/><g class="shapelayer"/></g><g class="infolayer"><g class="legend" pointer-events="all" transform="translate(564.54,20)"><rect class="bg" shape-rendering="crispEdges" width="123" height="48" x="0" y="0" style="stroke: rgb(68, 68, 68); stroke-opacity: 1; fill: rgb(255, 255, 255); fill-opacity: 1; stroke-width: 0px;"/><g class="scrollbox" transform="" clip-path="url(#legend1a6ebb)"><g class="groups"><g class="traces" transform="translate(0,14.5)" style="opacity: 1;"><text class="legendtext" text-anchor="start" x="40" y="4.680000000000001" style="font-family: 'Open Sans', verdana, arial, sans-serif; font-size: 12px; fill: rgb(42, 63, 95); fill-opacity: 1; white-space: pre;">Cost</text><g class="layers" style="opacity: 1;"><g class="legendfill"/><g class="legendlines"><path class="js-line" d="M5,0h30" style="fill: none; stroke: rgb(99, 110, 250); stroke-opacity: 1; stroke-width: 2px;"/></g><g class="legendsymbols"><g class="legendpoints"/></g></g><rect class="legendtoggle" x="0" y="-9.5" width="117.265625" height="19" style="fill: rgb(0, 0, 0); fill-opacity: 0;"/></g><g class="traces" transform="translate(0,33.5)" style="opacity: 1;"><text class="legendtext" text-anchor="start" x="40" y="4.680000000000001" style="font-family: 'Open Sans', verdana, arial, sans-serif; font-size: 12px; fill: rgb(42, 63, 95); fill-opacity: 1; white-space: pre;">Temperature</text><g class="layers" style="opacity: 1;"><g class="legendfill"/><g class="legendlines"><path class="js-line" d="M5,0h30" style="fill: none; stroke: rgb(239, 85, 59); stroke-opacity: 1; stroke-width: 2px;"/></g><g class="legendsymbols"><g class="legendpoints"/></g></g><rect class="legendtoggle" x="0" y="-9.5" width="117.265625" height="19" style="fill: rgb(0, 0, 0); fill-opacity: 0;"/></g></g></g><rect class="scrollbar" rx="20" ry="3" width="0" height="0" x="0" y="0" style="fill: rgb(128, 139, 164); fill-opacity: 1;"/></g><g class="g-gtitle"/><g class="g-xtitle"><text class="xtitle" x="302.19" y="287.8" text-anchor="middle" style="font-family: 'Open Sans', verdana, arial, sans-serif; font-size: 14px; fill: rgb(42, 63, 95); opacity: 1; font-weight: normal; white-space: pre;">Iterations</text></g><g class="g-ytitle" transform="translate(2.1435546875,0)"><text class="ytitle" transform="rotate(-90,11.856250000000003,133.5)" x="11.856250000000003" y="133.5" text-anchor="middle" style="font-family: 'Open Sans', verdana, arial, sans-serif; font-size: 14px; fill: rgb(42, 63, 95); opacity: 1; font-weight: normal; white-space: pre;">Cost</text></g><g class="g-y2title"><text class="y2title" transform="rotate(-90,583.08125,133.5)" x="583.08125" y="133.5" text-anchor="middle" style="font-family: 'Open Sans', verdana, arial, sans-serif; font-size: 14px; fill: rgb(42, 63, 95); opacity: 1; font-weight: normal; white-space: pre;">Temperature</text></g></g></svg>