<svg class="main-svg" xmlns="http://www.w3.org/2000/svg" xmlns:xlink="http://www.w3.org/1999/xlink" width="700" height="300" style="" viewBox="0 0 700 300"><rect x="0" y="0" width="700" height="300" style="fill: rgb(255, 255, 255); fill-opacity: 1;"/><defs id="defs-7a5598"><g class="clips"><clipPath id="clip7a5598xyplot" class="plotclip"><rect width="455.9" height="227"/></clipPath><clipPath id="clip7a5598xy2plot" class="plotclip"><rect width="455.9" height="227"/></clipPath><clipPath class="axesclip" id="clip7a5598x"><rect x="70" y="0" width="455.9" height="300"/></clipPath><clipPath class="axesclip" id="clip7a5598y"><rect x="0" y="20" width="700" height="227"/></clipPath><clipPath class="axesclip" id="clip7a5598xy"><rect x="70" y="20" width="455.9" height="227"/></clipPath><clipPath class="axesclip" id="clip7a5598y2"><rect x="0" y="20" width="700" height="227"/></clipPath><clipPath class="axesclip" id="clip7a5598xy2"><rect x="70" y="20" width="455.9" height="227"/></clipPath></g><g class="gradients"/><g class="patterns"/></defs><g class="bglayer"><rect class="bg" x="70" y="20" width="455.9" height="227" style="fill: rgb(229, 236, 246); fill-opacity: 1; stroke-width: 0;"/></g><g class="layer-below"><g class="imagelayer"/><g class="shapelayer"/></g><g class="cartesianlayer"><g class="subplot xy"><g class="layer-subplot"><g class="shapelayer"/><g class="imagelayer"/></g><g class="gridlayer"><g class="x"><path class="xgrid crisp" transform="translate(145.74,0)" d="M0,20v227" style="stroke: rgb(255, 255, 255); stroke-opacity: 1; stroke-width: 1px;"/><path class="xgrid crisp" transform="translate(221.49,0)" d="M0,20v227" style="stroke: rgb(255, 255, 255); stroke-opacity: 1; stroke-width: 1px;"/><path class="xgrid crisp" transform="translate(297.23,0)" d="M0,20v227" style="stroke: rgb(255, 255, 255); stroke-opacity: 1; stroke-width: 1px;"/><path class="xgrid crisp" transform="translate(372.97,0)" d="M0,20v227" style="stroke: rgb(255, 255, 255); stroke-opacity: 1; stroke-width: 1px;"/><path class="xgrid crisp" transform="translate(448.72,0)" d="M0,20v227" style="stroke: rgb(255, 255, 255); stroke-opacity: 1; stroke-width: 1px;"/><path class="xgrid crisp" transform="translate(524.46,0)" d="M0,20v227" style="stroke: rgb(255, 255, 255); stroke-opacity: 1; stroke-width: 1px;"/></g><g class="y"><path class="ygrid crisp" transform="translate(0,204.7)" d="M70,0h455.9" style="stroke: rgb(255, 255, 255); stroke-opacity: 1; stroke-width: 1px;"/><path class="ygrid crisp" transform="translate(0,162.99)" d="M70,0h455.9" style="stroke: rgb(255, 255, 255); stroke-opacity: 1; stroke-width: 1px;"/><path class="ygrid crisp" transform="translate(0,121.28)" d="M70,0h455.9" style="stroke: rgb(255, 255, 255); stroke-opacity: 1; stroke-width: 1px;"/><path class="ygrid crisp" transform="translate(0,79.57)" d="M70,0h455.9" style="stroke: rgb(255, 255, 255); stroke-opacity: 1; stroke-width: 1px;"/></g><g class="y2"><path class="y2grid crisp" transform="translate(0,184.58)" d="M70,0h455.9" style="stroke: rgb(255, 255, 255); stroke-opacity: 1; stroke-width: 1px;"/><path class="y2grid crisp" transform="translate(0,133.5)" d="M70,0h455.9" style="stroke: rgb(255, 255, 255); stroke-opacity: 1; stroke-width: 1px;"/><path class="y2grid crisp" transform="translate(0,82.43)" d="M70,0h455.9" style="stroke: rgb(255, 255, 255); stroke-opacity: 1; stroke-width: 1px;"/><path class="y2grid crisp" transform="translate(0,31.35)" d="M70,0h455.9" style="stroke: rgb(255, 255, 255); stroke-opacity: 1; stroke-width: 1px;"/></g></g><g class="zerolinelayer"><path class="xzl zl crisp" transform="translate(70,0)" d="M0,20v227" style="stroke: rgb(255, 255, 255); stroke-opacity: 1; stroke-width: 2px;"/><path class="yzl zl crisp" transform="translate(0,37.86)" d="M70,0h455.9" style="stroke: rgb(255, 255, 255); stroke-opacity: 1; stroke-width: 2px;"/><path class="y2zl zl crisp" transform="translate(0,235.65)" d="M70,0h455.9" style="stroke: rgb(255, 255, 255); stroke-opacity: 1; stroke-width: 2px;"/></g><path class="xlines-below"/><path class="ylines-below"/><g class="overlines-below"><path class="xy2-x"/><path class="xy2-y"/></g><g class="xaxislayer-below"/><g class="yaxislayer-below"/><g class="overaxes-below"><g class="xy2-x"/><g class="xy2-y"/></g><g class="plot" transform="translate(70,20)" clip-path="url(#clip7a5598xyplot)"><g class="scatterlayer mlayer"><g class="trace scatter trace270800" style="stroke-miterlimit: 2; opacity: 1;"><g class="fills"/><g class="errorbars"/><g class="lines"><path class="js-line" d="M0,18.98L0.15,21.36L0.38,18.36L0.76,20.28L0.83,19.15L1.29,20.36L1.74,16.23L1.82,16.9L2.35,17.23L2.8,11.35L2.88,13.52L3.86,18.9L3.94,18.61L4.47,15.27L4.7,18.23L4.77,18.69L4.92,18.02L5,20.61L5.07,20.82L5.15,18.9L5.23,18.73L5.83,15.9L5.98,17.02L6.06,17.65L6.44,18.98L6.67,17.36L6.74,16.69L6.89,17.61L7.27,15.85L7.35,17.19L7.42,17.69L7.57,19.23L8.1,18.86L8.18,17.82L8.26,19.02L8.63,16.73L8.79,17.4L8.86,15.98L8.94,15.15L9.39,17.77L9.47,16.98L9.54,17.82L9.77,18.98L9.85,17.23L9.92,18.11L10,19.9L10.07,20.15L10.23,19.19L10.45,19.53L10.53,18.19L10.6,17.94L10.83,19.53L10.91,20.07L11.82,24.61L11.89,23.61L11.97,22.61L12.19,22.36L12.88,25.36L12.95,25.03L13.03,24.99L14.62,28.95L14.69,28.91L14.77,28.12L14.85,27.53L15.22,29.2L15.3,30.12L15.45,30.79L15.83,29.12L15.91,29.45L15.98,28.28L16.97,30.12L17.04,28.87L17.12,28.49L17.5,30.08L17.57,30.12L17.88,31.45L18.25,31.25L18.33,30.62L19.24,35.21L19.69,34.37L19.77,33.29L23.03,42.51L23.1,42.38L23.78,43.84L24.09,43.43L24.16,42.47L25.3,45.14L25.37,44.93L25.45,45.47L27.34,48.35L27.42,47.93L27.49,47.97L28.93,51.43L29.01,51.27L29.09,50.56L29.69,51.43L29.77,51.52L30.75,52.73L30.83,52.77L30.98,52.56L31.43,53.39L31.51,52.52L31.59,52.64L32.72,55.19L32.8,55.23L34.24,57.19L34.31,57.32L35.22,58.32L35.3,57.69L35.37,57.73L36.96,61.44L37.04,61.49L37.72,62.99L37.8,63.07L40.22,67.37L40.3,66.49L42.26,69.41L42.34,69.45L43.25,70.83L43.33,70.95L45.37,74.04L45.45,74.12L47.26,77.21L47.34,77.42L54.69,87.97L54.76,88.01L59.53,94.86L59.61,94.9L63.17,98.65L63.25,98.69L70.52,107.95L70.59,107.99L72.11,109.95L72.18,110L73.4,111.41L73.47,111.54L75.52,114.13L75.59,114.33L77.56,117L77.64,117.17L81.12,121.13L81.2,121.3L86.57,127.56L86.65,127.6L92.48,133.23L92.56,133.27L96.72,137.78L96.8,137.94L98.47,139.32L98.54,139.32L99.83,140.9L99.91,140.95L101.27,142.66L101.34,142.7L102.33,143.66L102.41,143.82L103.77,144.57L103.84,144.62L106.19,146.45L106.27,146.49L111.34,150.12L111.42,150.29L118.46,155.21L118.54,155.25L120.66,156.55L120.74,156.67L126.49,159.01L126.57,159.01L127.78,159.72L127.85,159.8L140.5,165.3L140.58,165.3L144.14,166.6L144.22,166.6L146.79,167.31L146.87,167.43L148.68,168.18L148.76,168.27L150.88,168.98L150.96,169.06L154.82,171.39L154.9,171.39L157.02,172.06L157.09,172.15L158.99,172.9L159.06,172.98L164.97,175.27L165.05,175.4L173.15,177.69L173.23,177.69L175.65,178.36L175.72,178.49L177.77,179.11L177.85,179.11L181.1,180.36L181.18,180.36L204.81,186.2L204.89,186.2L208.82,186.83L208.9,187.04L211.02,187.79L211.1,187.83L217.23,188.7L217.31,188.7L218.67,189.37L218.75,189.37L224.43,190.08L224.5,190.16L227.84,190.87L227.91,190.96L229.73,191.12L229.81,191.12L232.53,191.33L232.61,191.33L248.21,194.79L248.29,194.79L253.06,195.5L253.13,195.59L259.95,196.3L260.03,196.42L265.56,197.05L265.63,197.26L275.02,198.01L275.1,198.05L279.19,198.38L279.27,198.38L284.11,199.17L284.19,199.17L287.3,199.76L287.37,199.76L294.95,200.43L295.02,200.63L301.31,201.26L301.38,201.43L308.58,202.14L308.65,202.22L314.56,202.97L314.64,203.01L322.36,203.72L322.44,203.85L329.18,204.55L329.26,204.64L335.7,205.39L335.77,205.51L346.37,206.22L346.45,206.27L360.54,207.02L360.61,207.06L366.3,207.77L366.37,207.77L369.4,207.81L369.48,207.81L381.6,208.48L381.67,208.6L390.23,209.35L390.31,209.39L392.2,209.69L392.28,209.69L398.03,210.44L398.11,210.48L408.03,211.15L408.11,211.31L412.04,211.6L412.12,211.6L422.42,212.31L422.5,212.4L428.41,213.52L428.48,213.52L438.48,214.57L438.55,214.57L442.11,214.69L442.19,214.69L447.27,215.27L447.34,215.27L455.9,215.65" style="vector-effect: non-scaling-stroke; fill: none; stroke: rgb(99, 110, 250); stroke-opacity: 1; stroke-width: 2px; opacity: 1;"/></g><g class="points"/><g class="text"/></g></g></g><g class="overplot"><g class="xy2" transform="translate(70,20)" clip-path="url(#clip7a5598xy2plot)"><g class="scatterlayer mlayer"><g class="trace scatter trace0c8e4f" style="stroke-miterlimit: 2; opacity: 1;"><g class="fills"/><g class="errorbars"/><g class="lines"><path class="js-line" d="M0,11.35L4.54,89.48L4.62,90.49L9.16,138.35L9.24,138.97L13.86,168.67L13.94,169.05L17.42,183.44L17.5,183.7L20.83,193.21L20.91,193.39L24.39,200.27L24.47,200.39L28.93,206.15L29.01,206.23L33.78,209.97L33.86,210.01L39.54,212.56L39.61,212.59L47.72,214.35L47.79,214.36L61.73,215.36L61.81,215.36L84,215.62L84.08,215.62L455.9,215.65" style="vector-effect: non-scaling-stroke; fill: none; stroke: rgb(239, 85, 59); stroke-opacity: 1; stroke-width: 2px; opacity: 1;"/></g><g class="points"/><g class="text"/></g></g></g></g><path class="xlines-above crisp" d="M0,0" style="fill: none;"/><path class="ylines-above crisp" d="M0,0" style="fill: none;"/><g class="overlines-above"><path class="xy2-x crisp" d="M0,0" style="fill: none;"/><path class="xy2-y crisp" d="M0,0" style="fill: none;"/></g><g class="xaxislayer-above"><g class="xtick"><text text-anchor="middle" x="0" y="260" transform="translate(70,0)" style="font-family: 'Open Sans', verdana, arial, sans-serif; font-size: 12px; fill: rgb(42, 63, 95); fill-opacity: 1; white-space: pre; opacity: 1;">0</text></g><g class="xtick"><text text-anchor="middle" x="0" y="260" style="font-family: 'Open Sans', verdana, arial, sans-serif; font-size: 12px; fill: rgb(42, 63, 95); fill-opacity: 1; white-space: pre; opacity: 1;" transform="translate(145.74,0)">1000</text></g><g class="xtick"><text text-anchor="middle" x="0" y="260" style="font-family: 'Open Sans', verdana, arial, sans-serif; font-size: 12px; fill: rgb(42, 63, 95); fill-opacity: 1; white-space: pre; opacity: 1;" transform="translate(221.49,0)">2000</text></g><g class="xtick"><text text-anchor="middle" x="0" y="260" style="font-family: 'Open Sans', verdana, arial, sans-serif; font-size: 12px; fill: rgb(42, 63, 95); fill-opacity: 1; white-space: pre; opacity: 1;" transform="translate(297.23,0)">3000</text></g><g class="xtick"><text text-anchor="middle" x="0" y="260" style="font-family: 'Open Sans', verdana, arial, sans-serif; font-size: 12px; fill: rgb(42, 63, 95); fill-opacity: 1; white-space: pre; opacity: 1;" transform="translate(372.97,0)">4000</text></g><g class="xtick"><text text-anchor="middle" x="0" y="260" style="font-family: 'Open Sans', verdana, arial, sans-serif; font-size: 12px; fill: rgb(42, 63, 95); fill-opacity: 1; white-space: pre; opacity: 1;" transform="translate(448.72,0)">5000</text></g><g class="xtick"><text text-anchor="middle" x="0" y="260" style="font-family: 'Open Sans', verdana, arial, sans-serif; font-size: 12px; fill: rgb(42, 63, 95); fill-opacity: 1; white-space: pre; opacity: 1;" transform="translate(524.46,0)">6000</text></g></g><g class="yaxislayer-above"><g class="ytick"><text text-anchor="end" x="69" y="4.199999999999999" transform="translate(0,246.41)" style="font-family: 'Open Sans', verdana, arial, sans-serif; font-size: 12px; fill: rgb(42, 63, 95); fill-opacity: 1; white-space: pre; opacity: 1;">−10k</text></g><g class="ytick"><text text-anchor="end" x="69" y="4.199999999999999" style="font-family: 'Open Sans', verdana, arial, sans-serif; font-size: 12px; fill: rgb(42, 63, 95); fill-opacity: 1; white-space: pre; opacity: 1;" transform="translate(0,204.7)">−8k</text></g><g class="ytick"><text text-anchor="end" x="69" y="4.199999999999999" style="font-family: 'Open Sans', verdana, arial, sans-serif; font-size: 12px; fill: rgb(42, 63, 95); fill-opacity: 1; white-space: pre; opacity: 1;" transform="translate(0,162.99)">−6k</text></g><g class="ytick"><text text-anchor="end" x="69" y="4.199999999999999" style="font-family: 'Open Sans', verdana, arial, sans-serif; font-size: 12px; fill: rgb(42, 63, 95); fill-opacity: 1; white-space: pre; opacity: 1;" transform="translate(0,121.28)">−4k</text></g><g class="ytick"><text text-anchor="end" x="69" y="4.199999999999999" style="font-family: 'Open Sans', verdana, arial, sans-serif; font-size: 12px; fill: rgb(42, 63, 95); fill-opacity: 1; white-space: pre; opacity: 1;" transform="translate(0,79.57)">−2k</text></g><g class="ytick"><text text-anchor="end" x="69" y="4.199999999999999" style="font-family: 'Open Sans', verdana, arial, sans-serif; font-size: 12px; fill: rgb(42, 63, 95); fill-opacity: 1; white-space: pre; opacity: 1;" transform="translate(0,37.86)">0</text></g></g><g class="overaxes-above"><g class="xy2-x"/><g class="xy2-y"><g class="y2tick"><text text-anchor="start" x="526.9" y="4.199999999999999" transform="translate(0,235.65)" style="font-family: 'Open Sans', verdana, arial, sans-serif; font-size: 12px; fill: rgb(42, 63, 95); fill-opacity: 1; white-space: pre; opacity: 1;">0</text></g><g class="y2tick"><text text-anchor="start" x="526.9" y="4.199999999999999" style="font-family: 'Open Sans', verdana, arial, sans-serif; font-size: 12px; fill: rgb(42, 63, 95); fill-opacity: 1; white-space: pre; opacity: 1;" transform="translate(0,184.58)">500</text></g><g class="y2tick"><text text-anchor="start" x="526.9" y="4.199999999999999" style="font-family: 'Open Sans', verdana, arial, sans-serif; font-size: 12px; fill: rgb(42, 63, 95); fill-opacity: 1; white-space: pre; opacity: 1;" transform="translate(0,133.5)">1000</text></g><g class="y2tick"><text text-anchor="start" x="526.9" y="4.199999999999999" style="font-family: 'Open Sans', verdana, arial, sans-serif; font-size: 12px; fill: rgb(42, 63, 95); fill-opacity: 1; white-space: pre; opacity: 1;" transform="translate(0,82.43)">1500</text></g><g class="y2tick"><text text-anchor="start" x="526.9" y="4.199999999999999" style="font-family: 'Open Sans', verdana, arial, sans-serif; font-size: 12px; fill: rgb(42, 63, 95); fill-opacity: 1; white-space: pre; opacity: 1;" transform="translate(0,31.35)">2000</text></g></g></g></g><g class="subplot xy2"/></g><g class="polarlayer"/><g class="smithlayer"/><g class="ternarylayer"/><g class="geolayer"/><g class="funnelarealayer"/><g class="pielayer"/><g class="iciclelayer"/><g class="treemaplayer"/><g class="sunburstlayer"/><g class="glimages"/><defs id="topdefs-7a5598"><g class="clips"/><clipPath id="legend7a5598"><rect width="123" height="48" x="0" y="0"/></clipPath></defs><g class="layer-above"><g class="imagelayer"/><g class="shapelayer"/></g><g class="infolayer"><g class="legend" pointer-events="all" transform="translate(564.7,20)"><rect class="bg" shape-rendering="crispEdges" width="123" height="48" x="0" y="0" style="stroke: rgb(68, 68, 68); stroke-opacity: 1; fill: rgb(255, 255, 255); fill-opacity: 1; stroke-width: 0px;"/><g class="scrollbox" transform="" clip-path="url(#legend7a5598)"><g class="groups"><g class="traces" transform="translate(0,14.5)" style="opacity: 1;"><text class="legendtext" text-anchor="start" x="40" y="4.680000000000001" style="font-family: 'Open Sans', verdana, arial, sans-serif; font-size: 12px; fill: rgb(42, 63, 95); fill-opacity: 1; white-space: pre;">Cost</text><g class="layers" style="opacity: 1;"><g class="legendfill"/><g class="legendlines"><path class="js-line" d="M5,0h30" style="fill: none; stroke: rgb(99, 110, 250); stroke-opacity: 1; stroke-width: 2px;"/></g><g class="legendsymbols"><g class="legendpoints"/></g></g><rect class="legendtoggle" x="0" y="-9.5" width="117.265625" height="19" style="fill: rgb(0, 0, 0); fill-opacity: 0;"/></g><g class="traces" transform="translate(0,33.5)" style="opacity: 1;"><text class="legendtext" text-anchor="start" x="40" y="4.680000000000001" style="font-family: 'Open Sans', verdana, arial, sans-serif; font-size: 12px; fill: rgb(42, 63, 95); fill-opacity: 1; white-space: pre;">Temperature</text><g class="layers" style="opacity: 1;"><g class="legendfill"/><g class="legendlines"><path class="js-line" d="M5,0h30" style="fill: none; stroke: rgb(239, 85, 59); stroke-opacity: 1; stroke-width: 2px;"/></g><g class="legendsymbols"><g class="legendpoints"/></g></g><rect class="legendtoggle" x="0" y="-9.5" width="117.265625" height="19" style="fill: rgb(0, 0, 0); fill-opacity: 0;"/></g></g></g><rect class="scrollbar" rx="20" ry="3" width="0" height="0" x="0" y="0" style="fill: rgb(128, 139, 164); fill-opacity: 1;"/></g><g class="g-gtitle"/><g class="g-xtitle"><text class="xtitle" x="297.95" y="287.8" text-anchor="middle" style="font-family: 'Open Sans', verdana, arial, sans-serif; font-size: 14px; fill: rgb(42, 63, 95); opacity: 1; font-weight: normal; white-space: pre;">Iterations</text></g><g class="g-ytitle" transform="translate(1.9873046875,0)"><text class="ytitle" transform="rotate(-90,12.012500000000003,133.5)" x="12.012500000000003" y="133.5" text-anchor="middle" style="font-family: 'Open Sans', verdana, arial, sans-serif; font-size: 14px; fill: rgb(42, 63, 95); opacity: 1; font-weight: normal; white-space: pre;">Cost</text></g><g class="g-y2title"><text class="y2title" transform="rotate(-90,582.596875,133.5)" x="582.596875" y="133.5" text-anchor="middle" style="font-family: 'Open Sans', verdana, arial, sans-serif; font-size: 14px; fill: rgb(42, 63, 95); opacity: 1; font-weight: normal; white-space: pre;">Temperature</text></g></g></svg>