<svg class="main-svg" xmlns="http://www.w3.org/2000/svg" xmlns:xlink="http://www.w3.org/1999/xlink" width="700" height="300" style="" viewBox="0 0 700 300"><rect x="0" y="0" width="700" height="300" style="fill: rgb(255, 255, 255); fill-opacity: 1;"/><defs id="defs-22ec3a"><g class="clips"><clipPath id="clip22ec3axyplot" class="plotclip"><rect width="457.78" height="227"/></clipPath><clipPath id="clip22ec3axy2plot" class="plotclip"><rect width="457.78" height="227"/></clipPath><clipPath class="axesclip" id="clip22ec3ax"><rect x="68" y="0" width="457.78" height="300"/></clipPath><clipPath class="axesclip" id="clip22ec3ay"><rect x="0" y="20" width="700" height="227"/></clipPath><clipPath class="axesclip" id="clip22ec3axy"><rect x="68" y="20" width="457.78" height="227"/></clipPath><clipPath class="axesclip" id="clip22ec3ay2"><rect x="0" y="20" width="700" height="227"/></clipPath><clipPath class="axesclip" id="clip22ec3axy2"><rect x="68" y="20" width="457.78" height="227"/></clipPath></g><g class="gradients"/><g class="patterns"/></defs><g class="bglayer"><rect class="bg" x="68" y="20" width="457.78" height="227" style="fill: rgb(229, 236, 246); fill-opacity: 1; stroke-width: 0;"/></g><g class="layer-below"><g class="imagelayer"/><g class="shapelayer"/></g><g class="cartesianlayer"><g class="subplot xy"><g class="layer-subplot"><g class="shapelayer"/><g class="imagelayer"/></g><g class="gridlayer"><g class="x"><path class="xgrid crisp" transform="translate(151.1,0)" d="M0,20v227" style="stroke: rgb(255, 255, 255); stroke-opacity: 1; stroke-width: 1px;"/><path class="xgrid crisp" transform="translate(234.19,0)" d="M0,20v227" style="stroke: rgb(255, 255, 255); stroke-opacity: 1; stroke-width: 1px;"/><path class="xgrid crisp" transform="translate(317.28999999999996,0)" d="M0,20v227" style="stroke: rgb(255, 255, 255); stroke-opacity: 1; stroke-width: 1px;"/><path class="xgrid crisp" transform="translate(400.39,0)" d="M0,20v227" style="stroke: rgb(255, 255, 255); stroke-opacity: 1; stroke-width: 1px;"/><path class="xgrid crisp" transform="translate(483.48,0)" d="M0,20v227" style="stroke: rgb(255, 255, 255); stroke-opacity: 1; stroke-width: 1px;"/></g><g class="y"><path class="ygrid crisp" transform="translate(0,245.89)" d="M68,0h457.78" style="stroke: rgb(255, 255, 255); stroke-opacity: 1; stroke-width: 1px;"/><path class="ygrid crisp" transform="translate(0,188.98)" d="M68,0h457.78" style="stroke: rgb(255, 255, 255); stroke-opacity: 1; stroke-width: 1px;"/><path class="ygrid crisp" transform="translate(0,132.07999999999998)" d="M68,0h457.78" style="stroke: rgb(255, 255, 255); stroke-opacity: 1; stroke-width: 1px;"/><path class="ygrid crisp" transform="translate(0,75.18)" d="M68,0h457.78" style="stroke: rgb(255, 255, 255); stroke-opacity: 1; stroke-width: 1px;"/></g><g class="y2"><path class="y2grid crisp" transform="translate(0,184.58)" d="M68,0h457.78" style="stroke: rgb(255, 255, 255); stroke-opacity: 1; stroke-width: 1px;"/><path class="y2grid crisp" transform="translate(0,133.5)" d="M68,0h457.78" style="stroke: rgb(255, 255, 255); stroke-opacity: 1; stroke-width: 1px;"/><path class="y2grid crisp" transform="translate(0,82.43)" d="M68,0h457.78" style="stroke: rgb(255, 255, 255); stroke-opacity: 1; stroke-width: 1px;"/><path class="y2grid crisp" transform="translate(0,31.35)" d="M68,0h457.78" style="stroke: rgb(255, 255, 255); stroke-opacity: 1; stroke-width: 1px;"/></g></g><g class="zerolinelayer"><path class="xzl zl crisp" transform="translate(68,0)" d="M0,20v227" style="stroke: rgb(255, 255, 255); stroke-opacity: 1; stroke-width: 2px;"/><path class="y2zl zl crisp" transform="translate(0,235.65)" d="M68,0h457.78" style="stroke: rgb(255, 255, 255); stroke-opacity: 1; stroke-width: 2px;"/></g><path class="xlines-below"/><path class="ylines-below"/><g class="overlines-below"><path class="xy2-x"/><path class="xy2-y"/></g><g class="xaxislayer-below"/><g class="yaxislayer-below"/><g class="overaxes-below"><g class="xy2-x"/><g class="xy2-y"/></g><g class="plot" transform="translate(68,20)" clip-path="url(#clip22ec3axyplot)"><g class="scatterlayer mlayer"><g class="trace scatter trace7c27f9" style="stroke-miterlimit: 2; opacity: 1;"><g class="fills"/><g class="errorbars"/><g class="lines"><path class="js-line" d="M0,20.92L0.5,12.02L0.66,19.89L0.75,24.05L0.91,22.3L1,17.84L1.41,23.94L1.83,11.35L1.91,12.56L2.41,20.86L2.66,14.29L2.74,19.18L3.74,26.27L3.82,23.7L4.24,26.26L4.4,21.56L4.49,24.99L4.57,20.98L4.82,21.46L5.48,14.62L5.57,17.71L5.73,16.62L5.9,20.4L6.07,18.86L6.15,23.42L6.23,23.21L6.4,24.79L6.48,31.44L7.23,14.58L7.4,17.8L7.48,16.26L7.56,15.66L7.64,20.58L7.73,23.04L7.81,24.07L7.98,20.11L8.23,23.42L8.31,17.23L8.48,16L8.81,22.98L9.22,21.64L9.31,20.82L9.39,21L9.47,18.09L10.05,22.03L10.22,19.82L10.3,26.91L10.8,23.9L10.89,27.94L10.97,25.6L11.05,29.92L11.3,32.19L11.47,25.89L11.72,27.27L11.8,31.09L12.22,23.16L12.55,27.59L12.63,28.7L12.8,21.19L13.38,25.19L13.46,26.94L13.54,27.65L13.71,23.43L14.04,26.4L14.13,22.51L14.71,26.87L14.79,20.06L14.87,23.55L14.96,24.68L15.79,35.5L15.87,31.77L15.95,29.16L16.12,28.44L16.79,34.91L16.87,33.51L17.53,33.3L17.7,35.59L17.78,32.24L18.03,36.26L18.45,35.37L18.53,30.63L18.78,32.77L19.11,28.48L19.2,28.85L20.77,42.49L20.86,42.58L21.19,45.85L21.27,47.89L21.44,48.68L21.52,45.57L21.61,45.24L21.69,43.9L22.1,47.59L22.19,46.7L22.27,47.77L23.1,50.36L23.18,47.75L23.35,49.33L23.43,47.05L23.6,47.36L23.68,45.26L24.35,49.99L24.6,48.72L24.68,46.66L25.59,50.29L25.68,46.24L26.34,49.58L26.42,47.73L27.92,53.55L28,51.3L28.34,52.18L28.42,52.71L29.91,61.84L30,61.94L30.08,62.07L30.16,60.18L30.5,62.61L30.58,61.21L30.66,59.39L32.24,65.5L32.32,65.68L32.49,62.13L33.07,64.95L33.16,65.48L33.9,68.29L33.99,68.66L34.82,71.32L34.9,71.02L34.98,71.15L36.65,75.74L36.73,74.05L38.06,78.51L38.22,77.86L38.31,77.89L38.64,78.01L38.72,78.97L38.81,78.64L39.14,79.22L39.22,80.05L39.89,82.23L40.22,81.76L40.3,81.82L40.47,80.91L40.97,82.23L41.05,82.82L41.8,85.63L41.88,86.13L42.55,88.29L42.71,87.02L42.79,87.16L44.12,91.59L44.21,91.66L45.29,93.67L45.37,92.92L47.03,98.01L47.12,98.04L47.45,99.17L47.53,97.59L47.86,98.21L47.95,98.21L50.11,102.44L50.19,102.47L54.01,111.15L54.1,111.47L57,119.34L57.09,119.59L58.17,121.29L58.25,121.4L62.57,130.74L62.65,130.9L64.73,134.44L64.82,134.44L66.89,137.35L66.98,137.35L67.47,138.29L67.56,138.45L68.55,139.62L68.64,139.68L69.72,140.88L69.8,141.03L70.8,142.81L70.88,142.81L78.94,153.3L79.03,153.3L79.86,153.99L79.94,154.23L82.6,156.39L82.68,156.39L83.93,157.91L84.01,157.91L85.67,159.07L85.76,159.09L88.58,160.36L88.66,160.36L92.9,163.63L92.99,163.63L94.23,164.25L94.31,164.41L95.89,165.01L95.98,165.3L97.72,167.29L97.8,167.38L98.8,167.82L98.89,167.87L101.54,169.06L101.63,169.16L104.12,170.22L104.2,170.22L105.95,170.99L106.03,170.99L113.26,173.19L113.34,173.4L116.92,174.95L117,175.35L119.08,176.09L119.16,176.26L121.82,177.39L121.9,177.39L124.98,177.99L125.06,178.21L127.14,178.96L127.22,179.2L129.3,179.85L129.38,180.05L131.04,181.09L131.13,181.09L133.54,181.84L133.62,181.86L136.61,182.59L136.69,182.7L140.77,183.22L140.85,183.48L144.75,184.1L144.84,184.4L145.67,184.68L145.75,184.7L155.56,187.03L155.64,187.24L160.29,188.2L160.38,188.28L162.37,189.01L162.45,189.08L165.45,189.76L165.53,189.98L168.52,190.67L168.6,190.83L173.01,191.48L173.09,191.62L174.75,191.84L174.84,191.84L178.24,192.56L178.33,192.65L181.32,193.22L181.4,193.45L188.46,194.2L188.55,194.37L206.16,197.33L206.25,197.33L210.98,198.01L211.07,198.16L216.3,198.79L216.38,198.95L237.24,201.02L237.32,201.02L248.38,201.74L248.46,202.06L254.44,202.7L254.53,202.7L263.92,203.75L264,203.75L269.98,204.42L270.06,204.57L303.39,207.26L303.47,207.35L318.84,208.08L318.93,208.12L325.57,208.8L325.66,208.92L331.06,209.55L331.14,209.55L354.66,210.27L354.74,210.39L368.87,210.98L368.95,211.2L390.06,211.91L390.14,212.08L402.27,212.83L402.35,212.87L409.75,213.62L409.83,213.74L432.44,214.47L432.52,214.55L451.05,215.27L451.13,215.39L457.78,215.65" style="vector-effect: non-scaling-stroke; fill: none; stroke: rgb(99, 110, 250); stroke-opacity: 1; stroke-width: 2px; opacity: 1;"/></g><g class="points"/><g class="text"/></g></g></g><g class="overplot"><g class="xy2" transform="translate(68,20)" clip-path="url(#clip22ec3axy2plot)"><g class="scatterlayer mlayer"><g class="trace scatter tracee0461f" style="stroke-miterlimit: 2; opacity: 1;"><g class="fills"/><g class="errorbars"/><g class="lines"><path class="js-line" d="M0,11.35L3.82,74.46L3.91,75.59L7.73,118.85L7.81,119.63L11.63,149.29L11.72,149.82L15.54,170.16L15.62,170.52L20.77,188.22L20.86,188.44L24.76,197L24.85,197.15L29.58,203.94L29.67,204.04L34.49,208.36L34.57,208.42L39.39,211.11L39.47,211.15L47.03,213.48L47.12,213.5L58.83,214.96L58.92,214.96L80.35,215.56L80.44,215.56L93.57,215.63L93.65,215.63L457.78,215.65" style="vector-effect: non-scaling-stroke; fill: none; stroke: rgb(239, 85, 59); stroke-opacity: 1; stroke-width: 2px; opacity: 1;"/></g><g class="points"/><g class="text"/></g></g></g></g><path class="xlines-above crisp" d="M0,0" style="fill: none;"/><path class="ylines-above crisp" d="M0,0" style="fill: none;"/><g class="overlines-above"><path class="xy2-x crisp" d="M0,0" style="fill: none;"/><path class="xy2-y crisp" d="M0,0" style="fill: none;"/></g><g class="xaxislayer-above"><g class="xtick"><text text-anchor="middle" x="0" y="260" transform="translate(68,0)" style="font-family: 'Open Sans', verdana, arial, sans-serif; font-size: 12px; fill: rgb(42, 63, 95); fill-opacity: 1; white-space: pre; opacity: 1;">0</text></g><g class="xtick"><text text-anchor="middle" x="0" y="260" style="font-family: 'Open Sans', verdana, arial, sans-serif; font-size: 12px; fill: rgb(42, 63, 95); fill-opacity: 1; white-space: pre; opacity: 1;" transform="translate(151.1,0)">1000</text></g><g class="xtick"><text text-anchor="middle" x="0" y="260" style="font-family: 'Open Sans', verdana, arial, sans-serif; font-size: 12px; fill: rgb(42, 63, 95); fill-opacity: 1; white-space: pre; opacity: 1;" transform="translate(234.19,0)">2000</text></g><g class="xtick"><text text-anchor="middle" x="0" y="260" style="font-family: 'Open Sans', verdana, arial, sans-serif; font-size: 12px; fill: rgb(42, 63, 95); fill-opacity: 1; white-space: pre; opacity: 1;" transform="translate(317.28999999999996,0)">3000</text></g><g class="xtick"><text text-anchor="middle" x="0" y="260" style="font-family: 'Open Sans', verdana, arial, sans-serif; font-size: 12px; fill: rgb(42, 63, 95); fill-opacity: 1; white-space: pre; opacity: 1;" transform="translate(400.39,0)">4000</text></g><g class="xtick"><text text-anchor="middle" x="0" y="260" style="font-family: 'Open Sans', verdana, arial, sans-serif; font-size: 12px; fill: rgb(42, 63, 95); fill-opacity: 1; white-space: pre; opacity: 1;" transform="translate(483.48,0)">5000</text></g></g><g class="yaxislayer-above"><g class="ytick"><text text-anchor="end" x="67" y="4.199999999999999" transform="translate(0,245.89)" style="font-family: 'Open Sans', verdana, arial, sans-serif; font-size: 12px; fill: rgb(42, 63, 95); fill-opacity: 1; white-space: pre; opacity: 1;">80k</text></g><g class="ytick"><text text-anchor="end" x="67" y="4.199999999999999" style="font-family: 'Open Sans', verdana, arial, sans-serif; font-size: 12px; fill: rgb(42, 63, 95); fill-opacity: 1; white-space: pre; opacity: 1;" transform="translate(0,188.98)">100k</text></g><g class="ytick"><text text-anchor="end" x="67" y="4.199999999999999" style="font-family: 'Open Sans', verdana, arial, sans-serif; font-size: 12px; fill: rgb(42, 63, 95); fill-opacity: 1; white-space: pre; opacity: 1;" transform="translate(0,132.07999999999998)">120k</text></g><g class="ytick"><text text-anchor="end" x="67" y="4.199999999999999" style="font-family: 'Open Sans', verdana, arial, sans-serif; font-size: 12px; fill: rgb(42, 63, 95); fill-opacity: 1; white-space: pre; opacity: 1;" transform="translate(0,75.18)">140k</text></g></g><g class="overaxes-above"><g class="xy2-x"/><g class="xy2-y"><g class="y2tick"><text text-anchor="start" x="526.78" y="4.199999999999999" transform="translate(0,235.65)" style="font-family: 'Open Sans', verdana, arial, sans-serif; font-size: 12px; fill: rgb(42, 63, 95); fill-opacity: 1; white-space: pre; opacity: 1;">0</text></g><g class="y2tick"><text text-anchor="start" x="526.78" y="4.199999999999999" style="font-family: 'Open Sans', verdana, arial, sans-serif; font-size: 12px; fill: rgb(42, 63, 95); fill-opacity: 1; white-space: pre; opacity: 1;" transform="translate(0,184.58)">500</text></g><g class="y2tick"><text text-anchor="start" x="526.78" y="4.199999999999999" style="font-family: 'Open Sans', verdana, arial, sans-serif; font-size: 12px; fill: rgb(42, 63, 95); fill-opacity: 1; white-space: pre; opacity: 1;" transform="translate(0,133.5)">1000</text></g><g class="y2tick"><text text-anchor="start" x="526.78" y="4.199999999999999" style="font-family: 'Open Sans', verdana, arial, sans-serif; font-size: 12px; fill: rgb(42, 63, 95); fill-opacity: 1; white-space: pre; opacity: 1;" transform="translate(0,82.43)">1500</text></g><g class="y2tick"><text text-anchor="start" x="526.78" y="4.199999999999999" style="font-family: 'Open Sans', verdana, arial, sans-serif; font-size: 12px; fill: rgb(42, 63, 95); fill-opacity: 1; white-space: pre; opacity: 1;" transform="translate(0,31.35)">2000</text></g></g></g></g><g class="subplot xy2"/></g><g class="polarlayer"/><g class="smithlayer"/><g class="ternarylayer"/><g class="geolayer"/><g class="funnelarealayer"/><g class="pielayer"/><g class="iciclelayer"/><g class="treemaplayer"/><g class="sunburstlayer"/><g class="glimages"/><defs id="topdefs-22ec3a"><g class="clips"/><clipPath id="legend22ec3a"><rect width="123" height="48" x="0" y="0"/></clipPath></defs><g class="layer-above"><g class="imagelayer"/><g class="shapelayer"/></g><g class="infolayer"><g class="legend" pointer-events="all" transform="translate(564.74,20)"><rect class="bg" shape-rendering="crispEdges" width="123" height="48" x="0" y="0" style="stroke: rgb(68, 68, 68); stroke-opacity: 1; fill: rgb(255, 255, 255); fill-opacity: 1; stroke-width: 0px;"/><g class="scrollbox" transform="" clip-path="url(#legend22ec3a)"><g class="groups"><g class="traces" transform="translate(0,14.5)" style="opacity: 1;"><text class="legendtext" text-anchor="start" x="40" y="4.680000000000001" style="font-family: 'Open Sans', verdana, arial, sans-serif; font-size: 12px; fill: rgb(42, 63, 95); fill-opacity: 1; white-space: pre;">Cost</text><g class="layers" style="opacity: 1;"><g class="legendfill"/><g class="legendlines"><path class="js-line" d="M5,0h30" style="fill: none; stroke: rgb(99, 110, 250); stroke-opacity: 1; stroke-width: 2px;"/></g><g class="legendsymbols"><g class="legendpoints"/></g></g><rect class="legendtoggle" x="0" y="-9.5" width="117.265625" height="19" style="fill: rgb(0, 0, 0); fill-opacity: 0;"/></g><g class="traces" transform="translate(0,33.5)" style="opacity: 1;"><text class="legendtext" text-anchor="start" x="40" y="4.680000000000001" style="font-family: 'Open Sans', verdana, arial, sans-serif; font-size: 12px; fill: rgb(42, 63, 95); fill-opacity: 1; white-space: pre;">Temperature</text><g class="layers" style="opacity: 1;"><g class="legendfill"/><g class="legendlines"><path class="js-line" d="M5,0h30" style="fill: none; stroke: rgb(239, 85, 59); stroke-opacity: 1; stroke-width: 2px;"/></g><g class="legendsymbols"><g class="legendpoints"/></g></g><rect class="legendtoggle" x="0" y="-9.5" width="117.265625" height="19" style="fill: rgb(0, 0, 0); fill-opacity: 0;"/></g></g></g><rect class="scrollbar" rx="20" ry="3" width="0" height="0" x="0" y="0" style="fill: rgb(128, 139, 164); fill-opacity: 1;"/></g><g class="g-gtitle"/><g class="g-xtitle"><text class="xtitle" x="296.89" y="287.8" text-anchor="middle" style="font-family: 'Open Sans', verdana, arial, sans-serif; font-size: 14px; fill: rgb(42, 63, 95); opacity: 1; font-weight: normal; white-space: pre;">Iterations</text></g><g class="g-ytitle" transform="translate(1.7998046875,0)"><text class="ytitle" transform="rotate(-90,12.200000000000003,133.5)" x="12.200000000000003" y="133.5" text-anchor="middle" style="font-family: 'Open Sans', verdana, arial, sans-serif; font-size: 14px; fill: rgb(42, 63, 95); opacity: 1; font-weight: normal; white-space: pre;">Cost</text></g><g class="g-y2title"><text class="y2title" transform="rotate(-90,582.471875,133.5)" x="582.471875" y="133.5" text-anchor="middle" style="font-family: 'Open Sans', verdana, arial, sans-serif; font-size: 14px; fill: rgb(42, 63, 95); opacity: 1; font-weight: normal; white-space: pre;">Temperature</text></g></g></svg>