<svg class="main-svg" xmlns="http://www.w3.org/2000/svg" xmlns:xlink="http://www.w3.org/1999/xlink" width="700" height="300" style="" viewBox="0 0 700 300"><rect x="0" y="0" width="700" height="300" style="fill: rgb(255, 255, 255); fill-opacity: 1;"/><defs id="defs-c3e27a"><g class="clips"><clipPath id="clipc3e27axyplot" class="plotclip"><rect width="455.9" height="227"/></clipPath><clipPath id="clipc3e27axy2plot" class="plotclip"><rect width="455.9" height="227"/></clipPath><clipPath class="axesclip" id="clipc3e27ax"><rect x="70" y="0" width="455.9" height="300"/></clipPath><clipPath class="axesclip" id="clipc3e27ay"><rect x="0" y="20" width="700" height="227"/></clipPath><clipPath class="axesclip" id="clipc3e27axy"><rect x="70" y="20" width="455.9" height="227"/></clipPath><clipPath class="axesclip" id="clipc3e27ay2"><rect x="0" y="20" width="700" height="227"/></clipPath><clipPath class="axesclip" id="clipc3e27axy2"><rect x="70" y="20" width="455.9" height="227"/></clipPath></g><g class="gradients"/><g class="patterns"/></defs><g class="bglayer"><rect class="bg" x="70" y="20" width="455.9" height="227" style="fill: rgb(229, 236, 246); fill-opacity: 1; stroke-width: 0;"/></g><g class="layer-below"><g class="imagelayer"/><g class="shapelayer"/></g><g class="cartesianlayer"><g class="subplot xy"><g class="layer-subplot"><g class="shapelayer"/><g class="imagelayer"/></g><g class="gridlayer"><g class="x"><path class="xgrid crisp" transform="translate(170.99,0)" d="M0,20v227" style="stroke: rgb(255, 255, 255); stroke-opacity: 1; stroke-width: 1px;"/><path class="xgrid crisp" transform="translate(271.97,0)" d="M0,20v227" style="stroke: rgb(255, 255, 255); stroke-opacity: 1; stroke-width: 1px;"/><path class="xgrid crisp" transform="translate(372.96,0)" d="M0,20v227" style="stroke: rgb(255, 255, 255); stroke-opacity: 1; stroke-width: 1px;"/><path class="xgrid crisp" transform="translate(473.94,0)" d="M0,20v227" style="stroke: rgb(255, 255, 255); stroke-opacity: 1; stroke-width: 1px;"/></g><g class="y"><path class="ygrid crisp" transform="translate(0,236.27)" d="M70,0h455.9" style="stroke: rgb(255, 255, 255); stroke-opacity: 1; stroke-width: 1px;"/><path class="ygrid crisp" transform="translate(0,136.78)" d="M70,0h455.9" style="stroke: rgb(255, 255, 255); stroke-opacity: 1; stroke-width: 1px;"/><path class="ygrid crisp" transform="translate(0,87.04)" d="M70,0h455.9" style="stroke: rgb(255, 255, 255); stroke-opacity: 1; stroke-width: 1px;"/><path class="ygrid crisp" transform="translate(0,37.3)" d="M70,0h455.9" style="stroke: rgb(255, 255, 255); stroke-opacity: 1; stroke-width: 1px;"/></g><g class="y2"><path class="y2grid crisp" transform="translate(0,184.59)" d="M70,0h455.9" style="stroke: rgb(255, 255, 255); stroke-opacity: 1; stroke-width: 1px;"/><path class="y2grid crisp" transform="translate(0,133.51)" d="M70,0h455.9" style="stroke: rgb(255, 255, 255); stroke-opacity: 1; stroke-width: 1px;"/><path class="y2grid crisp" transform="translate(0,82.43)" d="M70,0h455.9" style="stroke: rgb(255, 255, 255); stroke-opacity: 1; stroke-width: 1px;"/><path class="y2grid crisp" transform="translate(0,31.35)" d="M70,0h455.9" style="stroke: rgb(255, 255, 255); stroke-opacity: 1; stroke-width: 1px;"/></g></g><g class="zerolinelayer"><path class="xzl zl crisp" transform="translate(70,0)" d="M0,20v227" style="stroke: rgb(255, 255, 255); stroke-opacity: 1; stroke-width: 2px;"/><path class="yzl zl crisp" transform="translate(0,186.52)" d="M70,0h455.9" style="stroke: rgb(255, 255, 255); stroke-opacity: 1; stroke-width: 2px;"/><path class="y2zl zl crisp" transform="translate(0,235.67)" d="M70,0h455.9" style="stroke: rgb(255, 255, 255); stroke-opacity: 1; stroke-width: 2px;"/></g><path class="xlines-below"/><path class="ylines-below"/><g class="overlines-below"><path class="xy2-x"/><path class="xy2-y"/></g><g class="xaxislayer-below"/><g class="yaxislayer-below"/><g class="overaxes-below"><g class="xy2-x"/><g class="xy2-y"/></g><g class="plot" transform="translate(70,20)" clip-path="url(#clipc3e27axyplot)"><g class="scatterlayer mlayer"><g class="trace scatter tracedad855" style="stroke-miterlimit: 2; opacity: 1;"><g class="fills"/><g class="errorbars"/><g class="lines"><path class="js-line" d="M0,18.61L0.2,13.53L0.4,23.16L0.66,19.59L0.71,21.3L1.21,25.8L1.72,11.35L1.77,13.73L2.17,23.95L2.83,23.1L2.88,22.19L3.48,28.57L3.58,22.35L3.64,19.97L3.69,18.52L3.74,22.64L4.34,20.13L4.39,20.34L4.54,14.95L4.95,23.78L5,26.53L5.2,27.21L5.35,20.13L5.76,24.74L5.81,26.84L5.86,28.07L6.16,19.9L6.21,17.34L6.77,15.52L6.87,18.69L6.92,19.05L7.12,22.79L7.32,16.08L7.52,20.34L7.57,23.89L7.67,21.51L7.98,32.19L8.08,29.75L8.13,30.86L8.84,20.09L8.99,23.77L9.04,24.09L9.14,19.12L9.8,20.15L9.85,21.07L10.35,25.31L10.65,22.73L10.7,21.2L11.11,23.95L11.31,13.21L11.51,18.75L11.56,20.54L11.66,22.76L12.12,16.07L12.27,21.05L12.32,20.19L12.57,16.81L12.93,23.27L13.03,20.68L13.08,18.66L13.33,17.28L14.19,24.36L14.24,23.99L14.9,18.54L15,20.11L15.05,22.13L15.15,20.2L15.2,17.12L15.25,14.05L15.75,23.42L15.8,23.36L15.85,24.27L16.76,16.92L16.81,21.28L17.22,25L17.47,21.23L17.52,20.06L17.87,18.05L18.03,21.15L18.08,23.2L18.63,23.59L18.68,19.72L18.83,21L18.88,22.95L19.04,24.63L19.19,19.65L19.44,20.95L19.49,24.25L19.69,22.14L19.89,27.01L20.2,24.54L20.25,23.88L20.4,20.95L20.5,25.36L20.75,21.3L20.8,19.6L20.9,16.25L21.41,23.18L21.46,23.1L21.76,23.93L21.81,19.66L22.22,22.82L22.27,22.73L22.37,20.69L22.82,25.58L22.97,23.83L23.02,24.42L23.33,21.63L23.38,21.92L23.43,23.71L23.78,15.09L24.19,19.8L24.24,20.13L24.59,23.28L24.64,20.36L24.99,19.75L25.04,22.39L25.09,21.74L25.15,24.01L25.25,22.35L25.55,26.13L25.8,25.97L25.85,26.39L25.95,27.22L26.26,21.37L26.31,19.61L26.61,18.59L26.81,21.5L26.86,20.56L26.91,22.48L27.11,20.39L27.37,27.83L27.82,25.79L27.87,25.13L28.18,23.59L28.83,32.06L28.88,31.11L28.93,29.89L28.98,30.9L29.39,25.88L29.44,24.96L29.89,26.48L30.04,22.8L30.19,22.87L30.25,24.28L30.55,28.55L30.8,22.9L30.85,22.38L31,24.69L31.1,19.46L31.15,19.15L31.46,23.03L32.01,22.98L32.06,21.15L32.37,25.79L32.67,19.31L32.77,19.72L32.82,17.79L33.07,21.71L33.58,19.3L33.63,18.28L34.54,25.67L34.64,25.51L34.69,23.57L34.94,27.16L35.5,25.91L35.55,26.4L36,28.1L36.15,23.23L36.35,25.63L36.41,27.09L36.66,20.75L36.86,28.49L36.91,28.57L37.42,33.55L37.57,31.46L37.62,29.57L37.92,31.77L38.07,25.74L38.27,26.98L38.32,27.38L38.37,27.7L38.73,26.2L38.78,24.74L38.88,24.1L39.18,29.16L39.43,24.27L39.49,19.58L39.64,16.63L39.99,21.38L40.09,21.17L40.14,21.85L40.29,19.72L40.34,21.9L40.39,25.14L40.65,24.21L40.85,27.82L41,26.47L41.05,26.76L41.1,27.1L41.25,23.93L41.3,21.2L41.35,20.77L41.51,23.92L41.56,23.72L41.61,25.79L42.72,18.63L42.82,20.23L42.87,22.52L42.92,19.69L43.32,25.42L43.52,24.42L43.58,24.93L43.78,20.64L44.08,25.08L44.13,25.03L44.18,25.27L44.23,24.69L44.28,21.86L44.43,21.36L44.74,27.11L44.79,29.14L44.89,31.25L45.34,25.14L45.39,25.8L45.44,25.27L45.49,25.79L45.65,22.08L45.7,19.51L46.86,30.4L46.91,30.22L46.96,30.77L47.26,32.68L47.41,29.97L47.67,30.08L47.72,29.31L47.82,26.6L48.17,29.89L48.47,27.99L48.52,27.84L48.98,31.15L49.23,26.43L49.28,27.35L49.58,25.18L49.84,29.17L49.89,31.23L50.19,34.06L50.24,31.63L50.49,26.83L50.95,31.37L51,32.15L51.55,25.27L51.86,26.66L51.91,28.44L52.01,28.27L52.41,32.04L52.82,31.97L52.87,30.88L52.92,31.93L53.27,25.37L53.32,25.94L53.37,24.41L53.57,27.49L53.83,24.16L54.13,25.65L54.18,25.02L54.48,21.41L54.94,24.49L54.99,25.25L55.34,22.87L55.79,27.59L55.85,27.21L55.9,25.16L56.5,29.13L56.7,26.74L56.75,26.84L56.85,27.6L57.06,24.73L57.11,24.15L57.16,25.14L57.36,22.31L57.81,23.17L57.86,23.29L59.48,38.52L59.53,37.78L59.68,39.51L59.88,35.58L60.19,37.92L60.24,36.79L60.44,36.09L60.54,37.41L60.59,39.84L60.64,40.76L61,36.3L61.15,36.99L61.2,35.21L61.95,25.62L62.26,29.42L62.31,29.85L62.66,27.73L63.02,30.5L63.07,29.66L63.42,32.11L63.57,30.26L63.62,29.23L64.38,31.96L64.43,31.2L64.48,29.8L64.63,32.09L64.78,28.95L65.29,31.01L65.34,30.18L65.44,28.92L65.74,32.14L66.04,31.01L66.1,31.4L67.11,36.72L67.16,36.57L67.21,36.88L67.36,37.28L67.81,34.17L67.86,35.64L67.91,36.15L68.06,35.6L68.32,37.22L68.57,37.06L68.62,35.67L68.77,32.67L69.33,35.42L69.38,35.57L69.58,32.82L69.98,36.31L70.03,37.83L70.19,38.23L70.24,36.32L70.64,39.57L70.69,40.51L71.04,42.72L71.09,44.37L72.05,34.11L72.1,34.98L72.36,36.56L72.51,35.7L72.56,33.36L72.81,32.06L73.27,35.53L73.42,34.64L73.47,33.61L73.77,33.44L73.97,35.36L74.07,34.09L74.12,32.77L74.27,29.59L74.83,33.75L74.93,33.58L74.98,32.32L75.03,31.72L75.18,33.38L75.54,32.84L75.59,34.52L75.69,34.11L75.79,35.56L75.99,35.37L76.04,35.88L76.09,36.43L76.4,31.59L76.5,32.76L76.55,33.08L77.86,44.27L77.96,43.45L78.01,43.77L78.77,50.29L79.12,47.93L79.17,46.57L80.18,39.37L80.49,41.53L80.54,41.79L80.79,39.25L81.29,41.21L81.34,41.36L81.55,39L81.6,37.81L81.9,35.72L82.2,39.47L82.25,38.32L82.3,38.81L82.71,38.25L83.77,48.02L83.87,45.83L83.92,44.07L84.12,40.54L84.32,44.7L84.53,43.76L84.58,45.3L84.98,44.06L85.48,48.11L85.53,47.2L85.74,47.72L85.84,44.56L86.04,45.79L86.09,44.97L86.24,43.73L86.49,46.59L86.75,45.59L86.8,46.15L87.3,48.78L87.45,46.23L87.5,45.16L87.55,45.33L87.61,42.94L87.66,44.31L87.71,43.12L88.36,41.95L88.61,45.34L88.67,45.62L88.92,44.34L89.37,49.36L89.57,47.77L89.62,47.28L89.73,47.08L89.83,48.26L89.93,48.24L89.98,48.89L90.58,46.37L90.74,48.26L90.79,47.77L91.54,52.35L91.75,51.86L91.8,51.52L92.5,47.91L92.65,48.9L92.7,49.17L93.41,46.21L93.56,46.96L93.61,48.02L93.66,47.35L94.02,50.76L94.27,48.95L94.32,48.99L94.37,48.8L94.47,50.03L94.52,51.68L95.58,56.39L96.04,55.51L96.09,55.52L96.24,57.38L96.44,55.89L96.49,55.3L96.64,55.75L96.69,55.51L96.74,54.06L97.3,57.49L97.55,55.39L97.6,54.56L98.06,56.37L98.16,54.08L98.21,53.68L98.26,52.95L98.76,55.9L98.81,55.98L98.87,56.32L99.12,53.82L99.17,53.9L99.22,53.45L99.37,53.19L99.42,55.18L99.52,54.82L99.57,55.96L99.72,56.47L99.93,55.24L99.98,55.29L100.03,53.89L100.38,49L100.88,50.37L100.94,50.21L101.24,49.2L101.64,51.37L101.74,50.81L101.79,50.47L101.89,51.16L102.05,48.92L102.1,49.43L102.15,47.86L102.3,49.43L102.4,46.72L102.85,48.64L102.9,47.66L103.11,49.85L103.66,49.64L103.71,48.38L103.86,48.08L104.02,49.23L104.07,49.7L105.03,54.48L105.08,54.73L105.53,58.57L106.03,57.21L106.09,56.57L107.04,52.81L107.1,53.03L107.5,56.14L107.85,55.57L107.9,53.98L108.46,55.41L108.51,54.88L108.56,53.4L108.86,51.25L109.22,54.48L109.27,53.46L109.32,53.51L109.37,52.88L109.87,55.35L109.92,55.7L110.33,56.03L110.43,53.72L110.68,55.53L110.73,55.59L110.78,55.06L111.29,57.38L111.34,58.95L111.59,57.47L112.09,58.92L112.14,59.02L112.5,57.98L112.65,59.43L112.85,59.18L112.9,59.5L112.95,59.77L113.1,56.74L113.51,58.99L113.56,57.79L113.71,56.62L114.47,60.27L114.52,60.24L114.57,59.33L115.07,62.24L115.38,60.03L115.43,58.72L116.18,55.34L116.23,55.77L116.29,56.53L116.59,58.64L116.69,55.84L116.74,54.31L117.9,60.03L117.95,58.85L118,58.89L118.25,57.2L120.02,64.97L120.07,63.34L120.27,61.72L120.73,63.71L120.78,64.21L121.03,64.08L121.84,66.61L121.99,66.06L122.04,65.45L122.14,65.21L122.29,66.22L122.34,67.04L122.39,67.21L122.45,65.93L122.55,66.46L122.6,65.22L123.1,59.16L123.51,60.67L123.56,60.77L124.62,64.35L124.72,63.32L124.77,62.46L126.08,67.35L126.13,66.15L126.69,69.25L126.99,68.13L127.04,66.78L127.19,65.5L127.39,67.1L127.44,68.17L127.6,67.12L128.05,68.79L128.1,68.89L129.01,71.81L129.06,71.19L129.11,69.89L129.26,69.08L129.67,70.08L129.72,68.9L129.82,68.32L130.78,70.75L130.83,69.91L131.08,69.42L131.43,70.6L131.48,70.84L131.84,72.08L131.99,70.08L132.29,71.51L132.34,71.78L132.54,70.83L133.86,74.18L133.91,73.69L135.72,80.11L135.78,79.93L135.98,80.54L136.23,79.19L136.53,80.09L136.58,78.66L136.68,78.9L136.73,77.84L136.79,77.06L136.84,76L137.44,78.38L137.49,78.63L137.74,79.36L137.85,77.2L138.4,77.71L138.45,78.15L138.65,77.96L139.46,79.77L139.51,79.42L139.81,78.25L140.17,80.17L140.22,79.64L140.27,79.98L140.42,78.46L142.84,88.41L143.1,87.9L143.15,85.74L144.16,87.78L144.36,87.72L144.41,87.34L144.81,89.93L144.96,88.3L145.02,87.5L145.07,86.05L145.67,88.15L145.77,86.35L145.82,86.37L146.28,86.43L146.63,84.93L146.68,85.17L147.19,82.73L147.49,83.07L147.54,83.38L147.69,83.89L147.79,82.32L147.94,82.87L147.99,81.71L149.11,86.25L149.56,85.54L149.61,85.27L149.86,82.86L150.42,83.62L150.47,83.84L150.82,84.82L151.02,84.02L151.07,82.6L151.18,82.09L151.53,83.88L151.58,83.95L151.88,83.08L152.19,84.81L152.24,84.54L152.29,84.75L152.54,86.07L152.59,84.43L152.64,83.43L153.04,82.91L153.55,84.26L153.6,84.32L154.21,85.75L154.31,85.51L154.36,83.87L154.76,83.3L155.77,85.75L155.82,85.36L155.97,85.63L156.22,84.86L156.53,85.53L156.58,85.62L157.44,88.12L157.54,87.84L157.59,87.26L158.14,88.61L158.19,88.95L158.55,89.35L158.85,87.87L159,88.12L159.05,88.04L159.56,89.48L159.61,90.12L161.63,97.01L161.73,96.64L161.78,95.19L162.54,96.78L162.59,97.24L162.99,95.76L163.34,96.55L163.39,96.87L165.62,100.58L165.72,100.29L165.77,99.46L166.07,99.72L166.37,98.32L166.53,98.8L166.58,98.95L166.98,100.71L167.43,99.89L167.48,99.26L167.54,98.8L168.09,100.18L168.14,99.6L168.19,99.85L168.8,101.7L168.85,102.17L169.56,103.82L169.61,102.63L169.66,102L169.81,101.58L171.12,104.04L171.37,103.35L171.42,102.72L172.38,105.53L172.64,104.89L172.69,104.02L173.34,105.19L173.54,104.83L173.59,104.18L175.61,108.09L175.66,107.49L175.97,108.29L176.07,107.6L176.12,106.9L176.32,106.48L176.57,107.22L176.62,107.28L176.72,107.52L176.98,106.65L177.03,106.17L177.13,105.29L177.73,106.23L177.79,106.36L178.04,106.13L178.59,107.99L178.64,108.37L178.69,107.74L179,108.99L179.3,108.93L179.35,108.96L179.7,109.73L179.81,108.26L179.96,108.5L180.01,108.5L181.17,110.94L181.42,109.94L181.47,109.99L181.88,108.36L182.23,109.77L182.28,110.06L183.54,112.78L183.64,112.27L183.69,112.33L185.56,114.92L185.61,114.13L186.42,115.23L186.47,114.84L186.52,114.93L186.57,114.65L187.03,115.57L187.13,115L187.18,115.54L187.78,117.27L188.09,116.81L188.14,116.23L190.36,119.57L190.41,118.65L190.76,118.56L191.12,119.08L191.17,118.73L191.22,118.75L192.28,119.5L192.33,119.54L192.83,120.11L192.88,120.51L193.74,121.05L193.79,120.73L195.36,123.14L195.41,123.15L198.64,128.07L198.69,127.33L198.74,127.05L199.24,128.38L199.4,127.61L199.45,127.85L200.66,128.29L200.71,128.44L202.78,131.06L203.08,130.41L203.13,129.83L203.74,130.85L203.89,130.34L203.94,129.77L204.04,129.17L204.7,129.57L204.75,129.67L205.91,130.36L205.96,130.4L206.01,130.02L206.47,130.91L206.67,130.62L206.72,130.83L207.48,132.37L207.63,131.61L207.68,131.7L208.99,133.69L209.04,133.33L209.19,133.41L209.24,132.87L209.34,132.95L209.39,132.42L211.97,136.83L212.02,137.29L212.83,138.62L213.03,137.96L213.08,138.04L213.33,138.54L213.38,137.49L213.64,137.91L213.69,137.38L213.79,136.72L214.09,137.5L214.44,137.12L214.49,137.18L215,137.42L215.05,136.96L215.86,138.09L215.91,138.21L216.11,138.05L216.61,138.49L216.66,138.49L217.83,139.94L217.88,139.94L219.54,142.07L219.59,141.47L221.36,143.26L221.66,142.66L221.71,142.66L224.34,146.67L224.39,146.71L224.59,146.78L224.64,145.69L224.84,145.16L225.4,145.7L225.45,145.77L226.46,146.55L226.51,146.56L227.72,147.86L227.77,146.92L229.09,148.71L229.14,148.77L232.97,152.09L233.02,152.11L233.43,152.8L233.48,152.92L235.65,154.86L235.7,154.86L237.77,157.24L237.82,157.3L238.33,156.82L238.38,156.57L239.44,156.99L239.49,156.45L240.75,157.45L240.8,157.45L242.11,158.28L242.16,158.34L244.08,159.94L244.13,160.22L245.85,160.93L245.9,160.99L249.33,163.23L249.38,163.23L252.16,164.45L252.21,164.52L254.53,165.63L254.58,165.88L263.62,172.9L263.67,172.9L265.74,173.63L265.79,173.68L266.91,174.57L266.96,174.71L282.15,181.97L282.2,181.97L283.21,182.72L283.26,182.77L285.69,183.4L285.74,183.58L290.23,185.24L290.28,185.24L292.2,185.72L292.25,185.72L294.27,186.38L294.32,186.55L295.38,186.99L295.43,186.99L304.88,189.87L304.93,190.02L310.53,191.83L310.58,191.89L340.12,199.26L340.17,199.26L344.06,200.04L344.11,200.04L363.4,203.23L363.45,203.37L368.09,204.11L368.14,204.21L380.01,206.68L380.06,206.68L411.67,210.42L411.72,210.42L418.79,211.09L418.84,211.2L425.35,211.94L425.4,211.97L431.56,212.69L431.61,212.79L437.87,213.5L437.92,213.55L445.15,214.3L445.2,214.32L449.34,215.02L449.39,215.11L455.9,215.65" style="vector-effect: non-scaling-stroke; fill: none; stroke: rgb(99, 110, 250); stroke-opacity: 1; stroke-width: 2px; opacity: 1;"/></g><g class="points"/><g class="text"/></g></g></g><g class="overplot"><g class="xy2" transform="translate(70,20)" clip-path="url(#clipc3e27axy2plot)"><g class="scatterlayer mlayer"><g class="trace scatter traced3237d" style="stroke-miterlimit: 2; opacity: 1;"><g class="fills"/><g class="errorbars"/><g class="lines"><path class="js-line" d="M0,11.35L9.69,47.06L9.75,47.23L17.98,72.58L18.03,72.72L26.1,93.87L26.16,93.99L35.7,114.95L35.75,115.05L42.97,128.47L43.02,128.55L50.75,140.92L50.8,140.99L59.99,153.43L60.04,153.49L71.55,166.17L71.6,166.22L81.39,174.95L81.44,174.99L96.74,185.63L96.79,185.66L112.45,193.66L112.5,193.68L123.46,197.98L123.51,197.99L133.45,201.16L133.5,201.17L155.37,206.27L155.42,206.28L173.19,209.07L173.24,209.07L198.18,211.65L198.23,211.65L249.64,214.22L249.69,214.22L267.41,214.65L267.46,214.65L282.76,214.92L282.81,214.92L455.9,215.65" style="vector-effect: non-scaling-stroke; fill: none; stroke: rgb(239, 85, 59); stroke-opacity: 1; stroke-width: 2px; opacity: 1;"/></g><g class="points"/><g class="text"/></g></g></g></g><path class="xlines-above crisp" d="M0,0" style="fill: none;"/><path class="ylines-above crisp" d="M0,0" style="fill: none;"/><g class="overlines-above"><path class="xy2-x crisp" d="M0,0" style="fill: none;"/><path class="xy2-y crisp" d="M0,0" style="fill: none;"/></g><g class="xaxislayer-above"><g class="xtick"><text text-anchor="middle" x="0" y="260" transform="translate(70,0)" style="font-family: 'Open Sans', verdana, arial, sans-serif; font-size: 12px; fill: rgb(42, 63, 95); fill-opacity: 1; white-space: pre; opacity: 1;">0</text></g><g class="xtick"><text text-anchor="middle" x="0" y="260" style="font-family: 'Open Sans', verdana, arial, sans-serif; font-size: 12px; fill: rgb(42, 63, 95); fill-opacity: 1; white-space: pre; opacity: 1;" transform="translate(170.99,0)">2000</text></g><g class="xtick"><text text-anchor="middle" x="0" y="260" style="font-family: 'Open Sans', verdana, arial, sans-serif; font-size: 12px; fill: rgb(42, 63, 95); fill-opacity: 1; white-space: pre; opacity: 1;" transform="translate(271.97,0)">4000</text></g><g class="xtick"><text text-anchor="middle" x="0" y="260" style="font-family: 'Open Sans', verdana, arial, sans-serif; font-size: 12px; fill: rgb(42, 63, 95); fill-opacity: 1; white-space: pre; opacity: 1;" transform="translate(372.96,0)">6000</text></g><g class="xtick"><text text-anchor="middle" x="0" y="260" style="font-family: 'Open Sans', verdana, arial, sans-serif; font-size: 12px; fill: rgb(42, 63, 95); fill-opacity: 1; white-space: pre; opacity: 1;" transform="translate(473.94,0)">8000</text></g></g><g class="yaxislayer-above"><g class="ytick"><text text-anchor="end" x="69" y="4.199999999999999" transform="translate(0,236.27)" style="font-family: 'Open Sans', verdana, arial, sans-serif; font-size: 12px; fill: rgb(42, 63, 95); fill-opacity: 1; white-space: pre; opacity: 1;">−10k</text></g><g class="ytick"><text text-anchor="end" x="69" y="4.199999999999999" style="font-family: 'Open Sans', verdana, arial, sans-serif; font-size: 12px; fill: rgb(42, 63, 95); fill-opacity: 1; white-space: pre; opacity: 1;" transform="translate(0,186.52)">0</text></g><g class="ytick"><text text-anchor="end" x="69" y="4.199999999999999" style="font-family: 'Open Sans', verdana, arial, sans-serif; font-size: 12px; fill: rgb(42, 63, 95); fill-opacity: 1; white-space: pre; opacity: 1;" transform="translate(0,136.78)">10k</text></g><g class="ytick"><text text-anchor="end" x="69" y="4.199999999999999" style="font-family: 'Open Sans', verdana, arial, sans-serif; font-size: 12px; fill: rgb(42, 63, 95); fill-opacity: 1; white-space: pre; opacity: 1;" transform="translate(0,87.04)">20k</text></g><g class="ytick"><text text-anchor="end" x="69" y="4.199999999999999" style="font-family: 'Open Sans', verdana, arial, sans-serif; font-size: 12px; fill: rgb(42, 63, 95); fill-opacity: 1; white-space: pre; opacity: 1;" transform="translate(0,37.3)">30k</text></g></g><g class="overaxes-above"><g class="xy2-x"/><g class="xy2-y"><g class="y2tick"><text text-anchor="start" x="526.9" y="4.199999999999999" transform="translate(0,235.67)" style="font-family: 'Open Sans', verdana, arial, sans-serif; font-size: 12px; fill: rgb(42, 63, 95); fill-opacity: 1; white-space: pre; opacity: 1;">0</text></g><g class="y2tick"><text text-anchor="start" x="526.9" y="4.199999999999999" style="font-family: 'Open Sans', verdana, arial, sans-serif; font-size: 12px; fill: rgb(42, 63, 95); fill-opacity: 1; white-space: pre; opacity: 1;" transform="translate(0,184.59)">500</text></g><g class="y2tick"><text text-anchor="start" x="526.9" y="4.199999999999999" style="font-family: 'Open Sans', verdana, arial, sans-serif; font-size: 12px; fill: rgb(42, 63, 95); fill-opacity: 1; white-space: pre; opacity: 1;" transform="translate(0,133.51)">1000</text></g><g class="y2tick"><text text-anchor="start" x="526.9" y="4.199999999999999" style="font-family: 'Open Sans', verdana, arial, sans-serif; font-size: 12px; fill: rgb(42, 63, 95); fill-opacity: 1; white-space: pre; opacity: 1;" transform="translate(0,82.43)">1500</text></g><g class="y2tick"><text text-anchor="start" x="526.9" y="4.199999999999999" style="font-family: 'Open Sans', verdana, arial, sans-serif; font-size: 12px; fill: rgb(42, 63, 95); fill-opacity: 1; white-space: pre; opacity: 1;" transform="translate(0,31.35)">2000</text></g></g></g></g><g class="subplot xy2"/></g><g class="polarlayer"/><g class="smithlayer"/><g class="ternarylayer"/><g class="geolayer"/><g class="funnelarealayer"/><g class="pielayer"/><g class="iciclelayer"/><g class="treemaplayer"/><g class="sunburstlayer"/><g class="glimages"/><defs id="topdefs-c3e27a"><g class="clips"/><clipPath id="legendc3e27a"><rect width="123" height="48" x="0" y="0"/></clipPath></defs><g class="layer-above"><g class="imagelayer"/><g class="shapelayer"/></g><g class="infolayer"><g class="legend" pointer-events="all" transform="translate(564.7,20)"><rect class="bg" shape-rendering="crispEdges" width="123" height="48" x="0" y="0" style="stroke: rgb(68, 68, 68); stroke-opacity: 1; fill: rgb(255, 255, 255); fill-opacity: 1; stroke-width: 0px;"/><g class="scrollbox" transform="" clip-path="url(#legendc3e27a)"><g class="groups"><g class="traces" transform="translate(0,14.5)" style="opacity: 1;"><text class="legendtext" text-anchor="start" x="40" y="4.680000000000001" style="font-family: 'Open Sans', verdana, arial, sans-serif; font-size: 12px; fill: rgb(42, 63, 95); fill-opacity: 1; white-space: pre;">Cost</text><g class="layers" style="opacity: 1;"><g class="legendfill"/><g class="legendlines"><path class="js-line" d="M5,0h30" style="fill: none; stroke: rgb(99, 110, 250); stroke-opacity: 1; stroke-width: 2px;"/></g><g class="legendsymbols"><g class="legendpoints"/></g></g><rect class="legendtoggle" x="0" y="-9.5" width="117.265625" height="19" style="fill: rgb(0, 0, 0); fill-opacity: 0;"/></g><g class="traces" transform="translate(0,33.5)" style="opacity: 1;"><text class="legendtext" text-anchor="start" x="40" y="4.680000000000001" style="font-family: 'Open Sans', verdana, arial, sans-serif; font-size: 12px; fill: rgb(42, 63, 95); fill-opacity: 1; white-space: pre;">Temperature</text><g class="layers" style="opacity: 1;"><g class="legendfill"/><g class="legendlines"><path class="js-line" d="M5,0h30" style="fill: none; stroke: rgb(239, 85, 59); stroke-opacity: 1; stroke-width: 2px;"/></g><g class="legendsymbols"><g class="legendpoints"/></g></g><rect class="legendtoggle" x="0" y="-9.5" width="117.265625" height="19" style="fill: rgb(0, 0, 0); fill-opacity: 0;"/></g></g></g><rect class="scrollbar" rx="20" ry="3" width="0" height="0" x="0" y="0" style="fill: rgb(128, 139, 164); fill-opacity: 1;"/></g><g class="g-gtitle"/><g class="g-xtitle"><text class="xtitle" x="297.95" y="287.8" text-anchor="middle" style="font-family: 'Open Sans', verdana, arial, sans-serif; font-size: 14px; fill: rgb(42, 63, 95); opacity: 1; font-weight: normal; white-space: pre;">Iterations</text></g><g class="g-ytitle" transform="translate(1.9873046875,0)"><text class="ytitle" transform="rotate(-90,12.012500000000003,133.5)" x="12.012500000000003" y="133.5" text-anchor="middle" style="font-family: 'Open Sans', verdana, arial, sans-serif; font-size: 14px; fill: rgb(42, 63, 95); opacity: 1; font-weight: normal; white-space: pre;">Cost</text></g><g class="g-y2title"><text class="y2title" transform="rotate(-90,582.596875,133.5)" x="582.596875" y="133.5" text-anchor="middle" style="font-family: 'Open Sans', verdana, arial, sans-serif; font-size: 14px; fill: rgb(42, 63, 95); opacity: 1; font-weight: normal; white-space: pre;">Temperature</text></g></g></svg>