<svg class="main-svg" xmlns="http://www.w3.org/2000/svg" xmlns:xlink="http://www.w3.org/1999/xlink" width="700" height="300" style="" viewBox="0 0 700 300"><rect x="0" y="0" width="700" height="300" style="fill: rgb(255, 255, 255); fill-opacity: 1;"/><defs id="defs-bfcf9c"><g class="clips"><clipPath id="clipbfcf9cxyplot" class="plotclip"><rect width="448.38" height="227"/></clipPath><clipPath id="clipbfcf9cxy2plot" class="plotclip"><rect width="448.38" height="227"/></clipPath><clipPath class="axesclip" id="clipbfcf9cx"><rect x="78" y="0" width="448.38" height="300"/></clipPath><clipPath class="axesclip" id="clipbfcf9cy"><rect x="0" y="20" width="700" height="227"/></clipPath><clipPath class="axesclip" id="clipbfcf9cxy"><rect x="78" y="20" width="448.38" height="227"/></clipPath><clipPath class="axesclip" id="clipbfcf9cy2"><rect x="0" y="20" width="700" height="227"/></clipPath><clipPath class="axesclip" id="clipbfcf9cxy2"><rect x="78" y="20" width="448.38" height="227"/></clipPath></g><g class="gradients"/><g class="patterns"/></defs><g class="bglayer"><rect class="bg" x="78" y="20" width="448.38" height="227" style="fill: rgb(229, 236, 246); fill-opacity: 1; stroke-width: 0;"/></g><g class="layer-below"><g class="imagelayer"/><g class="shapelayer"/></g><g class="cartesianlayer"><g class="subplot xy"><g class="layer-subplot"><g class="shapelayer"/><g class="imagelayer"/></g><g class="gridlayer"><g class="x"><path class="xgrid crisp" transform="translate(159.39,0)" d="M0,20v227" style="stroke: rgb(255, 255, 255); stroke-opacity: 1; stroke-width: 1px;"/><path class="xgrid crisp" transform="translate(240.78,0)" d="M0,20v227" style="stroke: rgb(255, 255, 255); stroke-opacity: 1; stroke-width: 1px;"/><path class="xgrid crisp" transform="translate(322.16999999999996,0)" d="M0,20v227" style="stroke: rgb(255, 255, 255); stroke-opacity: 1; stroke-width: 1px;"/><path class="xgrid crisp" transform="translate(403.56,0)" d="M0,20v227" style="stroke: rgb(255, 255, 255); stroke-opacity: 1; stroke-width: 1px;"/><path class="xgrid crisp" transform="translate(484.95,0)" d="M0,20v227" style="stroke: rgb(255, 255, 255); stroke-opacity: 1; stroke-width: 1px;"/></g><g class="y"><path class="ygrid crisp" transform="translate(0,200.73)" d="M78,0h448.38" style="stroke: rgb(255, 255, 255); stroke-opacity: 1; stroke-width: 1px;"/><path class="ygrid crisp" transform="translate(0,147.32999999999998)" d="M78,0h448.38" style="stroke: rgb(255, 255, 255); stroke-opacity: 1; stroke-width: 1px;"/><path class="ygrid crisp" transform="translate(0,93.93)" d="M78,0h448.38" style="stroke: rgb(255, 255, 255); stroke-opacity: 1; stroke-width: 1px;"/></g><g class="y2"><path class="y2grid crisp" transform="translate(0,184.58)" d="M78,0h448.38" style="stroke: rgb(255, 255, 255); stroke-opacity: 1; stroke-width: 1px;"/><path class="y2grid crisp" transform="translate(0,133.5)" d="M78,0h448.38" style="stroke: rgb(255, 255, 255); stroke-opacity: 1; stroke-width: 1px;"/><path class="y2grid crisp" transform="translate(0,82.43)" d="M78,0h448.38" style="stroke: rgb(255, 255, 255); stroke-opacity: 1; stroke-width: 1px;"/><path class="y2grid crisp" transform="translate(0,31.35)" d="M78,0h448.38" style="stroke: rgb(255, 255, 255); stroke-opacity: 1; stroke-width: 1px;"/></g></g><g class="zerolinelayer"><path class="xzl zl crisp" transform="translate(78,0)" d="M0,20v227" style="stroke: rgb(255, 255, 255); stroke-opacity: 1; stroke-width: 2px;"/><path class="yzl zl crisp" transform="translate(0,40.53)" d="M78,0h448.38" style="stroke: rgb(255, 255, 255); stroke-opacity: 1; stroke-width: 2px;"/><path class="y2zl zl crisp" transform="translate(0,235.65)" d="M78,0h448.38" style="stroke: rgb(255, 255, 255); stroke-opacity: 1; stroke-width: 2px;"/></g><path class="xlines-below"/><path class="ylines-below"/><g class="overlines-below"><path class="xy2-x"/><path class="xy2-y"/></g><g class="xaxislayer-below"/><g class="yaxislayer-below"/><g class="overaxes-below"><g class="xy2-x"/><g class="xy2-y"/></g><g class="plot" transform="translate(78,20)" clip-path="url(#clipbfcf9cxyplot)"><g class="scatterlayer mlayer"><g class="trace scatter trace665cbc" style="stroke-miterlimit: 2; opacity: 1;"><g class="fills"/><g class="errorbars"/><g class="lines"><path class="js-line" d="M0,23.63L0.08,24.81L0.41,19.79L0.65,24.49L0.73,21.82L1.22,25.66L1.63,15.62L1.71,16.05L1.95,15.41L2.6,23.63L2.69,17.22L2.93,21.07L3.26,11.35L3.42,16.9L3.5,12.52L4.4,21.5L4.48,20.96L4.8,22.03L5.29,16.58L5.45,17.22L5.53,19.15L5.78,17.65L6.19,26.73L6.35,23.1L6.43,20.96L7,30.36L7.16,23.31L7.24,18.08L8.06,28.76L8.14,27.37L8.22,24.27L8.95,16.8L9.12,17.33L9.2,20.96L9.36,18.83L9.6,21.28L9.69,20.32L9.77,20.96L10.01,25.77L10.58,23.1L10.66,20.64L11.39,24.27L11.48,22.78L11.56,23.2L11.96,19.89L12.21,21.82L12.29,24.27L12.37,24.59L12.45,21.82L12.53,20.21L13.1,28.86L13.19,31.96L13.35,32.92L13.43,30.79L13.51,28.97L13.92,24.38L14.16,26.73L14.24,27.26L15.14,33.35L15.46,32.07L15.55,31L15.63,30.79L15.71,32.5L15.79,33.99L15.95,32.71L16.12,36.34L16.2,36.77L16.28,37.62L16.36,36.34L16.44,30.25L16.77,28.54L17.58,35.81L17.66,35.49L17.74,36.02L17.82,32.18L17.99,32.92L18.07,33.14L18.48,30.68L18.8,32.6L18.88,33.35L19.13,35.91L19.29,34.95L19.37,34.42L19.53,33.67L20.35,38.58L20.59,38.37L20.67,37.19L20.84,33.03L21.32,37.41L21.41,38.26L21.65,35.7L22.3,39.86L22.38,40.08L23.44,43.82L23.52,43.92L23.93,39.86L24.34,42L24.42,42.53L24.99,39.22L25.31,40.61L25.39,41.04L26.21,43.82L26.29,44.78L26.7,47.13L27.1,46.38L27.18,44.78L28.81,55.56L28.98,53.75L29.06,52.89L29.3,52.79L29.54,54.07L29.71,53.11L29.79,51.61L31.34,57.17L31.42,56.74L31.74,57.91L31.82,58.55L32.56,53.75L32.72,53.96L32.8,55.03L32.96,55.35L33.04,54.28L33.13,55.03L33.21,53.53L34.92,59.41L35,57.38L38.42,68.06L38.5,68.27L49,95.29L49.08,95.4L50.71,98.92L50.79,99.14L55.26,109.39L55.35,110.14L56.73,112.38L56.81,112.38L59.5,116.12L59.58,116.22L60.8,118.04L60.88,118.15L61.53,119.43L61.61,119.53L64.71,124.66L64.79,125.09L66.66,128.08L66.74,128.08L68.12,129.57L68.21,129.89L71.14,135.13L71.22,135.55L72.68,137.37L72.76,137.48L73.9,138.97L73.98,139.18L76.75,141.96L76.83,141.96L77.65,142.71L77.73,143.14L78.79,143.88L78.87,143.88L80.5,145.81L80.58,146.13L82.37,148.16L82.45,148.16L84.32,150.18L84.4,150.29L85.95,151.79L86.03,151.79L89.61,154.78L89.69,154.88L91.32,155.84L91.4,155.84L93.35,157.34L93.44,157.34L94.58,158.09L94.66,158.19L95.63,158.94L95.72,159.26L96.94,160.01L97.02,160.12L98.16,160.86L98.24,160.97L99.46,161.83L99.54,161.83L100.76,162.47L100.84,162.68L101.9,162.89L101.98,162.89L105.73,165.56L105.81,165.67L107.44,166.42L107.52,166.52L108.17,167.27L108.25,167.38L110.2,168.13L110.28,168.23L112.4,168.98L112.48,169.09L113.95,169.83L114.03,169.83L114.76,170.58L114.84,170.69L116.55,171.01L116.63,171.01L118.75,171.54L118.83,171.54L120.78,172.29L120.86,172.4L122,172.72L122.09,172.72L128.43,175.82L128.52,175.82L130.88,176.46L130.96,176.67L133.72,177.42L133.81,177.63L135.03,178.38L135.11,178.49L136.41,179.23L136.49,179.34L139.26,180.09L139.34,180.19L140.97,180.83L141.05,181.05L144.96,181.8L145.04,181.9L147.72,182.86L147.81,182.86L150.49,183.61L150.57,183.72L152.61,184.47L152.69,184.57L156.35,185.32L156.43,185.43L161.15,186.17L161.23,186.39L170.84,187.14L170.92,187.24L172.95,187.78L173.04,187.78L174.91,188.1L174.99,188.1L176.7,188.74L176.78,188.95L180.61,189.7L180.69,189.91L182.8,190.55L182.88,190.77L186.95,191.51L187.04,191.73L189.4,192.48L189.48,192.58L195.01,193.33L195.09,193.44L199.65,194.18L199.73,194.29L207.22,195.04L207.3,195.25L215.6,196L215.68,196.11L219.18,196.85L219.27,196.96L220.73,197.07L220.81,197.07L223.66,197.6L223.74,197.92L225.45,198.14L225.53,198.14L234.49,198.88L234.57,199.1L244.74,199.84L244.82,200.16L251.01,200.91L251.09,201.13L257.28,201.87L257.36,201.98L264.6,202.73L264.68,202.83L273.06,203.58L273.15,203.69L278.84,204.44L278.93,204.54L287.06,205.29L287.15,205.72L288.69,205.82L288.77,205.82L290.32,205.93L290.4,205.93L303.75,206.68L303.83,206.79L304.73,207.11L304.81,207.11L317.18,207.85L317.26,208.07L331.42,208.82L331.5,208.92L351.93,209.67L352.01,209.88L357.63,210.52L357.71,210.74L362.59,211.48L362.68,211.59L379.36,212.34L379.44,212.45L400.6,213.19L400.69,213.3L408.91,213.73L408.99,214.15L420.46,214.9L420.54,215.01L448.38,215.65" style="vector-effect: non-scaling-stroke; fill: none; stroke: rgb(99, 110, 250); stroke-opacity: 1; stroke-width: 2px; opacity: 1;"/></g><g class="points"/><g class="text"/></g></g></g><g class="overplot"><g class="xy2" transform="translate(78,20)" clip-path="url(#clipbfcf9cxy2plot)"><g class="scatterlayer mlayer"><g class="trace scatter traceb6d405" style="stroke-miterlimit: 2; opacity: 1;"><g class="fills"/><g class="errorbars"/><g class="lines"><path class="js-line" d="M0,11.35L3.99,77.82L4.07,78.92L7.98,122.67L8.06,123.41L12.05,153.42L12.13,153.92L16.2,174.34L16.28,174.67L20.59,188.88L20.67,189.09L24.91,198.16L24.99,198.3L29.22,204.22L29.3,204.31L34.1,208.59L34.18,208.65L40.61,211.94L40.7,211.97L47.69,213.8L47.78,213.82L58.03,214.98L58.11,214.99L80.74,215.58L80.82,215.58L448.38,215.65" style="vector-effect: non-scaling-stroke; fill: none; stroke: rgb(239, 85, 59); stroke-opacity: 1; stroke-width: 2px; opacity: 1;"/></g><g class="points"/><g class="text"/></g></g></g></g><path class="xlines-above crisp" d="M0,0" style="fill: none;"/><path class="ylines-above crisp" d="M0,0" style="fill: none;"/><g class="overlines-above"><path class="xy2-x crisp" d="M0,0" style="fill: none;"/><path class="xy2-y crisp" d="M0,0" style="fill: none;"/></g><g class="xaxislayer-above"><g class="xtick"><text text-anchor="middle" x="0" y="260" transform="translate(78,0)" style="font-family: 'Open Sans', verdana, arial, sans-serif; font-size: 12px; fill: rgb(42, 63, 95); fill-opacity: 1; white-space: pre; opacity: 1;">0</text></g><g class="xtick"><text text-anchor="middle" x="0" y="260" style="font-family: 'Open Sans', verdana, arial, sans-serif; font-size: 12px; fill: rgb(42, 63, 95); fill-opacity: 1; white-space: pre; opacity: 1;" transform="translate(159.39,0)">1000</text></g><g class="xtick"><text text-anchor="middle" x="0" y="260" style="font-family: 'Open Sans', verdana, arial, sans-serif; font-size: 12px; fill: rgb(42, 63, 95); fill-opacity: 1; white-space: pre; opacity: 1;" transform="translate(240.78,0)">2000</text></g><g class="xtick"><text text-anchor="middle" x="0" y="260" style="font-family: 'Open Sans', verdana, arial, sans-serif; font-size: 12px; fill: rgb(42, 63, 95); fill-opacity: 1; white-space: pre; opacity: 1;" transform="translate(322.16999999999996,0)">3000</text></g><g class="xtick"><text text-anchor="middle" x="0" y="260" style="font-family: 'Open Sans', verdana, arial, sans-serif; font-size: 12px; fill: rgb(42, 63, 95); fill-opacity: 1; white-space: pre; opacity: 1;" transform="translate(403.56,0)">4000</text></g><g class="xtick"><text text-anchor="middle" x="0" y="260" style="font-family: 'Open Sans', verdana, arial, sans-serif; font-size: 12px; fill: rgb(42, 63, 95); fill-opacity: 1; white-space: pre; opacity: 1;" transform="translate(484.95,0)">5000</text></g></g><g class="yaxislayer-above"><g class="ytick"><text text-anchor="end" x="77" y="4.199999999999999" transform="translate(0,200.73)" style="font-family: 'Open Sans', verdana, arial, sans-serif; font-size: 12px; fill: rgb(42, 63, 95); fill-opacity: 1; white-space: pre; opacity: 1;">−3000</text></g><g class="ytick"><text text-anchor="end" x="77" y="4.199999999999999" style="font-family: 'Open Sans', verdana, arial, sans-serif; font-size: 12px; fill: rgb(42, 63, 95); fill-opacity: 1; white-space: pre; opacity: 1;" transform="translate(0,147.32999999999998)">−2000</text></g><g class="ytick"><text text-anchor="end" x="77" y="4.199999999999999" style="font-family: 'Open Sans', verdana, arial, sans-serif; font-size: 12px; fill: rgb(42, 63, 95); fill-opacity: 1; white-space: pre; opacity: 1;" transform="translate(0,93.93)">−1000</text></g><g class="ytick"><text text-anchor="end" x="77" y="4.199999999999999" style="font-family: 'Open Sans', verdana, arial, sans-serif; font-size: 12px; fill: rgb(42, 63, 95); fill-opacity: 1; white-space: pre; opacity: 1;" transform="translate(0,40.53)">0</text></g></g><g class="overaxes-above"><g class="xy2-x"/><g class="xy2-y"><g class="y2tick"><text text-anchor="start" x="527.38" y="4.199999999999999" transform="translate(0,235.65)" style="font-family: 'Open Sans', verdana, arial, sans-serif; font-size: 12px; fill: rgb(42, 63, 95); fill-opacity: 1; white-space: pre; opacity: 1;">0</text></g><g class="y2tick"><text text-anchor="start" x="527.38" y="4.199999999999999" style="font-family: 'Open Sans', verdana, arial, sans-serif; font-size: 12px; fill: rgb(42, 63, 95); fill-opacity: 1; white-space: pre; opacity: 1;" transform="translate(0,184.58)">500</text></g><g class="y2tick"><text text-anchor="start" x="527.38" y="4.199999999999999" style="font-family: 'Open Sans', verdana, arial, sans-serif; font-size: 12px; fill: rgb(42, 63, 95); fill-opacity: 1; white-space: pre; opacity: 1;" transform="translate(0,133.5)">1000</text></g><g class="y2tick"><text text-anchor="start" x="527.38" y="4.199999999999999" style="font-family: 'Open Sans', verdana, arial, sans-serif; font-size: 12px; fill: rgb(42, 63, 95); fill-opacity: 1; white-space: pre; opacity: 1;" transform="translate(0,82.43)">1500</text></g><g class="y2tick"><text text-anchor="start" x="527.38" y="4.199999999999999" style="font-family: 'Open Sans', verdana, arial, sans-serif; font-size: 12px; fill: rgb(42, 63, 95); fill-opacity: 1; white-space: pre; opacity: 1;" transform="translate(0,31.35)">2000</text></g></g></g></g><g class="subplot xy2"/></g><g class="polarlayer"/><g class="smithlayer"/><g class="ternarylayer"/><g class="geolayer"/><g class="funnelarealayer"/><g class="pielayer"/><g class="iciclelayer"/><g class="treemaplayer"/><g class="sunburstlayer"/><g class="glimages"/><defs id="topdefs-bfcf9c"><g class="clips"/><clipPath id="legendbfcf9c"><rect width="123" height="48" x="0" y="0"/></clipPath></defs><g class="layer-above"><g class="imagelayer"/><g class="shapelayer"/></g><g class="infolayer"><g class="legend" pointer-events="all" transform="translate(564.54,20)"><rect class="bg" shape-rendering="crispEdges" width="123" height="48" x="0" y="0" style="stroke: rgb(68, 68, 68); stroke-opacity: 1; fill: rgb(255, 255, 255); fill-opacity: 1; stroke-width: 0px;"/><g class="scrollbox" transform="" clip-path="url(#legendbfcf9c)"><g class="groups"><g class="traces" transform="translate(0,14.5)" style="opacity: 1;"><text class="legendtext" text-anchor="start" x="40" y="4.680000000000001" style="font-family: 'Open Sans', verdana, arial, sans-serif; font-size: 12px; fill: rgb(42, 63, 95); fill-opacity: 1; white-space: pre;">Cost</text><g class="layers" style="opacity: 1;"><g class="legendfill"/><g class="legendlines"><path class="js-line" d="M5,0h30" style="fill: none; stroke: rgb(99, 110, 250); stroke-opacity: 1; stroke-width: 2px;"/></g><g class="legendsymbols"><g class="legendpoints"/></g></g><rect class="legendtoggle" x="0" y="-9.5" width="117.265625" height="19" style="fill: rgb(0, 0, 0); fill-opacity: 0;"/></g><g class="traces" transform="translate(0,33.5)" style="opacity: 1;"><text class="legendtext" text-anchor="start" x="40" y="4.680000000000001" style="font-family: 'Open Sans', verdana, arial, sans-serif; font-size: 12px; fill: rgb(42, 63, 95); fill-opacity: 1; white-space: pre;">Temperature</text><g class="layers" style="opacity: 1;"><g class="legendfill"/><g class="legendlines"><path class="js-line" d="M5,0h30" style="fill: none; stroke: rgb(239, 85, 59); stroke-opacity: 1; stroke-width: 2px;"/></g><g class="legendsymbols"><g class="legendpoints"/></g></g><rect class="legendtoggle" x="0" y="-9.5" width="117.265625" height="19" style="fill: rgb(0, 0, 0); fill-opacity: 0;"/></g></g></g><rect class="scrollbar" rx="20" ry="3" width="0" height="0" x="0" y="0" style="fill: rgb(128, 139, 164); fill-opacity: 1;"/></g><g class="g-gtitle"/><g class="g-xtitle"><text class="xtitle" x="302.19" y="287.8" text-anchor="middle" style="font-family: 'Open Sans', verdana, arial, sans-serif; font-size: 14px; fill: rgb(42, 63, 95); opacity: 1; font-weight: normal; white-space: pre;">Iterations</text></g><g class="g-ytitle" transform="translate(2.1435546875,0)"><text class="ytitle" transform="rotate(-90,11.856250000000003,133.5)" x="11.856250000000003" y="133.5" text-anchor="middle" style="font-family: 'Open Sans', verdana, arial, sans-serif; font-size: 14px; fill: rgb(42, 63, 95); opacity: 1; font-weight: normal; white-space: pre;">Cost</text></g><g class="g-y2title"><text class="y2title" transform="rotate(-90,583.08125,133.5)" x="583.08125" y="133.5" text-anchor="middle" style="font-family: 'Open Sans', verdana, arial, sans-serif; font-size: 14px; fill: rgb(42, 63, 95); opacity: 1; font-weight: normal; white-space: pre;">Temperature</text></g></g></svg>