<svg class="main-svg" xmlns="http://www.w3.org/2000/svg" xmlns:xlink="http://www.w3.org/1999/xlink" width="700" height="300" style="" viewBox="0 0 700 300"><rect x="0" y="0" width="700" height="300" style="fill: rgb(255, 255, 255); fill-opacity: 1;"/><defs id="defs-1033d1"><g class="clips"><clipPath id="clip1033d1xyplot" class="plotclip"><rect width="448.38" height="227"/></clipPath><clipPath id="clip1033d1xy2plot" class="plotclip"><rect width="448.38" height="227"/></clipPath><clipPath class="axesclip" id="clip1033d1x"><rect x="78" y="0" width="448.38" height="300"/></clipPath><clipPath class="axesclip" id="clip1033d1y"><rect x="0" y="20" width="700" height="227"/></clipPath><clipPath class="axesclip" id="clip1033d1xy"><rect x="78" y="20" width="448.38" height="227"/></clipPath><clipPath class="axesclip" id="clip1033d1y2"><rect x="0" y="20" width="700" height="227"/></clipPath><clipPath class="axesclip" id="clip1033d1xy2"><rect x="78" y="20" width="448.38" height="227"/></clipPath></g><g class="gradients"/><g class="patterns"/></defs><g class="bglayer"><rect class="bg" x="78" y="20" width="448.38" height="227" style="fill: rgb(229, 236, 246); fill-opacity: 1; stroke-width: 0;"/></g><g class="layer-below"><g class="imagelayer"/><g class="shapelayer"/></g><g class="cartesianlayer"><g class="subplot xy"><g class="layer-subplot"><g class="shapelayer"/><g class="imagelayer"/></g><g class="gridlayer"><g class="x"><path class="xgrid crisp" transform="translate(159.39,0)" d="M0,20v227" style="stroke: rgb(255, 255, 255); stroke-opacity: 1; stroke-width: 1px;"/><path class="xgrid crisp" transform="translate(240.78,0)" d="M0,20v227" style="stroke: rgb(255, 255, 255); stroke-opacity: 1; stroke-width: 1px;"/><path class="xgrid crisp" transform="translate(322.16999999999996,0)" d="M0,20v227" style="stroke: rgb(255, 255, 255); stroke-opacity: 1; stroke-width: 1px;"/><path class="xgrid crisp" transform="translate(403.56,0)" d="M0,20v227" style="stroke: rgb(255, 255, 255); stroke-opacity: 1; stroke-width: 1px;"/><path class="xgrid crisp" transform="translate(484.95,0)" d="M0,20v227" style="stroke: rgb(255, 255, 255); stroke-opacity: 1; stroke-width: 1px;"/></g><g class="y"><path class="ygrid crisp" transform="translate(0,211.69)" d="M78,0h448.38" style="stroke: rgb(255, 255, 255); stroke-opacity: 1; stroke-width: 1px;"/><path class="ygrid crisp" transform="translate(0,69.22)" d="M78,0h448.38" style="stroke: rgb(255, 255, 255); stroke-opacity: 1; stroke-width: 1px;"/></g><g class="y2"><path class="y2grid crisp" transform="translate(0,184.58)" d="M78,0h448.38" style="stroke: rgb(255, 255, 255); stroke-opacity: 1; stroke-width: 1px;"/><path class="y2grid crisp" transform="translate(0,133.5)" d="M78,0h448.38" style="stroke: rgb(255, 255, 255); stroke-opacity: 1; stroke-width: 1px;"/><path class="y2grid crisp" transform="translate(0,82.43)" d="M78,0h448.38" style="stroke: rgb(255, 255, 255); stroke-opacity: 1; stroke-width: 1px;"/><path class="y2grid crisp" transform="translate(0,31.35)" d="M78,0h448.38" style="stroke: rgb(255, 255, 255); stroke-opacity: 1; stroke-width: 1px;"/></g></g><g class="zerolinelayer"><path class="xzl zl crisp" transform="translate(78,0)" d="M0,20v227" style="stroke: rgb(255, 255, 255); stroke-opacity: 1; stroke-width: 2px;"/><path class="yzl zl crisp" transform="translate(0,140.45)" d="M78,0h448.38" style="stroke: rgb(255, 255, 255); stroke-opacity: 1; stroke-width: 2px;"/><path class="y2zl zl crisp" transform="translate(0,235.65)" d="M78,0h448.38" style="stroke: rgb(255, 255, 255); stroke-opacity: 1; stroke-width: 2px;"/></g><path class="xlines-below"/><path class="ylines-below"/><g class="overlines-below"><path class="xy2-x"/><path class="xy2-y"/></g><g class="xaxislayer-below"/><g class="yaxislayer-below"/><g class="overaxes-below"><g class="xy2-x"/><g class="xy2-y"/></g><g class="plot" transform="translate(78,20)" clip-path="url(#clip1033d1xyplot)"><g class="scatterlayer mlayer"><g class="trace scatter trace222333" style="stroke-miterlimit: 2; opacity: 1;"><g class="fills"/><g class="errorbars"/><g class="lines"><path class="js-line" d="M0,25.88L0.16,30.73L0.33,21.81L0.65,25.48L0.73,22.09L1.38,21.81L1.63,34.83L1.71,32.09L1.79,27.59L1.87,26.31L2.12,34.03L2.2,35.11L2.6,26.96L3.01,27.22L3.09,26.62L3.42,32.61L3.83,11.35L3.91,12.01L3.99,20.47L4.23,22.26L4.31,25.74L4.4,19.33L4.64,32.04L5.05,24.88L5.13,25L5.53,35.43L5.86,26.68L5.94,26.28L6.1,31.18L6.19,29.59L6.27,23.46L6.43,20.44L6.67,26.42L6.84,25.82L6.92,27.48L7.08,26.39L7.16,23.83L7.49,22.18L7.65,27.82L7.73,27.53L7.81,21.44L8.22,35L8.63,28.7L8.71,29.73L9.44,22.83L9.52,23.83L9.6,22.61L10.42,35.09L10.5,31.52L10.58,29.27L11.39,23.52L11.48,27.33L11.72,23.94L11.96,28.87L12.05,29.22L12.21,26.88L12.94,34.46L13.02,32.55L13.51,40.13L13.67,31.87L13.75,33.55L13.84,33.77L14.32,41.04L14.57,38.08L14.65,34.23L14.98,35.6L15.06,31.72L15.95,46.2L16.12,45.2L16.2,42.32L16.93,49.85L17.09,45.97L17.17,43.6L17.99,55.06L18.23,52.1L18.31,48.79L18.88,53.46L18.96,48.99L19.05,45.88L19.29,47.74L19.37,43.46L19.62,43.6L19.7,44.09L20.02,46.97L20.18,41.27L20.35,42.69L20.43,39.93L20.75,46.57L21,38.5L21.16,41.04L21.24,41.67L21.41,41.78L21.49,39.67L22.55,50.39L22.71,49.05L22.79,49.85L24.82,60.47L24.99,59.45L25.07,58.11L25.15,58.28L25.23,57.45L25.31,56.77L25.72,55.34L26.21,57.99L26.29,58.28L26.7,60.36L26.78,61.19L27.51,64.83L27.59,63.58L27.67,62.38L27.84,61.84L28.49,65.86L28.57,66.74L28.81,66.14L29.06,67.08L29.14,65.52L29.95,71.39L30.03,69.79L30.11,66.63L30.52,68.99L30.6,67L30.85,66.29L31.5,69.33L31.58,68.54L32.31,72.7L32.39,69.71L32.47,69.76L33.13,73.67L33.29,72.41L33.37,70.82L34.43,75.77L34.51,75.8L35.57,81.93L35.65,80.16L35.73,78.65L36.3,80.48L36.38,80.82L38.99,91.99L39.07,92.16L39.15,90.76L39.72,93.81L39.8,94.35L42.65,102.59L42.73,102.7L44.03,106.52L44.11,107.15L44.93,109.31L45.17,109L45.25,109.14L47.13,113.96L47.21,114.01L48.43,116.46L48.51,114.7L49.97,118.23L50.06,118.23L51.68,121.11L51.76,121.45L53.39,125.41L53.47,125.5L58.44,133.3L58.52,133.3L59.82,134.87L59.9,134.93L61.94,137.61L62.02,137.63L64.05,139.86L64.14,139.91L66.58,142.99L66.66,143.13L69.26,145.75L69.34,146.24L70.73,147.38L70.81,147.49L74.31,151.34L74.39,151.34L79.27,156.92L79.36,156.92L82.12,159.26L82.2,159.26L86.93,163.02L87.01,163.02L88.23,163.76L88.31,163.96L89.77,164.99L89.86,165.05L92.13,165.99L92.22,166.13L93.35,166.84L93.44,167.01L94.58,167.58L94.66,167.58L97.59,169.49L97.67,169.49L98.81,170.26L98.89,170.26L107.52,173.76L107.6,173.76L109.06,174.16L109.14,174.16L112.73,175.82L112.81,175.82L114.03,176.61L114.11,176.61L116.55,177.35L116.63,177.44L120.38,179.01L120.46,179.01L121.84,179.72L121.92,179.78L125.59,180.49L125.67,180.55L127.78,181.77L127.86,181.77L130.55,182.43L130.63,182.57L133.32,183.11L133.4,183.34L135.92,184.02L136,184.14L137.88,184.71L137.96,184.96L142.68,185.7L142.76,185.76L144.79,186.5L144.88,186.56L148.37,187.27L148.46,187.41L149.35,187.81L149.43,187.81L152.12,188.41L152.2,188.41L154.64,188.55L154.72,188.55L161.64,189.18L161.72,189.32L164.73,190.03L164.82,190.09L167.75,190.83L167.83,190.95L172.06,191.66L172.14,191.77L174.34,192.37L174.42,192.54L179.55,193.25L179.63,193.31L185.33,194.65L185.41,194.65L190.78,195.39L190.86,195.42L200.95,196.56L201.03,196.56L207.14,197.19L207.22,197.33L211.37,197.96L211.45,198.1L217.64,198.81L217.72,198.87L222.2,199.67L222.28,199.67L223.99,200.41L224.07,200.46L227.81,201.18L227.89,201.37L231.8,202.09L231.88,202.14L243.28,202.88L243.36,202.91L245.96,203.11L246.04,203.11L249.14,203.43L249.22,203.43L256.14,204.11L256.22,204.2L264.52,204.85L264.6,205.02L276.48,205.73L276.56,205.82L285.27,206.56L285.35,206.73L293.66,207.33L293.74,207.56L307,208.3L307.09,208.33L313.43,209.07L313.52,209.12L334.35,209.87L334.43,209.89L346.8,210.58L346.89,210.75L356.41,211.46L356.49,211.52L370,212.23L370.08,212.32L390.76,213L390.84,213.09L417.45,213.8L417.53,213.85L430.72,214.6L430.8,214.65L444.55,215.39L444.64,215.45L448.38,215.65" style="vector-effect: non-scaling-stroke; fill: none; stroke: rgb(99, 110, 250); stroke-opacity: 1; stroke-width: 2px; opacity: 1;"/></g><g class="points"/><g class="text"/></g></g></g><g class="overplot"><g class="xy2" transform="translate(78,20)" clip-path="url(#clip1033d1xy2plot)"><g class="scatterlayer mlayer"><g class="trace scatter trace6b28e0" style="stroke-miterlimit: 2; opacity: 1;"><g class="fills"/><g class="errorbars"/><g class="lines"><path class="js-line" d="M0,11.35L3.99,77.82L4.07,78.92L7.98,122.67L8.06,123.41L12.05,153.42L12.13,153.92L16.2,174.34L16.28,174.67L20.59,188.88L20.67,189.09L24.91,198.16L24.99,198.3L29.22,204.22L29.3,204.31L34.1,208.59L34.18,208.65L40.61,211.94L40.7,211.97L47.69,213.8L47.78,213.82L58.03,214.98L58.11,214.99L80.74,215.58L80.82,215.58L448.38,215.65" style="vector-effect: non-scaling-stroke; fill: none; stroke: rgb(239, 85, 59); stroke-opacity: 1; stroke-width: 2px; opacity: 1;"/></g><g class="points"/><g class="text"/></g></g></g></g><path class="xlines-above crisp" d="M0,0" style="fill: none;"/><path class="ylines-above crisp" d="M0,0" style="fill: none;"/><g class="overlines-above"><path class="xy2-x crisp" d="M0,0" style="fill: none;"/><path class="xy2-y crisp" d="M0,0" style="fill: none;"/></g><g class="xaxislayer-above"><g class="xtick"><text text-anchor="middle" x="0" y="260" transform="translate(78,0)" style="font-family: 'Open Sans', verdana, arial, sans-serif; font-size: 12px; fill: rgb(42, 63, 95); fill-opacity: 1; white-space: pre; opacity: 1;">0</text></g><g class="xtick"><text text-anchor="middle" x="0" y="260" style="font-family: 'Open Sans', verdana, arial, sans-serif; font-size: 12px; fill: rgb(42, 63, 95); fill-opacity: 1; white-space: pre; opacity: 1;" transform="translate(159.39,0)">1000</text></g><g class="xtick"><text text-anchor="middle" x="0" y="260" style="font-family: 'Open Sans', verdana, arial, sans-serif; font-size: 12px; fill: rgb(42, 63, 95); fill-opacity: 1; white-space: pre; opacity: 1;" transform="translate(240.78,0)">2000</text></g><g class="xtick"><text text-anchor="middle" x="0" y="260" style="font-family: 'Open Sans', verdana, arial, sans-serif; font-size: 12px; fill: rgb(42, 63, 95); fill-opacity: 1; white-space: pre; opacity: 1;" transform="translate(322.16999999999996,0)">3000</text></g><g class="xtick"><text text-anchor="middle" x="0" y="260" style="font-family: 'Open Sans', verdana, arial, sans-serif; font-size: 12px; fill: rgb(42, 63, 95); fill-opacity: 1; white-space: pre; opacity: 1;" transform="translate(403.56,0)">4000</text></g><g class="xtick"><text text-anchor="middle" x="0" y="260" style="font-family: 'Open Sans', verdana, arial, sans-serif; font-size: 12px; fill: rgb(42, 63, 95); fill-opacity: 1; white-space: pre; opacity: 1;" transform="translate(484.95,0)">5000</text></g></g><g class="yaxislayer-above"><g class="ytick"><text text-anchor="end" x="77" y="4.199999999999999" transform="translate(0,211.69)" style="font-family: 'Open Sans', verdana, arial, sans-serif; font-size: 12px; fill: rgb(42, 63, 95); fill-opacity: 1; white-space: pre; opacity: 1;">−5000</text></g><g class="ytick"><text text-anchor="end" x="77" y="4.199999999999999" style="font-family: 'Open Sans', verdana, arial, sans-serif; font-size: 12px; fill: rgb(42, 63, 95); fill-opacity: 1; white-space: pre; opacity: 1;" transform="translate(0,140.45)">0</text></g><g class="ytick"><text text-anchor="end" x="77" y="4.199999999999999" style="font-family: 'Open Sans', verdana, arial, sans-serif; font-size: 12px; fill: rgb(42, 63, 95); fill-opacity: 1; white-space: pre; opacity: 1;" transform="translate(0,69.22)">5000</text></g></g><g class="overaxes-above"><g class="xy2-x"/><g class="xy2-y"><g class="y2tick"><text text-anchor="start" x="527.38" y="4.199999999999999" transform="translate(0,235.65)" style="font-family: 'Open Sans', verdana, arial, sans-serif; font-size: 12px; fill: rgb(42, 63, 95); fill-opacity: 1; white-space: pre; opacity: 1;">0</text></g><g class="y2tick"><text text-anchor="start" x="527.38" y="4.199999999999999" style="font-family: 'Open Sans', verdana, arial, sans-serif; font-size: 12px; fill: rgb(42, 63, 95); fill-opacity: 1; white-space: pre; opacity: 1;" transform="translate(0,184.58)">500</text></g><g class="y2tick"><text text-anchor="start" x="527.38" y="4.199999999999999" style="font-family: 'Open Sans', verdana, arial, sans-serif; font-size: 12px; fill: rgb(42, 63, 95); fill-opacity: 1; white-space: pre; opacity: 1;" transform="translate(0,133.5)">1000</text></g><g class="y2tick"><text text-anchor="start" x="527.38" y="4.199999999999999" style="font-family: 'Open Sans', verdana, arial, sans-serif; font-size: 12px; fill: rgb(42, 63, 95); fill-opacity: 1; white-space: pre; opacity: 1;" transform="translate(0,82.43)">1500</text></g><g class="y2tick"><text text-anchor="start" x="527.38" y="4.199999999999999" style="font-family: 'Open Sans', verdana, arial, sans-serif; font-size: 12px; fill: rgb(42, 63, 95); fill-opacity: 1; white-space: pre; opacity: 1;" transform="translate(0,31.35)">2000</text></g></g></g></g><g class="subplot xy2"/></g><g class="polarlayer"/><g class="smithlayer"/><g class="ternarylayer"/><g class="geolayer"/><g class="funnelarealayer"/><g class="pielayer"/><g class="iciclelayer"/><g class="treemaplayer"/><g class="sunburstlayer"/><g class="glimages"/><defs id="topdefs-1033d1"><g class="clips"/><clipPath id="legend1033d1"><rect width="123" height="48" x="0" y="0"/></clipPath></defs><g class="layer-above"><g class="imagelayer"/><g class="shapelayer"/></g><g class="infolayer"><g class="legend" pointer-events="all" transform="translate(564.54,20)"><rect class="bg" shape-rendering="crispEdges" width="123" height="48" x="0" y="0" style="stroke: rgb(68, 68, 68); stroke-opacity: 1; fill: rgb(255, 255, 255); fill-opacity: 1; stroke-width: 0px;"/><g class="scrollbox" transform="" clip-path="url(#legend1033d1)"><g class="groups"><g class="traces" transform="translate(0,14.5)" style="opacity: 1;"><text class="legendtext" text-anchor="start" x="40" y="4.680000000000001" style="font-family: 'Open Sans', verdana, arial, sans-serif; font-size: 12px; fill: rgb(42, 63, 95); fill-opacity: 1; white-space: pre;">Cost</text><g class="layers" style="opacity: 1;"><g class="legendfill"/><g class="legendlines"><path class="js-line" d="M5,0h30" style="fill: none; stroke: rgb(99, 110, 250); stroke-opacity: 1; stroke-width: 2px;"/></g><g class="legendsymbols"><g class="legendpoints"/></g></g><rect class="legendtoggle" x="0" y="-9.5" width="117.265625" height="19" style="fill: rgb(0, 0, 0); fill-opacity: 0;"/></g><g class="traces" transform="translate(0,33.5)" style="opacity: 1;"><text class="legendtext" text-anchor="start" x="40" y="4.680000000000001" style="font-family: 'Open Sans', verdana, arial, sans-serif; font-size: 12px; fill: rgb(42, 63, 95); fill-opacity: 1; white-space: pre;">Temperature</text><g class="layers" style="opacity: 1;"><g class="legendfill"/><g class="legendlines"><path class="js-line" d="M5,0h30" style="fill: none; stroke: rgb(239, 85, 59); stroke-opacity: 1; stroke-width: 2px;"/></g><g class="legendsymbols"><g class="legendpoints"/></g></g><rect class="legendtoggle" x="0" y="-9.5" width="117.265625" height="19" style="fill: rgb(0, 0, 0); fill-opacity: 0;"/></g></g></g><rect class="scrollbar" rx="20" ry="3" width="0" height="0" x="0" y="0" style="fill: rgb(128, 139, 164); fill-opacity: 1;"/></g><g class="g-gtitle"/><g class="g-xtitle"><text class="xtitle" x="302.19" y="287.8" text-anchor="middle" style="font-family: 'Open Sans', verdana, arial, sans-serif; font-size: 14px; fill: rgb(42, 63, 95); opacity: 1; font-weight: normal; white-space: pre;">Iterations</text></g><g class="g-ytitle" transform="translate(2.1435546875,0)"><text class="ytitle" transform="rotate(-90,11.856250000000003,133.5)" x="11.856250000000003" y="133.5" text-anchor="middle" style="font-family: 'Open Sans', verdana, arial, sans-serif; font-size: 14px; fill: rgb(42, 63, 95); opacity: 1; font-weight: normal; white-space: pre;">Cost</text></g><g class="g-y2title"><text class="y2title" transform="rotate(-90,583.08125,133.5)" x="583.08125" y="133.5" text-anchor="middle" style="font-family: 'Open Sans', verdana, arial, sans-serif; font-size: 14px; fill: rgb(42, 63, 95); opacity: 1; font-weight: normal; white-space: pre;">Temperature</text></g></g></svg>