<svg class="main-svg" xmlns="http://www.w3.org/2000/svg" xmlns:xlink="http://www.w3.org/1999/xlink" width="700" height="300" style="" viewBox="0 0 700 300"><rect x="0" y="0" width="700" height="300" style="fill: rgb(255, 255, 255); fill-opacity: 1;"/><defs id="defs-4f71ff"><g class="clips"><clipPath id="clip4f71ffxyplot" class="plotclip"><rect width="448.38" height="227"/></clipPath><clipPath id="clip4f71ffxy2plot" class="plotclip"><rect width="448.38" height="227"/></clipPath><clipPath class="axesclip" id="clip4f71ffx"><rect x="78" y="0" width="448.38" height="300"/></clipPath><clipPath class="axesclip" id="clip4f71ffy"><rect x="0" y="20" width="700" height="227"/></clipPath><clipPath class="axesclip" id="clip4f71ffxy"><rect x="78" y="20" width="448.38" height="227"/></clipPath><clipPath class="axesclip" id="clip4f71ffy2"><rect x="0" y="20" width="700" height="227"/></clipPath><clipPath class="axesclip" id="clip4f71ffxy2"><rect x="78" y="20" width="448.38" height="227"/></clipPath></g><g class="gradients"/><g class="patterns"/></defs><g class="bglayer"><rect class="bg" x="78" y="20" width="448.38" height="227" style="fill: rgb(229, 236, 246); fill-opacity: 1; stroke-width: 0;"/></g><g class="layer-below"><g class="imagelayer"/><g class="shapelayer"/></g><g class="cartesianlayer"><g class="subplot xy"><g class="layer-subplot"><g class="shapelayer"/><g class="imagelayer"/></g><g class="gridlayer"><g class="x"><path class="xgrid crisp" transform="translate(186.57999999999998,0)" d="M0,20v227" style="stroke: rgb(255, 255, 255); stroke-opacity: 1; stroke-width: 1px;"/><path class="xgrid crisp" transform="translate(295.15999999999997,0)" d="M0,20v227" style="stroke: rgb(255, 255, 255); stroke-opacity: 1; stroke-width: 1px;"/><path class="xgrid crisp" transform="translate(403.74,0)" d="M0,20v227" style="stroke: rgb(255, 255, 255); stroke-opacity: 1; stroke-width: 1px;"/><path class="xgrid crisp" transform="translate(512.3199999999999,0)" d="M0,20v227" style="stroke: rgb(255, 255, 255); stroke-opacity: 1; stroke-width: 1px;"/></g><g class="y"><path class="ygrid crisp" transform="translate(0,212.68)" d="M78,0h448.38" style="stroke: rgb(255, 255, 255); stroke-opacity: 1; stroke-width: 1px;"/><path class="ygrid crisp" transform="translate(0,178.31)" d="M78,0h448.38" style="stroke: rgb(255, 255, 255); stroke-opacity: 1; stroke-width: 1px;"/><path class="ygrid crisp" transform="translate(0,143.94)" d="M78,0h448.38" style="stroke: rgb(255, 255, 255); stroke-opacity: 1; stroke-width: 1px;"/><path class="ygrid crisp" transform="translate(0,109.58)" d="M78,0h448.38" style="stroke: rgb(255, 255, 255); stroke-opacity: 1; stroke-width: 1px;"/><path class="ygrid crisp" transform="translate(0,75.21000000000001)" d="M78,0h448.38" style="stroke: rgb(255, 255, 255); stroke-opacity: 1; stroke-width: 1px;"/></g><g class="y2"><path class="y2grid crisp" transform="translate(0,184.61)" d="M78,0h448.38" style="stroke: rgb(255, 255, 255); stroke-opacity: 1; stroke-width: 1px;"/><path class="y2grid crisp" transform="translate(0,133.53)" d="M78,0h448.38" style="stroke: rgb(255, 255, 255); stroke-opacity: 1; stroke-width: 1px;"/><path class="y2grid crisp" transform="translate(0,82.44)" d="M78,0h448.38" style="stroke: rgb(255, 255, 255); stroke-opacity: 1; stroke-width: 1px;"/><path class="y2grid crisp" transform="translate(0,31.35)" d="M78,0h448.38" style="stroke: rgb(255, 255, 255); stroke-opacity: 1; stroke-width: 1px;"/></g></g><g class="zerolinelayer"><path class="xzl zl crisp" transform="translate(78,0)" d="M0,20v227" style="stroke: rgb(255, 255, 255); stroke-opacity: 1; stroke-width: 2px;"/><path class="yzl zl crisp" transform="translate(0,40.85)" d="M78,0h448.38" style="stroke: rgb(255, 255, 255); stroke-opacity: 1; stroke-width: 2px;"/><path class="y2zl zl crisp" transform="translate(0,235.7)" d="M78,0h448.38" style="stroke: rgb(255, 255, 255); stroke-opacity: 1; stroke-width: 2px;"/></g><path class="xlines-below"/><path class="ylines-below"/><g class="overlines-below"><path class="xy2-x"/><path class="xy2-y"/></g><g class="xaxislayer-below"/><g class="yaxislayer-below"/><g class="overaxes-below"><g class="xy2-x"/><g class="xy2-y"/></g><g class="plot" transform="translate(78,20)" clip-path="url(#clip4f71ffxyplot)"><g class="scatterlayer mlayer"><g class="trace scatter trace0565a1" style="stroke-miterlimit: 2; opacity: 1;"><g class="fills"/><g class="errorbars"/><g class="lines"><path class="js-line" d="M0,18.6L0.05,16.11L0.6,21.65L0.65,19.51L0.71,24.37L0.81,26.98L1.3,13.37L1.47,23.63L1.52,22.87L1.85,16.02L2.12,18.52L2.17,21.46L2.39,16.89L2.44,20.75L2.61,14.6L3.09,22.41L3.15,21.1L3.2,22.73L3.37,18.32L3.75,25.51L4.02,19.46L4.07,20.78L4.23,20.28L4.4,23.18L4.45,18.83L4.72,27.16L5.21,20.65L5.27,19.54L5.37,16.03L5.86,22.82L6.03,16.64L6.08,21.54L6.46,20.34L6.79,25.96L6.89,24.12L6.95,23.24L7,24.56L7.33,16.7L7.65,22.57L7.71,21.92L7.82,17.85L8.09,25.59L8.2,24.09L8.25,24.61L8.41,25.63L8.52,19.44L8.96,21L9.01,26.07L9.5,18.29L9.88,18.3L9.94,17.51L10.37,13.71L10.64,23.63L10.8,22.96L10.86,18.77L10.97,16.7L11.02,20.16L11.08,23.52L11.13,23.81L11.24,21.41L11.29,19.34L11.62,17.14L11.73,21.79L11.94,19.43L12,23.34L12.05,23.99L12.16,19.48L12.27,20L12.32,16.13L12.54,25.75L13.14,21.35L13.19,20.22L13.41,24.86L13.46,26.42L13.63,19.31L13.84,28.59L14.22,20.61L14.28,22.2L14.5,17.54L14.93,27.04L15.09,25.64L15.15,20.93L15.47,23.54L15.69,17.52L15.74,11.71L15.85,11.35L16.29,29.76L16.72,23.57L16.78,20.11L17.05,17.48L17.26,25.29L17.32,25.91L17.48,27.9L18.08,16.96L18.24,19.02L18.3,23.93L18.51,25.31L18.73,19.61L19.06,20.38L19.11,21.58L19.54,17.59L19.82,26.1L19.92,24.15L19.98,18.37L20.14,17.04L20.36,20.71L20.52,18.41L20.58,13.61L20.9,21.84L21.39,18.79L21.44,18.16L21.5,19.93L21.61,11.82L22.04,15.98L22.1,13.33L23.07,23.9L23.13,21.62L23.45,22.54L23.72,13.82L24,15.27L24.05,14.54L24.76,22.48L24.81,20.07L24.86,17.07L25.19,15.92L25.41,23.48L25.62,21.23L25.68,18.45L25.79,22.62L25.95,16.38L26.33,19.75L26.38,17.03L26.44,16.21L26.93,19.68L26.98,22.82L27.2,14.7L27.52,26.18L27.8,16.2L27.85,15.95L28.61,24.57L28.72,24.1L28.77,26.25L28.83,28.87L29.1,19.68L29.43,23.71L29.48,24.31L29.75,17.31L30.02,25.2L30.19,25.13L30.24,26.34L30.46,26.57L30.78,18.34L31.22,21.07L31.27,23.68L31.38,26.39L31.87,21.07L31.92,23.01L31.98,25.8L32.14,18.82L32.57,28.41L32.68,27.26L32.74,27.32L32.95,29.49L33.5,24.14L33.55,25.34L33.71,20.91L34.15,26.92L34.31,24.18L34.37,25.37L34.58,20.09L35.07,26.08L35.13,24.54L35.18,23.12L35.45,25.42L36.1,17.48L36.16,18.8L36.37,24.63L36.54,18.89L36.59,17.04L37.24,23.47L37.51,23.19L37.57,21.13L38.11,25.93L38.27,20.57L38.38,25.73L38.44,26.02L38.55,26.58L38.65,21.71L38.71,21.55L38.82,24.17L39.14,20.25L39.2,17.95L39.58,23.5L39.69,19.11L39.74,16.65L40.34,28.97L40.66,24.85L40.72,20.97L40.83,21.42L40.88,19.21L40.93,20.76L40.99,22.65L41.04,22.26L41.26,26.32L41.37,23.59L41.42,25.56L41.48,25.32L41.53,26.32L41.59,29.94L42.07,17.81L42.45,22.15L42.51,21.92L42.67,27.42L42.73,26.02L42.78,23.13L42.83,22.98L42.89,23.51L42.94,25.2L43,27.68L43.43,23.15L43.7,26.43L43.76,26.36L44.14,28.53L44.63,18.68L44.68,20.56L45.11,18.24L45.49,23.84L45.55,23.17L45.87,25.86L46.15,21.03L46.42,25.55L46.47,25.39L46.58,25.63L47.12,17.88L47.34,20.45L47.4,21.8L47.67,26.23L48.16,25.99L48.21,23.08L48.48,26.22L48.81,19.76L49.02,20.58L49.08,21.01L49.4,24.9L49.84,21.54L49.89,19.46L50.11,22.18L50.22,21.25L50.27,17.12L51.09,24.31L51.25,20.09L51.3,19.83L51.58,19.49L52.01,27.84L52.06,25.16L52.12,23.84L52.17,21.45L52.72,27.98L52.82,24.13L52.88,25.37L52.93,26.04L53.2,21.51L53.26,22.56L53.31,18.55L54.34,33.03L54.4,29.77L54.45,29.54L54.67,30.69L54.94,27.62L55.27,28.47L55.32,28.42L55.65,29.88L56.3,16.92L56.57,19.44L56.62,21.14L56.68,19.85L56.9,26.23L57.33,20.64L57.38,21.33L57.6,25.83L57.76,23.31L57.82,20.7L58.14,18.45L58.9,28.25L58.96,25.23L59.01,25.77L59.18,21.95L59.5,23.67L59.56,23.43L59.72,19.69L59.99,28.81L60.04,28.14L60.1,28.76L60.21,29.56L60.37,26.8L60.42,26.9L60.48,22.45L60.53,23.66L60.8,16.65L60.86,13.32L61.51,28.41L61.84,27.96L61.89,28.66L61.94,28.86L62,25.74L62.32,19.13L62.7,28.73L62.76,26.12L63.14,29.16L63.57,27.54L63.63,27.74L63.9,28.12L64.01,21.76L64.44,25.1L64.5,25.63L64.6,25.42L65.04,31.72L65.31,30.06L65.36,29.9L65.53,30.81L65.58,29.57L65.64,25.55L65.85,27.12L65.96,21.22L66.34,25.76L66.4,28.48L66.78,23.05L67.21,29.97L67.27,28.54L67.43,27.31L67.7,32.19L67.92,30.16L67.97,27.05L68.35,19.58L68.68,25.33L68.73,27.44L68.79,28.28L69.06,22.52L69.22,24.28L69.27,22.25L69.87,27.32L69.93,29.69L69.98,30.31L70.09,27.4L70.47,28.17L70.52,26.9L70.69,28.82L70.9,25.88L70.96,27.34L71.01,24.86L71.17,26.74L71.34,24.29L71.39,22.1L71.61,20.75L72.48,29.35L72.53,28.55L73.02,30.77L73.07,28.35L73.24,29.17L73.29,27.79L73.51,29.5L73.56,26.56L73.78,27.34L73.83,25.52L74.54,33.77L74.59,31.07L74.65,28.13L74.7,25.66L75.25,31.34L75.35,28.43L75.41,30.1L75.68,30.9L75.9,23.43L76.22,25.91L76.28,26.11L76.6,29.34L76.82,25.46L76.98,25.97L77.04,25.2L77.09,25.4L77.15,22.47L77.69,30.72L77.8,28.98L77.85,26.58L78.18,24.29L78.56,30.29L78.72,29.77L78.77,28.47L78.88,29.65L79.1,26.57L79.26,26.88L79.32,24.67L79.48,25.49L79.59,20.7L79.81,22.41L79.86,20.5L79.97,18.07L80.57,26.46L80.62,28.68L80.73,28.42L81.49,32.58L81.54,31.88L81.6,33.91L81.92,29.48L82.25,31.74L82.3,31.36L82.36,29.22L82.63,32.44L83.01,30.27L83.06,31.04L83.28,30.7L84.04,37.46L84.31,34.63L84.37,33.61L84.58,33.74L84.96,29.92L85.13,32.34L85.18,32.63L85.72,37.09L85.89,35.87L85.94,32.62L86.05,33.89L86.21,30.21L86.27,28.74L86.43,23.97L87.03,27.06L87.08,26.42L87.41,25.61L88.22,37.27L88.6,35.91L88.66,34.9L88.93,29.48L89.42,33.84L89.47,33.1L90.12,25.61L90.23,29.75L90.28,30.8L90.45,31.39L90.66,27.17L90.77,30.89L90.83,32.35L91.04,33.93L91.1,30.76L91.53,32.44L91.97,28.18L92.02,29.2L92.24,31.42L92.35,28.51L92.4,28.87L92.46,28L92.67,29.6L92.78,27.76L92.84,26.72L93.6,36.18L93.7,33.98L93.76,31.15L93.81,30.47L94.19,33.13L94.36,32.84L94.41,33.8L94.57,28.7L95.01,34.78L95.12,34.2L95.17,32.18L95.28,35.28L95.71,31.26L95.77,27.97L95.98,30.01L96.15,27.08L96.31,27.32L96.36,29.55L96.47,28.2L96.64,30.85L96.69,31.36L97.29,34.28L97.34,31.83L97.4,29.23L97.72,31.6L97.88,26.81L98.1,28.12L98.16,29.54L98.26,30.95L98.64,28.26L98.7,29.67L98.75,27.65L98.92,31.37L99.3,29.51L99.35,27.72L99.57,32.09L100,27.23L100.06,27.43L100.11,27.45L100.44,31.89L100.76,26.25L100.82,25.74L101.85,37.51L101.9,37.56L102.28,34.06L102.66,36.76L102.72,37.26L103.26,33.08L103.48,35.44L103.53,36.28L103.69,40.5L104.02,37.64L104.07,35.96L104.73,37.48L104.83,33.27L104.89,33.8L104.94,34.1L105.43,38.29L105.7,34.69L105.76,35L106.3,31.56L106.52,33.41L106.57,34.53L107.01,35.43L107.17,33.1L107.44,34.05L107.49,34.76L107.66,33.56L108.36,38.55L108.42,36.41L108.53,36.51L108.85,33.11L109.18,34.46L109.23,35.56L109.34,35.89L109.88,32.92L109.99,34.9L110.05,36.1L110.21,36.72L110.37,32.61L110.43,32.9L110.48,32.46L110.7,34.44L110.75,32.2L110.86,33.27L110.91,31.03L111.57,37.29L111.78,36.43L111.84,36.44L112.76,41.16L112.98,40.42L113.03,39.78L113.19,42.06L113.52,36.96L113.57,35.96L113.9,39.48L114.01,34.29L114.17,34.56L114.23,32.75L115.37,39.26L115.42,37.98L115.47,35.39L115.64,36.79L115.75,36.27L115.8,33.49L116.45,39.89L116.78,38.6L116.83,37.62L117.16,35.87L117.54,38.04L117.59,38.75L118.03,34.35L118.41,36.96L118.46,36.8L118.62,36.69L118.95,39.69L119.17,36.77L119.22,35.15L119.33,32.67L119.55,37.96L119.98,34.18L120.03,34.64L121.17,42.37L121.23,41.33L121.61,44.07L121.77,42.74L121.83,41.72L121.99,42.36L122.32,37.98L122.59,40.96L122.64,41.11L122.75,42.23L122.97,39.56L123.35,41.33L123.4,40.07L123.56,38.91L123.94,40.74L124.11,39.84L124.16,39.95L124.22,38.89L124.6,44.63L124.65,44.95L125.03,46.9L125.19,44.15L125.3,44.98L125.36,44.86L125.95,45.22L126.12,40.4L126.17,40.72L126.22,41.33L126.33,41.83L126.55,39.5L126.6,38.9L126.71,38.55L127.2,45.59L127.53,43.62L127.58,42.03L127.74,41.46L128.12,44.1L128.34,43.22L128.4,41.64L129.26,48.62L129.43,46.17L129.48,44.4L129.59,45.27L129.81,42.26L129.86,41.09L130.08,42.7L130.24,39.19L130.3,38.5L130.89,45.01L131.27,42.9L131.33,42.91L131.49,41.9L131.92,44.14L132.03,43.31L132.09,42.89L132.2,43L132.25,44.12L133.06,46.99L133.12,45.76L133.82,42L133.93,43.46L133.99,43.72L134.15,43.55L134.91,46.13L134.96,45.27L135.07,44.5L135.78,50.4L135.89,50.05L135.94,49.18L136.16,47.38L137.24,53.27L137.3,52.13L137.35,50.51L138.11,47.09L138.22,47.33L138.28,47.49L138.38,44.03L139.04,45.94L139.09,46.01L139.9,49.52L139.96,48.38L140.01,45.91L140.07,43.66L140.67,49.29L140.72,46.73L140.77,47L140.99,48.57L141.21,46.89L141.37,47.04L141.43,44.43L141.64,46.06L142.02,42.86L142.08,41.52L142.19,40.82L143,45.96L143.11,45.02L143.16,43.3L143.6,45.97L143.71,43.24L143.81,43.36L143.87,42L144.79,47.54L144.85,48.11L145.01,46.14L145.5,48.84L145.55,46.15L145.66,45.26L146.37,50.58L146.69,49.37L146.75,47.05L147.29,44.23L147.51,46.61L147.56,46.75L148.16,49.8L148.37,47.33L148.43,45.89L148.75,46.21L148.97,43.42L149.19,44.7L149.24,45.3L150,50.62L150.11,47.92L150.17,46.25L150.49,48.16L150.55,46.4L150.87,45.29L151.74,51.5L152.12,51.4L152.17,49.58L152.28,48.95L152.55,51.14L152.66,50.89L152.72,51.97L152.83,52.76L153.26,50.53L153.37,51.35L153.42,51.46L153.59,51.93L153.64,51.38L153.69,48.85L154.07,50.53L154.18,48.69L154.45,49.57L154.51,48.13L154.89,50.56L155.05,47.77L155.16,49.3L155.21,48.36L157.11,56.87L157.17,56.38L157.22,56.49L157.39,51.33L157.98,54.96L158.04,55.34L158.36,56.5L158.74,55.24L158.8,55.34L159.02,57.59L159.23,55.21L159.61,56.44L159.67,56.44L160.05,57.63L160.1,56.04L160.16,56.54L160.21,53.68L160.7,57.18L161.13,56.86L161.19,57.01L161.3,57.18L161.4,55.75L161.62,57.18L161.68,57.65L161.84,57.19L162.6,59.69L162.65,59.72L163.3,55.84L163.47,56.63L163.52,57.15L164.01,59.48L164.23,58.4L164.28,56.31L164.77,55.37L164.99,55.93L165.04,56.82L165.86,60.61L165.91,58.79L166.02,59.32L166.29,56.89L166.34,56.06L166.56,55.22L167.1,57.65L167.16,56.39L167.32,52.52L168.03,53.05L168.08,53.28L168.68,57.41L169.11,56.23L169.17,56.23L169.71,58.9L169.76,56.98L169.93,55.31L170.36,58.08L170.52,55.65L170.58,56.12L170.9,56.7L170.96,55.67L171.01,54.68L171.23,53.91L171.5,55.66L171.56,56.49L171.94,56.03L172.42,58.61L172.48,57.95L173.78,63.81L173.84,62.65L173.89,62.88L174.11,61.26L174.22,61.35L174.27,60.9L175.08,53.9L175.41,55.93L175.46,56.37L175.84,57.25L176.01,55.34L176.17,56.53L176.22,56.59L177.31,59.2L177.36,59.24L178.07,56.45L178.23,57.67L178.29,57.91L179.75,61.81L179.81,61.99L180.51,64.05L180.95,63.86L181,62.7L181.93,67.76L182.36,67.6L182.41,67.63L182.69,66.46L183.34,69.8L183.39,70.17L183.83,70.6L184.37,65.42L184.42,65.88L184.75,62.19L185.18,63.78L185.24,64.06L187.03,68.11L187.08,66.45L187.68,67.33L187.73,66.01L188.49,69.14L188.55,69.64L189.25,71.58L189.31,71.83L189.53,71.66L190.77,76.09L190.83,74.74L191.86,76.44L191.91,75.66L192.57,77.35L192.62,75.24L193.11,73.22L193.38,74.7L193.43,74.82L194.85,78.43L194.9,76.53L195.28,78.22L195.33,76.14L195.44,76.37L195.5,76.37L195.77,76.69L195.82,75.66L195.88,73.8L196.48,76.99L196.53,77.03L196.8,78.94L196.91,76.68L197.24,77.67L197.29,76.27L198.1,78.29L198.16,77.29L198.21,76.6L198.38,76.99L198.43,76.3L198.54,76.89L198.59,75.23L200.33,78.73L200.38,77.41L200.49,76.2L201.04,78.24L201.09,78.24L201.74,74.97L202.01,76L202.07,76L202.18,75.46L202.56,76.68L202.61,76.68L202.66,77.11L203.21,79.99L203.26,80.68L203.75,83.31L204.08,82.78L204.13,80.93L204.62,75.55L204.94,77.04L205,77.64L206.3,81.51L206.36,81.98L207.39,84.86L207.71,84.55L207.77,83.29L207.98,84.17L208.15,81.49L208.36,82.01L208.42,80.29L208.58,78.26L209.12,79.62L209.18,79.98L209.34,80.21L209.4,78.68L210.16,79.58L210.21,78.63L210.37,79.35L210.59,77.03L210.97,78.79L211.02,78.94L212.65,83.92L212.76,82.99L212.82,81.97L213.14,82.5L213.2,83.13L213.47,83.44L213.52,81.68L213.58,81.9L213.63,81.92L214.01,83.16L214.06,81.85L214.5,82.92L214.55,82.59L215.04,82.91L215.26,81.09L215.42,81.75L215.48,81.78L216.78,86.51L217.05,86.06L217.11,85.92L218.35,88.65L218.41,87.53L219.6,91.3L219.77,89.94L219.82,89.96L220.58,92.03L220.74,91.11L220.8,91.12L220.91,90.57L221.29,92.46L221.34,92.59L221.5,92.77L221.56,91.54L221.99,91.13L222.59,92.32L222.64,91.47L222.7,90.83L223.19,92.34L223.29,92.34L223.35,92.34L223.73,92.2L224.43,94.02L224.49,92.54L225.25,94.2L225.3,92.43L225.47,92.63L225.57,91.28L225.68,91.28L225.74,89.32L225.9,89.05L226.01,90.26L226.12,90.28L226.17,90.33L226.71,91.74L226.77,92.25L226.82,91.27L227.42,93.45L227.47,93.45L228.13,94.82L228.18,95.72L229.86,100.51L229.92,100.65L230.35,101.88L230.41,100.88L230.46,100.88L230.57,100.59L231,101.56L231.06,101.56L231.98,104.4L232.03,105.23L232.14,104.23L232.69,105.96L232.74,105.96L233.07,105.69L233.45,106.6L233.5,105.29L233.99,102.68L234.32,104.03L234.37,104.18L235.02,104.9L235.08,104.98L235.62,106.61L235.67,106.74L235.78,105.15L236.43,106.03L236.49,106.31L237.68,108.77L237.74,108.77L238.33,108.57L238.39,107.73L239.04,108.48L239.09,108.7L239.42,108.63L240.07,110.03L240.12,110.03L240.56,110.7L240.61,109.63L241.92,112.14L241.97,112.21L242.35,112.86L242.4,113.36L243.49,115.25L243.54,115.27L243.65,114.38L244.36,115.81L244.41,115.81L245.28,117.43L245.34,115.99L247.51,118.35L247.56,118.35L248.65,120.27L248.7,120.27L251.96,123.87L252.01,124.32L253.1,125.23L253.15,124.81L253.59,125.34L253.64,125.57L254.89,125.88L254.95,126.25L255.33,126.77L255.38,127.22L255.98,125.35L256.19,125.97L256.25,125.97L257.5,127.22L257.55,127.22L258.53,128.99L258.85,128.63L258.91,128.63L259.56,129.88L259.61,130L261.19,131.49L261.24,131.49L261.79,132.17L261.84,132.35L263.47,134.02L263.52,134.02L265.91,135.43L265.97,135.69L267.65,136.44L267.7,136.65L268.68,137.9L268.73,137.94L269.55,138.41L269.6,138.41L270.58,139.88L270.63,139.88L272.75,142.67L272.81,142.92L277.15,146.16L277.2,146.16L279.32,146.9L279.38,146.98L280.95,147.6L281,147.81L281.87,148.59L281.93,148.67L284.7,149.55L284.75,149.7L285.78,150.36L285.84,150.54L289.53,152.95L289.58,153.24L292.68,154.98L292.73,155.13L296.04,158.55L296.1,158.55L296.97,158.96L297.02,159.51L298.59,161L298.65,161L299.57,161.62L299.63,161.78L300.87,162.23L300.93,162.71L301.85,163.41L301.91,163.52L304.46,164.41L304.51,164.82L305.71,165.54L305.76,165.68L307.5,167.14L307.55,167.14L309.72,167.83L309.78,167.96L310.92,168.63L310.97,168.89L312.17,169.17L312.22,169.17L314.28,169.8L314.34,169.99L317.65,171.64L317.7,171.94L318.95,172.18L319.01,172.18L320.36,172.91L320.42,172.95L322.7,173.62L322.75,173.71L324.98,174.46L325.03,174.47L326.93,175.03L326.99,175.26L329.65,175.95L329.7,176.06L332.15,177.01L332.2,177.58L335.13,178.38L335.19,178.38L339.15,179.24L339.2,179.32L341.54,180.04L341.59,180.16L343.22,180.79L343.27,180.95L343.98,181.56L344.03,182L345.23,182.75L345.28,182.75L348.92,183.49L348.98,183.51L352.12,183.71L352.18,184.27L355.06,185.02L355.11,185.34L356.52,186.09L356.58,186.22L368.57,189.87L368.63,190.03L370.91,190.74L370.96,190.95L373.3,191.77L373.35,192.35L374.93,192.99L374.98,193.24L376.61,193.96L376.66,194.16L382.04,194.73L382.09,195.01L382.96,195.53L383.02,195.53L383.99,196.35L384.05,196.35L384.54,197.06L384.59,197.13L385.95,197.54L386,198.03L389.26,198.68L389.31,198.79L392.08,199.35L392.14,199.69L394.85,200.37L394.9,200.45L397.02,201.07L397.08,201.26L399.36,201.88L399.41,202.21L402.18,202.96L402.23,203.05L406.79,203.74L406.85,203.95L408.04,205.19L408.1,205.19L409.02,205.52L409.07,205.52L410.32,206.19L410.38,206.67L412.98,207.57L413.04,207.57L416.24,208.24L416.29,208.33L428.73,210.82L428.78,211.11L435.78,211.86L435.84,212.03L437.25,212.75L437.3,212.87L438.23,213.2L438.28,213.2L439.8,213.92L439.86,214.17L444.25,214.92L444.31,214.94L445.39,215.17L445.45,215.17L448.38,215.65" style="vector-effect: non-scaling-stroke; fill: none; stroke: rgb(99, 110, 250); stroke-opacity: 1; stroke-width: 2px; opacity: 1;"/></g><g class="points"/><g class="text"/></g></g></g><g class="overplot"><g class="xy2" transform="translate(78,20)" clip-path="url(#clip4f71ffxy2plot)"><g class="scatterlayer mlayer"><g class="trace scatter tracec8201c" style="stroke-miterlimit: 2; opacity: 1;"><g class="fills"/><g class="errorbars"/><g class="lines"><path class="js-line" d="M0,11.35L6.73,35.19L6.79,35.37L12.92,54.65L12.98,54.81L19.27,72.44L19.33,72.58L24.27,85.04L24.32,85.17L34.91,108.31L34.96,108.41L44.14,125.1L44.19,125.19L52.44,137.96L52.5,138.04L61.89,150.38L61.94,150.45L73.45,162.92L73.51,162.97L83.17,171.58L83.23,171.62L94.95,180.19L95.01,180.22L105.05,186.22L105.11,186.25L116.67,191.9L116.72,191.92L127.85,196.33L127.91,196.35L141.37,200.6L141.43,200.62L153.69,203.67L153.75,203.68L167.92,206.45L167.97,206.46L216.62,211.93L216.67,211.93L262.76,214.09L262.82,214.09L282.8,214.59L282.85,214.59L344.41,215.34L344.47,215.35L448.38,215.65" style="vector-effect: non-scaling-stroke; fill: none; stroke: rgb(239, 85, 59); stroke-opacity: 1; stroke-width: 2px; opacity: 1;"/></g><g class="points"/><g class="text"/></g></g></g></g><path class="xlines-above crisp" d="M0,0" style="fill: none;"/><path class="ylines-above crisp" d="M0,0" style="fill: none;"/><g class="overlines-above"><path class="xy2-x crisp" d="M0,0" style="fill: none;"/><path class="xy2-y crisp" d="M0,0" style="fill: none;"/></g><g class="xaxislayer-above"><g class="xtick"><text text-anchor="middle" x="0" y="260" transform="translate(78,0)" style="font-family: 'Open Sans', verdana, arial, sans-serif; font-size: 12px; fill: rgb(42, 63, 95); fill-opacity: 1; white-space: pre; opacity: 1;">0</text></g><g class="xtick"><text text-anchor="middle" x="0" y="260" style="font-family: 'Open Sans', verdana, arial, sans-serif; font-size: 12px; fill: rgb(42, 63, 95); fill-opacity: 1; white-space: pre; opacity: 1;" transform="translate(186.57999999999998,0)">2000</text></g><g class="xtick"><text text-anchor="middle" x="0" y="260" style="font-family: 'Open Sans', verdana, arial, sans-serif; font-size: 12px; fill: rgb(42, 63, 95); fill-opacity: 1; white-space: pre; opacity: 1;" transform="translate(295.15999999999997,0)">4000</text></g><g class="xtick"><text text-anchor="middle" x="0" y="260" style="font-family: 'Open Sans', verdana, arial, sans-serif; font-size: 12px; fill: rgb(42, 63, 95); fill-opacity: 1; white-space: pre; opacity: 1;" transform="translate(403.74,0)">6000</text></g><g class="xtick"><text text-anchor="middle" x="0" y="260" style="font-family: 'Open Sans', verdana, arial, sans-serif; font-size: 12px; fill: rgb(42, 63, 95); fill-opacity: 1; white-space: pre; opacity: 1;" transform="translate(512.3199999999999,0)">8000</text></g></g><g class="yaxislayer-above"><g class="ytick"><text text-anchor="end" x="77" y="4.199999999999999" transform="translate(0,212.68)" style="font-family: 'Open Sans', verdana, arial, sans-serif; font-size: 12px; fill: rgb(42, 63, 95); fill-opacity: 1; white-space: pre; opacity: 1;">−100k</text></g><g class="ytick"><text text-anchor="end" x="77" y="4.199999999999999" style="font-family: 'Open Sans', verdana, arial, sans-serif; font-size: 12px; fill: rgb(42, 63, 95); fill-opacity: 1; white-space: pre; opacity: 1;" transform="translate(0,178.31)">−80k</text></g><g class="ytick"><text text-anchor="end" x="77" y="4.199999999999999" style="font-family: 'Open Sans', verdana, arial, sans-serif; font-size: 12px; fill: rgb(42, 63, 95); fill-opacity: 1; white-space: pre; opacity: 1;" transform="translate(0,143.94)">−60k</text></g><g class="ytick"><text text-anchor="end" x="77" y="4.199999999999999" style="font-family: 'Open Sans', verdana, arial, sans-serif; font-size: 12px; fill: rgb(42, 63, 95); fill-opacity: 1; white-space: pre; opacity: 1;" transform="translate(0,109.58)">−40k</text></g><g class="ytick"><text text-anchor="end" x="77" y="4.199999999999999" style="font-family: 'Open Sans', verdana, arial, sans-serif; font-size: 12px; fill: rgb(42, 63, 95); fill-opacity: 1; white-space: pre; opacity: 1;" transform="translate(0,75.21000000000001)">−20k</text></g><g class="ytick"><text text-anchor="end" x="77" y="4.199999999999999" style="font-family: 'Open Sans', verdana, arial, sans-serif; font-size: 12px; fill: rgb(42, 63, 95); fill-opacity: 1; white-space: pre; opacity: 1;" transform="translate(0,40.85)">0</text></g></g><g class="overaxes-above"><g class="xy2-x"/><g class="xy2-y"><g class="y2tick"><text text-anchor="start" x="527.38" y="4.199999999999999" transform="translate(0,235.7)" style="font-family: 'Open Sans', verdana, arial, sans-serif; font-size: 12px; fill: rgb(42, 63, 95); fill-opacity: 1; white-space: pre; opacity: 1;">0</text></g><g class="y2tick"><text text-anchor="start" x="527.38" y="4.199999999999999" style="font-family: 'Open Sans', verdana, arial, sans-serif; font-size: 12px; fill: rgb(42, 63, 95); fill-opacity: 1; white-space: pre; opacity: 1;" transform="translate(0,184.61)">500</text></g><g class="y2tick"><text text-anchor="start" x="527.38" y="4.199999999999999" style="font-family: 'Open Sans', verdana, arial, sans-serif; font-size: 12px; fill: rgb(42, 63, 95); fill-opacity: 1; white-space: pre; opacity: 1;" transform="translate(0,133.53)">1000</text></g><g class="y2tick"><text text-anchor="start" x="527.38" y="4.199999999999999" style="font-family: 'Open Sans', verdana, arial, sans-serif; font-size: 12px; fill: rgb(42, 63, 95); fill-opacity: 1; white-space: pre; opacity: 1;" transform="translate(0,82.44)">1500</text></g><g class="y2tick"><text text-anchor="start" x="527.38" y="4.199999999999999" style="font-family: 'Open Sans', verdana, arial, sans-serif; font-size: 12px; fill: rgb(42, 63, 95); fill-opacity: 1; white-space: pre; opacity: 1;" transform="translate(0,31.35)">2000</text></g></g></g></g><g class="subplot xy2"/></g><g class="polarlayer"/><g class="smithlayer"/><g class="ternarylayer"/><g class="geolayer"/><g class="funnelarealayer"/><g class="pielayer"/><g class="iciclelayer"/><g class="treemaplayer"/><g class="sunburstlayer"/><g class="glimages"/><defs id="topdefs-4f71ff"><g class="clips"/><clipPath id="legend4f71ff"><rect width="123" height="48" x="0" y="0"/></clipPath></defs><g class="layer-above"><g class="imagelayer"/><g class="shapelayer"/></g><g class="infolayer"><g class="legend" pointer-events="all" transform="translate(564.54,20)"><rect class="bg" shape-rendering="crispEdges" width="123" height="48" x="0" y="0" style="stroke: rgb(68, 68, 68); stroke-opacity: 1; fill: rgb(255, 255, 255); fill-opacity: 1; stroke-width: 0px;"/><g class="scrollbox" transform="" clip-path="url(#legend4f71ff)"><g class="groups"><g class="traces" transform="translate(0,14.5)" style="opacity: 1;"><text class="legendtext" text-anchor="start" x="40" y="4.680000000000001" style="font-family: 'Open Sans', verdana, arial, sans-serif; font-size: 12px; fill: rgb(42, 63, 95); fill-opacity: 1; white-space: pre;">Cost</text><g class="layers" style="opacity: 1;"><g class="legendfill"/><g class="legendlines"><path class="js-line" d="M5,0h30" style="fill: none; stroke: rgb(99, 110, 250); stroke-opacity: 1; stroke-width: 2px;"/></g><g class="legendsymbols"><g class="legendpoints"/></g></g><rect class="legendtoggle" x="0" y="-9.5" width="117.265625" height="19" style="fill: rgb(0, 0, 0); fill-opacity: 0;"/></g><g class="traces" transform="translate(0,33.5)" style="opacity: 1;"><text class="legendtext" text-anchor="start" x="40" y="4.680000000000001" style="font-family: 'Open Sans', verdana, arial, sans-serif; font-size: 12px; fill: rgb(42, 63, 95); fill-opacity: 1; white-space: pre;">Temperature</text><g class="layers" style="opacity: 1;"><g class="legendfill"/><g class="legendlines"><path class="js-line" d="M5,0h30" style="fill: none; stroke: rgb(239, 85, 59); stroke-opacity: 1; stroke-width: 2px;"/></g><g class="legendsymbols"><g class="legendpoints"/></g></g><rect class="legendtoggle" x="0" y="-9.5" width="117.265625" height="19" style="fill: rgb(0, 0, 0); fill-opacity: 0;"/></g></g></g><rect class="scrollbar" rx="20" ry="3" width="0" height="0" x="0" y="0" style="fill: rgb(128, 139, 164); fill-opacity: 1;"/></g><g class="g-gtitle"/><g class="g-xtitle"><text class="xtitle" x="302.19" y="287.8" text-anchor="middle" style="font-family: 'Open Sans', verdana, arial, sans-serif; font-size: 14px; fill: rgb(42, 63, 95); opacity: 1; font-weight: normal; white-space: pre;">Iterations</text></g><g class="g-ytitle" transform="translate(1.6123046875,0)"><text class="ytitle" transform="rotate(-90,12.387500000000003,133.5)" x="12.387500000000003" y="133.5" text-anchor="middle" style="font-family: 'Open Sans', verdana, arial, sans-serif; font-size: 14px; fill: rgb(42, 63, 95); opacity: 1; font-weight: normal; white-space: pre;">Cost</text></g><g class="g-y2title"><text class="y2title" transform="rotate(-90,583.08125,133.5)" x="583.08125" y="133.5" text-anchor="middle" style="font-family: 'Open Sans', verdana, arial, sans-serif; font-size: 14px; fill: rgb(42, 63, 95); opacity: 1; font-weight: normal; white-space: pre;">Temperature</text></g></g></svg>