<svg class="main-svg" xmlns="http://www.w3.org/2000/svg" xmlns:xlink="http://www.w3.org/1999/xlink" width="700" height="300" style="" viewBox="0 0 700 300"><rect x="0" y="0" width="700" height="300" style="fill: rgb(255, 255, 255); fill-opacity: 1;"/><defs id="defs-6d20f5"><g class="clips"><clipPath id="clip6d20f5xyplot" class="plotclip"><rect width="465.29999999999995" height="227"/></clipPath><clipPath id="clip6d20f5xy2plot" class="plotclip"><rect width="465.29999999999995" height="227"/></clipPath><clipPath class="axesclip" id="clip6d20f5x"><rect x="60" y="0" width="465.29999999999995" height="300"/></clipPath><clipPath class="axesclip" id="clip6d20f5y"><rect x="0" y="20" width="700" height="227"/></clipPath><clipPath class="axesclip" id="clip6d20f5xy"><rect x="60" y="20" width="465.29999999999995" height="227"/></clipPath><clipPath class="axesclip" id="clip6d20f5y2"><rect x="0" y="20" width="700" height="227"/></clipPath><clipPath class="axesclip" id="clip6d20f5xy2"><rect x="60" y="20" width="465.29999999999995" height="227"/></clipPath></g><g class="gradients"/><g class="patterns"/></defs><g class="bglayer"><rect class="bg" x="60" y="20" width="465.29999999999995" height="227" style="fill: rgb(229, 236, 246); fill-opacity: 1; stroke-width: 0;"/></g><g class="layer-below"><g class="imagelayer"/><g class="shapelayer"/></g><g class="cartesianlayer"><g class="subplot xy"><g class="layer-subplot"><g class="shapelayer"/><g class="imagelayer"/></g><g class="gridlayer"><g class="x"><path class="xgrid crisp" transform="translate(144.45999999999998,0)" d="M0,20v227" style="stroke: rgb(255, 255, 255); stroke-opacity: 1; stroke-width: 1px;"/><path class="xgrid crisp" transform="translate(228.92,0)" d="M0,20v227" style="stroke: rgb(255, 255, 255); stroke-opacity: 1; stroke-width: 1px;"/><path class="xgrid crisp" transform="translate(313.39,0)" d="M0,20v227" style="stroke: rgb(255, 255, 255); stroke-opacity: 1; stroke-width: 1px;"/><path class="xgrid crisp" transform="translate(397.85,0)" d="M0,20v227" style="stroke: rgb(255, 255, 255); stroke-opacity: 1; stroke-width: 1px;"/><path class="xgrid crisp" transform="translate(482.31,0)" d="M0,20v227" style="stroke: rgb(255, 255, 255); stroke-opacity: 1; stroke-width: 1px;"/></g><g class="y"><path class="ygrid crisp" transform="translate(0,203.81)" d="M60,0h465.29999999999995" style="stroke: rgb(255, 255, 255); stroke-opacity: 1; stroke-width: 1px;"/><path class="ygrid crisp" transform="translate(0,144.49)" d="M60,0h465.29999999999995" style="stroke: rgb(255, 255, 255); stroke-opacity: 1; stroke-width: 1px;"/><path class="ygrid crisp" transform="translate(0,85.16)" d="M60,0h465.29999999999995" style="stroke: rgb(255, 255, 255); stroke-opacity: 1; stroke-width: 1px;"/><path class="ygrid crisp" transform="translate(0,25.83)" d="M60,0h465.29999999999995" style="stroke: rgb(255, 255, 255); stroke-opacity: 1; stroke-width: 1px;"/></g><g class="y2"><path class="y2grid crisp" transform="translate(0,184.58)" d="M60,0h465.29999999999995" style="stroke: rgb(255, 255, 255); stroke-opacity: 1; stroke-width: 1px;"/><path class="y2grid crisp" transform="translate(0,133.5)" d="M60,0h465.29999999999995" style="stroke: rgb(255, 255, 255); stroke-opacity: 1; stroke-width: 1px;"/><path class="y2grid crisp" transform="translate(0,82.43)" d="M60,0h465.29999999999995" style="stroke: rgb(255, 255, 255); stroke-opacity: 1; stroke-width: 1px;"/><path class="y2grid crisp" transform="translate(0,31.35)" d="M60,0h465.29999999999995" style="stroke: rgb(255, 255, 255); stroke-opacity: 1; stroke-width: 1px;"/></g></g><g class="zerolinelayer"><path class="xzl zl crisp" transform="translate(60,0)" d="M0,20v227" style="stroke: rgb(255, 255, 255); stroke-opacity: 1; stroke-width: 2px;"/><path class="y2zl zl crisp" transform="translate(0,235.65)" d="M60,0h465.29999999999995" style="stroke: rgb(255, 255, 255); stroke-opacity: 1; stroke-width: 2px;"/></g><path class="xlines-below"/><path class="ylines-below"/><g class="overlines-below"><path class="xy2-x"/><path class="xy2-y"/></g><g class="xaxislayer-below"/><g class="yaxislayer-below"/><g class="overaxes-below"><g class="xy2-x"/><g class="xy2-y"/></g><g class="plot" transform="translate(60,20)" clip-path="url(#clip6d20f5xyplot)"><g class="scatterlayer mlayer"><g class="trace scatter trace3d8bc2" style="stroke-miterlimit: 2; opacity: 1;"><g class="fills"/><g class="errorbars"/><g class="lines"><path class="js-line" d="M0,19.35L0.08,27.7L0.51,11.35L0.68,15.98L0.76,19.11L1.35,38.26L1.6,31.59L1.69,29.05L1.77,37.12L2.03,24.59L2.36,32.52L2.45,25.85L2.87,30.33L3.21,12.87L3.29,21.93L3.38,25L3.55,26.21L3.89,18.66L4.31,18.92L4.39,17.73L4.65,39.09L4.98,25.97L5.07,16.52L5.83,27.84L6,23.62L6.08,21.67L6.5,27.77L6.59,20.13L6.84,23.71L6.93,15.29L7.09,18.83L7.18,27.08L8.11,12.18L8.19,14.51L8.62,27.63L9.04,22.67L9.12,25.42L9.46,23.43L9.8,32.47L9.88,31.73L9.97,25.8L10.14,21.06L10.81,33.99L10.9,31.33L10.98,27.23L11.91,37.5L11.99,35.25L12.25,37.69L12.58,27.77L12.84,33.4L12.92,35.18L13.6,26.04L13.85,32.14L13.94,33.4L14.02,33.68L14.11,30.74L15.03,39.02L15.12,39.49L15.29,35.98L15.37,40.04L15.46,33.09L16.39,41.49L16.47,39.92L16.55,41.87L16.64,38.93L17.06,40.37L17.15,34.37L17.4,33.02L17.74,37.34L17.82,33.25L17.99,35.32L18.33,30.79L18.41,31.73L18.5,32.23L18.75,31.73L18.83,33.68L18.92,34.94L19.93,49.98L20.02,43.72L20.1,44.03L20.19,47.59L20.69,46.35L21.45,59.43L21.54,60.24L21.71,58.17L22.04,61.97L22.13,58.24L22.89,70.39L23.14,67.45L23.23,63.01L23.48,66.17L23.56,65.67L23.65,61.94L23.73,62.66L23.82,58.62L24.07,59.52L24.16,57.91L24.66,49.75L25,51.41L25.09,51.6L26.1,59.93L26.18,61.45L26.61,65.48L26.69,64.32L26.77,60.71L27.28,64.32L27.53,63.37L27.62,60.92L28.55,67.21L28.63,65.5L28.72,64.22L29.65,70.56L30.07,70.08L30.15,70.13L32.1,79.41L32.18,77.32L32.35,76.14L33.36,81L33.45,81.48L34.54,88.36L34.97,88.17L35.05,86.32L35.98,91.23L36.15,90.02L36.23,90.33L36.66,92.3L36.74,93.46L37.92,99.7L38.26,99.58L38.35,99.61L39.02,102.36L39.11,99.58L41.72,110.09L41.81,110.47L46.12,124.74L46.2,123.12L46.29,123.12L46.37,121.37L47.05,122.81L47.13,123.27L47.47,123.91L47.55,124.36L48.06,124.74L48.14,125.28L49.07,128.3L49.16,128.79L49.66,129.53L49.75,129.74L61.74,155.11L61.83,155.14L62.92,156.68L63.01,156.68L64.7,158.46L64.78,159.05L66.13,160.9L66.22,161.14L69.17,163.49L69.26,163.49L71.12,164.98L71.2,165.13L72.81,167.29L72.89,167.29L74.92,168.43L75,168.59L76.44,169.47L76.52,169.47L78.55,172.25L78.63,172.25L81.08,174.31L81.17,174.5L83.7,176.94L83.79,176.94L84.97,178.2L85.05,178.37L86.4,179.15L86.49,179.37L88.94,180.34L89.02,180.41L93.84,183.49L93.92,183.73L95.02,184.61L95.1,184.61L97.81,185.25L97.89,185.44L100.34,186.18L100.43,186.37L102.71,187.05L102.79,187.05L103.97,187.65L104.06,187.81L107.6,189.43L107.69,189.45L111.32,190.19L111.41,190.23L114.11,190.87L114.19,191.11L117.49,191.82L117.57,191.87L121.12,192.54L121.2,192.73L125.34,193.32L125.43,193.51L127.88,194.22L127.96,194.29L133.2,194.84L133.28,195.08L137.93,195.81L138.01,195.95L140.38,196.67L140.46,196.74L145.87,197.47L145.95,197.52L149.24,198.09L149.33,198.3L150.68,198.92L150.76,199.16L153.13,199.8L153.21,199.94L154.65,200.06L154.73,200.06L159.55,200.7L159.63,200.82L169.09,201.55L169.18,201.67L170.36,201.93L170.44,201.93L185.65,202.67L185.73,202.72L192.74,203.43L192.83,203.5L198.74,204.14L198.82,204.26L204.4,204.95L204.48,205.07L212.76,205.8L212.84,205.85L222.64,206.47L222.73,206.63L230.58,207.32L230.67,207.46L255.24,208.2L255.33,208.27L264.7,208.93L264.79,209.03L273.57,209.74L273.66,209.88L294.1,210.55L294.18,210.69L309.21,211.35L309.3,211.45L325.09,212.09L325.18,212.21L344.44,212.92L344.52,213.02L370.96,213.73L371.04,213.8L378.64,213.94L378.73,213.94L432.44,214.63L432.53,214.7L458.04,215.44L458.12,215.46L465.3,215.65" style="vector-effect: non-scaling-stroke; fill: none; stroke: rgb(99, 110, 250); stroke-opacity: 1; stroke-width: 2px; opacity: 1;"/></g><g class="points"/><g class="text"/></g></g></g><g class="overplot"><g class="xy2" transform="translate(60,20)" clip-path="url(#clip6d20f5xy2plot)"><g class="scatterlayer mlayer"><g class="trace scatter tracee6632b" style="stroke-miterlimit: 2; opacity: 1;"><g class="fills"/><g class="errorbars"/><g class="lines"><path class="js-line" d="M0,11.35L3.72,72.17L3.8,73.32L8.7,126.33L8.78,127.04L13.68,160.04L13.77,160.48L17.31,176.28L17.4,176.6L21.28,188.66L21.37,188.88L25.42,197.44L25.51,197.59L29.82,203.66L29.9,203.75L34.88,208.24L34.97,208.3L40.54,211.33L40.63,211.36L47.64,213.45L47.72,213.47L60.56,215.01L60.64,215.01L82.77,215.57L82.86,215.57L465.3,215.65" style="vector-effect: non-scaling-stroke; fill: none; stroke: rgb(239, 85, 59); stroke-opacity: 1; stroke-width: 2px; opacity: 1;"/></g><g class="points"/><g class="text"/></g></g></g></g><path class="xlines-above crisp" d="M0,0" style="fill: none;"/><path class="ylines-above crisp" d="M0,0" style="fill: none;"/><g class="overlines-above"><path class="xy2-x crisp" d="M0,0" style="fill: none;"/><path class="xy2-y crisp" d="M0,0" style="fill: none;"/></g><g class="xaxislayer-above"><g class="xtick"><text text-anchor="middle" x="0" y="260" transform="translate(60,0)" style="font-family: 'Open Sans', verdana, arial, sans-serif; font-size: 12px; fill: rgb(42, 63, 95); fill-opacity: 1; white-space: pre; opacity: 1;">0</text></g><g class="xtick"><text text-anchor="middle" x="0" y="260" style="font-family: 'Open Sans', verdana, arial, sans-serif; font-size: 12px; fill: rgb(42, 63, 95); fill-opacity: 1; white-space: pre; opacity: 1;" transform="translate(144.45999999999998,0)">1000</text></g><g class="xtick"><text text-anchor="middle" x="0" y="260" style="font-family: 'Open Sans', verdana, arial, sans-serif; font-size: 12px; fill: rgb(42, 63, 95); fill-opacity: 1; white-space: pre; opacity: 1;" transform="translate(228.92,0)">2000</text></g><g class="xtick"><text text-anchor="middle" x="0" y="260" style="font-family: 'Open Sans', verdana, arial, sans-serif; font-size: 12px; fill: rgb(42, 63, 95); fill-opacity: 1; white-space: pre; opacity: 1;" transform="translate(313.39,0)">3000</text></g><g class="xtick"><text text-anchor="middle" x="0" y="260" style="font-family: 'Open Sans', verdana, arial, sans-serif; font-size: 12px; fill: rgb(42, 63, 95); fill-opacity: 1; white-space: pre; opacity: 1;" transform="translate(397.85,0)">4000</text></g><g class="xtick"><text text-anchor="middle" x="0" y="260" style="font-family: 'Open Sans', verdana, arial, sans-serif; font-size: 12px; fill: rgb(42, 63, 95); fill-opacity: 1; white-space: pre; opacity: 1;" transform="translate(482.31,0)">5000</text></g></g><g class="yaxislayer-above"><g class="ytick"><text text-anchor="end" x="59" y="4.199999999999999" transform="translate(0,203.81)" style="font-family: 'Open Sans', verdana, arial, sans-serif; font-size: 12px; fill: rgb(42, 63, 95); fill-opacity: 1; white-space: pre; opacity: 1;">65k</text></g><g class="ytick"><text text-anchor="end" x="59" y="4.199999999999999" style="font-family: 'Open Sans', verdana, arial, sans-serif; font-size: 12px; fill: rgb(42, 63, 95); fill-opacity: 1; white-space: pre; opacity: 1;" transform="translate(0,144.49)">70k</text></g><g class="ytick"><text text-anchor="end" x="59" y="4.199999999999999" style="font-family: 'Open Sans', verdana, arial, sans-serif; font-size: 12px; fill: rgb(42, 63, 95); fill-opacity: 1; white-space: pre; opacity: 1;" transform="translate(0,85.16)">75k</text></g><g class="ytick"><text text-anchor="end" x="59" y="4.199999999999999" style="font-family: 'Open Sans', verdana, arial, sans-serif; font-size: 12px; fill: rgb(42, 63, 95); fill-opacity: 1; white-space: pre; opacity: 1;" transform="translate(0,25.83)">80k</text></g></g><g class="overaxes-above"><g class="xy2-x"/><g class="xy2-y"><g class="y2tick"><text text-anchor="start" x="526.3" y="4.199999999999999" transform="translate(0,235.65)" style="font-family: 'Open Sans', verdana, arial, sans-serif; font-size: 12px; fill: rgb(42, 63, 95); fill-opacity: 1; white-space: pre; opacity: 1;">0</text></g><g class="y2tick"><text text-anchor="start" x="526.3" y="4.199999999999999" style="font-family: 'Open Sans', verdana, arial, sans-serif; font-size: 12px; fill: rgb(42, 63, 95); fill-opacity: 1; white-space: pre; opacity: 1;" transform="translate(0,184.58)">500</text></g><g class="y2tick"><text text-anchor="start" x="526.3" y="4.199999999999999" style="font-family: 'Open Sans', verdana, arial, sans-serif; font-size: 12px; fill: rgb(42, 63, 95); fill-opacity: 1; white-space: pre; opacity: 1;" transform="translate(0,133.5)">1000</text></g><g class="y2tick"><text text-anchor="start" x="526.3" y="4.199999999999999" style="font-family: 'Open Sans', verdana, arial, sans-serif; font-size: 12px; fill: rgb(42, 63, 95); fill-opacity: 1; white-space: pre; opacity: 1;" transform="translate(0,82.43)">1500</text></g><g class="y2tick"><text text-anchor="start" x="526.3" y="4.199999999999999" style="font-family: 'Open Sans', verdana, arial, sans-serif; font-size: 12px; fill: rgb(42, 63, 95); fill-opacity: 1; white-space: pre; opacity: 1;" transform="translate(0,31.35)">2000</text></g></g></g></g><g class="subplot xy2"/></g><g class="polarlayer"/><g class="smithlayer"/><g class="ternarylayer"/><g class="geolayer"/><g class="funnelarealayer"/><g class="pielayer"/><g class="iciclelayer"/><g class="treemaplayer"/><g class="sunburstlayer"/><g class="glimages"/><defs id="topdefs-6d20f5"><g class="clips"/><clipPath id="legend6d20f5"><rect width="123" height="48" x="0" y="0"/></clipPath></defs><g class="layer-above"><g class="imagelayer"/><g class="shapelayer"/></g><g class="infolayer"><g class="legend" pointer-events="all" transform="translate(564.9000000000001,20)"><rect class="bg" shape-rendering="crispEdges" width="123" height="48" x="0" y="0" style="stroke: rgb(68, 68, 68); stroke-opacity: 1; fill: rgb(255, 255, 255); fill-opacity: 1; stroke-width: 0px;"/><g class="scrollbox" transform="" clip-path="url(#legend6d20f5)"><g class="groups"><g class="traces" transform="translate(0,14.5)" style="opacity: 1;"><text class="legendtext" text-anchor="start" x="40" y="4.680000000000001" style="font-family: 'Open Sans', verdana, arial, sans-serif; font-size: 12px; fill: rgb(42, 63, 95); fill-opacity: 1; white-space: pre;">Cost</text><g class="layers" style="opacity: 1;"><g class="legendfill"/><g class="legendlines"><path class="js-line" d="M5,0h30" style="fill: none; stroke: rgb(99, 110, 250); stroke-opacity: 1; stroke-width: 2px;"/></g><g class="legendsymbols"><g class="legendpoints"/></g></g><rect class="legendtoggle" x="0" y="-9.5" width="117.265625" height="19" style="fill: rgb(0, 0, 0); fill-opacity: 0;"/></g><g class="traces" transform="translate(0,33.5)" style="opacity: 1;"><text class="legendtext" text-anchor="start" x="40" y="4.680000000000001" style="font-family: 'Open Sans', verdana, arial, sans-serif; font-size: 12px; fill: rgb(42, 63, 95); fill-opacity: 1; white-space: pre;">Temperature</text><g class="layers" style="opacity: 1;"><g class="legendfill"/><g class="legendlines"><path class="js-line" d="M5,0h30" style="fill: none; stroke: rgb(239, 85, 59); stroke-opacity: 1; stroke-width: 2px;"/></g><g class="legendsymbols"><g class="legendpoints"/></g></g><rect class="legendtoggle" x="0" y="-9.5" width="117.265625" height="19" style="fill: rgb(0, 0, 0); fill-opacity: 0;"/></g></g></g><rect class="scrollbar" rx="20" ry="3" width="0" height="0" x="0" y="0" style="fill: rgb(128, 139, 164); fill-opacity: 1;"/></g><g class="g-gtitle"/><g class="g-xtitle"><text class="xtitle" x="292.65" y="287.8" text-anchor="middle" style="font-family: 'Open Sans', verdana, arial, sans-serif; font-size: 14px; fill: rgb(42, 63, 95); opacity: 1; font-weight: normal; white-space: pre;">Iterations</text></g><g class="g-ytitle" transform="translate(2.1591796875,0)"><text class="ytitle" transform="rotate(-90,11.840625000000003,133.5)" x="11.840625000000003" y="133.5" text-anchor="middle" style="font-family: 'Open Sans', verdana, arial, sans-serif; font-size: 14px; fill: rgb(42, 63, 95); opacity: 1; font-weight: normal; white-space: pre;">Cost</text></g><g class="g-y2title"><text class="y2title" transform="rotate(-90,581.9875,133.5)" x="581.9875" y="133.5" text-anchor="middle" style="font-family: 'Open Sans', verdana, arial, sans-serif; font-size: 14px; fill: rgb(42, 63, 95); opacity: 1; font-weight: normal; white-space: pre;">Temperature</text></g></g></svg>