<svg class="main-svg" xmlns="http://www.w3.org/2000/svg" xmlns:xlink="http://www.w3.org/1999/xlink" width="700" height="300" style="" viewBox="0 0 700 300"><rect x="0" y="0" width="700" height="300" style="fill: rgb(255, 255, 255); fill-opacity: 1;"/><defs id="defs-0defbd"><g class="clips"><clipPath id="clip0defbdxyplot" class="plotclip"><rect width="455.9" height="227"/></clipPath><clipPath id="clip0defbdxy2plot" class="plotclip"><rect width="455.9" height="227"/></clipPath><clipPath class="axesclip" id="clip0defbdx"><rect x="70" y="0" width="455.9" height="300"/></clipPath><clipPath class="axesclip" id="clip0defbdy"><rect x="0" y="20" width="700" height="227"/></clipPath><clipPath class="axesclip" id="clip0defbdxy"><rect x="70" y="20" width="455.9" height="227"/></clipPath><clipPath class="axesclip" id="clip0defbdy2"><rect x="0" y="20" width="700" height="227"/></clipPath><clipPath class="axesclip" id="clip0defbdxy2"><rect x="70" y="20" width="455.9" height="227"/></clipPath></g><g class="gradients"/><g class="patterns"/></defs><g class="bglayer"><rect class="bg" x="70" y="20" width="455.9" height="227" style="fill: rgb(229, 236, 246); fill-opacity: 1; stroke-width: 0;"/></g><g class="layer-below"><g class="imagelayer"/><g class="shapelayer"/></g><g class="cartesianlayer"><g class="subplot xy"><g class="layer-subplot"><g class="shapelayer"/><g class="imagelayer"/></g><g class="gridlayer"><g class="x"><path class="xgrid crisp" transform="translate(170.99,0)" d="M0,20v227" style="stroke: rgb(255, 255, 255); stroke-opacity: 1; stroke-width: 1px;"/><path class="xgrid crisp" transform="translate(271.97,0)" d="M0,20v227" style="stroke: rgb(255, 255, 255); stroke-opacity: 1; stroke-width: 1px;"/><path class="xgrid crisp" transform="translate(372.96,0)" d="M0,20v227" style="stroke: rgb(255, 255, 255); stroke-opacity: 1; stroke-width: 1px;"/><path class="xgrid crisp" transform="translate(473.94,0)" d="M0,20v227" style="stroke: rgb(255, 255, 255); stroke-opacity: 1; stroke-width: 1px;"/></g><g class="y"><path class="ygrid crisp" transform="translate(0,200.35)" d="M70,0h455.9" style="stroke: rgb(255, 255, 255); stroke-opacity: 1; stroke-width: 1px;"/><path class="ygrid crisp" transform="translate(0,119.32)" d="M70,0h455.9" style="stroke: rgb(255, 255, 255); stroke-opacity: 1; stroke-width: 1px;"/></g><g class="y2"><path class="y2grid crisp" transform="translate(0,184.59)" d="M70,0h455.9" style="stroke: rgb(255, 255, 255); stroke-opacity: 1; stroke-width: 1px;"/><path class="y2grid crisp" transform="translate(0,133.51)" d="M70,0h455.9" style="stroke: rgb(255, 255, 255); stroke-opacity: 1; stroke-width: 1px;"/><path class="y2grid crisp" transform="translate(0,82.43)" d="M70,0h455.9" style="stroke: rgb(255, 255, 255); stroke-opacity: 1; stroke-width: 1px;"/><path class="y2grid crisp" transform="translate(0,31.35)" d="M70,0h455.9" style="stroke: rgb(255, 255, 255); stroke-opacity: 1; stroke-width: 1px;"/></g></g><g class="zerolinelayer"><path class="xzl zl crisp" transform="translate(70,0)" d="M0,20v227" style="stroke: rgb(255, 255, 255); stroke-opacity: 1; stroke-width: 2px;"/><path class="yzl zl crisp" transform="translate(0,38.29)" d="M70,0h455.9" style="stroke: rgb(255, 255, 255); stroke-opacity: 1; stroke-width: 2px;"/><path class="y2zl zl crisp" transform="translate(0,235.67)" d="M70,0h455.9" style="stroke: rgb(255, 255, 255); stroke-opacity: 1; stroke-width: 2px;"/></g><path class="xlines-below"/><path class="ylines-below"/><g class="overlines-below"><path class="xy2-x"/><path class="xy2-y"/></g><g class="xaxislayer-below"/><g class="yaxislayer-below"/><g class="overaxes-below"><g class="xy2-x"/><g class="xy2-y"/></g><g class="plot" transform="translate(70,20)" clip-path="url(#clip0defbdxyplot)"><g class="scatterlayer mlayer"><g class="trace scatter trace5b72e6" style="stroke-miterlimit: 2; opacity: 1;"><g class="fills"/><g class="errorbars"/><g class="lines"><path class="js-line" d="M0,15.73L0.35,11.35L0.66,15.34L0.71,17.54L0.81,21.37L1.46,20.62L1.51,18.87L2.07,17.99L2.32,22.86L2.37,22.69L2.42,21.72L3.28,17.51L3.33,17.38L3.38,19.71L3.94,15.27L4.04,16.11L4.09,16.15L4.7,21.46L5.05,19.65L5.1,17.44L5.45,20.17L5.5,19.06L5.55,17.38L6.01,15.63L6.26,21.33L6.36,18.87L6.41,17.83L6.56,17.15L6.67,18.93L6.92,18.42L6.97,16.31L7.83,23.73L7.98,22.66L8.03,21.98L8.28,20.13L8.33,18.77L8.84,11.48L9.09,15.53L9.14,15.76L9.34,16.93L9.44,16.73L9.49,14.79L9.59,17.9L9.8,13.75L10.2,15.89L10.25,15.53L10.35,15.11L10.96,20.94L11.16,17.99L11.21,17.64L11.36,18.48L11.46,16.67L11.51,20.17L11.56,18.51L11.82,21.95L12.27,19.52L12.32,21.59L12.42,21.82L13.13,18.16L13.23,19.1L13.28,20.26L13.38,18.74L13.58,21.59L13.99,20.04L14.04,21.17L14.49,15.01L14.95,17.25L15,18.35L15.1,18.64L15.3,16.99L15.35,16.6L15.55,19.62L15.8,15.37L16.11,17.57L16.16,17.9L16.36,19.84L16.66,16.67L16.81,17.61L16.86,17.02L17.07,15.24L17.42,19.16L17.47,18.68L17.52,18.58L17.87,19.45L18.13,14.11L18.28,15.76L18.33,17.83L18.38,17.38L18.73,20.72L18.78,20.75L18.83,22.24L19.19,18.9L19.44,20L19.49,19.45L19.79,14.46L20.4,16.41L20.45,17.87L20.65,13.98L21.11,18.06L21.16,19.49L21.31,17.93L21.51,19.91L21.61,19.78L21.66,21.27L22.42,17.9L22.47,19.45L22.62,19.49L22.97,15.73L23.38,16.67L23.43,17.02L23.63,15.47L23.88,19.36L24.19,17.9L24.24,18.25L24.69,21.69L24.74,22.14L25.09,18.38L25.5,21.04L25.55,21.43L25.65,21.24L25.7,19.1L26.46,22.69L26.51,20.62L26.56,20.81L26.76,17.83L27.37,18.74L27.42,18.16L27.72,16.76L28.02,20.75L28.12,18.16L28.18,17.31L28.43,16.08L28.58,19.91L28.63,21.14L28.98,23.12L29.08,19.97L29.24,21.17L29.29,20.26L29.39,20.72L29.44,18.51L29.49,18.58L29.54,17.12L30.14,20.3L30.55,19.26L30.6,18.38L31.26,14.17L31.41,15.69L31.46,14.75L31.91,14.17L32.37,18.93L32.42,17.9L32.47,16.5L32.67,14.82L32.87,18.84L33.07,17.02L33.12,18.32L33.27,16.99L33.53,21.82L33.68,21.24L33.73,21.98L34.99,13.78L35.04,15.27L35.5,13.36L35.7,16.6L35.75,16.5L35.9,14.3L36.35,17.22L36.41,19.19L36.66,18.16L36.81,22.05L36.86,22.08L37.01,17.93L37.57,21.59L37.62,23.7L37.72,24.83L37.77,23.67L37.82,22.11L38.22,20.2L38.43,23.47L38.48,23.02L38.53,23.28L38.73,22.82L39.38,27.23L39.43,26.55L39.89,21.5L40.34,23.28L40.39,23.44L40.85,25.64L41,22.24L41.05,22.69L41.1,22.14L41.15,21.98L41.35,23.67L41.45,22.53L41.51,20.2L41.76,19L41.96,19.94L42.01,20.59L42.41,19.1L42.82,22.37L42.87,21.11L43.22,24.54L43.42,20.98L43.58,22.34L43.63,21.53L44.18,21.24L44.43,23.89L44.48,23.15L44.89,24.7L45.29,20.3L45.39,21.4L45.44,22.11L45.65,23.08L45.8,20L46,21.59L46.05,20L46.6,22.86L46.76,21.04L46.81,20.2L46.91,20.13L47.31,23.6L47.36,24.19L47.77,29.83L48.12,26.65L48.17,24.64L48.22,24.32L48.52,26.97L48.57,26.03L48.62,27.65L48.78,29.89L49.03,24.9L49.18,26.13L49.23,24.9L49.68,27.69L49.94,26.26L49.99,24.9L50.14,24.48L50.54,25.9L50.59,26.49L50.75,25.9L51,28.59L51.05,29.83L51.25,23.38L51.91,25.58L51.96,27.1L52.77,23.47L52.82,23.89L53.47,23.38L53.88,28.66L53.93,27.56L54.28,30.31L54.73,29.5L54.78,28.85L54.89,27.23L55.19,32L55.44,30.6L55.49,30.77L56.15,24.02L56.55,24.64L56.6,25L57.06,25.64L57.51,20.56L57.71,21.66L57.76,21.79L57.81,22.69L57.97,18.55L58.42,20.23L58.47,19.62L59.33,24.02L59.43,23.38L59.48,23.41L59.73,21.92L60.04,26.97L60.09,27.33L60.84,30.12L61,29.08L61.05,28.01L61.1,28.89L61.45,24.48L61.8,28.53L61.85,26.68L61.95,27.46L62.16,23.86L62.31,24.57L62.36,23.21L62.46,22.86L62.61,25.16L62.81,25L62.86,25.26L63.42,28.76L63.67,26.88L63.72,26.55L64.02,24.8L64.28,26.65L64.33,26.91L64.83,24.9L65.14,25.22L65.19,25.48L65.24,25.22L65.44,27.01L65.49,27.91L65.84,27.82L66.25,31.12L66.4,30.28L66.45,29.73L66.65,27.85L67.16,30.15L67.21,30.21L67.56,29.63L68.22,32.78L68.27,32.19L68.52,31.12L69.12,33.97L69.18,32L69.33,30.77L69.43,31.71L69.48,32.03L69.53,32.22L69.58,30.9L69.68,31.19L69.73,29.5L70.34,25.32L70.64,26.42L70.69,27.62L71.19,26.88L71.95,31.09L72,30.54L72.26,30.21L72.56,31.71L72.66,30.18L72.71,29.66L72.81,28.53L73.27,31.09L73.42,29.96L73.47,30.21L73.77,30.12L74.12,31.84L74.17,30.38L74.22,30.41L74.38,29.66L74.88,32.48L75.13,32.32L75.18,30.93L75.39,31.67L75.54,29.99L75.84,31.35L75.89,30.25L76.14,30.77L76.45,27.3L76.8,28.53L76.85,28.63L78.01,36.02L78.11,35.5L78.16,35.53L78.62,37.9L78.97,37.57L79.02,36.6L79.63,32.58L79.83,34.98L79.88,35.04L80.38,35.66L80.49,33.91L80.59,34.88L80.64,34.91L80.94,36.18L81.14,34.43L81.24,34.98L81.29,34.3L81.55,34.72L82.05,31.8L82.25,33.2L82.3,33.42L82.71,34.59L82.81,32.61L82.96,32.9L83.01,34.14L83.21,32.29L83.57,35.4L83.62,35.85L83.97,38.64L84.42,37.73L84.47,36.73L84.63,37.86L85.08,35.66L85.13,35.92L85.99,40.94L86.44,40.65L86.49,40.68L87.1,36.11L87.3,38.12L87.35,38.25L87.61,35.79L88.21,36.34L88.26,36.44L88.31,35.47L88.77,37.41L88.97,36.54L89.02,36.7L89.07,35.95L89.62,38.54L89.68,37.47L89.73,37.57L90.33,36.02L90.48,36.7L90.53,36.89L90.84,37.9L91.04,36.54L91.19,37.02L91.24,36.44L92.25,39.74L92.3,37.99L92.35,37.51L93.31,40.59L93.41,40.46L93.46,40.07L93.71,41.49L93.82,40.85L93.87,40.23L94.47,41.14L94.52,39.81L94.67,40.75L94.72,40.39L94.78,40.2L94.88,41.69L95.23,40.91L95.28,41.23L95.43,41.88L95.53,41.53L95.58,40.33L96.04,39.32L96.24,40.91L96.29,41.3L96.44,39.42L97,41.98L97.05,42.05L97.1,42.89L97.3,40.52L97.75,41.98L97.8,41.69L98.21,43.02L98.41,41.46L98.51,41.69L98.56,41.27L98.61,40.68L99.07,42.3L99.22,42.27L99.27,42.43L99.57,44.28L99.82,41.27L99.87,41.3L99.93,40.62L100.48,42.69L100.58,41.17L100.63,41.43L100.83,42.11L100.99,40.52L101.14,41.23L101.19,40.62L101.24,39.94L101.44,40.75L101.89,40.36L101.95,40.81L102.45,40.94L102.75,38.67L102.8,38.77L103.06,37.99L103.51,40.98L103.61,40.2L103.66,39.26L104.27,37.05L104.37,38.54L104.42,39.19L104.62,40.26L105.03,38.19L105.13,38.93L105.18,39.06L105.28,39.58L105.58,37.93L105.63,37.09L106.79,40.46L106.84,39.42L106.99,38.58L107.3,40.07L107.35,40.42L108.61,44.93L108.66,43.24L109.06,42.6L109.67,45.84L109.77,45.42L109.82,45.12L110.43,46.78L110.53,44.9L110.58,44.31L111.79,48.69L111.84,47.65L111.89,46.06L111.94,44.96L112.5,47.23L112.55,47.07L112.6,47.36L112.75,46.97L113.05,47.78L113.2,47.2L113.26,46.03L113.41,46.68L113.46,45.64L113.51,44.57L113.61,44.12L113.91,45.77L113.96,46.06L114.21,44.38L114.62,46.62L114.67,46.71L114.92,45.9L115.73,48.11L115.78,47.69L115.93,46.23L116.49,48.43L116.54,47.43L116.64,47.07L116.94,48.72L116.99,49.01L117.29,50.12L117.6,49.5L117.65,48.5L118.81,50.08L118.86,49.63L119.16,47.33L119.62,48.82L119.67,49.05L120.78,51.32L120.93,51.09L120.98,50.12L121.84,52.06L121.89,52.45L121.99,52.19L122.34,53.2L122.39,53.42L122.6,53.91L122.8,52.77L122.85,52.42L123.2,51.06L123.61,53L123.66,52.26L123.86,51.22L124.41,52.13L124.46,52.42L124.92,53.42L125.12,52.09L125.17,52.13L125.37,50.99L125.83,52.48L125.88,52.84L126.69,50.31L126.74,50.63L126.79,50.83L127.04,50.7L127.54,51.77L127.6,50.86L127.7,49.21L128.3,51.19L128.35,51.25L128.71,50.51L129.11,52.13L129.16,51.48L130.63,55.63L130.68,55.82L131.18,53.26L131.48,54.2L131.53,54.75L132.09,57.05L132.34,55.3L132.39,55.33L132.54,54.82L133.45,58.15L133.5,57.21L133.55,56.37L135.07,61.17L135.17,60.33L135.22,59.74L135.27,59.09L135.78,61.3L135.93,60.2L135.98,60.23L136.53,61.2L136.58,61.43L137.54,62.85L137.59,62.37L137.85,60.26L138.4,61.01L138.45,61.62L138.55,61.17L139.41,62.69L139.46,62.72L139.76,62.3L140.22,63.7L140.27,63.31L140.32,62.92L140.82,62.56L141.28,64.9L141.43,64.22L141.48,63.66L142.89,68.46L143.15,67.78L143.2,67.17L143.55,67.88L143.75,66.91L143.85,67.3L143.9,66.68L144.26,67.72L144.46,66.58L144.71,67.07L144.76,67.1L145.37,68.36L145.57,67.68L145.62,66.55L146.63,68.11L146.73,67.75L146.78,66.81L147.54,68.24L147.59,68.95L148.8,71.09L148.85,70.28L149.71,72.84L149.86,72.55L149.91,72.61L150.12,71.9L151.28,74.65L151.33,74.72L151.78,74.17L152.69,76.92L152.74,76.14L152.94,76.5L153.04,75.56L153.3,76.53L153.35,76.92L154.1,73.94L154.21,74.07L154.26,74.2L155.57,76.18L155.62,76.24L156.83,77.67L156.88,76.89L157.44,77.44L157.54,76.99L157.59,76.57L157.79,75.75L158.24,77.05L158.3,77.12L158.7,76.57L159.3,77.93L159.36,77.99L159.46,78.22L159.56,77.25L159.81,77.34L159.86,76.47L160.06,76.6L160.11,75.69L161.07,77.34L161.12,76.27L161.17,75.69L161.73,77.34L161.78,77.44L162.28,77.96L162.33,77.25L162.39,76.86L162.49,76.44L162.94,77.73L162.99,77.76L163.19,77.15L164.1,79.13L164.15,78.38L164.51,76.92L164.91,77.51L164.96,77.57L165.06,77.31L165.36,78.45L165.41,78.54L165.52,78.38L166.17,79.51L166.22,78.7L167.33,80.29L167.38,80.33L167.48,79.13L167.99,80.68L168.14,79.9L168.19,80.07L169.3,81.59L169.35,81.27L169.71,80.23L170.01,81.14L170.06,81.27L170.16,80.91L170.67,82.24L170.72,81.78L170.77,81.82L172.43,85.45L172.79,85.19L172.84,84.8L175.11,89.21L175.16,88.4L175.31,88.14L175.61,89.14L175.66,88.98L175.72,89.3L176.78,92.19L176.83,92.38L177.08,91.67L177.84,93.29L177.89,93.55L178.04,93.1L178.49,94.23L178.54,94.33L178.74,94.62L178.85,93.68L179,94.13L179.05,93.74L179.15,93.55L179.4,94.55L179.45,94.65L179.75,94.75L179.86,93.97L180.26,94.23L180.31,94.3L180.41,94.46L180.46,93.65L180.51,93.1L180.71,92.8L180.97,93.1L181.12,92.87L181.17,92.51L183.49,96.18L183.54,96.37L183.74,96.79L183.89,95.27L184.05,95.56L184.1,95.56L184.8,95.69L184.85,94.91L185.61,96.27L185.71,95.04L185.76,95.11L187.03,97.34L187.08,97.41L189.05,100.42L189.1,99.48L189.15,99.22L189.65,100.42L189.7,100.58L190.71,102.07L190.76,101.46L190.81,100.75L190.91,100.19L191.42,101.49L191.47,101.52L192.38,103.24L192.43,102.4L193.24,103.95L193.54,103.79L193.59,103.86L193.99,104.6L194.09,103.7L194.4,103.99L194.45,104.02L194.75,103.86L195,104.51L195.05,104.73L195.51,104.93L195.56,104.44L195.81,104.73L195.86,104.83L196.11,104.28L196.62,104.64L196.67,104.83L199.9,107.91L199.95,107.33L200,106.87L201.97,110.31L202.32,109.95L202.38,109.4L202.83,108.2L203.23,108.88L203.28,108.91L203.39,108.59L203.84,109.5L203.89,109.63L204.24,109.37L204.29,108.75L205.46,109.72L205.51,109.76L205.61,109.63L206.36,110.86L206.52,110.5L206.57,110.53L206.82,110.27L209.75,114.75L209.85,114.23L209.9,114.23L214.8,122.07L214.95,121.68L215,121.72L215.2,121.85L215.25,121.23L215.35,121.59L215.4,120.74L215.55,120.58L215.86,121.23L215.91,121.23L215.96,121.3L216.56,121.72L216.82,121.59L216.87,121.62L219.09,124.05L219.14,123.05L219.49,122.01L220,122.36L220.05,122.4L221.92,123.66L221.97,123.99L223.38,126.71L223.43,126.81L224.84,128.62L224.9,128.65L225.65,129.88L225.85,129.5L225.91,129.56L231.91,137.21L231.96,136.72L233.48,138.44L233.93,137.99L233.98,138.02L235.85,139.9L235.9,139.9L237.11,140.42L237.16,140.48L237.27,139.84L237.77,140.65L237.87,140.65L237.92,140.71L242.01,142.79L242.06,142.79L243.38,144.5L243.43,144.5L247.47,147.49L247.52,147.49L248.83,148.2L248.88,148.23L250.34,149.72L250.39,149.72L251.76,150.37L251.81,150.56L253.07,151.6L253.12,151.6L253.83,152.15L253.88,152.38L254.84,152.83L254.89,152.83L257.46,155.04L257.51,155.04L258.67,156.3L258.73,156.59L262.56,158.99L262.61,158.99L264.89,160.68L264.94,160.77L266.8,161.94L266.85,162.07L267.86,162.98L267.92,163.08L271.25,165.18L271.3,165.18L280.84,169.1L280.89,169.1L286.19,172.93L286.24,172.96L289.17,174.16L289.22,174.23L293.16,175.72L293.21,175.78L294.73,176.66L294.78,176.88L297.05,178.05L297.1,178.34L304.27,181.97L304.32,182.17L306.39,182.82L306.44,182.95L308.56,183.69L308.61,183.72L314.27,185.89L314.32,186.02L322.65,188.81L322.7,188.94L326.23,189.59L326.28,189.72L330.98,190.69L331.03,190.69L333.35,191.31L333.4,191.5L336.94,192.25L336.99,192.25L339.72,192.99L339.77,193.03L344.61,194.61L344.66,194.74L346.89,195.46L346.94,195.59L351.83,196.3L351.88,196.53L362.99,200.42L363.04,200.42L366.83,201.16L366.88,201.23L370.72,201.97L370.77,202.04L372.69,202.33L372.74,202.33L374.71,203.27L374.76,203.4L376.32,204.14L376.37,204.18L386.93,205.47L386.98,205.47L389.8,206.12L389.86,206.25L395.21,207L395.26,207.03L398.14,207.42L398.19,207.42L401.37,208.13L401.42,208.19L408.84,208.88L408.89,209.04L412.53,209.56L412.58,209.82L419.14,210.56L419.19,210.59L422.88,211.34L422.93,211.37L425.91,212.08L425.96,212.15L430.5,212.83L430.55,212.93L438.93,213.51L438.98,213.74L445.65,214.39L445.7,214.55L454.84,215.62L454.89,215.62L455.9,215.65" style="vector-effect: non-scaling-stroke; fill: none; stroke: rgb(99, 110, 250); stroke-opacity: 1; stroke-width: 2px; opacity: 1;"/></g><g class="points"/><g class="text"/></g></g></g><g class="overplot"><g class="xy2" transform="translate(70,20)" clip-path="url(#clip0defbdxy2plot)"><g class="scatterlayer mlayer"><g class="trace scatter trace7c42e8" style="stroke-miterlimit: 2; opacity: 1;"><g class="fills"/><g class="errorbars"/><g class="lines"><path class="js-line" d="M0,11.35L9.69,47.06L9.75,47.23L17.98,72.58L18.03,72.72L26.1,93.87L26.16,93.99L35.7,114.95L35.75,115.05L42.97,128.47L43.02,128.55L50.75,140.92L50.8,140.99L59.99,153.43L60.04,153.49L71.55,166.17L71.6,166.22L81.39,174.95L81.44,174.99L96.74,185.63L96.79,185.66L112.45,193.66L112.5,193.68L123.46,197.98L123.51,197.99L133.45,201.16L133.5,201.17L155.37,206.27L155.42,206.28L173.19,209.07L173.24,209.07L198.18,211.65L198.23,211.65L249.64,214.22L249.69,214.22L267.41,214.65L267.46,214.65L282.76,214.92L282.81,214.92L455.9,215.65" style="vector-effect: non-scaling-stroke; fill: none; stroke: rgb(239, 85, 59); stroke-opacity: 1; stroke-width: 2px; opacity: 1;"/></g><g class="points"/><g class="text"/></g></g></g></g><path class="xlines-above crisp" d="M0,0" style="fill: none;"/><path class="ylines-above crisp" d="M0,0" style="fill: none;"/><g class="overlines-above"><path class="xy2-x crisp" d="M0,0" style="fill: none;"/><path class="xy2-y crisp" d="M0,0" style="fill: none;"/></g><g class="xaxislayer-above"><g class="xtick"><text text-anchor="middle" x="0" y="260" transform="translate(70,0)" style="font-family: 'Open Sans', verdana, arial, sans-serif; font-size: 12px; fill: rgb(42, 63, 95); fill-opacity: 1; white-space: pre; opacity: 1;">0</text></g><g class="xtick"><text text-anchor="middle" x="0" y="260" style="font-family: 'Open Sans', verdana, arial, sans-serif; font-size: 12px; fill: rgb(42, 63, 95); fill-opacity: 1; white-space: pre; opacity: 1;" transform="translate(170.99,0)">2000</text></g><g class="xtick"><text text-anchor="middle" x="0" y="260" style="font-family: 'Open Sans', verdana, arial, sans-serif; font-size: 12px; fill: rgb(42, 63, 95); fill-opacity: 1; white-space: pre; opacity: 1;" transform="translate(271.97,0)">4000</text></g><g class="xtick"><text text-anchor="middle" x="0" y="260" style="font-family: 'Open Sans', verdana, arial, sans-serif; font-size: 12px; fill: rgb(42, 63, 95); fill-opacity: 1; white-space: pre; opacity: 1;" transform="translate(372.96,0)">6000</text></g><g class="xtick"><text text-anchor="middle" x="0" y="260" style="font-family: 'Open Sans', verdana, arial, sans-serif; font-size: 12px; fill: rgb(42, 63, 95); fill-opacity: 1; white-space: pre; opacity: 1;" transform="translate(473.94,0)">8000</text></g></g><g class="yaxislayer-above"><g class="ytick"><text text-anchor="end" x="69" y="4.199999999999999" transform="translate(0,200.35)" style="font-family: 'Open Sans', verdana, arial, sans-serif; font-size: 12px; fill: rgb(42, 63, 95); fill-opacity: 1; white-space: pre; opacity: 1;">−10k</text></g><g class="ytick"><text text-anchor="end" x="69" y="4.199999999999999" style="font-family: 'Open Sans', verdana, arial, sans-serif; font-size: 12px; fill: rgb(42, 63, 95); fill-opacity: 1; white-space: pre; opacity: 1;" transform="translate(0,119.32)">−5k</text></g><g class="ytick"><text text-anchor="end" x="69" y="4.199999999999999" style="font-family: 'Open Sans', verdana, arial, sans-serif; font-size: 12px; fill: rgb(42, 63, 95); fill-opacity: 1; white-space: pre; opacity: 1;" transform="translate(0,38.29)">0</text></g></g><g class="overaxes-above"><g class="xy2-x"/><g class="xy2-y"><g class="y2tick"><text text-anchor="start" x="526.9" y="4.199999999999999" transform="translate(0,235.67)" style="font-family: 'Open Sans', verdana, arial, sans-serif; font-size: 12px; fill: rgb(42, 63, 95); fill-opacity: 1; white-space: pre; opacity: 1;">0</text></g><g class="y2tick"><text text-anchor="start" x="526.9" y="4.199999999999999" style="font-family: 'Open Sans', verdana, arial, sans-serif; font-size: 12px; fill: rgb(42, 63, 95); fill-opacity: 1; white-space: pre; opacity: 1;" transform="translate(0,184.59)">500</text></g><g class="y2tick"><text text-anchor="start" x="526.9" y="4.199999999999999" style="font-family: 'Open Sans', verdana, arial, sans-serif; font-size: 12px; fill: rgb(42, 63, 95); fill-opacity: 1; white-space: pre; opacity: 1;" transform="translate(0,133.51)">1000</text></g><g class="y2tick"><text text-anchor="start" x="526.9" y="4.199999999999999" style="font-family: 'Open Sans', verdana, arial, sans-serif; font-size: 12px; fill: rgb(42, 63, 95); fill-opacity: 1; white-space: pre; opacity: 1;" transform="translate(0,82.43)">1500</text></g><g class="y2tick"><text text-anchor="start" x="526.9" y="4.199999999999999" style="font-family: 'Open Sans', verdana, arial, sans-serif; font-size: 12px; fill: rgb(42, 63, 95); fill-opacity: 1; white-space: pre; opacity: 1;" transform="translate(0,31.35)">2000</text></g></g></g></g><g class="subplot xy2"/></g><g class="polarlayer"/><g class="smithlayer"/><g class="ternarylayer"/><g class="geolayer"/><g class="funnelarealayer"/><g class="pielayer"/><g class="iciclelayer"/><g class="treemaplayer"/><g class="sunburstlayer"/><g class="glimages"/><defs id="topdefs-0defbd"><g class="clips"/><clipPath id="legend0defbd"><rect width="123" height="48" x="0" y="0"/></clipPath></defs><g class="layer-above"><g class="imagelayer"/><g class="shapelayer"/></g><g class="infolayer"><g class="legend" pointer-events="all" transform="translate(564.7,20)"><rect class="bg" shape-rendering="crispEdges" width="123" height="48" x="0" y="0" style="stroke: rgb(68, 68, 68); stroke-opacity: 1; fill: rgb(255, 255, 255); fill-opacity: 1; stroke-width: 0px;"/><g class="scrollbox" transform="" clip-path="url(#legend0defbd)"><g class="groups"><g class="traces" transform="translate(0,14.5)" style="opacity: 1;"><text class="legendtext" text-anchor="start" x="40" y="4.680000000000001" style="font-family: 'Open Sans', verdana, arial, sans-serif; font-size: 12px; fill: rgb(42, 63, 95); fill-opacity: 1; white-space: pre;">Cost</text><g class="layers" style="opacity: 1;"><g class="legendfill"/><g class="legendlines"><path class="js-line" d="M5,0h30" style="fill: none; stroke: rgb(99, 110, 250); stroke-opacity: 1; stroke-width: 2px;"/></g><g class="legendsymbols"><g class="legendpoints"/></g></g><rect class="legendtoggle" x="0" y="-9.5" width="117.265625" height="19" style="fill: rgb(0, 0, 0); fill-opacity: 0;"/></g><g class="traces" transform="translate(0,33.5)" style="opacity: 1;"><text class="legendtext" text-anchor="start" x="40" y="4.680000000000001" style="font-family: 'Open Sans', verdana, arial, sans-serif; font-size: 12px; fill: rgb(42, 63, 95); fill-opacity: 1; white-space: pre;">Temperature</text><g class="layers" style="opacity: 1;"><g class="legendfill"/><g class="legendlines"><path class="js-line" d="M5,0h30" style="fill: none; stroke: rgb(239, 85, 59); stroke-opacity: 1; stroke-width: 2px;"/></g><g class="legendsymbols"><g class="legendpoints"/></g></g><rect class="legendtoggle" x="0" y="-9.5" width="117.265625" height="19" style="fill: rgb(0, 0, 0); fill-opacity: 0;"/></g></g></g><rect class="scrollbar" rx="20" ry="3" width="0" height="0" x="0" y="0" style="fill: rgb(128, 139, 164); fill-opacity: 1;"/></g><g class="g-gtitle"/><g class="g-xtitle"><text class="xtitle" x="297.95" y="287.8" text-anchor="middle" style="font-family: 'Open Sans', verdana, arial, sans-serif; font-size: 14px; fill: rgb(42, 63, 95); opacity: 1; font-weight: normal; white-space: pre;">Iterations</text></g><g class="g-ytitle" transform="translate(1.9873046875,0)"><text class="ytitle" transform="rotate(-90,12.012500000000003,133.5)" x="12.012500000000003" y="133.5" text-anchor="middle" style="font-family: 'Open Sans', verdana, arial, sans-serif; font-size: 14px; fill: rgb(42, 63, 95); opacity: 1; font-weight: normal; white-space: pre;">Cost</text></g><g class="g-y2title"><text class="y2title" transform="rotate(-90,582.596875,133.5)" x="582.596875" y="133.5" text-anchor="middle" style="font-family: 'Open Sans', verdana, arial, sans-serif; font-size: 14px; fill: rgb(42, 63, 95); opacity: 1; font-weight: normal; white-space: pre;">Temperature</text></g></g></svg>