<svg class="main-svg" xmlns="http://www.w3.org/2000/svg" xmlns:xlink="http://www.w3.org/1999/xlink" width="700" height="300" style="" viewBox="0 0 700 300"><rect x="0" y="0" width="700" height="300" style="fill: rgb(255, 255, 255); fill-opacity: 1;"/><defs id="defs-46440d"><g class="clips"><clipPath id="clip46440dxyplot" class="plotclip"><rect width="465.29999999999995" height="227"/></clipPath><clipPath id="clip46440dxy2plot" class="plotclip"><rect width="465.29999999999995" height="227"/></clipPath><clipPath class="axesclip" id="clip46440dx"><rect x="60" y="0" width="465.29999999999995" height="300"/></clipPath><clipPath class="axesclip" id="clip46440dy"><rect x="0" y="20" width="700" height="227"/></clipPath><clipPath class="axesclip" id="clip46440dxy"><rect x="60" y="20" width="465.29999999999995" height="227"/></clipPath><clipPath class="axesclip" id="clip46440dy2"><rect x="0" y="20" width="700" height="227"/></clipPath><clipPath class="axesclip" id="clip46440dxy2"><rect x="60" y="20" width="465.29999999999995" height="227"/></clipPath></g><g class="gradients"/><g class="patterns"/></defs><g class="bglayer"><rect class="bg" x="60" y="20" width="465.29999999999995" height="227" style="fill: rgb(229, 236, 246); fill-opacity: 1; stroke-width: 0;"/></g><g class="layer-below"><g class="imagelayer"/><g class="shapelayer"/></g><g class="cartesianlayer"><g class="subplot xy"><g class="layer-subplot"><g class="shapelayer"/><g class="imagelayer"/></g><g class="gridlayer"><g class="x"><path class="xgrid crisp" transform="translate(172.68,0)" d="M0,20v227" style="stroke: rgb(255, 255, 255); stroke-opacity: 1; stroke-width: 1px;"/><path class="xgrid crisp" transform="translate(285.35,0)" d="M0,20v227" style="stroke: rgb(255, 255, 255); stroke-opacity: 1; stroke-width: 1px;"/><path class="xgrid crisp" transform="translate(398.03,0)" d="M0,20v227" style="stroke: rgb(255, 255, 255); stroke-opacity: 1; stroke-width: 1px;"/><path class="xgrid crisp" transform="translate(510.71,0)" d="M0,20v227" style="stroke: rgb(255, 255, 255); stroke-opacity: 1; stroke-width: 1px;"/></g><g class="y"><path class="ygrid crisp" transform="translate(0,245.75)" d="M60,0h465.29999999999995" style="stroke: rgb(255, 255, 255); stroke-opacity: 1; stroke-width: 1px;"/><path class="ygrid crisp" transform="translate(0,185.29)" d="M60,0h465.29999999999995" style="stroke: rgb(255, 255, 255); stroke-opacity: 1; stroke-width: 1px;"/><path class="ygrid crisp" transform="translate(0,124.83)" d="M60,0h465.29999999999995" style="stroke: rgb(255, 255, 255); stroke-opacity: 1; stroke-width: 1px;"/><path class="ygrid crisp" transform="translate(0,64.37)" d="M60,0h465.29999999999995" style="stroke: rgb(255, 255, 255); stroke-opacity: 1; stroke-width: 1px;"/></g><g class="y2"><path class="y2grid crisp" transform="translate(0,184.61)" d="M60,0h465.29999999999995" style="stroke: rgb(255, 255, 255); stroke-opacity: 1; stroke-width: 1px;"/><path class="y2grid crisp" transform="translate(0,133.53)" d="M60,0h465.29999999999995" style="stroke: rgb(255, 255, 255); stroke-opacity: 1; stroke-width: 1px;"/><path class="y2grid crisp" transform="translate(0,82.44)" d="M60,0h465.29999999999995" style="stroke: rgb(255, 255, 255); stroke-opacity: 1; stroke-width: 1px;"/><path class="y2grid crisp" transform="translate(0,31.35)" d="M60,0h465.29999999999995" style="stroke: rgb(255, 255, 255); stroke-opacity: 1; stroke-width: 1px;"/></g></g><g class="zerolinelayer"><path class="xzl zl crisp" transform="translate(60,0)" d="M0,20v227" style="stroke: rgb(255, 255, 255); stroke-opacity: 1; stroke-width: 2px;"/><path class="y2zl zl crisp" transform="translate(0,235.7)" d="M60,0h465.29999999999995" style="stroke: rgb(255, 255, 255); stroke-opacity: 1; stroke-width: 2px;"/></g><path class="xlines-below"/><path class="ylines-below"/><g class="overlines-below"><path class="xy2-x"/><path class="xy2-y"/></g><g class="xaxislayer-below"/><g class="yaxislayer-below"/><g class="overaxes-below"><g class="xy2-x"/><g class="xy2-y"/></g><g class="plot" transform="translate(60,20)" clip-path="url(#clip46440dxyplot)"><g class="scatterlayer mlayer"><g class="trace scatter trace8e61d9" style="stroke-miterlimit: 2; opacity: 1;"><g class="fills"/><g class="errorbars"/><g class="lines"><path class="js-line" d="M0,23.71L0.06,19.6L0.56,35.8L0.62,31.11L0.68,35.32L1.41,17.73L1.63,18.12L1.69,19.02L1.92,12L2.59,34.76L2.65,34.15L3.1,35.94L3.49,19.48L3.55,22.64L3.61,35.36L4,37.01L4.45,11.71L4.51,23.95L5.01,42.59L5.24,18.1L5.3,26.13L5.41,20.47L5.58,38L6.14,32.2L6.2,31.04L6.7,36.28L6.87,22.04L6.99,24.63L7.04,26.42L7.1,26.56L7.15,26.13L7.21,28.62L7.32,13.94L7.66,22.33L7.72,32.22L8.28,32.49L8.51,11.35L8.56,15.65L9.35,33.84L9.41,28.64L9.46,29.1L9.52,28.33L9.58,22.57L9.63,20.76L9.97,33.36L10.03,28.28L10.08,32.99L10.65,13.12L10.82,24.17L10.87,32.61L11.04,25.28L11.27,36.5L11.44,34.78L11.49,28.98L11.61,15.68L11.94,34.74L12.23,28.79L12.28,27.26L12.51,28.69L12.79,15.49L13.01,27.5L13.07,30.36L13.13,30.19L13.18,20.39L13.24,32.63L13.75,14.54L13.92,28.47L13.97,24.02L14.14,16.82L14.31,31.83L14.76,31.76L14.82,27.21L15.1,32.24L15.38,12.87L15.44,25.64L15.49,40.59L16,19.74L16.28,22.67L16.34,22.79L16.79,33.07L17.01,20.78L17.18,31.16L17.24,34.03L17.75,14.3L18.03,18.77L18.08,27.82L18.14,28.11L18.2,25.45L18.25,21.36L18.42,16.72L18.87,35.9L19.1,31.71L19.16,29L19.27,32.24L19.32,34.01L19.38,33.38L19.44,35.1L19.49,25.69L19.61,25.09L20.23,42.47L20.34,33.86L20.39,23.59L20.79,18.39L21.01,28.74L21.07,30.14L21.3,19.16L21.58,35.1L21.75,34.15L21.8,27.17L22.03,21.56L22.08,24.99L22.14,27.79L22.25,26.8L22.76,41.48L22.99,36.57L23.04,26.66L23.1,23.13L23.66,32.99L23.72,35.82L23.77,37.56L24.06,23.27L24.11,29.27L24.17,25.04L24.39,44.22L24.9,32.82L24.96,27.65L25.35,33.45L25.63,20.42L25.75,24.92L25.8,29.44L25.86,36.31L26.2,23.56L26.48,27.21L26.54,22.67L26.65,26.95L27.21,17.76L27.27,20.97L27.55,37.13L28.11,26.49L28.17,24.94L28.28,28.69L28.39,20.23L28.45,21.87L28.51,15.97L28.96,14.06L29.41,38.82L29.52,37.69L29.58,34.78L29.92,15.24L30.31,32.73L30.37,27.82L30.42,21.99L30.82,40.59L31.1,29.78L31.16,28.11L31.32,25.23L31.66,35.61L31.72,29.9L31.77,24.51L32.11,16.86L32.56,42.26L32.62,36.26L32.68,32.8L33.3,20.01L33.52,21.8L33.58,26.95L33.75,34.37L34.14,28.21L34.2,25.33L34.42,17.54L34.59,34.59L34.87,25.35L34.93,21.82L35.21,30.07L35.44,20.66L35.49,21.24L35.55,21.29L36,17.11L36.23,33.19L36.34,29.66L36.39,22.89L36.73,14.98L36.85,22.55L36.9,29.1L37.01,28.42L37.07,32.8L37.13,35.39L37.35,32.97L37.63,43.54L37.92,38.73L37.97,32.2L38.03,32.85L38.14,29.12L38.2,30.12L38.25,26.68L38.54,31.86L38.82,21.8L38.87,27.36L38.93,30.89L39.04,26.73L39.44,38.73L39.66,30.16L39.72,19.31L40,35.46L40.62,33.65L40.68,30.55L40.79,32.92L41.07,19.86L41.41,29.41L41.47,32.95L42.03,32.78L42.31,37.78L42.37,31.06L42.59,20.52L42.93,35.56L43.04,24.55L43.1,30.07L43.16,36.81L43.55,19.33L43.72,21.51L43.78,15.46L44.17,33.91L44.79,32.46L44.85,29.73L44.96,30.48L45.01,23.49L45.13,27.55L45.18,35.22L46.08,21.12L46.14,20.56L46.2,11.57L46.82,30.77L46.87,32.8L47.16,38.24L47.21,29.12L47.32,30.26L47.38,27.38L47.44,25.26L47.89,33.02L47.94,35.19L48.51,27.67L48.73,30.26L48.79,33.16L48.9,40.25L49.35,23.8L49.47,30.84L49.52,31.59L49.75,28.83L49.8,38.58L50.14,33.6L50.2,28.62L50.48,32.92L50.7,26.39L50.87,28.5L50.93,25.4L50.99,25.13L51.04,19.91L51.16,21.46L51.21,22.93L51.61,33.72L51.66,38.51L51.83,44.82L52.17,37.52L52.23,26.25L52.45,30.55L52.79,19.67L52.85,17.35L53.07,13.89L53.97,35.27L54.03,31.35L54.31,26.03L54.82,39.72L54.87,26.97L54.99,30.41L55.04,29.1L55.1,26.56L55.21,27.31L55.27,25.57L55.32,19.96L55.72,37.98L56.11,24.99L56.17,26.66L56.68,39.77L56.96,38.29L57.01,35.05L57.41,20.81L57.63,26.22L57.69,28.5L57.8,33.6L57.86,38.46L57.92,39.26L58.03,35.1L58.14,37.71L58.2,29.71L58.31,27.58L58.65,36.21L58.7,40.3L58.93,21.77L59.38,31.04L59.44,32.15L59.49,30.84L59.78,37.98L59.83,41.89L60.11,27.12L60.39,35.41L60.45,39.77L60.51,39.91L60.56,39.55L60.62,39.6L60.68,37.01L60.79,32.46L61.13,40.73L61.18,36.81L61.24,43.68L61.35,49.78L61.41,38.56L61.58,39.16L61.63,36.94L61.69,37.2L61.75,32.46L61.92,38.29L62.31,26.9L62.42,31.71L62.48,29.9L62.59,27.34L62.93,33.04L62.99,32.92L63.04,34.54L63.44,49.75L63.89,46.32L63.94,41.05L64.06,43.73L64.34,42.43L64.39,36.11L64.62,40.78L64.79,34.15L64.9,39.06L64.96,39.45L65.13,43.13L65.18,41.05L65.24,31.83L65.35,38.29L65.69,30.58L65.75,30.87L65.8,27.79L66.03,34.3L66.09,35.15L66.42,43.47L66.59,26.66L66.65,24.63L66.76,18.63L66.87,28.98L66.93,31.91L67.21,37.71L67.72,26.78L67.78,29.03L67.83,29.68L67.94,25.06L68,21.51L68.34,33.43L68.51,26.34L68.56,24.58L69.07,41.89L69.52,37.06L69.58,34.66L70.42,46.46L70.48,41.75L70.54,39.69L70.59,32.44L70.93,44.89L71.27,35.82L71.32,36.04L71.38,40.59L71.49,31.01L72.06,36.48L72.11,29.85L72.45,43.08L72.85,36.77L72.9,33.74L73.24,43.47L73.63,36.14L73.69,36.16L73.75,37.25L73.86,29.39L73.92,26.2L74.2,39.4L74.59,33.96L74.65,31.45L74.87,33.82L75.27,22.86L75.38,30.67L75.44,29.56L76.4,45.91L76.51,41.1L76.56,41.24L76.85,34.66L77.13,46.32L77.24,44.02L77.3,44.41L77.41,44.55L77.47,45.96L77.63,53.24L77.75,44.84L78.03,48.06L78.09,49.25L78.37,45.04L78.7,57.32L78.93,53.43L78.99,49.17L79.1,51.4L79.38,41.85L79.44,43.88L79.49,43.71L79.83,43.25L80,53.16L80.23,45.59L80.28,42.86L80.45,49.27L80.85,35.92L80.96,41.51L81.01,40.44L81.47,43.08L81.63,33.36L81.75,38.87L81.8,40.39L82.31,49.68L82.59,43.56L82.65,38.51L83.16,34.81L83.61,46.27L83.66,41.75L84.06,49.56L84.17,40.97L84.45,48.23L84.51,44.19L84.56,41.8L84.79,55.8L85.07,50.16L85.13,50.89L85.18,53.24L85.41,45.86L85.75,45.91L85.8,46.29L86.71,29.9L86.82,30.82L86.87,31.18L86.93,27.17L87.44,40.95L87.49,36.07L87.55,37.85L87.61,37.03L87.83,43.18L87.89,44.34L87.94,48.81L88.51,41.26L88.56,44.8L88.62,40.39L89.47,49.44L89.52,41.7L89.92,52.56L90.09,45.79L90.14,44L90.25,45.81L90.48,41.72L90.54,39.04L91.21,58.48L91.49,57.25L91.55,58.39L91.61,59.04L91.66,52L91.72,48.95L91.83,49L91.89,44.96L92,45.96L92.06,42.76L92.45,35.92L93.07,52.15L93.13,51.42L93.18,50.26L93.24,46.83L93.41,52.87L93.86,52.03L93.92,52.29L94.2,56.28L94.31,53.84L94.37,50.02L94.59,51.03L94.93,39.06L95.16,44.65L95.21,44.99L95.27,47.6L95.44,38.63L95.89,42.74L95.94,43.2L96,43.34L96.06,39.98L96.28,35L96.62,47.36L96.68,45.3L96.73,51.3L96.9,52.17L96.96,45.59L97.01,42.84L97.52,51.13L97.63,49.03L97.69,47.96L97.97,51.76L98.25,42.06L98.31,42.52L98.99,58.36L99.04,53.79L99.1,48.21L99.21,49.7L99.44,45.42L99.55,45.42L99.61,44L99.66,40.56L100.23,49.41L100.28,47.21L100.34,45.55L100.51,47.5L100.56,42.62L101.18,42.55L101.58,56.48L101.63,51.88L102.65,33.96L102.76,35.7L102.82,35.87L103.44,48.08L103.89,47.87L103.94,43.51L104.17,49.49L104.79,46.66L104.85,41.05L105.58,52.15L105.75,48.08L105.8,44.8L106.09,48.42L106.14,51.64L106.25,50.96L106.93,64.46L106.99,58.22L107.04,57.13L107.55,65.35L107.89,60.01L107.94,56.26L108,57.06L108.06,50.31L108.11,47.65L108.56,59.09L108.96,52.7L109.02,48.25L109.75,63.54L110.09,61.65L110.14,58.58L110.48,44.99L110.99,50.62L111.04,52L111.61,55.36L111.72,49.05L111.78,50.79L111.83,51.49L112.06,55.7L112.11,50.94L112.28,55.1L112.34,50.33L112.62,49.61L112.79,51.06L112.85,52.82L112.9,46.68L113.52,57.15L113.58,57.27L113.75,53.72L114.76,64.29L114.82,60.49L114.87,59.23L115.44,62.04L115.49,62.96L115.66,62.28L115.83,63.39L115.89,60.22L116.06,64L116.34,59.57L116.4,58.1L116.45,55.87L116.85,65.45L117.02,61.29L117.07,63.44L118.03,71.35L118.09,69.9L118.25,62.26L118.87,67.12L118.93,67.6L119.1,70.82L119.21,63.1L119.27,61.14L119.44,62.13L119.49,59.14L119.61,61.8L119.66,58.43L120.28,66.27L120.34,67.72L120.62,69.17L120.68,63.92L120.85,66.75L120.9,65.09L120.96,66.73L121.18,58.56L121.41,61.02L121.47,59.81L121.69,61.22L121.92,54.59L122.2,59.6L122.25,59.72L122.59,57.66L123.16,65.33L123.21,60.85L123.27,56.91L123.61,64.12L123.94,61.72L124,60.56L124.17,66.34L124.28,58.8L124.45,60.39L124.51,60.47L124.68,62.5L124.79,56.06L125.02,60.64L125.07,56.57L125.92,67.12L125.97,64.94L126.03,59.04L126.54,63.66L126.93,60.8L126.99,61L127.04,61.48L127.21,57.56L127.27,55.99L127.49,53.55L127.72,58.6L127.89,58.39L127.94,58.97L128.96,61.84L129.02,60.54L130.48,77.47L130.82,75.27L130.87,72.15L131.04,68.2L131.16,72.87L131.21,74.56L131.27,77.3L131.61,67.65L131.78,69.63L131.83,67.09L132.73,73.84L132.79,71.57L132.85,66.34L132.96,64.48L133.02,65.5L133.07,68.13L133.35,70.77L133.47,61.65L133.8,67.07L133.86,67.5L134.14,66.49L134.37,71.18L134.65,68.54L134.71,65.57L135.44,71.18L135.49,67.67L135.55,65.21L136.51,73.98L136.56,74.01L137.24,65.62L137.35,67.04L137.41,66.25L137.86,68.64L137.92,64.7L137.97,61.8L138.87,66.34L138.93,66.78L138.99,65.23L139.44,68.83L139.55,68.59L139.61,69.99L140.45,75.65L140.51,73.33L140.56,73.89L141.13,67.09L141.47,70.45L141.52,70.48L141.69,73.38L141.92,68.47L142.2,72.27L142.25,69.49L142.59,71.86L142.93,65.81L143.04,67.6L143.1,69.44L143.33,61.6L143.89,62.57L143.94,62.88L144.11,65.21L144.17,64.53L144.23,59.43L144.4,63.01L144.73,54.61L144.9,57.25L144.96,55.07L145.52,65.04L145.58,65.71L145.75,64.46L146.59,74.93L146.82,74.08L146.87,74.42L147.44,67.09L147.72,70.55L147.78,70.82L148.79,76.16L148.85,74.18L148.9,74.61L149.02,69.63L149.13,70.33L149.18,70.48L149.35,67.07L149.8,69.68L149.86,70.86L150.37,76.38L150.42,74.25L150.48,72.46L150.71,69.85L151.78,83.73L151.83,80.71L152.34,77.73L152.56,79.6L152.62,80.3L152.68,80.44L152.73,82.5L152.79,83.61L152.85,79.16L153.35,80.22L153.41,80.61L153.69,81.31L153.86,74.23L154.2,78.12L154.25,78.48L154.31,76.31L154.65,78.77L154.93,77.85L154.99,79.3L155.33,85.33L155.61,79.04L155.66,80.83L155.72,78.12L156.4,83.54L156.45,79.3L156.56,79.43L156.62,80.71L157.92,92.41L157.97,89.05L158.37,92.36L158.54,88.25L158.59,88.3L158.65,84.19L158.99,80.08L159.38,84.82L159.44,86.39L159.55,86.95L159.61,83.66L159.72,84.67L159.78,80.71L160.4,84.87L160.56,84.72L160.62,84.04L160.68,85.21L161.07,81.29L161.3,83.27L161.35,82.28L161.41,82.55L161.47,79.98L161.52,76.48L162.42,89.29L162.59,85.16L162.65,85.3L162.93,83.8L163.44,88.57L163.49,86.12L163.78,89.39L163.89,88.16L163.95,86.39L164.17,85.76L164.68,89.92L164.79,88.47L164.85,88.66L165.18,85.69L165.64,86.2L165.69,86.73L166.87,96.86L166.93,96.91L166.99,97.71L167.38,94.15L167.55,95.17L167.61,95.36L168.56,99.3L168.62,95.46L168.68,97.06L169.02,89.51L169.07,87.31L169.13,84.63L169.75,88.3L169.8,87.79L169.86,88.45L169.92,86.73L170.37,90.67L170.54,90.09L170.59,90.89L170.76,85.16L171.33,88.35L171.38,89.92L171.44,90.67L171.49,86.7L172,88.42L172.06,85.69L172.51,88.11L172.56,85.67L172.62,83.75L173.75,91.66L173.8,90.07L174.14,92.15L174.2,94.15L175.16,100.51L175.21,98.51L175.49,89.07L176,93.89L176.06,94.08L176.62,97.78L176.85,97.22L176.9,95.36L177.3,88.33L177.75,91.95L177.8,91.98L178.87,98.43L178.93,96.84L179.44,92.68L179.83,94.15L179.89,94.32L180.34,98.99L180.73,96.28L180.79,96.35L181.24,99.45L181.3,100.63L181.35,102.04L181.52,95.48L181.97,98.39L182.03,99.84L182.2,100.85L182.26,97.47L182.65,99.74L182.71,96.89L182.82,95.97L183.27,99.5L183.33,96.77L184.23,99.86L184.28,98.17L184.96,101.21L185.13,100.22L185.18,98.8L185.52,101.99L185.97,99.98L186.03,99.98L186.26,101.53L186.54,99.21L186.65,99.47L186.71,97.78L186.99,100.05L187.1,97.56L187.55,99.35L187.61,99.59L188,101.6L188.28,100.47L188.34,97.68L188.51,95.63L189.18,98.7L189.24,98.72L189.58,100.2L189.64,98.05L189.69,98.36L189.75,97.66L190.42,101.87L190.48,102.57L190.59,101.02L191.27,104.09L191.33,102.54L192.17,104.55L192.23,102.45L192.28,99.57L192.9,104.31L192.96,103.63L194.31,108.11L194.37,107.31L194.42,104.99L194.59,104.72L195.38,109.58L195.44,106.87L195.95,109.99L196,106.83L196.11,107.53L196.17,105.95L196.79,109.95L196.96,108.32L197.02,107.19L197.13,107.58L197.18,105.11L197.24,101.63L198.48,107.41L198.54,108.08L198.93,109.51L199.1,104.43L199.38,106.32L199.44,106.37L199.49,106.63L199.55,104.46L199.61,104.72L199.66,102.21L200.9,111.64L200.96,108.45L201.02,106.29L201.41,107.5L201.47,104.82L201.92,107.5L201.97,108.06L202.31,108.37L202.59,102.93L202.82,104.62L202.88,104.99L203.1,106.46L203.33,105.74L203.38,103.46L204.9,112.94L205.41,112.75L205.47,112.9L205.52,111.95L206.03,115.17L206.09,115.7L206.2,115.94L206.26,115.46L206.31,115.6L206.37,113.35L206.54,112.94L207.16,115.19L207.21,112.46L207.78,113.77L207.83,112.41L207.95,111.11L208.51,112.85L208.57,114.83L208.73,113.48L209.35,116.84L209.58,116.6L209.64,116.67L210.31,120.15L210.42,118.6L210.48,116.79L210.54,119.06L211.1,113.14L211.16,113.23L211.72,115.99L211.89,113.81L211.95,113.81L212.85,116.45L212.9,115.02L212.96,115.24L213.52,117.18L213.58,117.42L213.8,115.8L215.27,122.38L215.33,122.42L215.66,124.14L215.72,122.4L216.85,126.05L216.9,123.12L217.52,125.04L217.75,124.62L217.8,123.51L218.71,125.4L218.76,123.61L219.16,123.2L220.06,126.95L220.11,126.95L220.68,129.58L221.13,129.34L221.19,129.34L221.41,128.9L221.92,131.98L221.97,130.36L222.03,128.57L222.59,130.26L222.65,128.42L222.71,128.45L223.21,131.11L223.33,128.74L223.38,127.12L224.73,132.56L224.79,132.56L225.19,129.39L225.58,130.77L225.64,130.79L225.86,130.11L226.48,131.69L226.54,130.16L226.71,130.72L227.04,128.69L227.1,128.71L227.27,128.52L228.4,131.98L228.45,132.58L230.03,137.51L230.09,136.81L230.31,137.44L230.42,136.84L230.48,135L231.5,138.92L231.55,139.06L231.83,139.35L231.89,137.61L232,136.35L232.51,138.34L232.57,138.34L232.62,138.58L232.73,139.23L233.02,136.72L233.24,137.47L233.3,137.47L234.42,139.81L234.48,139.81L235.04,140.3L235.1,138.53L235.38,137.97L236.34,141.84L236.4,140.1L237.52,142.74L237.8,142.28L237.86,140.61L238.14,138.51L238.59,140.2L238.65,140.22L240.11,145.16L240.17,145.57L240.62,146.49L240.68,144.04L240.9,144.55L240.96,142.66L241.13,142.71L241.19,141.17L241.3,140.92L241.58,141.82L241.64,142.01L241.75,141.19L242.31,142.52L242.37,140.92L244.17,144.62L244.23,143.29L245.81,146.1L245.92,145.13L245.97,145.13L246.31,145.74L246.37,144.65L246.99,146.12L247.04,146.39L247.95,148.47L248.17,148.03L248.23,145.86L249.19,147.77L249.24,147.77L250.26,151.32L250.31,150.33L251.72,152.6L251.78,151.44L252.4,151.85L252.45,152.39L252.62,152.92L252.68,150.57L253.13,152.17L253.19,152.17L253.97,152.99L254.03,153.18L254.76,154.15L254.82,152.19L255.61,152.82L255.66,149.97L255.89,148.86L256.34,150.14L256.4,150.55L256.57,149.99L256.85,151.01L256.9,148.95L258.26,150.89L258.31,149.51L260.51,153.45L260.57,152.44L261.64,154.39L261.69,154.78L263.55,159.11L263.61,159.11L263.72,157.92L264.34,158.36L264.4,158.63L266.31,160.97L266.37,160.97L267.21,162.23L267.27,161.31L267.55,161.79L267.61,160.97L268,161.75L268.06,160.68L269.07,161.84L269.13,160.25L274.88,167.24L274.93,167.24L276.17,167.98L276.23,168.01L277.19,169.02L277.24,169.05L278.59,171.44L278.65,171.47L279.95,172.41L280,172.41L280.79,172.92L280.85,173.55L282.99,174.78L283.04,174.78L287.55,177.71L287.61,177.71L289.92,178.21L289.97,178.58L291.04,179.16L291.1,179.16L292.68,179.76L292.74,179.93L294.65,180.68L294.71,180.87L296.96,181.55L297.02,181.84L305.02,186.24L305.07,186.24L306.14,186.65L306.2,186.65L309.24,188.13L309.3,188.37L311.95,189.02L312,189.19L312.96,189.63L313.02,190.04L313.92,190.79L313.97,190.91L319.72,191.66L319.78,191.85L322.48,193.01L322.54,193.11L326.43,193.86L326.48,193.89L329.81,194.54L329.86,194.71L339.27,196.4L339.33,196.57L344,197.32L344.06,197.49L348.06,198.24L348.12,198.26L352.28,198.87L352.34,199.08L354.88,199.54L354.93,199.54L359.72,200.2L359.78,200.44L363.95,200.95L364,201.26L370.54,202.93L370.59,203.07L371.55,203.53L371.61,203.53L375.95,204.19L376,204.31L377.75,204.4L377.81,204.4L381.69,204.99L381.75,204.99L395.27,207.65L395.33,207.65L399.21,208.4L399.27,208.47L404.34,209.17L404.4,209.24L411.83,209.94L411.89,210.06L417.02,210.81L417.07,210.86L418.99,211.13L419.05,211.13L424.23,211.68L424.29,212.07L429.75,212.82L429.81,212.89L436.57,213.62L436.62,213.84L448.29,214.59L448.34,214.63L461.69,215.34L461.75,215.41L465.3,215.65" style="vector-effect: non-scaling-stroke; fill: none; stroke: rgb(99, 110, 250); stroke-opacity: 1; stroke-width: 2px; opacity: 1;"/></g><g class="points"/><g class="text"/></g></g></g><g class="overplot"><g class="xy2" transform="translate(60,20)" clip-path="url(#clip46440dxy2plot)"><g class="scatterlayer mlayer"><g class="trace scatter tracebc7b13" style="stroke-miterlimit: 2; opacity: 1;"><g class="fills"/><g class="errorbars"/><g class="lines"><path class="js-line" d="M0,11.35L14.42,57.52L14.48,57.68L27.04,89.28L27.1,89.41L36.23,108.31L36.28,108.41L43.94,122.06L44,122.16L55.04,138.81L55.1,138.89L65.63,152L65.69,152.06L74.31,161.09L74.37,161.15L84,169.73L84.06,169.77L95.44,178.18L95.49,178.22L109.97,186.72L110.03,186.74L122.48,192.49L122.54,192.51L138.14,198.13L138.2,198.14L149.52,201.34L149.58,201.36L174.31,206.46L174.37,206.46L194.2,209.21L194.26,209.21L218.31,211.47L218.37,211.47L233.07,212.45L233.13,212.45L274.54,214.14L274.59,214.14L295.66,214.63L295.72,214.63L313.41,214.92L313.47,214.92L465.3,215.65" style="vector-effect: non-scaling-stroke; fill: none; stroke: rgb(239, 85, 59); stroke-opacity: 1; stroke-width: 2px; opacity: 1;"/></g><g class="points"/><g class="text"/></g></g></g></g><path class="xlines-above crisp" d="M0,0" style="fill: none;"/><path class="ylines-above crisp" d="M0,0" style="fill: none;"/><g class="overlines-above"><path class="xy2-x crisp" d="M0,0" style="fill: none;"/><path class="xy2-y crisp" d="M0,0" style="fill: none;"/></g><g class="xaxislayer-above"><g class="xtick"><text text-anchor="middle" x="0" y="260" transform="translate(60,0)" style="font-family: 'Open Sans', verdana, arial, sans-serif; font-size: 12px; fill: rgb(42, 63, 95); fill-opacity: 1; white-space: pre; opacity: 1;">0</text></g><g class="xtick"><text text-anchor="middle" x="0" y="260" style="font-family: 'Open Sans', verdana, arial, sans-serif; font-size: 12px; fill: rgb(42, 63, 95); fill-opacity: 1; white-space: pre; opacity: 1;" transform="translate(172.68,0)">2000</text></g><g class="xtick"><text text-anchor="middle" x="0" y="260" style="font-family: 'Open Sans', verdana, arial, sans-serif; font-size: 12px; fill: rgb(42, 63, 95); fill-opacity: 1; white-space: pre; opacity: 1;" transform="translate(285.35,0)">4000</text></g><g class="xtick"><text text-anchor="middle" x="0" y="260" style="font-family: 'Open Sans', verdana, arial, sans-serif; font-size: 12px; fill: rgb(42, 63, 95); fill-opacity: 1; white-space: pre; opacity: 1;" transform="translate(398.03,0)">6000</text></g><g class="xtick"><text text-anchor="middle" x="0" y="260" style="font-family: 'Open Sans', verdana, arial, sans-serif; font-size: 12px; fill: rgb(42, 63, 95); fill-opacity: 1; white-space: pre; opacity: 1;" transform="translate(510.71,0)">8000</text></g></g><g class="yaxislayer-above"><g class="ytick"><text text-anchor="end" x="59" y="4.199999999999999" transform="translate(0,245.75)" style="font-family: 'Open Sans', verdana, arial, sans-serif; font-size: 12px; fill: rgb(42, 63, 95); fill-opacity: 1; white-space: pre; opacity: 1;">60k</text></g><g class="ytick"><text text-anchor="end" x="59" y="4.199999999999999" style="font-family: 'Open Sans', verdana, arial, sans-serif; font-size: 12px; fill: rgb(42, 63, 95); fill-opacity: 1; white-space: pre; opacity: 1;" transform="translate(0,185.29)">65k</text></g><g class="ytick"><text text-anchor="end" x="59" y="4.199999999999999" style="font-family: 'Open Sans', verdana, arial, sans-serif; font-size: 12px; fill: rgb(42, 63, 95); fill-opacity: 1; white-space: pre; opacity: 1;" transform="translate(0,124.83)">70k</text></g><g class="ytick"><text text-anchor="end" x="59" y="4.199999999999999" style="font-family: 'Open Sans', verdana, arial, sans-serif; font-size: 12px; fill: rgb(42, 63, 95); fill-opacity: 1; white-space: pre; opacity: 1;" transform="translate(0,64.37)">75k</text></g></g><g class="overaxes-above"><g class="xy2-x"/><g class="xy2-y"><g class="y2tick"><text text-anchor="start" x="526.3" y="4.199999999999999" transform="translate(0,235.7)" style="font-family: 'Open Sans', verdana, arial, sans-serif; font-size: 12px; fill: rgb(42, 63, 95); fill-opacity: 1; white-space: pre; opacity: 1;">0</text></g><g class="y2tick"><text text-anchor="start" x="526.3" y="4.199999999999999" style="font-family: 'Open Sans', verdana, arial, sans-serif; font-size: 12px; fill: rgb(42, 63, 95); fill-opacity: 1; white-space: pre; opacity: 1;" transform="translate(0,184.61)">500</text></g><g class="y2tick"><text text-anchor="start" x="526.3" y="4.199999999999999" style="font-family: 'Open Sans', verdana, arial, sans-serif; font-size: 12px; fill: rgb(42, 63, 95); fill-opacity: 1; white-space: pre; opacity: 1;" transform="translate(0,133.53)">1000</text></g><g class="y2tick"><text text-anchor="start" x="526.3" y="4.199999999999999" style="font-family: 'Open Sans', verdana, arial, sans-serif; font-size: 12px; fill: rgb(42, 63, 95); fill-opacity: 1; white-space: pre; opacity: 1;" transform="translate(0,82.44)">1500</text></g><g class="y2tick"><text text-anchor="start" x="526.3" y="4.199999999999999" style="font-family: 'Open Sans', verdana, arial, sans-serif; font-size: 12px; fill: rgb(42, 63, 95); fill-opacity: 1; white-space: pre; opacity: 1;" transform="translate(0,31.35)">2000</text></g></g></g></g><g class="subplot xy2"/></g><g class="polarlayer"/><g class="smithlayer"/><g class="ternarylayer"/><g class="geolayer"/><g class="funnelarealayer"/><g class="pielayer"/><g class="iciclelayer"/><g class="treemaplayer"/><g class="sunburstlayer"/><g class="glimages"/><defs id="topdefs-46440d"><g class="clips"/><clipPath id="legend46440d"><rect width="123" height="48" x="0" y="0"/></clipPath></defs><g class="layer-above"><g class="imagelayer"/><g class="shapelayer"/></g><g class="infolayer"><g class="legend" pointer-events="all" transform="translate(564.9000000000001,20)"><rect class="bg" shape-rendering="crispEdges" width="123" height="48" x="0" y="0" style="stroke: rgb(68, 68, 68); stroke-opacity: 1; fill: rgb(255, 255, 255); fill-opacity: 1; stroke-width: 0px;"/><g class="scrollbox" transform="" clip-path="url(#legend46440d)"><g class="groups"><g class="traces" transform="translate(0,14.5)" style="opacity: 1;"><text class="legendtext" text-anchor="start" x="40" y="4.680000000000001" style="font-family: 'Open Sans', verdana, arial, sans-serif; font-size: 12px; fill: rgb(42, 63, 95); fill-opacity: 1; white-space: pre;">Cost</text><g class="layers" style="opacity: 1;"><g class="legendfill"/><g class="legendlines"><path class="js-line" d="M5,0h30" style="fill: none; stroke: rgb(99, 110, 250); stroke-opacity: 1; stroke-width: 2px;"/></g><g class="legendsymbols"><g class="legendpoints"/></g></g><rect class="legendtoggle" x="0" y="-9.5" width="117.265625" height="19" style="fill: rgb(0, 0, 0); fill-opacity: 0;"/></g><g class="traces" transform="translate(0,33.5)" style="opacity: 1;"><text class="legendtext" text-anchor="start" x="40" y="4.680000000000001" style="font-family: 'Open Sans', verdana, arial, sans-serif; font-size: 12px; fill: rgb(42, 63, 95); fill-opacity: 1; white-space: pre;">Temperature</text><g class="layers" style="opacity: 1;"><g class="legendfill"/><g class="legendlines"><path class="js-line" d="M5,0h30" style="fill: none; stroke: rgb(239, 85, 59); stroke-opacity: 1; stroke-width: 2px;"/></g><g class="legendsymbols"><g class="legendpoints"/></g></g><rect class="legendtoggle" x="0" y="-9.5" width="117.265625" height="19" style="fill: rgb(0, 0, 0); fill-opacity: 0;"/></g></g></g><rect class="scrollbar" rx="20" ry="3" width="0" height="0" x="0" y="0" style="fill: rgb(128, 139, 164); fill-opacity: 1;"/></g><g class="g-gtitle"/><g class="g-xtitle"><text class="xtitle" x="292.65" y="287.8" text-anchor="middle" style="font-family: 'Open Sans', verdana, arial, sans-serif; font-size: 14px; fill: rgb(42, 63, 95); opacity: 1; font-weight: normal; white-space: pre;">Iterations</text></g><g class="g-ytitle" transform="translate(2.1591796875,0)"><text class="ytitle" transform="rotate(-90,11.840625000000003,133.5)" x="11.840625000000003" y="133.5" text-anchor="middle" style="font-family: 'Open Sans', verdana, arial, sans-serif; font-size: 14px; fill: rgb(42, 63, 95); opacity: 1; font-weight: normal; white-space: pre;">Cost</text></g><g class="g-y2title"><text class="y2title" transform="rotate(-90,581.9875,133.5)" x="581.9875" y="133.5" text-anchor="middle" style="font-family: 'Open Sans', verdana, arial, sans-serif; font-size: 14px; fill: rgb(42, 63, 95); opacity: 1; font-weight: normal; white-space: pre;">Temperature</text></g></g></svg>