<svg class="main-svg" xmlns="http://www.w3.org/2000/svg" xmlns:xlink="http://www.w3.org/1999/xlink" width="700" height="300" style="" viewBox="0 0 700 300"><rect x="0" y="0" width="700" height="300" style="fill: rgb(255, 255, 255); fill-opacity: 1;"/><defs id="defs-249d55"><g class="clips"><clipPath id="clip249d55xyplot" class="plotclip"><rect width="455.9" height="227"/></clipPath><clipPath id="clip249d55xy2plot" class="plotclip"><rect width="455.9" height="227"/></clipPath><clipPath class="axesclip" id="clip249d55x"><rect x="70" y="0" width="455.9" height="300"/></clipPath><clipPath class="axesclip" id="clip249d55y"><rect x="0" y="20" width="700" height="227"/></clipPath><clipPath class="axesclip" id="clip249d55xy"><rect x="70" y="20" width="455.9" height="227"/></clipPath><clipPath class="axesclip" id="clip249d55y2"><rect x="0" y="20" width="700" height="227"/></clipPath><clipPath class="axesclip" id="clip249d55xy2"><rect x="70" y="20" width="455.9" height="227"/></clipPath></g><g class="gradients"/><g class="patterns"/></defs><g class="bglayer"><rect class="bg" x="70" y="20" width="455.9" height="227" style="fill: rgb(229, 236, 246); fill-opacity: 1; stroke-width: 0;"/></g><g class="layer-below"><g class="imagelayer"/><g class="shapelayer"/></g><g class="cartesianlayer"><g class="subplot xy"><g class="layer-subplot"><g class="shapelayer"/><g class="imagelayer"/></g><g class="gridlayer"><g class="x"><path class="xgrid crisp" transform="translate(170.99,0)" d="M0,20v227" style="stroke: rgb(255, 255, 255); stroke-opacity: 1; stroke-width: 1px;"/><path class="xgrid crisp" transform="translate(271.97,0)" d="M0,20v227" style="stroke: rgb(255, 255, 255); stroke-opacity: 1; stroke-width: 1px;"/><path class="xgrid crisp" transform="translate(372.96,0)" d="M0,20v227" style="stroke: rgb(255, 255, 255); stroke-opacity: 1; stroke-width: 1px;"/><path class="xgrid crisp" transform="translate(473.94,0)" d="M0,20v227" style="stroke: rgb(255, 255, 255); stroke-opacity: 1; stroke-width: 1px;"/></g><g class="y"><path class="ygrid crisp" transform="translate(0,244.26)" d="M70,0h455.9" style="stroke: rgb(255, 255, 255); stroke-opacity: 1; stroke-width: 1px;"/><path class="ygrid crisp" transform="translate(0,175.3)" d="M70,0h455.9" style="stroke: rgb(255, 255, 255); stroke-opacity: 1; stroke-width: 1px;"/><path class="ygrid crisp" transform="translate(0,106.35)" d="M70,0h455.9" style="stroke: rgb(255, 255, 255); stroke-opacity: 1; stroke-width: 1px;"/></g><g class="y2"><path class="y2grid crisp" transform="translate(0,184.59)" d="M70,0h455.9" style="stroke: rgb(255, 255, 255); stroke-opacity: 1; stroke-width: 1px;"/><path class="y2grid crisp" transform="translate(0,133.51)" d="M70,0h455.9" style="stroke: rgb(255, 255, 255); stroke-opacity: 1; stroke-width: 1px;"/><path class="y2grid crisp" transform="translate(0,82.43)" d="M70,0h455.9" style="stroke: rgb(255, 255, 255); stroke-opacity: 1; stroke-width: 1px;"/><path class="y2grid crisp" transform="translate(0,31.35)" d="M70,0h455.9" style="stroke: rgb(255, 255, 255); stroke-opacity: 1; stroke-width: 1px;"/></g></g><g class="zerolinelayer"><path class="xzl zl crisp" transform="translate(70,0)" d="M0,20v227" style="stroke: rgb(255, 255, 255); stroke-opacity: 1; stroke-width: 2px;"/><path class="yzl zl crisp" transform="translate(0,37.39)" d="M70,0h455.9" style="stroke: rgb(255, 255, 255); stroke-opacity: 1; stroke-width: 2px;"/><path class="y2zl zl crisp" transform="translate(0,235.67)" d="M70,0h455.9" style="stroke: rgb(255, 255, 255); stroke-opacity: 1; stroke-width: 2px;"/></g><path class="xlines-below"/><path class="ylines-below"/><g class="overlines-below"><path class="xy2-x"/><path class="xy2-y"/></g><g class="xaxislayer-below"/><g class="yaxislayer-below"/><g class="overaxes-below"><g class="xy2-x"/><g class="xy2-y"/></g><g class="plot" transform="translate(70,20)" clip-path="url(#clip249d55xyplot)"><g class="scatterlayer mlayer"><g class="trace scatter trace915135" style="stroke-miterlimit: 2; opacity: 1;"><g class="fills"/><g class="errorbars"/><g class="lines"><path class="js-line" d="M0,23.02L0.05,23.18L0.1,21.22L0.15,20.4L0.5,23.62L0.66,18.85L0.86,20.09L0.91,19.62L1.01,20.89L1.11,19.07L1.16,17.72L1.26,20.34L1.57,16.07L1.62,15.74L1.92,18.05L2.02,14.3L2.17,15.46L2.22,18.33L2.42,18.63L2.63,15.57L2.68,14.25L2.78,15.38L3.03,13.69L3.08,15.02L3.13,16.62L3.53,17.8L3.69,15.18L3.79,17L3.84,17.25L4.19,15.74L4.34,20.53L4.54,15.96L4.59,16.78L4.85,17L5.45,13.36L5.5,14.66L5.55,14L5.96,18.38L6.01,17.5L6.06,19.71L6.51,12.76L7.02,14.85L7.07,15.13L7.12,14.96L7.22,16.73L7.32,16.56L7.37,16.87L7.62,21.2L8.13,19.27L8.18,18.36L8.33,20.53L8.89,15.65L9.09,15.9L9.14,17.36L9.19,18.14L9.69,14.58L9.75,15.87L9.8,14.63L10,13.36L10.65,18.27L10.75,18.22L10.81,15.57L11.06,19.21L11.56,16.73L11.61,16.26L11.76,14.91L12.07,20.34L12.52,20.18L12.57,18.6L13.18,13.58L13.43,15.96L13.48,16.59L14.14,21.22L14.24,16.84L14.29,16.98L14.44,18.85L14.74,14.25L14.79,14.88L14.84,14.03L15.1,16.26L15.35,12.54L15.45,13L15.5,12.56L15.75,13.31L15.8,15.13L16.11,21.33L16.46,17.14L16.51,16.92L16.71,13.31L17.17,17.89L17.22,18.71L17.42,18.27L17.52,20.09L17.57,20.4L17.67,21.22L18.08,17.69L18.13,17.25L18.28,17.72L18.53,13.64L18.63,17.11L18.68,17.28L18.78,16.62L18.99,19.98L19.39,18.55L19.44,17.31L19.59,17.8L19.74,15.85L19.79,15.71L20.2,15.02L20.6,17.89L20.65,17.03L20.8,14.44L21.31,18.11L21.41,16.23L21.46,16.78L21.71,20.18L22.17,16.34L22.22,17.69L22.27,17.75L22.67,21.22L23.02,19.65L23.08,19.07L23.73,12.65L23.88,15.63L23.93,17L24.24,19.35L24.44,16.04L24.49,15.51L24.69,13.83L25.09,18.05L25.3,16.76L25.35,16.98L25.45,14.05L25.85,19.05L26.1,16.45L26.16,15.27L26.91,20.73L27.01,19.24L27.06,19.6L27.17,20.09L27.37,17.69L27.42,17.39L28.38,12.21L28.43,13.8L28.63,11.35L28.98,15.02L29.03,13.34L29.08,12.56L30.04,18.94L30.14,17.8L30.19,16.98L30.75,22.91L31.1,21.33L31.15,20.2L31.31,17.47L31.66,22.47L31.81,20.65L31.86,20.23L32.06,21.2L32.32,20.12L32.47,20.18L32.52,19.18L32.62,18.25L33.02,21.36L33.07,20.45L33.12,21.17L33.33,22.63L33.68,20.56L33.88,22.24L33.93,21.14L34.03,19.54L34.54,21.5L34.69,20.45L34.74,21.28L34.84,23.07L35.34,18.47L35.4,17.58L35.6,18.8L36.2,14.85L36.3,16.09L36.35,16.62L37.36,20.76L37.42,19.05L38.32,21.39L38.37,21.11L38.43,21.25L38.48,20.29L38.53,19.13L38.63,19.38L39.38,15.38L39.54,15.96L39.59,17.8L39.84,20.07L39.89,17.53L39.94,16.2L40.14,17.31L40.44,14.49L40.5,15.32L40.55,15.02L40.6,14.27L41.1,16.98L41.15,16.78L41.2,17.22L41.3,17.11L41.86,22.82L42.51,22.6L42.57,22.93L42.82,19.1L43.47,19.62L43.52,20.56L43.73,18.74L44.33,23.24L44.38,21.67L44.43,21.67L45.19,14.63L45.34,16.34L45.39,16.89L45.54,16.78L45.7,17.36L45.75,18.49L45.9,19.76L46.35,16.56L46.4,16.56L47.72,22.52L47.77,21.86L47.82,21.39L48.62,24.51L48.83,24.04L48.88,23.43L48.93,24.23L49.28,21.03L49.38,21.17L49.43,19.02L49.53,18.02L49.94,23.1L50.24,21.58L50.29,20.48L50.39,22.69L50.8,18.8L50.85,18.38L51.1,17.28L51.35,17.94L51.4,18.33L51.86,17.34L52.06,20.98L52.11,22.24L52.87,18.99L52.92,19.87L52.97,20.04L53.02,19.71L53.42,21.53L53.47,22.08L53.88,21.22L54.08,22.69L54.23,21.89L54.28,22.22L54.53,24.23L54.84,21.5L54.89,20.76L54.99,19.29L55.14,21.25L55.34,20.92L55.39,23.07L55.79,25.5L56.05,22.08L56.1,21.78L56.3,21.69L56.55,23.62L56.7,23.07L56.75,21.58L57.26,26.88L57.61,23.57L57.66,22.88L58.07,21.31L58.32,22.85L58.37,23.76L58.82,23.93L59.08,20.56L59.18,21.61L59.23,22.16L59.33,20.59L59.73,25.69L59.78,26.13L60.29,29.83L60.54,27.95L60.59,26.85L60.94,25.36L61.15,27.68L61.25,27.32L61.3,27.6L61.75,25.91L62.11,26.58L62.16,26.49L62.56,27.02L62.61,25.42L62.66,25.53L62.71,24.98L62.76,25.33L63.27,23.98L63.32,23.6L63.52,23.04L64.28,28.15L64.33,27.6L64.63,30.6L64.83,26L65.03,28.06L65.09,27.24L65.84,30.63L65.94,29.33L65.99,28.29L66.25,26.63L66.4,29.06L66.45,29.55L66.5,30.11L66.75,26.82L66.85,27.07L66.9,25.64L67.11,24.62L67.51,27.54L67.56,27.65L68.37,31.68L68.72,30.55L68.77,29.86L69.33,31.37L69.58,31.02L69.63,30.52L69.83,30.8L70.03,28.29L70.39,30.05L70.44,30.49L70.59,29.36L70.84,31.79L71.04,30.96L71.09,31.29L71.14,31.73L71.55,29.66L71.7,30.33L71.75,29.75L71.9,29.2L72.51,31.9L72.61,31.4L72.66,29.17L72.81,28.26L73.67,32.75L73.72,31.79L74.12,28.4L74.53,30.19L74.58,29.44L74.63,28.45L74.93,31.98L75.18,31.82L75.23,31.84L75.39,31.79L75.94,33.69L75.99,32.89L76.04,31.71L76.19,32.09L76.29,30.55L76.45,31.37L76.5,30.13L76.85,31.46L76.95,29.55L77.1,30.44L77.15,31.15L77.36,32.01L77.56,29.5L77.86,30.96L77.91,30.74L77.96,31.1L78.31,28.53L78.42,29.06L78.47,29.2L78.62,28.01L79.22,30.27L79.32,30.11L79.37,29.36L80.03,31.73L80.28,30.88L80.33,30.3L80.49,30.46L80.74,29L80.94,30.24L80.99,31.24L81.09,30.96L81.24,32.45L81.29,33.03L82.05,35.24L82.25,34.38L82.3,33.64L82.86,35.32L83.01,33.06L83.06,32.86L83.16,31.1L83.46,32.78L83.52,33.19L83.67,33.64L83.77,32.37L83.92,33.06L83.97,32.26L84.73,36.01L84.78,35.29L84.83,34.08L86.44,41.66L86.6,40.31L86.65,38.96L86.95,37.47L87.3,38.85L87.35,39.37L88.51,33.06L88.56,33.19L88.97,34.27L89.02,33.22L90.53,39.87L90.69,38.93L90.74,38.02L91.7,40.89L91.95,40.28L92,39.84L92.25,40.28L92.4,38.82L92.6,39.46L92.65,39.07L93.01,38.08L93.51,41.14L93.56,40.01L93.77,43.01L94.37,42.02L94.42,42.16L94.57,41.39L94.83,42.79L95.18,41.47L95.23,41.8L95.89,42.71L96.04,39.73L96.09,39.9L96.14,39.98L96.29,39.51L96.64,41.41L96.9,40.01L96.95,38.9L97.35,40.56L97.5,38.35L97.6,38.63L97.65,37.88L97.91,35.65L98.36,38.02L98.41,38.82L98.51,37.72L99.52,42.32L99.87,41.17L99.93,41.28L99.98,39.95L100.48,42.38L100.63,41.55L100.68,41.8L100.78,41.64L101.89,47.18L102,46.6L102.05,45.41L102.85,48.34L102.95,47.43L103.01,47.65L103.36,47.87L103.61,45.44L103.86,46.27L103.91,46.71L104.17,47.37L104.27,46.24L104.37,46.46L104.42,45.47L104.87,43.95L105.13,45.47L105.18,45.5L105.33,46.6L105.58,43.51L105.78,44.42L105.83,44.59L106.03,44.75L106.74,42.05L106.79,42.19L107.15,41.33L107.45,42.74L107.5,42.82L107.65,43.07L107.8,42.05L107.85,41.64L109.01,44.31L109.06,44.37L109.22,44.06L110.28,48.23L110.33,47.34L110.38,47.07L110.58,46.35L110.68,47.21L110.88,47.01L110.93,47.57L111.59,50.05L111.79,48.75L111.84,47.4L112.45,48.56L112.5,47.45L112.55,46.93L113.05,49.16L113.26,48.09L113.31,47.65L114.42,50.38L114.47,49.74L114.52,49.33L115.02,50.79L115.07,51.15L115.43,52.14L115.93,51.45L115.98,51.21L117.45,55.15L117.5,54.27L117.75,52.61L118.41,54.87L118.46,53.8L119.01,54.68L119.06,53.25L119.11,53.03L119.57,53.61L119.77,52.17L119.92,52.56L119.97,53.14L120.12,54.02L120.27,52.09L120.32,52.2L120.37,52.12L121.44,55.81L121.49,55.95L121.69,56.53L122.04,54.63L122.09,54.76L122.85,53.33L122.9,53.55L122.95,53.69L123.3,54.24L123.35,53.36L123.46,53.8L123.51,53.16L123.76,53.77L123.96,51.95L124.01,51.76L124.11,52.28L124.31,50.16L124.36,49.5L125.37,51.45L125.42,51.48L126.18,53.66L126.23,53.88L128.05,58.35L128.1,57.69L128.15,58.07L128.55,56.31L128.61,55.73L129.31,57.99L129.51,56.5L129.56,56.53L129.97,55.59L130.27,56.92L130.37,56.83L130.42,55.95L130.47,55.23L131.03,57.05L131.08,57.49L131.43,56.34L131.79,57.77L131.84,57.96L131.94,57.38L132.29,58.93L132.34,59.65L132.44,58.93L132.9,60.69L132.95,60.8L133,60.34L133.35,61.41L133.65,61L133.71,61.22L133.76,60.5L134.41,61.96L134.46,62.21L134.56,61.71L134.97,62.79L135.12,62.65L135.17,62.74L135.67,63.76L135.72,62.87L135.78,62.07L136.23,61.14L136.63,63.09L136.68,62.29L138,65.36L138.05,64.78L138.1,63.76L138.86,62.43L138.91,62.71L138.96,62.79L139.46,64.69L139.51,65.33L139.61,65.52L139.71,64.5L139.97,64.8L140.02,64.17L140.17,64.58L140.22,63.62L140.27,62.68L140.57,62.29L141.08,63.54L141.13,63.07L142.04,64.36L142.09,64.61L143.55,67.56L143.6,66.68L144.06,67.12L144.21,66.79L144.26,66.21L145.42,68.69L145.47,67.92L146.48,70.24L146.53,70.46L146.63,70.68L146.78,69.22L146.83,68.75L147.64,70.82L147.69,70.1L147.74,70.15L148.2,68.75L148.5,69.52L148.55,69.55L148.65,68.72L149.16,70.18L149.31,68.94L149.36,69.11L149.96,68L150.17,68.67L150.22,69.16L150.42,68.69L151.93,72.55L151.98,71.73L152.13,71.78L152.39,70.35L152.74,71.48L152.79,71.62L153.04,72.31L153.2,71.01L153.25,71.31L153.3,70.38L153.8,67.64L154.31,68.64L154.36,68.69L154.51,69.13L154.66,66.54L154.81,66.87L154.86,66.93L156.83,70.07L156.98,69.82L157.03,68.94L157.89,70.93L157.94,70.1L157.99,69L158.45,69.47L158.5,68.69L158.75,69.16L158.8,68.39L159.1,67.92L159.66,68.91L159.71,68.94L160.57,70.68L160.77,70.27L160.82,70.02L162.08,72.2L162.13,71.7L162.23,71.95L162.28,71.15L162.49,71.23L162.54,70.46L163.8,73.49L163.85,73.88L164.05,74.13L164.1,73.55L164.15,73.52L164.2,72.53L168.24,78.4L168.29,78.79L171.12,83.48L171.37,83.06L171.42,82.7L172.99,86.48L173.04,85.82L173.29,85.19L173.85,86.9L173.9,86.04L175.41,87.86L175.46,86.79L176.47,87.81L176.52,87.56L176.57,86.9L177.63,89.02L177.79,88.47L177.84,88.11L179.3,91.64L179.35,91.01L179.4,91.01L180.61,92.05L180.66,92.17L182.03,94.98L182.08,94.65L182.13,94.73L182.38,94.29L182.99,95.28L183.04,94.79L184.25,96.33L184.3,95.94L184.55,94.81L184.9,95.7L184.96,95.86L185.36,96.69L185.71,95.81L185.76,95.86L185.91,95.59L186.57,96.05L186.62,95.48L186.98,95.94L187.18,95.45L187.23,95.17L189.3,97.71L189.35,97.74L190.76,99.61L190.81,99.7L190.86,99.86L190.91,99.01L191.37,99.06L191.42,99.12L192.33,101.65L192.53,100.85L192.58,101.02L193.03,101.79L193.08,101.9L193.74,102.4L193.79,102.7L194.9,103.45L194.95,102.67L195.91,104.41L196.01,103.89L196.06,103.42L196.27,103.31L197.73,105.63L197.78,104.85L198.89,106.31L198.94,106.09L198.99,105.82L200.31,107.5L200.36,106.76L202.58,109.02L202.63,108.19L204.5,110.51L204.55,110.56L204.6,109.79L205.2,111.22L205.25,111.39L206.82,113.68L206.87,112.99L206.92,112.16L207.63,112.77L207.68,112.33L209.04,113.57L209.09,112.93L210.71,115.86L210.76,115.86L210.91,116.22L211.06,114.2L211.16,114.53L211.21,114.56L212.32,116.11L212.57,115.69L212.63,115.14L213.74,116.96L213.79,116.55L213.84,116.05L215,118.29L215.05,117.49L219.8,123.28L219.85,122.67L220.15,123.39L220.3,122.4L220.6,122.75L220.65,122.78L221.01,122.51L225.2,128.22L225.25,127.86L226.41,128.77L226.46,128.9L226.71,128.85L227.02,129.18L227.07,129.37L228.13,129.98L228.18,129.57L229.79,130.89L229.84,130.31L231.26,131.58L231.31,131.72L232.42,133.37L232.47,133.43L232.82,133.01L233.33,133.4L233.38,133.4L233.83,133.92L234.19,133.73L234.24,133.73L235.45,134.95L235.5,135.11L236.51,136.27L236.56,136.32L239.03,138.86L239.08,139.05L239.29,138.78L240.3,139.88L240.35,139.88L241.51,140.63L241.56,140.68L243.33,141.56L243.38,141.79L245.14,143.3L245.19,142.47L247.01,143.66L247.06,143.69L248.88,145.78L248.93,146.01L253.98,152.49L254.03,152.6L255.24,153.62L255.29,153.62L256.45,154.61L256.5,154.86L259.68,156.98L259.74,157.01L261,157.81L261.05,158.17L265.95,161.31L266,161.31L267.26,162.61L267.31,162.61L268.67,163.35L268.72,163.69L272.91,166.61L272.96,166.66L274.68,167.13L274.73,167.49L276.4,168.46L276.45,168.71L278.11,169.45L278.17,169.78L279.53,170.75L279.58,170.88L282.86,172.21L282.91,172.35L284.58,172.93L284.63,172.93L288.36,174.77L288.42,174.77L299.93,179.24L299.98,179.24L305.28,181.26L305.33,181.26L309.52,182.66L309.57,182.66L316.79,185.67L316.84,185.67L319.01,186.8L319.06,186.88L321.24,187.57L321.29,187.71L322.4,188.04L322.45,188.04L331.54,191.98L331.59,192.29L335.02,192.92L335.07,193.12L341.53,194.49L341.58,194.49L342.59,194.85L342.64,194.85L345.88,195.6L345.93,195.63L348.7,196.2L348.75,196.48L351.63,197.2L351.68,197.25L354.21,197.91L354.26,197.91L378.8,202.96L378.85,203.05L383.24,203.73L383.29,203.73L384.55,204.45L384.6,204.45L387.63,205.14L387.68,205.22L389.4,205.33L389.45,205.33L417.53,210.38L417.58,210.38L423.79,211.13L423.84,211.15L427.57,211.84L427.62,211.95L430.7,212.7L430.75,212.81L437.22,213.5L437.27,213.58L438.28,213.72L438.33,213.72L445.6,214.46L445.65,214.52L451.86,215.26L451.91,215.29L455.9,215.65" style="vector-effect: non-scaling-stroke; fill: none; stroke: rgb(99, 110, 250); stroke-opacity: 1; stroke-width: 2px; opacity: 1;"/></g><g class="points"/><g class="text"/></g></g></g><g class="overplot"><g class="xy2" transform="translate(70,20)" clip-path="url(#clip249d55xy2plot)"><g class="scatterlayer mlayer"><g class="trace scatter tracefb0363" style="stroke-miterlimit: 2; opacity: 1;"><g class="fills"/><g class="errorbars"/><g class="lines"><path class="js-line" d="M0,11.35L9.69,47.06L9.75,47.23L17.98,72.58L18.03,72.72L26.1,93.87L26.16,93.99L35.7,114.95L35.75,115.05L42.97,128.47L43.02,128.55L50.75,140.92L50.8,140.99L59.99,153.43L60.04,153.49L71.55,166.17L71.6,166.22L81.39,174.95L81.44,174.99L96.74,185.63L96.79,185.66L112.45,193.66L112.5,193.68L123.46,197.98L123.51,197.99L133.45,201.16L133.5,201.17L155.37,206.27L155.42,206.28L173.19,209.07L173.24,209.07L198.18,211.65L198.23,211.65L249.64,214.22L249.69,214.22L267.41,214.65L267.46,214.65L282.76,214.92L282.81,214.92L455.9,215.65" style="vector-effect: non-scaling-stroke; fill: none; stroke: rgb(239, 85, 59); stroke-opacity: 1; stroke-width: 2px; opacity: 1;"/></g><g class="points"/><g class="text"/></g></g></g></g><path class="xlines-above crisp" d="M0,0" style="fill: none;"/><path class="ylines-above crisp" d="M0,0" style="fill: none;"/><g class="overlines-above"><path class="xy2-x crisp" d="M0,0" style="fill: none;"/><path class="xy2-y crisp" d="M0,0" style="fill: none;"/></g><g class="xaxislayer-above"><g class="xtick"><text text-anchor="middle" x="0" y="260" transform="translate(70,0)" style="font-family: 'Open Sans', verdana, arial, sans-serif; font-size: 12px; fill: rgb(42, 63, 95); fill-opacity: 1; white-space: pre; opacity: 1;">0</text></g><g class="xtick"><text text-anchor="middle" x="0" y="260" style="font-family: 'Open Sans', verdana, arial, sans-serif; font-size: 12px; fill: rgb(42, 63, 95); fill-opacity: 1; white-space: pre; opacity: 1;" transform="translate(170.99,0)">2000</text></g><g class="xtick"><text text-anchor="middle" x="0" y="260" style="font-family: 'Open Sans', verdana, arial, sans-serif; font-size: 12px; fill: rgb(42, 63, 95); fill-opacity: 1; white-space: pre; opacity: 1;" transform="translate(271.97,0)">4000</text></g><g class="xtick"><text text-anchor="middle" x="0" y="260" style="font-family: 'Open Sans', verdana, arial, sans-serif; font-size: 12px; fill: rgb(42, 63, 95); fill-opacity: 1; white-space: pre; opacity: 1;" transform="translate(372.96,0)">6000</text></g><g class="xtick"><text text-anchor="middle" x="0" y="260" style="font-family: 'Open Sans', verdana, arial, sans-serif; font-size: 12px; fill: rgb(42, 63, 95); fill-opacity: 1; white-space: pre; opacity: 1;" transform="translate(473.94,0)">8000</text></g></g><g class="yaxislayer-above"><g class="ytick"><text text-anchor="end" x="69" y="4.199999999999999" transform="translate(0,244.26)" style="font-family: 'Open Sans', verdana, arial, sans-serif; font-size: 12px; fill: rgb(42, 63, 95); fill-opacity: 1; white-space: pre; opacity: 1;">−15k</text></g><g class="ytick"><text text-anchor="end" x="69" y="4.199999999999999" style="font-family: 'Open Sans', verdana, arial, sans-serif; font-size: 12px; fill: rgb(42, 63, 95); fill-opacity: 1; white-space: pre; opacity: 1;" transform="translate(0,175.3)">−10k</text></g><g class="ytick"><text text-anchor="end" x="69" y="4.199999999999999" style="font-family: 'Open Sans', verdana, arial, sans-serif; font-size: 12px; fill: rgb(42, 63, 95); fill-opacity: 1; white-space: pre; opacity: 1;" transform="translate(0,106.35)">−5k</text></g><g class="ytick"><text text-anchor="end" x="69" y="4.199999999999999" style="font-family: 'Open Sans', verdana, arial, sans-serif; font-size: 12px; fill: rgb(42, 63, 95); fill-opacity: 1; white-space: pre; opacity: 1;" transform="translate(0,37.39)">0</text></g></g><g class="overaxes-above"><g class="xy2-x"/><g class="xy2-y"><g class="y2tick"><text text-anchor="start" x="526.9" y="4.199999999999999" transform="translate(0,235.67)" style="font-family: 'Open Sans', verdana, arial, sans-serif; font-size: 12px; fill: rgb(42, 63, 95); fill-opacity: 1; white-space: pre; opacity: 1;">0</text></g><g class="y2tick"><text text-anchor="start" x="526.9" y="4.199999999999999" style="font-family: 'Open Sans', verdana, arial, sans-serif; font-size: 12px; fill: rgb(42, 63, 95); fill-opacity: 1; white-space: pre; opacity: 1;" transform="translate(0,184.59)">500</text></g><g class="y2tick"><text text-anchor="start" x="526.9" y="4.199999999999999" style="font-family: 'Open Sans', verdana, arial, sans-serif; font-size: 12px; fill: rgb(42, 63, 95); fill-opacity: 1; white-space: pre; opacity: 1;" transform="translate(0,133.51)">1000</text></g><g class="y2tick"><text text-anchor="start" x="526.9" y="4.199999999999999" style="font-family: 'Open Sans', verdana, arial, sans-serif; font-size: 12px; fill: rgb(42, 63, 95); fill-opacity: 1; white-space: pre; opacity: 1;" transform="translate(0,82.43)">1500</text></g><g class="y2tick"><text text-anchor="start" x="526.9" y="4.199999999999999" style="font-family: 'Open Sans', verdana, arial, sans-serif; font-size: 12px; fill: rgb(42, 63, 95); fill-opacity: 1; white-space: pre; opacity: 1;" transform="translate(0,31.35)">2000</text></g></g></g></g><g class="subplot xy2"/></g><g class="polarlayer"/><g class="smithlayer"/><g class="ternarylayer"/><g class="geolayer"/><g class="funnelarealayer"/><g class="pielayer"/><g class="iciclelayer"/><g class="treemaplayer"/><g class="sunburstlayer"/><g class="glimages"/><defs id="topdefs-249d55"><g class="clips"/><clipPath id="legend249d55"><rect width="123" height="48" x="0" y="0"/></clipPath></defs><g class="layer-above"><g class="imagelayer"/><g class="shapelayer"/></g><g class="infolayer"><g class="legend" pointer-events="all" transform="translate(564.7,20)"><rect class="bg" shape-rendering="crispEdges" width="123" height="48" x="0" y="0" style="stroke: rgb(68, 68, 68); stroke-opacity: 1; fill: rgb(255, 255, 255); fill-opacity: 1; stroke-width: 0px;"/><g class="scrollbox" transform="" clip-path="url(#legend249d55)"><g class="groups"><g class="traces" transform="translate(0,14.5)" style="opacity: 1;"><text class="legendtext" text-anchor="start" x="40" y="4.680000000000001" style="font-family: 'Open Sans', verdana, arial, sans-serif; font-size: 12px; fill: rgb(42, 63, 95); fill-opacity: 1; white-space: pre;">Cost</text><g class="layers" style="opacity: 1;"><g class="legendfill"/><g class="legendlines"><path class="js-line" d="M5,0h30" style="fill: none; stroke: rgb(99, 110, 250); stroke-opacity: 1; stroke-width: 2px;"/></g><g class="legendsymbols"><g class="legendpoints"/></g></g><rect class="legendtoggle" x="0" y="-9.5" width="117.265625" height="19" style="fill: rgb(0, 0, 0); fill-opacity: 0;"/></g><g class="traces" transform="translate(0,33.5)" style="opacity: 1;"><text class="legendtext" text-anchor="start" x="40" y="4.680000000000001" style="font-family: 'Open Sans', verdana, arial, sans-serif; font-size: 12px; fill: rgb(42, 63, 95); fill-opacity: 1; white-space: pre;">Temperature</text><g class="layers" style="opacity: 1;"><g class="legendfill"/><g class="legendlines"><path class="js-line" d="M5,0h30" style="fill: none; stroke: rgb(239, 85, 59); stroke-opacity: 1; stroke-width: 2px;"/></g><g class="legendsymbols"><g class="legendpoints"/></g></g><rect class="legendtoggle" x="0" y="-9.5" width="117.265625" height="19" style="fill: rgb(0, 0, 0); fill-opacity: 0;"/></g></g></g><rect class="scrollbar" rx="20" ry="3" width="0" height="0" x="0" y="0" style="fill: rgb(128, 139, 164); fill-opacity: 1;"/></g><g class="g-gtitle"/><g class="g-xtitle"><text class="xtitle" x="297.95" y="287.8" text-anchor="middle" style="font-family: 'Open Sans', verdana, arial, sans-serif; font-size: 14px; fill: rgb(42, 63, 95); opacity: 1; font-weight: normal; white-space: pre;">Iterations</text></g><g class="g-ytitle" transform="translate(1.9873046875,0)"><text class="ytitle" transform="rotate(-90,12.012500000000003,133.5)" x="12.012500000000003" y="133.5" text-anchor="middle" style="font-family: 'Open Sans', verdana, arial, sans-serif; font-size: 14px; fill: rgb(42, 63, 95); opacity: 1; font-weight: normal; white-space: pre;">Cost</text></g><g class="g-y2title"><text class="y2title" transform="rotate(-90,582.596875,133.5)" x="582.596875" y="133.5" text-anchor="middle" style="font-family: 'Open Sans', verdana, arial, sans-serif; font-size: 14px; fill: rgb(42, 63, 95); opacity: 1; font-weight: normal; white-space: pre;">Temperature</text></g></g></svg>