<svg class="main-svg" xmlns="http://www.w3.org/2000/svg" xmlns:xlink="http://www.w3.org/1999/xlink" width="700" height="300" style="" viewBox="0 0 700 300"><rect x="0" y="0" width="700" height="300" style="fill: rgb(255, 255, 255); fill-opacity: 1;"/><defs id="defs-8e9d0e"><g class="clips"><clipPath id="clip8e9d0exyplot" class="plotclip"><rect width="448.38" height="227"/></clipPath><clipPath id="clip8e9d0exy2plot" class="plotclip"><rect width="448.38" height="227"/></clipPath><clipPath class="axesclip" id="clip8e9d0ex"><rect x="78" y="0" width="448.38" height="300"/></clipPath><clipPath class="axesclip" id="clip8e9d0ey"><rect x="0" y="20" width="700" height="227"/></clipPath><clipPath class="axesclip" id="clip8e9d0exy"><rect x="78" y="20" width="448.38" height="227"/></clipPath><clipPath class="axesclip" id="clip8e9d0ey2"><rect x="0" y="20" width="700" height="227"/></clipPath><clipPath class="axesclip" id="clip8e9d0exy2"><rect x="78" y="20" width="448.38" height="227"/></clipPath></g><g class="gradients"/><g class="patterns"/></defs><g class="bglayer"><rect class="bg" x="78" y="20" width="448.38" height="227" style="fill: rgb(229, 236, 246); fill-opacity: 1; stroke-width: 0;"/></g><g class="layer-below"><g class="imagelayer"/><g class="shapelayer"/></g><g class="cartesianlayer"><g class="subplot xy"><g class="layer-subplot"><g class="shapelayer"/><g class="imagelayer"/></g><g class="gridlayer"><g class="x"><path class="xgrid crisp" transform="translate(159.39,0)" d="M0,20v227" style="stroke: rgb(255, 255, 255); stroke-opacity: 1; stroke-width: 1px;"/><path class="xgrid crisp" transform="translate(240.78,0)" d="M0,20v227" style="stroke: rgb(255, 255, 255); stroke-opacity: 1; stroke-width: 1px;"/><path class="xgrid crisp" transform="translate(322.16999999999996,0)" d="M0,20v227" style="stroke: rgb(255, 255, 255); stroke-opacity: 1; stroke-width: 1px;"/><path class="xgrid crisp" transform="translate(403.56,0)" d="M0,20v227" style="stroke: rgb(255, 255, 255); stroke-opacity: 1; stroke-width: 1px;"/><path class="xgrid crisp" transform="translate(484.95,0)" d="M0,20v227" style="stroke: rgb(255, 255, 255); stroke-opacity: 1; stroke-width: 1px;"/></g><g class="y"><path class="ygrid crisp" transform="translate(0,238.96)" d="M78,0h448.38" style="stroke: rgb(255, 255, 255); stroke-opacity: 1; stroke-width: 1px;"/><path class="ygrid crisp" transform="translate(0,171.49)" d="M78,0h448.38" style="stroke: rgb(255, 255, 255); stroke-opacity: 1; stroke-width: 1px;"/><path class="ygrid crisp" transform="translate(0,104.02)" d="M78,0h448.38" style="stroke: rgb(255, 255, 255); stroke-opacity: 1; stroke-width: 1px;"/></g><g class="y2"><path class="y2grid crisp" transform="translate(0,184.58)" d="M78,0h448.38" style="stroke: rgb(255, 255, 255); stroke-opacity: 1; stroke-width: 1px;"/><path class="y2grid crisp" transform="translate(0,133.5)" d="M78,0h448.38" style="stroke: rgb(255, 255, 255); stroke-opacity: 1; stroke-width: 1px;"/><path class="y2grid crisp" transform="translate(0,82.43)" d="M78,0h448.38" style="stroke: rgb(255, 255, 255); stroke-opacity: 1; stroke-width: 1px;"/><path class="y2grid crisp" transform="translate(0,31.35)" d="M78,0h448.38" style="stroke: rgb(255, 255, 255); stroke-opacity: 1; stroke-width: 1px;"/></g></g><g class="zerolinelayer"><path class="xzl zl crisp" transform="translate(78,0)" d="M0,20v227" style="stroke: rgb(255, 255, 255); stroke-opacity: 1; stroke-width: 2px;"/><path class="yzl zl crisp" transform="translate(0,36.55)" d="M78,0h448.38" style="stroke: rgb(255, 255, 255); stroke-opacity: 1; stroke-width: 2px;"/><path class="y2zl zl crisp" transform="translate(0,235.65)" d="M78,0h448.38" style="stroke: rgb(255, 255, 255); stroke-opacity: 1; stroke-width: 2px;"/></g><path class="xlines-below"/><path class="ylines-below"/><g class="overlines-below"><path class="xy2-x"/><path class="xy2-y"/></g><g class="xaxislayer-below"/><g class="yaxislayer-below"/><g class="overaxes-below"><g class="xy2-x"/><g class="xy2-y"/></g><g class="plot" transform="translate(78,20)" clip-path="url(#clip8e9d0exyplot)"><g class="scatterlayer mlayer"><g class="trace scatter tracecc170a" style="stroke-miterlimit: 2; opacity: 1;"><g class="fills"/><g class="errorbars"/><g class="lines"><path class="js-line" d="M0,16.01L0.24,19.72L0.49,14.39L0.73,16.82L0.81,17.56L0.9,17.35L0.98,14.93L1.06,14.59L1.3,15.74L1.38,16.82L1.55,22.82L1.71,13.1L1.95,14.79L2.03,14.79L2.36,14.72L2.77,19.51L2.93,19.04L3.01,18.23L3.17,14.39L3.26,14.45L3.34,13.04L3.99,21.74L4.07,17.29L4.15,14.25L4.48,18.64L4.88,15.33L4.96,13.51L5.86,19.04L5.94,17.22L6.19,12.63L6.84,20.66L6.92,18.57L7.49,19.24L7.73,14.99L7.81,18.97L7.98,18.37L8.06,23.43L8.3,20.93L8.38,18.84L8.87,25.79L9.12,22.48L9.2,18.37L9.77,11.35L9.93,16.21L10.01,16.68L10.26,24.71L10.74,20.46L10.82,16.48L10.99,18.64L11.07,19.85L11.15,21.94L11.39,18.16L11.8,20.46L11.88,19.45L12.05,22.35L12.21,18.03L12.62,19.92L12.7,21.34L12.86,22.08L13.02,19.99L13.1,20.93L13.19,18.03L13.35,17.62L13.43,19.24L13.51,20.05L13.75,16.14L14.24,20.66L14.32,21.74L14.49,23.43L14.81,18.97L14.89,19.65L15.71,26.73L15.79,25.18L15.87,22.75L16.6,27.21L16.69,26.13L16.77,26.19L16.93,28.29L17.09,23.7L17.42,26.94L17.5,25.32L17.82,28.02L17.99,27.81L18.07,24.24L18.23,23.02L19.29,29.9L19.37,27.95L19.78,26.8L19.86,29.23L19.94,30.31L20.75,35.64L20.92,33.14L21,33.48L21.08,29.84L21.73,33.35L21.81,32.6L22.38,36.72L22.71,35.64L22.79,33.75L23.03,30.92L23.52,34.09L23.6,34.22L23.68,32.81L24.17,36.99L24.25,37.53L24.58,38.81L24.66,37.46L24.74,35.98L24.91,35.64L26.21,43.6L26.45,42.99L26.53,41.71L26.61,40.36L27.18,42.12L27.27,42.18L27.59,43.13L27.75,42.52L27.84,41.1L28.08,40.83L30.03,49.81L30.11,49.54L30.2,47.65L31.66,51.7L31.74,50.69L32.64,53.25L32.88,52.71L32.96,51.09L33.04,49.94L33.61,51.49L33.7,52.3L34.59,55.34L34.67,56.69L35.65,59.59L35.73,60.06L38.17,68.43L38.25,67.82L38.33,66.2L39.07,68.43L39.15,69.24L39.96,70.25L40.13,69.58L40.21,68.63L42.4,75.18L42.49,75.31L44.52,79.23L44.6,78.01L44.85,78.75L45.01,77.07L45.33,77.94L45.42,78.08L46.64,81.65L46.72,81.72L51.6,92.92L51.68,92.99L53.55,96.77L53.64,96.83L55.67,100.68L55.75,100.95L56.65,102.57L56.73,102.77L58.28,105.47L58.36,105.61L62.1,113.16L62.18,113.23L63.48,115.19L63.57,115.79L64.3,116.87L64.38,116.94L65.6,119.1L65.68,119.1L67.31,121.33L67.39,121.33L69.75,125.24L69.83,125.37L71.54,128.55L71.62,128.68L73.5,132.46L73.58,132.46L74.96,133.88L75.04,134.01L77.73,137.45L77.81,137.45L81.31,142.04L81.39,142.04L83.02,144.94L83.1,144.94L84.56,145.68L84.65,145.95L85.3,146.9L85.38,147.17L87.25,148.72L87.33,149.12L88.31,149.8L88.39,150L89.94,150.68L90.02,150.68L96.04,155.26L96.12,155.26L98.65,157.09L98.73,157.22L99.21,157.69L99.3,158.03L100.19,158.64L100.27,158.64L101.33,159.31L101.41,159.31L105.32,161.54L105.4,161.81L106.87,162.55L106.95,162.75L107.92,163.29L108.01,163.29L116.55,167.14L116.63,167.21L118.91,167.95L118.99,168.08L124.77,170.78L124.85,170.92L126.97,171.46L127.05,171.73L131.45,172.4L131.53,172.54L133.07,173.28L133.15,173.41L134.46,173.55L134.54,173.55L135.76,174.22L135.84,174.36L137.39,175.1L137.47,175.37L139.75,176.11L139.83,176.25L144.22,176.85L144.31,177.06L145.77,177.73L145.85,177.93L149.68,178.68L149.76,178.74L155.29,181.24L155.37,181.58L158.06,182.32L158.14,182.45L159.53,183.06L159.61,183.06L164.25,183.8L164.33,183.87L165.3,184.07L165.39,184.07L168.89,184.82L168.97,185.15L171.98,185.9L172.06,186.03L176.37,186.71L176.45,186.84L183.37,187.58L183.45,187.78L190.94,188.53L191.02,189L193.14,189.07L193.22,189.07L197.29,189.74L197.37,189.88L204.21,190.62L204.29,190.69L208.44,191.29L208.52,191.5L212.51,192.04L212.59,192.31L218.37,193.05L218.45,193.18L224.96,193.86L225.04,193.99L229.28,194.6L229.36,194.8L230.82,195.14L230.9,195.14L232.61,195.68L232.7,196.15L237.82,196.83L237.9,197.03L238.96,197.57L239.04,197.64L244.66,198.38L244.74,198.58L249.3,199.32L249.38,199.46L259.23,200.2L259.31,200.33L263.71,201.08L263.79,201.21L267.69,201.89L267.77,202.09L274.04,202.83L274.12,203.03L287.06,203.64L287.15,203.91L296.59,204.65L296.67,204.85L312.3,205.6L312.38,205.73L316.61,206.41L316.69,206.81L323.2,207.22L323.28,207.69L335.57,208.3L335.65,208.5L338.1,208.7L338.18,208.7L354.7,209.38L354.78,209.51L363.16,210.12L363.25,210.32L377.65,211.06L377.73,211.2L386.52,211.94L386.6,212.01L404.84,212.61L404.92,212.82L415.74,213.49L415.82,213.63L428.85,214.17L428.93,214.5L442.76,215.25L442.85,215.31L448.38,215.65" style="vector-effect: non-scaling-stroke; fill: none; stroke: rgb(99, 110, 250); stroke-opacity: 1; stroke-width: 2px; opacity: 1;"/></g><g class="points"/><g class="text"/></g></g></g><g class="overplot"><g class="xy2" transform="translate(78,20)" clip-path="url(#clip8e9d0exy2plot)"><g class="scatterlayer mlayer"><g class="trace scatter trace9aa6e2" style="stroke-miterlimit: 2; opacity: 1;"><g class="fills"/><g class="errorbars"/><g class="lines"><path class="js-line" d="M0,11.35L3.99,77.82L4.07,78.92L7.98,122.67L8.06,123.41L12.05,153.42L12.13,153.92L16.2,174.34L16.28,174.67L20.59,188.88L20.67,189.09L24.91,198.16L24.99,198.3L29.22,204.22L29.3,204.31L34.1,208.59L34.18,208.65L40.61,211.94L40.7,211.97L47.69,213.8L47.78,213.82L58.03,214.98L58.11,214.99L80.74,215.58L80.82,215.58L448.38,215.65" style="vector-effect: non-scaling-stroke; fill: none; stroke: rgb(239, 85, 59); stroke-opacity: 1; stroke-width: 2px; opacity: 1;"/></g><g class="points"/><g class="text"/></g></g></g></g><path class="xlines-above crisp" d="M0,0" style="fill: none;"/><path class="ylines-above crisp" d="M0,0" style="fill: none;"/><g class="overlines-above"><path class="xy2-x crisp" d="M0,0" style="fill: none;"/><path class="xy2-y crisp" d="M0,0" style="fill: none;"/></g><g class="xaxislayer-above"><g class="xtick"><text text-anchor="middle" x="0" y="260" transform="translate(78,0)" style="font-family: 'Open Sans', verdana, arial, sans-serif; font-size: 12px; fill: rgb(42, 63, 95); fill-opacity: 1; white-space: pre; opacity: 1;">0</text></g><g class="xtick"><text text-anchor="middle" x="0" y="260" style="font-family: 'Open Sans', verdana, arial, sans-serif; font-size: 12px; fill: rgb(42, 63, 95); fill-opacity: 1; white-space: pre; opacity: 1;" transform="translate(159.39,0)">1000</text></g><g class="xtick"><text text-anchor="middle" x="0" y="260" style="font-family: 'Open Sans', verdana, arial, sans-serif; font-size: 12px; fill: rgb(42, 63, 95); fill-opacity: 1; white-space: pre; opacity: 1;" transform="translate(240.78,0)">2000</text></g><g class="xtick"><text text-anchor="middle" x="0" y="260" style="font-family: 'Open Sans', verdana, arial, sans-serif; font-size: 12px; fill: rgb(42, 63, 95); fill-opacity: 1; white-space: pre; opacity: 1;" transform="translate(322.16999999999996,0)">3000</text></g><g class="xtick"><text text-anchor="middle" x="0" y="260" style="font-family: 'Open Sans', verdana, arial, sans-serif; font-size: 12px; fill: rgb(42, 63, 95); fill-opacity: 1; white-space: pre; opacity: 1;" transform="translate(403.56,0)">4000</text></g><g class="xtick"><text text-anchor="middle" x="0" y="260" style="font-family: 'Open Sans', verdana, arial, sans-serif; font-size: 12px; fill: rgb(42, 63, 95); fill-opacity: 1; white-space: pre; opacity: 1;" transform="translate(484.95,0)">5000</text></g></g><g class="yaxislayer-above"><g class="ytick"><text text-anchor="end" x="77" y="4.199999999999999" transform="translate(0,238.96)" style="font-family: 'Open Sans', verdana, arial, sans-serif; font-size: 12px; fill: rgb(42, 63, 95); fill-opacity: 1; white-space: pre; opacity: 1;">−6000</text></g><g class="ytick"><text text-anchor="end" x="77" y="4.199999999999999" style="font-family: 'Open Sans', verdana, arial, sans-serif; font-size: 12px; fill: rgb(42, 63, 95); fill-opacity: 1; white-space: pre; opacity: 1;" transform="translate(0,171.49)">−4000</text></g><g class="ytick"><text text-anchor="end" x="77" y="4.199999999999999" style="font-family: 'Open Sans', verdana, arial, sans-serif; font-size: 12px; fill: rgb(42, 63, 95); fill-opacity: 1; white-space: pre; opacity: 1;" transform="translate(0,104.02)">−2000</text></g><g class="ytick"><text text-anchor="end" x="77" y="4.199999999999999" style="font-family: 'Open Sans', verdana, arial, sans-serif; font-size: 12px; fill: rgb(42, 63, 95); fill-opacity: 1; white-space: pre; opacity: 1;" transform="translate(0,36.55)">0</text></g></g><g class="overaxes-above"><g class="xy2-x"/><g class="xy2-y"><g class="y2tick"><text text-anchor="start" x="527.38" y="4.199999999999999" transform="translate(0,235.65)" style="font-family: 'Open Sans', verdana, arial, sans-serif; font-size: 12px; fill: rgb(42, 63, 95); fill-opacity: 1; white-space: pre; opacity: 1;">0</text></g><g class="y2tick"><text text-anchor="start" x="527.38" y="4.199999999999999" style="font-family: 'Open Sans', verdana, arial, sans-serif; font-size: 12px; fill: rgb(42, 63, 95); fill-opacity: 1; white-space: pre; opacity: 1;" transform="translate(0,184.58)">500</text></g><g class="y2tick"><text text-anchor="start" x="527.38" y="4.199999999999999" style="font-family: 'Open Sans', verdana, arial, sans-serif; font-size: 12px; fill: rgb(42, 63, 95); fill-opacity: 1; white-space: pre; opacity: 1;" transform="translate(0,133.5)">1000</text></g><g class="y2tick"><text text-anchor="start" x="527.38" y="4.199999999999999" style="font-family: 'Open Sans', verdana, arial, sans-serif; font-size: 12px; fill: rgb(42, 63, 95); fill-opacity: 1; white-space: pre; opacity: 1;" transform="translate(0,82.43)">1500</text></g><g class="y2tick"><text text-anchor="start" x="527.38" y="4.199999999999999" style="font-family: 'Open Sans', verdana, arial, sans-serif; font-size: 12px; fill: rgb(42, 63, 95); fill-opacity: 1; white-space: pre; opacity: 1;" transform="translate(0,31.35)">2000</text></g></g></g></g><g class="subplot xy2"/></g><g class="polarlayer"/><g class="smithlayer"/><g class="ternarylayer"/><g class="geolayer"/><g class="funnelarealayer"/><g class="pielayer"/><g class="iciclelayer"/><g class="treemaplayer"/><g class="sunburstlayer"/><g class="glimages"/><defs id="topdefs-8e9d0e"><g class="clips"/><clipPath id="legend8e9d0e"><rect width="123" height="48" x="0" y="0"/></clipPath></defs><g class="layer-above"><g class="imagelayer"/><g class="shapelayer"/></g><g class="infolayer"><g class="legend" pointer-events="all" transform="translate(564.54,20)"><rect class="bg" shape-rendering="crispEdges" width="123" height="48" x="0" y="0" style="stroke: rgb(68, 68, 68); stroke-opacity: 1; fill: rgb(255, 255, 255); fill-opacity: 1; stroke-width: 0px;"/><g class="scrollbox" transform="" clip-path="url(#legend8e9d0e)"><g class="groups"><g class="traces" transform="translate(0,14.5)" style="opacity: 1;"><text class="legendtext" text-anchor="start" x="40" y="4.680000000000001" style="font-family: 'Open Sans', verdana, arial, sans-serif; font-size: 12px; fill: rgb(42, 63, 95); fill-opacity: 1; white-space: pre;">Cost</text><g class="layers" style="opacity: 1;"><g class="legendfill"/><g class="legendlines"><path class="js-line" d="M5,0h30" style="fill: none; stroke: rgb(99, 110, 250); stroke-opacity: 1; stroke-width: 2px;"/></g><g class="legendsymbols"><g class="legendpoints"/></g></g><rect class="legendtoggle" x="0" y="-9.5" width="117.265625" height="19" style="fill: rgb(0, 0, 0); fill-opacity: 0;"/></g><g class="traces" transform="translate(0,33.5)" style="opacity: 1;"><text class="legendtext" text-anchor="start" x="40" y="4.680000000000001" style="font-family: 'Open Sans', verdana, arial, sans-serif; font-size: 12px; fill: rgb(42, 63, 95); fill-opacity: 1; white-space: pre;">Temperature</text><g class="layers" style="opacity: 1;"><g class="legendfill"/><g class="legendlines"><path class="js-line" d="M5,0h30" style="fill: none; stroke: rgb(239, 85, 59); stroke-opacity: 1; stroke-width: 2px;"/></g><g class="legendsymbols"><g class="legendpoints"/></g></g><rect class="legendtoggle" x="0" y="-9.5" width="117.265625" height="19" style="fill: rgb(0, 0, 0); fill-opacity: 0;"/></g></g></g><rect class="scrollbar" rx="20" ry="3" width="0" height="0" x="0" y="0" style="fill: rgb(128, 139, 164); fill-opacity: 1;"/></g><g class="g-gtitle"/><g class="g-xtitle"><text class="xtitle" x="302.19" y="287.8" text-anchor="middle" style="font-family: 'Open Sans', verdana, arial, sans-serif; font-size: 14px; fill: rgb(42, 63, 95); opacity: 1; font-weight: normal; white-space: pre;">Iterations</text></g><g class="g-ytitle" transform="translate(2.1435546875,0)"><text class="ytitle" transform="rotate(-90,11.856250000000003,133.5)" x="11.856250000000003" y="133.5" text-anchor="middle" style="font-family: 'Open Sans', verdana, arial, sans-serif; font-size: 14px; fill: rgb(42, 63, 95); opacity: 1; font-weight: normal; white-space: pre;">Cost</text></g><g class="g-y2title"><text class="y2title" transform="rotate(-90,583.08125,133.5)" x="583.08125" y="133.5" text-anchor="middle" style="font-family: 'Open Sans', verdana, arial, sans-serif; font-size: 14px; fill: rgb(42, 63, 95); opacity: 1; font-weight: normal; white-space: pre;">Temperature</text></g></g></svg>