<svg class="main-svg" xmlns="http://www.w3.org/2000/svg" xmlns:xlink="http://www.w3.org/1999/xlink" width="700" height="300" style="" viewBox="0 0 700 300"><rect x="0" y="0" width="700" height="300" style="fill: rgb(255, 255, 255); fill-opacity: 1;"/><defs id="defs-7e975f"><g class="clips"><clipPath id="clip7e975fxyplot" class="plotclip"><rect width="457.78" height="227"/></clipPath><clipPath id="clip7e975fxy2plot" class="plotclip"><rect width="457.78" height="227"/></clipPath><clipPath class="axesclip" id="clip7e975fx"><rect x="68" y="0" width="457.78" height="300"/></clipPath><clipPath class="axesclip" id="clip7e975fy"><rect x="0" y="20" width="700" height="227"/></clipPath><clipPath class="axesclip" id="clip7e975fxy"><rect x="68" y="20" width="457.78" height="227"/></clipPath><clipPath class="axesclip" id="clip7e975fy2"><rect x="0" y="20" width="700" height="227"/></clipPath><clipPath class="axesclip" id="clip7e975fxy2"><rect x="68" y="20" width="457.78" height="227"/></clipPath></g><g class="gradients"/><g class="patterns"/></defs><g class="bglayer"><rect class="bg" x="68" y="20" width="457.78" height="227" style="fill: rgb(229, 236, 246); fill-opacity: 1; stroke-width: 0;"/></g><g class="layer-below"><g class="imagelayer"/><g class="shapelayer"/></g><g class="cartesianlayer"><g class="subplot xy"><g class="layer-subplot"><g class="shapelayer"/><g class="imagelayer"/></g><g class="gridlayer"><g class="x"><path class="xgrid crisp" transform="translate(144.06,0)" d="M0,20v227" style="stroke: rgb(255, 255, 255); stroke-opacity: 1; stroke-width: 1px;"/><path class="xgrid crisp" transform="translate(220.11,0)" d="M0,20v227" style="stroke: rgb(255, 255, 255); stroke-opacity: 1; stroke-width: 1px;"/><path class="xgrid crisp" transform="translate(296.16999999999996,0)" d="M0,20v227" style="stroke: rgb(255, 255, 255); stroke-opacity: 1; stroke-width: 1px;"/><path class="xgrid crisp" transform="translate(372.22,0)" d="M0,20v227" style="stroke: rgb(255, 255, 255); stroke-opacity: 1; stroke-width: 1px;"/><path class="xgrid crisp" transform="translate(448.28,0)" d="M0,20v227" style="stroke: rgb(255, 255, 255); stroke-opacity: 1; stroke-width: 1px;"/><path class="xgrid crisp" transform="translate(524.3299999999999,0)" d="M0,20v227" style="stroke: rgb(255, 255, 255); stroke-opacity: 1; stroke-width: 1px;"/></g><g class="y"><path class="ygrid crisp" transform="translate(0,230.95)" d="M68,0h457.78" style="stroke: rgb(255, 255, 255); stroke-opacity: 1; stroke-width: 1px;"/><path class="ygrid crisp" transform="translate(0,167.15)" d="M68,0h457.78" style="stroke: rgb(255, 255, 255); stroke-opacity: 1; stroke-width: 1px;"/><path class="ygrid crisp" transform="translate(0,103.34)" d="M68,0h457.78" style="stroke: rgb(255, 255, 255); stroke-opacity: 1; stroke-width: 1px;"/><path class="ygrid crisp" transform="translate(0,39.54)" d="M68,0h457.78" style="stroke: rgb(255, 255, 255); stroke-opacity: 1; stroke-width: 1px;"/></g><g class="y2"><path class="y2grid crisp" transform="translate(0,184.58)" d="M68,0h457.78" style="stroke: rgb(255, 255, 255); stroke-opacity: 1; stroke-width: 1px;"/><path class="y2grid crisp" transform="translate(0,133.5)" d="M68,0h457.78" style="stroke: rgb(255, 255, 255); stroke-opacity: 1; stroke-width: 1px;"/><path class="y2grid crisp" transform="translate(0,82.43)" d="M68,0h457.78" style="stroke: rgb(255, 255, 255); stroke-opacity: 1; stroke-width: 1px;"/><path class="y2grid crisp" transform="translate(0,31.35)" d="M68,0h457.78" style="stroke: rgb(255, 255, 255); stroke-opacity: 1; stroke-width: 1px;"/></g></g><g class="zerolinelayer"><path class="xzl zl crisp" transform="translate(68,0)" d="M0,20v227" style="stroke: rgb(255, 255, 255); stroke-opacity: 1; stroke-width: 2px;"/><path class="y2zl zl crisp" transform="translate(0,235.65)" d="M68,0h457.78" style="stroke: rgb(255, 255, 255); stroke-opacity: 1; stroke-width: 2px;"/></g><path class="xlines-below"/><path class="ylines-below"/><g class="overlines-below"><path class="xy2-x"/><path class="xy2-y"/></g><g class="xaxislayer-below"/><g class="yaxislayer-below"/><g class="overaxes-below"><g class="xy2-x"/><g class="xy2-y"/></g><g class="plot" transform="translate(68,20)" clip-path="url(#clip7e975fxyplot)"><g class="scatterlayer mlayer"><g class="trace scatter trace499c59" style="stroke-miterlimit: 2; opacity: 1;"><g class="fills"/><g class="errorbars"/><g class="lines"><path class="js-line" d="M0,17.89L0.08,18.46L0.23,14.63L0.46,16.56L0.53,14.18L0.76,13.62L1.45,17.65L1.52,18.43L1.75,19.4L1.9,16.84L1.98,16.35L2.43,19.39L2.81,18.28L2.89,15.84L2.97,16.28L3.35,14.26L3.42,14.43L3.65,15.96L3.95,15.32L4.03,13.13L4.56,12.29L4.94,16.29L5.02,15.05L5.25,13.16L5.86,13.5L5.93,14.68L6.08,16.44L6.62,14.31L6.69,13.58L7.15,11.35L7.23,13.29L7.3,13.39L7.68,19.04L8.21,16.95L8.29,16.6L9.96,22.2L10.04,21.16L11.1,23.99L11.18,24.29L11.41,24.03L11.86,26.22L12.02,25.6L12.09,24.04L12.93,28.23L13.01,27.2L13.08,26.9L15.44,35.42L15.52,34.96L15.67,36.33L15.9,34.17L16.28,36.25L16.35,34.91L17.34,39.2L17.42,38.51L17.49,37.59L17.8,39.59L18.33,38.76L18.41,37.7L18.56,36.68L19.01,38.29L19.24,37.92L19.32,37.98L19.62,37.91L20.23,39.82L20.31,39.65L20.54,38.84L21.07,40.32L21.14,39.13L22.13,41.21L22.28,40.89L22.36,40.06L22.59,39.67L28.44,54.88L28.52,53.8L29.89,56.35L29.97,55.99L31.03,59.05L31.11,59.42L31.33,59.32L31.64,59.87L31.72,59.94L33.24,62.06L33.31,62.19L40.31,74.91L40.39,75.01L43.35,82.8L43.43,82.94L43.96,84.15L44.04,84.55L46.09,88.5L46.17,88.51L46.7,89.18L46.77,89.38L47.69,90.64L47.76,90.64L52.02,97.99L52.1,98.04L54,99.89L54.08,100.12L57.27,104.83L57.35,104.96L58.64,106.85L58.72,106.88L61.3,110.14L61.38,110.16L70.5,121.27L70.58,121.44L71.64,122.9L71.72,123.1L75.07,126.16L75.14,126.41L78.49,129.99L78.57,130.26L83.66,134.02L83.74,134.05L87.54,137.44L87.62,137.45L89.82,140.79L89.9,140.85L100.01,148.86L100.09,148.99L102.07,150.99L102.14,151L103.44,151.77L103.51,151.78L104.8,153.07L104.88,153.33L108.46,155.69L108.53,155.9L110.66,157.03L110.74,157.11L126.56,165.94L126.63,165.94L129.75,167.23L129.83,167.36L131.96,168.25L132.03,168.39L137.28,170.91L137.36,170.91L139.18,171.65L139.26,171.81L141.84,172.53L141.92,172.61L144.73,173.82L144.81,174L149.15,175.23L149.22,175.23L150.97,175.79L151.05,175.79L153.63,176.81L153.71,176.81L155.15,177.49L155.23,177.57L156.83,177.86L156.9,177.86L159.49,178.61L159.57,178.7L162.15,179.43L162.23,179.48L164.51,180.22L164.58,180.26L166.26,180.93L166.33,180.93L168.16,181.66L168.24,181.7L170.14,182.18L170.21,182.21L172.95,182.93L173.03,183.13L174.62,183.87L174.7,184.08L179.19,184.77L179.26,184.9L196.83,187.82L196.91,187.82L204.67,189.98L204.74,190.2L207.1,190.9L207.18,190.98L212.04,191.64L212.12,191.75L214.1,192.38L214.17,192.53L217.37,193.24L217.44,193.4L218.43,193.84L218.51,193.92L220.41,194.51L220.49,194.72L226.04,195.45L226.11,195.69L231.36,196.37L231.44,196.56L234.78,197.05L234.86,197.05L240.34,197.8L240.41,197.85L245.81,198.59L245.89,198.69L249.92,199.4L250,199.48L251.97,199.8L252.05,199.82L258.13,200.55L258.21,200.61L273.88,202.06L273.95,202.06L278.97,202.73L279.05,202.82L287.26,203.71L287.34,203.71L296.54,204.46L296.62,204.56L302.93,205.47L303.01,205.47L307.8,206.13L307.87,206.3L320.73,207.03L320.8,207.1L330.46,207.81L330.54,207.9L345.52,208.62L345.6,208.7L374.27,210.74L374.35,210.74L389.63,211.48L389.71,211.5L399.14,212.12L399.22,212.31L408.8,213.31L408.88,213.31L430.78,214.04L430.86,214.08L434.2,214.22L434.28,214.22L457.78,215.65" style="vector-effect: non-scaling-stroke; fill: none; stroke: rgb(99, 110, 250); stroke-opacity: 1; stroke-width: 2px; opacity: 1;"/></g><g class="points"/><g class="text"/></g></g></g><g class="overplot"><g class="xy2" transform="translate(68,20)" clip-path="url(#clip7e975fxy2plot)"><g class="scatterlayer mlayer"><g class="trace scatter trace1189d5" style="stroke-miterlimit: 2; opacity: 1;"><g class="fills"/><g class="errorbars"/><g class="lines"><path class="js-line" d="M0,11.35L4.56,89.48L4.64,90.49L9.2,138.35L9.28,138.97L12.7,162.23L12.78,162.66L16.2,178.73L16.28,179.03L19.77,190.34L19.85,190.54L24.57,200.39L24.64,200.51L28.98,206.07L29.05,206.15L34.61,210.36L34.68,210.41L41.07,212.98L41.15,213L50.04,214.61L50.12,214.62L61.07,215.33L61.15,215.33L85.03,215.62L85.11,215.62L457.78,215.65" style="vector-effect: non-scaling-stroke; fill: none; stroke: rgb(239, 85, 59); stroke-opacity: 1; stroke-width: 2px; opacity: 1;"/></g><g class="points"/><g class="text"/></g></g></g></g><path class="xlines-above crisp" d="M0,0" style="fill: none;"/><path class="ylines-above crisp" d="M0,0" style="fill: none;"/><g class="overlines-above"><path class="xy2-x crisp" d="M0,0" style="fill: none;"/><path class="xy2-y crisp" d="M0,0" style="fill: none;"/></g><g class="xaxislayer-above"><g class="xtick"><text text-anchor="middle" x="0" y="260" transform="translate(68,0)" style="font-family: 'Open Sans', verdana, arial, sans-serif; font-size: 12px; fill: rgb(42, 63, 95); fill-opacity: 1; white-space: pre; opacity: 1;">0</text></g><g class="xtick"><text text-anchor="middle" x="0" y="260" style="font-family: 'Open Sans', verdana, arial, sans-serif; font-size: 12px; fill: rgb(42, 63, 95); fill-opacity: 1; white-space: pre; opacity: 1;" transform="translate(144.06,0)">1000</text></g><g class="xtick"><text text-anchor="middle" x="0" y="260" style="font-family: 'Open Sans', verdana, arial, sans-serif; font-size: 12px; fill: rgb(42, 63, 95); fill-opacity: 1; white-space: pre; opacity: 1;" transform="translate(220.11,0)">2000</text></g><g class="xtick"><text text-anchor="middle" x="0" y="260" style="font-family: 'Open Sans', verdana, arial, sans-serif; font-size: 12px; fill: rgb(42, 63, 95); fill-opacity: 1; white-space: pre; opacity: 1;" transform="translate(296.16999999999996,0)">3000</text></g><g class="xtick"><text text-anchor="middle" x="0" y="260" style="font-family: 'Open Sans', verdana, arial, sans-serif; font-size: 12px; fill: rgb(42, 63, 95); fill-opacity: 1; white-space: pre; opacity: 1;" transform="translate(372.22,0)">4000</text></g><g class="xtick"><text text-anchor="middle" x="0" y="260" style="font-family: 'Open Sans', verdana, arial, sans-serif; font-size: 12px; fill: rgb(42, 63, 95); fill-opacity: 1; white-space: pre; opacity: 1;" transform="translate(448.28,0)">5000</text></g><g class="xtick"><text text-anchor="middle" x="0" y="260" style="font-family: 'Open Sans', verdana, arial, sans-serif; font-size: 12px; fill: rgb(42, 63, 95); fill-opacity: 1; white-space: pre; opacity: 1;" transform="translate(524.3299999999999,0)">6000</text></g></g><g class="yaxislayer-above"><g class="ytick"><text text-anchor="end" x="67" y="4.199999999999999" transform="translate(0,230.95)" style="font-family: 'Open Sans', verdana, arial, sans-serif; font-size: 12px; fill: rgb(42, 63, 95); fill-opacity: 1; white-space: pre; opacity: 1;">300k</text></g><g class="ytick"><text text-anchor="end" x="67" y="4.199999999999999" style="font-family: 'Open Sans', verdana, arial, sans-serif; font-size: 12px; fill: rgb(42, 63, 95); fill-opacity: 1; white-space: pre; opacity: 1;" transform="translate(0,167.15)">350k</text></g><g class="ytick"><text text-anchor="end" x="67" y="4.199999999999999" style="font-family: 'Open Sans', verdana, arial, sans-serif; font-size: 12px; fill: rgb(42, 63, 95); fill-opacity: 1; white-space: pre; opacity: 1;" transform="translate(0,103.34)">400k</text></g><g class="ytick"><text text-anchor="end" x="67" y="4.199999999999999" style="font-family: 'Open Sans', verdana, arial, sans-serif; font-size: 12px; fill: rgb(42, 63, 95); fill-opacity: 1; white-space: pre; opacity: 1;" transform="translate(0,39.54)">450k</text></g></g><g class="overaxes-above"><g class="xy2-x"/><g class="xy2-y"><g class="y2tick"><text text-anchor="start" x="526.78" y="4.199999999999999" transform="translate(0,235.65)" style="font-family: 'Open Sans', verdana, arial, sans-serif; font-size: 12px; fill: rgb(42, 63, 95); fill-opacity: 1; white-space: pre; opacity: 1;">0</text></g><g class="y2tick"><text text-anchor="start" x="526.78" y="4.199999999999999" style="font-family: 'Open Sans', verdana, arial, sans-serif; font-size: 12px; fill: rgb(42, 63, 95); fill-opacity: 1; white-space: pre; opacity: 1;" transform="translate(0,184.58)">500</text></g><g class="y2tick"><text text-anchor="start" x="526.78" y="4.199999999999999" style="font-family: 'Open Sans', verdana, arial, sans-serif; font-size: 12px; fill: rgb(42, 63, 95); fill-opacity: 1; white-space: pre; opacity: 1;" transform="translate(0,133.5)">1000</text></g><g class="y2tick"><text text-anchor="start" x="526.78" y="4.199999999999999" style="font-family: 'Open Sans', verdana, arial, sans-serif; font-size: 12px; fill: rgb(42, 63, 95); fill-opacity: 1; white-space: pre; opacity: 1;" transform="translate(0,82.43)">1500</text></g><g class="y2tick"><text text-anchor="start" x="526.78" y="4.199999999999999" style="font-family: 'Open Sans', verdana, arial, sans-serif; font-size: 12px; fill: rgb(42, 63, 95); fill-opacity: 1; white-space: pre; opacity: 1;" transform="translate(0,31.35)">2000</text></g></g></g></g><g class="subplot xy2"/></g><g class="polarlayer"/><g class="smithlayer"/><g class="ternarylayer"/><g class="geolayer"/><g class="funnelarealayer"/><g class="pielayer"/><g class="iciclelayer"/><g class="treemaplayer"/><g class="sunburstlayer"/><g class="glimages"/><defs id="topdefs-7e975f"><g class="clips"/><clipPath id="legend7e975f"><rect width="123" height="48" x="0" y="0"/></clipPath></defs><g class="layer-above"><g class="imagelayer"/><g class="shapelayer"/></g><g class="infolayer"><g class="legend" pointer-events="all" transform="translate(564.74,20)"><rect class="bg" shape-rendering="crispEdges" width="123" height="48" x="0" y="0" style="stroke: rgb(68, 68, 68); stroke-opacity: 1; fill: rgb(255, 255, 255); fill-opacity: 1; stroke-width: 0px;"/><g class="scrollbox" transform="" clip-path="url(#legend7e975f)"><g class="groups"><g class="traces" transform="translate(0,14.5)" style="opacity: 1;"><text class="legendtext" text-anchor="start" x="40" y="4.680000000000001" style="font-family: 'Open Sans', verdana, arial, sans-serif; font-size: 12px; fill: rgb(42, 63, 95); fill-opacity: 1; white-space: pre;">Cost</text><g class="layers" style="opacity: 1;"><g class="legendfill"/><g class="legendlines"><path class="js-line" d="M5,0h30" style="fill: none; stroke: rgb(99, 110, 250); stroke-opacity: 1; stroke-width: 2px;"/></g><g class="legendsymbols"><g class="legendpoints"/></g></g><rect class="legendtoggle" x="0" y="-9.5" width="117.265625" height="19" style="fill: rgb(0, 0, 0); fill-opacity: 0;"/></g><g class="traces" transform="translate(0,33.5)" style="opacity: 1;"><text class="legendtext" text-anchor="start" x="40" y="4.680000000000001" style="font-family: 'Open Sans', verdana, arial, sans-serif; font-size: 12px; fill: rgb(42, 63, 95); fill-opacity: 1; white-space: pre;">Temperature</text><g class="layers" style="opacity: 1;"><g class="legendfill"/><g class="legendlines"><path class="js-line" d="M5,0h30" style="fill: none; stroke: rgb(239, 85, 59); stroke-opacity: 1; stroke-width: 2px;"/></g><g class="legendsymbols"><g class="legendpoints"/></g></g><rect class="legendtoggle" x="0" y="-9.5" width="117.265625" height="19" style="fill: rgb(0, 0, 0); fill-opacity: 0;"/></g></g></g><rect class="scrollbar" rx="20" ry="3" width="0" height="0" x="0" y="0" style="fill: rgb(128, 139, 164); fill-opacity: 1;"/></g><g class="g-gtitle"/><g class="g-xtitle"><text class="xtitle" x="296.89" y="287.8" text-anchor="middle" style="font-family: 'Open Sans', verdana, arial, sans-serif; font-size: 14px; fill: rgb(42, 63, 95); opacity: 1; font-weight: normal; white-space: pre;">Iterations</text></g><g class="g-ytitle" transform="translate(1.7998046875,0)"><text class="ytitle" transform="rotate(-90,12.200000000000003,133.5)" x="12.200000000000003" y="133.5" text-anchor="middle" style="font-family: 'Open Sans', verdana, arial, sans-serif; font-size: 14px; fill: rgb(42, 63, 95); opacity: 1; font-weight: normal; white-space: pre;">Cost</text></g><g class="g-y2title"><text class="y2title" transform="rotate(-90,582.471875,133.5)" x="582.471875" y="133.5" text-anchor="middle" style="font-family: 'Open Sans', verdana, arial, sans-serif; font-size: 14px; fill: rgb(42, 63, 95); opacity: 1; font-weight: normal; white-space: pre;">Temperature</text></g></g></svg>