<svg class="main-svg" xmlns="http://www.w3.org/2000/svg" xmlns:xlink="http://www.w3.org/1999/xlink" width="700" height="300" style="" viewBox="0 0 700 300"><rect x="0" y="0" width="700" height="300" style="fill: rgb(255, 255, 255); fill-opacity: 1;"/><defs id="defs-d9d0b1"><g class="clips"><clipPath id="clipd9d0b1xyplot" class="plotclip"><rect width="457.78" height="227"/></clipPath><clipPath id="clipd9d0b1xy2plot" class="plotclip"><rect width="457.78" height="227"/></clipPath><clipPath class="axesclip" id="clipd9d0b1x"><rect x="68" y="0" width="457.78" height="300"/></clipPath><clipPath class="axesclip" id="clipd9d0b1y"><rect x="0" y="20" width="700" height="227"/></clipPath><clipPath class="axesclip" id="clipd9d0b1xy"><rect x="68" y="20" width="457.78" height="227"/></clipPath><clipPath class="axesclip" id="clipd9d0b1y2"><rect x="0" y="20" width="700" height="227"/></clipPath><clipPath class="axesclip" id="clipd9d0b1xy2"><rect x="68" y="20" width="457.78" height="227"/></clipPath></g><g class="gradients"/><g class="patterns"/></defs><g class="bglayer"><rect class="bg" x="68" y="20" width="457.78" height="227" style="fill: rgb(229, 236, 246); fill-opacity: 1; stroke-width: 0;"/></g><g class="layer-below"><g class="imagelayer"/><g class="shapelayer"/></g><g class="cartesianlayer"><g class="subplot xy"><g class="layer-subplot"><g class="shapelayer"/><g class="imagelayer"/></g><g class="gridlayer"><g class="x"><path class="xgrid crisp" transform="translate(151.1,0)" d="M0,20v227" style="stroke: rgb(255, 255, 255); stroke-opacity: 1; stroke-width: 1px;"/><path class="xgrid crisp" transform="translate(234.19,0)" d="M0,20v227" style="stroke: rgb(255, 255, 255); stroke-opacity: 1; stroke-width: 1px;"/><path class="xgrid crisp" transform="translate(317.28999999999996,0)" d="M0,20v227" style="stroke: rgb(255, 255, 255); stroke-opacity: 1; stroke-width: 1px;"/><path class="xgrid crisp" transform="translate(400.39,0)" d="M0,20v227" style="stroke: rgb(255, 255, 255); stroke-opacity: 1; stroke-width: 1px;"/><path class="xgrid crisp" transform="translate(483.48,0)" d="M0,20v227" style="stroke: rgb(255, 255, 255); stroke-opacity: 1; stroke-width: 1px;"/></g><g class="y"><path class="ygrid crisp" transform="translate(0,225.59)" d="M68,0h457.78" style="stroke: rgb(255, 255, 255); stroke-opacity: 1; stroke-width: 1px;"/><path class="ygrid crisp" transform="translate(0,168.42)" d="M68,0h457.78" style="stroke: rgb(255, 255, 255); stroke-opacity: 1; stroke-width: 1px;"/><path class="ygrid crisp" transform="translate(0,111.24)" d="M68,0h457.78" style="stroke: rgb(255, 255, 255); stroke-opacity: 1; stroke-width: 1px;"/><path class="ygrid crisp" transform="translate(0,54.06)" d="M68,0h457.78" style="stroke: rgb(255, 255, 255); stroke-opacity: 1; stroke-width: 1px;"/></g><g class="y2"><path class="y2grid crisp" transform="translate(0,184.58)" d="M68,0h457.78" style="stroke: rgb(255, 255, 255); stroke-opacity: 1; stroke-width: 1px;"/><path class="y2grid crisp" transform="translate(0,133.5)" d="M68,0h457.78" style="stroke: rgb(255, 255, 255); stroke-opacity: 1; stroke-width: 1px;"/><path class="y2grid crisp" transform="translate(0,82.43)" d="M68,0h457.78" style="stroke: rgb(255, 255, 255); stroke-opacity: 1; stroke-width: 1px;"/><path class="y2grid crisp" transform="translate(0,31.35)" d="M68,0h457.78" style="stroke: rgb(255, 255, 255); stroke-opacity: 1; stroke-width: 1px;"/></g></g><g class="zerolinelayer"><path class="xzl zl crisp" transform="translate(68,0)" d="M0,20v227" style="stroke: rgb(255, 255, 255); stroke-opacity: 1; stroke-width: 2px;"/><path class="y2zl zl crisp" transform="translate(0,235.65)" d="M68,0h457.78" style="stroke: rgb(255, 255, 255); stroke-opacity: 1; stroke-width: 2px;"/></g><path class="xlines-below"/><path class="ylines-below"/><g class="overlines-below"><path class="xy2-x"/><path class="xy2-y"/></g><g class="xaxislayer-below"/><g class="yaxislayer-below"/><g class="overaxes-below"><g class="xy2-x"/><g class="xy2-y"/></g><g class="plot" transform="translate(68,20)" clip-path="url(#clipd9d0b1xyplot)"><g class="scatterlayer mlayer"><g class="trace scatter tracea1c6e4" style="stroke-miterlimit: 2; opacity: 1;"><g class="fills"/><g class="errorbars"/><g class="lines"><path class="js-line" d="M0,18.82L0.25,13.69L0.33,20.38L0.42,24.73L0.5,25.09L0.58,21.6L1,15.72L1.16,24.29L1.33,20.18L1.41,20.89L1.5,21.04L1.58,17.53L1.99,11.35L2.24,21.43L2.33,21.72L2.58,26.39L2.74,19.39L2.83,18.1L3.24,12.88L3.57,25.32L3.74,23.13L3.82,21.94L3.99,20.01L4.07,23.39L4.15,21.78L4.24,19.49L4.49,16.43L4.65,22.4L4.74,21.28L4.82,23.32L5.15,27.85L5.4,22.45L5.48,17.12L5.65,16.7L5.98,27.97L6.32,23.31L6.4,21.41L6.73,20.08L6.81,20.93L6.9,25.31L6.98,26.81L7.15,24.55L7.23,24.95L7.31,17.93L7.4,12.79L7.98,19.66L8.06,18.59L8.23,17.18L8.48,19.01L8.56,16.36L9.47,28.02L9.56,22.64L10.05,13.52L10.3,21.02L10.39,19.95L10.64,24.17L10.8,18.19L10.89,18.34L10.97,18.69L11.22,13.9L11.63,20.82L11.72,18.93L12.63,33.65L12.88,32.38L12.96,32.99L13.05,33.8L13.13,28.45L13.21,28.54L13.3,26.87L13.54,23.67L14.04,24.87L14.13,27.93L14.46,26.86L14.79,31.53L14.96,30.32L15.04,27.52L15.29,31.68L15.37,27.06L15.87,30.95L15.95,32.88L16.87,36.98L16.95,36.08L17.12,36.2L17.2,37.54L17.53,41.84L17.87,39.55L17.95,36.57L18.36,40.37L18.78,38.39L18.86,37.7L19.61,41.73L19.69,41.55L19.78,39.43L19.94,41.96L20.36,37.41L20.44,37.59L20.94,41.53L21.27,40.07L21.36,37.65L22.19,33.51L22.27,34.18L23.02,41.2L23.35,40L23.43,37.38L24.18,40.34L24.26,38.22L26.18,44.72L26.26,44.28L26.34,41.71L26.92,46.95L27.26,46.04L27.34,46.22L29.58,54.9L29.67,53.42L29.75,52.72L30.5,56.6L30.66,55.15L30.75,55.36L30.83,55.53L30.91,57.73L31.08,57.63L32.24,65.26L32.32,62.3L32.49,59.4L33.07,61.91L33.16,62.05L33.32,60.57L34.49,66.07L34.57,66.17L34.98,68.98L35.32,66.9L35.4,66.18L35.81,67.07L35.9,65.1L36.06,64.24L37.14,67.36L37.23,64.86L38.39,69.18L38.47,69.25L40.3,74.95L40.39,75.01L40.47,73.46L41.13,74.74L41.22,75.11L41.55,76.21L41.63,76.59L42.71,80.04L42.79,79.52L42.88,78.69L43.29,79.66L43.38,80.08L44.46,84.13L44.54,84.47L45.04,85.38L45.12,85.54L48.86,94.01L48.94,94.23L49.61,96.43L49.69,96.98L56.17,109.79L56.26,110.19L59.16,114.28L59.25,114.56L61.24,117.75L61.33,117.83L62.49,120.69L62.57,120.69L66.31,125.94L66.39,126.01L67.81,128.88L67.89,128.88L68.72,129.76L68.8,129.84L77.94,143.86L78.03,143.86L79.86,146.6L79.94,146.99L80.6,147.73L80.69,147.96L83.76,152.01L83.84,152.02L84.84,152.7L84.92,152.86L85.84,153.76L85.92,153.8L87.5,155.59L87.58,155.64L88.5,156.8L88.58,157.29L89.91,157.98L89.99,158.15L91.41,158.8L91.49,158.81L92.65,159.58L92.74,159.58L94.48,161.1L94.56,161.1L98.64,163.92L98.72,163.92L100.05,164.22L100.13,164.22L101.46,164.91L101.54,165L103.7,165.63L103.79,165.79L104.45,166.58L104.54,166.67L107.28,168.9L107.36,168.9L108.36,169.35L108.44,169.41L110.19,170.1L110.27,170.34L112.35,170.87L112.43,171.17L113.68,172.33L113.76,172.52L118.91,174.59L118.99,174.59L121.49,175.31L121.57,175.41L124.56,176.14L124.65,176.24L128.38,178.06L128.47,178.06L130.88,178.78L130.96,178.83L132.04,179.13L132.12,179.13L134.87,179.69L134.95,179.97L136.11,180.48L136.2,180.55L150.16,185.53L150.24,185.53L154.81,186.28L154.89,186.34L160.88,187.31L160.96,187.6L164.53,188.15L164.61,188.48L168.69,189.15L168.77,189.15L172.01,189.82L172.09,189.95L175.08,190.72L175.17,190.72L177.33,191.85L177.41,191.9L179.57,192.64L179.66,192.7L182.31,193.35L182.4,193.46L186.55,194.09L186.64,194.28L194.28,196.13L194.36,196.6L201.43,197.19L201.51,197.42L205.58,198.09L205.66,198.24L213.72,198.78L213.81,199.14L215.14,199.36L215.22,199.36L224.78,200.09L224.86,200.17L233.92,200.9L234,200.94L240.32,201.66L240.4,201.66L247.46,202.38L247.55,202.56L254.36,203.15L254.44,203.35L262.42,204.08L262.5,204.31L264.91,204.37L265,204.37L274.63,204.92L274.72,205.19L288.43,205.93L288.51,206L299.4,206.65L299.48,206.65L313.69,207.34L313.77,207.45L315.27,207.95L315.35,207.95L330.23,208.67L330.31,208.71L335.13,209.39L335.21,209.47L349.67,210.2L349.75,210.56L360.81,211.3L360.89,211.32L386.57,212.07L386.65,212.11L395.79,212.86L395.87,212.92L417.31,213.64L417.39,213.79L420.97,214.41L421.05,214.64L450.88,215.35L450.97,215.47L457.78,215.65" style="vector-effect: non-scaling-stroke; fill: none; stroke: rgb(99, 110, 250); stroke-opacity: 1; stroke-width: 2px; opacity: 1;"/></g><g class="points"/><g class="text"/></g></g></g><g class="overplot"><g class="xy2" transform="translate(68,20)" clip-path="url(#clipd9d0b1xy2plot)"><g class="scatterlayer mlayer"><g class="trace scatter traced5c73a" style="stroke-miterlimit: 2; opacity: 1;"><g class="fills"/><g class="errorbars"/><g class="lines"><path class="js-line" d="M0,11.35L3.82,74.46L3.91,75.59L7.73,118.85L7.81,119.63L11.63,149.29L11.72,149.82L15.54,170.16L15.62,170.52L20.77,188.22L20.86,188.44L24.76,197L24.85,197.15L29.58,203.94L29.67,204.04L34.49,208.36L34.57,208.42L39.39,211.11L39.47,211.15L47.03,213.48L47.12,213.5L58.83,214.96L58.92,214.96L80.35,215.56L80.44,215.56L93.57,215.63L93.65,215.63L457.78,215.65" style="vector-effect: non-scaling-stroke; fill: none; stroke: rgb(239, 85, 59); stroke-opacity: 1; stroke-width: 2px; opacity: 1;"/></g><g class="points"/><g class="text"/></g></g></g></g><path class="xlines-above crisp" d="M0,0" style="fill: none;"/><path class="ylines-above crisp" d="M0,0" style="fill: none;"/><g class="overlines-above"><path class="xy2-x crisp" d="M0,0" style="fill: none;"/><path class="xy2-y crisp" d="M0,0" style="fill: none;"/></g><g class="xaxislayer-above"><g class="xtick"><text text-anchor="middle" x="0" y="260" transform="translate(68,0)" style="font-family: 'Open Sans', verdana, arial, sans-serif; font-size: 12px; fill: rgb(42, 63, 95); fill-opacity: 1; white-space: pre; opacity: 1;">0</text></g><g class="xtick"><text text-anchor="middle" x="0" y="260" style="font-family: 'Open Sans', verdana, arial, sans-serif; font-size: 12px; fill: rgb(42, 63, 95); fill-opacity: 1; white-space: pre; opacity: 1;" transform="translate(151.1,0)">1000</text></g><g class="xtick"><text text-anchor="middle" x="0" y="260" style="font-family: 'Open Sans', verdana, arial, sans-serif; font-size: 12px; fill: rgb(42, 63, 95); fill-opacity: 1; white-space: pre; opacity: 1;" transform="translate(234.19,0)">2000</text></g><g class="xtick"><text text-anchor="middle" x="0" y="260" style="font-family: 'Open Sans', verdana, arial, sans-serif; font-size: 12px; fill: rgb(42, 63, 95); fill-opacity: 1; white-space: pre; opacity: 1;" transform="translate(317.28999999999996,0)">3000</text></g><g class="xtick"><text text-anchor="middle" x="0" y="260" style="font-family: 'Open Sans', verdana, arial, sans-serif; font-size: 12px; fill: rgb(42, 63, 95); fill-opacity: 1; white-space: pre; opacity: 1;" transform="translate(400.39,0)">4000</text></g><g class="xtick"><text text-anchor="middle" x="0" y="260" style="font-family: 'Open Sans', verdana, arial, sans-serif; font-size: 12px; fill: rgb(42, 63, 95); fill-opacity: 1; white-space: pre; opacity: 1;" transform="translate(483.48,0)">5000</text></g></g><g class="yaxislayer-above"><g class="ytick"><text text-anchor="end" x="67" y="4.199999999999999" transform="translate(0,225.59)" style="font-family: 'Open Sans', verdana, arial, sans-serif; font-size: 12px; fill: rgb(42, 63, 95); fill-opacity: 1; white-space: pre; opacity: 1;">240k</text></g><g class="ytick"><text text-anchor="end" x="67" y="4.199999999999999" style="font-family: 'Open Sans', verdana, arial, sans-serif; font-size: 12px; fill: rgb(42, 63, 95); fill-opacity: 1; white-space: pre; opacity: 1;" transform="translate(0,168.42)">260k</text></g><g class="ytick"><text text-anchor="end" x="67" y="4.199999999999999" style="font-family: 'Open Sans', verdana, arial, sans-serif; font-size: 12px; fill: rgb(42, 63, 95); fill-opacity: 1; white-space: pre; opacity: 1;" transform="translate(0,111.24)">280k</text></g><g class="ytick"><text text-anchor="end" x="67" y="4.199999999999999" style="font-family: 'Open Sans', verdana, arial, sans-serif; font-size: 12px; fill: rgb(42, 63, 95); fill-opacity: 1; white-space: pre; opacity: 1;" transform="translate(0,54.06)">300k</text></g></g><g class="overaxes-above"><g class="xy2-x"/><g class="xy2-y"><g class="y2tick"><text text-anchor="start" x="526.78" y="4.199999999999999" transform="translate(0,235.65)" style="font-family: 'Open Sans', verdana, arial, sans-serif; font-size: 12px; fill: rgb(42, 63, 95); fill-opacity: 1; white-space: pre; opacity: 1;">0</text></g><g class="y2tick"><text text-anchor="start" x="526.78" y="4.199999999999999" style="font-family: 'Open Sans', verdana, arial, sans-serif; font-size: 12px; fill: rgb(42, 63, 95); fill-opacity: 1; white-space: pre; opacity: 1;" transform="translate(0,184.58)">500</text></g><g class="y2tick"><text text-anchor="start" x="526.78" y="4.199999999999999" style="font-family: 'Open Sans', verdana, arial, sans-serif; font-size: 12px; fill: rgb(42, 63, 95); fill-opacity: 1; white-space: pre; opacity: 1;" transform="translate(0,133.5)">1000</text></g><g class="y2tick"><text text-anchor="start" x="526.78" y="4.199999999999999" style="font-family: 'Open Sans', verdana, arial, sans-serif; font-size: 12px; fill: rgb(42, 63, 95); fill-opacity: 1; white-space: pre; opacity: 1;" transform="translate(0,82.43)">1500</text></g><g class="y2tick"><text text-anchor="start" x="526.78" y="4.199999999999999" style="font-family: 'Open Sans', verdana, arial, sans-serif; font-size: 12px; fill: rgb(42, 63, 95); fill-opacity: 1; white-space: pre; opacity: 1;" transform="translate(0,31.35)">2000</text></g></g></g></g><g class="subplot xy2"/></g><g class="polarlayer"/><g class="smithlayer"/><g class="ternarylayer"/><g class="geolayer"/><g class="funnelarealayer"/><g class="pielayer"/><g class="iciclelayer"/><g class="treemaplayer"/><g class="sunburstlayer"/><g class="glimages"/><defs id="topdefs-d9d0b1"><g class="clips"/><clipPath id="legendd9d0b1"><rect width="123" height="48" x="0" y="0"/></clipPath></defs><g class="layer-above"><g class="imagelayer"/><g class="shapelayer"/></g><g class="infolayer"><g class="legend" pointer-events="all" transform="translate(564.74,20)"><rect class="bg" shape-rendering="crispEdges" width="123" height="48" x="0" y="0" style="stroke: rgb(68, 68, 68); stroke-opacity: 1; fill: rgb(255, 255, 255); fill-opacity: 1; stroke-width: 0px;"/><g class="scrollbox" transform="" clip-path="url(#legendd9d0b1)"><g class="groups"><g class="traces" transform="translate(0,14.5)" style="opacity: 1;"><text class="legendtext" text-anchor="start" x="40" y="4.680000000000001" style="font-family: 'Open Sans', verdana, arial, sans-serif; font-size: 12px; fill: rgb(42, 63, 95); fill-opacity: 1; white-space: pre;">Cost</text><g class="layers" style="opacity: 1;"><g class="legendfill"/><g class="legendlines"><path class="js-line" d="M5,0h30" style="fill: none; stroke: rgb(99, 110, 250); stroke-opacity: 1; stroke-width: 2px;"/></g><g class="legendsymbols"><g class="legendpoints"/></g></g><rect class="legendtoggle" x="0" y="-9.5" width="117.265625" height="19" style="fill: rgb(0, 0, 0); fill-opacity: 0;"/></g><g class="traces" transform="translate(0,33.5)" style="opacity: 1;"><text class="legendtext" text-anchor="start" x="40" y="4.680000000000001" style="font-family: 'Open Sans', verdana, arial, sans-serif; font-size: 12px; fill: rgb(42, 63, 95); fill-opacity: 1; white-space: pre;">Temperature</text><g class="layers" style="opacity: 1;"><g class="legendfill"/><g class="legendlines"><path class="js-line" d="M5,0h30" style="fill: none; stroke: rgb(239, 85, 59); stroke-opacity: 1; stroke-width: 2px;"/></g><g class="legendsymbols"><g class="legendpoints"/></g></g><rect class="legendtoggle" x="0" y="-9.5" width="117.265625" height="19" style="fill: rgb(0, 0, 0); fill-opacity: 0;"/></g></g></g><rect class="scrollbar" rx="20" ry="3" width="0" height="0" x="0" y="0" style="fill: rgb(128, 139, 164); fill-opacity: 1;"/></g><g class="g-gtitle"/><g class="g-xtitle"><text class="xtitle" x="296.89" y="287.8" text-anchor="middle" style="font-family: 'Open Sans', verdana, arial, sans-serif; font-size: 14px; fill: rgb(42, 63, 95); opacity: 1; font-weight: normal; white-space: pre;">Iterations</text></g><g class="g-ytitle" transform="translate(1.7998046875,0)"><text class="ytitle" transform="rotate(-90,12.200000000000003,133.5)" x="12.200000000000003" y="133.5" text-anchor="middle" style="font-family: 'Open Sans', verdana, arial, sans-serif; font-size: 14px; fill: rgb(42, 63, 95); opacity: 1; font-weight: normal; white-space: pre;">Cost</text></g><g class="g-y2title"><text class="y2title" transform="rotate(-90,582.471875,133.5)" x="582.471875" y="133.5" text-anchor="middle" style="font-family: 'Open Sans', verdana, arial, sans-serif; font-size: 14px; fill: rgb(42, 63, 95); opacity: 1; font-weight: normal; white-space: pre;">Temperature</text></g></g></svg>