<svg class="main-svg" xmlns="http://www.w3.org/2000/svg" xmlns:xlink="http://www.w3.org/1999/xlink" width="700" height="300" style="" viewBox="0 0 700 300"><rect x="0" y="0" width="700" height="300" style="fill: rgb(255, 255, 255); fill-opacity: 1;"/><defs id="defs-78ba6c"><g class="clips"><clipPath id="clip78ba6cxyplot" class="plotclip"><rect width="448.38" height="227"/></clipPath><clipPath id="clip78ba6cxy2plot" class="plotclip"><rect width="448.38" height="227"/></clipPath><clipPath class="axesclip" id="clip78ba6cx"><rect x="78" y="0" width="448.38" height="300"/></clipPath><clipPath class="axesclip" id="clip78ba6cy"><rect x="0" y="20" width="700" height="227"/></clipPath><clipPath class="axesclip" id="clip78ba6cxy"><rect x="78" y="20" width="448.38" height="227"/></clipPath><clipPath class="axesclip" id="clip78ba6cy2"><rect x="0" y="20" width="700" height="227"/></clipPath><clipPath class="axesclip" id="clip78ba6cxy2"><rect x="78" y="20" width="448.38" height="227"/></clipPath></g><g class="gradients"/><g class="patterns"/></defs><g class="bglayer"><rect class="bg" x="78" y="20" width="448.38" height="227" style="fill: rgb(229, 236, 246); fill-opacity: 1; stroke-width: 0;"/></g><g class="layer-below"><g class="imagelayer"/><g class="shapelayer"/></g><g class="cartesianlayer"><g class="subplot xy"><g class="layer-subplot"><g class="shapelayer"/><g class="imagelayer"/></g><g class="gridlayer"><g class="x"><path class="xgrid crisp" transform="translate(152.49,0)" d="M0,20v227" style="stroke: rgb(255, 255, 255); stroke-opacity: 1; stroke-width: 1px;"/><path class="xgrid crisp" transform="translate(226.99,0)" d="M0,20v227" style="stroke: rgb(255, 255, 255); stroke-opacity: 1; stroke-width: 1px;"/><path class="xgrid crisp" transform="translate(301.48,0)" d="M0,20v227" style="stroke: rgb(255, 255, 255); stroke-opacity: 1; stroke-width: 1px;"/><path class="xgrid crisp" transform="translate(375.98,0)" d="M0,20v227" style="stroke: rgb(255, 255, 255); stroke-opacity: 1; stroke-width: 1px;"/><path class="xgrid crisp" transform="translate(450.47,0)" d="M0,20v227" style="stroke: rgb(255, 255, 255); stroke-opacity: 1; stroke-width: 1px;"/><path class="xgrid crisp" transform="translate(524.96,0)" d="M0,20v227" style="stroke: rgb(255, 255, 255); stroke-opacity: 1; stroke-width: 1px;"/></g><g class="y"><path class="ygrid crisp" transform="translate(0,238.45)" d="M78,0h448.38" style="stroke: rgb(255, 255, 255); stroke-opacity: 1; stroke-width: 1px;"/><path class="ygrid crisp" transform="translate(0,171.19)" d="M78,0h448.38" style="stroke: rgb(255, 255, 255); stroke-opacity: 1; stroke-width: 1px;"/><path class="ygrid crisp" transform="translate(0,103.93)" d="M78,0h448.38" style="stroke: rgb(255, 255, 255); stroke-opacity: 1; stroke-width: 1px;"/></g><g class="y2"><path class="y2grid crisp" transform="translate(0,184.58)" d="M78,0h448.38" style="stroke: rgb(255, 255, 255); stroke-opacity: 1; stroke-width: 1px;"/><path class="y2grid crisp" transform="translate(0,133.5)" d="M78,0h448.38" style="stroke: rgb(255, 255, 255); stroke-opacity: 1; stroke-width: 1px;"/><path class="y2grid crisp" transform="translate(0,82.43)" d="M78,0h448.38" style="stroke: rgb(255, 255, 255); stroke-opacity: 1; stroke-width: 1px;"/><path class="y2grid crisp" transform="translate(0,31.35)" d="M78,0h448.38" style="stroke: rgb(255, 255, 255); stroke-opacity: 1; stroke-width: 1px;"/></g></g><g class="zerolinelayer"><path class="xzl zl crisp" transform="translate(78,0)" d="M0,20v227" style="stroke: rgb(255, 255, 255); stroke-opacity: 1; stroke-width: 2px;"/><path class="yzl zl crisp" transform="translate(0,36.68)" d="M78,0h448.38" style="stroke: rgb(255, 255, 255); stroke-opacity: 1; stroke-width: 2px;"/><path class="y2zl zl crisp" transform="translate(0,235.65)" d="M78,0h448.38" style="stroke: rgb(255, 255, 255); stroke-opacity: 1; stroke-width: 2px;"/></g><path class="xlines-below"/><path class="ylines-below"/><g class="overlines-below"><path class="xy2-x"/><path class="xy2-y"/></g><g class="xaxislayer-below"/><g class="yaxislayer-below"/><g class="overaxes-below"><g class="xy2-x"/><g class="xy2-y"/></g><g class="plot" transform="translate(78,20)" clip-path="url(#clip78ba6cxyplot)"><g class="scatterlayer mlayer"><g class="trace scatter tracee38df9" style="stroke-miterlimit: 2; opacity: 1;"><g class="fills"/><g class="errorbars"/><g class="lines"><path class="js-line" d="M0,18.54L0.07,20.11L0.52,15.87L0.6,17.18L0.67,15.21L0.82,16.53L1.04,13.07L1.12,11.92L1.79,11.35L2.01,14.56L2.09,13.79L3.13,20.42L3.43,18.53L3.5,18.46L3.87,15.77L4.17,18.53L4.25,17.53L4.32,18.94L4.77,16.11L5.07,17.51L5.14,18.9L5.44,21.39L5.74,16.89L5.81,17.03L6.03,16.2L6.41,18.44L6.48,18.82L7.08,22.09L7.3,20.85L7.37,19.33L7.82,19.98L8.12,17.55L8.19,18.62L8.27,19.56L8.64,18.63L8.72,19.53L8.79,20.46L9.16,17.5L9.24,17.67L9.31,17.03L9.76,18.43L9.83,17.35L9.91,16.68L9.98,17.09L10.28,15.33L10.58,16.51L10.65,16.53L11.92,22.66L11.99,22.21L13.26,25.3L13.33,24.73L13.41,24.12L13.48,23.78L13.86,25.39L13.93,25.77L14.75,28.01L14.82,27.6L15.27,28.47L15.49,27.52L15.57,27.98L15.64,28.22L15.94,27.71L17.21,30.84L17.51,30.58L17.58,29.99L17.73,29.74L18.77,32.14L18.85,31.52L19.96,35.15L20.04,34.65L21.08,37.08L21.16,37.53L22.35,39.01L22.42,39.16L23.76,42.07L23.84,41.96L24.14,42.3L24.29,42.06L24.36,41.42L25.18,42.41L25.25,42.81L30.47,50.96L30.54,51L31.73,53.54L31.81,53.09L33.45,55.56L33.52,55.64L36.13,59.79L36.2,59.81L38.66,64.77L38.74,64.93L40.08,66.23L40.15,66.33L42.09,69.63L42.16,69.75L43.88,71.31L43.95,71.32L46.63,75.05L46.71,75.06L51.92,81.13L52,81.15L53.04,82.27L53.11,82.32L54.68,83.94L54.75,84L57.73,87.72L57.81,87.8L60.49,90.88L60.56,90.96L62.13,93.13L62.2,93.3L62.87,94.32L62.95,94.53L63.77,95.46L63.84,95.66L69.06,101.59L69.13,101.59L71.44,103.93L71.51,104.08L73.53,106.35L73.6,106.38L74.72,107.61L74.79,107.63L87.38,118.62L87.46,118.76L89.09,120.5L89.17,120.54L93.12,124.07L93.19,124.27L94.61,125.5L94.68,125.51L96.02,126.32L96.1,126.53L97.44,127.93L97.51,127.93L98.78,129.02L98.85,129.22L100.87,130.61L100.94,130.71L102.21,131.96L102.28,132.17L103.62,133.09L103.7,133.23L111.82,138.59L111.89,138.77L113.98,140.27L114.05,140.57L118.59,143.44L118.67,143.55L120.31,144.4L120.38,144.43L121.57,145.25L121.65,145.33L123.96,146.52L124.03,146.61L129.84,150.3L129.92,150.41L131.71,151.55L131.78,151.74L134.54,153.03L134.61,153.09L143.48,158.71L143.55,158.71L146.6,160.26L146.68,160.26L152.19,163.13L152.27,163.14L154.13,163.69L154.2,163.9L156.66,164.62L156.74,164.75L171.19,168.9L171.26,168.9L174.54,169.85L174.61,169.87L176.25,170.58L176.33,170.65L179.68,171.73L179.75,171.9L187.58,175.27L187.65,175.27L191.67,176.46L191.75,176.56L197.48,178.07L197.56,178.07L200.84,178.73L200.91,178.86L201.95,179.12L202.03,179.12L204.71,180.02L204.78,180.02L206.94,180.77L207.02,180.8L211.49,181.45L211.56,181.68L214.92,182.38L214.99,182.48L217.15,182.93L217.22,182.94L218.34,183.45L218.42,183.45L231.97,187.05L232.05,187.22L233.02,187.59L233.09,187.62L255.81,191.62L255.89,191.62L264.6,192.35L264.68,192.39L266.47,192.75L266.54,192.75L272.2,193.45L272.28,193.52L275.7,194.25L275.78,194.25L281.44,194.97L281.51,195.04L298.8,198.04L298.87,198.1L303.71,198.84L303.79,198.89L311.61,200.09L311.68,200.21L316.6,200.76L316.67,200.76L328.89,202.27L328.97,202.35L336.12,203.1L336.19,203.11L343.57,203.83L343.64,203.9L345.35,203.98L345.43,203.99L351.98,204.66L352.06,204.82L358.02,205.54L358.09,205.67L364.87,206.39L364.95,206.45L368,207.17L368.08,207.23L375.38,207.97L375.45,208.04L377.98,208.27L378.06,208.27L383.12,208.92L383.2,209.04L391.02,209.79L391.09,209.83L397.35,210.56L397.43,210.6L402.94,211.31L403.01,211.39L406.07,211.83L406.14,211.83L417.76,212.5L417.84,212.61L424.77,213.34L424.84,213.44L439.81,214.15L439.89,214.24L441.75,214.5L441.82,214.5L444.06,214.74L444.13,214.74L448.01,215.53L448.08,215.62L448.38,215.65" style="vector-effect: non-scaling-stroke; fill: none; stroke: rgb(99, 110, 250); stroke-opacity: 1; stroke-width: 2px; opacity: 1;"/></g><g class="points"/><g class="text"/></g></g></g><g class="overplot"><g class="xy2" transform="translate(78,20)" clip-path="url(#clip78ba6cxy2plot)"><g class="scatterlayer mlayer"><g class="trace scatter trace6c958b" style="stroke-miterlimit: 2; opacity: 1;"><g class="fills"/><g class="errorbars"/><g class="lines"><path class="js-line" d="M0,11.35L3.5,75.59L3.58,76.71L7.08,120.4L7.15,121.16L11.77,158.22L11.84,158.68L16.46,181.03L16.54,181.31L20.19,192.48L20.26,192.67L25.33,202.34L25.4,202.44L29.57,207.23L29.65,207.3L34.94,210.93L35.01,210.96L40.52,213.06L40.6,213.08L46.63,214.31L46.71,214.32L59.89,215.33L59.97,215.33L75.09,215.59L75.16,215.59L448.38,215.65" style="vector-effect: non-scaling-stroke; fill: none; stroke: rgb(239, 85, 59); stroke-opacity: 1; stroke-width: 2px; opacity: 1;"/></g><g class="points"/><g class="text"/></g></g></g></g><path class="xlines-above crisp" d="M0,0" style="fill: none;"/><path class="ylines-above crisp" d="M0,0" style="fill: none;"/><g class="overlines-above"><path class="xy2-x crisp" d="M0,0" style="fill: none;"/><path class="xy2-y crisp" d="M0,0" style="fill: none;"/></g><g class="xaxislayer-above"><g class="xtick"><text text-anchor="middle" x="0" y="260" transform="translate(78,0)" style="font-family: 'Open Sans', verdana, arial, sans-serif; font-size: 12px; fill: rgb(42, 63, 95); fill-opacity: 1; white-space: pre; opacity: 1;">0</text></g><g class="xtick"><text text-anchor="middle" x="0" y="260" style="font-family: 'Open Sans', verdana, arial, sans-serif; font-size: 12px; fill: rgb(42, 63, 95); fill-opacity: 1; white-space: pre; opacity: 1;" transform="translate(152.49,0)">1000</text></g><g class="xtick"><text text-anchor="middle" x="0" y="260" style="font-family: 'Open Sans', verdana, arial, sans-serif; font-size: 12px; fill: rgb(42, 63, 95); fill-opacity: 1; white-space: pre; opacity: 1;" transform="translate(226.99,0)">2000</text></g><g class="xtick"><text text-anchor="middle" x="0" y="260" style="font-family: 'Open Sans', verdana, arial, sans-serif; font-size: 12px; fill: rgb(42, 63, 95); fill-opacity: 1; white-space: pre; opacity: 1;" transform="translate(301.48,0)">3000</text></g><g class="xtick"><text text-anchor="middle" x="0" y="260" style="font-family: 'Open Sans', verdana, arial, sans-serif; font-size: 12px; fill: rgb(42, 63, 95); fill-opacity: 1; white-space: pre; opacity: 1;" transform="translate(375.98,0)">4000</text></g><g class="xtick"><text text-anchor="middle" x="0" y="260" style="font-family: 'Open Sans', verdana, arial, sans-serif; font-size: 12px; fill: rgb(42, 63, 95); fill-opacity: 1; white-space: pre; opacity: 1;" transform="translate(450.47,0)">5000</text></g><g class="xtick"><text text-anchor="middle" x="0" y="260" style="font-family: 'Open Sans', verdana, arial, sans-serif; font-size: 12px; fill: rgb(42, 63, 95); fill-opacity: 1; white-space: pre; opacity: 1;" transform="translate(524.96,0)">6000</text></g></g><g class="yaxislayer-above"><g class="ytick"><text text-anchor="end" x="77" y="4.199999999999999" transform="translate(0,238.45)" style="font-family: 'Open Sans', verdana, arial, sans-serif; font-size: 12px; fill: rgb(42, 63, 95); fill-opacity: 1; white-space: pre; opacity: 1;">−300k</text></g><g class="ytick"><text text-anchor="end" x="77" y="4.199999999999999" style="font-family: 'Open Sans', verdana, arial, sans-serif; font-size: 12px; fill: rgb(42, 63, 95); fill-opacity: 1; white-space: pre; opacity: 1;" transform="translate(0,171.19)">−200k</text></g><g class="ytick"><text text-anchor="end" x="77" y="4.199999999999999" style="font-family: 'Open Sans', verdana, arial, sans-serif; font-size: 12px; fill: rgb(42, 63, 95); fill-opacity: 1; white-space: pre; opacity: 1;" transform="translate(0,103.93)">−100k</text></g><g class="ytick"><text text-anchor="end" x="77" y="4.199999999999999" style="font-family: 'Open Sans', verdana, arial, sans-serif; font-size: 12px; fill: rgb(42, 63, 95); fill-opacity: 1; white-space: pre; opacity: 1;" transform="translate(0,36.68)">0</text></g></g><g class="overaxes-above"><g class="xy2-x"/><g class="xy2-y"><g class="y2tick"><text text-anchor="start" x="527.38" y="4.199999999999999" transform="translate(0,235.65)" style="font-family: 'Open Sans', verdana, arial, sans-serif; font-size: 12px; fill: rgb(42, 63, 95); fill-opacity: 1; white-space: pre; opacity: 1;">0</text></g><g class="y2tick"><text text-anchor="start" x="527.38" y="4.199999999999999" style="font-family: 'Open Sans', verdana, arial, sans-serif; font-size: 12px; fill: rgb(42, 63, 95); fill-opacity: 1; white-space: pre; opacity: 1;" transform="translate(0,184.58)">500</text></g><g class="y2tick"><text text-anchor="start" x="527.38" y="4.199999999999999" style="font-family: 'Open Sans', verdana, arial, sans-serif; font-size: 12px; fill: rgb(42, 63, 95); fill-opacity: 1; white-space: pre; opacity: 1;" transform="translate(0,133.5)">1000</text></g><g class="y2tick"><text text-anchor="start" x="527.38" y="4.199999999999999" style="font-family: 'Open Sans', verdana, arial, sans-serif; font-size: 12px; fill: rgb(42, 63, 95); fill-opacity: 1; white-space: pre; opacity: 1;" transform="translate(0,82.43)">1500</text></g><g class="y2tick"><text text-anchor="start" x="527.38" y="4.199999999999999" style="font-family: 'Open Sans', verdana, arial, sans-serif; font-size: 12px; fill: rgb(42, 63, 95); fill-opacity: 1; white-space: pre; opacity: 1;" transform="translate(0,31.35)">2000</text></g></g></g></g><g class="subplot xy2"/></g><g class="polarlayer"/><g class="smithlayer"/><g class="ternarylayer"/><g class="geolayer"/><g class="funnelarealayer"/><g class="pielayer"/><g class="iciclelayer"/><g class="treemaplayer"/><g class="sunburstlayer"/><g class="glimages"/><defs id="topdefs-78ba6c"><g class="clips"/><clipPath id="legend78ba6c"><rect width="123" height="48" x="0" y="0"/></clipPath></defs><g class="layer-above"><g class="imagelayer"/><g class="shapelayer"/></g><g class="infolayer"><g class="legend" pointer-events="all" transform="translate(564.54,20)"><rect class="bg" shape-rendering="crispEdges" width="123" height="48" x="0" y="0" style="stroke: rgb(68, 68, 68); stroke-opacity: 1; fill: rgb(255, 255, 255); fill-opacity: 1; stroke-width: 0px;"/><g class="scrollbox" transform="" clip-path="url(#legend78ba6c)"><g class="groups"><g class="traces" transform="translate(0,14.5)" style="opacity: 1;"><text class="legendtext" text-anchor="start" x="40" y="4.680000000000001" style="font-family: 'Open Sans', verdana, arial, sans-serif; font-size: 12px; fill: rgb(42, 63, 95); fill-opacity: 1; white-space: pre;">Cost</text><g class="layers" style="opacity: 1;"><g class="legendfill"/><g class="legendlines"><path class="js-line" d="M5,0h30" style="fill: none; stroke: rgb(99, 110, 250); stroke-opacity: 1; stroke-width: 2px;"/></g><g class="legendsymbols"><g class="legendpoints"/></g></g><rect class="legendtoggle" x="0" y="-9.5" width="117.265625" height="19" style="fill: rgb(0, 0, 0); fill-opacity: 0;"/></g><g class="traces" transform="translate(0,33.5)" style="opacity: 1;"><text class="legendtext" text-anchor="start" x="40" y="4.680000000000001" style="font-family: 'Open Sans', verdana, arial, sans-serif; font-size: 12px; fill: rgb(42, 63, 95); fill-opacity: 1; white-space: pre;">Temperature</text><g class="layers" style="opacity: 1;"><g class="legendfill"/><g class="legendlines"><path class="js-line" d="M5,0h30" style="fill: none; stroke: rgb(239, 85, 59); stroke-opacity: 1; stroke-width: 2px;"/></g><g class="legendsymbols"><g class="legendpoints"/></g></g><rect class="legendtoggle" x="0" y="-9.5" width="117.265625" height="19" style="fill: rgb(0, 0, 0); fill-opacity: 0;"/></g></g></g><rect class="scrollbar" rx="20" ry="3" width="0" height="0" x="0" y="0" style="fill: rgb(128, 139, 164); fill-opacity: 1;"/></g><g class="g-gtitle"/><g class="g-xtitle"><text class="xtitle" x="302.19" y="287.8" text-anchor="middle" style="font-family: 'Open Sans', verdana, arial, sans-serif; font-size: 14px; fill: rgb(42, 63, 95); opacity: 1; font-weight: normal; white-space: pre;">Iterations</text></g><g class="g-ytitle" transform="translate(1.6123046875,0)"><text class="ytitle" transform="rotate(-90,12.387500000000003,133.5)" x="12.387500000000003" y="133.5" text-anchor="middle" style="font-family: 'Open Sans', verdana, arial, sans-serif; font-size: 14px; fill: rgb(42, 63, 95); opacity: 1; font-weight: normal; white-space: pre;">Cost</text></g><g class="g-y2title"><text class="y2title" transform="rotate(-90,583.08125,133.5)" x="583.08125" y="133.5" text-anchor="middle" style="font-family: 'Open Sans', verdana, arial, sans-serif; font-size: 14px; fill: rgb(42, 63, 95); opacity: 1; font-weight: normal; white-space: pre;">Temperature</text></g></g></svg>