<svg class="main-svg" xmlns="http://www.w3.org/2000/svg" xmlns:xlink="http://www.w3.org/1999/xlink" width="700" height="300" style="" viewBox="0 0 700 300"><rect x="0" y="0" width="700" height="300" style="fill: rgb(255, 255, 255); fill-opacity: 1;"/><defs id="defs-281dca"><g class="clips"><clipPath id="clip281dcaxyplot" class="plotclip"><rect width="448.38" height="227"/></clipPath><clipPath id="clip281dcaxy2plot" class="plotclip"><rect width="448.38" height="227"/></clipPath><clipPath class="axesclip" id="clip281dcax"><rect x="78" y="0" width="448.38" height="300"/></clipPath><clipPath class="axesclip" id="clip281dcay"><rect x="0" y="20" width="700" height="227"/></clipPath><clipPath class="axesclip" id="clip281dcaxy"><rect x="78" y="20" width="448.38" height="227"/></clipPath><clipPath class="axesclip" id="clip281dcay2"><rect x="0" y="20" width="700" height="227"/></clipPath><clipPath class="axesclip" id="clip281dcaxy2"><rect x="78" y="20" width="448.38" height="227"/></clipPath></g><g class="gradients"/><g class="patterns"/></defs><g class="bglayer"><rect class="bg" x="78" y="20" width="448.38" height="227" style="fill: rgb(229, 236, 246); fill-opacity: 1; stroke-width: 0;"/></g><g class="layer-below"><g class="imagelayer"/><g class="shapelayer"/></g><g class="cartesianlayer"><g class="subplot xy"><g class="layer-subplot"><g class="shapelayer"/><g class="imagelayer"/></g><g class="gridlayer"><g class="x"><path class="xgrid crisp" transform="translate(186.57999999999998,0)" d="M0,20v227" style="stroke: rgb(255, 255, 255); stroke-opacity: 1; stroke-width: 1px;"/><path class="xgrid crisp" transform="translate(295.15999999999997,0)" d="M0,20v227" style="stroke: rgb(255, 255, 255); stroke-opacity: 1; stroke-width: 1px;"/><path class="xgrid crisp" transform="translate(403.74,0)" d="M0,20v227" style="stroke: rgb(255, 255, 255); stroke-opacity: 1; stroke-width: 1px;"/><path class="xgrid crisp" transform="translate(512.3199999999999,0)" d="M0,20v227" style="stroke: rgb(255, 255, 255); stroke-opacity: 1; stroke-width: 1px;"/></g><g class="y"><path class="ygrid crisp" transform="translate(0,224.61)" d="M78,0h448.38" style="stroke: rgb(255, 255, 255); stroke-opacity: 1; stroke-width: 1px;"/><path class="ygrid crisp" transform="translate(0,79.28)" d="M78,0h448.38" style="stroke: rgb(255, 255, 255); stroke-opacity: 1; stroke-width: 1px;"/></g><g class="y2"><path class="y2grid crisp" transform="translate(0,184.61)" d="M78,0h448.38" style="stroke: rgb(255, 255, 255); stroke-opacity: 1; stroke-width: 1px;"/><path class="y2grid crisp" transform="translate(0,133.53)" d="M78,0h448.38" style="stroke: rgb(255, 255, 255); stroke-opacity: 1; stroke-width: 1px;"/><path class="y2grid crisp" transform="translate(0,82.44)" d="M78,0h448.38" style="stroke: rgb(255, 255, 255); stroke-opacity: 1; stroke-width: 1px;"/><path class="y2grid crisp" transform="translate(0,31.35)" d="M78,0h448.38" style="stroke: rgb(255, 255, 255); stroke-opacity: 1; stroke-width: 1px;"/></g></g><g class="zerolinelayer"><path class="xzl zl crisp" transform="translate(78,0)" d="M0,20v227" style="stroke: rgb(255, 255, 255); stroke-opacity: 1; stroke-width: 2px;"/><path class="yzl zl crisp" transform="translate(0,151.94)" d="M78,0h448.38" style="stroke: rgb(255, 255, 255); stroke-opacity: 1; stroke-width: 2px;"/><path class="y2zl zl crisp" transform="translate(0,235.7)" d="M78,0h448.38" style="stroke: rgb(255, 255, 255); stroke-opacity: 1; stroke-width: 2px;"/></g><path class="xlines-below"/><path class="ylines-below"/><g class="overlines-below"><path class="xy2-x"/><path class="xy2-y"/></g><g class="xaxislayer-below"/><g class="yaxislayer-below"/><g class="overaxes-below"><g class="xy2-x"/><g class="xy2-y"/></g><g class="plot" transform="translate(78,20)" clip-path="url(#clip281dcaxyplot)"><g class="scatterlayer mlayer"><g class="trace scatter trace7349c3" style="stroke-miterlimit: 2; opacity: 1;"><g class="fills"/><g class="errorbars"/><g class="lines"><path class="js-line" d="M0,29.75L0.33,33.93L0.81,18.99L0.87,19.46L0.92,16.9L1.14,33.15L1.52,23.06L1.57,23.47L1.95,23.38L2.01,40.71L2.33,33.85L2.39,28.88L2.5,26.03L2.55,31.03L2.77,39.28L3.04,24.02L3.31,29.75L3.37,29.95L3.8,18.97L4.07,32.07L4.13,23.56L4.18,29.84L4.56,34.69L4.72,13.56L4.94,25.16L4.99,31L5.43,21.17L5.7,31.11L5.81,21.2L5.86,19.92L6.57,38.41L6.62,35.1L6.68,29.52L6.73,29.92L6.79,38.58L6.89,40.44L7,21.15L7.6,21.67L7.65,21.15L7.93,31.38L8.09,27.54L8.14,22.45L8.2,22.92L8.25,17.05L8.69,41.35L9.17,34.34L9.23,25.5L9.28,25.68L9.34,22.51L9.45,17.92L10.15,29.98L10.21,27.42L10.37,34.08L10.59,20.8L10.91,25.91L10.97,27.16L11.13,37.77L11.29,33.73L11.35,25.07L11.51,20.42L11.94,29.66L12.05,21.93L12.11,24.37L12.16,24.69L12.22,30.77L12.32,34.83L12.38,21.15L12.81,29.31L12.87,26.87L12.98,19.26L13.41,35.62L13.63,24.84L13.68,30.33L13.74,39.86L14.17,20.65L14.39,25.36L14.44,28.35L14.5,31.64L14.66,19.9L15.04,29.28L15.09,19.4L15.64,17.37L15.96,37.19L16.02,36.43L16.56,38.53L16.83,21.7L16.88,29.6L17.1,26.75L17.37,39.95L17.64,32.02L17.7,31.52L17.92,36.03L18.24,25.16L18.3,27.1L18.35,23.67L18.51,20.33L18.84,33.73L19.06,22.13L19.11,27.16L19.38,38.03L19.49,23.38L19.82,31.61L19.87,26.96L19.92,25.94L20.14,31L20.2,36.35L20.85,22.98L21.12,24.34L21.17,23.64L21.61,37.04L21.93,25.8L21.99,23.53L22.04,15.36L22.64,34.72L22.69,29.05L22.75,31L23.4,14.52L23.51,16.96L23.56,21.58L23.67,25.33L24.1,16.12L24.27,18.01L24.32,22.6L24.48,17.63L24.86,29.89L25.08,20.91L25.14,32.54L25.46,33.09L25.9,27.77L25.95,28.03L26,28.56L26.17,18.99L26.66,26.17L26.71,31.75L26.93,34.05L27.04,22.57L27.31,27.6L27.36,33.61L27.42,33.32L27.47,35.79L27.52,29.02L27.58,31L27.85,19.17L28.01,20.56L28.07,22.13L28.72,32.71L28.88,29.98L28.94,26.43L29.15,23.62L29.43,33.24L29.48,31.11L29.53,32.92L29.59,38.09L29.91,25.16L30.24,30.65L30.29,30.33L30.46,22.19L30.67,35.24L30.89,31.2L30.95,30.65L31.38,39.72L31.6,25.16L31.65,26.38L31.71,21.35L32.36,34.86L32.57,28.27L32.63,25.82L32.68,25.27L32.79,31.9L32.85,30.74L32.9,32.34L33.01,23.56L33.39,34.4L33.44,32.39L33.5,36.23L33.61,37.45L33.93,22.83L34.37,27.1L34.42,27.77L34.85,21.23L35.23,36.03L35.29,33.7L35.34,34.34L35.45,26.58L35.51,24.89L35.67,19.81L35.99,36.93L36.1,32.45L36.16,35.07L36.32,38.64L36.86,24.11L36.92,27.34L36.97,29.17L37.19,37.77L37.41,24.37L37.57,26.87L37.62,24.81L38.6,41.14L38.65,35.82L38.71,24.98L39.36,23.85L39.52,40.21L39.58,37.07L39.9,37.94L40.5,17.37L40.55,20.91L40.61,20.24L40.66,29.54L40.72,26.78L40.99,37.39L41.37,31.26L41.42,29.2L41.48,28.59L41.53,30.39L41.59,36.23L41.69,37.16L41.75,32.68L41.86,36.26L41.91,27.95L42.13,36.4L42.4,25.5L42.67,33.38L42.73,31L42.78,30.13L43,38.96L43.05,36.78L43.11,39.86L43.92,20.07L43.97,24.78L44.03,21.41L44.46,31.75L44.52,30.45L44.57,34.66L44.9,25.48L45.22,36.46L45.28,38.24L45.44,37.51L45.49,27.39L45.66,19.23L45.98,31.29L46.15,25.74L46.2,32.54L47.12,17.25L47.18,18.99L47.67,35.79L47.99,29.46L48.05,30.39L48.26,29.72L48.75,40.21L48.86,36.9L48.92,35.15L49.24,40.07L49.51,32.74L49.57,33.12L49.62,32.92L49.73,30.36L50.06,43.15L50.33,32.71L50.38,28.53L50.6,33.9L50.71,28.32L50.76,23.82L50.98,29.17L51.03,31.2L51.14,34.14L51.3,24.57L51.79,30.24L51.85,31.14L52.06,37.13L52.23,28.82L52.28,30.85L52.34,37.83L52.44,38.24L52.5,32.97L52.72,27.02L53.31,42.83L53.42,41.55L53.48,39.86L53.58,41.67L54.34,28.59L54.45,32.45L54.51,33.38L54.62,27.57L55,33.56L55.05,35.45L55.16,36.84L55.27,29.11L55.65,33.53L55.7,36.06L56.08,42.65L56.24,34.4L56.35,35.24L56.41,30.42L56.57,35.47L57.11,29.92L57.17,30.16L57.49,34.81L57.66,25.65L57.76,34.72L57.82,39.05L57.93,44.75L58.09,32.8L58.52,37.89L58.58,32.68L58.85,26.32L58.96,34.98L59.01,35.39L59.23,30.13L59.61,38.64L59.72,36.67L59.77,39.92L59.94,40.56L59.99,38.29L60.1,40.53L60.15,36.75L60.26,37.6L60.42,32.1L60.59,34.49L60.64,31.41L60.86,30.07L61.24,41.69L61.4,34.28L61.46,30.79L61.67,37.42L61.89,26.99L62.05,28.73L62.11,24.75L62.38,11.35L62.81,27.45L62.87,32.36L63.25,23.94L63.52,33.35L63.63,27.95L63.68,30.82L64.06,36.55L64.22,29.2L64.28,29.92L64.33,26.06L64.82,34.4L65.15,31.09L65.2,29.11L65.26,25.33L65.69,38.9L65.85,35.24L65.91,35.71L65.96,35.91L66.02,32.07L66.56,26.7L67.1,45.36L67.16,38.99L67.27,30.88L67.81,41.87L67.97,34.08L68.03,30.53L68.46,37.51L68.68,32.02L68.73,30.5L68.89,32.45L69,28.03L69.06,26.81L69.22,29.11L69.33,27.98L69.38,22.54L70.25,31.7L70.31,31.87L70.36,31.23L70.52,38.21L70.58,39.66L70.69,42.16L70.74,31.43L71.55,40.59L71.61,36.64L71.88,43.96L72.37,42.19L72.42,38.61L72.59,26.38L72.91,34.92L72.97,35.18L73.13,33.38L73.51,42.8L73.73,40.79L73.78,35.1L74.43,43.76L74.49,38.53L74.7,42.39L75.25,34.28L75.3,34.83L75.57,39.25L75.63,34.72L75.68,35.65L75.73,32.16L76.33,42.33L76.39,40.71L76.44,30.65L76.55,25.59L77.09,36.52L77.15,36.78L77.31,34.63L77.85,49.72L78.07,42.6L78.12,42.51L78.18,42.71L78.23,36.9L78.29,38.26L78.39,28.7L78.88,35.18L78.94,34.11L79.1,28.61L79.64,35.04L79.7,40.97L79.91,44.02L80.13,38.29L80.24,39.51L80.29,37.36L80.78,42.01L81,32.95L81.05,38.61L81.22,40.15L81.27,36.49L81.33,36.55L81.38,30.94L81.81,26.93L82.47,45.91L82.52,40.94L82.85,38.82L83.33,44.19L83.39,40.42L83.44,35.65L84.04,42.97L84.15,38.06L84.2,36.99L84.26,37.6L84.53,34.22L84.75,35.24L84.8,34.46L85.34,41.26L85.4,34.83L85.56,42.94L86,42.6L86.05,36.38L86.32,39.31L86.43,32.28L86.76,37.51L86.81,37.19L86.86,34.2L87.35,48.79L87.41,53.73L87.68,58.23L87.95,49.66L88,50.38L88.06,44.46L88.17,42.86L88.49,52.42L88.87,48L88.93,44.72L89.42,46.29L89.58,41.14L89.69,42.71L89.74,43.5L90.66,48.44L90.72,46.61L91.48,52.3L91.53,48.7L91.59,48.29L92.29,42.1L92.35,43.87L92.4,46.93L92.51,45.3L92.89,51.29L93.11,48.32L93.16,46.08L93.49,36L93.92,44.48L93.98,45.41L94.14,48.06L94.52,40.62L94.57,41.05L94.63,40.5L95.12,37.45L95.5,47.27L95.55,44.02L95.6,42.45L96.09,50.47L96.15,48.96L96.31,45.73L96.64,53.47L96.74,47.94L96.8,47.25L97.02,45.73L97.29,52.54L97.5,48.03L97.56,49.48L97.67,51L97.72,52.36L98.05,40.62L98.54,43.9L98.59,45.88L98.81,49.69L99.08,43.26L99.24,47.48L99.3,43.26L99.51,43.03L99.73,49.02L100.16,47.89L100.22,46.17L100.33,46.93L100.54,43.47L100.6,39.34L100.87,37.86L101.14,43.5L101.2,44.16L101.36,48.06L101.47,38.35L101.9,45.73L101.96,43.44L102.01,43.15L102.06,43.64L102.12,47.57L102.61,53.12L102.66,49.63L102.77,48.61L103.42,53.12L103.48,49.31L103.69,45.65L104.35,55.38L104.4,55.56L104.51,58.03L104.56,53.99L104.62,52.94L105,52.07L105.11,56.52L105.21,54.48L105.27,48.96L105.43,45.15L105.81,49.75L106.03,47.3L106.08,47.04L106.14,42.51L106.57,48.61L106.84,43.61L106.9,43.76L107.33,37.94L107.6,41.78L107.66,43.09L107.77,41.2L109.01,60.47L109.34,60.09L109.39,56.26L110.26,48.9L110.32,49.05L110.37,49.13L110.53,48.87L110.59,50.53L110.64,47.42L111.78,59.31L111.84,58.29L111.89,59.45L112,51.2L112.11,52.27L112.16,48.03L113.25,57.56L113.3,57.65L113.9,40.04L114.28,45.79L114.33,47.19L115.2,56.02L115.31,55.35L115.37,50.65L115.53,51.95L115.58,49.92L115.8,51.14L115.85,50.12L116.23,47.59L116.72,54.05L116.78,51.98L117.05,49.92L117.7,61.34L117.75,60.15L117.81,62.36L118.24,54.42L118.35,55.53L118.41,54.92L118.46,53.35L118.89,61.4L118.95,62.13L119.06,62.16L119.87,54.22L119.98,55.82L120.03,56.02L120.25,55.82L120.36,57.36L120.41,50.94L120.79,55.65L121.01,51.05L121.07,48.96L121.72,61.28L121.94,55.18L121.99,51.63L122.15,50.59L122.42,55.5L122.48,57.33L123.02,52.04L123.29,54.13L123.35,55.21L123.4,53.09L123.84,59.57L124,58.58L124.05,57.68L124.16,55.09L125.03,66.46L125.25,64.42L125.3,60.67L125.63,61.66L125.95,51.26L126.39,53.06L126.44,55.06L126.71,57.77L127.09,53.2L127.2,55.59L127.26,56.87L128.02,53.29L128.07,53.61L128.12,53.73L128.94,61.89L129.26,61.49L129.32,59.08L129.37,55.18L130.02,61.23L130.08,61.37L130.24,64.74L130.51,55.59L130.57,55.97L130.95,51.55L131.27,56.26L131.33,54.19L131.38,55.09L132.52,65.3L132.58,65.03L132.63,60.7L133.12,64.57L133.17,62.01L133.72,67.65L133.99,65.88L134.04,61.34L134.42,65L134.48,61.31L134.75,59.66L134.96,63.2L135.07,59.74L135.13,56.49L135.62,56.26L136.16,62.21L136.21,60.62L136.59,58.7L136.97,65.76L137.14,65.09L137.19,62.85L137.46,65.91L137.84,61.52L137.9,61.78L138.22,67.21L138.49,63.12L138.55,57.68L138.66,59.6L138.76,55.56L138.82,50.41L139.85,65.88L139.9,64.45L139.96,61.81L140.12,59.74L140.56,66.17L140.61,63.29L140.67,60.99L141.48,67.79L141.59,65.61L141.64,62.33L141.7,61.69L141.91,67.21L141.97,69.02L142.4,72.97L142.67,70.27L142.73,66.57L143.43,71.08L143.71,70.29L143.76,66.23L143.92,64.92L144.3,70.27L144.52,67.74L144.57,66.66L144.74,65.82L145.5,77.71L145.77,74.39L145.82,72.15L146.04,70L146.58,73.72L146.64,73.49L146.69,72.04L147.45,76.83L147.61,75.44L147.67,75.61L147.78,76.86L148.05,73.7L148.43,76.54L148.48,75.93L148.92,75.73L149.41,80.47L149.46,79.3L149.51,78.08L149.62,71.2L150.27,74.16L150.33,74.31L150.44,75.64L150.82,70.03L150.98,72.62L151.03,72.33L151.96,82.24L152.01,82.24L152.17,79.54L152.61,83.75L152.66,81.14L152.72,80.96L152.77,81.63L152.88,73.26L153.04,75.21L153.1,75.56L153.15,72.65L153.48,75.64L153.8,75.32L153.86,75.5L154.45,80.76L154.83,78.37L154.89,78.64L155.49,83.29L155.54,78.96L156.46,85.7L156.52,86.66L156.68,88.11L156.9,82.68L157.11,84.51L157.17,84.62L157.28,86.05L157.33,84.19L157.39,82.04L157.66,83.11L157.93,75.24L158.2,76.98L158.25,77.74L158.36,77.5L158.96,81.89L159.02,79.86L159.07,77.1L159.29,78.84L159.34,78.03L159.4,79.71L159.78,81.51L160.21,77.15L160.26,76.49L162.06,89.04L162.44,87.88L162.49,85.93L163.36,75.61L163.52,76.51L163.58,77.44L164.99,86.31L165.15,85.73L165.2,83.81L165.58,84.54L165.69,81.57L166.02,82.91L166.07,82.94L166.18,80.21L166.78,83.43L166.83,83.46L167.38,81.78L167.43,82.04L167.48,83.14L167.54,81.66L167.92,86.22L168.08,85.7L168.14,86.02L168.24,86.48L168.3,83.81L168.46,84.94L168.52,82.62L168.62,82.21L168.79,84.36L168.84,84.89L169.33,78.49L169.71,81.25L169.76,81.54L169.87,82.01L169.93,79.36L170.2,80.44L170.25,78.14L170.31,77.12L170.47,79.07L171.01,77.79L171.07,78L171.39,77.21L171.83,81.28L171.88,82.65L172.1,83.75L172.26,83.49L172.32,79.8L172.48,80.96L172.59,77.97L172.64,78L172.7,75.9L172.97,67.3L173.46,73.32L173.51,73.93L174,76.72L174.05,78.78L174.22,80.55L174.27,76.46L175.68,86.48L175.74,87.01L176.71,93.4L177.2,92.62L177.26,90.96L178.13,96.19L178.29,95.17L178.34,91.25L178.56,93.31L178.61,92.94L178.67,90.41L179.27,94.94L179.32,93.49L179.37,92.21L179.86,96.42L180.08,94.62L180.13,93.46L180.46,95.61L180.62,91.8L180.68,93.11L180.73,90.2L181.27,84.54L181.55,87.21L181.6,87.79L181.65,86.4L182.2,89.86L182.25,89.86L182.31,89.91L182.69,92.24L182.79,90.84L182.85,88.93L183.12,90.18L183.17,90.81L184.42,96.45L184.48,96.71L185.02,100.09L185.07,98.08L185.13,95.44L185.24,95.99L185.29,93.69L185.35,91.69L185.45,93.29L185.78,90.52L186.16,92.97L186.21,93.08L186.7,92.24L187.52,97.21L187.57,95.44L188.93,102.47L188.98,102.64L189.15,102.88L189.63,100.38L189.74,101.1L189.8,101.42L190.67,94.39L190.72,94.45L191.05,96.51L191.26,94.24L191.43,94.77L191.48,94.97L192.19,98.69L192.4,97.09L192.46,97.12L193,99.51L193.27,98.84L193.33,97.47L194.3,101.89L194.36,101.89L194.47,101.54L195.01,103.69L195.12,102.3L195.17,100.17L195.28,100.64L195.33,98.02L195.39,95.87L195.61,97.64L195.82,94.45L196.09,95.61L196.15,95.78L197.34,104.77L197.4,103.92L198.65,109.85L198.7,108.89L199.03,110.32L199.3,107.41L199.35,107.76L199.41,108.34L199.84,110.17L199.9,107.61L200,108.11L200.06,106.28L200.28,106.92L200.33,105.26L201.63,108.89L201.69,106.66L202.45,103.66L202.56,103.89L202.61,104.36L203.48,106.36L203.53,106.8L205.54,114.47L205.6,111.68L206.46,114.62L206.52,113.69L206.57,111.13L206.68,109.18L207.33,110.17L207.39,110.26L207.44,108.95L208.04,112.18L208.09,112.29L209.02,114.65L209.07,112.38L209.83,114.88L209.88,114.33L209.94,113.22L210.64,115.35L210.7,114.1L210.75,111.86L212.06,118.8L212.11,116.97L212.16,114.59L212.33,115.43L212.65,113.78L212.82,114.21L212.87,114.21L213.2,114.56L213.25,113.63L213.41,114.15L213.47,115.11L215.59,122.52L215.64,120.29L216.29,122.21L216.35,122.87L216.83,123.57L216.89,122.18L217.87,124.15L217.92,124.21L218.19,124.88L218.25,125.58L218.63,125.2L218.95,126.39L219.01,124.94L219.33,121.39L219.77,122.7L219.82,122.7L219.93,122.9L219.98,120.96L220.42,121.54L220.47,122.15L220.63,122.26L220.69,121.57L220.85,121.94L220.91,120.87L221.18,120.84L221.77,122.52L221.83,122.52L221.99,122.84L222.05,121.07L222.1,121.13L222.15,121.13L222.32,120.29L223.02,122.52L223.08,121.62L223.13,120.66L223.73,123.31L223.78,123.4L224.33,125.4L224.38,123.72L224.43,123.34L225.36,126.91L225.41,125.66L225.52,124.97L225.79,125.69L225.85,124.5L226.12,125.84L226.17,124.62L227.15,126.65L227.2,126.65L228.23,127.84L228.29,128.11L228.99,129.85L229.21,129.79L229.27,129.85L229.75,130.95L230.08,130.2L230.13,128.34L230.46,129.36L230.51,128.13L231.11,131.1L231.38,129.27L231.44,129.27L233.34,132.23L233.39,132.58L235.29,136.1L235.35,134.96L235.62,135.34L235.67,133.89L236.98,137.67L237.03,137.81L238.28,139.79L238.33,139.88L239.2,140.31L239.26,139.38L239.58,139.79L239.64,137.9L239.91,138.66L239.96,138.69L240.18,138.69L240.23,136.53L241.26,139.53L241.32,139.96L241.92,140.52L241.97,139.64L242.02,139.64L242.08,139.67L242.84,141.36L242.89,139.76L242.95,139.76L244.14,141.82L244.2,141.82L244.47,142.49L244.52,141.33L244.9,141.56L244.96,141.56L245.77,144.29L245.82,142.41L245.88,142.7L246.69,143.42L246.75,142.55L247.4,143.39L247.45,142.11L248.16,142.84L248.21,142.99L249.95,146.15L250,146.18L251.8,148.92L251.85,146.85L252.94,148.65L252.99,148.65L254.08,150.4L254.13,150.4L255.22,151.39L255.27,151.68L256.14,153.1L256.19,151.04L257.23,152.52L257.28,152.55L258.31,153.94L258.37,153.94L262.22,156.12L262.27,156.12L263.58,157L263.63,157L263.74,157.11L263.79,155.69L264.77,156.44L264.83,156.62L265.31,157.52L265.37,156.27L265.53,156.5L265.59,156.53L266.02,157.26L266.07,157.52L267.59,158.83L267.65,159.15L268.63,159.82L268.68,160.16L274.49,162.69L274.54,162.9L275.63,163.51L275.68,163.8L277.04,164.47L277.1,164.58L278.4,165.57L278.45,165.63L279.76,166.09L279.81,166.59L283.94,169.32L283.99,169.32L285.67,169.99L285.73,170.16L287.41,170.51L287.46,170.51L288.82,171.24L288.88,171.3L291.27,172.31L291.32,172.46L293.55,173.1L293.6,173.24L295.17,173.85L295.23,174.09L296.21,174.81L296.26,174.93L297.35,175.71L297.4,176.12L298.43,177.08L298.49,177.08L304.57,178.56L304.62,178.56L305.6,179.03L305.65,179.03L309.24,180.07L309.29,180.07L310.65,180.8L310.7,181L316.67,183.82L316.73,184.11L319.06,184.75L319.12,184.93L320.53,185.65L320.58,185.65L321.45,186.12L321.5,186.12L323.62,186.85L323.68,186.88L326.61,187.63L326.66,187.78L330.25,189.14L330.3,189.46L331.28,189.93L331.33,189.93L334.59,190.68L334.64,190.77L339.69,192.37L339.75,192.48L347.35,194.58L347.4,194.69L355.22,196.53L355.27,196.84L357.23,197.57L357.28,197.8L363.96,199.55L364.01,199.55L367.11,200.27L367.16,200.36L378.24,203.01L378.29,203.06L380.03,203.79L380.08,203.97L384.1,204.58L384.16,204.75L386.33,205.48L386.38,205.51L390.24,206.23L390.29,206.32L391.38,206.44L391.43,206.44L395.66,207.19L395.72,207.25L397.56,207.95L397.62,208.01L403.48,208.59L403.54,208.82L409.07,209.11L409.13,209.11L412.66,209.78L412.71,209.87L417.81,210.62L417.87,210.74L421.62,211.46L421.67,211.55L441.54,214.87L441.59,214.87L448.27,215.48L448.33,215.65" style="vector-effect: non-scaling-stroke; fill: none; stroke: rgb(99, 110, 250); stroke-opacity: 1; stroke-width: 2px; opacity: 1;"/></g><g class="points"/><g class="text"/></g></g></g><g class="overplot"><g class="xy2" transform="translate(78,20)" clip-path="url(#clip281dcaxy2plot)"><g class="scatterlayer mlayer"><g class="trace scatter trace3bc5af" style="stroke-miterlimit: 2; opacity: 1;"><g class="fills"/><g class="errorbars"/><g class="lines"><path class="js-line" d="M0,11.35L6.73,35.19L6.79,35.37L12.92,54.65L12.98,54.81L19.27,72.44L19.33,72.58L24.27,85.04L24.32,85.17L34.91,108.31L34.96,108.41L44.14,125.1L44.19,125.19L52.44,137.96L52.5,138.04L61.89,150.38L61.94,150.45L73.45,162.92L73.51,162.97L83.17,171.58L83.23,171.62L94.95,180.19L95.01,180.22L105.05,186.22L105.11,186.25L116.67,191.9L116.72,191.92L127.85,196.33L127.91,196.35L141.37,200.6L141.43,200.62L153.69,203.67L153.75,203.68L167.92,206.45L167.97,206.46L216.62,211.93L216.67,211.93L262.76,214.09L262.82,214.09L282.8,214.59L282.85,214.59L344.41,215.34L344.47,215.35L448.38,215.65" style="vector-effect: non-scaling-stroke; fill: none; stroke: rgb(239, 85, 59); stroke-opacity: 1; stroke-width: 2px; opacity: 1;"/></g><g class="points"/><g class="text"/></g></g></g></g><path class="xlines-above crisp" d="M0,0" style="fill: none;"/><path class="ylines-above crisp" d="M0,0" style="fill: none;"/><g class="overlines-above"><path class="xy2-x crisp" d="M0,0" style="fill: none;"/><path class="xy2-y crisp" d="M0,0" style="fill: none;"/></g><g class="xaxislayer-above"><g class="xtick"><text text-anchor="middle" x="0" y="260" transform="translate(78,0)" style="font-family: 'Open Sans', verdana, arial, sans-serif; font-size: 12px; fill: rgb(42, 63, 95); fill-opacity: 1; white-space: pre; opacity: 1;">0</text></g><g class="xtick"><text text-anchor="middle" x="0" y="260" style="font-family: 'Open Sans', verdana, arial, sans-serif; font-size: 12px; fill: rgb(42, 63, 95); fill-opacity: 1; white-space: pre; opacity: 1;" transform="translate(186.57999999999998,0)">2000</text></g><g class="xtick"><text text-anchor="middle" x="0" y="260" style="font-family: 'Open Sans', verdana, arial, sans-serif; font-size: 12px; fill: rgb(42, 63, 95); fill-opacity: 1; white-space: pre; opacity: 1;" transform="translate(295.15999999999997,0)">4000</text></g><g class="xtick"><text text-anchor="middle" x="0" y="260" style="font-family: 'Open Sans', verdana, arial, sans-serif; font-size: 12px; fill: rgb(42, 63, 95); fill-opacity: 1; white-space: pre; opacity: 1;" transform="translate(403.74,0)">6000</text></g><g class="xtick"><text text-anchor="middle" x="0" y="260" style="font-family: 'Open Sans', verdana, arial, sans-serif; font-size: 12px; fill: rgb(42, 63, 95); fill-opacity: 1; white-space: pre; opacity: 1;" transform="translate(512.3199999999999,0)">8000</text></g></g><g class="yaxislayer-above"><g class="ytick"><text text-anchor="end" x="77" y="4.199999999999999" transform="translate(0,224.61)" style="font-family: 'Open Sans', verdana, arial, sans-serif; font-size: 12px; fill: rgb(42, 63, 95); fill-opacity: 1; white-space: pre; opacity: 1;">−5000</text></g><g class="ytick"><text text-anchor="end" x="77" y="4.199999999999999" style="font-family: 'Open Sans', verdana, arial, sans-serif; font-size: 12px; fill: rgb(42, 63, 95); fill-opacity: 1; white-space: pre; opacity: 1;" transform="translate(0,151.94)">0</text></g><g class="ytick"><text text-anchor="end" x="77" y="4.199999999999999" style="font-family: 'Open Sans', verdana, arial, sans-serif; font-size: 12px; fill: rgb(42, 63, 95); fill-opacity: 1; white-space: pre; opacity: 1;" transform="translate(0,79.28)">5000</text></g></g><g class="overaxes-above"><g class="xy2-x"/><g class="xy2-y"><g class="y2tick"><text text-anchor="start" x="527.38" y="4.199999999999999" transform="translate(0,235.7)" style="font-family: 'Open Sans', verdana, arial, sans-serif; font-size: 12px; fill: rgb(42, 63, 95); fill-opacity: 1; white-space: pre; opacity: 1;">0</text></g><g class="y2tick"><text text-anchor="start" x="527.38" y="4.199999999999999" style="font-family: 'Open Sans', verdana, arial, sans-serif; font-size: 12px; fill: rgb(42, 63, 95); fill-opacity: 1; white-space: pre; opacity: 1;" transform="translate(0,184.61)">500</text></g><g class="y2tick"><text text-anchor="start" x="527.38" y="4.199999999999999" style="font-family: 'Open Sans', verdana, arial, sans-serif; font-size: 12px; fill: rgb(42, 63, 95); fill-opacity: 1; white-space: pre; opacity: 1;" transform="translate(0,133.53)">1000</text></g><g class="y2tick"><text text-anchor="start" x="527.38" y="4.199999999999999" style="font-family: 'Open Sans', verdana, arial, sans-serif; font-size: 12px; fill: rgb(42, 63, 95); fill-opacity: 1; white-space: pre; opacity: 1;" transform="translate(0,82.44)">1500</text></g><g class="y2tick"><text text-anchor="start" x="527.38" y="4.199999999999999" style="font-family: 'Open Sans', verdana, arial, sans-serif; font-size: 12px; fill: rgb(42, 63, 95); fill-opacity: 1; white-space: pre; opacity: 1;" transform="translate(0,31.35)">2000</text></g></g></g></g><g class="subplot xy2"/></g><g class="polarlayer"/><g class="smithlayer"/><g class="ternarylayer"/><g class="geolayer"/><g class="funnelarealayer"/><g class="pielayer"/><g class="iciclelayer"/><g class="treemaplayer"/><g class="sunburstlayer"/><g class="glimages"/><defs id="topdefs-281dca"><g class="clips"/><clipPath id="legend281dca"><rect width="123" height="48" x="0" y="0"/></clipPath></defs><g class="layer-above"><g class="imagelayer"/><g class="shapelayer"/></g><g class="infolayer"><g class="legend" pointer-events="all" transform="translate(564.54,20)"><rect class="bg" shape-rendering="crispEdges" width="123" height="48" x="0" y="0" style="stroke: rgb(68, 68, 68); stroke-opacity: 1; fill: rgb(255, 255, 255); fill-opacity: 1; stroke-width: 0px;"/><g class="scrollbox" transform="" clip-path="url(#legend281dca)"><g class="groups"><g class="traces" transform="translate(0,14.5)" style="opacity: 1;"><text class="legendtext" text-anchor="start" x="40" y="4.680000000000001" style="font-family: 'Open Sans', verdana, arial, sans-serif; font-size: 12px; fill: rgb(42, 63, 95); fill-opacity: 1; white-space: pre;">Cost</text><g class="layers" style="opacity: 1;"><g class="legendfill"/><g class="legendlines"><path class="js-line" d="M5,0h30" style="fill: none; stroke: rgb(99, 110, 250); stroke-opacity: 1; stroke-width: 2px;"/></g><g class="legendsymbols"><g class="legendpoints"/></g></g><rect class="legendtoggle" x="0" y="-9.5" width="117.265625" height="19" style="fill: rgb(0, 0, 0); fill-opacity: 0;"/></g><g class="traces" transform="translate(0,33.5)" style="opacity: 1;"><text class="legendtext" text-anchor="start" x="40" y="4.680000000000001" style="font-family: 'Open Sans', verdana, arial, sans-serif; font-size: 12px; fill: rgb(42, 63, 95); fill-opacity: 1; white-space: pre;">Temperature</text><g class="layers" style="opacity: 1;"><g class="legendfill"/><g class="legendlines"><path class="js-line" d="M5,0h30" style="fill: none; stroke: rgb(239, 85, 59); stroke-opacity: 1; stroke-width: 2px;"/></g><g class="legendsymbols"><g class="legendpoints"/></g></g><rect class="legendtoggle" x="0" y="-9.5" width="117.265625" height="19" style="fill: rgb(0, 0, 0); fill-opacity: 0;"/></g></g></g><rect class="scrollbar" rx="20" ry="3" width="0" height="0" x="0" y="0" style="fill: rgb(128, 139, 164); fill-opacity: 1;"/></g><g class="g-gtitle"/><g class="g-xtitle"><text class="xtitle" x="302.19" y="287.8" text-anchor="middle" style="font-family: 'Open Sans', verdana, arial, sans-serif; font-size: 14px; fill: rgb(42, 63, 95); opacity: 1; font-weight: normal; white-space: pre;">Iterations</text></g><g class="g-ytitle" transform="translate(2.1435546875,0)"><text class="ytitle" transform="rotate(-90,11.856250000000003,133.5)" x="11.856250000000003" y="133.5" text-anchor="middle" style="font-family: 'Open Sans', verdana, arial, sans-serif; font-size: 14px; fill: rgb(42, 63, 95); opacity: 1; font-weight: normal; white-space: pre;">Cost</text></g><g class="g-y2title"><text class="y2title" transform="rotate(-90,583.08125,133.5)" x="583.08125" y="133.5" text-anchor="middle" style="font-family: 'Open Sans', verdana, arial, sans-serif; font-size: 14px; fill: rgb(42, 63, 95); opacity: 1; font-weight: normal; white-space: pre;">Temperature</text></g></g></svg>