<svg class="main-svg" xmlns="http://www.w3.org/2000/svg" xmlns:xlink="http://www.w3.org/1999/xlink" width="700" height="300" style="" viewBox="0 0 700 300"><rect x="0" y="0" width="700" height="300" style="fill: rgb(255, 255, 255); fill-opacity: 1;"/><defs id="defs-fb31fd"><g class="clips"><clipPath id="clipfb31fdxyplot" class="plotclip"><rect width="457.78" height="227"/></clipPath><clipPath id="clipfb31fdxy2plot" class="plotclip"><rect width="457.78" height="227"/></clipPath><clipPath class="axesclip" id="clipfb31fdx"><rect x="68" y="0" width="457.78" height="300"/></clipPath><clipPath class="axesclip" id="clipfb31fdy"><rect x="0" y="20" width="700" height="227"/></clipPath><clipPath class="axesclip" id="clipfb31fdxy"><rect x="68" y="20" width="457.78" height="227"/></clipPath><clipPath class="axesclip" id="clipfb31fdy2"><rect x="0" y="20" width="700" height="227"/></clipPath><clipPath class="axesclip" id="clipfb31fdxy2"><rect x="68" y="20" width="457.78" height="227"/></clipPath></g><g class="gradients"/><g class="patterns"/></defs><g class="bglayer"><rect class="bg" x="68" y="20" width="457.78" height="227" style="fill: rgb(229, 236, 246); fill-opacity: 1; stroke-width: 0;"/></g><g class="layer-below"><g class="imagelayer"/><g class="shapelayer"/></g><g class="cartesianlayer"><g class="subplot xy"><g class="layer-subplot"><g class="shapelayer"/><g class="imagelayer"/></g><g class="gridlayer"><g class="x"><path class="xgrid crisp" transform="translate(178.86,0)" d="M0,20v227" style="stroke: rgb(255, 255, 255); stroke-opacity: 1; stroke-width: 1px;"/><path class="xgrid crisp" transform="translate(289.71000000000004,0)" d="M0,20v227" style="stroke: rgb(255, 255, 255); stroke-opacity: 1; stroke-width: 1px;"/><path class="xgrid crisp" transform="translate(400.57,0)" d="M0,20v227" style="stroke: rgb(255, 255, 255); stroke-opacity: 1; stroke-width: 1px;"/><path class="xgrid crisp" transform="translate(511.42,0)" d="M0,20v227" style="stroke: rgb(255, 255, 255); stroke-opacity: 1; stroke-width: 1px;"/></g><g class="y"><path class="ygrid crisp" transform="translate(0,240.27)" d="M68,0h457.78" style="stroke: rgb(255, 255, 255); stroke-opacity: 1; stroke-width: 1px;"/><path class="ygrid crisp" transform="translate(0,180.4)" d="M68,0h457.78" style="stroke: rgb(255, 255, 255); stroke-opacity: 1; stroke-width: 1px;"/><path class="ygrid crisp" transform="translate(0,120.54)" d="M68,0h457.78" style="stroke: rgb(255, 255, 255); stroke-opacity: 1; stroke-width: 1px;"/><path class="ygrid crisp" transform="translate(0,60.67)" d="M68,0h457.78" style="stroke: rgb(255, 255, 255); stroke-opacity: 1; stroke-width: 1px;"/></g><g class="y2"><path class="y2grid crisp" transform="translate(0,184.61)" d="M68,0h457.78" style="stroke: rgb(255, 255, 255); stroke-opacity: 1; stroke-width: 1px;"/><path class="y2grid crisp" transform="translate(0,133.53)" d="M68,0h457.78" style="stroke: rgb(255, 255, 255); stroke-opacity: 1; stroke-width: 1px;"/><path class="y2grid crisp" transform="translate(0,82.44)" d="M68,0h457.78" style="stroke: rgb(255, 255, 255); stroke-opacity: 1; stroke-width: 1px;"/><path class="y2grid crisp" transform="translate(0,31.35)" d="M68,0h457.78" style="stroke: rgb(255, 255, 255); stroke-opacity: 1; stroke-width: 1px;"/></g></g><g class="zerolinelayer"><path class="xzl zl crisp" transform="translate(68,0)" d="M0,20v227" style="stroke: rgb(255, 255, 255); stroke-opacity: 1; stroke-width: 2px;"/><path class="y2zl zl crisp" transform="translate(0,235.7)" d="M68,0h457.78" style="stroke: rgb(255, 255, 255); stroke-opacity: 1; stroke-width: 2px;"/></g><path class="xlines-below"/><path class="ylines-below"/><g class="overlines-below"><path class="xy2-x"/><path class="xy2-y"/></g><g class="xaxislayer-below"/><g class="yaxislayer-below"/><g class="overaxes-below"><g class="xy2-x"/><g class="xy2-y"/></g><g class="plot" transform="translate(68,20)" clip-path="url(#clipfb31fdxyplot)"><g class="scatterlayer mlayer"><g class="trace scatter trace0e29e9" style="stroke-miterlimit: 2; opacity: 1;"><g class="fills"/><g class="errorbars"/><g class="lines"><path class="js-line" d="M0,22.83L0.11,18.69L0.28,31.04L0.67,24.5L0.72,31.38L0.78,32.51L0.94,25.99L1,26.15L1.05,23L1.16,17.28L1.44,30.5L1.77,24.32L1.83,18.56L1.88,16.99L2,26.87L2.27,25.57L2.33,30.8L2.49,18.33L2.99,21.86L3.05,26.08L3.1,26.29L3.16,32.05L3.21,32.3L3.27,29.73L3.49,31.59L3.55,27.26L3.82,35.34L4.16,25.43L4.21,20L4.82,34.14L4.99,28.31L5.04,24.04L5.15,16.28L5.38,27.07L5.65,23.56L5.71,30.48L6.04,25.49L6.43,27.63L6.49,30.26L6.82,32L7.04,19.06L7.26,26.79L7.32,31.82L7.7,34.81L8.09,22.49L8.15,22.86L8.43,32.05L8.7,21.09L8.87,24.34L8.92,22.37L9.2,30.93L9.59,23.6L9.64,21.41L9.92,34.58L10.14,20.24L10.42,27.19L10.48,27.34L11.03,17.7L11.31,19.38L11.36,25.78L11.47,23.26L11.7,30.57L11.86,23.71L11.92,29.88L12.14,19.06L12.69,25.49L12.75,28.14L13.03,25.05L13.14,33.01L13.52,29.76L13.58,30.92L14.36,21.43L14.41,23.71L14.47,25.92L14.8,21.13L15.24,31.17L15.35,30.46L15.41,23.81L15.46,22.81L15.58,28.38L15.69,26.53L15.74,32.9L15.85,36.27L16.07,22.14L16.13,19.34L16.3,18.71L17.24,30.59L17.29,26.5L17.52,21.26L18.12,36.09L18.18,29.17L18.29,26.04L18.68,38.65L18.85,30.85L18.9,24.95L19.01,20.95L19.51,26.81L19.57,25.81L19.62,27.56L20.06,20.71L20.12,27.7L20.34,24.34L20.4,28.07L20.45,29.17L20.51,23.93L21.01,26.45L21.06,22.81L21.34,20.31L21.56,36.21L21.84,26.69L21.89,22.83L22.39,31.18L22.67,25.17L22.73,25.05L23.39,36.02L23.5,31.94L23.56,31.16L23.61,32.32L23.94,24.66L24.11,27.43L24.17,26.19L24.39,31.66L24.5,22.66L24.55,21.81L24.67,26.17L24.89,19.01L25.16,23.65L25.22,25.17L25.33,31.74L25.72,24.34L25.88,24.5L25.94,22.1L26.27,25.63L26.72,18.88L26.77,21.38L27.16,27.09L27.22,20.11L27.49,22.16L27.55,20.74L27.88,30.43L28.16,16.43L28.27,24.26L28.32,20.92L28.38,16.93L28.55,29.3L28.93,27.11L28.99,26.96L29.1,24.27L29.16,24.72L29.21,31.76L29.76,24.03L29.93,26.46L29.99,31.01L30.26,31.66L30.37,22.35L30.76,27.13L30.82,28.08L31.54,33.09L31.59,31.78L31.65,31.57L31.87,23.61L32.26,33.51L32.37,29.77L32.43,31.31L32.76,24.63L32.92,30.76L32.98,34.29L33.37,23.66L33.81,31.27L33.87,32.6L33.92,35.52L34.25,22.96L34.53,28.4L34.59,27.75L34.64,28.6L34.75,19.98L35.14,26.23L35.2,21.15L35.25,20.32L35.31,25.81L35.36,25.38L35.42,30.1L35.97,18.16L36.19,20.85L36.25,25.04L36.42,21.3L36.86,25.93L36.97,25.02L37.03,31.25L37.08,32.82L37.52,24.31L37.58,24.74L38.3,34.66L38.36,28.75L38.41,23.89L38.63,20.17L39.19,29.3L39.24,26.68L39.3,23.4L39.35,31.11L39.8,11.35L40.02,23.75L40.07,25.04L40.35,28.48L40.46,21.79L40.52,17.95L41.18,36.42L41.52,33.48L41.57,31.56L41.68,35.97L41.9,28.65L42.18,30.48L42.24,22.41L42.57,20.17L43.07,31.71L43.12,29.9L43.18,26.1L43.51,34.48L43.79,22.87L43.84,23.65L43.9,19.74L44.29,19.39L44.67,31.72L44.9,30.7L44.95,25.8L45.17,33.26L45.73,28.87L45.78,29.23L46.39,19.44L46.5,26.7L46.56,27.5L46.73,28.95L47.17,20.39L47.28,25.32L47.34,28.25L47.39,27.75L47.5,31.21L47.56,34.15L47.67,37.9L47.95,27.49L48.22,31.07L48.28,31.57L48.39,35.99L48.61,26.51L49.05,33.75L49.11,31.24L49.61,28.33L49.89,34.58L49.94,33.55L50.55,22.08L50.94,26.31L50.99,26.38L51.6,34.06L51.83,32.6L51.88,29.47L52.16,26.62L52.43,34.63L52.49,35.35L52.55,36.12L52.77,29.69L52.82,23.19L53.54,30.55L53.65,27.07L53.71,23.5L54.21,36.24L54.54,33.03L54.6,30.12L54.76,33.26L54.98,28.11L55.32,30.88L55.37,30.89L55.43,32.7L55.65,24.5L55.93,28.11L55.98,26.32L56.7,33.95L56.76,30.83L56.81,26.71L56.98,24.1L57.65,37.26L57.76,34.64L57.81,29.68L58.37,37.76L58.53,34.14L58.59,31.05L58.7,32.45L58.86,28.73L58.92,25.96L59.2,25.64L59.25,28.08L59.42,27.91L59.47,30.95L59.75,32.72L59.97,29.29L60.03,31.12L60.08,28.83L60.14,23.96L60.64,36.34L60.8,30.83L60.86,29.23L60.97,24.63L61.19,31.6L61.58,25.19L61.64,28L62.02,37.01L62.36,25.63L62.41,26.84L62.47,26.04L63.24,36.61L63.35,30.83L63.41,31.39L63.69,39.05L64.19,37.69L64.24,34.18L64.35,34.93L64.74,26.17L64.96,29.18L65.02,32.47L65.18,32.23L65.29,37.55L65.35,34.29L65.41,30.45L65.74,27.5L66.07,31.47L66.13,32.64L66.29,36.54L66.46,28.9L66.51,30.94L66.57,28.58L66.74,28.42L66.96,31.21L67.12,30.32L67.18,26.27L67.68,34.87L68.01,30.35L68.07,32.65L68.51,35.53L68.95,25.19L69.01,29.67L69.12,27.32L69.56,30.62L69.62,26L70.62,40.37L70.67,40.79L71.06,45.88L71.17,40.52L71.34,41.97L71.39,39.7L71.56,43.07L71.72,35.94L71.78,35.56L71.89,34.74L72.06,37.43L72.11,41.25L72.17,41.59L72.22,40.76L72.28,36.24L72.39,36.81L72.44,32.67L72.67,37.4L72.94,31.44L73.11,33.73L73.16,34.92L73.22,36.9L73.55,29.92L73.83,33.14L73.89,34.21L73.94,37.98L74.22,31.22L74.61,33.91L74.66,32.24L75.27,37.16L75.44,36.85L75.49,31.5L75.66,28.73L75.94,34.73L75.99,31.87L76.05,35.61L76.44,25.59L76.82,29.91L76.88,32.47L77.27,38.31L77.6,35.1L77.65,29.32L78.04,25.11L78.38,30.8L78.43,29.91L78.49,30.2L78.98,34.76L79.1,29.29L79.26,30.98L79.32,31.47L79.48,39.01L79.93,30.75L80.09,35.12L80.15,34.29L80.37,36.56L80.59,31.63L80.87,33.67L80.92,35.15L81.09,37.37L81.26,34.26L81.48,34.6L81.53,31.39L81.65,26.54L82.2,33.8L82.26,35.05L83.31,47.38L83.42,45.53L83.47,41.52L83.59,43.39L83.64,40.79L83.7,41.73L83.75,40.38L84.25,40.1L84.47,44.4L84.53,41.53L84.69,45.47L84.75,39.54L84.8,40.4L84.86,36.24L85.14,33.66L85.64,40.61L85.69,37.24L85.75,33.36L86.25,37.37L86.41,36.92L86.47,37.02L86.58,35.9L86.91,39.3L87.08,38.31L87.13,35.97L87.3,36.75L87.35,34.6L87.63,37.05L87.74,32.07L87.8,29.75L87.91,27.48L88.46,36.62L88.63,34.08L88.68,31.93L89.24,40.94L89.46,37.15L89.52,36.51L89.96,46.23L90.29,40.48L90.35,36.86L90.96,44.68L91.12,41.48L91.18,38.43L91.46,43.24L92.01,35.96L92.07,36L92.12,36.26L92.23,33.69L92.29,33.73L92.34,33.35L92.62,32.11L93.4,42.58L93.45,40.39L93.78,39.48L94.01,43.01L94.17,41.01L94.23,39.92L94.45,39.57L94.62,42.77L94.67,39.46L95.23,44.04L95.28,40.6L95.45,38.26L95.78,42.46L95.89,42.01L95.95,38.75L96.72,43.43L96.78,43.92L96.89,44.59L97.11,39.56L97.17,39.76L97.22,43.91L97.55,38.42L97.89,38.62L97.94,40.64L98.11,42.46L98.38,35.28L98.66,38.49L98.72,40.01L98.88,38.45L98.99,40.7L99.05,37.02L99.38,41.06L99.6,40.4L99.66,36.05L100.44,41.66L100.49,40.09L100.55,40.15L100.99,43.93L101.32,43.38L101.38,40.78L101.49,39.68L101.6,42.24L101.65,45.36L101.77,46.09L101.82,42.46L102.21,44.37L102.26,43.7L102.65,46.24L102.76,41.91L102.87,42.33L102.93,40.78L103.15,44.7L103.21,45.49L103.26,47.29L103.59,42.82L103.93,44.85L103.98,45.86L104.2,43.94L104.43,49.15L104.76,46.69L104.81,46.91L104.87,45.42L105.37,50.46L105.48,47.78L105.53,49.05L105.98,54.25L106.03,55.12L106.37,46.68L106.87,48.29L106.92,50.1L107.2,42.06L107.7,45.66L107.75,47.82L107.97,47.04L108.2,50.29L108.25,47.23L108.31,43.5L108.53,41.7L109.91,53.6L109.97,53.18L110.02,51.3L110.19,54.53L110.41,50.11L110.47,46.31L110.63,47.12L110.97,40.33L111.41,42.75L111.47,43.24L111.91,42.69L113.07,54.13L113.13,50.7L113.18,51.08L113.24,48.94L113.46,49.48L113.52,46.58L113.57,46.32L113.68,48.51L113.74,49.88L114.07,52.66L114.24,47.15L114.46,51.58L114.51,47.65L114.68,48.74L114.74,45.07L115.57,54.81L115.84,51.36L115.9,51.6L115.96,53.29L116.45,46.35L116.51,45.12L117.01,52.88L117.45,50.18L117.51,50.37L117.56,47.77L117.9,51.55L118.23,49.7L118.28,50.44L118.39,47.99L118.84,51.46L119,51.13L119.06,53.32L119.78,57.73L119.84,55.42L119.89,53.75L120.28,55.23L120.33,52.66L120.39,53.14L120.45,51.98L120.56,52.99L120.78,49.38L121.05,50.68L121.11,49.5L121.22,51L121.39,47.44L121.89,50.89L121.94,49.89L122.39,56.52L122.55,53.09L122.61,52.17L123.05,52.47L123.11,49.75L123.22,50.75L123.27,51.99L123.33,48.55L123.72,53.81L123.99,51.64L124.05,51.99L124.71,57.05L124.82,54.36L124.88,53.72L124.93,54.74L125.32,49.42L125.49,52.14L125.54,50.48L126.27,43.25L126.38,44.18L126.43,45.16L126.49,44L126.82,47.7L127.1,45.21L127.15,45.99L127.43,48.9L127.6,45.27L127.82,45.28L127.87,45.33L128.09,43.55L128.7,48.53L128.81,47.11L128.87,45.49L129.7,51.29L129.81,49.43L129.87,48.2L130.2,50.95L130.53,47.52L130.59,47.55L130.7,48.22L130.75,46.58L130.81,45.46L132.14,57.82L132.25,55.77L132.31,53.23L132.47,56.09L132.64,51.7L133.14,55.26L133.19,53.04L133.47,52.64L134.08,55.6L134.14,55.6L134.86,63.39L135.02,60.48L135.08,58.39L135.13,58.54L135.19,58.07L135.24,54.83L136.08,60.32L136.13,56.87L136.96,62.59L137.02,63.77L137.35,63.6L137.63,65.72L137.68,64.24L137.74,63.08L138.85,71.06L138.9,69.26L138.96,68.15L139.01,69.88L139.46,65.75L139.62,66.36L139.68,66.72L140.18,70.61L140.34,65.81L140.4,66.1L140.45,62.53L140.57,63.19L140.68,59.53L140.84,60.48L140.9,58.98L140.95,58.01L141.51,59.93L141.56,61.14L141.84,59.38L142.01,63.51L142.06,65.39L142.28,66.42L142.39,61.02L142.84,64.35L142.89,64.53L142.95,64.98L143.23,62.54L143.28,59.17L143.39,59.32L143.45,56.69L144.06,59.05L144.11,57.96L144.17,55.55L144.61,58.28L144.94,57.8L145,56.13L145.94,61.55L146,60.44L146.05,57.68L146.22,57.46L147.55,65.7L147.6,63.15L148.1,66.18L148.27,63.53L148.33,61.48L148.94,66.79L149.05,63.2L149.1,59.65L149.49,63.12L149.93,61.39L149.99,57.87L150.38,57.72L150.88,61.69L150.93,62.06L151.26,64.61L151.37,61.62L151.43,61.82L151.48,63.81L151.87,57.81L152.09,59.3L152.15,57.99L154.26,71.95L154.42,70.07L154.48,70.28L154.81,67.93L155.42,73.24L155.48,69.77L155.7,72.06L155.75,68.67L156.14,70.63L156.2,71.31L156.47,72.94L156.53,70.9L157.03,64.44L157.42,66.8L157.47,67.05L157.97,69.36L158.08,66.76L158.25,68.04L158.3,66.27L158.63,68.71L158.69,69.07L159.41,66.12L159.47,67.46L159.52,67.91L159.69,68.69L159.74,66.2L160.02,68.1L160.08,66.04L160.19,64.09L160.74,67.02L160.8,67.28L161.41,74.12L161.57,70.72L161.63,69.19L161.79,67.31L162.68,74.81L162.79,73.28L162.85,71.17L163.18,74.57L163.62,72.07L163.68,72.47L164.12,74.34L164.18,72.09L164.23,72.36L164.29,72.36L164.9,65.44L165.18,67.03L165.23,67.33L165.4,68.24L165.45,69.01L165.56,68.4L165.84,70.1L166.06,69.69L166.12,68.46L166.78,70.75L166.89,69.26L166.95,66.47L167.06,64.83L167.95,72.29L168,69.25L168.61,72.3L168.67,73.4L168.89,74.85L168.94,72.49L169.55,66.83L169.89,68.31L169.94,68.71L170.05,68.42L171.05,74.63L171.16,72.18L171.22,72.27L171.27,69.36L171.88,74.68L171.94,74.83L172.38,77.56L172.77,75.89L172.82,75.92L173.16,72.63L173.6,73.28L173.66,73.97L174.15,77.28L174.32,73.81L174.38,73.88L175.1,79.44L175.21,76.94L175.26,75.42L175.98,72.63L176.04,73.59L176.09,74.01L177.92,83.69L177.98,83.11L178.2,80.69L178.42,84.02L178.76,83.86L178.81,81.24L179.53,85.74L179.64,83.51L179.7,84.34L180.47,77.07L180.81,77.91L180.86,77.91L181.03,77.11L181.36,80.21L181.64,79.16L181.69,79.31L181.8,78.2L183.08,82.96L183.13,82.07L183.47,81.97L183.74,84.19L183.8,82.41L183.85,81.54L184.24,75.5L184.85,77.14L184.91,77.22L185.24,78.34L185.3,76.9L185.57,77.64L185.63,76.61L185.91,76.56L186.68,80.43L186.74,79.11L186.96,80.2L187.01,80.62L187.12,82.01L187.24,79.58L187.73,81.87L187.79,80.22L187.96,79.95L188.46,83.21L188.79,83.1L188.84,80.87L189.18,82.98L189.23,81.31L189.29,80.14L189.4,79.93L190.45,85.28L190.51,84.5L191.12,79.31L191.34,81.19L191.39,81.49L191.61,80.18L192.67,85.1L192.72,85.6L194.28,90.12L194.33,91.22L194.88,93.36L195,91.53L195.05,89.47L195.27,91.32L195.33,88.81L195.66,91.01L195.72,89.37L196.33,91.27L196.38,89.33L197.49,94.07L197.71,92.74L197.77,91.73L198.38,94.73L198.54,93.13L198.6,91.99L198.88,90.93L199.1,93.08L199.15,93.34L199.87,97.63L199.93,94.75L200.43,94.38L200.65,96.57L200.82,96.17L200.87,94.36L200.93,94.57L200.98,93.15L201.04,89.77L201.26,88.27L201.87,90.44L201.92,90.69L203.14,96.71L203.2,96.74L203.59,98.75L204.03,97.9L204.09,96.98L205.97,103.59L206.03,104.12L206.08,104.8L206.47,102.33L206.69,102.98L206.75,102.98L207.02,103.77L207.08,102.55L207.19,102.56L207.25,101.39L207.41,102.38L207.74,99.84L207.8,99.84L207.86,98.06L208.19,99.13L208.24,99.64L208.46,100.85L208.74,97.88L208.85,98.38L208.91,96.74L208.96,97.06L209.24,95.14L209.52,96.19L209.57,95.2L209.8,94.5L209.96,95.47L210.02,93.74L210.52,94.72L210.57,93.37L210.63,91.88L211.18,95.74L211.29,93.42L211.35,92.01L211.46,91.58L211.85,93.07L211.9,93.23L212.07,93.54L212.12,91.46L212.9,93.37L212.95,92.11L213.68,94.64L213.73,95.63L214.17,97.02L214.23,94.67L214.95,97.24L215.01,94.74L215.12,93.44L215.56,94.83L215.61,93.67L215.84,92.62L216.72,94.57L216.78,93.36L218.16,96.38L218.22,96.59L218.5,97.84L218.94,97.49L219,96.2L219.27,96.63L219.33,98.13L219.38,96.75L219.99,99.9L220.05,99.93L221.55,105.1L221.6,105.12L222.93,107.12L222.99,107.64L223.6,109.4L223.65,109.48L224.37,110.08L224.43,107.7L226.65,115.36L226.7,114.62L226.81,113.93L227.25,115.5L227.31,115.6L228.59,120.2L228.7,119.17L228.75,117.56L229.47,119.87L229.53,120.48L229.86,121.09L229.92,121.38L230.14,121.74L230.19,120.33L230.25,120.33L230.3,120.33L231.13,122.53L231.19,121.42L231.25,121.42L232.13,122.96L232.19,122.98L232.58,124.48L232.96,123.51L233.02,123.67L233.8,120.46L233.85,120.93L233.91,121.06L234.18,121.29L234.24,122.08L235.18,123.86L235.24,123.86L235.68,123.78L236.23,125.19L236.29,125.19L237.84,128.46L237.9,128.46L238.56,128.19L239.23,130.46L239.28,128.98L239.78,130.04L239.84,128.64L240.28,129.77L240.34,129.77L240.95,131.22L241,131.93L241.11,130.72L241.61,133.21L241.67,133.21L241.78,131L242.44,132.35L242.5,132.35L242.61,131.13L243.22,132.48L243.27,132.55L243.94,133.06L243.99,133.54L244.77,134.82L244.83,133.04L244.99,133.22L245.05,132.41L245.1,132.41L245.16,131.32L245.38,131.51L245.44,130.15L245.49,130.31L245.55,129.26L245.93,129.37L245.99,129.37L246.27,130.62L246.49,128.02L246.6,128.07L246.65,128.24L247.93,131.7L247.98,130.44L248.21,130.94L248.26,128.44L248.54,128.65L248.59,127.64L248.98,128.49L249.04,126.82L249.09,126.96L249.15,126.96L250.65,132.74L250.7,132.79L251.81,134.4L251.86,134.4L252.92,137.2L253.03,136.45L253.08,136.45L253.47,137.06L253.53,136.05L253.69,136.28L253.75,134.56L254.14,134.94L254.19,133.73L255.02,134.39L255.08,134.59L256.13,135.76L256.19,136.16L257.46,137.47L257.52,137.49L258.63,138.63L258.68,138.66L260.07,139.89L260.12,137.52L261.73,139.65L261.79,139.65L262.62,140.62L262.67,140.92L262.84,141L262.9,139.56L263.73,140.62L263.78,140.81L265.61,143.2L265.67,143.2L267.61,145.5L267.66,145.5L273.04,150.55L273.09,150.55L275.26,152.69L275.31,153.3L275.7,153.95L275.75,154.18L276.31,154.99L276.36,155.49L278.25,156.24L278.3,156.46L279.58,156.85L279.63,157.3L281.02,158.03L281.08,158.1L283.57,160.03L283.63,160.21L284.73,160.93L284.79,161.1L285.62,161.97L285.68,161.97L286.56,162.45L286.62,162.49L288.56,163.39L288.61,163.83L289.45,164.43L289.5,164.84L291,165.4L291.05,165.71L292.6,166.41L292.66,166.5L293.82,167.72L293.88,167.72L294.88,168.4L294.93,168.4L302.58,172.01L302.64,172.01L304.19,173.65L304.24,173.65L306.63,174.4L306.68,174.44L307.96,174.84L308.01,174.84L310.84,175.53L310.9,175.65L317.82,179.38L317.88,179.38L319.32,180.12L319.38,180.66L320.37,180.81L320.43,180.81L323.7,181.71L323.76,181.71L326.97,182.45L327.03,182.7L327.91,183.04L327.97,183.04L329.8,183.73L329.85,183.97L331.18,184.48L331.24,184.48L335.45,185.23L335.51,185.33L337.22,186.06L337.28,186.24L339,187.27L339.05,187.27L340.61,187.67L340.66,188.13L346.65,189.48L346.7,189.66L347.7,190.65L347.76,190.65L349.25,191.6L349.31,191.6L350.36,192.19L350.42,192.19L351.52,192.87L351.58,192.87L352.69,193.61L352.74,193.84L355.96,194.56L356.01,195L360.5,195.57L360.56,195.76L362.78,196.46L362.83,196.68L364.72,197.22L364.77,197.51L369.1,198.17L369.15,198.27L371.7,199L371.76,199.17L374.92,200.46L374.97,200.46L377.96,201.17L378.02,201.22L379.29,201.83L379.35,202.05L382.12,202.66L382.18,202.96L391.6,204.58L391.65,204.81L392.6,205.24L392.65,205.24L394.04,205.84L394.09,206.04L396.31,206.39L396.37,206.39L400.47,206.83L400.52,207.29L405.73,208.04L405.79,208.14L408.67,208.74L408.73,208.99L414.27,209.72L414.32,209.84L430.62,212.39L430.68,212.47L433.06,213.08L433.11,213.08L443.59,213.77L443.65,213.85L450.91,214.42L450.96,214.64L456.06,215.33L456.12,215.42L457.78,215.65" style="vector-effect: non-scaling-stroke; fill: none; stroke: rgb(99, 110, 250); stroke-opacity: 1; stroke-width: 2px; opacity: 1;"/></g><g class="points"/><g class="text"/></g></g></g><g class="overplot"><g class="xy2" transform="translate(68,20)" clip-path="url(#clipfb31fdxy2plot)"><g class="scatterlayer mlayer"><g class="trace scatter traceed860a" style="stroke-miterlimit: 2; opacity: 1;"><g class="fills"/><g class="errorbars"/><g class="lines"><path class="js-line" d="M0,11.35L15.13,60.19L15.19,60.35L21.78,77.79L21.84,77.92L30.37,97.6L30.43,97.72L41.29,118.73L41.35,118.82L49.44,131.99L49.5,132.07L58.53,144.66L58.59,144.73L69.45,157.37L69.51,157.42L78.65,166.29L78.71,166.34L87.63,173.69L87.69,173.73L100.32,182.29L100.38,182.32L114.96,190.05L115.01,190.07L128.65,195.66L128.7,195.68L146.55,201.2L146.61,201.21L157.14,203.72L157.19,203.73L173.32,206.76L173.38,206.76L192.45,209.37L192.5,209.37L219.72,211.83L219.77,211.83L233.41,212.68L233.46,212.68L271.82,214.19L271.87,214.19L292.6,214.66L292.66,214.66L310.34,214.95L310.4,214.95L457.78,215.65" style="vector-effect: non-scaling-stroke; fill: none; stroke: rgb(239, 85, 59); stroke-opacity: 1; stroke-width: 2px; opacity: 1;"/></g><g class="points"/><g class="text"/></g></g></g></g><path class="xlines-above crisp" d="M0,0" style="fill: none;"/><path class="ylines-above crisp" d="M0,0" style="fill: none;"/><g class="overlines-above"><path class="xy2-x crisp" d="M0,0" style="fill: none;"/><path class="xy2-y crisp" d="M0,0" style="fill: none;"/></g><g class="xaxislayer-above"><g class="xtick"><text text-anchor="middle" x="0" y="260" transform="translate(68,0)" style="font-family: 'Open Sans', verdana, arial, sans-serif; font-size: 12px; fill: rgb(42, 63, 95); fill-opacity: 1; white-space: pre; opacity: 1;">0</text></g><g class="xtick"><text text-anchor="middle" x="0" y="260" style="font-family: 'Open Sans', verdana, arial, sans-serif; font-size: 12px; fill: rgb(42, 63, 95); fill-opacity: 1; white-space: pre; opacity: 1;" transform="translate(178.86,0)">2000</text></g><g class="xtick"><text text-anchor="middle" x="0" y="260" style="font-family: 'Open Sans', verdana, arial, sans-serif; font-size: 12px; fill: rgb(42, 63, 95); fill-opacity: 1; white-space: pre; opacity: 1;" transform="translate(289.71000000000004,0)">4000</text></g><g class="xtick"><text text-anchor="middle" x="0" y="260" style="font-family: 'Open Sans', verdana, arial, sans-serif; font-size: 12px; fill: rgb(42, 63, 95); fill-opacity: 1; white-space: pre; opacity: 1;" transform="translate(400.57,0)">6000</text></g><g class="xtick"><text text-anchor="middle" x="0" y="260" style="font-family: 'Open Sans', verdana, arial, sans-serif; font-size: 12px; fill: rgb(42, 63, 95); fill-opacity: 1; white-space: pre; opacity: 1;" transform="translate(511.42,0)">8000</text></g></g><g class="yaxislayer-above"><g class="ytick"><text text-anchor="end" x="67" y="4.199999999999999" transform="translate(0,240.27)" style="font-family: 'Open Sans', verdana, arial, sans-serif; font-size: 12px; fill: rgb(42, 63, 95); fill-opacity: 1; white-space: pre; opacity: 1;">240k</text></g><g class="ytick"><text text-anchor="end" x="67" y="4.199999999999999" style="font-family: 'Open Sans', verdana, arial, sans-serif; font-size: 12px; fill: rgb(42, 63, 95); fill-opacity: 1; white-space: pre; opacity: 1;" transform="translate(0,180.4)">260k</text></g><g class="ytick"><text text-anchor="end" x="67" y="4.199999999999999" style="font-family: 'Open Sans', verdana, arial, sans-serif; font-size: 12px; fill: rgb(42, 63, 95); fill-opacity: 1; white-space: pre; opacity: 1;" transform="translate(0,120.54)">280k</text></g><g class="ytick"><text text-anchor="end" x="67" y="4.199999999999999" style="font-family: 'Open Sans', verdana, arial, sans-serif; font-size: 12px; fill: rgb(42, 63, 95); fill-opacity: 1; white-space: pre; opacity: 1;" transform="translate(0,60.67)">300k</text></g></g><g class="overaxes-above"><g class="xy2-x"/><g class="xy2-y"><g class="y2tick"><text text-anchor="start" x="526.78" y="4.199999999999999" transform="translate(0,235.7)" style="font-family: 'Open Sans', verdana, arial, sans-serif; font-size: 12px; fill: rgb(42, 63, 95); fill-opacity: 1; white-space: pre; opacity: 1;">0</text></g><g class="y2tick"><text text-anchor="start" x="526.78" y="4.199999999999999" style="font-family: 'Open Sans', verdana, arial, sans-serif; font-size: 12px; fill: rgb(42, 63, 95); fill-opacity: 1; white-space: pre; opacity: 1;" transform="translate(0,184.61)">500</text></g><g class="y2tick"><text text-anchor="start" x="526.78" y="4.199999999999999" style="font-family: 'Open Sans', verdana, arial, sans-serif; font-size: 12px; fill: rgb(42, 63, 95); fill-opacity: 1; white-space: pre; opacity: 1;" transform="translate(0,133.53)">1000</text></g><g class="y2tick"><text text-anchor="start" x="526.78" y="4.199999999999999" style="font-family: 'Open Sans', verdana, arial, sans-serif; font-size: 12px; fill: rgb(42, 63, 95); fill-opacity: 1; white-space: pre; opacity: 1;" transform="translate(0,82.44)">1500</text></g><g class="y2tick"><text text-anchor="start" x="526.78" y="4.199999999999999" style="font-family: 'Open Sans', verdana, arial, sans-serif; font-size: 12px; fill: rgb(42, 63, 95); fill-opacity: 1; white-space: pre; opacity: 1;" transform="translate(0,31.35)">2000</text></g></g></g></g><g class="subplot xy2"/></g><g class="polarlayer"/><g class="smithlayer"/><g class="ternarylayer"/><g class="geolayer"/><g class="funnelarealayer"/><g class="pielayer"/><g class="iciclelayer"/><g class="treemaplayer"/><g class="sunburstlayer"/><g class="glimages"/><defs id="topdefs-fb31fd"><g class="clips"/><clipPath id="legendfb31fd"><rect width="123" height="48" x="0" y="0"/></clipPath></defs><g class="layer-above"><g class="imagelayer"/><g class="shapelayer"/></g><g class="infolayer"><g class="legend" pointer-events="all" transform="translate(564.74,20)"><rect class="bg" shape-rendering="crispEdges" width="123" height="48" x="0" y="0" style="stroke: rgb(68, 68, 68); stroke-opacity: 1; fill: rgb(255, 255, 255); fill-opacity: 1; stroke-width: 0px;"/><g class="scrollbox" transform="" clip-path="url(#legendfb31fd)"><g class="groups"><g class="traces" transform="translate(0,14.5)" style="opacity: 1;"><text class="legendtext" text-anchor="start" x="40" y="4.680000000000001" style="font-family: 'Open Sans', verdana, arial, sans-serif; font-size: 12px; fill: rgb(42, 63, 95); fill-opacity: 1; white-space: pre;">Cost</text><g class="layers" style="opacity: 1;"><g class="legendfill"/><g class="legendlines"><path class="js-line" d="M5,0h30" style="fill: none; stroke: rgb(99, 110, 250); stroke-opacity: 1; stroke-width: 2px;"/></g><g class="legendsymbols"><g class="legendpoints"/></g></g><rect class="legendtoggle" x="0" y="-9.5" width="117.265625" height="19" style="fill: rgb(0, 0, 0); fill-opacity: 0;"/></g><g class="traces" transform="translate(0,33.5)" style="opacity: 1;"><text class="legendtext" text-anchor="start" x="40" y="4.680000000000001" style="font-family: 'Open Sans', verdana, arial, sans-serif; font-size: 12px; fill: rgb(42, 63, 95); fill-opacity: 1; white-space: pre;">Temperature</text><g class="layers" style="opacity: 1;"><g class="legendfill"/><g class="legendlines"><path class="js-line" d="M5,0h30" style="fill: none; stroke: rgb(239, 85, 59); stroke-opacity: 1; stroke-width: 2px;"/></g><g class="legendsymbols"><g class="legendpoints"/></g></g><rect class="legendtoggle" x="0" y="-9.5" width="117.265625" height="19" style="fill: rgb(0, 0, 0); fill-opacity: 0;"/></g></g></g><rect class="scrollbar" rx="20" ry="3" width="0" height="0" x="0" y="0" style="fill: rgb(128, 139, 164); fill-opacity: 1;"/></g><g class="g-gtitle"/><g class="g-xtitle"><text class="xtitle" x="296.89" y="287.8" text-anchor="middle" style="font-family: 'Open Sans', verdana, arial, sans-serif; font-size: 14px; fill: rgb(42, 63, 95); opacity: 1; font-weight: normal; white-space: pre;">Iterations</text></g><g class="g-ytitle" transform="translate(1.7998046875,0)"><text class="ytitle" transform="rotate(-90,12.200000000000003,133.5)" x="12.200000000000003" y="133.5" text-anchor="middle" style="font-family: 'Open Sans', verdana, arial, sans-serif; font-size: 14px; fill: rgb(42, 63, 95); opacity: 1; font-weight: normal; white-space: pre;">Cost</text></g><g class="g-y2title"><text class="y2title" transform="rotate(-90,582.471875,133.5)" x="582.471875" y="133.5" text-anchor="middle" style="font-family: 'Open Sans', verdana, arial, sans-serif; font-size: 14px; fill: rgb(42, 63, 95); opacity: 1; font-weight: normal; white-space: pre;">Temperature</text></g></g></svg>